<?xml version='1.0' encoding='utf-8'?>
<mlt LC_NUMERIC="C" producer="main_bin" root="/mnt/data1/Anime-Edits/Monster/Monster-Editing/Editing" version="7.26.0">
 <profile colorspace="709" description="1440x1080 23.98fps" display_aspect_den="3" display_aspect_num="4" frame_rate_den="1001" frame_rate_num="24000" height="1080" progressive="1" sample_aspect_den="1" sample_aspect_num="1" width="1440"/>
 <chain id="producer0" out="00:24:09.509">
  <property name="length">34754</property>
  <property name="eof">pause</property>
  <property name="resource">/mnt/data0/Monster/Monster-Editing/Orig/Monster - Chapter 19 - The Monster's Abyss.mkv</property>
  <property name="mlt_service">avformat-novalidate</property>
  <property name="audio_index">1</property>
  <property name="video_index">0</property>
  <property name="meta.media.nb_streams">23</property>
  <property name="meta.media.0.stream.type">video</property>
  <property name="meta.media.0.stream.frame_rate">23.976</property>
  <property name="meta.media.0.stream.sample_aspect_ratio">1</property>
  <property name="meta.media.0.codec.width">1440</property>
  <property name="meta.media.0.codec.height">1080</property>
  <property name="meta.media.0.codec.rotate">0</property>
  <property name="meta.media.0.codec.pix_fmt">yuv420p10le</property>
  <property name="meta.media.0.codec.sample_aspect_ratio">1</property>
  <property name="meta.media.0.codec.colorspace">709</property>
  <property name="meta.media.0.codec.color_trc">1</property>
  <property name="meta.media.0.codec.name">hevc</property>
  <property name="meta.media.0.codec.long_name">HEVC (High Efficiency Video Coding)</property>
  <property name="meta.media.0.codec.bit_rate">0</property>
  <property name="meta.attr.0.stream.BPS-eng.markup">1904117</property>
  <property name="meta.attr.0.stream.DURATION-eng.markup">00:24:09.532000000</property>
  <property name="meta.attr.0.stream.NUMBER_OF_FRAMES-eng.markup">34754</property>
  <property name="meta.attr.0.stream.NUMBER_OF_BYTES-eng.markup">345009873</property>
  <property name="meta.attr.0.stream._STATISTICS_WRITING_APP-eng.markup">mkvmerge v52.0.0 ('Secret For The Mad') 64-bit</property>
  <property name="meta.attr.0.stream._STATISTICS_WRITING_DATE_UTC-eng.markup">2022-11-09 08:59:04</property>
  <property name="meta.attr.0.stream._STATISTICS_TAGS-eng.markup">BPS DURATION NUMBER_OF_FRAMES NUMBER_OF_BYTES</property>
  <property name="meta.media.1.stream.type">audio</property>
  <property name="meta.media.1.codec.sample_fmt">fltp</property>
  <property name="meta.media.1.codec.sample_rate">48000</property>
  <property name="meta.media.1.codec.channels">2</property>
  <property name="meta.media.1.codec.name">ac3</property>
  <property name="meta.media.1.codec.long_name">ATSC A/52A (AC-3)</property>
  <property name="meta.media.1.codec.bit_rate">448000</property>
  <property name="meta.attr.1.stream.language.markup">jpn</property>
  <property name="meta.attr.1.stream.title.markup">Japanese DVD AC-3 DD_2.0</property>
  <property name="meta.attr.1.stream.BPS-eng.markup">448000</property>
  <property name="meta.attr.1.stream.DURATION-eng.markup">00:24:09.440000000</property>
  <property name="meta.attr.1.stream.NUMBER_OF_FRAMES-eng.markup">45295</property>
  <property name="meta.attr.1.stream.NUMBER_OF_BYTES-eng.markup">81168640</property>
  <property name="meta.attr.1.stream._STATISTICS_WRITING_APP-eng.markup">mkvmerge v52.0.0 ('Secret For The Mad') 64-bit</property>
  <property name="meta.attr.1.stream._STATISTICS_WRITING_DATE_UTC-eng.markup">2022-11-09 08:59:04</property>
  <property name="meta.attr.1.stream._STATISTICS_TAGS-eng.markup">BPS DURATION NUMBER_OF_FRAMES NUMBER_OF_BYTES</property>
  <property name="meta.media.2.stream.type">audio</property>
  <property name="meta.media.2.codec.sample_fmt">fltp</property>
  <property name="meta.media.2.codec.sample_rate">44100</property>
  <property name="meta.media.2.codec.channels">2</property>
  <property name="meta.media.2.codec.name">aac</property>
  <property name="meta.media.2.codec.long_name">AAC (Advanced Audio Coding)</property>
  <property name="meta.media.2.codec.bit_rate">0</property>
  <property name="meta.attr.2.stream.language.markup">eng</property>
  <property name="meta.attr.2.stream.title.markup">English AAC DD_2.0</property>
  <property name="meta.attr.2.stream.BPS-eng.markup">142783</property>
  <property name="meta.attr.2.stream.DURATION-eng.markup">00:23:54.737000000</property>
  <property name="meta.attr.2.stream.NUMBER_OF_FRAMES-eng.markup">61789</property>
  <property name="meta.attr.2.stream.NUMBER_OF_BYTES-eng.markup">25607167</property>
  <property name="meta.attr.2.stream._STATISTICS_WRITING_APP-eng.markup">mkvmerge v52.0.0 ('Secret For The Mad') 64-bit</property>
  <property name="meta.attr.2.stream._STATISTICS_WRITING_DATE_UTC-eng.markup">2022-11-09 08:59:04</property>
  <property name="meta.attr.2.stream._STATISTICS_TAGS-eng.markup">BPS DURATION NUMBER_OF_FRAMES NUMBER_OF_BYTES</property>
  <property name="meta.media.3.codec.name">ssa</property>
  <property name="meta.media.3.codec.long_name">ASS (Advanced SubStation Alpha) subtitle</property>
  <property name="meta.media.3.codec.bit_rate">0</property>
  <property name="meta.attr.3.stream.language.markup">eng</property>
  <property name="meta.attr.3.stream.title.markup">English (Full) ASS</property>
  <property name="meta.attr.3.stream.BPS-eng.markup">95</property>
  <property name="meta.attr.3.stream.DURATION-eng.markup">00:23:51.210000000</property>
  <property name="meta.attr.3.stream.NUMBER_OF_FRAMES-eng.markup">281</property>
  <property name="meta.attr.3.stream.NUMBER_OF_BYTES-eng.markup">17133</property>
  <property name="meta.attr.3.stream._STATISTICS_WRITING_APP-eng.markup">mkvmerge v52.0.0 ('Secret For The Mad') 64-bit</property>
  <property name="meta.attr.3.stream._STATISTICS_WRITING_DATE_UTC-eng.markup">2022-11-09 08:59:04</property>
  <property name="meta.attr.3.stream._STATISTICS_TAGS-eng.markup">BPS DURATION NUMBER_OF_FRAMES NUMBER_OF_BYTES</property>
  <property name="meta.media.4.codec.name">ssa</property>
  <property name="meta.media.4.codec.long_name">ASS (Advanced SubStation Alpha) subtitle</property>
  <property name="meta.media.4.codec.bit_rate">0</property>
  <property name="meta.attr.4.stream.language.markup">eng</property>
  <property name="meta.attr.4.stream.title.markup">English (Titles &amp; Signs) ASS</property>
  <property name="meta.attr.4.stream.BPS-eng.markup">0</property>
  <property name="meta.attr.4.stream.DURATION-eng.markup">00:20:56.360000000</property>
  <property name="meta.attr.4.stream.NUMBER_OF_FRAMES-eng.markup">2</property>
  <property name="meta.attr.4.stream.NUMBER_OF_BYTES-eng.markup">140</property>
  <property name="meta.attr.4.stream._STATISTICS_WRITING_APP-eng.markup">mkvmerge v52.0.0 ('Secret For The Mad') 64-bit</property>
  <property name="meta.attr.4.stream._STATISTICS_WRITING_DATE_UTC-eng.markup">2022-11-09 08:59:04</property>
  <property name="meta.attr.4.stream._STATISTICS_TAGS-eng.markup">BPS DURATION NUMBER_OF_FRAMES NUMBER_OF_BYTES</property>
  <property name="meta.media.5.codec.name">ssa</property>
  <property name="meta.media.5.codec.long_name">ASS (Advanced SubStation Alpha) subtitle</property>
  <property name="meta.media.5.codec.bit_rate">0</property>
  <property name="meta.attr.5.stream.language.markup">ara</property>
  <property name="meta.attr.5.stream.title.markup">Arabic</property>
  <property name="meta.attr.5.stream.BPS-eng.markup">131</property>
  <property name="meta.attr.5.stream.DURATION-eng.markup">00:22:15.840000000</property>
  <property name="meta.attr.5.stream.NUMBER_OF_FRAMES-eng.markup">331</property>
  <property name="meta.attr.5.stream.NUMBER_OF_BYTES-eng.markup">21966</property>
  <property name="meta.attr.5.stream._STATISTICS_WRITING_APP-eng.markup">mkvmerge v52.0.0 ('Secret For The Mad') 64-bit</property>
  <property name="meta.attr.5.stream._STATISTICS_WRITING_DATE_UTC-eng.markup">2022-11-09 08:59:04</property>
  <property name="meta.attr.5.stream._STATISTICS_TAGS-eng.markup">BPS DURATION NUMBER_OF_FRAMES NUMBER_OF_BYTES</property>
  <property name="meta.attr.title.markup">Monster : Chapter 19 : The Monster's Abyss</property>
  <property name="meta.attr.encoder.markup">libebml v1.4.1 + libmatroska v1.6.2</property>
  <property name="meta.attr.creation_time.markup">2022-11-09T08:59:04.000000Z</property>
  <property name="seekable">1</property>
  <property name="meta.media.sample_aspect_num">1</property>
  <property name="meta.media.sample_aspect_den">1</property>
  <property name="aspect_ratio">1</property>
  <property name="format">3</property>
  <property name="kdenlive:clipname"/>
  <property name="kdenlive:clip_type">0</property>
  <property name="kdenlive:folderid">-1</property>
  <property name="kdenlive:id">2</property>
  <property name="kdenlive:active_streams">1;2</property>
  <property name="kdenlive:file_size">454712550</property>
  <property name="kdenlive:file_hash">a7817b455b32b7291f1e9e90ffd0899a</property>
  <property name="kdenlive:audio_max1">172</property>
  <property name="kdenlive:audio_max2">195</property>
  <property name="meta.media.frame_rate_num">24000</property>
  <property name="meta.media.frame_rate_den">1001</property>
  <property name="meta.media.colorspace">709</property>
  <property name="meta.media.color_trc">1</property>
  <property name="meta.media.has_b_frames">2</property>
  <property name="meta.media.width">1440</property>
  <property name="meta.media.height">1080</property>
  <property name="meta.media.color_range">mpeg</property>
  <property name="meta.media.top_field_first">0</property>
  <property name="meta.media.progressive">1</property>
  <property name="kdenlive:control_uuid">{d838ee6f-d0e9-4032-854d-5e5647419570}</property>
 </chain>
 <chain id="producer1" out="00:23:56.598">
  <property name="length">34444</property>
  <property name="eof">pause</property>
  <property name="resource">/mnt/data0/Monster/Monster-Editing/Orig/Monster - Chapter 20 - Journey To Freiham.mkv</property>
  <property name="mlt_service">avformat-novalidate</property>
  <property name="audio_index">1</property>
  <property name="video_index">0</property>
  <property name="meta.media.nb_streams">44</property>
  <property name="meta.media.0.stream.type">video</property>
  <property name="meta.media.0.stream.frame_rate">23.976</property>
  <property name="meta.media.0.stream.sample_aspect_ratio">1</property>
  <property name="meta.media.0.codec.width">1440</property>
  <property name="meta.media.0.codec.height">1080</property>
  <property name="meta.media.0.codec.rotate">0</property>
  <property name="meta.media.0.codec.pix_fmt">yuv420p10le</property>
  <property name="meta.media.0.codec.sample_aspect_ratio">1</property>
  <property name="meta.media.0.codec.colorspace">709</property>
  <property name="meta.media.0.codec.color_trc">1</property>
  <property name="meta.media.0.codec.name">hevc</property>
  <property name="meta.media.0.codec.long_name">HEVC (High Efficiency Video Coding)</property>
  <property name="meta.media.0.codec.bit_rate">0</property>
  <property name="meta.attr.0.stream.BPS-eng.markup">2240041</property>
  <property name="meta.attr.0.stream.DURATION-eng.markup">00:23:56.602000000</property>
  <property name="meta.attr.0.stream.NUMBER_OF_FRAMES-eng.markup">34444</property>
  <property name="meta.attr.0.stream.NUMBER_OF_BYTES-eng.markup">402255940</property>
  <property name="meta.attr.0.stream._STATISTICS_WRITING_APP-eng.markup">mkvmerge v52.0.0 ('Secret For The Mad') 64-bit</property>
  <property name="meta.attr.0.stream._STATISTICS_WRITING_DATE_UTC-eng.markup">2022-11-10 08:25:02</property>
  <property name="meta.attr.0.stream._STATISTICS_TAGS-eng.markup">BPS DURATION NUMBER_OF_FRAMES NUMBER_OF_BYTES</property>
  <property name="meta.media.1.stream.type">audio</property>
  <property name="meta.media.1.codec.sample_fmt">fltp</property>
  <property name="meta.media.1.codec.sample_rate">48000</property>
  <property name="meta.media.1.codec.channels">2</property>
  <property name="meta.media.1.codec.name">ac3</property>
  <property name="meta.media.1.codec.long_name">ATSC A/52A (AC-3)</property>
  <property name="meta.media.1.codec.bit_rate">448000</property>
  <property name="meta.attr.1.stream.language.markup">jpn</property>
  <property name="meta.attr.1.stream.title.markup">Japanese DVD AC-3 DD_2.0</property>
  <property name="meta.attr.1.stream.BPS-eng.markup">448000</property>
  <property name="meta.attr.1.stream.DURATION-eng.markup">00:23:56.608000000</property>
  <property name="meta.attr.1.stream.NUMBER_OF_FRAMES-eng.markup">44894</property>
  <property name="meta.attr.1.stream.NUMBER_OF_BYTES-eng.markup">80450048</property>
  <property name="meta.attr.1.stream._STATISTICS_WRITING_APP-eng.markup">mkvmerge v52.0.0 ('Secret For The Mad') 64-bit</property>
  <property name="meta.attr.1.stream._STATISTICS_WRITING_DATE_UTC-eng.markup">2022-11-10 08:25:02</property>
  <property name="meta.attr.1.stream._STATISTICS_TAGS-eng.markup">BPS DURATION NUMBER_OF_FRAMES NUMBER_OF_BYTES</property>
  <property name="meta.media.2.stream.type">audio</property>
  <property name="meta.media.2.codec.sample_fmt">fltp</property>
  <property name="meta.media.2.codec.sample_rate">44100</property>
  <property name="meta.media.2.codec.channels">2</property>
  <property name="meta.media.2.codec.name">aac</property>
  <property name="meta.media.2.codec.long_name">AAC (Advanced Audio Coding)</property>
  <property name="meta.media.2.codec.bit_rate">0</property>
  <property name="meta.attr.2.stream.language.markup">eng</property>
  <property name="meta.attr.2.stream.title.markup">English AAC DD_2.0</property>
  <property name="meta.attr.2.stream.BPS-eng.markup">139548</property>
  <property name="meta.attr.2.stream.DURATION-eng.markup">00:23:56.317000000</property>
  <property name="meta.attr.2.stream.NUMBER_OF_FRAMES-eng.markup">61857</property>
  <property name="meta.attr.2.stream.NUMBER_OF_BYTES-eng.markup">25054556</property>
  <property name="meta.attr.2.stream._STATISTICS_WRITING_APP-eng.markup">mkvmerge v52.0.0 ('Secret For The Mad') 64-bit</property>
  <property name="meta.attr.2.stream._STATISTICS_WRITING_DATE_UTC-eng.markup">2022-11-10 08:25:02</property>
  <property name="meta.attr.2.stream._STATISTICS_TAGS-eng.markup">BPS DURATION NUMBER_OF_FRAMES NUMBER_OF_BYTES</property>
  <property name="meta.media.3.codec.name">ssa</property>
  <property name="meta.media.3.codec.long_name">ASS (Advanced SubStation Alpha) subtitle</property>
  <property name="meta.media.3.codec.bit_rate">0</property>
  <property name="meta.attr.3.stream.language.markup">eng</property>
  <property name="meta.attr.3.stream.title.markup">English (Full) ASS</property>
  <property name="meta.attr.3.stream.BPS-eng.markup">67</property>
  <property name="meta.attr.3.stream.DURATION-eng.markup">00:23:52.570000000</property>
  <property name="meta.attr.3.stream.NUMBER_OF_FRAMES-eng.markup">223</property>
  <property name="meta.attr.3.stream.NUMBER_OF_BYTES-eng.markup">12012</property>
  <property name="meta.attr.3.stream._STATISTICS_WRITING_APP-eng.markup">mkvmerge v52.0.0 ('Secret For The Mad') 64-bit</property>
  <property name="meta.attr.3.stream._STATISTICS_WRITING_DATE_UTC-eng.markup">2022-11-10 08:25:02</property>
  <property name="meta.attr.3.stream._STATISTICS_TAGS-eng.markup">BPS DURATION NUMBER_OF_FRAMES NUMBER_OF_BYTES</property>
  <property name="meta.media.4.codec.name">ssa</property>
  <property name="meta.media.4.codec.long_name">ASS (Advanced SubStation Alpha) subtitle</property>
  <property name="meta.media.4.codec.bit_rate">0</property>
  <property name="meta.attr.4.stream.language.markup">eng</property>
  <property name="meta.attr.4.stream.title.markup">English (Titles &amp; Signs) ASS</property>
  <property name="meta.attr.4.stream.BPS-eng.markup">1</property>
  <property name="meta.attr.4.stream.DURATION-eng.markup">00:19:18.660000000</property>
  <property name="meta.attr.4.stream.NUMBER_OF_FRAMES-eng.markup">3</property>
  <property name="meta.attr.4.stream.NUMBER_OF_BYTES-eng.markup">196</property>
  <property name="meta.attr.4.stream._STATISTICS_WRITING_APP-eng.markup">mkvmerge v52.0.0 ('Secret For The Mad') 64-bit</property>
  <property name="meta.attr.4.stream._STATISTICS_WRITING_DATE_UTC-eng.markup">2022-11-10 08:25:02</property>
  <property name="meta.attr.4.stream._STATISTICS_TAGS-eng.markup">BPS DURATION NUMBER_OF_FRAMES NUMBER_OF_BYTES</property>
  <property name="meta.media.5.codec.name">ssa</property>
  <property name="meta.media.5.codec.long_name">ASS (Advanced SubStation Alpha) subtitle</property>
  <property name="meta.media.5.codec.bit_rate">0</property>
  <property name="meta.attr.5.stream.language.markup">ara</property>
  <property name="meta.attr.5.stream.title.markup">Arabic</property>
  <property name="meta.attr.5.stream.BPS-eng.markup">88</property>
  <property name="meta.attr.5.stream.DURATION-eng.markup">00:22:16.350000000</property>
  <property name="meta.attr.5.stream.NUMBER_OF_FRAMES-eng.markup">278</property>
  <property name="meta.attr.5.stream.NUMBER_OF_BYTES-eng.markup">14817</property>
  <property name="meta.attr.5.stream._STATISTICS_WRITING_APP-eng.markup">mkvmerge v52.0.0 ('Secret For The Mad') 64-bit</property>
  <property name="meta.attr.5.stream._STATISTICS_WRITING_DATE_UTC-eng.markup">2022-11-10 08:25:02</property>
  <property name="meta.attr.5.stream._STATISTICS_TAGS-eng.markup">BPS DURATION NUMBER_OF_FRAMES NUMBER_OF_BYTES</property>
  <property name="meta.media.6.stream.type">video</property>
  <property name="meta.media.6.stream.frame_rate">23.976</property>
  <property name="meta.media.6.stream.sample_aspect_ratio">1</property>
  <property name="meta.media.6.codec.width">1440</property>
  <property name="meta.media.6.codec.height">1080</property>
  <property name="meta.media.6.codec.rotate">0</property>
  <property name="meta.media.6.codec.pix_fmt">yuv420p10le</property>
  <property name="meta.media.6.codec.sample_aspect_ratio">1</property>
  <property name="meta.media.6.codec.colorspace">709</property>
  <property name="meta.media.6.codec.color_trc">1</property>
  <property name="meta.media.6.codec.name">hevc</property>
  <property name="meta.media.6.codec.long_name">HEVC (High Efficiency Video Coding)</property>
  <property name="meta.media.6.codec.bit_rate">0</property>
  <property name="meta.attr.6.stream.BPS-eng.markup">2240041</property>
  <property name="meta.attr.6.stream.DURATION-eng.markup">00:23:56.602000000</property>
  <property name="meta.attr.6.stream.NUMBER_OF_FRAMES-eng.markup">34444</property>
  <property name="meta.attr.6.stream.NUMBER_OF_BYTES-eng.markup">402255940</property>
  <property name="meta.attr.6.stream._STATISTICS_WRITING_APP-eng.markup">mkvmerge v52.0.0 ('Secret For The Mad') 64-bit</property>
  <property name="meta.attr.6.stream._STATISTICS_WRITING_DATE_UTC-eng.markup">2022-11-10 08:25:02</property>
  <property name="meta.attr.6.stream._STATISTICS_TAGS-eng.markup">BPS DURATION NUMBER_OF_FRAMES NUMBER_OF_BYTES</property>
  <property name="meta.media.7.stream.type">audio</property>
  <property name="meta.media.7.codec.sample_fmt">fltp</property>
  <property name="meta.media.7.codec.sample_rate">48000</property>
  <property name="meta.media.7.codec.channels">2</property>
  <property name="meta.media.7.codec.name">ac3</property>
  <property name="meta.media.7.codec.long_name">ATSC A/52A (AC-3)</property>
  <property name="meta.media.7.codec.bit_rate">0</property>
  <property name="meta.attr.7.stream.language.markup">jpn</property>
  <property name="meta.attr.7.stream.title.markup">Japanese DVD AC-3 DD_2.0</property>
  <property name="meta.attr.7.stream.BPS-eng.markup">448000</property>
  <property name="meta.attr.7.stream.DURATION-eng.markup">00:23:56.608000000</property>
  <property name="meta.attr.7.stream.NUMBER_OF_FRAMES-eng.markup">44894</property>
  <property name="meta.attr.7.stream.NUMBER_OF_BYTES-eng.markup">80450048</property>
  <property name="meta.attr.7.stream._STATISTICS_WRITING_APP-eng.markup">mkvmerge v52.0.0 ('Secret For The Mad') 64-bit</property>
  <property name="meta.attr.7.stream._STATISTICS_WRITING_DATE_UTC-eng.markup">2022-11-10 08:25:02</property>
  <property name="meta.attr.7.stream._STATISTICS_TAGS-eng.markup">BPS DURATION NUMBER_OF_FRAMES NUMBER_OF_BYTES</property>
  <property name="meta.media.8.stream.type">audio</property>
  <property name="meta.media.8.codec.sample_fmt">fltp</property>
  <property name="meta.media.8.codec.sample_rate">44100</property>
  <property name="meta.media.8.codec.channels">2</property>
  <property name="meta.media.8.codec.name">aac</property>
  <property name="meta.media.8.codec.long_name">AAC (Advanced Audio Coding)</property>
  <property name="meta.media.8.codec.bit_rate">0</property>
  <property name="meta.attr.8.stream.language.markup">eng</property>
  <property name="meta.attr.8.stream.title.markup">English AAC DD_2.0</property>
  <property name="meta.attr.8.stream.BPS-eng.markup">139548</property>
  <property name="meta.attr.8.stream.DURATION-eng.markup">00:23:56.317000000</property>
  <property name="meta.attr.8.stream.NUMBER_OF_FRAMES-eng.markup">61857</property>
  <property name="meta.attr.8.stream.NUMBER_OF_BYTES-eng.markup">25054556</property>
  <property name="meta.attr.8.stream._STATISTICS_WRITING_APP-eng.markup">mkvmerge v52.0.0 ('Secret For The Mad') 64-bit</property>
  <property name="meta.attr.8.stream._STATISTICS_WRITING_DATE_UTC-eng.markup">2022-11-10 08:25:02</property>
  <property name="meta.attr.8.stream._STATISTICS_TAGS-eng.markup">BPS DURATION NUMBER_OF_FRAMES NUMBER_OF_BYTES</property>
  <property name="meta.media.9.codec.name">ssa</property>
  <property name="meta.media.9.codec.long_name">ASS (Advanced SubStation Alpha) subtitle</property>
  <property name="meta.media.9.codec.bit_rate">0</property>
  <property name="meta.attr.9.stream.language.markup">eng</property>
  <property name="meta.attr.9.stream.title.markup">English (Full) ASS</property>
  <property name="meta.attr.9.stream.BPS-eng.markup">67</property>
  <property name="meta.attr.9.stream.DURATION-eng.markup">00:23:52.570000000</property>
  <property name="meta.attr.9.stream.NUMBER_OF_FRAMES-eng.markup">223</property>
  <property name="meta.attr.9.stream.NUMBER_OF_BYTES-eng.markup">12012</property>
  <property name="meta.attr.9.stream._STATISTICS_WRITING_APP-eng.markup">mkvmerge v52.0.0 ('Secret For The Mad') 64-bit</property>
  <property name="meta.attr.9.stream._STATISTICS_WRITING_DATE_UTC-eng.markup">2022-11-10 08:25:02</property>
  <property name="meta.attr.9.stream._STATISTICS_TAGS-eng.markup">BPS DURATION NUMBER_OF_FRAMES NUMBER_OF_BYTES</property>
  <property name="meta.media.10.codec.name">ssa</property>
  <property name="meta.media.10.codec.long_name">ASS (Advanced SubStation Alpha) subtitle</property>
  <property name="meta.media.10.codec.bit_rate">0</property>
  <property name="meta.attr.10.stream.language.markup">eng</property>
  <property name="meta.attr.10.stream.title.markup">English (Titles &amp; Signs) ASS</property>
  <property name="meta.attr.10.stream.BPS-eng.markup">1</property>
  <property name="meta.attr.10.stream.DURATION-eng.markup">00:19:18.660000000</property>
  <property name="meta.attr.10.stream.NUMBER_OF_FRAMES-eng.markup">3</property>
  <property name="meta.attr.10.stream.NUMBER_OF_BYTES-eng.markup">196</property>
  <property name="meta.attr.10.stream._STATISTICS_WRITING_APP-eng.markup">mkvmerge v52.0.0 ('Secret For The Mad') 64-bit</property>
  <property name="meta.attr.10.stream._STATISTICS_WRITING_DATE_UTC-eng.markup">2022-11-10 08:25:02</property>
  <property name="meta.attr.10.stream._STATISTICS_TAGS-eng.markup">BPS DURATION NUMBER_OF_FRAMES NUMBER_OF_BYTES</property>
  <property name="meta.media.11.codec.name">ssa</property>
  <property name="meta.media.11.codec.long_name">ASS (Advanced SubStation Alpha) subtitle</property>
  <property name="meta.media.11.codec.bit_rate">0</property>
  <property name="meta.attr.11.stream.language.markup">ara</property>
  <property name="meta.attr.11.stream.title.markup">Arabic</property>
  <property name="meta.attr.11.stream.BPS-eng.markup">88</property>
  <property name="meta.attr.11.stream.DURATION-eng.markup">00:22:16.350000000</property>
  <property name="meta.attr.11.stream.NUMBER_OF_FRAMES-eng.markup">278</property>
  <property name="meta.attr.11.stream.NUMBER_OF_BYTES-eng.markup">14817</property>
  <property name="meta.attr.11.stream._STATISTICS_WRITING_APP-eng.markup">mkvmerge v52.0.0 ('Secret For The Mad') 64-bit</property>
  <property name="meta.attr.11.stream._STATISTICS_WRITING_DATE_UTC-eng.markup">2022-11-10 08:25:02</property>
  <property name="meta.attr.11.stream._STATISTICS_TAGS-eng.markup">BPS DURATION NUMBER_OF_FRAMES NUMBER_OF_BYTES</property>
  <property name="meta.attr.title.markup">Monster : Chapter 20 : Journey To Freiham</property>
  <property name="meta.attr.encoder.markup">libebml v1.4.1 + libmatroska v1.6.2</property>
  <property name="meta.attr.creation_time.markup">2022-11-10T08:25:02.000000Z</property>
  <property name="seekable">1</property>
  <property name="meta.media.sample_aspect_num">1</property>
  <property name="meta.media.sample_aspect_den">1</property>
  <property name="aspect_ratio">1</property>
  <property name="format">3</property>
  <property name="kdenlive:clipname"/>
  <property name="kdenlive:clip_type">0</property>
  <property name="kdenlive:folderid">-1</property>
  <property name="kdenlive:id">3</property>
  <property name="kdenlive:active_streams">1;2;7;8</property>
  <property name="kdenlive:multistreams">1</property>
  <property name="kdenlive:file_size">912921380</property>
  <property name="kdenlive:file_hash">36b9335de35c48a951cec6192911db67</property>
  <property name="kdenlive:audio_max1">175</property>
  <property name="meta.media.frame_rate_num">24000</property>
  <property name="meta.media.frame_rate_den">1001</property>
  <property name="meta.media.colorspace">709</property>
  <property name="meta.media.color_trc">1</property>
  <property name="meta.media.has_b_frames">2</property>
  <property name="meta.media.width">1440</property>
  <property name="meta.media.height">1080</property>
  <property name="meta.media.color_range">mpeg</property>
  <property name="meta.media.top_field_first">0</property>
  <property name="meta.media.progressive">1</property>
  <property name="kdenlive:audio_max2">196</property>
  <property name="kdenlive:audio_max7">1</property>
  <property name="kdenlive:audio_max8">1</property>
  <property name="kdenlive:control_uuid">{7c9be1a1-1120-4e8c-9fdf-1d920ba7c419}</property>
 </chain>
 <chain id="chain6" out="00:23:54.012">
  <property name="length">34382</property>
  <property name="eof">pause</property>
  <property name="resource">/mnt/data1/Anime-Edits/Monster/Monster-Editing/Audio/eng/Ep19.wav</property>
  <property name="mlt_service">avformat</property>
  <property name="meta.media.nb_streams">1</property>
  <property name="meta.media.0.stream.type">audio</property>
  <property name="meta.media.0.codec.sample_fmt">s16</property>
  <property name="meta.media.0.codec.sample_rate">48000</property>
  <property name="meta.media.0.codec.channels">2</property>
  <property name="meta.media.0.codec.name">pcm_s16le</property>
  <property name="meta.media.0.codec.long_name">PCM signed 16-bit little-endian</property>
  <property name="meta.media.0.codec.bit_rate">1536000</property>
  <property name="meta.attr.title.markup">Monster : Chapter 19 : The Monster's Abyss</property>
  <property name="meta.attr.encoder.markup">Lavf60.16.100</property>
  <property name="seekable">1</property>
  <property name="audio_index">0</property>
  <property name="video_index">-1</property>
  <property name="astream">0</property>
  <property name="kdenlive:proxy">-</property>
  <property name="kdenlive:originalurl">/mnt/data1/Anime-Edits/Monster/Monster-Editing/Audio/eng/Ep19.wav</property>
  <property name="kdenlive:id">4</property>
  <property name="kdenlive:clip_type">1</property>
  <property name="kdenlive:file_size">275331202</property>
  <property name="kdenlive:file_hash">9caa925ec86cdd4182e64822c6997671</property>
  <property name="kdenlive:folderid">-1</property>
  <property name="kdenlive:audio_max0">177</property>
  <property name="kdenlive:control_uuid">{a2829b8c-c1dd-4428-8576-480c3155dc8b}</property>
  <property name="meta.media.0.codec.layout">independent</property>
 </chain>
 <chain id="chain7" out="00:23:54.012">
  <property name="length">34382</property>
  <property name="eof">pause</property>
  <property name="resource">/mnt/data0/Monster/Monster-Editing/Audio/eng/Ep20.flac</property>
  <property name="mlt_service">avformat</property>
  <property name="meta.media.nb_streams">1</property>
  <property name="meta.media.0.stream.type">audio</property>
  <property name="meta.media.0.codec.sample_fmt">s32</property>
  <property name="meta.media.0.codec.sample_rate">48000</property>
  <property name="meta.media.0.codec.channels">2</property>
  <property name="meta.media.0.codec.name">flac</property>
  <property name="meta.media.0.codec.long_name">FLAC (Free Lossless Audio Codec)</property>
  <property name="meta.media.0.codec.bit_rate">0</property>
  <property name="meta.attr.title.markup">Monster : Chapter 20 : Journey To Freiham</property>
  <property name="meta.attr.encoder.markup">Lavf60.3.100</property>
  <property name="seekable">1</property>
  <property name="audio_index">0</property>
  <property name="video_index">-1</property>
  <property name="astream">0</property>
  <property name="kdenlive:proxy">-</property>
  <property name="kdenlive:originalurl">/mnt/data0/Monster/Monster-Editing/Audio/eng/Ep20.flac</property>
  <property name="kdenlive:id">5</property>
  <property name="kdenlive:clip_type">1</property>
  <property name="kdenlive:file_size">216585378</property>
  <property name="kdenlive:file_hash">8cadb109c8154cd868af1f8f3de3d909</property>
  <property name="kdenlive:folderid">-1</property>
  <property name="kdenlive:audio_max0">176</property>
  <property name="kdenlive:control_uuid">{a55b3165-35b7-42f2-a27e-20fc2e224c1d}</property>
  <property name="meta.media.0.codec.layout">stereo</property>
 </chain>
 <chain id="chain3" out="00:03:45.254">
  <property name="length">5401</property>
  <property name="eof">pause</property>
  <property name="resource">/mnt/data1/Anime-Edits/Monster/Monster-Editing/Monster [Ultimate Collection] By Kira [SEV]/Original Soundtracks [2004]/Monster - Original Soundtrack II [2004]/20 - Make it Home (instrumental).flac</property>
  <property name="mlt_service">avformat-novalidate</property>
  <property name="meta.media.nb_streams">2</property>
  <property name="meta.media.0.stream.type">audio</property>
  <property name="meta.media.0.codec.sample_fmt">s16</property>
  <property name="meta.media.0.codec.sample_rate">44100</property>
  <property name="meta.media.0.codec.channels">2</property>
  <property name="meta.media.0.codec.name">flac</property>
  <property name="meta.media.0.codec.long_name">FLAC (Free Lossless Audio Codec)</property>
  <property name="meta.media.0.codec.bit_rate">0</property>
  <property name="meta.media.1.stream.type">video</property>
  <property name="meta.media.1.stream.frame_rate">90000</property>
  <property name="meta.media.1.stream.sample_aspect_ratio">0</property>
  <property name="meta.media.1.codec.width">1685</property>
  <property name="meta.media.1.codec.height">1475</property>
  <property name="meta.media.1.codec.rotate">0</property>
  <property name="meta.media.1.codec.pix_fmt">yuvj420p</property>
  <property name="meta.media.1.codec.sample_aspect_ratio">0</property>
  <property name="meta.media.1.codec.colorspace">601</property>
  <property name="meta.media.1.codec.name">mjpeg</property>
  <property name="meta.media.1.codec.long_name">MJPEG (Motion JPEG)</property>
  <property name="meta.media.1.codec.bit_rate">0</property>
  <property name="meta.attr.1.stream.comment.markup">Cover (front)</property>
  <property name="meta.attr.TITLE.markup">Make it Home (instrumental)</property>
  <property name="meta.attr.ARTIST.markup">Kuniaki Haishima</property>
  <property name="meta.attr.ALBUM.markup">Monster : Original Soundtrack II</property>
  <property name="meta.attr.DATE.markup">2004</property>
  <property name="meta.attr.GENRE.markup">Anime</property>
  <property name="meta.attr.COMPOSER.markup">Kuniaki Haishima</property>
  <property name="meta.attr.ORIGINALARTIST.markup">Kuniaki Haishima</property>
  <property name="meta.attr.ENCODEDBY.markup">Mr. J</property>
  <property name="meta.attr.track.markup">20/21</property>
  <property name="meta.attr.disc.markup">01/01</property>
  <property name="meta.attr.ORIGARTIST.markup">Kuniaki Haishima</property>
  <property name="meta.attr.ALBUM ARTIST.markup">Kuniaki Haishima</property>
  <property name="meta.attr.ARTISTSORT.markup">Kuniaki Haishima</property>
  <property name="meta.attr.ALBUMARTISTSORT.markup">Kuniaki Haishima</property>
  <property name="meta.attr.ALBUMSORT.markup">Monster : Original Soundtrack II</property>
  <property name="meta.attr.COMPOSERSORT.markup">Kuniaki Haishima</property>
  <property name="meta.attr.SHOWSORT.markup">Monster</property>
  <property name="seekable">1</property>
  <property name="meta.media.sample_aspect_num">1</property>
  <property name="meta.media.sample_aspect_den">1</property>
  <property name="format">3</property>
  <property name="audio_index">0</property>
  <property name="video_index">1</property>
  <property name="vstream">0</property>
  <property name="meta.media.frame_rate_num">90000</property>
  <property name="meta.media.frame_rate_den">1</property>
  <property name="meta.media.colorspace">601</property>
  <property name="meta.media.color_trc">2</property>
  <property name="meta.media.has_b_frames">0</property>
  <property name="meta.media.width">1685</property>
  <property name="meta.media.height">1475</property>
  <property name="meta.media.color_range">full</property>
  <property name="astream">0</property>
  <property name="meta.media.top_field_first">0</property>
  <property name="meta.media.progressive">1</property>
  <property name="kdenlive:folderid">-1</property>
  <property name="kdenlive:id">8</property>
  <property name="mute_on_pause">0</property>
  <property name="kdenlive:clip_type">0</property>
  <property name="kdenlive:file_size">20559228</property>
  <property name="kdenlive:file_hash">b953e3af1dc04ddf20b2754c82ef73ea</property>
  <property name="kdenlive:audio_max0">218</property>
  <property name="kdenlive:control_uuid">{fd2a2d48-1c6d-41b6-877b-90b0555de22c}</property>
 </chain>
 <producer id="producer2" in="00:00:00.000" out="00:48:21.355">
  <property name="length">2147483647</property>
  <property name="eof">continue</property>
  <property name="resource">black</property>
  <property name="aspect_ratio">1</property>
  <property name="mlt_service">color</property>
  <property name="kdenlive:playlistid">black_track</property>
  <property name="mlt_image_format">rgba</property>
  <property name="set.test_audio">0</property>
 </producer>
 <playlist id="playlist0">
  <property name="kdenlive:audio_track">1</property>
 </playlist>
 <playlist id="playlist1">
  <property name="kdenlive:audio_track">1</property>
 </playlist>
 <tractor id="tractor0" in="00:00:00.000">
  <property name="kdenlive:audio_track">1</property>
  <property name="kdenlive:trackheight">67</property>
  <property name="kdenlive:timeline_active">1</property>
  <property name="kdenlive:collapsed">0</property>
  <property name="kdenlive:thumbs_format"/>
  <property name="kdenlive:audio_rec"/>
  <track hide="video" producer="playlist0"/>
  <track hide="video" producer="playlist1"/>
  <filter id="filter0">
   <property name="window">75</property>
   <property name="max_gain">20dB</property>
   <property name="mlt_service">volume</property>
   <property name="internal_added">237</property>
   <property name="disable">1</property>
  </filter>
  <filter id="filter1">
   <property name="channel">-1</property>
   <property name="mlt_service">panner</property>
   <property name="internal_added">237</property>
   <property name="start">0.5</property>
   <property name="disable">1</property>
  </filter>
  <filter id="filter2">
   <property name="iec_scale">0</property>
   <property name="mlt_service">audiolevel</property>
   <property name="dbpeak">1</property>
   <property name="disable">1</property>
  </filter>
 </tractor>
 <producer id="producer5" in="00:00:00.000" out="00:03:45.254">
  <property name="length">5401</property>
  <property name="eof">pause</property>
  <property name="resource">-1.000000:/mnt/data1/Anime-Edits/Monster/Monster-Editing/Monster [Ultimate Collection] By Kira [SEV]/Original Soundtracks [2004]/Monster - Original Soundtrack II [2004]/20 - Make it Home (instrumental).flac</property>
  <property name="aspect_ratio">1</property>
  <property name="meta.media.nb_streams">2</property>
  <property name="meta.media.0.stream.type">audio</property>
  <property name="meta.media.0.codec.sample_fmt">s16</property>
  <property name="meta.media.0.codec.sample_rate">44100</property>
  <property name="meta.media.0.codec.channels">2</property>
  <property name="meta.media.0.codec.layout">stereo</property>
  <property name="meta.media.0.codec.name">flac</property>
  <property name="meta.media.0.codec.long_name">FLAC (Free Lossless Audio Codec)</property>
  <property name="meta.media.0.codec.bit_rate">0</property>
  <property name="meta.media.1.stream.type">video</property>
  <property name="meta.media.1.stream.frame_rate">90000</property>
  <property name="meta.media.1.stream.sample_aspect_ratio">0</property>
  <property name="meta.media.1.codec.width">1685</property>
  <property name="meta.media.1.codec.height">1475</property>
  <property name="meta.media.1.codec.rotate">0</property>
  <property name="meta.media.1.codec.pix_fmt">yuvj420p</property>
  <property name="meta.media.1.codec.sample_aspect_ratio">0</property>
  <property name="meta.media.1.codec.colorspace">601</property>
  <property name="meta.media.1.codec.name">mjpeg</property>
  <property name="meta.media.1.codec.long_name">MJPEG (Motion JPEG)</property>
  <property name="meta.media.1.codec.bit_rate">0</property>
  <property name="meta.attr.1.stream.comment.markup">Cover (front)</property>
  <property name="meta.attr.TITLE.markup">Make it Home (instrumental)</property>
  <property name="meta.attr.ARTIST.markup">Kuniaki Haishima</property>
  <property name="meta.attr.ALBUM.markup">Monster : Original Soundtrack II</property>
  <property name="meta.attr.DATE.markup">2004</property>
  <property name="meta.attr.GENRE.markup">Anime</property>
  <property name="meta.attr.COMPOSER.markup">Kuniaki Haishima</property>
  <property name="meta.attr.ORIGINALARTIST.markup">Kuniaki Haishima</property>
  <property name="meta.attr.ENCODEDBY.markup">Mr. J</property>
  <property name="meta.attr.track.markup">20/21</property>
  <property name="meta.attr.disc.markup">01/01</property>
  <property name="meta.attr.ORIGARTIST.markup">Kuniaki Haishima</property>
  <property name="meta.attr.ALBUM ARTIST.markup">Kuniaki Haishima</property>
  <property name="meta.attr.ARTISTSORT.markup">Kuniaki Haishima</property>
  <property name="meta.attr.ALBUMARTISTSORT.markup">Kuniaki Haishima</property>
  <property name="meta.attr.ALBUMSORT.markup">Monster : Original Soundtrack II</property>
  <property name="meta.attr.COMPOSERSORT.markup">Kuniaki Haishima</property>
  <property name="meta.attr.SHOWSORT.markup">Monster</property>
  <property name="seekable">1</property>
  <property name="meta.media.sample_aspect_num">1</property>
  <property name="meta.media.sample_aspect_den">1</property>
  <property name="format">3</property>
  <property name="audio_index">0</property>
  <property name="video_index">1</property>
  <property name="warp_speed">-1</property>
  <property name="warp_resource">/mnt/data1/Anime-Edits/Monster/Monster-Editing/Monster [Ultimate Collection] By Kira [SEV]/Original Soundtracks [2004]/Monster - Original Soundtrack II [2004]/20 - Make it Home (instrumental).flac</property>
  <property name="mlt_service">timewarp</property>
  <property name="vstream">0</property>
  <property name="astream">0</property>
  <property name="set.test_audio">0</property>
  <property name="set.test_image">1</property>
  <property name="kdenlive:id">8</property>
  <property name="warp_pitch">0</property>
  <property name="meta.media.frame_rate_num">90000</property>
  <property name="meta.media.frame_rate_den">1</property>
  <property name="meta.media.colorspace">601</property>
  <property name="meta.media.color_trc">2</property>
  <property name="meta.media.has_b_frames">0</property>
  <property name="meta.media.width">1685</property>
  <property name="meta.media.height">1475</property>
  <property name="meta.media.color_range">full</property>
  <property name="kdenlive:control_uuid">{fd2a2d48-1c6d-41b6-877b-90b0555de22c}</property>
 </producer>
 <chain id="chain0" out="00:23:54.012">
  <property name="length">34382</property>
  <property name="eof">pause</property>
  <property name="resource">/mnt/data1/Anime-Edits/Monster/Monster-Editing/Audio/eng/Ep19.wav</property>
  <property name="mlt_service">avformat-novalidate</property>
  <property name="seekable">1</property>
  <property name="audio_index">0</property>
  <property name="video_index">-1</property>
  <property name="astream">0</property>
  <property name="kdenlive:proxy">-</property>
  <property name="kdenlive:originalurl">/mnt/data1/Anime-Edits/Monster/Monster-Editing/Audio/eng/Ep19.wav</property>
  <property name="kdenlive:id">4</property>
  <property name="kdenlive:clip_type">1</property>
  <property name="kdenlive:file_size">275331202</property>
  <property name="kdenlive:file_hash">9caa925ec86cdd4182e64822c6997671</property>
  <property name="kdenlive:folderid">-1</property>
  <property name="meta.media.nb_streams">1</property>
  <property name="meta.media.0.stream.type">audio</property>
  <property name="meta.media.0.codec.sample_fmt">s16</property>
  <property name="meta.media.0.codec.sample_rate">48000</property>
  <property name="meta.media.0.codec.channels">2</property>
  <property name="meta.media.0.codec.name">pcm_s16le</property>
  <property name="meta.media.0.codec.long_name">PCM signed 16-bit little-endian</property>
  <property name="meta.media.0.codec.bit_rate">1536000</property>
  <property name="meta.attr.title.markup">Monster : Chapter 19 : The Monster's Abyss</property>
  <property name="meta.attr.encoder.markup">Lavf60.16.100</property>
  <property name="xml">was here</property>
  <property name="mute_on_pause">0</property>
  <property name="set.test_audio">0</property>
  <property name="set.test_image">1</property>
  <property name="kdenlive:control_uuid">{a2829b8c-c1dd-4428-8576-480c3155dc8b}</property>
  <property name="meta.media.0.codec.layout">independent</property>
 </chain>
 <playlist id="playlist2">
  <property name="kdenlive:audio_track">1</property>
  <blank length="00:11:16.058"/>
  <entry in="00:00:02.044" out="00:03:45.045" producer="producer5">
   <property name="kdenlive:id">8</property>
   <filter id="filter3">
    <property name="mlt_service">rbpitch</property>
    <property name="kdenlive_id">rboctaveshift</property>
    <property name="octaveshift">-2</property>
    <property name="stretch">0</property>
    <property name="latency">89.2083</property>
    <property name="kdenlive:collapsed">0</property>
   </filter>
   <filter id="filter4">
    <property name="window">75</property>
    <property name="max_gain">20dB</property>
    <property name="mlt_service">volume</property>
    <property name="kdenlive_id">gain</property>
    <property name="gain">0.13</property>
    <property name="kdenlive:collapsed">0</property>
   </filter>
   <filter id="filter5" in="00:00:02.044" out="00:00:03.045">
    <property name="window">75</property>
    <property name="max_gain">20dB</property>
    <property name="mlt_service">volume</property>
    <property name="kdenlive_id">fadein</property>
    <property name="gain">0</property>
    <property name="end">1</property>
    <property name="kdenlive:collapsed">0</property>
   </filter>
   <filter id="filter6" in="00:03:42.292" out="00:03:45.045">
    <property name="window">75</property>
    <property name="max_gain">20dB</property>
    <property name="mlt_service">volume</property>
    <property name="kdenlive_id">fadeout</property>
    <property name="gain">1</property>
    <property name="end">0</property>
    <property name="kdenlive:collapsed">0</property>
   </filter>
  </entry>
  <blank length="00:03:49.633"/>
  <entry in="00:18:57.432" out="00:19:34.910" producer="chain0">
   <property name="kdenlive:id">4</property>
   <filter id="filter7" in="00:18:57.432" out="00:18:57.933">
    <property name="window">75</property>
    <property name="max_gain">20dB</property>
    <property name="mlt_service">volume</property>
    <property name="kdenlive_id">fadein</property>
    <property name="gain">0</property>
    <property name="end">1</property>
   </filter>
  </entry>
 </playlist>
 <playlist id="playlist3">
  <property name="kdenlive:audio_track">1</property>
 </playlist>
 <tractor id="tractor1" in="00:00:00.000" out="00:19:26.151">
  <property name="kdenlive:audio_track">1</property>
  <property name="kdenlive:trackheight">67</property>
  <property name="kdenlive:timeline_active">1</property>
  <property name="kdenlive:collapsed">0</property>
  <property name="kdenlive:thumbs_format"/>
  <property name="kdenlive:audio_rec"/>
  <track hide="video" producer="playlist2"/>
  <track hide="video" producer="playlist3"/>
  <filter id="filter8">
   <property name="window">75</property>
   <property name="max_gain">20dB</property>
   <property name="mlt_service">volume</property>
   <property name="internal_added">237</property>
   <property name="disable">1</property>
  </filter>
  <filter id="filter9">
   <property name="channel">-1</property>
   <property name="mlt_service">panner</property>
   <property name="internal_added">237</property>
   <property name="start">0.5</property>
   <property name="disable">1</property>
  </filter>
  <filter id="filter10">
   <property name="iec_scale">0</property>
   <property name="mlt_service">audiolevel</property>
   <property name="dbpeak">1</property>
   <property name="disable">1</property>
  </filter>
 </tractor>
 <chain id="chain1" out="00:23:54.012">
  <property name="length">34382</property>
  <property name="eof">pause</property>
  <property name="resource">/mnt/data1/Anime-Edits/Monster/Monster-Editing/Audio/eng/Ep19.wav</property>
  <property name="mlt_service">avformat-novalidate</property>
  <property name="seekable">1</property>
  <property name="audio_index">0</property>
  <property name="video_index">-1</property>
  <property name="astream">0</property>
  <property name="kdenlive:proxy">-</property>
  <property name="kdenlive:originalurl">/mnt/data1/Anime-Edits/Monster/Monster-Editing/Audio/eng/Ep19.wav</property>
  <property name="kdenlive:id">4</property>
  <property name="kdenlive:clip_type">1</property>
  <property name="kdenlive:file_size">275331202</property>
  <property name="kdenlive:file_hash">9caa925ec86cdd4182e64822c6997671</property>
  <property name="kdenlive:folderid">-1</property>
  <property name="meta.media.nb_streams">1</property>
  <property name="meta.media.0.stream.type">audio</property>
  <property name="meta.media.0.codec.sample_fmt">s16</property>
  <property name="meta.media.0.codec.sample_rate">48000</property>
  <property name="meta.media.0.codec.channels">2</property>
  <property name="meta.media.0.codec.name">pcm_s16le</property>
  <property name="meta.media.0.codec.long_name">PCM signed 16-bit little-endian</property>
  <property name="meta.media.0.codec.bit_rate">1536000</property>
  <property name="meta.attr.title.markup">Monster : Chapter 19 : The Monster's Abyss</property>
  <property name="meta.attr.encoder.markup">Lavf60.16.100</property>
  <property name="xml">was here</property>
  <property name="mute_on_pause">0</property>
  <property name="set.test_audio">0</property>
  <property name="set.test_image">1</property>
  <property name="kdenlive:control_uuid">{a2829b8c-c1dd-4428-8576-480c3155dc8b}</property>
  <property name="meta.media.0.codec.layout">independent</property>
 </chain>
 <chain id="chain2" out="00:23:54.012">
  <property name="length">34382</property>
  <property name="eof">pause</property>
  <property name="resource">/mnt/data0/Monster/Monster-Editing/Audio/eng/Ep20.flac</property>
  <property name="mlt_service">avformat-novalidate</property>
  <property name="seekable">1</property>
  <property name="audio_index">0</property>
  <property name="video_index">-1</property>
  <property name="astream">0</property>
  <property name="kdenlive:proxy">-</property>
  <property name="kdenlive:originalurl">/mnt/data0/Monster/Monster-Editing/Audio/eng/Ep20.flac</property>
  <property name="kdenlive:id">5</property>
  <property name="kdenlive:clip_type">1</property>
  <property name="kdenlive:file_size">216585378</property>
  <property name="kdenlive:file_hash">8cadb109c8154cd868af1f8f3de3d909</property>
  <property name="kdenlive:folderid">-1</property>
  <property name="kdenlive:audio_max0">176</property>
  <property name="meta.media.nb_streams">1</property>
  <property name="meta.media.0.stream.type">audio</property>
  <property name="meta.media.0.codec.sample_fmt">s32</property>
  <property name="meta.media.0.codec.sample_rate">48000</property>
  <property name="meta.media.0.codec.channels">2</property>
  <property name="meta.media.0.codec.name">flac</property>
  <property name="meta.media.0.codec.long_name">FLAC (Free Lossless Audio Codec)</property>
  <property name="meta.media.0.codec.bit_rate">0</property>
  <property name="meta.attr.title.markup">Monster : Chapter 20 : Journey To Freiham</property>
  <property name="meta.attr.encoder.markup">Lavf60.3.100</property>
  <property name="xml">was here</property>
  <property name="mute_on_pause">0</property>
  <property name="set.test_audio">0</property>
  <property name="set.test_image">1</property>
  <property name="kdenlive:control_uuid">{a55b3165-35b7-42f2-a27e-20fc2e224c1d}</property>
  <property name="meta.media.0.codec.layout">stereo</property>
 </chain>
 <playlist id="playlist4">
  <property name="kdenlive:audio_track">1</property>
  <entry in="00:00:00.083" out="00:11:50.801" producer="chain1">
   <property name="kdenlive:id">4</property>
   <filter id="filter11" in="00:11:50.467" out="00:11:50.801">
    <property name="window">75</property>
    <property name="max_gain">20dB</property>
    <property name="mlt_service">volume</property>
    <property name="kdenlive_id">fadeout</property>
    <property name="gain">1</property>
    <property name="end">0</property>
    <property name="kdenlive:collapsed">0</property>
   </filter>
  </entry>
  <blank length="00:02:10.594"/>
  <entry in="00:14:06.840" out="00:18:45.879" producer="chain1">
   <property name="kdenlive:id">4</property>
   <filter id="filter12" in="00:14:06.840" out="00:14:07.591">
    <property name="window">75</property>
    <property name="max_gain">20dB</property>
    <property name="mlt_service">volume</property>
    <property name="kdenlive_id">fadein</property>
    <property name="gain">0</property>
    <property name="end">1</property>
    <property name="kdenlive:collapsed">0</property>
   </filter>
   <filter id="filter13" in="00:18:45.629" out="00:18:45.879">
    <property name="window">75</property>
    <property name="max_gain">20dB</property>
    <property name="mlt_service">volume</property>
    <property name="kdenlive_id">fadeout</property>
    <property name="gain">1</property>
    <property name="end">0</property>
    <property name="kdenlive:collapsed">0</property>
   </filter>
  </entry>
  <blank length="00:00:42.334"/>
  <entry in="00:19:35.077" out="00:22:16.225" producer="chain1">
   <property name="kdenlive:id">4</property>
   <filter id="filter14" in="00:19:35.077" out="00:19:38.830">
    <property name="window">75</property>
    <property name="max_gain">20dB</property>
    <property name="mlt_service">volume</property>
    <property name="kdenlive_id">fadein</property>
    <property name="gain">0</property>
    <property name="end">1</property>
    <property name="kdenlive:collapsed">0</property>
   </filter>
   <filter id="filter15" in="00:22:09.760" out="00:22:16.225">
    <property name="window">75</property>
    <property name="max_gain">20dB</property>
    <property name="mlt_service">volume</property>
    <property name="kdenlive_id">fadeout</property>
    <property name="gain">1</property>
    <property name="end">0</property>
    <property name="kdenlive:collapsed">0</property>
   </filter>
  </entry>
  <blank length="00:02:11.845"/>
  <entry in="00:04:32.032" out="00:23:37.162" producer="chain2">
   <property name="kdenlive:id">5</property>
   <filter id="filter16" in="00:04:32.032" out="00:04:33.200">
    <property name="window">75</property>
    <property name="max_gain">20dB</property>
    <property name="mlt_service">volume</property>
    <property name="kdenlive_id">fadein</property>
    <property name="gain">0</property>
    <property name="end">1</property>
    <property name="kdenlive:collapsed">0</property>
   </filter>
  </entry>
 </playlist>
 <playlist id="playlist5">
  <property name="kdenlive:audio_track">1</property>
 </playlist>
 <tractor id="tractor2" in="00:00:00.000" out="00:43:20.938">
  <property name="kdenlive:audio_track">1</property>
  <property name="kdenlive:trackheight">67</property>
  <property name="kdenlive:timeline_active">1</property>
  <property name="kdenlive:collapsed">0</property>
  <property name="kdenlive:thumbs_format"/>
  <property name="kdenlive:audio_rec"/>
  <track hide="video" producer="playlist4"/>
  <track hide="video" producer="playlist5"/>
  <filter id="filter17">
   <property name="window">75</property>
   <property name="max_gain">20dB</property>
   <property name="mlt_service">volume</property>
   <property name="internal_added">237</property>
   <property name="disable">1</property>
  </filter>
  <filter id="filter18">
   <property name="channel">-1</property>
   <property name="mlt_service">panner</property>
   <property name="internal_added">237</property>
   <property name="start">0.5</property>
   <property name="disable">1</property>
  </filter>
  <filter id="filter19">
   <property name="iec_scale">0</property>
   <property name="mlt_service">audiolevel</property>
   <property name="dbpeak">1</property>
   <property name="disable">1</property>
  </filter>
 </tractor>
 <chain id="chain4" out="00:23:54.012">
  <property name="length">34382</property>
  <property name="eof">pause</property>
  <property name="resource">/mnt/data1/Anime-Edits/Monster/Monster-Editing/Audio/eng/Ep19.wav</property>
  <property name="mlt_service">avformat-novalidate</property>
  <property name="seekable">1</property>
  <property name="audio_index">0</property>
  <property name="video_index">-1</property>
  <property name="astream">0</property>
  <property name="kdenlive:proxy">-</property>
  <property name="kdenlive:originalurl">/mnt/data1/Anime-Edits/Monster/Monster-Editing/Audio/eng/Ep19.wav</property>
  <property name="kdenlive:id">4</property>
  <property name="kdenlive:clip_type">1</property>
  <property name="kdenlive:file_size">275331202</property>
  <property name="kdenlive:file_hash">9caa925ec86cdd4182e64822c6997671</property>
  <property name="kdenlive:folderid">-1</property>
  <property name="meta.media.nb_streams">1</property>
  <property name="meta.media.0.stream.type">audio</property>
  <property name="meta.media.0.codec.sample_fmt">s16</property>
  <property name="meta.media.0.codec.sample_rate">48000</property>
  <property name="meta.media.0.codec.channels">2</property>
  <property name="meta.media.0.codec.name">pcm_s16le</property>
  <property name="meta.media.0.codec.long_name">PCM signed 16-bit little-endian</property>
  <property name="meta.media.0.codec.bit_rate">1536000</property>
  <property name="meta.attr.title.markup">Monster : Chapter 19 : The Monster's Abyss</property>
  <property name="meta.attr.encoder.markup">Lavf60.16.100</property>
  <property name="xml">was here</property>
  <property name="mute_on_pause">0</property>
  <property name="set.test_audio">0</property>
  <property name="set.test_image">1</property>
  <property name="kdenlive:control_uuid">{a2829b8c-c1dd-4428-8576-480c3155dc8b}</property>
  <property name="meta.media.0.codec.layout">independent</property>
 </chain>
 <chain id="chain5" out="00:23:54.012">
  <property name="length">34382</property>
  <property name="eof">pause</property>
  <property name="resource">/mnt/data0/Monster/Monster-Editing/Audio/eng/Ep20.flac</property>
  <property name="mlt_service">avformat-novalidate</property>
  <property name="seekable">1</property>
  <property name="audio_index">0</property>
  <property name="video_index">-1</property>
  <property name="astream">0</property>
  <property name="kdenlive:proxy">-</property>
  <property name="kdenlive:originalurl">/mnt/data0/Monster/Monster-Editing/Audio/eng/Ep20.flac</property>
  <property name="kdenlive:id">5</property>
  <property name="kdenlive:clip_type">1</property>
  <property name="kdenlive:file_size">216585378</property>
  <property name="kdenlive:file_hash">8cadb109c8154cd868af1f8f3de3d909</property>
  <property name="kdenlive:folderid">-1</property>
  <property name="kdenlive:audio_max0">176</property>
  <property name="meta.media.nb_streams">1</property>
  <property name="meta.media.0.stream.type">audio</property>
  <property name="meta.media.0.codec.sample_fmt">s32</property>
  <property name="meta.media.0.codec.sample_rate">48000</property>
  <property name="meta.media.0.codec.channels">2</property>
  <property name="meta.media.0.codec.name">flac</property>
  <property name="meta.media.0.codec.long_name">FLAC (Free Lossless Audio Codec)</property>
  <property name="meta.media.0.codec.bit_rate">0</property>
  <property name="meta.attr.title.markup">Monster : Chapter 20 : Journey To Freiham</property>
  <property name="meta.attr.encoder.markup">Lavf60.3.100</property>
  <property name="xml">was here</property>
  <property name="mute_on_pause">0</property>
  <property name="set.test_audio">0</property>
  <property name="set.test_image">1</property>
  <property name="kdenlive:control_uuid">{a55b3165-35b7-42f2-a27e-20fc2e224c1d}</property>
  <property name="meta.media.0.codec.layout">stereo</property>
 </chain>
 <playlist id="playlist6">
  <property name="kdenlive:audio_track">1</property>
  <blank length="00:11:49.883"/>
  <entry in="00:11:50.592" out="00:14:03.337" producer="chain4">
   <property name="kdenlive:id">4</property>
   <filter id="filter20" in="00:14:02.711" out="00:14:03.337">
    <property name="window">75</property>
    <property name="max_gain">20dB</property>
    <property name="mlt_service">volume</property>
    <property name="kdenlive_id">fadeout</property>
    <property name="gain">1</property>
    <property name="end">0</property>
    <property name="kdenlive:collapsed">0</property>
   </filter>
   <filter id="filter21" in="00:11:50.592" out="00:11:50.842">
    <property name="window">75</property>
    <property name="max_gain">20dB</property>
    <property name="mlt_service">volume</property>
    <property name="kdenlive_id">fadein</property>
    <property name="gain">0</property>
    <property name="end">1</property>
    <property name="kdenlive:collapsed">0</property>
   </filter>
  </entry>
  <blank length="00:04:37.329"/>
  <entry in="00:18:45.712" out="00:18:55.013" producer="chain4">
   <property name="kdenlive:id">4</property>
   <filter id="filter22" in="00:18:45.712" out="00:18:45.921">
    <property name="window">75</property>
    <property name="max_gain">20dB</property>
    <property name="mlt_service">volume</property>
    <property name="kdenlive_id">fadein</property>
    <property name="gain">0</property>
    <property name="end">1</property>
    <property name="kdenlive:collapsed">0</property>
   </filter>
   <filter id="filter23" in="00:18:54.429" out="00:18:55.013">
    <property name="window">75</property>
    <property name="max_gain">20dB</property>
    <property name="mlt_service">volume</property>
    <property name="kdenlive_id">fadeout</property>
    <property name="gain">1</property>
    <property name="end">0</property>
    <property name="kdenlive:collapsed">0</property>
   </filter>
  </entry>
  <blank length="00:03:07.758"/>
  <entry in="00:00:46.129" out="00:03:07.216" producer="chain5">
   <property name="kdenlive:id">5</property>
   <filter id="filter24" in="00:00:46.129" out="00:00:52.177">
    <property name="window">75</property>
    <property name="max_gain">20dB</property>
    <property name="mlt_service">volume</property>
    <property name="kdenlive_id">fadein</property>
    <property name="gain">0</property>
    <property name="end">1</property>
   </filter>
  </entry>
 </playlist>
 <playlist id="playlist7">
  <property name="kdenlive:audio_track">1</property>
 </playlist>
 <tractor id="tractor3" in="00:00:00.000" out="00:24:18.101">
  <property name="kdenlive:audio_track">1</property>
  <property name="kdenlive:trackheight">67</property>
  <property name="kdenlive:timeline_active">1</property>
  <property name="kdenlive:collapsed">0</property>
  <property name="kdenlive:thumbs_format"/>
  <property name="kdenlive:audio_rec"/>
  <track hide="video" producer="playlist6"/>
  <track hide="video" producer="playlist7"/>
  <filter id="filter25">
   <property name="window">75</property>
   <property name="max_gain">20dB</property>
   <property name="mlt_service">volume</property>
   <property name="internal_added">237</property>
   <property name="disable">1</property>
  </filter>
  <filter id="filter26">
   <property name="channel">-1</property>
   <property name="mlt_service">panner</property>
   <property name="internal_added">237</property>
   <property name="start">0.5</property>
   <property name="disable">1</property>
  </filter>
  <filter id="filter27">
   <property name="iec_scale">0</property>
   <property name="mlt_service">audiolevel</property>
   <property name="dbpeak">1</property>
   <property name="disable">1</property>
  </filter>
 </tractor>
 <chain id="producer8" out="00:24:09.509">
  <property name="length">34754</property>
  <property name="eof">pause</property>
  <property name="resource">/mnt/data0/Monster/Monster-Editing/Orig/Monster - Chapter 19 - The Monster's Abyss.mkv</property>
  <property name="mlt_service">avformat-novalidate</property>
  <property name="audio_index">1</property>
  <property name="video_index">0</property>
  <property name="meta.media.nb_streams">23</property>
  <property name="meta.media.0.stream.type">video</property>
  <property name="meta.media.0.stream.frame_rate">23.976</property>
  <property name="meta.media.0.stream.sample_aspect_ratio">1</property>
  <property name="meta.media.0.codec.width">1440</property>
  <property name="meta.media.0.codec.height">1080</property>
  <property name="meta.media.0.codec.rotate">0</property>
  <property name="meta.media.0.codec.pix_fmt">yuv420p10le</property>
  <property name="meta.media.0.codec.sample_aspect_ratio">1</property>
  <property name="meta.media.0.codec.colorspace">709</property>
  <property name="meta.media.0.codec.color_trc">1</property>
  <property name="meta.media.0.codec.name">hevc</property>
  <property name="meta.media.0.codec.long_name">HEVC (High Efficiency Video Coding)</property>
  <property name="meta.media.0.codec.bit_rate">0</property>
  <property name="meta.attr.0.stream.BPS-eng.markup">1904117</property>
  <property name="meta.attr.0.stream.DURATION-eng.markup">00:24:09.532000000</property>
  <property name="meta.attr.0.stream.NUMBER_OF_FRAMES-eng.markup">34754</property>
  <property name="meta.attr.0.stream.NUMBER_OF_BYTES-eng.markup">345009873</property>
  <property name="meta.attr.0.stream._STATISTICS_WRITING_APP-eng.markup">mkvmerge v52.0.0 ('Secret For The Mad') 64-bit</property>
  <property name="meta.attr.0.stream._STATISTICS_WRITING_DATE_UTC-eng.markup">2022-11-09 08:59:04</property>
  <property name="meta.attr.0.stream._STATISTICS_TAGS-eng.markup">BPS DURATION NUMBER_OF_FRAMES NUMBER_OF_BYTES</property>
  <property name="meta.media.1.stream.type">audio</property>
  <property name="meta.media.1.codec.sample_fmt">fltp</property>
  <property name="meta.media.1.codec.sample_rate">48000</property>
  <property name="meta.media.1.codec.channels">2</property>
  <property name="meta.media.1.codec.name">ac3</property>
  <property name="meta.media.1.codec.long_name">ATSC A/52A (AC-3)</property>
  <property name="meta.media.1.codec.bit_rate">448000</property>
  <property name="meta.attr.1.stream.language.markup">jpn</property>
  <property name="meta.attr.1.stream.title.markup">Japanese DVD AC-3 DD_2.0</property>
  <property name="meta.attr.1.stream.BPS-eng.markup">448000</property>
  <property name="meta.attr.1.stream.DURATION-eng.markup">00:24:09.440000000</property>
  <property name="meta.attr.1.stream.NUMBER_OF_FRAMES-eng.markup">45295</property>
  <property name="meta.attr.1.stream.NUMBER_OF_BYTES-eng.markup">81168640</property>
  <property name="meta.attr.1.stream._STATISTICS_WRITING_APP-eng.markup">mkvmerge v52.0.0 ('Secret For The Mad') 64-bit</property>
  <property name="meta.attr.1.stream._STATISTICS_WRITING_DATE_UTC-eng.markup">2022-11-09 08:59:04</property>
  <property name="meta.attr.1.stream._STATISTICS_TAGS-eng.markup">BPS DURATION NUMBER_OF_FRAMES NUMBER_OF_BYTES</property>
  <property name="meta.media.2.stream.type">audio</property>
  <property name="meta.media.2.codec.sample_fmt">fltp</property>
  <property name="meta.media.2.codec.sample_rate">44100</property>
  <property name="meta.media.2.codec.channels">2</property>
  <property name="meta.media.2.codec.name">aac</property>
  <property name="meta.media.2.codec.long_name">AAC (Advanced Audio Coding)</property>
  <property name="meta.media.2.codec.bit_rate">0</property>
  <property name="meta.attr.2.stream.language.markup">eng</property>
  <property name="meta.attr.2.stream.title.markup">English AAC DD_2.0</property>
  <property name="meta.attr.2.stream.BPS-eng.markup">142783</property>
  <property name="meta.attr.2.stream.DURATION-eng.markup">00:23:54.737000000</property>
  <property name="meta.attr.2.stream.NUMBER_OF_FRAMES-eng.markup">61789</property>
  <property name="meta.attr.2.stream.NUMBER_OF_BYTES-eng.markup">25607167</property>
  <property name="meta.attr.2.stream._STATISTICS_WRITING_APP-eng.markup">mkvmerge v52.0.0 ('Secret For The Mad') 64-bit</property>
  <property name="meta.attr.2.stream._STATISTICS_WRITING_DATE_UTC-eng.markup">2022-11-09 08:59:04</property>
  <property name="meta.attr.2.stream._STATISTICS_TAGS-eng.markup">BPS DURATION NUMBER_OF_FRAMES NUMBER_OF_BYTES</property>
  <property name="meta.media.3.codec.name">ssa</property>
  <property name="meta.media.3.codec.long_name">ASS (Advanced SubStation Alpha) subtitle</property>
  <property name="meta.media.3.codec.bit_rate">0</property>
  <property name="meta.attr.3.stream.language.markup">eng</property>
  <property name="meta.attr.3.stream.title.markup">English (Full) ASS</property>
  <property name="meta.attr.3.stream.BPS-eng.markup">95</property>
  <property name="meta.attr.3.stream.DURATION-eng.markup">00:23:51.210000000</property>
  <property name="meta.attr.3.stream.NUMBER_OF_FRAMES-eng.markup">281</property>
  <property name="meta.attr.3.stream.NUMBER_OF_BYTES-eng.markup">17133</property>
  <property name="meta.attr.3.stream._STATISTICS_WRITING_APP-eng.markup">mkvmerge v52.0.0 ('Secret For The Mad') 64-bit</property>
  <property name="meta.attr.3.stream._STATISTICS_WRITING_DATE_UTC-eng.markup">2022-11-09 08:59:04</property>
  <property name="meta.attr.3.stream._STATISTICS_TAGS-eng.markup">BPS DURATION NUMBER_OF_FRAMES NUMBER_OF_BYTES</property>
  <property name="meta.media.4.codec.name">ssa</property>
  <property name="meta.media.4.codec.long_name">ASS (Advanced SubStation Alpha) subtitle</property>
  <property name="meta.media.4.codec.bit_rate">0</property>
  <property name="meta.attr.4.stream.language.markup">eng</property>
  <property name="meta.attr.4.stream.title.markup">English (Titles &amp; Signs) ASS</property>
  <property name="meta.attr.4.stream.BPS-eng.markup">0</property>
  <property name="meta.attr.4.stream.DURATION-eng.markup">00:20:56.360000000</property>
  <property name="meta.attr.4.stream.NUMBER_OF_FRAMES-eng.markup">2</property>
  <property name="meta.attr.4.stream.NUMBER_OF_BYTES-eng.markup">140</property>
  <property name="meta.attr.4.stream._STATISTICS_WRITING_APP-eng.markup">mkvmerge v52.0.0 ('Secret For The Mad') 64-bit</property>
  <property name="meta.attr.4.stream._STATISTICS_WRITING_DATE_UTC-eng.markup">2022-11-09 08:59:04</property>
  <property name="meta.attr.4.stream._STATISTICS_TAGS-eng.markup">BPS DURATION NUMBER_OF_FRAMES NUMBER_OF_BYTES</property>
  <property name="meta.media.5.codec.name">ssa</property>
  <property name="meta.media.5.codec.long_name">ASS (Advanced SubStation Alpha) subtitle</property>
  <property name="meta.media.5.codec.bit_rate">0</property>
  <property name="meta.attr.5.stream.language.markup">ara</property>
  <property name="meta.attr.5.stream.title.markup">Arabic</property>
  <property name="meta.attr.5.stream.BPS-eng.markup">131</property>
  <property name="meta.attr.5.stream.DURATION-eng.markup">00:22:15.840000000</property>
  <property name="meta.attr.5.stream.NUMBER_OF_FRAMES-eng.markup">331</property>
  <property name="meta.attr.5.stream.NUMBER_OF_BYTES-eng.markup">21966</property>
  <property name="meta.attr.5.stream._STATISTICS_WRITING_APP-eng.markup">mkvmerge v52.0.0 ('Secret For The Mad') 64-bit</property>
  <property name="meta.attr.5.stream._STATISTICS_WRITING_DATE_UTC-eng.markup">2022-11-09 08:59:04</property>
  <property name="meta.attr.5.stream._STATISTICS_TAGS-eng.markup">BPS DURATION NUMBER_OF_FRAMES NUMBER_OF_BYTES</property>
  <property name="meta.attr.title.markup">Monster : Chapter 19 : The Monster's Abyss</property>
  <property name="meta.attr.encoder.markup">libebml v1.4.1 + libmatroska v1.6.2</property>
  <property name="meta.attr.creation_time.markup">2022-11-09T08:59:04.000000Z</property>
  <property name="seekable">1</property>
  <property name="meta.media.sample_aspect_num">1</property>
  <property name="meta.media.sample_aspect_den">1</property>
  <property name="aspect_ratio">1</property>
  <property name="format">3</property>
  <property name="kdenlive:clipname"/>
  <property name="kdenlive:clip_type">0</property>
  <property name="kdenlive:folderid">-1</property>
  <property name="kdenlive:id">2</property>
  <property name="kdenlive:active_streams">1;2</property>
  <property name="kdenlive:file_size">454712550</property>
  <property name="kdenlive:file_hash">a7817b455b32b7291f1e9e90ffd0899a</property>
  <property name="kdenlive:audio_max1">172</property>
  <property name="kdenlive:audio_max2">195</property>
  <property name="xml">was here</property>
  <property name="meta.media.frame_rate_num">24000</property>
  <property name="meta.media.frame_rate_den">1001</property>
  <property name="meta.media.colorspace">709</property>
  <property name="meta.media.color_trc">1</property>
  <property name="meta.media.has_b_frames">2</property>
  <property name="meta.media.width">1440</property>
  <property name="meta.media.height">1080</property>
  <property name="meta.media.color_range">mpeg</property>
  <property name="meta.media.top_field_first">0</property>
  <property name="meta.media.progressive">1</property>
  <property name="set.test_audio">1</property>
  <property name="set.test_image">0</property>
  <property name="vstream">0</property>
  <property name="astream">0</property>
  <property name="kdenlive:control_uuid">{d838ee6f-d0e9-4032-854d-5e5647419570}</property>
  <property name="meta.media.1.codec.layout">stereo</property>
  <property name="meta.media.2.codec.layout">stereo</property>
  <property name="meta.media.aspect_ratio">1</property>
 </chain>
 <chain id="producer9" out="00:23:56.598">
  <property name="length">34444</property>
  <property name="eof">pause</property>
  <property name="resource">/mnt/data0/Monster/Monster-Editing/Orig/Monster - Chapter 20 - Journey To Freiham.mkv</property>
  <property name="mlt_service">avformat-novalidate</property>
  <property name="audio_index">1</property>
  <property name="video_index">0</property>
  <property name="seekable">1</property>
  <property name="aspect_ratio">1</property>
  <property name="format">3</property>
  <property name="kdenlive:clipname"/>
  <property name="kdenlive:clip_type">0</property>
  <property name="kdenlive:folderid">-1</property>
  <property name="kdenlive:id">3</property>
  <property name="kdenlive:active_streams">1;2;7;8</property>
  <property name="kdenlive:multistreams">1</property>
  <property name="kdenlive:file_size">912921380</property>
  <property name="kdenlive:file_hash">36b9335de35c48a951cec6192911db67</property>
  <property name="kdenlive:audio_max1">175</property>
  <property name="kdenlive:audio_max2">196</property>
  <property name="kdenlive:audio_max7">1</property>
  <property name="kdenlive:audio_max8">1</property>
  <property name="xml">was here</property>
  <property name="meta.media.nb_streams">44</property>
  <property name="meta.media.0.stream.type">video</property>
  <property name="meta.media.0.stream.frame_rate">23.976</property>
  <property name="meta.media.0.stream.sample_aspect_ratio">1</property>
  <property name="meta.media.0.codec.width">1440</property>
  <property name="meta.media.0.codec.height">1080</property>
  <property name="meta.media.0.codec.rotate">0</property>
  <property name="meta.media.0.codec.pix_fmt">yuv420p10le</property>
  <property name="meta.media.0.codec.sample_aspect_ratio">1</property>
  <property name="meta.media.0.codec.colorspace">709</property>
  <property name="meta.media.0.codec.color_trc">1</property>
  <property name="meta.media.0.codec.name">hevc</property>
  <property name="meta.media.0.codec.long_name">HEVC (High Efficiency Video Coding)</property>
  <property name="meta.media.0.codec.bit_rate">0</property>
  <property name="meta.attr.0.stream.BPS-eng.markup">2240041</property>
  <property name="meta.attr.0.stream.DURATION-eng.markup">00:23:56.602000000</property>
  <property name="meta.attr.0.stream.NUMBER_OF_FRAMES-eng.markup">34444</property>
  <property name="meta.attr.0.stream.NUMBER_OF_BYTES-eng.markup">402255940</property>
  <property name="meta.attr.0.stream._STATISTICS_WRITING_APP-eng.markup">mkvmerge v52.0.0 ('Secret For The Mad') 64-bit</property>
  <property name="meta.attr.0.stream._STATISTICS_WRITING_DATE_UTC-eng.markup">2022-11-10 08:25:02</property>
  <property name="meta.attr.0.stream._STATISTICS_TAGS-eng.markup">BPS DURATION NUMBER_OF_FRAMES NUMBER_OF_BYTES</property>
  <property name="meta.media.1.stream.type">audio</property>
  <property name="meta.media.1.codec.sample_fmt">fltp</property>
  <property name="meta.media.1.codec.sample_rate">48000</property>
  <property name="meta.media.1.codec.channels">2</property>
  <property name="meta.media.1.codec.name">ac3</property>
  <property name="meta.media.1.codec.long_name">ATSC A/52A (AC-3)</property>
  <property name="meta.media.1.codec.bit_rate">448000</property>
  <property name="meta.attr.1.stream.language.markup">jpn</property>
  <property name="meta.attr.1.stream.title.markup">Japanese DVD AC-3 DD_2.0</property>
  <property name="meta.attr.1.stream.BPS-eng.markup">448000</property>
  <property name="meta.attr.1.stream.DURATION-eng.markup">00:23:56.608000000</property>
  <property name="meta.attr.1.stream.NUMBER_OF_FRAMES-eng.markup">44894</property>
  <property name="meta.attr.1.stream.NUMBER_OF_BYTES-eng.markup">80450048</property>
  <property name="meta.attr.1.stream._STATISTICS_WRITING_APP-eng.markup">mkvmerge v52.0.0 ('Secret For The Mad') 64-bit</property>
  <property name="meta.attr.1.stream._STATISTICS_WRITING_DATE_UTC-eng.markup">2022-11-10 08:25:02</property>
  <property name="meta.attr.1.stream._STATISTICS_TAGS-eng.markup">BPS DURATION NUMBER_OF_FRAMES NUMBER_OF_BYTES</property>
  <property name="meta.media.2.stream.type">audio</property>
  <property name="meta.media.2.codec.sample_fmt">fltp</property>
  <property name="meta.media.2.codec.sample_rate">44100</property>
  <property name="meta.media.2.codec.channels">2</property>
  <property name="meta.media.2.codec.name">aac</property>
  <property name="meta.media.2.codec.long_name">AAC (Advanced Audio Coding)</property>
  <property name="meta.media.2.codec.bit_rate">0</property>
  <property name="meta.attr.2.stream.language.markup">eng</property>
  <property name="meta.attr.2.stream.title.markup">English AAC DD_2.0</property>
  <property name="meta.attr.2.stream.BPS-eng.markup">139548</property>
  <property name="meta.attr.2.stream.DURATION-eng.markup">00:23:56.317000000</property>
  <property name="meta.attr.2.stream.NUMBER_OF_FRAMES-eng.markup">61857</property>
  <property name="meta.attr.2.stream.NUMBER_OF_BYTES-eng.markup">25054556</property>
  <property name="meta.attr.2.stream._STATISTICS_WRITING_APP-eng.markup">mkvmerge v52.0.0 ('Secret For The Mad') 64-bit</property>
  <property name="meta.attr.2.stream._STATISTICS_WRITING_DATE_UTC-eng.markup">2022-11-10 08:25:02</property>
  <property name="meta.attr.2.stream._STATISTICS_TAGS-eng.markup">BPS DURATION NUMBER_OF_FRAMES NUMBER_OF_BYTES</property>
  <property name="meta.media.3.codec.name">ssa</property>
  <property name="meta.media.3.codec.long_name">ASS (Advanced SubStation Alpha) subtitle</property>
  <property name="meta.media.3.codec.bit_rate">0</property>
  <property name="meta.attr.3.stream.language.markup">eng</property>
  <property name="meta.attr.3.stream.title.markup">English (Full) ASS</property>
  <property name="meta.attr.3.stream.BPS-eng.markup">67</property>
  <property name="meta.attr.3.stream.DURATION-eng.markup">00:23:52.570000000</property>
  <property name="meta.attr.3.stream.NUMBER_OF_FRAMES-eng.markup">223</property>
  <property name="meta.attr.3.stream.NUMBER_OF_BYTES-eng.markup">12012</property>
  <property name="meta.attr.3.stream._STATISTICS_WRITING_APP-eng.markup">mkvmerge v52.0.0 ('Secret For The Mad') 64-bit</property>
  <property name="meta.attr.3.stream._STATISTICS_WRITING_DATE_UTC-eng.markup">2022-11-10 08:25:02</property>
  <property name="meta.attr.3.stream._STATISTICS_TAGS-eng.markup">BPS DURATION NUMBER_OF_FRAMES NUMBER_OF_BYTES</property>
  <property name="meta.media.4.codec.name">ssa</property>
  <property name="meta.media.4.codec.long_name">ASS (Advanced SubStation Alpha) subtitle</property>
  <property name="meta.media.4.codec.bit_rate">0</property>
  <property name="meta.attr.4.stream.language.markup">eng</property>
  <property name="meta.attr.4.stream.title.markup">English (Titles &amp; Signs) ASS</property>
  <property name="meta.attr.4.stream.BPS-eng.markup">1</property>
  <property name="meta.attr.4.stream.DURATION-eng.markup">00:19:18.660000000</property>
  <property name="meta.attr.4.stream.NUMBER_OF_FRAMES-eng.markup">3</property>
  <property name="meta.attr.4.stream.NUMBER_OF_BYTES-eng.markup">196</property>
  <property name="meta.attr.4.stream._STATISTICS_WRITING_APP-eng.markup">mkvmerge v52.0.0 ('Secret For The Mad') 64-bit</property>
  <property name="meta.attr.4.stream._STATISTICS_WRITING_DATE_UTC-eng.markup">2022-11-10 08:25:02</property>
  <property name="meta.attr.4.stream._STATISTICS_TAGS-eng.markup">BPS DURATION NUMBER_OF_FRAMES NUMBER_OF_BYTES</property>
  <property name="meta.media.5.codec.name">ssa</property>
  <property name="meta.media.5.codec.long_name">ASS (Advanced SubStation Alpha) subtitle</property>
  <property name="meta.media.5.codec.bit_rate">0</property>
  <property name="meta.attr.5.stream.language.markup">ara</property>
  <property name="meta.attr.5.stream.title.markup">Arabic</property>
  <property name="meta.attr.5.stream.BPS-eng.markup">88</property>
  <property name="meta.attr.5.stream.DURATION-eng.markup">00:22:16.350000000</property>
  <property name="meta.attr.5.stream.NUMBER_OF_FRAMES-eng.markup">278</property>
  <property name="meta.attr.5.stream.NUMBER_OF_BYTES-eng.markup">14817</property>
  <property name="meta.attr.5.stream._STATISTICS_WRITING_APP-eng.markup">mkvmerge v52.0.0 ('Secret For The Mad') 64-bit</property>
  <property name="meta.attr.5.stream._STATISTICS_WRITING_DATE_UTC-eng.markup">2022-11-10 08:25:02</property>
  <property name="meta.attr.5.stream._STATISTICS_TAGS-eng.markup">BPS DURATION NUMBER_OF_FRAMES NUMBER_OF_BYTES</property>
  <property name="meta.media.6.stream.type">video</property>
  <property name="meta.media.6.stream.frame_rate">23.976</property>
  <property name="meta.media.6.stream.sample_aspect_ratio">1</property>
  <property name="meta.media.6.codec.width">1440</property>
  <property name="meta.media.6.codec.height">1080</property>
  <property name="meta.media.6.codec.rotate">0</property>
  <property name="meta.media.6.codec.pix_fmt">yuv420p10le</property>
  <property name="meta.media.6.codec.sample_aspect_ratio">1</property>
  <property name="meta.media.6.codec.colorspace">709</property>
  <property name="meta.media.6.codec.color_trc">1</property>
  <property name="meta.media.6.codec.name">hevc</property>
  <property name="meta.media.6.codec.long_name">HEVC (High Efficiency Video Coding)</property>
  <property name="meta.media.6.codec.bit_rate">0</property>
  <property name="meta.attr.6.stream.BPS-eng.markup">2240041</property>
  <property name="meta.attr.6.stream.DURATION-eng.markup">00:23:56.602000000</property>
  <property name="meta.attr.6.stream.NUMBER_OF_FRAMES-eng.markup">34444</property>
  <property name="meta.attr.6.stream.NUMBER_OF_BYTES-eng.markup">402255940</property>
  <property name="meta.attr.6.stream._STATISTICS_WRITING_APP-eng.markup">mkvmerge v52.0.0 ('Secret For The Mad') 64-bit</property>
  <property name="meta.attr.6.stream._STATISTICS_WRITING_DATE_UTC-eng.markup">2022-11-10 08:25:02</property>
  <property name="meta.attr.6.stream._STATISTICS_TAGS-eng.markup">BPS DURATION NUMBER_OF_FRAMES NUMBER_OF_BYTES</property>
  <property name="meta.media.7.stream.type">audio</property>
  <property name="meta.media.7.codec.sample_fmt">fltp</property>
  <property name="meta.media.7.codec.sample_rate">48000</property>
  <property name="meta.media.7.codec.channels">2</property>
  <property name="meta.media.7.codec.name">ac3</property>
  <property name="meta.media.7.codec.long_name">ATSC A/52A (AC-3)</property>
  <property name="meta.media.7.codec.bit_rate">0</property>
  <property name="meta.attr.7.stream.language.markup">jpn</property>
  <property name="meta.attr.7.stream.title.markup">Japanese DVD AC-3 DD_2.0</property>
  <property name="meta.attr.7.stream.BPS-eng.markup">448000</property>
  <property name="meta.attr.7.stream.DURATION-eng.markup">00:23:56.608000000</property>
  <property name="meta.attr.7.stream.NUMBER_OF_FRAMES-eng.markup">44894</property>
  <property name="meta.attr.7.stream.NUMBER_OF_BYTES-eng.markup">80450048</property>
  <property name="meta.attr.7.stream._STATISTICS_WRITING_APP-eng.markup">mkvmerge v52.0.0 ('Secret For The Mad') 64-bit</property>
  <property name="meta.attr.7.stream._STATISTICS_WRITING_DATE_UTC-eng.markup">2022-11-10 08:25:02</property>
  <property name="meta.attr.7.stream._STATISTICS_TAGS-eng.markup">BPS DURATION NUMBER_OF_FRAMES NUMBER_OF_BYTES</property>
  <property name="meta.media.8.stream.type">audio</property>
  <property name="meta.media.8.codec.sample_fmt">fltp</property>
  <property name="meta.media.8.codec.sample_rate">44100</property>
  <property name="meta.media.8.codec.channels">2</property>
  <property name="meta.media.8.codec.name">aac</property>
  <property name="meta.media.8.codec.long_name">AAC (Advanced Audio Coding)</property>
  <property name="meta.media.8.codec.bit_rate">0</property>
  <property name="meta.attr.8.stream.language.markup">eng</property>
  <property name="meta.attr.8.stream.title.markup">English AAC DD_2.0</property>
  <property name="meta.attr.8.stream.BPS-eng.markup">139548</property>
  <property name="meta.attr.8.stream.DURATION-eng.markup">00:23:56.317000000</property>
  <property name="meta.attr.8.stream.NUMBER_OF_FRAMES-eng.markup">61857</property>
  <property name="meta.attr.8.stream.NUMBER_OF_BYTES-eng.markup">25054556</property>
  <property name="meta.attr.8.stream._STATISTICS_WRITING_APP-eng.markup">mkvmerge v52.0.0 ('Secret For The Mad') 64-bit</property>
  <property name="meta.attr.8.stream._STATISTICS_WRITING_DATE_UTC-eng.markup">2022-11-10 08:25:02</property>
  <property name="meta.attr.8.stream._STATISTICS_TAGS-eng.markup">BPS DURATION NUMBER_OF_FRAMES NUMBER_OF_BYTES</property>
  <property name="meta.media.9.codec.name">ssa</property>
  <property name="meta.media.9.codec.long_name">ASS (Advanced SubStation Alpha) subtitle</property>
  <property name="meta.media.9.codec.bit_rate">0</property>
  <property name="meta.attr.9.stream.language.markup">eng</property>
  <property name="meta.attr.9.stream.title.markup">English (Full) ASS</property>
  <property name="meta.attr.9.stream.BPS-eng.markup">67</property>
  <property name="meta.attr.9.stream.DURATION-eng.markup">00:23:52.570000000</property>
  <property name="meta.attr.9.stream.NUMBER_OF_FRAMES-eng.markup">223</property>
  <property name="meta.attr.9.stream.NUMBER_OF_BYTES-eng.markup">12012</property>
  <property name="meta.attr.9.stream._STATISTICS_WRITING_APP-eng.markup">mkvmerge v52.0.0 ('Secret For The Mad') 64-bit</property>
  <property name="meta.attr.9.stream._STATISTICS_WRITING_DATE_UTC-eng.markup">2022-11-10 08:25:02</property>
  <property name="meta.attr.9.stream._STATISTICS_TAGS-eng.markup">BPS DURATION NUMBER_OF_FRAMES NUMBER_OF_BYTES</property>
  <property name="meta.media.10.codec.name">ssa</property>
  <property name="meta.media.10.codec.long_name">ASS (Advanced SubStation Alpha) subtitle</property>
  <property name="meta.media.10.codec.bit_rate">0</property>
  <property name="meta.attr.10.stream.language.markup">eng</property>
  <property name="meta.attr.10.stream.title.markup">English (Titles &amp; Signs) ASS</property>
  <property name="meta.attr.10.stream.BPS-eng.markup">1</property>
  <property name="meta.attr.10.stream.DURATION-eng.markup">00:19:18.660000000</property>
  <property name="meta.attr.10.stream.NUMBER_OF_FRAMES-eng.markup">3</property>
  <property name="meta.attr.10.stream.NUMBER_OF_BYTES-eng.markup">196</property>
  <property name="meta.attr.10.stream._STATISTICS_WRITING_APP-eng.markup">mkvmerge v52.0.0 ('Secret For The Mad') 64-bit</property>
  <property name="meta.attr.10.stream._STATISTICS_WRITING_DATE_UTC-eng.markup">2022-11-10 08:25:02</property>
  <property name="meta.attr.10.stream._STATISTICS_TAGS-eng.markup">BPS DURATION NUMBER_OF_FRAMES NUMBER_OF_BYTES</property>
  <property name="meta.media.11.codec.name">ssa</property>
  <property name="meta.media.11.codec.long_name">ASS (Advanced SubStation Alpha) subtitle</property>
  <property name="meta.media.11.codec.bit_rate">0</property>
  <property name="meta.attr.11.stream.language.markup">ara</property>
  <property name="meta.attr.11.stream.title.markup">Arabic</property>
  <property name="meta.attr.11.stream.BPS-eng.markup">88</property>
  <property name="meta.attr.11.stream.DURATION-eng.markup">00:22:16.350000000</property>
  <property name="meta.attr.11.stream.NUMBER_OF_FRAMES-eng.markup">278</property>
  <property name="meta.attr.11.stream.NUMBER_OF_BYTES-eng.markup">14817</property>
  <property name="meta.attr.11.stream._STATISTICS_WRITING_APP-eng.markup">mkvmerge v52.0.0 ('Secret For The Mad') 64-bit</property>
  <property name="meta.attr.11.stream._STATISTICS_WRITING_DATE_UTC-eng.markup">2022-11-10 08:25:02</property>
  <property name="meta.attr.11.stream._STATISTICS_TAGS-eng.markup">BPS DURATION NUMBER_OF_FRAMES NUMBER_OF_BYTES</property>
  <property name="meta.attr.title.markup">Monster : Chapter 20 : Journey To Freiham</property>
  <property name="meta.attr.encoder.markup">libebml v1.4.1 + libmatroska v1.6.2</property>
  <property name="meta.attr.creation_time.markup">2022-11-10T08:25:02.000000Z</property>
  <property name="meta.media.sample_aspect_num">1</property>
  <property name="meta.media.sample_aspect_den">1</property>
  <property name="meta.media.frame_rate_num">24000</property>
  <property name="meta.media.frame_rate_den">1001</property>
  <property name="meta.media.colorspace">709</property>
  <property name="meta.media.color_trc">1</property>
  <property name="meta.media.has_b_frames">2</property>
  <property name="meta.media.width">1440</property>
  <property name="meta.media.height">1080</property>
  <property name="meta.media.color_range">mpeg</property>
  <property name="meta.media.top_field_first">0</property>
  <property name="meta.media.progressive">1</property>
  <property name="set.test_audio">1</property>
  <property name="set.test_image">0</property>
  <property name="vstream">0</property>
  <property name="astream">0</property>
  <property name="kdenlive:control_uuid">{7c9be1a1-1120-4e8c-9fdf-1d920ba7c419}</property>
 </chain>
 <playlist id="playlist8">
  <entry in="00:00:00.000" out="00:11:50.217" producer="producer8">
   <property name="kdenlive:id">2</property>
  </entry>
  <entry in="00:11:50.884" out="00:14:01.960" producer="producer8">
   <property name="kdenlive:id">2</property>
  </entry>
  <entry in="00:14:06.757" out="00:18:45.170" producer="producer8">
   <property name="kdenlive:id">2</property>
  </entry>
  <entry in="00:18:45.504" out="00:18:54.596" producer="producer8">
   <property name="kdenlive:id">2</property>
  </entry>
  <entry in="00:18:57.641" out="00:19:34.826" producer="producer8">
   <property name="kdenlive:id">2</property>
  </entry>
  <entry in="00:19:38.372" out="00:22:12.054" producer="producer8">
   <property name="kdenlive:id">2</property>
  </entry>
  <entry in="00:00:48.924" out="00:03:06.465" producer="producer9">
   <property name="kdenlive:id">3</property>
  </entry>
 </playlist>
 <playlist id="playlist9"/>
 <tractor id="tractor4" in="00:00:00.000" out="00:24:17.434">
  <property name="kdenlive:trackheight">67</property>
  <property name="kdenlive:timeline_active">1</property>
  <property name="kdenlive:collapsed">0</property>
  <property name="kdenlive:thumbs_format"/>
  <property name="kdenlive:audio_rec"/>
  <track hide="audio" producer="playlist8"/>
  <track hide="audio" producer="playlist9"/>
 </tractor>
 <chain id="producer10" out="00:23:56.598">
  <property name="length">34444</property>
  <property name="eof">pause</property>
  <property name="resource">/mnt/data0/Monster/Monster-Editing/Orig/Monster - Chapter 20 - Journey To Freiham.mkv</property>
  <property name="mlt_service">avformat-novalidate</property>
  <property name="audio_index">1</property>
  <property name="video_index">0</property>
  <property name="seekable">1</property>
  <property name="aspect_ratio">1</property>
  <property name="format">3</property>
  <property name="kdenlive:clipname"/>
  <property name="kdenlive:clip_type">0</property>
  <property name="kdenlive:folderid">-1</property>
  <property name="kdenlive:id">3</property>
  <property name="kdenlive:active_streams">1;2;7;8</property>
  <property name="kdenlive:multistreams">1</property>
  <property name="kdenlive:file_size">912921380</property>
  <property name="kdenlive:file_hash">36b9335de35c48a951cec6192911db67</property>
  <property name="kdenlive:audio_max1">175</property>
  <property name="kdenlive:audio_max2">196</property>
  <property name="kdenlive:audio_max7">1</property>
  <property name="kdenlive:audio_max8">1</property>
  <property name="xml">was here</property>
  <property name="meta.media.nb_streams">44</property>
  <property name="meta.media.0.stream.type">video</property>
  <property name="meta.media.0.stream.frame_rate">23.976</property>
  <property name="meta.media.0.stream.sample_aspect_ratio">1</property>
  <property name="meta.media.0.codec.width">1440</property>
  <property name="meta.media.0.codec.height">1080</property>
  <property name="meta.media.0.codec.rotate">0</property>
  <property name="meta.media.0.codec.pix_fmt">yuv420p10le</property>
  <property name="meta.media.0.codec.sample_aspect_ratio">1</property>
  <property name="meta.media.0.codec.colorspace">709</property>
  <property name="meta.media.0.codec.color_trc">1</property>
  <property name="meta.media.0.codec.name">hevc</property>
  <property name="meta.media.0.codec.long_name">HEVC (High Efficiency Video Coding)</property>
  <property name="meta.media.0.codec.bit_rate">0</property>
  <property name="meta.attr.0.stream.BPS-eng.markup">2240041</property>
  <property name="meta.attr.0.stream.DURATION-eng.markup">00:23:56.602000000</property>
  <property name="meta.attr.0.stream.NUMBER_OF_FRAMES-eng.markup">34444</property>
  <property name="meta.attr.0.stream.NUMBER_OF_BYTES-eng.markup">402255940</property>
  <property name="meta.attr.0.stream._STATISTICS_WRITING_APP-eng.markup">mkvmerge v52.0.0 ('Secret For The Mad') 64-bit</property>
  <property name="meta.attr.0.stream._STATISTICS_WRITING_DATE_UTC-eng.markup">2022-11-10 08:25:02</property>
  <property name="meta.attr.0.stream._STATISTICS_TAGS-eng.markup">BPS DURATION NUMBER_OF_FRAMES NUMBER_OF_BYTES</property>
  <property name="meta.media.1.stream.type">audio</property>
  <property name="meta.media.1.codec.sample_fmt">fltp</property>
  <property name="meta.media.1.codec.sample_rate">48000</property>
  <property name="meta.media.1.codec.channels">2</property>
  <property name="meta.media.1.codec.name">ac3</property>
  <property name="meta.media.1.codec.long_name">ATSC A/52A (AC-3)</property>
  <property name="meta.media.1.codec.bit_rate">448000</property>
  <property name="meta.attr.1.stream.language.markup">jpn</property>
  <property name="meta.attr.1.stream.title.markup">Japanese DVD AC-3 DD_2.0</property>
  <property name="meta.attr.1.stream.BPS-eng.markup">448000</property>
  <property name="meta.attr.1.stream.DURATION-eng.markup">00:23:56.608000000</property>
  <property name="meta.attr.1.stream.NUMBER_OF_FRAMES-eng.markup">44894</property>
  <property name="meta.attr.1.stream.NUMBER_OF_BYTES-eng.markup">80450048</property>
  <property name="meta.attr.1.stream._STATISTICS_WRITING_APP-eng.markup">mkvmerge v52.0.0 ('Secret For The Mad') 64-bit</property>
  <property name="meta.attr.1.stream._STATISTICS_WRITING_DATE_UTC-eng.markup">2022-11-10 08:25:02</property>
  <property name="meta.attr.1.stream._STATISTICS_TAGS-eng.markup">BPS DURATION NUMBER_OF_FRAMES NUMBER_OF_BYTES</property>
  <property name="meta.media.2.stream.type">audio</property>
  <property name="meta.media.2.codec.sample_fmt">fltp</property>
  <property name="meta.media.2.codec.sample_rate">44100</property>
  <property name="meta.media.2.codec.channels">2</property>
  <property name="meta.media.2.codec.name">aac</property>
  <property name="meta.media.2.codec.long_name">AAC (Advanced Audio Coding)</property>
  <property name="meta.media.2.codec.bit_rate">0</property>
  <property name="meta.attr.2.stream.language.markup">eng</property>
  <property name="meta.attr.2.stream.title.markup">English AAC DD_2.0</property>
  <property name="meta.attr.2.stream.BPS-eng.markup">139548</property>
  <property name="meta.attr.2.stream.DURATION-eng.markup">00:23:56.317000000</property>
  <property name="meta.attr.2.stream.NUMBER_OF_FRAMES-eng.markup">61857</property>
  <property name="meta.attr.2.stream.NUMBER_OF_BYTES-eng.markup">25054556</property>
  <property name="meta.attr.2.stream._STATISTICS_WRITING_APP-eng.markup">mkvmerge v52.0.0 ('Secret For The Mad') 64-bit</property>
  <property name="meta.attr.2.stream._STATISTICS_WRITING_DATE_UTC-eng.markup">2022-11-10 08:25:02</property>
  <property name="meta.attr.2.stream._STATISTICS_TAGS-eng.markup">BPS DURATION NUMBER_OF_FRAMES NUMBER_OF_BYTES</property>
  <property name="meta.media.3.codec.name">ssa</property>
  <property name="meta.media.3.codec.long_name">ASS (Advanced SubStation Alpha) subtitle</property>
  <property name="meta.media.3.codec.bit_rate">0</property>
  <property name="meta.attr.3.stream.language.markup">eng</property>
  <property name="meta.attr.3.stream.title.markup">English (Full) ASS</property>
  <property name="meta.attr.3.stream.BPS-eng.markup">67</property>
  <property name="meta.attr.3.stream.DURATION-eng.markup">00:23:52.570000000</property>
  <property name="meta.attr.3.stream.NUMBER_OF_FRAMES-eng.markup">223</property>
  <property name="meta.attr.3.stream.NUMBER_OF_BYTES-eng.markup">12012</property>
  <property name="meta.attr.3.stream._STATISTICS_WRITING_APP-eng.markup">mkvmerge v52.0.0 ('Secret For The Mad') 64-bit</property>
  <property name="meta.attr.3.stream._STATISTICS_WRITING_DATE_UTC-eng.markup">2022-11-10 08:25:02</property>
  <property name="meta.attr.3.stream._STATISTICS_TAGS-eng.markup">BPS DURATION NUMBER_OF_FRAMES NUMBER_OF_BYTES</property>
  <property name="meta.media.4.codec.name">ssa</property>
  <property name="meta.media.4.codec.long_name">ASS (Advanced SubStation Alpha) subtitle</property>
  <property name="meta.media.4.codec.bit_rate">0</property>
  <property name="meta.attr.4.stream.language.markup">eng</property>
  <property name="meta.attr.4.stream.title.markup">English (Titles &amp; Signs) ASS</property>
  <property name="meta.attr.4.stream.BPS-eng.markup">1</property>
  <property name="meta.attr.4.stream.DURATION-eng.markup">00:19:18.660000000</property>
  <property name="meta.attr.4.stream.NUMBER_OF_FRAMES-eng.markup">3</property>
  <property name="meta.attr.4.stream.NUMBER_OF_BYTES-eng.markup">196</property>
  <property name="meta.attr.4.stream._STATISTICS_WRITING_APP-eng.markup">mkvmerge v52.0.0 ('Secret For The Mad') 64-bit</property>
  <property name="meta.attr.4.stream._STATISTICS_WRITING_DATE_UTC-eng.markup">2022-11-10 08:25:02</property>
  <property name="meta.attr.4.stream._STATISTICS_TAGS-eng.markup">BPS DURATION NUMBER_OF_FRAMES NUMBER_OF_BYTES</property>
  <property name="meta.media.5.codec.name">ssa</property>
  <property name="meta.media.5.codec.long_name">ASS (Advanced SubStation Alpha) subtitle</property>
  <property name="meta.media.5.codec.bit_rate">0</property>
  <property name="meta.attr.5.stream.language.markup">ara</property>
  <property name="meta.attr.5.stream.title.markup">Arabic</property>
  <property name="meta.attr.5.stream.BPS-eng.markup">88</property>
  <property name="meta.attr.5.stream.DURATION-eng.markup">00:22:16.350000000</property>
  <property name="meta.attr.5.stream.NUMBER_OF_FRAMES-eng.markup">278</property>
  <property name="meta.attr.5.stream.NUMBER_OF_BYTES-eng.markup">14817</property>
  <property name="meta.attr.5.stream._STATISTICS_WRITING_APP-eng.markup">mkvmerge v52.0.0 ('Secret For The Mad') 64-bit</property>
  <property name="meta.attr.5.stream._STATISTICS_WRITING_DATE_UTC-eng.markup">2022-11-10 08:25:02</property>
  <property name="meta.attr.5.stream._STATISTICS_TAGS-eng.markup">BPS DURATION NUMBER_OF_FRAMES NUMBER_OF_BYTES</property>
  <property name="meta.media.6.stream.type">video</property>
  <property name="meta.media.6.stream.frame_rate">23.976</property>
  <property name="meta.media.6.stream.sample_aspect_ratio">1</property>
  <property name="meta.media.6.codec.width">1440</property>
  <property name="meta.media.6.codec.height">1080</property>
  <property name="meta.media.6.codec.rotate">0</property>
  <property name="meta.media.6.codec.pix_fmt">yuv420p10le</property>
  <property name="meta.media.6.codec.sample_aspect_ratio">1</property>
  <property name="meta.media.6.codec.colorspace">709</property>
  <property name="meta.media.6.codec.color_trc">1</property>
  <property name="meta.media.6.codec.name">hevc</property>
  <property name="meta.media.6.codec.long_name">HEVC (High Efficiency Video Coding)</property>
  <property name="meta.media.6.codec.bit_rate">0</property>
  <property name="meta.attr.6.stream.BPS-eng.markup">2240041</property>
  <property name="meta.attr.6.stream.DURATION-eng.markup">00:23:56.602000000</property>
  <property name="meta.attr.6.stream.NUMBER_OF_FRAMES-eng.markup">34444</property>
  <property name="meta.attr.6.stream.NUMBER_OF_BYTES-eng.markup">402255940</property>
  <property name="meta.attr.6.stream._STATISTICS_WRITING_APP-eng.markup">mkvmerge v52.0.0 ('Secret For The Mad') 64-bit</property>
  <property name="meta.attr.6.stream._STATISTICS_WRITING_DATE_UTC-eng.markup">2022-11-10 08:25:02</property>
  <property name="meta.attr.6.stream._STATISTICS_TAGS-eng.markup">BPS DURATION NUMBER_OF_FRAMES NUMBER_OF_BYTES</property>
  <property name="meta.media.7.stream.type">audio</property>
  <property name="meta.media.7.codec.sample_fmt">fltp</property>
  <property name="meta.media.7.codec.sample_rate">48000</property>
  <property name="meta.media.7.codec.channels">2</property>
  <property name="meta.media.7.codec.name">ac3</property>
  <property name="meta.media.7.codec.long_name">ATSC A/52A (AC-3)</property>
  <property name="meta.media.7.codec.bit_rate">0</property>
  <property name="meta.attr.7.stream.language.markup">jpn</property>
  <property name="meta.attr.7.stream.title.markup">Japanese DVD AC-3 DD_2.0</property>
  <property name="meta.attr.7.stream.BPS-eng.markup">448000</property>
  <property name="meta.attr.7.stream.DURATION-eng.markup">00:23:56.608000000</property>
  <property name="meta.attr.7.stream.NUMBER_OF_FRAMES-eng.markup">44894</property>
  <property name="meta.attr.7.stream.NUMBER_OF_BYTES-eng.markup">80450048</property>
  <property name="meta.attr.7.stream._STATISTICS_WRITING_APP-eng.markup">mkvmerge v52.0.0 ('Secret For The Mad') 64-bit</property>
  <property name="meta.attr.7.stream._STATISTICS_WRITING_DATE_UTC-eng.markup">2022-11-10 08:25:02</property>
  <property name="meta.attr.7.stream._STATISTICS_TAGS-eng.markup">BPS DURATION NUMBER_OF_FRAMES NUMBER_OF_BYTES</property>
  <property name="meta.media.8.stream.type">audio</property>
  <property name="meta.media.8.codec.sample_fmt">fltp</property>
  <property name="meta.media.8.codec.sample_rate">44100</property>
  <property name="meta.media.8.codec.channels">2</property>
  <property name="meta.media.8.codec.name">aac</property>
  <property name="meta.media.8.codec.long_name">AAC (Advanced Audio Coding)</property>
  <property name="meta.media.8.codec.bit_rate">0</property>
  <property name="meta.attr.8.stream.language.markup">eng</property>
  <property name="meta.attr.8.stream.title.markup">English AAC DD_2.0</property>
  <property name="meta.attr.8.stream.BPS-eng.markup">139548</property>
  <property name="meta.attr.8.stream.DURATION-eng.markup">00:23:56.317000000</property>
  <property name="meta.attr.8.stream.NUMBER_OF_FRAMES-eng.markup">61857</property>
  <property name="meta.attr.8.stream.NUMBER_OF_BYTES-eng.markup">25054556</property>
  <property name="meta.attr.8.stream._STATISTICS_WRITING_APP-eng.markup">mkvmerge v52.0.0 ('Secret For The Mad') 64-bit</property>
  <property name="meta.attr.8.stream._STATISTICS_WRITING_DATE_UTC-eng.markup">2022-11-10 08:25:02</property>
  <property name="meta.attr.8.stream._STATISTICS_TAGS-eng.markup">BPS DURATION NUMBER_OF_FRAMES NUMBER_OF_BYTES</property>
  <property name="meta.media.9.codec.name">ssa</property>
  <property name="meta.media.9.codec.long_name">ASS (Advanced SubStation Alpha) subtitle</property>
  <property name="meta.media.9.codec.bit_rate">0</property>
  <property name="meta.attr.9.stream.language.markup">eng</property>
  <property name="meta.attr.9.stream.title.markup">English (Full) ASS</property>
  <property name="meta.attr.9.stream.BPS-eng.markup">67</property>
  <property name="meta.attr.9.stream.DURATION-eng.markup">00:23:52.570000000</property>
  <property name="meta.attr.9.stream.NUMBER_OF_FRAMES-eng.markup">223</property>
  <property name="meta.attr.9.stream.NUMBER_OF_BYTES-eng.markup">12012</property>
  <property name="meta.attr.9.stream._STATISTICS_WRITING_APP-eng.markup">mkvmerge v52.0.0 ('Secret For The Mad') 64-bit</property>
  <property name="meta.attr.9.stream._STATISTICS_WRITING_DATE_UTC-eng.markup">2022-11-10 08:25:02</property>
  <property name="meta.attr.9.stream._STATISTICS_TAGS-eng.markup">BPS DURATION NUMBER_OF_FRAMES NUMBER_OF_BYTES</property>
  <property name="meta.media.10.codec.name">ssa</property>
  <property name="meta.media.10.codec.long_name">ASS (Advanced SubStation Alpha) subtitle</property>
  <property name="meta.media.10.codec.bit_rate">0</property>
  <property name="meta.attr.10.stream.language.markup">eng</property>
  <property name="meta.attr.10.stream.title.markup">English (Titles &amp; Signs) ASS</property>
  <property name="meta.attr.10.stream.BPS-eng.markup">1</property>
  <property name="meta.attr.10.stream.DURATION-eng.markup">00:19:18.660000000</property>
  <property name="meta.attr.10.stream.NUMBER_OF_FRAMES-eng.markup">3</property>
  <property name="meta.attr.10.stream.NUMBER_OF_BYTES-eng.markup">196</property>
  <property name="meta.attr.10.stream._STATISTICS_WRITING_APP-eng.markup">mkvmerge v52.0.0 ('Secret For The Mad') 64-bit</property>
  <property name="meta.attr.10.stream._STATISTICS_WRITING_DATE_UTC-eng.markup">2022-11-10 08:25:02</property>
  <property name="meta.attr.10.stream._STATISTICS_TAGS-eng.markup">BPS DURATION NUMBER_OF_FRAMES NUMBER_OF_BYTES</property>
  <property name="meta.media.11.codec.name">ssa</property>
  <property name="meta.media.11.codec.long_name">ASS (Advanced SubStation Alpha) subtitle</property>
  <property name="meta.media.11.codec.bit_rate">0</property>
  <property name="meta.attr.11.stream.language.markup">ara</property>
  <property name="meta.attr.11.stream.title.markup">Arabic</property>
  <property name="meta.attr.11.stream.BPS-eng.markup">88</property>
  <property name="meta.attr.11.stream.DURATION-eng.markup">00:22:16.350000000</property>
  <property name="meta.attr.11.stream.NUMBER_OF_FRAMES-eng.markup">278</property>
  <property name="meta.attr.11.stream.NUMBER_OF_BYTES-eng.markup">14817</property>
  <property name="meta.attr.11.stream._STATISTICS_WRITING_APP-eng.markup">mkvmerge v52.0.0 ('Secret For The Mad') 64-bit</property>
  <property name="meta.attr.11.stream._STATISTICS_WRITING_DATE_UTC-eng.markup">2022-11-10 08:25:02</property>
  <property name="meta.attr.11.stream._STATISTICS_TAGS-eng.markup">BPS DURATION NUMBER_OF_FRAMES NUMBER_OF_BYTES</property>
  <property name="meta.attr.title.markup">Monster : Chapter 20 : Journey To Freiham</property>
  <property name="meta.attr.encoder.markup">libebml v1.4.1 + libmatroska v1.6.2</property>
  <property name="meta.attr.creation_time.markup">2022-11-10T08:25:02.000000Z</property>
  <property name="meta.media.sample_aspect_num">1</property>
  <property name="meta.media.sample_aspect_den">1</property>
  <property name="meta.media.frame_rate_num">24000</property>
  <property name="meta.media.frame_rate_den">1001</property>
  <property name="meta.media.colorspace">709</property>
  <property name="meta.media.color_trc">1</property>
  <property name="meta.media.has_b_frames">2</property>
  <property name="meta.media.width">1440</property>
  <property name="meta.media.height">1080</property>
  <property name="meta.media.color_range">mpeg</property>
  <property name="meta.media.top_field_first">0</property>
  <property name="meta.media.progressive">1</property>
  <property name="set.test_audio">1</property>
  <property name="set.test_image">0</property>
  <property name="vstream">0</property>
  <property name="astream">0</property>
  <property name="kdenlive:control_uuid">{7c9be1a1-1120-4e8c-9fdf-1d920ba7c419}</property>
  <property name="meta.media.1.codec.layout">stereo</property>
  <property name="meta.media.2.codec.layout">stereo</property>
  <property name="meta.media.7.codec.layout">independent</property>
  <property name="meta.media.8.codec.layout">stereo</property>
  <property name="meta.media.aspect_ratio">1</property>
 </chain>
 <playlist id="playlist10">
  <blank length="00:24:17.476"/>
  <entry in="00:04:33.242" out="00:23:37.079" producer="producer10">
   <property name="kdenlive:id">3</property>
  </entry>
 </playlist>
 <playlist id="playlist11"/>
 <tractor id="tractor5" in="00:00:00.000" out="00:43:21.271">
  <property name="kdenlive:trackheight">67</property>
  <property name="kdenlive:timeline_active">1</property>
  <property name="kdenlive:collapsed">0</property>
  <property name="kdenlive:thumbs_format"/>
  <property name="kdenlive:audio_rec"/>
  <track hide="audio" producer="playlist10"/>
  <track hide="audio" producer="playlist11"/>
 </tractor>
 <tractor id="tractor6" in="00:00:00.000" out="00:43:21.271">
  <property name="kdenlive:duration">00:43:21.313</property>
  <property name="kdenlive:maxduration">62369</property>
  <property name="kdenlive:clipname">Sequence 1</property>
  <property name="kdenlive:description"/>
  <property name="kdenlive:uuid">{0f331ed8-35ce-4856-933c-9b26a6eb2d57}</property>
  <property name="kdenlive:producer_type">17</property>
  <property name="kdenlive:control_uuid">{84503605-c5da-4c4f-849e-5f84b8cfec07}</property>
  <property name="kdenlive:id">7</property>
  <property name="kdenlive:clip_type">0</property>
  <property name="kdenlive:file_hash">5d8da64c18bf8991f2767a688446ec4b</property>
  <property name="kdenlive:folderid">6</property>
  <property name="kdenlive:sequenceproperties.activeTrack">4</property>
  <property name="kdenlive:sequenceproperties.audioTarget">-1</property>
  <property name="kdenlive:sequenceproperties.disablepreview">0</property>
  <property name="kdenlive:sequenceproperties.documentuuid">{0f331ed8-35ce-4856-933c-9b26a6eb2d57}</property>
  <property name="kdenlive:sequenceproperties.hasAudio">1</property>
  <property name="kdenlive:sequenceproperties.hasVideo">1</property>
  <property name="kdenlive:sequenceproperties.hidesubtitle">0</property>
  <property name="kdenlive:sequenceproperties.position">36039</property>
  <property name="kdenlive:sequenceproperties.scrollPos">0</property>
  <property name="kdenlive:sequenceproperties.subtitlesList">[
    {
        "file": "/mnt/data1/Anime-Edits/Monster/Monster-Editing/Editing/Monster_19-20_Monster's_Abyss_1080p_24fps.kdenlive.srt",
        "id": 0,
        "name": "Subtitles"
    }
]
</property>
  <property name="kdenlive:sequenceproperties.tracksCount">6</property>
  <property name="kdenlive:sequenceproperties.videoTarget">-1</property>
  <property name="kdenlive:sequenceproperties.zonein">0</property>
  <property name="kdenlive:sequenceproperties.zoneout">75</property>
  <property name="kdenlive:sequenceproperties.zoom">15</property>
  <property name="kdenlive:sequenceproperties.groups">[
    {
        "children": [
            {
                "data": "4:27960",
                "leaf": "clip",
                "type": "Leaf"
            },
            {
                "data": "2:27879",
                "leaf": "clip",
                "type": "Leaf"
            }
        ],
        "type": "Normal"
    },
    {
        "children": [
            {
                "data": "2:20172",
                "leaf": "clip",
                "type": "Leaf"
            },
            {
                "data": "4:20172",
                "leaf": "clip",
                "type": "Leaf"
            }
        ],
        "type": "Normal"
    },
    {
        "children": [
            {
                "data": "4:31646",
                "leaf": "clip",
                "type": "Leaf"
            },
            {
                "data": "3:31577",
                "leaf": "clip",
                "type": "Leaf"
            }
        ],
        "type": "Normal"
    },
    {
        "children": [
            {
                "data": "1:27061",
                "leaf": "clip",
                "type": "Leaf"
            },
            {
                "data": "4:27068",
                "leaf": "clip",
                "type": "Leaf"
            }
        ],
        "type": "Normal"
    },
    {
        "children": [
            {
                "data": "4:0",
                "leaf": "clip",
                "type": "Leaf"
            },
            {
                "data": "2:0",
                "leaf": "clip",
                "type": "Leaf"
            },
            {
                "data": "-2:4251",
                "leaf": "subtitle",
                "type": "Leaf"
            }
        ],
        "type": "Normal"
    },
    {
        "children": [
            {
                "data": "3:26852",
                "leaf": "clip",
                "type": "Leaf"
            },
            {
                "data": "4:26849",
                "leaf": "clip",
                "type": "Leaf"
            }
        ],
        "type": "Normal"
    },
    {
        "children": [
            {
                "data": "4:17029",
                "leaf": "clip",
                "type": "Leaf"
            },
            {
                "data": "1:16209",
                "leaf": "clip",
                "type": "Leaf"
            },
            {
                "data": "3:17020",
                "leaf": "clip",
                "type": "Leaf"
            }
        ],
        "type": "Normal"
    },
    {
        "children": [
            {
                "data": "5:34944",
                "leaf": "clip",
                "type": "Leaf"
            },
            {
                "data": "2:34905",
                "leaf": "clip",
                "type": "Leaf"
            },
            {
                "data": "-2:36039",
                "leaf": "subtitle",
                "type": "Leaf"
            },
            {
                "data": "-2:34988",
                "leaf": "subtitle",
                "type": "Leaf"
            }
        ],
        "type": "Normal"
    }
]
</property>
  <property name="kdenlive:sequenceproperties.guides">[
]
</property>
  <track producer="producer2"/>
  <track producer="tractor0"/>
  <track producer="tractor1"/>
  <track producer="tractor2"/>
  <track producer="tractor3"/>
  <track producer="tractor4"/>
  <track producer="tractor5"/>
  <transition id="transition0">
   <property name="a_track">0</property>
   <property name="b_track">1</property>
   <property name="mlt_service">mix</property>
   <property name="kdenlive_id">mix</property>
   <property name="internal_added">237</property>
   <property name="always_active">1</property>
   <property name="accepts_blanks">1</property>
   <property name="sum">1</property>
  </transition>
  <transition id="transition1">
   <property name="a_track">0</property>
   <property name="b_track">2</property>
   <property name="mlt_service">mix</property>
   <property name="kdenlive_id">mix</property>
   <property name="internal_added">237</property>
   <property name="always_active">1</property>
   <property name="accepts_blanks">1</property>
   <property name="sum">1</property>
  </transition>
  <transition id="transition2">
   <property name="a_track">0</property>
   <property name="b_track">3</property>
   <property name="mlt_service">mix</property>
   <property name="kdenlive_id">mix</property>
   <property name="internal_added">237</property>
   <property name="always_active">1</property>
   <property name="accepts_blanks">1</property>
   <property name="sum">1</property>
  </transition>
  <transition id="transition3">
   <property name="a_track">0</property>
   <property name="b_track">4</property>
   <property name="mlt_service">mix</property>
   <property name="kdenlive_id">mix</property>
   <property name="internal_added">237</property>
   <property name="always_active">1</property>
   <property name="accepts_blanks">1</property>
   <property name="sum">1</property>
  </transition>
  <transition id="transition4">
   <property name="a_track">0</property>
   <property name="b_track">5</property>
   <property name="compositing">0</property>
   <property name="distort">0</property>
   <property name="rotate_center">0</property>
   <property name="mlt_service">qtblend</property>
   <property name="kdenlive_id">qtblend</property>
   <property name="internal_added">237</property>
   <property name="always_active">1</property>
  </transition>
  <transition id="transition5">
   <property name="a_track">0</property>
   <property name="b_track">6</property>
   <property name="compositing">0</property>
   <property name="distort">0</property>
   <property name="rotate_center">0</property>
   <property name="mlt_service">qtblend</property>
   <property name="kdenlive_id">qtblend</property>
   <property name="internal_added">237</property>
   <property name="always_active">1</property>
  </transition>
  <filter id="filter28">
   <property name="window">75</property>
   <property name="max_gain">20dB</property>
   <property name="mlt_service">volume</property>
   <property name="internal_added">237</property>
   <property name="disable">1</property>
  </filter>
  <filter id="filter29">
   <property name="channel">-1</property>
   <property name="mlt_service">panner</property>
   <property name="internal_added">237</property>
   <property name="start">0.5</property>
   <property name="disable">1</property>
  </filter>
  <filter id="filter30">
   <property name="window">75</property>
   <property name="max_gain">20dB</property>
   <property name="mlt_service">volume</property>
   <property name="internal_added">237</property>
   <property name="disable">1</property>
  </filter>
  <filter id="filter31">
   <property name="channel">-1</property>
   <property name="mlt_service">panner</property>
   <property name="internal_added">237</property>
   <property name="start">0.5</property>
   <property name="disable">1</property>
  </filter>
  <filter id="filter32">
   <property name="mlt_service">avfilter.subtitles</property>
   <property name="av.alpha">1</property>
   <property name="internal_added">237</property>
   <property name="av.filename">Monster_19-20_Monster's_Abyss_1080p_24fps.kdenlive.srt</property>
   <property name="av.force_style">Outline=0,Shadow=1,</property>
  </filter>
 </tractor>
 <playlist id="main_bin">
  <property name="kdenlive:folder.-1.6">Sequences</property>
  <property name="kdenlive:docproperties.activetimeline">{0f331ed8-35ce-4856-933c-9b26a6eb2d57}</property>
  <property name="kdenlive:docproperties.audioChannels">2</property>
  <property name="kdenlive:docproperties.binsort">0</property>
  <property name="kdenlive:docproperties.browserurl">/home/redxarch/Videos/</property>
  <property name="kdenlive:docproperties.compositing">1</property>
  <property name="kdenlive:docproperties.documentid">1668356978739</property>
  <property name="kdenlive:docproperties.enableTimelineZone">0</property>
  <property name="kdenlive:docproperties.enableexternalproxy">0</property>
  <property name="kdenlive:docproperties.enableproxy">0</property>
  <property name="kdenlive:docproperties.externalproxyparams"/>
  <property name="kdenlive:docproperties.generateimageproxy">0</property>
  <property name="kdenlive:docproperties.generateproxy">0</property>
  <property name="kdenlive:docproperties.guidesCategories">[
    {
        "color": "#9b59b6",
        "comment": "Category 1",
        "index": 0
    },
    {
        "color": "#3daee9",
        "comment": "Category 2",
        "index": 1
    },
    {
        "color": "#1abc9c",
        "comment": "Category 3",
        "index": 2
    },
    {
        "color": "#1cdc9a",
        "comment": "Category 4",
        "index": 3
    },
    {
        "color": "#c9ce3b",
        "comment": "Category 5",
        "index": 4
    },
    {
        "color": "#fdbc4b",
        "comment": "Category 6",
        "index": 5
    },
    {
        "color": "#f39c1f",
        "comment": "Category 7",
        "index": 6
    },
    {
        "color": "#f47750",
        "comment": "Category 8",
        "index": 7
    },
    {
        "color": "#da4453",
        "comment": "Category 9",
        "index": 8
    }
]
</property>
  <property name="kdenlive:docproperties.kdenliveversion">24.08.0</property>
  <property name="kdenlive:docproperties.opensequences">{0f331ed8-35ce-4856-933c-9b26a6eb2d57}</property>
  <property name="kdenlive:docproperties.previewextension"/>
  <property name="kdenlive:docproperties.previewparameters"/>
  <property name="kdenlive:docproperties.profile">/home/redxarch/.local/share/kdenlive/profiles/customprofile0</property>
  <property name="kdenlive:docproperties.proxyextension"/>
  <property name="kdenlive:docproperties.proxyimageminsize">2000</property>
  <property name="kdenlive:docproperties.proxyimagesize">800</property>
  <property name="kdenlive:docproperties.proxyminsize">1000</property>
  <property name="kdenlive:docproperties.proxyparams"/>
  <property name="kdenlive:docproperties.proxyresize">640</property>
  <property name="kdenlive:docproperties.rendercategory">Ultra-High Definition (4K)</property>
  <property name="kdenlive:docproperties.rendercustomquality">30</property>
  <property name="kdenlive:docproperties.renderendguide">-1</property>
  <property name="kdenlive:docproperties.renderexportaudio">0</property>
  <property name="kdenlive:docproperties.renderfullcolorrange">0</property>
  <property name="kdenlive:docproperties.rendermode">0</property>
  <property name="kdenlive:docproperties.renderplay">0</property>
  <property name="kdenlive:docproperties.renderpreview">0</property>
  <property name="kdenlive:docproperties.renderprofile">SVT-AV1</property>
  <property name="kdenlive:docproperties.renderratio">0</property>
  <property name="kdenlive:docproperties.renderrescale">0</property>
  <property name="kdenlive:docproperties.renderrescaleheight">1</property>
  <property name="kdenlive:docproperties.renderrescalewidth">1</property>
  <property name="kdenlive:docproperties.renderspeed">0</property>
  <property name="kdenlive:docproperties.renderstartguide">-1</property>
  <property name="kdenlive:docproperties.rendertcoverlay">0</property>
  <property name="kdenlive:docproperties.rendertctype">-1</property>
  <property name="kdenlive:docproperties.rendertwopass">0</property>
  <property name="kdenlive:docproperties.renderurl">/mnt/data1/Anime-Edits/Monster/Monster-Editing/Output/Monster-Edit/Monster_19-20_Monster's_Abyss_1080p_24fps.webm</property>
  <property name="kdenlive:docproperties.seekOffset">30000</property>
  <property name="kdenlive:docproperties.uuid">{0f331ed8-35ce-4856-933c-9b26a6eb2d57}</property>
  <property name="kdenlive:docproperties.version">1.1</property>
  <property name="kdenlive:docproperties.verticalzoom">1</property>
  <property name="kdenlive:docproperties.zoom">13</property>
  <property name="kdenlive:expandedFolders"/>
  <property name="kdenlive:binZoom">4</property>
  <property name="kdenlive:extraBins">project_bin:-1:0</property>
  <property name="kdenlive:documentnotes"/>
  <property name="xml_retain">1</property>
  <entry in="00:00:00.000" out="00:24:09.509" producer="producer0"/>
  <entry in="00:00:00.000" out="00:23:56.598" producer="producer1"/>
  <entry in="00:00:00.000" out="00:23:54.012" producer="chain6"/>
  <entry in="00:00:00.000" out="00:23:54.012" producer="chain7"/>
  <entry in="00:00:00.000" out="00:03:45.254" producer="chain3"/>
  <entry in="00:00:00.000" out="00:43:21.271" producer="tractor6"/>
 </playlist>
 <tractor id="tractor7" in="00:00:00.000" out="00:43:21.271">
  <property name="kdenlive:projectTractor">1</property>
  <track in="00:00:00.000" out="00:43:21.271" producer="tractor6"/>
 </tractor>
</mlt>
