<?xml version='1.0' encoding='utf-8'?>
<mlt LC_NUMERIC="C" producer="main_bin" version="7.22.0" root="/mnt/data1/Anime-Edits/Monster/Monster-Editing/Editing">
 <profile frame_rate_num="24000" sample_aspect_num="1" display_aspect_den="3" colorspace="709" progressive="1" description="1440x1080 23.98fps" display_aspect_num="4" frame_rate_den="1001" width="1440" height="1080" sample_aspect_den="1"/>
 <chain id="chain31" out="00:23:54.763">
  <property name="length">34400</property>
  <property name="eof">pause</property>
  <property name="resource">/mnt/data0/Monster/Monster-Editing/Blu-Ray/Encoded/Ep01-av1.mkv</property>
  <property name="mlt_service">avformat-novalidate</property>
  <property name="meta.media.nb_streams">5</property>
  <property name="meta.media.0.stream.type">video</property>
  <property name="meta.media.0.stream.frame_rate">23.976</property>
  <property name="meta.media.0.stream.sample_aspect_ratio">1</property>
  <property name="meta.media.0.codec.width">1440</property>
  <property name="meta.media.0.codec.height">1080</property>
  <property name="meta.media.0.codec.rotate">0</property>
  <property name="meta.media.0.codec.pix_fmt">yuv420p10le</property>
  <property name="meta.media.0.codec.sample_aspect_ratio">0</property>
  <property name="meta.media.0.codec.colorspace">709</property>
  <property name="meta.media.0.codec.color_trc">1</property>
  <property name="meta.media.0.codec.name">libdav1d</property>
  <property name="meta.media.0.codec.long_name">dav1d AV1 decoder by VideoLAN</property>
  <property name="meta.media.0.codec.bit_rate">0</property>
  <property name="meta.attr.0.stream.ENCODER.markup">Lavc60.3.100 av1_qsv</property>
  <property name="meta.attr.0.stream.DURATION.markup">00:23:54.770000000</property>
  <property name="meta.media.1.stream.type">audio</property>
  <property name="meta.media.1.codec.sample_fmt">fltp</property>
  <property name="meta.media.1.codec.sample_rate">48000</property>
  <property name="meta.media.1.codec.channels">6</property>
  <property name="meta.media.1.codec.name">vorbis</property>
  <property name="meta.media.1.codec.long_name">Vorbis</property>
  <property name="meta.media.1.codec.bit_rate">0</property>
  <property name="meta.attr.1.stream.ENCODER.markup">Lavc60.3.100 libvorbis</property>
  <property name="meta.attr.1.stream.DURATION.markup">00:23:54.776000000</property>
  <property name="meta.media.2.stream.type">audio</property>
  <property name="meta.media.2.codec.sample_fmt">fltp</property>
  <property name="meta.media.2.codec.sample_rate">48000</property>
  <property name="meta.media.2.codec.channels">2</property>
  <property name="meta.media.2.codec.name">opus</property>
  <property name="meta.media.2.codec.long_name">Opus</property>
  <property name="meta.media.2.codec.bit_rate">0</property>
  <property name="meta.attr.2.stream.ENCODER.markup">Lavc60.3.100 libopus</property>
  <property name="meta.attr.2.stream.DURATION.markup">00:23:54.784000000</property>
  <property name="meta.media.3.codec.name">pgssub</property>
  <property name="meta.media.3.codec.long_name">HDMV Presentation Graphic Stream subtitles</property>
  <property name="meta.media.3.codec.bit_rate">0</property>
  <property name="meta.attr.3.stream.DURATION.markup">00:23:54.770000000</property>
  <property name="meta.media.4.codec.name">pgssub</property>
  <property name="meta.media.4.codec.long_name">HDMV Presentation Graphic Stream subtitles</property>
  <property name="meta.media.4.codec.bit_rate">0</property>
  <property name="meta.attr.4.stream.DURATION.markup">00:23:54.770000000</property>
  <property name="meta.attr.ENCODER.markup">Lavf60.3.100</property>
  <property name="seekable">1</property>
  <property name="meta.media.sample_aspect_num">1</property>
  <property name="meta.media.sample_aspect_den">1</property>
  <property name="format">3</property>
  <property name="audio_index">1</property>
  <property name="video_index">0</property>
  <property name="vstream">0</property>
  <property name="meta.media.frame_rate_num">24000</property>
  <property name="meta.media.frame_rate_den">1001</property>
  <property name="meta.media.colorspace">709</property>
  <property name="meta.media.color_trc">1</property>
  <property name="meta.media.has_b_frames">0</property>
  <property name="meta.media.width">1440</property>
  <property name="meta.media.height">1080</property>
  <property name="meta.media.color_range">mpeg</property>
  <property name="astream">0</property>
  <property name="meta.media.top_field_first">0</property>
  <property name="meta.media.progressive">1</property>
  <property name="kdenlive:proxy">-</property>
  <property name="kdenlive:originalurl">/mnt/data0/Monster/Monster-Editing/Blu-Ray/Encoded/Ep01-av1.mkv</property>
  <property name="kdenlive:id">2</property>
  <property name="mute_on_pause">0</property>
  <property name="kdenlive:active_streams">1;2</property>
  <property name="kdenlive:clip_type">0</property>
  <property name="kdenlive:file_size">999749033</property>
  <property name="kdenlive:file_hash">3e7fe6854fe9fabdcf115764699786d7</property>
  <property name="kdenlive:folderid">-1</property>
  <property name="kdenlive:audio_max1">198</property>
 </chain>
 <chain id="chain27" out="00:23:54.763">
  <property name="length">34400</property>
  <property name="eof">pause</property>
  <property name="resource">/mnt/data1/Anime-Edits/Monster/Monster-Editing/Audio/deu/Ep01.wav</property>
  <property name="mlt_service">avformat</property>
  <property name="meta.media.nb_streams">1</property>
  <property name="meta.media.0.stream.type">audio</property>
  <property name="meta.media.0.codec.sample_fmt">s16</property>
  <property name="meta.media.0.codec.sample_rate">48000</property>
  <property name="meta.media.0.codec.channels">6</property>
  <property name="meta.media.0.codec.name">pcm_s16le</property>
  <property name="meta.media.0.codec.long_name">PCM signed 16-bit little-endian</property>
  <property name="meta.media.0.codec.bit_rate">4608000</property>
  <property name="meta.attr.encoder.markup">Lavf60.16.100</property>
  <property name="seekable">1</property>
  <property name="audio_index">0</property>
  <property name="video_index">-1</property>
  <property name="astream">0</property>
  <property name="kdenlive:proxy">-</property>
  <property name="kdenlive:originalurl">/mnt/data1/Anime-Edits/Monster/Monster-Editing/Audio/deu/Ep01.wav</property>
  <property name="kdenlive:id">3</property>
  <property name="kdenlive:clip_type">1</property>
  <property name="kdenlive:file_size">826429542</property>
  <property name="kdenlive:file_hash">16553f264094f894a5a3420012d139f5</property>
  <property name="kdenlive:folderid">-1</property>
  <property name="kdenlive:audio_max0">196</property>
 </chain>
 <chain id="chain32" out="00:23:55.472">
  <property name="length">34417</property>
  <property name="eof">pause</property>
  <property name="resource">/mnt/data0/Monster/Monster-Editing/Blu-Ray/Encoded/Ep02-av1.mkv</property>
  <property name="mlt_service">avformat-novalidate</property>
  <property name="meta.media.nb_streams">5</property>
  <property name="meta.media.0.stream.type">video</property>
  <property name="meta.media.0.stream.frame_rate">23.976</property>
  <property name="meta.media.0.stream.sample_aspect_ratio">1</property>
  <property name="meta.media.0.codec.width">1440</property>
  <property name="meta.media.0.codec.height">1080</property>
  <property name="meta.media.0.codec.rotate">0</property>
  <property name="meta.media.0.codec.pix_fmt">yuv420p10le</property>
  <property name="meta.media.0.codec.sample_aspect_ratio">0</property>
  <property name="meta.media.0.codec.colorspace">709</property>
  <property name="meta.media.0.codec.color_trc">1</property>
  <property name="meta.media.0.codec.name">libdav1d</property>
  <property name="meta.media.0.codec.long_name">dav1d AV1 decoder by VideoLAN</property>
  <property name="meta.media.0.codec.bit_rate">0</property>
  <property name="meta.attr.0.stream.ENCODER.markup">Lavc60.3.100 av1_qsv</property>
  <property name="meta.attr.0.stream.DURATION.markup">00:23:55.479000000</property>
  <property name="meta.media.1.stream.type">audio</property>
  <property name="meta.media.1.codec.sample_fmt">fltp</property>
  <property name="meta.media.1.codec.sample_rate">48000</property>
  <property name="meta.media.1.codec.channels">6</property>
  <property name="meta.media.1.codec.name">vorbis</property>
  <property name="meta.media.1.codec.long_name">Vorbis</property>
  <property name="meta.media.1.codec.bit_rate">0</property>
  <property name="meta.attr.1.stream.ENCODER.markup">Lavc60.3.100 libvorbis</property>
  <property name="meta.attr.1.stream.DURATION.markup">00:23:55.480000000</property>
  <property name="meta.media.2.stream.type">audio</property>
  <property name="meta.media.2.codec.sample_fmt">fltp</property>
  <property name="meta.media.2.codec.sample_rate">48000</property>
  <property name="meta.media.2.codec.channels">2</property>
  <property name="meta.media.2.codec.name">opus</property>
  <property name="meta.media.2.codec.long_name">Opus</property>
  <property name="meta.media.2.codec.bit_rate">0</property>
  <property name="meta.attr.2.stream.ENCODER.markup">Lavc60.3.100 libopus</property>
  <property name="meta.attr.2.stream.DURATION.markup">00:23:55.488000000</property>
  <property name="meta.media.3.codec.name">pgssub</property>
  <property name="meta.media.3.codec.long_name">HDMV Presentation Graphic Stream subtitles</property>
  <property name="meta.media.3.codec.bit_rate">0</property>
  <property name="meta.attr.3.stream.DURATION.markup">00:23:54.436000000</property>
  <property name="meta.media.4.codec.name">pgssub</property>
  <property name="meta.media.4.codec.long_name">HDMV Presentation Graphic Stream subtitles</property>
  <property name="meta.media.4.codec.bit_rate">0</property>
  <property name="meta.attr.4.stream.DURATION.markup">00:23:54.436000000</property>
  <property name="meta.attr.ENCODER.markup">Lavf60.3.100</property>
  <property name="seekable">1</property>
  <property name="meta.media.sample_aspect_num">1</property>
  <property name="meta.media.sample_aspect_den">1</property>
  <property name="format">3</property>
  <property name="audio_index">1</property>
  <property name="video_index">0</property>
  <property name="vstream">0</property>
  <property name="meta.media.frame_rate_num">24000</property>
  <property name="meta.media.frame_rate_den">1001</property>
  <property name="meta.media.colorspace">709</property>
  <property name="meta.media.color_trc">1</property>
  <property name="meta.media.has_b_frames">0</property>
  <property name="meta.media.width">1440</property>
  <property name="meta.media.height">1080</property>
  <property name="meta.media.color_range">mpeg</property>
  <property name="astream">0</property>
  <property name="meta.media.top_field_first">0</property>
  <property name="meta.media.progressive">1</property>
  <property name="kdenlive:proxy">-</property>
  <property name="kdenlive:originalurl">/mnt/data0/Monster/Monster-Editing/Blu-Ray/Encoded/Ep02-av1.mkv</property>
  <property name="kdenlive:id">4</property>
  <property name="mute_on_pause">0</property>
  <property name="kdenlive:active_streams">1;2</property>
  <property name="kdenlive:clip_type">0</property>
  <property name="kdenlive:file_size">960398509</property>
  <property name="kdenlive:file_hash">60fcf1bc1f10b591760efe966b9b77ca</property>
  <property name="kdenlive:folderid">-1</property>
  <property name="kdenlive:audio_max1">184</property>
  <property name="kdenlive:audio_max2">208</property>
 </chain>
 <chain id="chain28" out="00:23:55.472">
  <property name="length">34417</property>
  <property name="eof">pause</property>
  <property name="resource">/mnt/data1/Anime-Edits/Monster/Monster-Editing/Audio/deu/Ep02.wav</property>
  <property name="mlt_service">avformat</property>
  <property name="meta.media.nb_streams">1</property>
  <property name="meta.media.0.stream.type">audio</property>
  <property name="meta.media.0.codec.sample_fmt">s16</property>
  <property name="meta.media.0.codec.sample_rate">48000</property>
  <property name="meta.media.0.codec.channels">6</property>
  <property name="meta.media.0.codec.name">pcm_s16le</property>
  <property name="meta.media.0.codec.long_name">PCM signed 16-bit little-endian</property>
  <property name="meta.media.0.codec.bit_rate">4608000</property>
  <property name="meta.attr.encoder.markup">Lavf60.16.100</property>
  <property name="seekable">1</property>
  <property name="audio_index">0</property>
  <property name="video_index">-1</property>
  <property name="astream">0</property>
  <property name="kdenlive:proxy">-</property>
  <property name="kdenlive:originalurl">/mnt/data1/Anime-Edits/Monster/Monster-Editing/Audio/deu/Ep02.wav</property>
  <property name="kdenlive:id">5</property>
  <property name="kdenlive:clip_type">1</property>
  <property name="kdenlive:file_size">826835046</property>
  <property name="kdenlive:file_hash">9e108862dd10c0ea3686eaad255d53ba</property>
  <property name="kdenlive:folderid">-1</property>
  <property name="kdenlive:audio_max0">184</property>
 </chain>
 <chain id="chain33" out="00:23:55.430">
  <property name="length">34416</property>
  <property name="eof">pause</property>
  <property name="resource">/mnt/data0/Monster/Monster-Editing/Blu-Ray/Encoded/Ep03-av1.mkv</property>
  <property name="mlt_service">avformat-novalidate</property>
  <property name="meta.media.nb_streams">5</property>
  <property name="meta.media.0.stream.type">video</property>
  <property name="meta.media.0.stream.frame_rate">23.976</property>
  <property name="meta.media.0.stream.sample_aspect_ratio">1</property>
  <property name="meta.media.0.codec.width">1440</property>
  <property name="meta.media.0.codec.height">1080</property>
  <property name="meta.media.0.codec.rotate">0</property>
  <property name="meta.media.0.codec.pix_fmt">yuv420p10le</property>
  <property name="meta.media.0.codec.sample_aspect_ratio">0</property>
  <property name="meta.media.0.codec.colorspace">709</property>
  <property name="meta.media.0.codec.color_trc">1</property>
  <property name="meta.media.0.codec.name">libdav1d</property>
  <property name="meta.media.0.codec.long_name">dav1d AV1 decoder by VideoLAN</property>
  <property name="meta.media.0.codec.bit_rate">0</property>
  <property name="meta.attr.0.stream.ENCODER.markup">Lavc60.3.100 av1_qsv</property>
  <property name="meta.attr.0.stream.DURATION.markup">00:23:55.437000000</property>
  <property name="meta.media.1.stream.type">audio</property>
  <property name="meta.media.1.codec.sample_fmt">fltp</property>
  <property name="meta.media.1.codec.sample_rate">48000</property>
  <property name="meta.media.1.codec.channels">6</property>
  <property name="meta.media.1.codec.name">vorbis</property>
  <property name="meta.media.1.codec.long_name">Vorbis</property>
  <property name="meta.media.1.codec.bit_rate">0</property>
  <property name="meta.attr.1.stream.ENCODER.markup">Lavc60.3.100 libvorbis</property>
  <property name="meta.attr.1.stream.DURATION.markup">00:23:55.438000000</property>
  <property name="meta.media.2.stream.type">audio</property>
  <property name="meta.media.2.codec.sample_fmt">fltp</property>
  <property name="meta.media.2.codec.sample_rate">48000</property>
  <property name="meta.media.2.codec.channels">2</property>
  <property name="meta.media.2.codec.name">opus</property>
  <property name="meta.media.2.codec.long_name">Opus</property>
  <property name="meta.media.2.codec.bit_rate">0</property>
  <property name="meta.attr.2.stream.ENCODER.markup">Lavc60.3.100 libopus</property>
  <property name="meta.attr.2.stream.DURATION.markup">00:23:55.445000000</property>
  <property name="meta.media.3.codec.name">pgssub</property>
  <property name="meta.media.3.codec.long_name">HDMV Presentation Graphic Stream subtitles</property>
  <property name="meta.media.3.codec.bit_rate">0</property>
  <property name="meta.attr.3.stream.DURATION.markup">00:23:54.353000000</property>
  <property name="meta.media.4.codec.name">pgssub</property>
  <property name="meta.media.4.codec.long_name">HDMV Presentation Graphic Stream subtitles</property>
  <property name="meta.media.4.codec.bit_rate">0</property>
  <property name="meta.attr.4.stream.DURATION.markup">00:23:54.353000000</property>
  <property name="meta.attr.ENCODER.markup">Lavf60.3.100</property>
  <property name="seekable">1</property>
  <property name="meta.media.sample_aspect_num">1</property>
  <property name="meta.media.sample_aspect_den">1</property>
  <property name="format">3</property>
  <property name="audio_index">1</property>
  <property name="video_index">0</property>
  <property name="vstream">0</property>
  <property name="meta.media.frame_rate_num">24000</property>
  <property name="meta.media.frame_rate_den">1001</property>
  <property name="meta.media.colorspace">709</property>
  <property name="meta.media.color_trc">1</property>
  <property name="meta.media.has_b_frames">0</property>
  <property name="meta.media.width">1440</property>
  <property name="meta.media.height">1080</property>
  <property name="meta.media.color_range">mpeg</property>
  <property name="astream">0</property>
  <property name="meta.media.top_field_first">0</property>
  <property name="meta.media.progressive">1</property>
  <property name="kdenlive:proxy">-</property>
  <property name="kdenlive:originalurl">/mnt/data0/Monster/Monster-Editing/Blu-Ray/Encoded/Ep03-av1.mkv</property>
  <property name="kdenlive:id">6</property>
  <property name="mute_on_pause">0</property>
  <property name="kdenlive:active_streams">1;2</property>
  <property name="kdenlive:clip_type">0</property>
  <property name="kdenlive:file_size">1220460611</property>
  <property name="kdenlive:file_hash">87f8c1299f4a9023e523b251a22fe147</property>
  <property name="kdenlive:folderid">-1</property>
  <property name="kdenlive:audio_max1">189</property>
  <property name="kdenlive:audio_max2">186</property>
 </chain>
 <chain id="chain30" out="00:23:55.430">
  <property name="length">34416</property>
  <property name="eof">pause</property>
  <property name="resource">/mnt/data1/Anime-Edits/Monster/Monster-Editing/Audio/deu/Ep03.wav</property>
  <property name="mlt_service">avformat</property>
  <property name="meta.media.nb_streams">1</property>
  <property name="meta.media.0.stream.type">audio</property>
  <property name="meta.media.0.codec.sample_fmt">s16</property>
  <property name="meta.media.0.codec.sample_rate">48000</property>
  <property name="meta.media.0.codec.channels">6</property>
  <property name="meta.media.0.codec.name">pcm_s16le</property>
  <property name="meta.media.0.codec.long_name">PCM signed 16-bit little-endian</property>
  <property name="meta.media.0.codec.bit_rate">4608000</property>
  <property name="meta.attr.encoder.markup">Lavf60.16.100</property>
  <property name="seekable">1</property>
  <property name="audio_index">0</property>
  <property name="video_index">-1</property>
  <property name="astream">0</property>
  <property name="kdenlive:proxy">-</property>
  <property name="kdenlive:originalurl">/mnt/data1/Anime-Edits/Monster/Monster-Editing/Audio/deu/Ep03.wav</property>
  <property name="kdenlive:id">7</property>
  <property name="kdenlive:clip_type">1</property>
  <property name="kdenlive:file_size">826810470</property>
  <property name="kdenlive:file_hash">442a79859f5dab034c4d570fbdc91045</property>
  <property name="kdenlive:folderid">-1</property>
  <property name="kdenlive:audio_max0">191</property>
 </chain>
 <chain id="chain34" out="00:23:55.430">
  <property name="length">34416</property>
  <property name="eof">pause</property>
  <property name="resource">/mnt/data0/Monster/Monster-Editing/Blu-Ray/Encoded/Ep04-av1.mkv</property>
  <property name="mlt_service">avformat-novalidate</property>
  <property name="meta.media.nb_streams">5</property>
  <property name="meta.media.0.stream.type">video</property>
  <property name="meta.media.0.stream.frame_rate">23.976</property>
  <property name="meta.media.0.stream.sample_aspect_ratio">1</property>
  <property name="meta.media.0.codec.width">1440</property>
  <property name="meta.media.0.codec.height">1080</property>
  <property name="meta.media.0.codec.rotate">0</property>
  <property name="meta.media.0.codec.pix_fmt">yuv420p10le</property>
  <property name="meta.media.0.codec.sample_aspect_ratio">0</property>
  <property name="meta.media.0.codec.colorspace">709</property>
  <property name="meta.media.0.codec.color_trc">1</property>
  <property name="meta.media.0.codec.name">libdav1d</property>
  <property name="meta.media.0.codec.long_name">dav1d AV1 decoder by VideoLAN</property>
  <property name="meta.media.0.codec.bit_rate">0</property>
  <property name="meta.attr.0.stream.ENCODER.markup">Lavc60.3.100 av1_qsv</property>
  <property name="meta.attr.0.stream.DURATION.markup">00:23:55.437000000</property>
  <property name="meta.media.1.stream.type">audio</property>
  <property name="meta.media.1.codec.sample_fmt">fltp</property>
  <property name="meta.media.1.codec.sample_rate">48000</property>
  <property name="meta.media.1.codec.channels">6</property>
  <property name="meta.media.1.codec.name">vorbis</property>
  <property name="meta.media.1.codec.long_name">Vorbis</property>
  <property name="meta.media.1.codec.bit_rate">0</property>
  <property name="meta.attr.1.stream.ENCODER.markup">Lavc60.3.100 libvorbis</property>
  <property name="meta.attr.1.stream.DURATION.markup">00:23:55.437000000</property>
  <property name="meta.media.2.stream.type">audio</property>
  <property name="meta.media.2.codec.sample_fmt">fltp</property>
  <property name="meta.media.2.codec.sample_rate">48000</property>
  <property name="meta.media.2.codec.channels">2</property>
  <property name="meta.media.2.codec.name">opus</property>
  <property name="meta.media.2.codec.long_name">Opus</property>
  <property name="meta.media.2.codec.bit_rate">0</property>
  <property name="meta.attr.2.stream.ENCODER.markup">Lavc60.3.100 libopus</property>
  <property name="meta.attr.2.stream.DURATION.markup">00:23:55.445000000</property>
  <property name="meta.media.3.codec.name">pgssub</property>
  <property name="meta.media.3.codec.long_name">HDMV Presentation Graphic Stream subtitles</property>
  <property name="meta.media.3.codec.bit_rate">0</property>
  <property name="meta.attr.3.stream.DURATION.markup">00:23:54.353000000</property>
  <property name="meta.media.4.codec.name">pgssub</property>
  <property name="meta.media.4.codec.long_name">HDMV Presentation Graphic Stream subtitles</property>
  <property name="meta.media.4.codec.bit_rate">0</property>
  <property name="meta.attr.4.stream.DURATION.markup">00:23:54.311000000</property>
  <property name="meta.attr.ENCODER.markup">Lavf60.3.100</property>
  <property name="seekable">1</property>
  <property name="meta.media.sample_aspect_num">1</property>
  <property name="meta.media.sample_aspect_den">1</property>
  <property name="format">3</property>
  <property name="audio_index">1</property>
  <property name="video_index">0</property>
  <property name="vstream">0</property>
  <property name="meta.media.frame_rate_num">24000</property>
  <property name="meta.media.frame_rate_den">1001</property>
  <property name="meta.media.colorspace">709</property>
  <property name="meta.media.color_trc">1</property>
  <property name="meta.media.has_b_frames">0</property>
  <property name="meta.media.width">1440</property>
  <property name="meta.media.height">1080</property>
  <property name="meta.media.color_range">mpeg</property>
  <property name="astream">0</property>
  <property name="meta.media.top_field_first">0</property>
  <property name="meta.media.progressive">1</property>
  <property name="kdenlive:proxy">-</property>
  <property name="kdenlive:originalurl">/mnt/data0/Monster/Monster-Editing/Blu-Ray/Encoded/Ep04-av1.mkv</property>
  <property name="kdenlive:id">8</property>
  <property name="mute_on_pause">0</property>
  <property name="kdenlive:active_streams">1;2</property>
  <property name="kdenlive:clip_type">0</property>
  <property name="kdenlive:file_size">767948903</property>
  <property name="kdenlive:file_hash">2b3e1e7eeb7eb701e746d3b47d529bba</property>
  <property name="kdenlive:folderid">-1</property>
  <property name="kdenlive:audio_max1">194</property>
  <property name="kdenlive:audio_max2">182</property>
 </chain>
 <chain id="chain29" out="00:23:55.430">
  <property name="length">34416</property>
  <property name="eof">pause</property>
  <property name="resource">/mnt/data1/Anime-Edits/Monster/Monster-Editing/Audio/deu/Ep04.wav</property>
  <property name="mlt_service">avformat</property>
  <property name="meta.media.nb_streams">1</property>
  <property name="meta.media.0.stream.type">audio</property>
  <property name="meta.media.0.codec.sample_fmt">s16</property>
  <property name="meta.media.0.codec.sample_rate">48000</property>
  <property name="meta.media.0.codec.channels">6</property>
  <property name="meta.media.0.codec.name">pcm_s16le</property>
  <property name="meta.media.0.codec.long_name">PCM signed 16-bit little-endian</property>
  <property name="meta.media.0.codec.bit_rate">4608000</property>
  <property name="meta.attr.encoder.markup">Lavf60.16.100</property>
  <property name="seekable">1</property>
  <property name="audio_index">0</property>
  <property name="video_index">-1</property>
  <property name="astream">0</property>
  <property name="kdenlive:proxy">-</property>
  <property name="kdenlive:originalurl">/mnt/data1/Anime-Edits/Monster/Monster-Editing/Audio/deu/Ep04.wav</property>
  <property name="kdenlive:id">9</property>
  <property name="kdenlive:clip_type">1</property>
  <property name="kdenlive:file_size">826810470</property>
  <property name="kdenlive:file_hash">b2c1ce13b0c9ad25f9c7fd56036d7b06</property>
  <property name="kdenlive:folderid">-1</property>
  <property name="kdenlive:audio_max0">199</property>
 </chain>
 <chain id="chain36" out="00:23:55.597">
  <property name="length">34420</property>
  <property name="eof">pause</property>
  <property name="resource">/mnt/data0/Monster/Monster-Editing/Blu-Ray/Encoded/Ep23-av1.mkv</property>
  <property name="mlt_service">avformat-novalidate</property>
  <property name="meta.media.nb_streams">5</property>
  <property name="meta.media.0.stream.type">video</property>
  <property name="meta.media.0.stream.frame_rate">23.976</property>
  <property name="meta.media.0.stream.sample_aspect_ratio">1</property>
  <property name="meta.media.0.codec.width">1440</property>
  <property name="meta.media.0.codec.height">1080</property>
  <property name="meta.media.0.codec.rotate">0</property>
  <property name="meta.media.0.codec.pix_fmt">yuv420p10le</property>
  <property name="meta.media.0.codec.sample_aspect_ratio">0</property>
  <property name="meta.media.0.codec.colorspace">709</property>
  <property name="meta.media.0.codec.color_trc">1</property>
  <property name="meta.media.0.codec.name">libdav1d</property>
  <property name="meta.media.0.codec.long_name">dav1d AV1 decoder by VideoLAN</property>
  <property name="meta.media.0.codec.bit_rate">0</property>
  <property name="meta.attr.0.stream.ENCODER.markup">Lavc60.3.100 av1_qsv</property>
  <property name="meta.attr.0.stream.DURATION.markup">00:23:55.604000000</property>
  <property name="meta.media.1.stream.type">audio</property>
  <property name="meta.media.1.codec.sample_fmt">fltp</property>
  <property name="meta.media.1.codec.sample_rate">48000</property>
  <property name="meta.media.1.codec.channels">6</property>
  <property name="meta.media.1.codec.name">vorbis</property>
  <property name="meta.media.1.codec.long_name">Vorbis</property>
  <property name="meta.media.1.codec.bit_rate">0</property>
  <property name="meta.attr.1.stream.ENCODER.markup">Lavc60.3.100 libvorbis</property>
  <property name="meta.attr.1.stream.DURATION.markup">00:23:55.608000000</property>
  <property name="meta.media.2.stream.type">audio</property>
  <property name="meta.media.2.codec.sample_fmt">fltp</property>
  <property name="meta.media.2.codec.sample_rate">48000</property>
  <property name="meta.media.2.codec.channels">2</property>
  <property name="meta.media.2.codec.name">opus</property>
  <property name="meta.media.2.codec.long_name">Opus</property>
  <property name="meta.media.2.codec.bit_rate">0</property>
  <property name="meta.attr.2.stream.ENCODER.markup">Lavc60.3.100 libopus</property>
  <property name="meta.attr.2.stream.DURATION.markup">00:23:55.616000000</property>
  <property name="meta.media.3.codec.name">pgssub</property>
  <property name="meta.media.3.codec.long_name">HDMV Presentation Graphic Stream subtitles</property>
  <property name="meta.media.3.codec.bit_rate">0</property>
  <property name="meta.attr.3.stream.DURATION.markup">00:23:54.519000000</property>
  <property name="meta.media.4.codec.name">pgssub</property>
  <property name="meta.media.4.codec.long_name">HDMV Presentation Graphic Stream subtitles</property>
  <property name="meta.media.4.codec.bit_rate">0</property>
  <property name="meta.attr.4.stream.DURATION.markup">00:23:54.102000000</property>
  <property name="meta.attr.ENCODER.markup">Lavf60.3.100</property>
  <property name="seekable">1</property>
  <property name="meta.media.sample_aspect_num">1</property>
  <property name="meta.media.sample_aspect_den">1</property>
  <property name="format">3</property>
  <property name="audio_index">1</property>
  <property name="video_index">0</property>
  <property name="vstream">0</property>
  <property name="meta.media.frame_rate_num">24000</property>
  <property name="meta.media.frame_rate_den">1001</property>
  <property name="meta.media.colorspace">709</property>
  <property name="meta.media.color_trc">1</property>
  <property name="meta.media.has_b_frames">0</property>
  <property name="meta.media.width">1440</property>
  <property name="meta.media.height">1080</property>
  <property name="meta.media.color_range">mpeg</property>
  <property name="astream">0</property>
  <property name="meta.media.top_field_first">0</property>
  <property name="meta.media.progressive">1</property>
  <property name="kdenlive:proxy">-</property>
  <property name="kdenlive:originalurl">/mnt/data0/Monster/Monster-Editing/Blu-Ray/Encoded/Ep23-av1.mkv</property>
  <property name="kdenlive:multistreams">1</property>
  <property name="kdenlive:id">10</property>
  <property name="mute_on_pause">0</property>
  <property name="kdenlive:active_streams">1;2</property>
  <property name="kdenlive:clip_type">0</property>
  <property name="kdenlive:file_size">939030150</property>
  <property name="kdenlive:file_hash">2f3024c2bf7d09c147fc41c4d010cedd</property>
  <property name="kdenlive:folderid">-1</property>
  <property name="kdenlive:audio_max1">199</property>
  <property name="kdenlive:audio_max2">179</property>
 </chain>
 <chain id="chain37" out="00:23:55.597">
  <property name="length">34420</property>
  <property name="eof">pause</property>
  <property name="resource">/mnt/data1/Anime-Edits/Monster/Monster-Editing/Audio/deu/Ep23.wav</property>
  <property name="mlt_service">avformat</property>
  <property name="meta.media.nb_streams">1</property>
  <property name="meta.media.0.stream.type">audio</property>
  <property name="meta.media.0.codec.sample_fmt">s16</property>
  <property name="meta.media.0.codec.sample_rate">48000</property>
  <property name="meta.media.0.codec.channels">6</property>
  <property name="meta.media.0.codec.name">pcm_s16le</property>
  <property name="meta.media.0.codec.long_name">PCM signed 16-bit little-endian</property>
  <property name="meta.media.0.codec.bit_rate">4608000</property>
  <property name="meta.attr.encoder.markup">Lavf60.16.100</property>
  <property name="seekable">1</property>
  <property name="audio_index">0</property>
  <property name="video_index">-1</property>
  <property name="astream">0</property>
  <property name="kdenlive:proxy">-</property>
  <property name="kdenlive:originalurl">/mnt/data1/Anime-Edits/Monster/Monster-Editing/Audio/deu/Ep23.wav</property>
  <property name="kdenlive:id">11</property>
  <property name="kdenlive:clip_type">1</property>
  <property name="kdenlive:file_size">826908774</property>
  <property name="kdenlive:file_hash">74e759bdd30e4fb9580bd7b08377760f</property>
  <property name="kdenlive:folderid">-1</property>
  <property name="kdenlive:audio_max0">200</property>
 </chain>
 <chain id="chain20" out="00:03:11.220">
  <property name="length">4585</property>
  <property name="eof">pause</property>
  <property name="resource">/mnt/data1/Anime-Edits/Monster/Monster-Editing/Monster [Ultimate Collection] By Kira [SEV]/Original Soundtracks [2004]/Monster - Original Soundtrack II [2004]/11 - YOU ARE THE MOVE YOU MAKE.flac</property>
  <property name="mlt_service">avformat-novalidate</property>
  <property name="meta.media.nb_streams">2</property>
  <property name="meta.media.0.stream.type">audio</property>
  <property name="meta.media.0.codec.sample_fmt">s16</property>
  <property name="meta.media.0.codec.sample_rate">44100</property>
  <property name="meta.media.0.codec.channels">2</property>
  <property name="meta.media.0.codec.name">flac</property>
  <property name="meta.media.0.codec.long_name">FLAC (Free Lossless Audio Codec)</property>
  <property name="meta.media.0.codec.bit_rate">0</property>
  <property name="meta.media.1.stream.type">video</property>
  <property name="meta.media.1.stream.frame_rate">90000</property>
  <property name="meta.media.1.stream.sample_aspect_ratio">0</property>
  <property name="meta.media.1.codec.width">1685</property>
  <property name="meta.media.1.codec.height">1475</property>
  <property name="meta.media.1.codec.rotate">0</property>
  <property name="meta.media.1.codec.pix_fmt">yuvj420p</property>
  <property name="meta.media.1.codec.sample_aspect_ratio">0</property>
  <property name="meta.media.1.codec.colorspace">601</property>
  <property name="meta.media.1.codec.name">mjpeg</property>
  <property name="meta.media.1.codec.long_name">MJPEG (Motion JPEG)</property>
  <property name="meta.media.1.codec.bit_rate">0</property>
  <property name="meta.attr.1.stream.comment.markup">Cover (front)</property>
  <property name="meta.attr.TITLE.markup">YOU ARE THE MOVE YOU MAKE</property>
  <property name="meta.attr.ARTIST.markup">Kuniaki Haishima</property>
  <property name="meta.attr.ALBUM.markup">Monster : Original Soundtrack II</property>
  <property name="meta.attr.DATE.markup">2004</property>
  <property name="meta.attr.GENRE.markup">Anime</property>
  <property name="meta.attr.COMPOSER.markup">Kuniaki Haishima</property>
  <property name="meta.attr.ORIGINALARTIST.markup">Kuniaki Haishima</property>
  <property name="meta.attr.ENCODEDBY.markup">Mr. J</property>
  <property name="meta.attr.track.markup">11/21</property>
  <property name="meta.attr.disc.markup">01/01</property>
  <property name="meta.attr.ORIGARTIST.markup">Kuniaki Haishima</property>
  <property name="meta.attr.ALBUM ARTIST.markup">Kuniaki Haishima</property>
  <property name="meta.attr.ARTISTSORT.markup">Kuniaki Haishima</property>
  <property name="meta.attr.ALBUMARTISTSORT.markup">Kuniaki Haishima</property>
  <property name="meta.attr.ALBUMSORT.markup">Monster : Original Soundtrack II</property>
  <property name="meta.attr.COMPOSERSORT.markup">Kuniaki Haishima</property>
  <property name="meta.attr.SHOWSORT.markup">Monster</property>
  <property name="seekable">1</property>
  <property name="meta.media.sample_aspect_num">1</property>
  <property name="meta.media.sample_aspect_den">1</property>
  <property name="format">3</property>
  <property name="audio_index">0</property>
  <property name="video_index">1</property>
  <property name="vstream">0</property>
  <property name="meta.media.frame_rate_num">90000</property>
  <property name="meta.media.frame_rate_den">1</property>
  <property name="meta.media.colorspace">601</property>
  <property name="meta.media.color_trc">2</property>
  <property name="meta.media.has_b_frames">0</property>
  <property name="meta.media.width">1685</property>
  <property name="meta.media.height">1475</property>
  <property name="meta.media.color_range">full</property>
  <property name="astream">0</property>
  <property name="meta.media.top_field_first">0</property>
  <property name="meta.media.progressive">1</property>
  <property name="kdenlive:folderid">-1</property>
  <property name="kdenlive:id">14</property>
  <property name="mute_on_pause">0</property>
  <property name="kdenlive:clip_type">0</property>
  <property name="kdenlive:file_size">17604901</property>
  <property name="kdenlive:file_hash">269198fac804b8458883ff9cf283ba66</property>
  <property name="kdenlive:audio_max0">224</property>
 </chain>
 <chain id="chain21" out="00:01:42.584">
  <property name="length">2460</property>
  <property name="eof">pause</property>
  <property name="resource">/mnt/data1/Anime-Edits/Monster/Monster-Editing/Monster [Ultimate Collection] By Kira [SEV]/Original Soundtracks [2004]/Monster - Original Soundtrack II [2004]/19 - WE'LL BE WAITING FOR THE NIGHT.flac</property>
  <property name="mlt_service">avformat-novalidate</property>
  <property name="meta.media.nb_streams">2</property>
  <property name="meta.media.0.stream.type">audio</property>
  <property name="meta.media.0.codec.sample_fmt">s16</property>
  <property name="meta.media.0.codec.sample_rate">44100</property>
  <property name="meta.media.0.codec.channels">2</property>
  <property name="meta.media.0.codec.name">flac</property>
  <property name="meta.media.0.codec.long_name">FLAC (Free Lossless Audio Codec)</property>
  <property name="meta.media.0.codec.bit_rate">0</property>
  <property name="meta.media.1.stream.type">video</property>
  <property name="meta.media.1.stream.frame_rate">90000</property>
  <property name="meta.media.1.stream.sample_aspect_ratio">0</property>
  <property name="meta.media.1.codec.width">1685</property>
  <property name="meta.media.1.codec.height">1475</property>
  <property name="meta.media.1.codec.rotate">0</property>
  <property name="meta.media.1.codec.pix_fmt">yuvj420p</property>
  <property name="meta.media.1.codec.sample_aspect_ratio">0</property>
  <property name="meta.media.1.codec.colorspace">601</property>
  <property name="meta.media.1.codec.name">mjpeg</property>
  <property name="meta.media.1.codec.long_name">MJPEG (Motion JPEG)</property>
  <property name="meta.media.1.codec.bit_rate">0</property>
  <property name="meta.attr.1.stream.comment.markup">Cover (front)</property>
  <property name="meta.attr.TITLE.markup">WE'LL BE WAITING FOR THE NIGHT</property>
  <property name="meta.attr.ARTIST.markup">Kuniaki Haishima</property>
  <property name="meta.attr.ALBUM.markup">Monster : Original Soundtrack II</property>
  <property name="meta.attr.DATE.markup">2004</property>
  <property name="meta.attr.GENRE.markup">Anime</property>
  <property name="meta.attr.COMPOSER.markup">Kuniaki Haishima</property>
  <property name="meta.attr.ORIGINALARTIST.markup">Kuniaki Haishima</property>
  <property name="meta.attr.ENCODEDBY.markup">Mr. J</property>
  <property name="meta.attr.track.markup">19/21</property>
  <property name="meta.attr.disc.markup">01/01</property>
  <property name="meta.attr.ORIGARTIST.markup">Kuniaki Haishima</property>
  <property name="meta.attr.ALBUM ARTIST.markup">Kuniaki Haishima</property>
  <property name="meta.attr.ARTISTSORT.markup">Kuniaki Haishima</property>
  <property name="meta.attr.ALBUMARTISTSORT.markup">Kuniaki Haishima</property>
  <property name="meta.attr.ALBUMSORT.markup">Monster : Original Soundtrack II</property>
  <property name="meta.attr.COMPOSERSORT.markup">Kuniaki Haishima</property>
  <property name="meta.attr.SHOWSORT.markup">Monster</property>
  <property name="seekable">1</property>
  <property name="meta.media.sample_aspect_num">1</property>
  <property name="meta.media.sample_aspect_den">1</property>
  <property name="format">3</property>
  <property name="audio_index">0</property>
  <property name="video_index">1</property>
  <property name="vstream">0</property>
  <property name="meta.media.frame_rate_num">90000</property>
  <property name="meta.media.frame_rate_den">1</property>
  <property name="meta.media.colorspace">601</property>
  <property name="meta.media.color_trc">2</property>
  <property name="meta.media.has_b_frames">0</property>
  <property name="meta.media.width">1685</property>
  <property name="meta.media.height">1475</property>
  <property name="meta.media.color_range">full</property>
  <property name="astream">0</property>
  <property name="meta.media.top_field_first">0</property>
  <property name="meta.media.progressive">1</property>
  <property name="kdenlive:folderid">-1</property>
  <property name="kdenlive:id">15</property>
  <property name="mute_on_pause">0</property>
  <property name="kdenlive:clip_type">0</property>
  <property name="kdenlive:file_size">10372367</property>
  <property name="kdenlive:file_hash">1b973091d4910ea19d52cc163f0056ad</property>
  <property name="kdenlive:audio_max0">233</property>
 </chain>
 <chain id="chain35" out="00:24:09.593">
  <property name="length">34756</property>
  <property name="eof">pause</property>
  <property name="resource">/mnt/data0/Monster/Monster-Editing/Orig/Monster - Chapter 23 - Eva's Confession.mkv</property>
  <property name="mlt_service">avformat-novalidate</property>
  <property name="meta.media.nb_streams">44</property>
  <property name="meta.media.0.stream.type">video</property>
  <property name="meta.media.0.stream.frame_rate">23.976</property>
  <property name="meta.media.0.stream.sample_aspect_ratio">1</property>
  <property name="meta.media.0.codec.width">1440</property>
  <property name="meta.media.0.codec.height">1080</property>
  <property name="meta.media.0.codec.rotate">0</property>
  <property name="meta.media.0.codec.pix_fmt">yuv420p10le</property>
  <property name="meta.media.0.codec.sample_aspect_ratio">1</property>
  <property name="meta.media.0.codec.colorspace">709</property>
  <property name="meta.media.0.codec.color_trc">1</property>
  <property name="meta.media.0.codec.name">hevc</property>
  <property name="meta.media.0.codec.long_name">HEVC (High Efficiency Video Coding)</property>
  <property name="meta.media.0.codec.bit_rate">0</property>
  <property name="meta.attr.0.stream.BPS-eng.markup">2108560</property>
  <property name="meta.attr.0.stream.DURATION-eng.markup">00:24:09.615000000</property>
  <property name="meta.attr.0.stream.NUMBER_OF_FRAMES-eng.markup">34756</property>
  <property name="meta.attr.0.stream.NUMBER_OF_BYTES-eng.markup">382075037</property>
  <property name="meta.attr.0.stream._STATISTICS_WRITING_APP-eng.markup">mkvmerge v52.0.0 ('Secret For The Mad') 64-bit</property>
  <property name="meta.attr.0.stream._STATISTICS_WRITING_DATE_UTC-eng.markup">2022-11-10 08:26:59</property>
  <property name="meta.attr.0.stream._STATISTICS_TAGS-eng.markup">BPS DURATION NUMBER_OF_FRAMES NUMBER_OF_BYTES</property>
  <property name="meta.media.1.stream.type">audio</property>
  <property name="meta.media.1.codec.sample_fmt">fltp</property>
  <property name="meta.media.1.codec.sample_rate">48000</property>
  <property name="meta.media.1.codec.channels">2</property>
  <property name="meta.media.1.codec.name">ac3</property>
  <property name="meta.media.1.codec.long_name">ATSC A/52A (AC-3)</property>
  <property name="meta.media.1.codec.bit_rate">448000</property>
  <property name="meta.attr.1.stream.language.markup">jpn</property>
  <property name="meta.attr.1.stream.title.markup">Japanese DVD AC-3 DD_2.0</property>
  <property name="meta.attr.1.stream.BPS-eng.markup">448000</property>
  <property name="meta.attr.1.stream.DURATION-eng.markup">00:24:09.536000000</property>
  <property name="meta.attr.1.stream.NUMBER_OF_FRAMES-eng.markup">45298</property>
  <property name="meta.attr.1.stream.NUMBER_OF_BYTES-eng.markup">81174016</property>
  <property name="meta.attr.1.stream._STATISTICS_WRITING_APP-eng.markup">mkvmerge v52.0.0 ('Secret For The Mad') 64-bit</property>
  <property name="meta.attr.1.stream._STATISTICS_WRITING_DATE_UTC-eng.markup">2022-11-10 08:26:59</property>
  <property name="meta.attr.1.stream._STATISTICS_TAGS-eng.markup">BPS DURATION NUMBER_OF_FRAMES NUMBER_OF_BYTES</property>
  <property name="meta.media.2.stream.type">audio</property>
  <property name="meta.media.2.codec.sample_fmt">fltp</property>
  <property name="meta.media.2.codec.sample_rate">44100</property>
  <property name="meta.media.2.codec.channels">2</property>
  <property name="meta.media.2.codec.name">aac</property>
  <property name="meta.media.2.codec.long_name">AAC (Advanced Audio Coding)</property>
  <property name="meta.media.2.codec.bit_rate">0</property>
  <property name="meta.attr.2.stream.language.markup">eng</property>
  <property name="meta.attr.2.stream.title.markup">English AAC DD_2.0</property>
  <property name="meta.attr.2.stream.BPS-eng.markup">146545</property>
  <property name="meta.attr.2.stream.DURATION-eng.markup">00:23:54.831000000</property>
  <property name="meta.attr.2.stream.NUMBER_OF_FRAMES-eng.markup">61793</property>
  <property name="meta.attr.2.stream.NUMBER_OF_BYTES-eng.markup">26283445</property>
  <property name="meta.attr.2.stream._STATISTICS_WRITING_APP-eng.markup">mkvmerge v52.0.0 ('Secret For The Mad') 64-bit</property>
  <property name="meta.attr.2.stream._STATISTICS_WRITING_DATE_UTC-eng.markup">2022-11-10 08:26:59</property>
  <property name="meta.attr.2.stream._STATISTICS_TAGS-eng.markup">BPS DURATION NUMBER_OF_FRAMES NUMBER_OF_BYTES</property>
  <property name="meta.media.3.codec.name">ssa</property>
  <property name="meta.media.3.codec.long_name">ASS (Advanced SubStation Alpha) subtitle</property>
  <property name="meta.media.3.codec.bit_rate">0</property>
  <property name="meta.attr.3.stream.language.markup">eng</property>
  <property name="meta.attr.3.stream.title.markup">English (Full) ASS</property>
  <property name="meta.attr.3.stream.BPS-eng.markup">74</property>
  <property name="meta.attr.3.stream.DURATION-eng.markup">00:23:48.320000000</property>
  <property name="meta.attr.3.stream.NUMBER_OF_FRAMES-eng.markup">257</property>
  <property name="meta.attr.3.stream.NUMBER_OF_BYTES-eng.markup">13298</property>
  <property name="meta.attr.3.stream._STATISTICS_WRITING_APP-eng.markup">mkvmerge v52.0.0 ('Secret For The Mad') 64-bit</property>
  <property name="meta.attr.3.stream._STATISTICS_WRITING_DATE_UTC-eng.markup">2022-11-10 08:26:59</property>
  <property name="meta.attr.3.stream._STATISTICS_TAGS-eng.markup">BPS DURATION NUMBER_OF_FRAMES NUMBER_OF_BYTES</property>
  <property name="meta.media.4.codec.name">ssa</property>
  <property name="meta.media.4.codec.long_name">ASS (Advanced SubStation Alpha) subtitle</property>
  <property name="meta.media.4.codec.bit_rate">0</property>
  <property name="meta.attr.4.stream.language.markup">eng</property>
  <property name="meta.attr.4.stream.title.markup">English (Titles &amp; Signs) ASS</property>
  <property name="meta.attr.4.stream.BPS-eng.markup">1</property>
  <property name="meta.attr.4.stream.DURATION-eng.markup">00:21:23.490000000</property>
  <property name="meta.attr.4.stream.NUMBER_OF_FRAMES-eng.markup">3</property>
  <property name="meta.attr.4.stream.NUMBER_OF_BYTES-eng.markup">190</property>
  <property name="meta.attr.4.stream._STATISTICS_WRITING_APP-eng.markup">mkvmerge v52.0.0 ('Secret For The Mad') 64-bit</property>
  <property name="meta.attr.4.stream._STATISTICS_WRITING_DATE_UTC-eng.markup">2022-11-10 08:26:59</property>
  <property name="meta.attr.4.stream._STATISTICS_TAGS-eng.markup">BPS DURATION NUMBER_OF_FRAMES NUMBER_OF_BYTES</property>
  <property name="meta.media.5.codec.name">ssa</property>
  <property name="meta.media.5.codec.long_name">ASS (Advanced SubStation Alpha) subtitle</property>
  <property name="meta.media.5.codec.bit_rate">0</property>
  <property name="meta.attr.5.stream.language.markup">ara</property>
  <property name="meta.attr.5.stream.title.markup">Arabic</property>
  <property name="meta.attr.5.stream.BPS-eng.markup">101</property>
  <property name="meta.attr.5.stream.DURATION-eng.markup">00:22:09.320000000</property>
  <property name="meta.attr.5.stream.NUMBER_OF_FRAMES-eng.markup">280</property>
  <property name="meta.attr.5.stream.NUMBER_OF_BYTES-eng.markup">16903</property>
  <property name="meta.attr.5.stream._STATISTICS_WRITING_APP-eng.markup">mkvmerge v52.0.0 ('Secret For The Mad') 64-bit</property>
  <property name="meta.attr.5.stream._STATISTICS_WRITING_DATE_UTC-eng.markup">2022-11-10 08:26:59</property>
  <property name="meta.attr.5.stream._STATISTICS_TAGS-eng.markup">BPS DURATION NUMBER_OF_FRAMES NUMBER_OF_BYTES</property>
  <property name="meta.media.6.stream.type">video</property>
  <property name="meta.media.6.stream.frame_rate">23.976</property>
  <property name="meta.media.6.stream.sample_aspect_ratio">1</property>
  <property name="meta.media.6.codec.width">1440</property>
  <property name="meta.media.6.codec.height">1080</property>
  <property name="meta.media.6.codec.rotate">0</property>
  <property name="meta.media.6.codec.pix_fmt">yuv420p10le</property>
  <property name="meta.media.6.codec.sample_aspect_ratio">1</property>
  <property name="meta.media.6.codec.colorspace">709</property>
  <property name="meta.media.6.codec.color_trc">1</property>
  <property name="meta.media.6.codec.name">hevc</property>
  <property name="meta.media.6.codec.long_name">HEVC (High Efficiency Video Coding)</property>
  <property name="meta.media.6.codec.bit_rate">0</property>
  <property name="meta.attr.6.stream.BPS-eng.markup">2108560</property>
  <property name="meta.attr.6.stream.DURATION-eng.markup">00:24:09.615000000</property>
  <property name="meta.attr.6.stream.NUMBER_OF_FRAMES-eng.markup">34756</property>
  <property name="meta.attr.6.stream.NUMBER_OF_BYTES-eng.markup">382075037</property>
  <property name="meta.attr.6.stream._STATISTICS_WRITING_APP-eng.markup">mkvmerge v52.0.0 ('Secret For The Mad') 64-bit</property>
  <property name="meta.attr.6.stream._STATISTICS_WRITING_DATE_UTC-eng.markup">2022-11-10 08:26:59</property>
  <property name="meta.attr.6.stream._STATISTICS_TAGS-eng.markup">BPS DURATION NUMBER_OF_FRAMES NUMBER_OF_BYTES</property>
  <property name="meta.media.7.stream.type">audio</property>
  <property name="meta.media.7.codec.sample_fmt">fltp</property>
  <property name="meta.media.7.codec.sample_rate">48000</property>
  <property name="meta.media.7.codec.channels">2</property>
  <property name="meta.media.7.codec.name">ac3</property>
  <property name="meta.media.7.codec.long_name">ATSC A/52A (AC-3)</property>
  <property name="meta.media.7.codec.bit_rate">0</property>
  <property name="meta.attr.7.stream.language.markup">jpn</property>
  <property name="meta.attr.7.stream.title.markup">Japanese DVD AC-3 DD_2.0</property>
  <property name="meta.attr.7.stream.BPS-eng.markup">448000</property>
  <property name="meta.attr.7.stream.DURATION-eng.markup">00:24:09.536000000</property>
  <property name="meta.attr.7.stream.NUMBER_OF_FRAMES-eng.markup">45298</property>
  <property name="meta.attr.7.stream.NUMBER_OF_BYTES-eng.markup">81174016</property>
  <property name="meta.attr.7.stream._STATISTICS_WRITING_APP-eng.markup">mkvmerge v52.0.0 ('Secret For The Mad') 64-bit</property>
  <property name="meta.attr.7.stream._STATISTICS_WRITING_DATE_UTC-eng.markup">2022-11-10 08:26:59</property>
  <property name="meta.attr.7.stream._STATISTICS_TAGS-eng.markup">BPS DURATION NUMBER_OF_FRAMES NUMBER_OF_BYTES</property>
  <property name="meta.media.8.stream.type">audio</property>
  <property name="meta.media.8.codec.sample_fmt">fltp</property>
  <property name="meta.media.8.codec.sample_rate">44100</property>
  <property name="meta.media.8.codec.channels">2</property>
  <property name="meta.media.8.codec.name">aac</property>
  <property name="meta.media.8.codec.long_name">AAC (Advanced Audio Coding)</property>
  <property name="meta.media.8.codec.bit_rate">0</property>
  <property name="meta.attr.8.stream.language.markup">eng</property>
  <property name="meta.attr.8.stream.title.markup">English AAC DD_2.0</property>
  <property name="meta.attr.8.stream.BPS-eng.markup">146545</property>
  <property name="meta.attr.8.stream.DURATION-eng.markup">00:23:54.831000000</property>
  <property name="meta.attr.8.stream.NUMBER_OF_FRAMES-eng.markup">61793</property>
  <property name="meta.attr.8.stream.NUMBER_OF_BYTES-eng.markup">26283445</property>
  <property name="meta.attr.8.stream._STATISTICS_WRITING_APP-eng.markup">mkvmerge v52.0.0 ('Secret For The Mad') 64-bit</property>
  <property name="meta.attr.8.stream._STATISTICS_WRITING_DATE_UTC-eng.markup">2022-11-10 08:26:59</property>
  <property name="meta.attr.8.stream._STATISTICS_TAGS-eng.markup">BPS DURATION NUMBER_OF_FRAMES NUMBER_OF_BYTES</property>
  <property name="meta.media.9.codec.name">ssa</property>
  <property name="meta.media.9.codec.long_name">ASS (Advanced SubStation Alpha) subtitle</property>
  <property name="meta.media.9.codec.bit_rate">0</property>
  <property name="meta.attr.9.stream.language.markup">eng</property>
  <property name="meta.attr.9.stream.title.markup">English (Full) ASS</property>
  <property name="meta.attr.9.stream.BPS-eng.markup">74</property>
  <property name="meta.attr.9.stream.DURATION-eng.markup">00:23:48.320000000</property>
  <property name="meta.attr.9.stream.NUMBER_OF_FRAMES-eng.markup">257</property>
  <property name="meta.attr.9.stream.NUMBER_OF_BYTES-eng.markup">13298</property>
  <property name="meta.attr.9.stream._STATISTICS_WRITING_APP-eng.markup">mkvmerge v52.0.0 ('Secret For The Mad') 64-bit</property>
  <property name="meta.attr.9.stream._STATISTICS_WRITING_DATE_UTC-eng.markup">2022-11-10 08:26:59</property>
  <property name="meta.attr.9.stream._STATISTICS_TAGS-eng.markup">BPS DURATION NUMBER_OF_FRAMES NUMBER_OF_BYTES</property>
  <property name="meta.media.10.codec.name">ssa</property>
  <property name="meta.media.10.codec.long_name">ASS (Advanced SubStation Alpha) subtitle</property>
  <property name="meta.media.10.codec.bit_rate">0</property>
  <property name="meta.attr.10.stream.language.markup">eng</property>
  <property name="meta.attr.10.stream.title.markup">English (Titles &amp; Signs) ASS</property>
  <property name="meta.attr.10.stream.BPS-eng.markup">1</property>
  <property name="meta.attr.10.stream.DURATION-eng.markup">00:21:23.490000000</property>
  <property name="meta.attr.10.stream.NUMBER_OF_FRAMES-eng.markup">3</property>
  <property name="meta.attr.10.stream.NUMBER_OF_BYTES-eng.markup">190</property>
  <property name="meta.attr.10.stream._STATISTICS_WRITING_APP-eng.markup">mkvmerge v52.0.0 ('Secret For The Mad') 64-bit</property>
  <property name="meta.attr.10.stream._STATISTICS_WRITING_DATE_UTC-eng.markup">2022-11-10 08:26:59</property>
  <property name="meta.attr.10.stream._STATISTICS_TAGS-eng.markup">BPS DURATION NUMBER_OF_FRAMES NUMBER_OF_BYTES</property>
  <property name="meta.media.11.codec.name">ssa</property>
  <property name="meta.media.11.codec.long_name">ASS (Advanced SubStation Alpha) subtitle</property>
  <property name="meta.media.11.codec.bit_rate">0</property>
  <property name="meta.attr.11.stream.language.markup">ara</property>
  <property name="meta.attr.11.stream.title.markup">Arabic</property>
  <property name="meta.attr.11.stream.BPS-eng.markup">101</property>
  <property name="meta.attr.11.stream.DURATION-eng.markup">00:22:09.320000000</property>
  <property name="meta.attr.11.stream.NUMBER_OF_FRAMES-eng.markup">280</property>
  <property name="meta.attr.11.stream.NUMBER_OF_BYTES-eng.markup">16903</property>
  <property name="meta.attr.11.stream._STATISTICS_WRITING_APP-eng.markup">mkvmerge v52.0.0 ('Secret For The Mad') 64-bit</property>
  <property name="meta.attr.11.stream._STATISTICS_WRITING_DATE_UTC-eng.markup">2022-11-10 08:26:59</property>
  <property name="meta.attr.11.stream._STATISTICS_TAGS-eng.markup">BPS DURATION NUMBER_OF_FRAMES NUMBER_OF_BYTES</property>
  <property name="meta.attr.title.markup">Monster : Chapter 23 : Eva's Confession</property>
  <property name="meta.attr.encoder.markup">libebml v1.4.1 + libmatroska v1.6.2</property>
  <property name="meta.attr.creation_time.markup">2022-11-10T08:26:59.000000Z</property>
  <property name="seekable">1</property>
  <property name="meta.media.sample_aspect_num">1</property>
  <property name="meta.media.sample_aspect_den">1</property>
  <property name="format">3</property>
  <property name="audio_index">1</property>
  <property name="video_index">0</property>
  <property name="vstream">0</property>
  <property name="meta.media.frame_rate_num">24000</property>
  <property name="meta.media.frame_rate_den">1001</property>
  <property name="meta.media.colorspace">709</property>
  <property name="meta.media.color_trc">1</property>
  <property name="meta.media.has_b_frames">2</property>
  <property name="meta.media.width">1440</property>
  <property name="meta.media.height">1080</property>
  <property name="meta.media.color_range">mpeg</property>
  <property name="astream">0</property>
  <property name="meta.media.top_field_first">0</property>
  <property name="meta.media.progressive">1</property>
  <property name="kdenlive:folderid">-1</property>
  <property name="kdenlive:id">16</property>
  <property name="mute_on_pause">0</property>
  <property name="kdenlive:active_streams">1;2;7;8</property>
  <property name="kdenlive:clip_type">0</property>
  <property name="kdenlive:multistreams">1</property>
  <property name="kdenlive:file_size">894702572</property>
  <property name="kdenlive:file_hash">2e2c2aa2be08a3a2e1464704d5b35a7c</property>
  <property name="kdenlive:audio_max1">173</property>
  <property name="kdenlive:audio_max2">208</property>
  <property name="kdenlive:audio_max7">0</property>
  <property name="kdenlive:audio_max8">0</property>
 </chain>
 <producer id="producer0" in="00:00:00.000" out="01:39:56.556">
  <property name="length">2147483647</property>
  <property name="eof">continue</property>
  <property name="resource">black</property>
  <property name="aspect_ratio">1</property>
  <property name="mlt_service">color</property>
  <property name="kdenlive:playlistid">black_track</property>
  <property name="mlt_image_format">rgba</property>
  <property name="set.test_audio">0</property>
 </producer>
 <chain id="chain0" out="00:01:42.584">
  <property name="length">2460</property>
  <property name="eof">pause</property>
  <property name="resource">/mnt/data1/Anime-Edits/Monster/Monster-Editing/Monster [Ultimate Collection] By Kira [SEV]/Original Soundtracks [2004]/Monster - Original Soundtrack II [2004]/19 - WE'LL BE WAITING FOR THE NIGHT.flac</property>
  <property name="mlt_service">avformat-novalidate</property>
  <property name="seekable">1</property>
  <property name="format">3</property>
  <property name="audio_index">0</property>
  <property name="video_index">1</property>
  <property name="vstream">0</property>
  <property name="astream">0</property>
  <property name="kdenlive:folderid">-1</property>
  <property name="kdenlive:id">15</property>
  <property name="mute_on_pause">0</property>
  <property name="kdenlive:clip_type">0</property>
  <property name="kdenlive:file_size">10372367</property>
  <property name="kdenlive:file_hash">1b973091d4910ea19d52cc163f0056ad</property>
  <property name="kdenlive:audio_max0">233</property>
  <property name="meta.media.nb_streams">2</property>
  <property name="meta.media.0.stream.type">audio</property>
  <property name="meta.media.0.codec.sample_fmt">s16</property>
  <property name="meta.media.0.codec.sample_rate">44100</property>
  <property name="meta.media.0.codec.channels">2</property>
  <property name="meta.media.0.codec.name">flac</property>
  <property name="meta.media.0.codec.long_name">FLAC (Free Lossless Audio Codec)</property>
  <property name="meta.media.0.codec.bit_rate">0</property>
  <property name="meta.media.1.stream.type">video</property>
  <property name="meta.media.1.stream.frame_rate">90000</property>
  <property name="meta.media.1.stream.sample_aspect_ratio">0</property>
  <property name="meta.media.1.codec.width">1685</property>
  <property name="meta.media.1.codec.height">1475</property>
  <property name="meta.media.1.codec.rotate">0</property>
  <property name="meta.media.1.codec.pix_fmt">yuvj420p</property>
  <property name="meta.media.1.codec.sample_aspect_ratio">0</property>
  <property name="meta.media.1.codec.colorspace">601</property>
  <property name="meta.media.1.codec.name">mjpeg</property>
  <property name="meta.media.1.codec.long_name">MJPEG (Motion JPEG)</property>
  <property name="meta.media.1.codec.bit_rate">0</property>
  <property name="meta.attr.1.stream.comment.markup">Cover (front)</property>
  <property name="meta.attr.TITLE.markup">WE'LL BE WAITING FOR THE NIGHT</property>
  <property name="meta.attr.ARTIST.markup">Kuniaki Haishima</property>
  <property name="meta.attr.ALBUM.markup">Monster : Original Soundtrack II</property>
  <property name="meta.attr.DATE.markup">2004</property>
  <property name="meta.attr.GENRE.markup">Anime</property>
  <property name="meta.attr.COMPOSER.markup">Kuniaki Haishima</property>
  <property name="meta.attr.ORIGINALARTIST.markup">Kuniaki Haishima</property>
  <property name="meta.attr.ENCODEDBY.markup">Mr. J</property>
  <property name="meta.attr.track.markup">19/21</property>
  <property name="meta.attr.disc.markup">01/01</property>
  <property name="meta.attr.ORIGARTIST.markup">Kuniaki Haishima</property>
  <property name="meta.attr.ALBUM ARTIST.markup">Kuniaki Haishima</property>
  <property name="meta.attr.ARTISTSORT.markup">Kuniaki Haishima</property>
  <property name="meta.attr.ALBUMARTISTSORT.markup">Kuniaki Haishima</property>
  <property name="meta.attr.ALBUMSORT.markup">Monster : Original Soundtrack II</property>
  <property name="meta.attr.COMPOSERSORT.markup">Kuniaki Haishima</property>
  <property name="meta.attr.SHOWSORT.markup">Monster</property>
  <property name="meta.media.sample_aspect_num">1</property>
  <property name="meta.media.sample_aspect_den">1</property>
  <property name="meta.media.frame_rate_num">90000</property>
  <property name="meta.media.frame_rate_den">1</property>
  <property name="meta.media.colorspace">601</property>
  <property name="meta.media.color_trc">2</property>
  <property name="meta.media.has_b_frames">0</property>
  <property name="meta.media.width">1685</property>
  <property name="meta.media.height">1475</property>
  <property name="meta.media.color_range">full</property>
  <property name="xml">was here</property>
  <property name="meta.media.top_field_first">0</property>
  <property name="meta.media.progressive">1</property>
  <property name="set.test_audio">0</property>
  <property name="set.test_image">1</property>
 </chain>
 <playlist id="playlist0">
  <property name="kdenlive:audio_track">1</property>
  <blank length="01:08:46.255"/>
  <entry producer="chain0" in="00:00:00.000" out="00:01:42.584">
   <property name="kdenlive:id">15</property>
   <filter id="filter0">
    <property name="mlt_service">rbpitch</property>
    <property name="kdenlive_id">rboctaveshift</property>
    <property name="octaveshift">-2</property>
    <property name="stretch">0</property>
    <property name="latency">89.1667</property>
    <property name="kdenlive:collapsed">0</property>
   </filter>
   <filter id="filter1">
    <property name="window">75</property>
    <property name="max_gain">20dB</property>
    <property name="mlt_service">volume</property>
    <property name="kdenlive_id">gain</property>
    <property name="gain">0.4</property>
    <property name="kdenlive:collapsed">0</property>
   </filter>
   <filter id="filter2" out="00:00:00.417">
    <property name="window">75</property>
    <property name="max_gain">20dB</property>
    <property name="mlt_service">volume</property>
    <property name="kdenlive_id">fadein</property>
    <property name="gain">0</property>
    <property name="end">1</property>
    <property name="kdenlive:collapsed">0</property>
   </filter>
  </entry>
 </playlist>
 <playlist id="playlist1">
  <property name="kdenlive:audio_track">1</property>
 </playlist>
 <tractor id="tractor0" in="00:00:00.000" out="01:10:28.820">
  <property name="kdenlive:audio_track">1</property>
  <property name="kdenlive:trackheight">67</property>
  <property name="kdenlive:timeline_active">1</property>
  <property name="kdenlive:collapsed">0</property>
  <property name="kdenlive:thumbs_format"/>
  <property name="kdenlive:audio_rec"/>
  <track hide="video" producer="playlist0"/>
  <track hide="video" producer="playlist1"/>
  <filter id="filter3">
   <property name="window">75</property>
   <property name="max_gain">20dB</property>
   <property name="mlt_service">volume</property>
   <property name="internal_added">237</property>
   <property name="disable">1</property>
  </filter>
  <filter id="filter4">
   <property name="channel">-1</property>
   <property name="mlt_service">panner</property>
   <property name="internal_added">237</property>
   <property name="start">0.5</property>
   <property name="disable">1</property>
  </filter>
  <filter id="filter5">
   <property name="iec_scale">0</property>
   <property name="mlt_service">audiolevel</property>
   <property name="dbpeak">1</property>
   <property name="disable">1</property>
  </filter>
 </tractor>
 <chain id="chain1" out="00:23:54.763">
  <property name="length">34400</property>
  <property name="eof">pause</property>
  <property name="resource">/mnt/data1/Anime-Edits/Monster/Monster-Editing/Audio/deu/Ep01.wav</property>
  <property name="mlt_service">avformat-novalidate</property>
  <property name="seekable">1</property>
  <property name="audio_index">0</property>
  <property name="video_index">-1</property>
  <property name="astream">0</property>
  <property name="kdenlive:proxy">-</property>
  <property name="kdenlive:originalurl">/mnt/data1/Anime-Edits/Monster/Monster-Editing/Audio/deu/Ep01.wav</property>
  <property name="kdenlive:id">3</property>
  <property name="kdenlive:clip_type">1</property>
  <property name="kdenlive:file_size">826429542</property>
  <property name="kdenlive:file_hash">16553f264094f894a5a3420012d139f5</property>
  <property name="kdenlive:folderid">-1</property>
  <property name="meta.media.nb_streams">1</property>
  <property name="meta.media.0.stream.type">audio</property>
  <property name="meta.media.0.codec.sample_fmt">s16</property>
  <property name="meta.media.0.codec.sample_rate">48000</property>
  <property name="meta.media.0.codec.channels">6</property>
  <property name="meta.media.0.codec.name">pcm_s16le</property>
  <property name="meta.media.0.codec.long_name">PCM signed 16-bit little-endian</property>
  <property name="meta.media.0.codec.bit_rate">4608000</property>
  <property name="meta.attr.encoder.markup">Lavf60.16.100</property>
  <property name="xml">was here</property>
  <property name="mute_on_pause">0</property>
  <property name="set.test_audio">0</property>
  <property name="set.test_image">1</property>
 </chain>
 <chain id="chain2" out="00:03:11.220">
  <property name="length">4585</property>
  <property name="eof">pause</property>
  <property name="resource">/mnt/data1/Anime-Edits/Monster/Monster-Editing/Monster [Ultimate Collection] By Kira [SEV]/Original Soundtracks [2004]/Monster - Original Soundtrack II [2004]/11 - YOU ARE THE MOVE YOU MAKE.flac</property>
  <property name="mlt_service">avformat-novalidate</property>
  <property name="seekable">1</property>
  <property name="format">3</property>
  <property name="audio_index">0</property>
  <property name="video_index">1</property>
  <property name="vstream">0</property>
  <property name="astream">0</property>
  <property name="kdenlive:folderid">-1</property>
  <property name="kdenlive:id">14</property>
  <property name="mute_on_pause">0</property>
  <property name="kdenlive:clip_type">0</property>
  <property name="kdenlive:file_size">17604901</property>
  <property name="kdenlive:file_hash">269198fac804b8458883ff9cf283ba66</property>
  <property name="kdenlive:audio_max0">224</property>
  <property name="meta.media.nb_streams">2</property>
  <property name="meta.media.0.stream.type">audio</property>
  <property name="meta.media.0.codec.sample_fmt">s16</property>
  <property name="meta.media.0.codec.sample_rate">44100</property>
  <property name="meta.media.0.codec.channels">2</property>
  <property name="meta.media.0.codec.name">flac</property>
  <property name="meta.media.0.codec.long_name">FLAC (Free Lossless Audio Codec)</property>
  <property name="meta.media.0.codec.bit_rate">0</property>
  <property name="meta.media.1.stream.type">video</property>
  <property name="meta.media.1.stream.frame_rate">90000</property>
  <property name="meta.media.1.stream.sample_aspect_ratio">0</property>
  <property name="meta.media.1.codec.width">1685</property>
  <property name="meta.media.1.codec.height">1475</property>
  <property name="meta.media.1.codec.rotate">0</property>
  <property name="meta.media.1.codec.pix_fmt">yuvj420p</property>
  <property name="meta.media.1.codec.sample_aspect_ratio">0</property>
  <property name="meta.media.1.codec.colorspace">601</property>
  <property name="meta.media.1.codec.name">mjpeg</property>
  <property name="meta.media.1.codec.long_name">MJPEG (Motion JPEG)</property>
  <property name="meta.media.1.codec.bit_rate">0</property>
  <property name="meta.attr.1.stream.comment.markup">Cover (front)</property>
  <property name="meta.attr.TITLE.markup">YOU ARE THE MOVE YOU MAKE</property>
  <property name="meta.attr.ARTIST.markup">Kuniaki Haishima</property>
  <property name="meta.attr.ALBUM.markup">Monster : Original Soundtrack II</property>
  <property name="meta.attr.DATE.markup">2004</property>
  <property name="meta.attr.GENRE.markup">Anime</property>
  <property name="meta.attr.COMPOSER.markup">Kuniaki Haishima</property>
  <property name="meta.attr.ORIGINALARTIST.markup">Kuniaki Haishima</property>
  <property name="meta.attr.ENCODEDBY.markup">Mr. J</property>
  <property name="meta.attr.track.markup">11/21</property>
  <property name="meta.attr.disc.markup">01/01</property>
  <property name="meta.attr.ORIGARTIST.markup">Kuniaki Haishima</property>
  <property name="meta.attr.ALBUM ARTIST.markup">Kuniaki Haishima</property>
  <property name="meta.attr.ARTISTSORT.markup">Kuniaki Haishima</property>
  <property name="meta.attr.ALBUMARTISTSORT.markup">Kuniaki Haishima</property>
  <property name="meta.attr.ALBUMSORT.markup">Monster : Original Soundtrack II</property>
  <property name="meta.attr.COMPOSERSORT.markup">Kuniaki Haishima</property>
  <property name="meta.attr.SHOWSORT.markup">Monster</property>
  <property name="meta.media.sample_aspect_num">1</property>
  <property name="meta.media.sample_aspect_den">1</property>
  <property name="meta.media.frame_rate_num">90000</property>
  <property name="meta.media.frame_rate_den">1</property>
  <property name="meta.media.colorspace">601</property>
  <property name="meta.media.color_trc">2</property>
  <property name="meta.media.has_b_frames">0</property>
  <property name="meta.media.width">1685</property>
  <property name="meta.media.height">1475</property>
  <property name="meta.media.color_range">full</property>
  <property name="xml">was here</property>
  <property name="meta.media.top_field_first">0</property>
  <property name="meta.media.progressive">1</property>
  <property name="set.test_audio">0</property>
  <property name="set.test_image">1</property>
 </chain>
 <chain id="chain3" out="00:23:55.472">
  <property name="length">34417</property>
  <property name="eof">pause</property>
  <property name="resource">/mnt/data1/Anime-Edits/Monster/Monster-Editing/Audio/deu/Ep02.wav</property>
  <property name="mlt_service">avformat-novalidate</property>
  <property name="seekable">1</property>
  <property name="audio_index">0</property>
  <property name="video_index">-1</property>
  <property name="astream">0</property>
  <property name="kdenlive:proxy">-</property>
  <property name="kdenlive:originalurl">/mnt/data1/Anime-Edits/Monster/Monster-Editing/Audio/deu/Ep02.wav</property>
  <property name="kdenlive:id">5</property>
  <property name="kdenlive:clip_type">1</property>
  <property name="kdenlive:file_size">826835046</property>
  <property name="kdenlive:file_hash">9e108862dd10c0ea3686eaad255d53ba</property>
  <property name="kdenlive:folderid">-1</property>
  <property name="meta.media.nb_streams">1</property>
  <property name="meta.media.0.stream.type">audio</property>
  <property name="meta.media.0.codec.sample_fmt">s16</property>
  <property name="meta.media.0.codec.sample_rate">48000</property>
  <property name="meta.media.0.codec.channels">6</property>
  <property name="meta.media.0.codec.name">pcm_s16le</property>
  <property name="meta.media.0.codec.long_name">PCM signed 16-bit little-endian</property>
  <property name="meta.media.0.codec.bit_rate">4608000</property>
  <property name="meta.attr.encoder.markup">Lavf60.16.100</property>
  <property name="xml">was here</property>
  <property name="mute_on_pause">0</property>
  <property name="set.test_audio">0</property>
  <property name="set.test_image">1</property>
 </chain>
 <chain id="chain4" out="00:23:55.430">
  <property name="length">34416</property>
  <property name="eof">pause</property>
  <property name="resource">/mnt/data1/Anime-Edits/Monster/Monster-Editing/Audio/deu/Ep03.wav</property>
  <property name="mlt_service">avformat-novalidate</property>
  <property name="seekable">1</property>
  <property name="audio_index">0</property>
  <property name="video_index">-1</property>
  <property name="astream">0</property>
  <property name="kdenlive:proxy">-</property>
  <property name="kdenlive:originalurl">/mnt/data1/Anime-Edits/Monster/Monster-Editing/Audio/deu/Ep03.wav</property>
  <property name="kdenlive:id">7</property>
  <property name="kdenlive:clip_type">1</property>
  <property name="kdenlive:file_size">826810470</property>
  <property name="kdenlive:file_hash">442a79859f5dab034c4d570fbdc91045</property>
  <property name="kdenlive:folderid">-1</property>
  <property name="meta.media.nb_streams">1</property>
  <property name="meta.media.0.stream.type">audio</property>
  <property name="meta.media.0.codec.sample_fmt">s16</property>
  <property name="meta.media.0.codec.sample_rate">48000</property>
  <property name="meta.media.0.codec.channels">6</property>
  <property name="meta.media.0.codec.name">pcm_s16le</property>
  <property name="meta.media.0.codec.long_name">PCM signed 16-bit little-endian</property>
  <property name="meta.media.0.codec.bit_rate">4608000</property>
  <property name="meta.attr.encoder.markup">Lavf60.16.100</property>
  <property name="xml">was here</property>
  <property name="mute_on_pause">0</property>
  <property name="set.test_audio">0</property>
  <property name="set.test_image">1</property>
 </chain>
 <chain id="chain5" out="00:23:55.430">
  <property name="length">34416</property>
  <property name="eof">pause</property>
  <property name="resource">/mnt/data1/Anime-Edits/Monster/Monster-Editing/Audio/deu/Ep04.wav</property>
  <property name="mlt_service">avformat-novalidate</property>
  <property name="seekable">1</property>
  <property name="audio_index">0</property>
  <property name="video_index">-1</property>
  <property name="astream">0</property>
  <property name="kdenlive:proxy">-</property>
  <property name="kdenlive:originalurl">/mnt/data1/Anime-Edits/Monster/Monster-Editing/Audio/deu/Ep04.wav</property>
  <property name="kdenlive:id">9</property>
  <property name="kdenlive:clip_type">1</property>
  <property name="kdenlive:file_size">826810470</property>
  <property name="kdenlive:file_hash">b2c1ce13b0c9ad25f9c7fd56036d7b06</property>
  <property name="kdenlive:folderid">-1</property>
  <property name="meta.media.nb_streams">1</property>
  <property name="meta.media.0.stream.type">audio</property>
  <property name="meta.media.0.codec.sample_fmt">s16</property>
  <property name="meta.media.0.codec.sample_rate">48000</property>
  <property name="meta.media.0.codec.channels">6</property>
  <property name="meta.media.0.codec.name">pcm_s16le</property>
  <property name="meta.media.0.codec.long_name">PCM signed 16-bit little-endian</property>
  <property name="meta.media.0.codec.bit_rate">4608000</property>
  <property name="meta.attr.encoder.markup">Lavf60.16.100</property>
  <property name="xml">was here</property>
  <property name="mute_on_pause">0</property>
  <property name="set.test_audio">0</property>
  <property name="set.test_image">1</property>
 </chain>
 <playlist id="playlist2">
  <property name="kdenlive:audio_track">1</property>
  <blank length="00:05:49.174"/>
  <entry producer="chain1" in="00:07:37.537" out="00:08:04.796">
   <property name="kdenlive:id">3</property>
   <filter id="filter6" in="00:08:04.546" out="00:08:04.796">
    <property name="window">75</property>
    <property name="max_gain">20dB</property>
    <property name="mlt_service">volume</property>
    <property name="kdenlive_id">fadeout</property>
    <property name="gain">1</property>
    <property name="end">0</property>
    <property name="kdenlive:collapsed">0</property>
   </filter>
   <filter id="filter7" in="00:07:37.537" out="00:07:38.205">
    <property name="window">75</property>
    <property name="max_gain">20dB</property>
    <property name="mlt_service">volume</property>
    <property name="kdenlive_id">fadein</property>
    <property name="gain">0</property>
    <property name="end">1</property>
    <property name="kdenlive:collapsed">0</property>
   </filter>
  </entry>
  <blank length="00:00:43.377"/>
  <entry producer="chain1" in="00:18:13.055" out="00:18:14.181">
   <property name="kdenlive:id">3</property>
   <filter id="filter8" in="00:18:13.931" out="00:18:14.181">
    <property name="window">75</property>
    <property name="max_gain">20dB</property>
    <property name="mlt_service">volume</property>
    <property name="kdenlive_id">fadeout</property>
    <property name="gain">1</property>
    <property name="end">0</property>
    <property name="kdenlive:collapsed">0</property>
   </filter>
   <filter id="filter9" in="00:18:13.055" out="00:18:13.263">
    <property name="window">75</property>
    <property name="max_gain">20dB</property>
    <property name="mlt_service">volume</property>
    <property name="kdenlive_id">fadein</property>
    <property name="gain">0</property>
    <property name="end">1</property>
    <property name="kdenlive:collapsed">0</property>
   </filter>
   <filter id="filter10">
    <property name="channel">3</property>
    <property name="split">0</property>
    <property name="mlt_service">panner</property>
    <property name="kdenlive_id">panner</property>
    <property name="start (*deprecated*)">0</property>
    <property name="end (*deprecated*)">0</property>
    <property name="gang">0</property>
    <property name="kdenlive:collapsed">0</property>
   </filter>
   <filter id="filter11">
    <property name="window">75</property>
    <property name="max_gain">20dB</property>
    <property name="mlt_service">volume</property>
    <property name="kdenlive_id">gain</property>
    <property name="gain">0.5</property>
    <property name="kdenlive:collapsed">0</property>
   </filter>
  </entry>
  <blank length="00:01:14.681"/>
  <entry producer="chain1" in="00:10:17.601" out="00:10:21.813">
   <property name="kdenlive:id">3</property>
   <filter id="filter12">
    <property name="window">75</property>
    <property name="max_gain">20dB</property>
    <property name="level">00:10:17.601=-35.1576;00:10:19.436~=-0.312803;00:10:21.271~=0;00:10:21.813~=-18.7722</property>
    <property name="mlt_service">volume</property>
    <property name="kdenlive_id">volume</property>
    <property name="kdenlive:collapsed">0</property>
   </filter>
  </entry>
  <blank length="00:00:01.835"/>
  <entry producer="chain1" in="00:10:25.192" out="00:10:26.735">
   <property name="kdenlive:id">3</property>
   <filter id="filter14" in="00:10:26.318" out="00:10:26.735">
    <property name="window">75</property>
    <property name="max_gain">20dB</property>
    <property name="mlt_service">volume</property>
    <property name="kdenlive_id">fadeout</property>
    <property name="gain">1</property>
    <property name="end">0</property>
    <property name="kdenlive:collapsed">0</property>
   </filter>
   <filter id="filter15" in="00:10:25.192" out="00:10:25.567">
    <property name="window">75</property>
    <property name="max_gain">20dB</property>
    <property name="mlt_service">volume</property>
    <property name="kdenlive_id">fadein</property>
    <property name="gain">0</property>
    <property name="end">1</property>
    <property name="kdenlive:collapsed">0</property>
   </filter>
  </entry>
  <blank length="00:00:03.879"/>
  <entry producer="chain1" in="00:10:47.756" out="00:11:26.526">
   <property name="kdenlive:id">3</property>
   <filter id="filter13">
    <property name="window">75</property>
    <property name="max_gain">20dB</property>
    <property name="level">00:10:47.756=-18.7722;00:10:51.218~=0;00:11:25.984~=-0.0501267;00:11:26.485~=-13.7214</property>
    <property name="mlt_service">volume</property>
    <property name="kdenlive_id">volume</property>
    <property name="kdenlive:collapsed">0</property>
   </filter>
  </entry>
  <blank length="00:00:54.805"/>
  <entry producer="chain1" in="00:12:44.753" out="00:13:16.433">
   <property name="kdenlive:id">3</property>
   <filter id="filter18" in="00:13:16.183" out="00:13:16.475">
    <property name="window">75</property>
    <property name="max_gain">20dB</property>
    <property name="mlt_service">volume</property>
    <property name="kdenlive_id">fadeout</property>
    <property name="gain">1</property>
    <property name="end">0</property>
    <property name="kdenlive:collapsed">0</property>
   </filter>
  </entry>
  <blank length="00:03:56.139"/>
  <entry producer="chain1" in="00:17:14.681" out="00:17:19.895">
   <property name="kdenlive:id">3</property>
   <filter id="filter20" in="00:17:14.681" out="00:17:14.932">
    <property name="window">75</property>
    <property name="max_gain">20dB</property>
    <property name="mlt_service">volume</property>
    <property name="kdenlive_id">fadein</property>
    <property name="gain">0</property>
    <property name="end">1</property>
    <property name="kdenlive:collapsed">0</property>
   </filter>
  </entry>
  <blank length="00:14:59.685"/>
  <entry producer="chain2" in="00:00:07.633" out="00:01:31.990">
   <property name="kdenlive:id">14</property>
   <filter id="filter21">
    <property name="window">75</property>
    <property name="max_gain">20dB</property>
    <property name="mlt_service">volume</property>
    <property name="kdenlive_id">gain</property>
    <property name="gain">0.16</property>
    <property name="kdenlive:collapsed">0</property>
   </filter>
   <filter id="filter22">
    <property name="mlt_service">rbpitch</property>
    <property name="kdenlive_id">rboctaveshift</property>
    <property name="octaveshift">-1</property>
    <property name="stretch">0</property>
    <property name="latency">89.7083</property>
    <property name="kdenlive:collapsed">0</property>
   </filter>
   <filter id="filter23" in="00:00:07.633" out="00:00:31.490">
    <property name="window">75</property>
    <property name="max_gain">20dB</property>
    <property name="mlt_service">volume</property>
    <property name="kdenlive_id">fadein</property>
    <property name="gain">0</property>
    <property name="end">1</property>
    <property name="kdenlive:collapsed">0</property>
   </filter>
   <filter id="filter24" in="00:01:13.722" out="00:01:31.990">
    <property name="window">75</property>
    <property name="max_gain">20dB</property>
    <property name="mlt_service">volume</property>
    <property name="kdenlive_id">fadeout</property>
    <property name="gain">1</property>
    <property name="end">0</property>
    <property name="kdenlive:collapsed">0</property>
   </filter>
  </entry>
  <entry producer="chain3" in="00:14:19.353" out="00:14:24.316">
   <property name="kdenlive:id">5</property>
   <filter id="filter25" in="00:14:19.353" out="00:14:22.356">
    <property name="window">75</property>
    <property name="max_gain">20dB</property>
    <property name="mlt_service">volume</property>
    <property name="kdenlive_id">fadein</property>
    <property name="gain">0</property>
    <property name="end">1</property>
    <property name="kdenlive:collapsed">0</property>
   </filter>
   <filter id="filter26" in="00:14:21.313" out="00:14:24.316">
    <property name="window">75</property>
    <property name="max_gain">20dB</property>
    <property name="mlt_service">volume</property>
    <property name="kdenlive_id">fadeout</property>
    <property name="gain">1</property>
    <property name="end">0</property>
    <property name="kdenlive:collapsed">0</property>
   </filter>
  </entry>
  <blank length="00:07:03.629"/>
  <entry producer="chain3" in="00:21:44.836" out="00:21:48.173">
   <property name="kdenlive:id">5</property>
   <filter id="filter27" in="00:21:47.297" out="00:21:48.173">
    <property name="window">75</property>
    <property name="max_gain">20dB</property>
    <property name="mlt_service">volume</property>
    <property name="kdenlive_id">fadeout</property>
    <property name="gain">1</property>
    <property name="end">0</property>
    <property name="kdenlive:collapsed">0</property>
   </filter>
   <filter id="filter28" in="00:21:44.836" out="00:21:45.587">
    <property name="window">75</property>
    <property name="max_gain">20dB</property>
    <property name="mlt_service">volume</property>
    <property name="kdenlive_id">fadein</property>
    <property name="gain">0</property>
    <property name="end">1</property>
    <property name="kdenlive:collapsed">0</property>
   </filter>
  </entry>
  <blank length="00:06:10.886"/>
  <entry producer="chain4" in="00:07:47.756" out="00:10:31.448">
   <property name="kdenlive:id">7</property>
   <filter id="filter29" in="00:10:29.821" out="00:10:31.448">
    <property name="window">75</property>
    <property name="max_gain">20dB</property>
    <property name="mlt_service">volume</property>
    <property name="kdenlive_id">fadeout</property>
    <property name="gain">1</property>
    <property name="end">0</property>
    <property name="kdenlive:collapsed">0</property>
   </filter>
   <filter id="filter30" in="00:07:47.756" out="00:07:48.215">
    <property name="window">75</property>
    <property name="max_gain">20dB</property>
    <property name="mlt_service">volume</property>
    <property name="kdenlive_id">fadein</property>
    <property name="gain">0</property>
    <property name="end">1</property>
    <property name="kdenlive:collapsed">0</property>
   </filter>
  </entry>
  <blank length="00:12:01.752"/>
  <entry producer="chain5" in="00:03:08.050" out="00:07:20.854">
   <property name="kdenlive:id">9</property>
   <filter id="filter31" in="00:07:20.687" out="00:07:20.854">
    <property name="window">75</property>
    <property name="max_gain">20dB</property>
    <property name="mlt_service">volume</property>
    <property name="kdenlive_id">fadeout</property>
    <property name="gain">1</property>
    <property name="end">0</property>
    <property name="kdenlive:collapsed">0</property>
   </filter>
  </entry>
  <blank length="00:02:25.943"/>
  <entry producer="chain5" in="00:09:46.421" out="00:09:54.388">
   <property name="kdenlive:id">9</property>
   <filter id="filter32" in="00:09:46.713" out="00:09:54.388">
    <property name="window">75</property>
    <property name="max_gain">20dB</property>
    <property name="mlt_service">volume</property>
    <property name="kdenlive_id">fadeout</property>
    <property name="gain">1</property>
    <property name="end">0</property>
    <property name="kdenlive:collapsed">0</property>
   </filter>
   <filter id="filter33" in="00:09:46.421" out="00:09:46.797">
    <property name="window">75</property>
    <property name="max_gain">20dB</property>
    <property name="mlt_service">volume</property>
    <property name="kdenlive_id">fadein</property>
    <property name="gain">0</property>
    <property name="end">1</property>
    <property name="kdenlive:collapsed">0</property>
   </filter>
   <filter id="filter34">
    <property name="window">75</property>
    <property name="max_gain">20dB</property>
    <property name="mlt_service">volume</property>
    <property name="kdenlive_id">gain</property>
    <property name="gain">0.5</property>
    <property name="kdenlive:collapsed">0</property>
   </filter>
  </entry>
  <blank length="00:00:04.546"/>
  <entry producer="chain5" in="00:09:46.421" out="00:09:55.555">
   <property name="kdenlive:id">9</property>
   <filter id="filter35" in="00:09:52.719" out="00:09:55.555">
    <property name="window">75</property>
    <property name="max_gain">20dB</property>
    <property name="mlt_service">volume</property>
    <property name="kdenlive_id">fadeout</property>
    <property name="gain">1</property>
    <property name="end">0</property>
    <property name="kdenlive:collapsed">0</property>
   </filter>
   <filter id="filter36" in="00:09:46.421" out="00:09:46.797">
    <property name="window">75</property>
    <property name="max_gain">20dB</property>
    <property name="mlt_service">volume</property>
    <property name="kdenlive_id">fadein</property>
    <property name="gain">0</property>
    <property name="end">1</property>
    <property name="kdenlive:collapsed">0</property>
   </filter>
   <filter id="filter37">
    <property name="window">75</property>
    <property name="max_gain">20dB</property>
    <property name="mlt_service">volume</property>
    <property name="kdenlive_id">gain</property>
    <property name="gain">0.5</property>
    <property name="kdenlive:collapsed">0</property>
   </filter>
  </entry>
  <blank length="00:00:05.088"/>
  <entry producer="chain5" in="00:09:46.421" out="00:09:53.428">
   <property name="kdenlive:id">9</property>
   <filter id="filter38" in="00:09:51.051" out="00:09:53.428">
    <property name="window">75</property>
    <property name="max_gain">20dB</property>
    <property name="mlt_service">volume</property>
    <property name="kdenlive_id">fadeout</property>
    <property name="gain">1</property>
    <property name="end">0</property>
    <property name="kdenlive:collapsed">0</property>
   </filter>
   <filter id="filter39" in="00:09:46.421" out="00:09:46.797">
    <property name="window">75</property>
    <property name="max_gain">20dB</property>
    <property name="mlt_service">volume</property>
    <property name="kdenlive_id">fadein</property>
    <property name="gain">0</property>
    <property name="end">1</property>
    <property name="kdenlive:collapsed">0</property>
   </filter>
   <filter id="filter40">
    <property name="window">75</property>
    <property name="max_gain">20dB</property>
    <property name="mlt_service">volume</property>
    <property name="kdenlive_id">gain</property>
    <property name="gain">0.5</property>
    <property name="kdenlive:collapsed">0</property>
   </filter>
  </entry>
  <blank length="00:03:10.302"/>
  <entry producer="chain5" in="00:13:11.386" out="00:13:40.749">
   <property name="kdenlive:id">9</property>
   <filter id="filter41" in="00:13:39.790" out="00:13:40.749">
    <property name="window">75</property>
    <property name="max_gain">20dB</property>
    <property name="mlt_service">volume</property>
    <property name="kdenlive_id">fadeout</property>
    <property name="gain">1</property>
    <property name="end">0</property>
    <property name="kdenlive:collapsed">0</property>
   </filter>
   <filter id="filter42" in="00:13:11.386" out="00:13:12.054">
    <property name="window">75</property>
    <property name="max_gain">20dB</property>
    <property name="mlt_service">volume</property>
    <property name="kdenlive_id">fadein</property>
    <property name="gain">0</property>
    <property name="end">1</property>
   </filter>
  </entry>
  <blank length="00:01:04.463"/>
  <entry producer="chain5" in="00:15:20.729" out="00:15:30.280">
   <property name="kdenlive:id">9</property>
   <filter id="filter43" in="00:15:29.238" out="00:15:30.280">
    <property name="window">75</property>
    <property name="max_gain">20dB</property>
    <property name="mlt_service">volume</property>
    <property name="kdenlive_id">fadeout</property>
    <property name="gain">1</property>
    <property name="end">0</property>
    <property name="kdenlive:collapsed">0</property>
   </filter>
   <filter id="filter44" in="00:15:20.729" out="00:15:20.896">
    <property name="window">75</property>
    <property name="max_gain">20dB</property>
    <property name="mlt_service">volume</property>
    <property name="kdenlive_id">fadein</property>
    <property name="gain">0</property>
    <property name="end">1</property>
   </filter>
  </entry>
  <blank length="00:02:26.652"/>
  <entry producer="chain5" in="00:18:18.227" out="00:18:21.313">
   <property name="kdenlive:id">9</property>
   <filter id="filter45" in="00:18:18.227" out="00:18:20.187">
    <property name="window">75</property>
    <property name="max_gain">20dB</property>
    <property name="mlt_service">volume</property>
    <property name="kdenlive_id">fadein</property>
    <property name="gain">0</property>
    <property name="end">1</property>
    <property name="kdenlive:collapsed">0</property>
   </filter>
   <filter id="filter46" in="00:18:19.061" out="00:18:21.313">
    <property name="window">75</property>
    <property name="max_gain">20dB</property>
    <property name="mlt_service">volume</property>
    <property name="kdenlive_id">fadeout</property>
    <property name="gain">1</property>
    <property name="end">0</property>
    <property name="kdenlive:collapsed">0</property>
   </filter>
   <filter id="filter47">
    <property name="window">75</property>
    <property name="max_gain">20dB</property>
    <property name="mlt_service">volume</property>
    <property name="kdenlive_id">gain</property>
    <property name="gain">0.5</property>
    <property name="kdenlive:collapsed">0</property>
   </filter>
  </entry>
 </playlist>
 <playlist id="playlist3">
  <property name="kdenlive:audio_track">1</property>
 </playlist>
 <tractor id="tractor1" in="00:00:00.000" out="01:13:42.417">
  <property name="kdenlive:audio_track">1</property>
  <property name="kdenlive:trackheight">67</property>
  <property name="kdenlive:timeline_active">1</property>
  <property name="kdenlive:collapsed">0</property>
  <property name="kdenlive:thumbs_format"/>
  <property name="kdenlive:audio_rec"/>
  <track hide="video" producer="playlist2"/>
  <track hide="video" producer="playlist3"/>
  <filter id="filter48">
   <property name="window">75</property>
   <property name="max_gain">20dB</property>
   <property name="mlt_service">volume</property>
   <property name="internal_added">237</property>
   <property name="disable">1</property>
  </filter>
  <filter id="filter49">
   <property name="channel">-1</property>
   <property name="mlt_service">panner</property>
   <property name="internal_added">237</property>
   <property name="start">0.5</property>
   <property name="disable">1</property>
  </filter>
  <filter id="filter16">
   <property name="iec_scale">0</property>
   <property name="mlt_service">audiolevel</property>
   <property name="dbpeak">1</property>
   <property name="disable">1</property>
  </filter>
 </tractor>
 <chain id="chain6" out="00:23:54.763">
  <property name="length">34400</property>
  <property name="eof">pause</property>
  <property name="resource">/mnt/data1/Anime-Edits/Monster/Monster-Editing/Audio/deu/Ep01.wav</property>
  <property name="mlt_service">avformat-novalidate</property>
  <property name="seekable">1</property>
  <property name="audio_index">0</property>
  <property name="video_index">-1</property>
  <property name="astream">0</property>
  <property name="kdenlive:proxy">-</property>
  <property name="kdenlive:originalurl">/mnt/data1/Anime-Edits/Monster/Monster-Editing/Audio/deu/Ep01.wav</property>
  <property name="kdenlive:id">3</property>
  <property name="kdenlive:clip_type">1</property>
  <property name="kdenlive:file_size">826429542</property>
  <property name="kdenlive:file_hash">16553f264094f894a5a3420012d139f5</property>
  <property name="kdenlive:folderid">-1</property>
  <property name="meta.media.nb_streams">1</property>
  <property name="meta.media.0.stream.type">audio</property>
  <property name="meta.media.0.codec.sample_fmt">s16</property>
  <property name="meta.media.0.codec.sample_rate">48000</property>
  <property name="meta.media.0.codec.channels">6</property>
  <property name="meta.media.0.codec.name">pcm_s16le</property>
  <property name="meta.media.0.codec.long_name">PCM signed 16-bit little-endian</property>
  <property name="meta.media.0.codec.bit_rate">4608000</property>
  <property name="meta.attr.encoder.markup">Lavf60.16.100</property>
  <property name="xml">was here</property>
  <property name="mute_on_pause">0</property>
  <property name="set.test_audio">0</property>
  <property name="set.test_image">1</property>
 </chain>
 <chain id="chain7" out="00:23:55.472">
  <property name="length">34417</property>
  <property name="eof">pause</property>
  <property name="resource">/mnt/data1/Anime-Edits/Monster/Monster-Editing/Audio/deu/Ep02.wav</property>
  <property name="mlt_service">avformat-novalidate</property>
  <property name="seekable">1</property>
  <property name="audio_index">0</property>
  <property name="video_index">-1</property>
  <property name="astream">0</property>
  <property name="kdenlive:proxy">-</property>
  <property name="kdenlive:originalurl">/mnt/data1/Anime-Edits/Monster/Monster-Editing/Audio/deu/Ep02.wav</property>
  <property name="kdenlive:id">5</property>
  <property name="kdenlive:clip_type">1</property>
  <property name="kdenlive:file_size">826835046</property>
  <property name="kdenlive:file_hash">9e108862dd10c0ea3686eaad255d53ba</property>
  <property name="kdenlive:folderid">-1</property>
  <property name="meta.media.nb_streams">1</property>
  <property name="meta.media.0.stream.type">audio</property>
  <property name="meta.media.0.codec.sample_fmt">s16</property>
  <property name="meta.media.0.codec.sample_rate">48000</property>
  <property name="meta.media.0.codec.channels">6</property>
  <property name="meta.media.0.codec.name">pcm_s16le</property>
  <property name="meta.media.0.codec.long_name">PCM signed 16-bit little-endian</property>
  <property name="meta.media.0.codec.bit_rate">4608000</property>
  <property name="meta.attr.encoder.markup">Lavf60.16.100</property>
  <property name="xml">was here</property>
  <property name="mute_on_pause">0</property>
  <property name="set.test_audio">0</property>
  <property name="set.test_image">1</property>
 </chain>
 <chain id="chain8" out="00:23:55.430">
  <property name="length">34416</property>
  <property name="eof">pause</property>
  <property name="resource">/mnt/data1/Anime-Edits/Monster/Monster-Editing/Audio/deu/Ep03.wav</property>
  <property name="mlt_service">avformat-novalidate</property>
  <property name="seekable">1</property>
  <property name="audio_index">0</property>
  <property name="video_index">-1</property>
  <property name="astream">0</property>
  <property name="kdenlive:proxy">-</property>
  <property name="kdenlive:originalurl">/mnt/data1/Anime-Edits/Monster/Monster-Editing/Audio/deu/Ep03.wav</property>
  <property name="kdenlive:id">7</property>
  <property name="kdenlive:clip_type">1</property>
  <property name="kdenlive:file_size">826810470</property>
  <property name="kdenlive:file_hash">442a79859f5dab034c4d570fbdc91045</property>
  <property name="kdenlive:folderid">-1</property>
  <property name="meta.media.nb_streams">1</property>
  <property name="meta.media.0.stream.type">audio</property>
  <property name="meta.media.0.codec.sample_fmt">s16</property>
  <property name="meta.media.0.codec.sample_rate">48000</property>
  <property name="meta.media.0.codec.channels">6</property>
  <property name="meta.media.0.codec.name">pcm_s16le</property>
  <property name="meta.media.0.codec.long_name">PCM signed 16-bit little-endian</property>
  <property name="meta.media.0.codec.bit_rate">4608000</property>
  <property name="meta.attr.encoder.markup">Lavf60.16.100</property>
  <property name="xml">was here</property>
  <property name="mute_on_pause">0</property>
  <property name="set.test_audio">0</property>
  <property name="set.test_image">1</property>
 </chain>
 <chain id="chain9" out="00:23:55.430">
  <property name="length">34416</property>
  <property name="eof">pause</property>
  <property name="resource">/mnt/data1/Anime-Edits/Monster/Monster-Editing/Audio/deu/Ep04.wav</property>
  <property name="mlt_service">avformat-novalidate</property>
  <property name="seekable">1</property>
  <property name="audio_index">0</property>
  <property name="video_index">-1</property>
  <property name="astream">0</property>
  <property name="kdenlive:proxy">-</property>
  <property name="kdenlive:originalurl">/mnt/data1/Anime-Edits/Monster/Monster-Editing/Audio/deu/Ep04.wav</property>
  <property name="kdenlive:id">9</property>
  <property name="kdenlive:clip_type">1</property>
  <property name="kdenlive:file_size">826810470</property>
  <property name="kdenlive:file_hash">b2c1ce13b0c9ad25f9c7fd56036d7b06</property>
  <property name="kdenlive:folderid">-1</property>
  <property name="meta.media.nb_streams">1</property>
  <property name="meta.media.0.stream.type">audio</property>
  <property name="meta.media.0.codec.sample_fmt">s16</property>
  <property name="meta.media.0.codec.sample_rate">48000</property>
  <property name="meta.media.0.codec.channels">6</property>
  <property name="meta.media.0.codec.name">pcm_s16le</property>
  <property name="meta.media.0.codec.long_name">PCM signed 16-bit little-endian</property>
  <property name="meta.media.0.codec.bit_rate">4608000</property>
  <property name="meta.attr.encoder.markup">Lavf60.16.100</property>
  <property name="xml">was here</property>
  <property name="mute_on_pause">0</property>
  <property name="set.test_audio">0</property>
  <property name="set.test_image">1</property>
 </chain>
 <playlist id="playlist4">
  <property name="kdenlive:audio_track">1</property>
  <blank length="00:01:46.964"/>
  <entry producer="chain6" in="00:03:21.146" out="00:05:03.712">
   <property name="kdenlive:id">3</property>
   <filter id="filter51" in="00:03:21.146" out="00:03:25.692">
    <property name="window">75</property>
    <property name="max_gain">20dB</property>
    <property name="mlt_service">volume</property>
    <property name="kdenlive_id">fadein</property>
    <property name="gain">0</property>
    <property name="end">1</property>
    <property name="kdenlive:collapsed">0</property>
   </filter>
   <filter id="filter50" in="00:05:03.462" out="00:05:03.712">
    <property name="window">75</property>
    <property name="max_gain">20dB</property>
    <property name="mlt_service">volume</property>
    <property name="kdenlive_id">fadeout</property>
    <property name="gain">1</property>
    <property name="end">0</property>
    <property name="kdenlive:collapsed">0</property>
   </filter>
  </entry>
  <blank length="00:02:46.588"/>
  <entry producer="chain6" in="00:08:06.715" out="00:08:08.050">
   <property name="kdenlive:id">3</property>
   <filter id="filter54" in="00:08:06.715" out="00:08:07.049">
    <property name="window">75</property>
    <property name="max_gain">20dB</property>
    <property name="mlt_service">volume</property>
    <property name="kdenlive_id">fadein</property>
    <property name="gain">0</property>
    <property name="end">1</property>
    <property name="kdenlive:collapsed">0</property>
   </filter>
   <filter id="filter55" in="00:08:07.841" out="00:08:08.050">
    <property name="window">75</property>
    <property name="max_gain">20dB</property>
    <property name="mlt_service">volume</property>
    <property name="kdenlive_id">fadeout</property>
    <property name="gain">1</property>
    <property name="end">0</property>
    <property name="kdenlive:collapsed">0</property>
   </filter>
  </entry>
  <blank length="00:00:43.418"/>
  <entry producer="chain6" in="00:08:59.768" out="00:09:25.776">
   <property name="kdenlive:id">3</property>
   <filter id="filter56" in="00:08:59.768" out="00:08:59.977">
    <property name="window">75</property>
    <property name="max_gain">20dB</property>
    <property name="mlt_service">volume</property>
    <property name="kdenlive_id">fadein</property>
    <property name="gain">0</property>
    <property name="end">1</property>
    <property name="kdenlive:collapsed">0</property>
   </filter>
   <filter id="filter57" in="00:09:25.400" out="00:09:25.776">
    <property name="window">75</property>
    <property name="max_gain">20dB</property>
    <property name="mlt_service">volume</property>
    <property name="kdenlive_id">fadeout</property>
    <property name="gain">1</property>
    <property name="end">0</property>
   </filter>
  </entry>
  <blank length="00:00:09.593"/>
  <entry producer="chain6" in="00:09:38.080" out="00:10:19.436">
   <property name="kdenlive:id">3</property>
   <filter id="filter58" in="00:09:38.080" out="00:09:38.538">
    <property name="window">75</property>
    <property name="max_gain">20dB</property>
    <property name="mlt_service">volume</property>
    <property name="kdenlive_id">fadein</property>
    <property name="gain">0</property>
    <property name="end">1</property>
    <property name="kdenlive:collapsed">0</property>
   </filter>
   <filter id="filter52">
    <property name="window">75</property>
    <property name="max_gain">20dB</property>
    <property name="level">00:09:38.080=0;00:10:18.185~=0;00:10:19.436~=-21</property>
    <property name="mlt_service">volume</property>
    <property name="kdenlive_id">volume</property>
    <property name="kdenlive:collapsed">0</property>
   </filter>
  </entry>
  <blank length="00:00:00.959"/>
  <entry producer="chain6" in="00:10:21.313" out="00:10:25.150">
   <property name="kdenlive:id">3</property>
   <filter id="filter17">
    <property name="window">75</property>
    <property name="max_gain">20dB</property>
    <property name="level">00:10:21.313=-10.7144;00:10:22.147~=0;00:10:24.900~=0;00:10:25.150~=-37.4854</property>
    <property name="mlt_service">volume</property>
    <property name="kdenlive_id">volume</property>
    <property name="kdenlive:collapsed">0</property>
   </filter>
  </entry>
  <blank length="00:00:01.335"/>
  <entry producer="chain6" in="00:10:34.952" out="00:10:38.747">
   <property name="kdenlive:id">3</property>
   <filter id="filter62" in="00:10:34.952" out="00:10:37.246">
    <property name="window">75</property>
    <property name="max_gain">20dB</property>
    <property name="mlt_service">volume</property>
    <property name="kdenlive_id">fadein</property>
    <property name="gain">0</property>
    <property name="end">1</property>
    <property name="kdenlive:collapsed">0</property>
   </filter>
   <filter id="filter63" in="00:10:38.247" out="00:10:38.747">
    <property name="window">75</property>
    <property name="max_gain">20dB</property>
    <property name="mlt_service">volume</property>
    <property name="kdenlive_id">fadeout</property>
    <property name="gain">1</property>
    <property name="end">0</property>
    <property name="kdenlive:collapsed">0</property>
   </filter>
  </entry>
  <blank length="00:00:37.371"/>
  <entry producer="chain6" in="00:11:28.445" out="00:11:35.535">
   <property name="kdenlive:id">3</property>
   <filter id="filter53">
    <property name="window">75</property>
    <property name="max_gain">20dB</property>
    <property name="level">00:11:28.445=-9.32428;00:11:28.862~=-0.312803;00:11:35.285~=0;00:11:35.494~=0</property>
    <property name="mlt_service">volume</property>
    <property name="kdenlive_id">volume</property>
    <property name="kdenlive:collapsed">0</property>
   </filter>
  </entry>
  <blank length="00:05:20.854"/>
  <entry producer="chain6" in="00:17:25.275" out="00:18:55.264">
   <property name="kdenlive:id">3</property>
   <filter id="filter65" in="00:18:54.388" out="00:18:55.305">
    <property name="window">75</property>
    <property name="max_gain">20dB</property>
    <property name="mlt_service">volume</property>
    <property name="kdenlive_id">fadeout</property>
    <property name="gain">1</property>
    <property name="end">0</property>
    <property name="kdenlive:collapsed">0</property>
   </filter>
   <filter id="filter19" in="00:17:25.275" out="00:17:25.525">
    <property name="window">75</property>
    <property name="max_gain">20dB</property>
    <property name="mlt_service">volume</property>
    <property name="kdenlive_id">fadein</property>
    <property name="gain">0</property>
    <property name="end">1</property>
   </filter>
  </entry>
  <blank length="00:00:20.938"/>
  <entry producer="chain6" in="00:19:18.769" out="00:20:34.409">
   <property name="kdenlive:id">3</property>
   <filter id="filter67" in="00:19:18.769" out="00:19:18.894">
    <property name="window">75</property>
    <property name="max_gain">20dB</property>
    <property name="mlt_service">volume</property>
    <property name="kdenlive_id">fadein</property>
    <property name="gain">0</property>
    <property name="end">1</property>
    <property name="kdenlive:collapsed">0</property>
   </filter>
   <filter id="filter68" in="00:20:31.490" out="00:20:34.409">
    <property name="window">75</property>
    <property name="max_gain">20dB</property>
    <property name="mlt_service">volume</property>
    <property name="kdenlive_id">fadeout</property>
    <property name="gain">1</property>
    <property name="end">0</property>
    <property name="kdenlive:collapsed">0</property>
   </filter>
  </entry>
  <blank length="00:01:02.085"/>
  <entry producer="chain7" in="00:00:00.000" out="00:00:53.011">
   <property name="kdenlive:id">5</property>
   <filter id="filter69" out="00:00:04.421">
    <property name="window">75</property>
    <property name="max_gain">20dB</property>
    <property name="mlt_service">volume</property>
    <property name="kdenlive_id">fadein</property>
    <property name="gain">0</property>
    <property name="end">1</property>
   </filter>
  </entry>
  <blank length="00:07:36.703"/>
  <entry producer="chain7" in="00:09:59.101" out="00:10:32.199">
   <property name="kdenlive:id">5</property>
   <filter id="filter70" in="00:09:59.101" out="00:09:59.393">
    <property name="window">75</property>
    <property name="max_gain">20dB</property>
    <property name="mlt_service">volume</property>
    <property name="kdenlive_id">fadein</property>
    <property name="gain">0</property>
    <property name="end">1</property>
    <property name="kdenlive:collapsed">0</property>
   </filter>
   <filter id="filter71" in="00:10:31.698" out="00:10:32.199">
    <property name="window">75</property>
    <property name="max_gain">20dB</property>
    <property name="mlt_service">volume</property>
    <property name="kdenlive_id">fadeout</property>
    <property name="gain">1</property>
    <property name="end">0</property>
    <property name="kdenlive:collapsed">0</property>
   </filter>
  </entry>
  <blank length="00:00:33.992"/>
  <entry producer="chain7" in="00:11:09.676" out="00:11:29.404">
   <property name="kdenlive:id">5</property>
   <filter id="filter72" in="00:11:29.196" out="00:11:29.404">
    <property name="window">75</property>
    <property name="max_gain">20dB</property>
    <property name="mlt_service">volume</property>
    <property name="kdenlive_id">fadeout</property>
    <property name="gain">1</property>
    <property name="end">0</property>
    <property name="kdenlive:collapsed">0</property>
   </filter>
  </entry>
  <blank length="00:00:05.214"/>
  <entry producer="chain7" in="00:11:48.507" out="00:11:52.427">
   <property name="kdenlive:id">5</property>
   <filter id="filter73" in="00:11:48.507" out="00:11:48.715">
    <property name="window">75</property>
    <property name="max_gain">20dB</property>
    <property name="mlt_service">volume</property>
    <property name="kdenlive_id">fadein</property>
    <property name="gain">0</property>
    <property name="end">1</property>
    <property name="kdenlive:collapsed">0</property>
   </filter>
   <filter id="filter74" in="00:11:51.885" out="00:11:52.427">
    <property name="window">75</property>
    <property name="max_gain">20dB</property>
    <property name="mlt_service">volume</property>
    <property name="kdenlive_id">fadeout</property>
    <property name="gain">1</property>
    <property name="end">0</property>
    <property name="kdenlive:collapsed">0</property>
   </filter>
  </entry>
  <blank length="00:00:23.315"/>
  <entry producer="chain7" in="00:12:27.110" out="00:14:16.600">
   <property name="kdenlive:id">5</property>
   <filter id="filter75" in="00:14:14.556" out="00:14:16.600">
    <property name="window">75</property>
    <property name="max_gain">20dB</property>
    <property name="mlt_service">volume</property>
    <property name="kdenlive_id">fadeout</property>
    <property name="gain">1</property>
    <property name="end">0</property>
    <property name="kdenlive:collapsed">0</property>
   </filter>
  </entry>
  <blank length="00:05:18.101"/>
  <entry producer="chain7" in="00:19:56.098" out="00:21:45.170">
   <property name="kdenlive:id">5</property>
   <filter id="filter76" in="00:19:56.098" out="00:19:57.849">
    <property name="window">75</property>
    <property name="max_gain">20dB</property>
    <property name="mlt_service">volume</property>
    <property name="kdenlive_id">fadein</property>
    <property name="gain">0</property>
    <property name="end">1</property>
    <property name="kdenlive:collapsed">0</property>
   </filter>
   <filter id="filter77" in="00:21:44.211" out="00:21:45.170">
    <property name="window">75</property>
    <property name="max_gain">20dB</property>
    <property name="mlt_service">volume</property>
    <property name="kdenlive_id">fadeout</property>
    <property name="gain">1</property>
    <property name="end">0</property>
    <property name="kdenlive:collapsed">0</property>
   </filter>
  </entry>
  <blank length="00:00:08.425"/>
  <entry producer="chain7" in="00:22:01.001" out="00:22:11.470">
   <property name="kdenlive:id">5</property>
   <filter id="filter78" in="00:22:01.001" out="00:22:03.086">
    <property name="window">75</property>
    <property name="max_gain">20dB</property>
    <property name="mlt_service">volume</property>
    <property name="kdenlive_id">fadein</property>
    <property name="gain">0</property>
    <property name="end">1</property>
    <property name="kdenlive:collapsed">0</property>
   </filter>
   <filter id="filter79" in="00:22:07.466" out="00:22:11.470">
    <property name="window">75</property>
    <property name="max_gain">20dB</property>
    <property name="mlt_service">volume</property>
    <property name="kdenlive_id">fadeout</property>
    <property name="gain">1</property>
    <property name="end">0</property>
    <property name="kdenlive:collapsed">0</property>
   </filter>
  </entry>
  <blank length="00:01:01.960"/>
  <entry producer="chain8" in="00:02:19.519" out="00:03:32.991">
   <property name="kdenlive:id">7</property>
  </entry>
  <blank length="00:00:14.014"/>
  <entry producer="chain8" in="00:04:01.501" out="00:06:02.878">
   <property name="kdenlive:id">7</property>
   <filter id="filter80" in="00:04:01.501" out="00:04:02.628">
    <property name="window">75</property>
    <property name="max_gain">20dB</property>
    <property name="mlt_service">volume</property>
    <property name="kdenlive_id">fadein</property>
    <property name="gain">0</property>
    <property name="end">1</property>
    <property name="kdenlive:collapsed">0</property>
   </filter>
   <filter id="filter81" in="00:06:02.502" out="00:06:02.878">
    <property name="window">75</property>
    <property name="max_gain">20dB</property>
    <property name="mlt_service">volume</property>
    <property name="kdenlive_id">fadeout</property>
    <property name="gain">1</property>
    <property name="end">0</property>
    <property name="kdenlive:collapsed">0</property>
   </filter>
  </entry>
  <blank length="00:00:05.839"/>
  <entry producer="chain8" in="00:06:11.136" out="00:07:29.154">
   <property name="kdenlive:id">7</property>
   <filter id="filter82" in="00:06:11.136" out="00:06:11.261">
    <property name="window">75</property>
    <property name="max_gain">20dB</property>
    <property name="mlt_service">volume</property>
    <property name="kdenlive_id">fadein</property>
    <property name="gain">0</property>
    <property name="end">1</property>
    <property name="kdenlive:collapsed">0</property>
   </filter>
   <filter id="filter83" in="00:07:28.654" out="00:07:29.154">
    <property name="window">75</property>
    <property name="max_gain">20dB</property>
    <property name="mlt_service">volume</property>
    <property name="kdenlive_id">fadeout</property>
    <property name="gain">1</property>
    <property name="end">0</property>
    <property name="kdenlive:collapsed">0</property>
   </filter>
  </entry>
  <blank length="00:02:40.958"/>
  <entry producer="chain8" in="00:10:46.380" out="00:12:47.422">
   <property name="kdenlive:id">7</property>
   <filter id="filter133" in="00:10:46.380" out="00:10:47.756">
    <property name="window">75</property>
    <property name="max_gain">20dB</property>
    <property name="mlt_service">volume</property>
    <property name="kdenlive_id">fadein</property>
    <property name="gain">0</property>
    <property name="end">1</property>
    <property name="kdenlive:collapsed">0</property>
   </filter>
  </entry>
  <blank length="00:03:58.308"/>
  <entry producer="chain8" in="00:16:59.393" out="00:17:02.753">
   <property name="kdenlive:id">7</property>
   <filter id="filter84" in="00:16:59.393" out="00:17:00.292">
    <property name="window">75</property>
    <property name="max_gain">20dB</property>
    <property name="mlt_service">volume</property>
    <property name="kdenlive_id">fadein</property>
    <property name="gain">0</property>
    <property name="end">1</property>
    <property name="kdenlive:collapsed">0</property>
   </filter>
  </entry>
  <blank length="00:00:11.094"/>
  <entry producer="chain8" in="00:17:02.794" out="00:17:19.645">
   <property name="kdenlive:id">7</property>
   <filter id="filter85" in="00:17:16.808" out="00:17:19.645">
    <property name="window">75</property>
    <property name="max_gain">20dB</property>
    <property name="mlt_service">volume</property>
    <property name="kdenlive_id">fadeout</property>
    <property name="gain">1</property>
    <property name="end">0</property>
   </filter>
  </entry>
  <blank length="00:00:21.521"/>
  <entry producer="chain8" in="00:17:50.676" out="00:18:36.703">
   <property name="kdenlive:id">7</property>
   <filter id="filter86" in="00:17:50.676" out="00:17:51.802">
    <property name="window">75</property>
    <property name="max_gain">20dB</property>
    <property name="mlt_service">volume</property>
    <property name="kdenlive_id">fadein</property>
    <property name="gain">0</property>
    <property name="end">1</property>
   </filter>
   <filter id="filter87" in="00:18:36.370" out="00:18:36.703">
    <property name="window">75</property>
    <property name="max_gain">20dB</property>
    <property name="mlt_service">volume</property>
    <property name="kdenlive_id">fadeout</property>
    <property name="gain">1</property>
    <property name="end">0</property>
   </filter>
  </entry>
  <blank length="00:01:38.247"/>
  <entry producer="chain8" in="00:20:16.350" out="00:22:27.152">
   <property name="kdenlive:id">7</property>
   <filter id="filter88" in="00:20:16.350" out="00:20:16.433">
    <property name="window">75</property>
    <property name="max_gain">20dB</property>
    <property name="mlt_service">volume</property>
    <property name="kdenlive_id">fadein</property>
    <property name="gain">0</property>
    <property name="end">1</property>
    <property name="kdenlive:collapsed">0</property>
   </filter>
  </entry>
  <blank length="00:00:20.395"/>
  <entry producer="chain9" in="00:02:45.337" out="00:02:56.056">
   <property name="kdenlive:id">9</property>
   <filter id="filter89" in="00:02:45.337" out="00:02:45.921">
    <property name="window">75</property>
    <property name="max_gain">20dB</property>
    <property name="mlt_service">volume</property>
    <property name="kdenlive_id">fadein</property>
    <property name="gain">0</property>
    <property name="end">1</property>
    <property name="kdenlive:collapsed">0</property>
   </filter>
   <filter id="filter90" in="00:02:55.847" out="00:02:56.056">
    <property name="window">75</property>
    <property name="max_gain">20dB</property>
    <property name="mlt_service">volume</property>
    <property name="kdenlive_id">fadeout</property>
    <property name="gain">1</property>
    <property name="end">0</property>
   </filter>
  </entry>
  <blank length="00:04:17.893"/>
  <entry producer="chain9" in="00:07:26.818" out="00:09:53.220">
   <property name="kdenlive:id">9</property>
   <filter id="filter91" in="00:07:26.818" out="00:07:26.985">
    <property name="window">75</property>
    <property name="max_gain">20dB</property>
    <property name="mlt_service">volume</property>
    <property name="kdenlive_id">fadein</property>
    <property name="gain">0</property>
    <property name="end">1</property>
    <property name="kdenlive:collapsed">0</property>
   </filter>
   <filter id="filter92" in="00:09:47.464" out="00:09:53.220">
    <property name="window">75</property>
    <property name="max_gain">20dB</property>
    <property name="mlt_service">volume</property>
    <property name="kdenlive_id">fadeout</property>
    <property name="gain">1</property>
    <property name="end">0</property>
    <property name="kdenlive:collapsed">0</property>
   </filter>
  </entry>
  <blank length="00:00:05.380"/>
  <entry producer="chain9" in="00:09:46.672" out="00:09:56.223">
   <property name="kdenlive:id">9</property>
   <filter id="filter93" in="00:09:46.672" out="00:09:47.798">
    <property name="window">75</property>
    <property name="max_gain">20dB</property>
    <property name="mlt_service">volume</property>
    <property name="kdenlive_id">fadein</property>
    <property name="gain">0</property>
    <property name="end">1</property>
    <property name="kdenlive:collapsed">0</property>
   </filter>
   <filter id="filter94">
    <property name="window">75</property>
    <property name="max_gain">20dB</property>
    <property name="mlt_service">volume</property>
    <property name="kdenlive_id">gain</property>
    <property name="gain">0.5</property>
    <property name="kdenlive:collapsed">0</property>
   </filter>
   <filter id="filter95" in="00:09:53.220" out="00:09:56.223">
    <property name="window">75</property>
    <property name="max_gain">20dB</property>
    <property name="mlt_service">volume</property>
    <property name="kdenlive_id">fadeout</property>
    <property name="gain">1</property>
    <property name="end">0</property>
    <property name="kdenlive:collapsed">0</property>
   </filter>
  </entry>
  <blank length="00:00:04.796"/>
  <entry producer="chain9" in="00:09:46.672" out="00:09:56.223">
   <property name="kdenlive:id">9</property>
   <filter id="filter96" in="00:09:46.672" out="00:09:47.464">
    <property name="window">75</property>
    <property name="max_gain">20dB</property>
    <property name="mlt_service">volume</property>
    <property name="kdenlive_id">fadein</property>
    <property name="gain">0</property>
    <property name="end">1</property>
   </filter>
   <filter id="filter97">
    <property name="window">75</property>
    <property name="max_gain">20dB</property>
    <property name="mlt_service">volume</property>
    <property name="kdenlive_id">gain</property>
    <property name="gain">0.5</property>
   </filter>
   <filter id="filter98" in="00:09:53.220" out="00:09:56.223">
    <property name="window">75</property>
    <property name="max_gain">20dB</property>
    <property name="mlt_service">volume</property>
    <property name="kdenlive_id">fadeout</property>
    <property name="gain">1</property>
    <property name="end">0</property>
   </filter>
  </entry>
  <blank length="00:00:03.545"/>
  <entry producer="chain9" in="00:09:46.463" out="00:09:56.640">
   <property name="kdenlive:id">9</property>
   <filter id="filter99" in="00:09:46.463" out="00:09:46.713">
    <property name="window">75</property>
    <property name="max_gain">20dB</property>
    <property name="mlt_service">volume</property>
    <property name="kdenlive_id">fadein</property>
    <property name="gain">0</property>
    <property name="end">1</property>
    <property name="kdenlive:collapsed">0</property>
   </filter>
   <filter id="filter100" in="00:09:56.306" out="00:09:56.640">
    <property name="window">75</property>
    <property name="max_gain">20dB</property>
    <property name="mlt_service">volume</property>
    <property name="kdenlive_id">fadeout</property>
    <property name="gain">1</property>
    <property name="end">0</property>
    <property name="kdenlive:collapsed">0</property>
   </filter>
  </entry>
  <blank length="00:00:31.907"/>
  <entry producer="chain9" in="00:10:42.084" out="00:13:12.304">
   <property name="kdenlive:id">9</property>
   <filter id="filter101" in="00:10:42.084" out="00:10:43.919">
    <property name="window">75</property>
    <property name="max_gain">20dB</property>
    <property name="mlt_service">volume</property>
    <property name="kdenlive_id">fadein</property>
    <property name="gain">0</property>
    <property name="end">1</property>
    <property name="kdenlive:collapsed">0</property>
   </filter>
   <filter id="filter102" in="00:13:11.178" out="00:13:12.304">
    <property name="window">75</property>
    <property name="max_gain">20dB</property>
    <property name="mlt_service">volume</property>
    <property name="kdenlive_id">fadeout</property>
    <property name="gain">1</property>
    <property name="end">0</property>
    <property name="kdenlive:collapsed">0</property>
   </filter>
  </entry>
  <blank length="00:00:30.656"/>
  <entry producer="chain9" in="00:13:56.890" out="00:14:03.837">
   <property name="kdenlive:id">9</property>
   <filter id="filter103" in="00:13:56.890" out="00:13:57.641">
    <property name="window">75</property>
    <property name="max_gain">20dB</property>
    <property name="mlt_service">volume</property>
    <property name="kdenlive_id">fadein</property>
    <property name="gain">0</property>
    <property name="end">1</property>
    <property name="kdenlive:collapsed">0</property>
   </filter>
   <filter id="filter104" in="00:14:03.086" out="00:14:03.837">
    <property name="window">75</property>
    <property name="max_gain">20dB</property>
    <property name="mlt_service">volume</property>
    <property name="kdenlive_id">fadeout</property>
    <property name="gain">1</property>
    <property name="end">0</property>
   </filter>
  </entry>
  <blank length="00:00:03.212"/>
  <entry producer="chain9" in="00:14:12.095" out="00:14:15.641">
   <property name="kdenlive:id">9</property>
   <filter id="filter105" in="00:14:12.095" out="00:14:12.346">
    <property name="window">75</property>
    <property name="max_gain">20dB</property>
    <property name="mlt_service">volume</property>
    <property name="kdenlive_id">fadein</property>
    <property name="gain">0</property>
    <property name="end">1</property>
    <property name="kdenlive:collapsed">0</property>
   </filter>
   <filter id="filter106" in="00:14:15.390" out="00:14:15.641">
    <property name="window">75</property>
    <property name="max_gain">20dB</property>
    <property name="mlt_service">volume</property>
    <property name="kdenlive_id">fadeout</property>
    <property name="gain">1</property>
    <property name="end">0</property>
    <property name="kdenlive:collapsed">0</property>
   </filter>
  </entry>
  <blank length="00:00:02.794"/>
  <entry producer="chain9" in="00:14:21.271" out="00:15:01.335">
   <property name="kdenlive:id">9</property>
   <filter id="filter107" in="00:14:21.271" out="00:14:22.940">
    <property name="window">75</property>
    <property name="max_gain">20dB</property>
    <property name="mlt_service">volume</property>
    <property name="kdenlive_id">fadein</property>
    <property name="gain">0</property>
    <property name="end">1</property>
    <property name="kdenlive:collapsed">0</property>
   </filter>
   <filter id="filter108" in="00:15:00.876" out="00:15:01.335">
    <property name="window">75</property>
    <property name="max_gain">20dB</property>
    <property name="mlt_service">volume</property>
    <property name="kdenlive_id">fadeout</property>
    <property name="gain">1</property>
    <property name="end">0</property>
    <property name="kdenlive:collapsed">0</property>
   </filter>
  </entry>
  <blank length="00:00:03.295"/>
  <entry producer="chain9" in="00:15:17.559" out="00:15:19.853">
   <property name="kdenlive:id">9</property>
   <filter id="filter109" in="00:15:17.559" out="00:15:18.268">
    <property name="window">75</property>
    <property name="max_gain">20dB</property>
    <property name="mlt_service">volume</property>
    <property name="kdenlive_id">fadein</property>
    <property name="gain">0</property>
    <property name="end">1</property>
    <property name="kdenlive:collapsed">0</property>
   </filter>
   <filter id="filter110" in="00:15:19.728" out="00:15:19.853">
    <property name="window">75</property>
    <property name="max_gain">20dB</property>
    <property name="mlt_service">volume</property>
    <property name="kdenlive_id">fadeout</property>
    <property name="gain">1</property>
    <property name="end">0</property>
    <property name="kdenlive:collapsed">0</property>
   </filter>
  </entry>
  <blank length="00:00:07.382"/>
  <entry producer="chain9" in="00:15:30.822" out="00:18:00.167">
   <property name="kdenlive:id">9</property>
   <filter id="filter111" in="00:17:59.685" out="00:18:00.167">
    <property name="window">75</property>
    <property name="max_gain">20dB</property>
    <property name="mlt_service">volume</property>
    <property name="kdenlive_id">fadeout</property>
    <property name="gain">1</property>
    <property name="end">0</property>
    <property name="kdenlive:collapsed">0</property>
   </filter>
   <filter id="filter112" in="00:15:30.822" out="00:15:31.448">
    <property name="window">75</property>
    <property name="max_gain">20dB</property>
    <property name="mlt_service">volume</property>
    <property name="kdenlive_id">fadein</property>
    <property name="gain">0</property>
    <property name="end">1</property>
    <property name="kdenlive:collapsed">0</property>
   </filter>
  </entry>
  <blank length="00:02:51.551"/>
  <entry producer="chain9" in="00:21:03.754" out="00:23:36.954">
   <property name="kdenlive:id">9</property>
   <filter id="filter113" in="00:21:03.754" out="00:21:04.004">
    <property name="window">75</property>
    <property name="max_gain">20dB</property>
    <property name="mlt_service">volume</property>
    <property name="kdenlive_id">fadein</property>
    <property name="gain">0</property>
    <property name="end">1</property>
    <property name="kdenlive:collapsed">0</property>
   </filter>
  </entry>
 </playlist>
 <playlist id="playlist5">
  <property name="kdenlive:audio_track">1</property>
 </playlist>
 <tractor id="tractor2" in="00:00:00.000" out="01:19:05.255">
  <property name="kdenlive:audio_track">1</property>
  <property name="kdenlive:trackheight">67</property>
  <property name="kdenlive:timeline_active">1</property>
  <property name="kdenlive:collapsed">0</property>
  <property name="kdenlive:thumbs_format"/>
  <property name="kdenlive:audio_rec"/>
  <track hide="both" producer="playlist4"/>
  <track hide="both" producer="playlist5"/>
  <filter id="filter114">
   <property name="window">75</property>
   <property name="max_gain">20dB</property>
   <property name="mlt_service">volume</property>
   <property name="internal_added">237</property>
   <property name="disable">1</property>
  </filter>
  <filter id="filter115">
   <property name="channel">-1</property>
   <property name="mlt_service">panner</property>
   <property name="internal_added">237</property>
   <property name="start">0.5</property>
   <property name="disable">1</property>
  </filter>
  <filter id="filter59">
   <property name="iec_scale">0</property>
   <property name="mlt_service">audiolevel</property>
   <property name="dbpeak">1</property>
   <property name="disable">1</property>
  </filter>
 </tractor>
 <chain id="chain10" out="00:23:54.763">
  <property name="length">34400</property>
  <property name="eof">pause</property>
  <property name="resource">/mnt/data1/Anime-Edits/Monster/Monster-Editing/Audio/deu/Ep01.wav</property>
  <property name="mlt_service">avformat-novalidate</property>
  <property name="seekable">1</property>
  <property name="audio_index">0</property>
  <property name="video_index">-1</property>
  <property name="astream">0</property>
  <property name="kdenlive:proxy">-</property>
  <property name="kdenlive:originalurl">/mnt/data1/Anime-Edits/Monster/Monster-Editing/Audio/deu/Ep01.wav</property>
  <property name="kdenlive:id">3</property>
  <property name="kdenlive:clip_type">1</property>
  <property name="kdenlive:file_size">826429542</property>
  <property name="kdenlive:file_hash">16553f264094f894a5a3420012d139f5</property>
  <property name="kdenlive:folderid">-1</property>
  <property name="meta.media.nb_streams">1</property>
  <property name="meta.media.0.stream.type">audio</property>
  <property name="meta.media.0.codec.sample_fmt">s16</property>
  <property name="meta.media.0.codec.sample_rate">48000</property>
  <property name="meta.media.0.codec.channels">6</property>
  <property name="meta.media.0.codec.name">pcm_s16le</property>
  <property name="meta.media.0.codec.long_name">PCM signed 16-bit little-endian</property>
  <property name="meta.media.0.codec.bit_rate">4608000</property>
  <property name="meta.attr.encoder.markup">Lavf60.16.100</property>
  <property name="xml">was here</property>
  <property name="mute_on_pause">0</property>
  <property name="set.test_audio">0</property>
  <property name="set.test_image">1</property>
 </chain>
 <chain id="chain11" out="00:23:55.472">
  <property name="length">34417</property>
  <property name="eof">pause</property>
  <property name="resource">/mnt/data1/Anime-Edits/Monster/Monster-Editing/Audio/deu/Ep02.wav</property>
  <property name="mlt_service">avformat-novalidate</property>
  <property name="seekable">1</property>
  <property name="audio_index">0</property>
  <property name="video_index">-1</property>
  <property name="astream">0</property>
  <property name="kdenlive:proxy">-</property>
  <property name="kdenlive:originalurl">/mnt/data1/Anime-Edits/Monster/Monster-Editing/Audio/deu/Ep02.wav</property>
  <property name="kdenlive:id">5</property>
  <property name="kdenlive:clip_type">1</property>
  <property name="kdenlive:file_size">826835046</property>
  <property name="kdenlive:file_hash">9e108862dd10c0ea3686eaad255d53ba</property>
  <property name="kdenlive:folderid">-1</property>
  <property name="meta.media.nb_streams">1</property>
  <property name="meta.media.0.stream.type">audio</property>
  <property name="meta.media.0.codec.sample_fmt">s16</property>
  <property name="meta.media.0.codec.sample_rate">48000</property>
  <property name="meta.media.0.codec.channels">6</property>
  <property name="meta.media.0.codec.name">pcm_s16le</property>
  <property name="meta.media.0.codec.long_name">PCM signed 16-bit little-endian</property>
  <property name="meta.media.0.codec.bit_rate">4608000</property>
  <property name="meta.attr.encoder.markup">Lavf60.16.100</property>
  <property name="xml">was here</property>
  <property name="mute_on_pause">0</property>
  <property name="set.test_audio">0</property>
  <property name="set.test_image">1</property>
 </chain>
 <chain id="chain12" out="00:03:11.220">
  <property name="length">4585</property>
  <property name="eof">pause</property>
  <property name="resource">/mnt/data1/Anime-Edits/Monster/Monster-Editing/Monster [Ultimate Collection] By Kira [SEV]/Original Soundtracks [2004]/Monster - Original Soundtrack II [2004]/11 - YOU ARE THE MOVE YOU MAKE.flac</property>
  <property name="mlt_service">avformat-novalidate</property>
  <property name="seekable">1</property>
  <property name="format">3</property>
  <property name="audio_index">0</property>
  <property name="video_index">1</property>
  <property name="vstream">0</property>
  <property name="astream">0</property>
  <property name="kdenlive:folderid">-1</property>
  <property name="kdenlive:id">14</property>
  <property name="mute_on_pause">0</property>
  <property name="kdenlive:clip_type">0</property>
  <property name="kdenlive:file_size">17604901</property>
  <property name="kdenlive:file_hash">269198fac804b8458883ff9cf283ba66</property>
  <property name="kdenlive:audio_max0">224</property>
  <property name="meta.media.nb_streams">2</property>
  <property name="meta.media.0.stream.type">audio</property>
  <property name="meta.media.0.codec.sample_fmt">s16</property>
  <property name="meta.media.0.codec.sample_rate">44100</property>
  <property name="meta.media.0.codec.channels">2</property>
  <property name="meta.media.0.codec.name">flac</property>
  <property name="meta.media.0.codec.long_name">FLAC (Free Lossless Audio Codec)</property>
  <property name="meta.media.0.codec.bit_rate">0</property>
  <property name="meta.media.1.stream.type">video</property>
  <property name="meta.media.1.stream.frame_rate">90000</property>
  <property name="meta.media.1.stream.sample_aspect_ratio">0</property>
  <property name="meta.media.1.codec.width">1685</property>
  <property name="meta.media.1.codec.height">1475</property>
  <property name="meta.media.1.codec.rotate">0</property>
  <property name="meta.media.1.codec.pix_fmt">yuvj420p</property>
  <property name="meta.media.1.codec.sample_aspect_ratio">0</property>
  <property name="meta.media.1.codec.colorspace">601</property>
  <property name="meta.media.1.codec.name">mjpeg</property>
  <property name="meta.media.1.codec.long_name">MJPEG (Motion JPEG)</property>
  <property name="meta.media.1.codec.bit_rate">0</property>
  <property name="meta.attr.1.stream.comment.markup">Cover (front)</property>
  <property name="meta.attr.TITLE.markup">YOU ARE THE MOVE YOU MAKE</property>
  <property name="meta.attr.ARTIST.markup">Kuniaki Haishima</property>
  <property name="meta.attr.ALBUM.markup">Monster : Original Soundtrack II</property>
  <property name="meta.attr.DATE.markup">2004</property>
  <property name="meta.attr.GENRE.markup">Anime</property>
  <property name="meta.attr.COMPOSER.markup">Kuniaki Haishima</property>
  <property name="meta.attr.ORIGINALARTIST.markup">Kuniaki Haishima</property>
  <property name="meta.attr.ENCODEDBY.markup">Mr. J</property>
  <property name="meta.attr.track.markup">11/21</property>
  <property name="meta.attr.disc.markup">01/01</property>
  <property name="meta.attr.ORIGARTIST.markup">Kuniaki Haishima</property>
  <property name="meta.attr.ALBUM ARTIST.markup">Kuniaki Haishima</property>
  <property name="meta.attr.ARTISTSORT.markup">Kuniaki Haishima</property>
  <property name="meta.attr.ALBUMARTISTSORT.markup">Kuniaki Haishima</property>
  <property name="meta.attr.ALBUMSORT.markup">Monster : Original Soundtrack II</property>
  <property name="meta.attr.COMPOSERSORT.markup">Kuniaki Haishima</property>
  <property name="meta.attr.SHOWSORT.markup">Monster</property>
  <property name="meta.media.sample_aspect_num">1</property>
  <property name="meta.media.sample_aspect_den">1</property>
  <property name="meta.media.frame_rate_num">90000</property>
  <property name="meta.media.frame_rate_den">1</property>
  <property name="meta.media.colorspace">601</property>
  <property name="meta.media.color_trc">2</property>
  <property name="meta.media.has_b_frames">0</property>
  <property name="meta.media.width">1685</property>
  <property name="meta.media.height">1475</property>
  <property name="meta.media.color_range">full</property>
  <property name="xml">was here</property>
  <property name="meta.media.top_field_first">0</property>
  <property name="meta.media.progressive">1</property>
  <property name="set.test_audio">0</property>
  <property name="set.test_image">1</property>
 </chain>
 <chain id="chain13" out="00:23:55.430">
  <property name="length">34416</property>
  <property name="eof">pause</property>
  <property name="resource">/mnt/data1/Anime-Edits/Monster/Monster-Editing/Audio/deu/Ep03.wav</property>
  <property name="mlt_service">avformat-novalidate</property>
  <property name="seekable">1</property>
  <property name="audio_index">0</property>
  <property name="video_index">-1</property>
  <property name="astream">0</property>
  <property name="kdenlive:proxy">-</property>
  <property name="kdenlive:originalurl">/mnt/data1/Anime-Edits/Monster/Monster-Editing/Audio/deu/Ep03.wav</property>
  <property name="kdenlive:id">7</property>
  <property name="kdenlive:clip_type">1</property>
  <property name="kdenlive:file_size">826810470</property>
  <property name="kdenlive:file_hash">442a79859f5dab034c4d570fbdc91045</property>
  <property name="kdenlive:folderid">-1</property>
  <property name="meta.media.nb_streams">1</property>
  <property name="meta.media.0.stream.type">audio</property>
  <property name="meta.media.0.codec.sample_fmt">s16</property>
  <property name="meta.media.0.codec.sample_rate">48000</property>
  <property name="meta.media.0.codec.channels">6</property>
  <property name="meta.media.0.codec.name">pcm_s16le</property>
  <property name="meta.media.0.codec.long_name">PCM signed 16-bit little-endian</property>
  <property name="meta.media.0.codec.bit_rate">4608000</property>
  <property name="meta.attr.encoder.markup">Lavf60.16.100</property>
  <property name="xml">was here</property>
  <property name="mute_on_pause">0</property>
  <property name="set.test_audio">0</property>
  <property name="set.test_image">1</property>
 </chain>
 <chain id="chain14" out="00:23:55.430">
  <property name="length">34416</property>
  <property name="eof">pause</property>
  <property name="resource">/mnt/data1/Anime-Edits/Monster/Monster-Editing/Audio/deu/Ep04.wav</property>
  <property name="mlt_service">avformat-novalidate</property>
  <property name="seekable">1</property>
  <property name="audio_index">0</property>
  <property name="video_index">-1</property>
  <property name="astream">0</property>
  <property name="kdenlive:proxy">-</property>
  <property name="kdenlive:originalurl">/mnt/data1/Anime-Edits/Monster/Monster-Editing/Audio/deu/Ep04.wav</property>
  <property name="kdenlive:id">9</property>
  <property name="kdenlive:clip_type">1</property>
  <property name="kdenlive:file_size">826810470</property>
  <property name="kdenlive:file_hash">b2c1ce13b0c9ad25f9c7fd56036d7b06</property>
  <property name="kdenlive:folderid">-1</property>
  <property name="meta.media.nb_streams">1</property>
  <property name="meta.media.0.stream.type">audio</property>
  <property name="meta.media.0.codec.sample_fmt">s16</property>
  <property name="meta.media.0.codec.sample_rate">48000</property>
  <property name="meta.media.0.codec.channels">6</property>
  <property name="meta.media.0.codec.name">pcm_s16le</property>
  <property name="meta.media.0.codec.long_name">PCM signed 16-bit little-endian</property>
  <property name="meta.media.0.codec.bit_rate">4608000</property>
  <property name="meta.attr.encoder.markup">Lavf60.16.100</property>
  <property name="xml">was here</property>
  <property name="mute_on_pause">0</property>
  <property name="set.test_audio">0</property>
  <property name="set.test_image">1</property>
 </chain>
 <chain id="chain15" out="00:23:55.597">
  <property name="length">34420</property>
  <property name="eof">pause</property>
  <property name="resource">/mnt/data1/Anime-Edits/Monster/Monster-Editing/Audio/deu/Ep23.wav</property>
  <property name="mlt_service">avformat-novalidate</property>
  <property name="seekable">1</property>
  <property name="audio_index">0</property>
  <property name="video_index">-1</property>
  <property name="astream">0</property>
  <property name="kdenlive:proxy">-</property>
  <property name="kdenlive:originalurl">/mnt/data1/Anime-Edits/Monster/Monster-Editing/Audio/deu/Ep23.wav</property>
  <property name="kdenlive:id">11</property>
  <property name="kdenlive:clip_type">1</property>
  <property name="kdenlive:file_size">826908774</property>
  <property name="kdenlive:file_hash">74e759bdd30e4fb9580bd7b08377760f</property>
  <property name="kdenlive:folderid">-1</property>
  <property name="meta.media.nb_streams">1</property>
  <property name="meta.media.0.stream.type">audio</property>
  <property name="meta.media.0.codec.sample_fmt">s16</property>
  <property name="meta.media.0.codec.sample_rate">48000</property>
  <property name="meta.media.0.codec.channels">6</property>
  <property name="meta.media.0.codec.name">pcm_s16le</property>
  <property name="meta.media.0.codec.long_name">PCM signed 16-bit little-endian</property>
  <property name="meta.media.0.codec.bit_rate">4608000</property>
  <property name="meta.attr.encoder.markup">Lavf60.16.100</property>
  <property name="xml">was here</property>
  <property name="mute_on_pause">0</property>
  <property name="set.test_audio">0</property>
  <property name="set.test_image">1</property>
 </chain>
 <playlist id="playlist6">
  <property name="kdenlive:audio_track">1</property>
  <entry producer="chain10" in="00:00:00.000" out="00:01:52.761">
   <property name="kdenlive:id">3</property>
  </entry>
  <blank length="00:01:36.286"/>
  <entry producer="chain10" in="00:05:03.837" out="00:07:25.484">
   <property name="kdenlive:id">3</property>
   <filter id="filter122" in="00:07:24.691" out="00:07:25.484">
    <property name="window">75</property>
    <property name="max_gain">20dB</property>
    <property name="mlt_service">volume</property>
    <property name="kdenlive_id">fadeout</property>
    <property name="gain">1</property>
    <property name="end">0</property>
    <property name="kdenlive:collapsed">0</property>
   </filter>
   <filter id="filter60" in="00:05:03.837" out="00:05:04.296">
    <property name="window">75</property>
    <property name="max_gain">20dB</property>
    <property name="mlt_service">volume</property>
    <property name="kdenlive_id">fadein</property>
    <property name="gain">0</property>
    <property name="end">1</property>
   </filter>
  </entry>
  <blank length="00:00:26.485"/>
  <entry producer="chain10" in="00:08:09.927" out="00:08:55.055">
   <property name="kdenlive:id">3</property>
   <filter id="filter123" in="00:08:52.844" out="00:08:55.055">
    <property name="window">75</property>
    <property name="max_gain">20dB</property>
    <property name="mlt_service">volume</property>
    <property name="kdenlive_id">fadeout</property>
    <property name="gain">1</property>
    <property name="end">0</property>
    <property name="kdenlive:collapsed">0</property>
   </filter>
   <filter id="filter124" in="00:08:09.927" out="00:08:10.135">
    <property name="window">75</property>
    <property name="max_gain">20dB</property>
    <property name="mlt_service">volume</property>
    <property name="kdenlive_id">fadein</property>
    <property name="gain">0</property>
    <property name="end">1</property>
    <property name="kdenlive:collapsed">0</property>
   </filter>
  </entry>
  <blank length="00:00:22.481"/>
  <entry producer="chain10" in="00:09:25.317" out="00:09:38.038">
   <property name="kdenlive:id">3</property>
   <filter id="filter125" in="00:09:25.317" out="00:09:26.401">
    <property name="window">75</property>
    <property name="max_gain">20dB</property>
    <property name="mlt_service">volume</property>
    <property name="kdenlive_id">fadein</property>
    <property name="gain">0</property>
    <property name="end">1</property>
    <property name="kdenlive:collapsed">0</property>
   </filter>
   <filter id="filter126" in="00:09:37.246" out="00:09:38.038">
    <property name="window">75</property>
    <property name="max_gain">20dB</property>
    <property name="mlt_service">volume</property>
    <property name="kdenlive_id">fadeout</property>
    <property name="gain">1</property>
    <property name="end">0</property>
    <property name="kdenlive:collapsed">0</property>
   </filter>
  </entry>
  <blank length="00:00:44.753"/>
  <entry producer="chain10" in="00:10:29.238" out="00:10:34.117">
   <property name="kdenlive:id">3</property>
   <filter id="filter61" in="00:10:29.238" out="00:10:30.781">
    <property name="window">75</property>
    <property name="max_gain">20dB</property>
    <property name="mlt_service">volume</property>
    <property name="kdenlive_id">fadein</property>
    <property name="gain">0</property>
    <property name="end">1</property>
    <property name="kdenlive:collapsed">0</property>
   </filter>
   <filter id="filter64" in="00:10:32.074" out="00:10:34.117">
    <property name="window">75</property>
    <property name="max_gain">20dB</property>
    <property name="mlt_service">volume</property>
    <property name="kdenlive_id">fadeout</property>
    <property name="gain">1</property>
    <property name="end">0</property>
    <property name="kdenlive:collapsed">0</property>
   </filter>
  </entry>
  <entry producer="chain10" in="00:10:38.413" out="00:10:40.666">
   <property name="kdenlive:id">3</property>
   <filter id="filter129" in="00:10:38.413" out="00:10:38.997">
    <property name="window">75</property>
    <property name="max_gain">20dB</property>
    <property name="mlt_service">volume</property>
    <property name="kdenlive_id">fadein</property>
    <property name="gain">0</property>
    <property name="end">1</property>
    <property name="kdenlive:collapsed">0</property>
   </filter>
  </entry>
  <blank length="00:00:39.331"/>
  <entry producer="chain10" in="00:11:46.255" out="00:12:39.248">
   <property name="kdenlive:id">3</property>
   <filter id="filter130" in="00:11:46.255" out="00:11:49.967">
    <property name="window">75</property>
    <property name="max_gain">20dB</property>
    <property name="mlt_service">volume</property>
    <property name="kdenlive_id">fadein</property>
    <property name="gain">0</property>
    <property name="end">1</property>
    <property name="kdenlive:collapsed">0</property>
   </filter>
  </entry>
  <blank length="00:00:30.113"/>
  <entry producer="chain10" in="00:13:16.558" out="00:17:14.056">
   <property name="kdenlive:id">3</property>
   <filter id="filter131" in="00:13:16.558" out="00:13:16.642">
    <property name="window">75</property>
    <property name="max_gain">20dB</property>
    <property name="mlt_service">volume</property>
    <property name="kdenlive_id">fadein</property>
    <property name="gain">0</property>
    <property name="end">1</property>
    <property name="kdenlive:collapsed">0</property>
   </filter>
   <filter id="filter66" in="00:17:13.931" out="00:17:14.056">
    <property name="window">75</property>
    <property name="max_gain">20dB</property>
    <property name="mlt_service">volume</property>
    <property name="kdenlive_id">fadeout</property>
    <property name="gain">1</property>
    <property name="end">0</property>
   </filter>
  </entry>
  <blank length="00:01:32.699"/>
  <entry producer="chain10" in="00:18:56.139" out="00:19:18.393">
   <property name="kdenlive:id">3</property>
   <filter id="filter132" in="00:18:56.139" out="00:18:57.057">
    <property name="window">75</property>
    <property name="max_gain">20dB</property>
    <property name="mlt_service">volume</property>
    <property name="kdenlive_id">fadein</property>
    <property name="gain">0</property>
    <property name="end">1</property>
    <property name="kdenlive:collapsed">0</property>
   </filter>
   <filter id="filter134" in="00:19:18.185" out="00:19:18.393">
    <property name="window">75</property>
    <property name="max_gain">20dB</property>
    <property name="mlt_service">volume</property>
    <property name="kdenlive_id">fadeout</property>
    <property name="gain">1</property>
    <property name="end">0</property>
    <property name="kdenlive:collapsed">0</property>
   </filter>
  </entry>
  <blank length="00:01:11.929"/>
  <entry producer="chain10" in="00:21:16.642" out="00:22:26.610">
   <property name="kdenlive:id">3</property>
   <filter id="filter135" in="00:21:16.642" out="00:21:17.851">
    <property name="window">75</property>
    <property name="max_gain">20dB</property>
    <property name="mlt_service">volume</property>
    <property name="kdenlive_id">fadein</property>
    <property name="gain">0</property>
    <property name="end">1</property>
    <property name="kdenlive:collapsed">0</property>
   </filter>
   <filter id="filter136" in="00:22:22.189" out="00:22:26.610">
    <property name="window">75</property>
    <property name="max_gain">20dB</property>
    <property name="mlt_service">volume</property>
    <property name="kdenlive_id">fadeout</property>
    <property name="gain">1</property>
    <property name="end">0</property>
    <property name="kdenlive:collapsed">0</property>
   </filter>
  </entry>
  <blank length="00:00:45.170"/>
  <entry producer="chain11" in="00:02:18.685" out="00:09:59.059">
   <property name="kdenlive:id">5</property>
   <filter id="filter137" in="00:09:58.976" out="00:09:59.059">
    <property name="window">75</property>
    <property name="max_gain">20dB</property>
    <property name="mlt_service">volume</property>
    <property name="kdenlive_id">fadeout</property>
    <property name="gain">1</property>
    <property name="end">0</property>
    <property name="kdenlive:collapsed">0</property>
   </filter>
  </entry>
  <blank length="00:00:31.406"/>
  <entry producer="chain11" in="00:10:33.116" out="00:11:08.467">
   <property name="kdenlive:id">5</property>
   <filter id="filter138" in="00:10:33.116" out="00:10:34.034">
    <property name="window">75</property>
    <property name="max_gain">20dB</property>
    <property name="mlt_service">volume</property>
    <property name="kdenlive_id">fadein</property>
    <property name="gain">0</property>
    <property name="end">1</property>
    <property name="kdenlive:collapsed">0</property>
   </filter>
  </entry>
  <blank length="00:00:15.641"/>
  <entry producer="chain11" in="00:11:34.326" out="00:11:45.462">
   <property name="kdenlive:id">5</property>
   <filter id="filter139" in="00:11:34.326" out="00:11:38.205">
    <property name="window">75</property>
    <property name="max_gain">20dB</property>
    <property name="mlt_service">volume</property>
    <property name="kdenlive_id">fadein</property>
    <property name="gain">0</property>
    <property name="end">1</property>
    <property name="kdenlive:collapsed">0</property>
   </filter>
   <filter id="filter140" in="00:11:42.960" out="00:11:45.462">
    <property name="window">75</property>
    <property name="max_gain">20dB</property>
    <property name="mlt_service">volume</property>
    <property name="kdenlive_id">fadeout</property>
    <property name="gain">1</property>
    <property name="end">0</property>
    <property name="kdenlive:collapsed">0</property>
   </filter>
  </entry>
  <blank length="00:00:01.418"/>
  <entry producer="chain11" in="00:11:55.097" out="00:12:22.564">
   <property name="kdenlive:id">5</property>
   <filter id="filter141" in="00:11:55.097" out="00:11:55.639">
    <property name="window">75</property>
    <property name="max_gain">20dB</property>
    <property name="mlt_service">volume</property>
    <property name="kdenlive_id">fadein</property>
    <property name="gain">0</property>
    <property name="end">1</property>
    <property name="kdenlive:collapsed">0</property>
   </filter>
   <filter id="filter142" in="00:12:19.728" out="00:12:22.564">
    <property name="window">75</property>
    <property name="max_gain">20dB</property>
    <property name="mlt_service">volume</property>
    <property name="kdenlive_id">fadeout</property>
    <property name="gain">1</property>
    <property name="end">0</property>
   </filter>
  </entry>
  <blank length="00:00:11.386"/>
  <entry producer="chain12" in="00:00:00.000" out="00:00:55.681">
   <property name="kdenlive:id">14</property>
   <filter id="filter143">
    <property name="window">75</property>
    <property name="max_gain">20dB</property>
    <property name="mlt_service">volume</property>
    <property name="kdenlive_id">gain</property>
    <property name="gain">0.08</property>
    <property name="kdenlive:collapsed">0</property>
   </filter>
   <filter id="filter144" in="00:00:-0.042" out="00:00:55.681">
    <property name="window">75</property>
    <property name="max_gain">20dB</property>
    <property name="mlt_service">volume</property>
    <property name="kdenlive_id">fadeout</property>
    <property name="gain">1</property>
    <property name="end">0</property>
    <property name="kdenlive:collapsed">0</property>
   </filter>
  </entry>
  <blank length="00:00:38.288"/>
  <entry producer="chain11" in="00:14:34.201" out="00:19:56.348">
   <property name="kdenlive:id">5</property>
   <filter id="filter145" in="00:14:34.201" out="00:14:34.868">
    <property name="window">75</property>
    <property name="max_gain">20dB</property>
    <property name="mlt_service">volume</property>
    <property name="kdenlive_id">fadein</property>
    <property name="gain">0</property>
    <property name="end">1</property>
   </filter>
   <filter id="filter146" in="00:19:53.762" out="00:19:56.348">
    <property name="window">75</property>
    <property name="max_gain">20dB</property>
    <property name="mlt_service">volume</property>
    <property name="kdenlive_id">fadeout</property>
    <property name="gain">1</property>
    <property name="end">0</property>
   </filter>
  </entry>
  <blank length="00:01:45.963"/>
  <entry producer="chain11" in="00:21:50.342" out="00:22:00.959">
   <property name="kdenlive:id">5</property>
   <filter id="filter147" in="00:21:50.342" out="00:21:51.051">
    <property name="window">75</property>
    <property name="max_gain">20dB</property>
    <property name="mlt_service">volume</property>
    <property name="kdenlive_id">fadein</property>
    <property name="gain">0</property>
    <property name="end">1</property>
    <property name="kdenlive:collapsed">0</property>
   </filter>
   <filter id="filter148" in="00:21:59.601" out="00:22:00.959">
    <property name="window">75</property>
    <property name="max_gain">20dB</property>
    <property name="mlt_service">volume</property>
    <property name="kdenlive_id">fadeout</property>
    <property name="gain">1</property>
    <property name="end">0</property>
    <property name="kdenlive:collapsed">0</property>
   </filter>
  </entry>
  <blank length="00:00:03.837"/>
  <entry producer="chain11" in="00:22:11.511" out="00:22:26.735">
   <property name="kdenlive:id">5</property>
   <filter id="filter149" in="00:22:11.511" out="00:22:12.512">
    <property name="window">75</property>
    <property name="max_gain">20dB</property>
    <property name="mlt_service">volume</property>
    <property name="kdenlive_id">fadein</property>
    <property name="gain">0</property>
    <property name="end">1</property>
    <property name="kdenlive:collapsed">0</property>
   </filter>
  </entry>
  <entry producer="chain13" in="00:00:00.000" out="00:00:53.095">
   <property name="kdenlive:id">7</property>
   <filter id="filter150" in="00:00:50.384" out="00:00:53.095">
    <property name="window">75</property>
    <property name="max_gain">20dB</property>
    <property name="mlt_service">volume</property>
    <property name="kdenlive_id">fadeout</property>
    <property name="gain">1</property>
    <property name="end">0</property>
    <property name="kdenlive:collapsed">0</property>
   </filter>
  </entry>
  <blank length="00:01:09.343"/>
  <entry producer="chain13" in="00:03:38.247" out="00:03:55.222">
   <property name="kdenlive:id">7</property>
   <filter id="filter151" in="00:03:38.247" out="00:03:40.207">
    <property name="window">75</property>
    <property name="max_gain">20dB</property>
    <property name="mlt_service">volume</property>
    <property name="kdenlive_id">fadein</property>
    <property name="gain">0</property>
    <property name="end">1</property>
    <property name="kdenlive:collapsed">0</property>
   </filter>
  </entry>
  <blank length="00:01:59.893"/>
  <entry producer="chain13" in="00:06:04.588" out="00:06:11.178">
   <property name="kdenlive:id">7</property>
   <filter id="filter152" in="00:06:04.588" out="00:06:04.796">
    <property name="window">75</property>
    <property name="max_gain">20dB</property>
    <property name="mlt_service">volume</property>
    <property name="kdenlive_id">fadein</property>
    <property name="gain">0</property>
    <property name="end">1</property>
    <property name="kdenlive:collapsed">0</property>
   </filter>
  </entry>
  <blank length="00:05:59.309"/>
  <entry producer="chain13" in="00:12:48.799" out="00:16:48.715">
   <property name="kdenlive:id">7</property>
   <filter id="filter153" in="00:12:48.799" out="00:12:49.174">
    <property name="window">75</property>
    <property name="max_gain">20dB</property>
    <property name="mlt_service">volume</property>
    <property name="kdenlive_id">fadein</property>
    <property name="gain">0</property>
    <property name="end">1</property>
    <property name="kdenlive:collapsed">0</property>
   </filter>
  </entry>
  <blank length="00:00:01.084"/>
  <entry producer="chain13" in="00:16:48.298" out="00:17:00.375">
   <property name="kdenlive:id">7</property>
   <filter id="filter154" in="00:16:48.298" out="00:16:48.632">
    <property name="window">75</property>
    <property name="max_gain">20dB</property>
    <property name="mlt_service">volume</property>
    <property name="kdenlive_id">fadein</property>
    <property name="gain">0</property>
    <property name="end">1</property>
    <property name="kdenlive:collapsed">0</property>
   </filter>
  </entry>
  <blank length="00:00:13.263"/>
  <entry producer="chain13" in="00:17:23.941" out="00:17:50.509">
   <property name="kdenlive:id">7</property>
   <filter id="filter155" in="00:17:23.941" out="00:17:25.359">
    <property name="window">75</property>
    <property name="max_gain">20dB</property>
    <property name="mlt_service">volume</property>
    <property name="kdenlive_id">fadein</property>
    <property name="gain">0</property>
    <property name="end">1</property>
    <property name="kdenlive:collapsed">0</property>
   </filter>
   <filter id="filter156" in="00:17:49.216" out="00:17:50.509">
    <property name="window">75</property>
    <property name="max_gain">20dB</property>
    <property name="mlt_service">volume</property>
    <property name="kdenlive_id">fadeout</property>
    <property name="gain">1</property>
    <property name="end">0</property>
    <property name="kdenlive:collapsed">0</property>
   </filter>
  </entry>
  <blank length="00:00:43.585"/>
  <entry producer="chain13" in="00:18:36.453" out="00:20:15.849">
   <property name="kdenlive:id">7</property>
   <filter id="filter157" in="00:18:36.453" out="00:18:37.079">
    <property name="window">75</property>
    <property name="max_gain">20dB</property>
    <property name="mlt_service">volume</property>
    <property name="kdenlive_id">fadein</property>
    <property name="gain">0</property>
    <property name="end">1</property>
    <property name="kdenlive:collapsed">0</property>
   </filter>
   <filter id="filter158" in="00:20:15.766" out="00:20:15.849">
    <property name="window">75</property>
    <property name="max_gain">20dB</property>
    <property name="mlt_service">volume</property>
    <property name="kdenlive_id">fadeout</property>
    <property name="gain">1</property>
    <property name="end">0</property>
    <property name="kdenlive:collapsed">0</property>
   </filter>
  </entry>
  <blank length="00:02:07.883"/>
  <entry producer="chain14" in="00:02:19.978" out="00:02:43.627">
   <property name="kdenlive:id">9</property>
   <filter id="filter159" in="00:02:43.502" out="00:02:43.627">
    <property name="window">75</property>
    <property name="max_gain">20dB</property>
    <property name="mlt_service">volume</property>
    <property name="kdenlive_id">fadeout</property>
    <property name="gain">1</property>
    <property name="end">0</property>
    <property name="kdenlive:collapsed">0</property>
   </filter>
  </entry>
  <blank length="00:00:09.968"/>
  <entry producer="chain14" in="00:02:59.768" out="00:03:05.797">
   <property name="kdenlive:id">9</property>
   <filter id="filter160" in="00:02:59.768" out="00:03:00.500">
    <property name="window">75</property>
    <property name="max_gain">20dB</property>
    <property name="mlt_service">volume</property>
    <property name="kdenlive_id">fadein</property>
    <property name="gain">0</property>
    <property name="end">1</property>
    <property name="kdenlive:collapsed">0</property>
   </filter>
  </entry>
  <blank length="00:06:31.907"/>
  <entry producer="chain15" in="00:17:40.415" out="00:18:20.979">
   <property name="kdenlive:id">11</property>
   <filter id="filter161" in="00:18:20.145" out="00:18:20.979">
    <property name="window">75</property>
    <property name="max_gain">20dB</property>
    <property name="mlt_service">volume</property>
    <property name="kdenlive_id">fadeout</property>
    <property name="gain">1</property>
    <property name="end">0</property>
    <property name="kdenlive:collapsed">0</property>
   </filter>
   <filter id="filter162" in="00:17:40.415" out="00:17:40.540">
    <property name="window">75</property>
    <property name="max_gain">20dB</property>
    <property name="mlt_service">volume</property>
    <property name="kdenlive_id">fadein</property>
    <property name="gain">0</property>
    <property name="end">1</property>
    <property name="kdenlive:collapsed">0</property>
   </filter>
  </entry>
  <blank length="00:00:08.800"/>
  <entry producer="chain14" in="00:10:01.877" out="00:10:36.453">
   <property name="kdenlive:id">9</property>
   <filter id="filter163" in="00:10:01.877" out="00:10:02.252">
    <property name="window">75</property>
    <property name="max_gain">20dB</property>
    <property name="mlt_service">volume</property>
    <property name="kdenlive_id">fadein</property>
    <property name="gain">0</property>
    <property name="end">1</property>
    <property name="kdenlive:collapsed">0</property>
   </filter>
   <filter id="filter164" in="00:10:32.282" out="00:10:36.453">
    <property name="window">75</property>
    <property name="max_gain">20dB</property>
    <property name="mlt_service">volume</property>
    <property name="kdenlive_id">fadeout</property>
    <property name="gain">1</property>
    <property name="end">0</property>
    <property name="kdenlive:collapsed">0</property>
   </filter>
  </entry>
  <blank length="00:02:52.928"/>
  <entry producer="chain14" in="00:13:44.962" out="00:13:52.094">
   <property name="kdenlive:id">9</property>
   <filter id="filter165" in="00:13:44.962" out="00:13:45.921">
    <property name="window">75</property>
    <property name="max_gain">20dB</property>
    <property name="mlt_service">volume</property>
    <property name="kdenlive_id">fadein</property>
    <property name="gain">0</property>
    <property name="end">1</property>
    <property name="kdenlive:collapsed">0</property>
   </filter>
   <filter id="filter166" in="00:13:51.885" out="00:13:52.094">
    <property name="window">75</property>
    <property name="max_gain">20dB</property>
    <property name="mlt_service">volume</property>
    <property name="kdenlive_id">fadeout</property>
    <property name="gain">1</property>
    <property name="end">0</property>
   </filter>
  </entry>
  <blank length="00:00:04.546"/>
  <entry producer="chain14" in="00:14:07.507" out="00:14:12.262">
   <property name="kdenlive:id">9</property>
   <filter id="filter167" in="00:14:07.507" out="00:14:07.633">
    <property name="window">75</property>
    <property name="max_gain">20dB</property>
    <property name="mlt_service">volume</property>
    <property name="kdenlive_id">fadein</property>
    <property name="gain">0</property>
    <property name="end">1</property>
    <property name="kdenlive:collapsed">0</property>
   </filter>
   <filter id="filter168" in="00:14:11.887" out="00:14:12.262">
    <property name="window">75</property>
    <property name="max_gain">20dB</property>
    <property name="mlt_service">volume</property>
    <property name="kdenlive_id">fadeout</property>
    <property name="gain">1</property>
    <property name="end">0</property>
    <property name="kdenlive:collapsed">0</property>
   </filter>
  </entry>
  <blank length="00:00:02.502"/>
  <entry producer="chain14" in="00:14:15.682" out="00:14:21.271">
   <property name="kdenlive:id">9</property>
   <filter id="filter169" in="00:14:20.896" out="00:14:21.271">
    <property name="window">75</property>
    <property name="max_gain">20dB</property>
    <property name="mlt_service">volume</property>
    <property name="kdenlive_id">fadeout</property>
    <property name="gain">1</property>
    <property name="end">0</property>
    <property name="kdenlive:collapsed">0</property>
   </filter>
   <filter id="filter170" in="00:14:15.682" out="00:14:16.058">
    <property name="window">75</property>
    <property name="max_gain">20dB</property>
    <property name="mlt_service">volume</property>
    <property name="kdenlive_id">fadein</property>
    <property name="gain">0</property>
    <property name="end">1</property>
    <property name="kdenlive:collapsed">0</property>
   </filter>
  </entry>
  <blank length="00:00:36.453"/>
  <entry producer="chain14" in="00:15:08.884" out="00:15:14.348">
   <property name="kdenlive:id">9</property>
   <filter id="filter171" in="00:15:08.884" out="00:15:09.885">
    <property name="window">75</property>
    <property name="max_gain">20dB</property>
    <property name="mlt_service">volume</property>
    <property name="kdenlive_id">fadein</property>
    <property name="gain">0</property>
    <property name="end">1</property>
    <property name="kdenlive:collapsed">0</property>
   </filter>
   <filter id="filter172" in="00:15:13.931" out="00:15:14.348">
    <property name="window">75</property>
    <property name="max_gain">20dB</property>
    <property name="mlt_service">volume</property>
    <property name="kdenlive_id">fadeout</property>
    <property name="gain">1</property>
    <property name="end">0</property>
    <property name="kdenlive:collapsed">0</property>
   </filter>
  </entry>
  <blank length="00:00:08.467"/>
  <entry producer="chain14" in="00:15:30.113" out="00:15:31.240">
   <property name="kdenlive:id">9</property>
   <filter id="filter173" in="00:15:30.113" out="00:15:30.489">
    <property name="window">75</property>
    <property name="max_gain">20dB</property>
    <property name="mlt_service">volume</property>
    <property name="kdenlive_id">fadein</property>
    <property name="gain">0</property>
    <property name="end">1</property>
    <property name="kdenlive:collapsed">0</property>
   </filter>
   <filter id="filter174" in="00:15:30.739" out="00:15:31.240">
    <property name="window">75</property>
    <property name="max_gain">20dB</property>
    <property name="mlt_service">volume</property>
    <property name="kdenlive_id">fadeout</property>
    <property name="gain">1</property>
    <property name="end">0</property>
    <property name="kdenlive:collapsed">0</property>
   </filter>
  </entry>
  <blank length="00:02:27.819"/>
  <entry producer="chain14" in="00:18:11.053" out="00:21:03.712">
   <property name="kdenlive:id">9</property>
   <filter id="filter175" in="00:18:11.053" out="00:18:12.387">
    <property name="window">75</property>
    <property name="max_gain">20dB</property>
    <property name="mlt_service">volume</property>
    <property name="kdenlive_id">fadein</property>
    <property name="gain">0</property>
    <property name="end">1</property>
    <property name="kdenlive:collapsed">0</property>
   </filter>
   <filter id="filter176" in="00:21:03.378" out="00:21:03.712">
    <property name="window">75</property>
    <property name="max_gain">20dB</property>
    <property name="mlt_service">volume</property>
    <property name="kdenlive_id">fadeout</property>
    <property name="gain">1</property>
    <property name="end">0</property>
    <property name="kdenlive:collapsed">0</property>
   </filter>
  </entry>
 </playlist>
 <playlist id="playlist7">
  <property name="kdenlive:audio_track">1</property>
 </playlist>
 <tractor id="tractor3" in="00:00:00.000" out="01:16:32.407">
  <property name="kdenlive:audio_track">1</property>
  <property name="kdenlive:trackheight">67</property>
  <property name="kdenlive:timeline_active">1</property>
  <property name="kdenlive:collapsed">0</property>
  <property name="kdenlive:thumbs_format"/>
  <property name="kdenlive:audio_rec"/>
  <track hide="video" producer="playlist6"/>
  <track hide="video" producer="playlist7"/>
  <filter id="filter177">
   <property name="window">75</property>
   <property name="max_gain">20dB</property>
   <property name="level">-0</property>
   <property name="mlt_service">volume</property>
   <property name="internal_added">237</property>
   <property name="disable">0</property>
  </filter>
  <filter id="filter178">
   <property name="channel">-1</property>
   <property name="mlt_service">panner</property>
   <property name="internal_added">237</property>
   <property name="start">0.5</property>
   <property name="disable">1</property>
  </filter>
  <filter id="filter116">
   <property name="iec_scale">0</property>
   <property name="mlt_service">audiolevel</property>
   <property name="dbpeak">1</property>
   <property name="disable">1</property>
  </filter>
 </tractor>
 <chain id="chain16" out="00:23:54.763">
  <property name="length">34400</property>
  <property name="eof">pause</property>
  <property name="resource">/mnt/data0/Monster/Monster-Editing/Blu-Ray/Encoded/Ep01-av1.mkv</property>
  <property name="mlt_service">avformat-novalidate</property>
  <property name="seekable">1</property>
  <property name="format">3</property>
  <property name="audio_index">1</property>
  <property name="video_index">0</property>
  <property name="vstream">0</property>
  <property name="astream">0</property>
  <property name="kdenlive:proxy">-</property>
  <property name="kdenlive:originalurl">/mnt/data0/Monster/Monster-Editing/Blu-Ray/Encoded/Ep01-av1.mkv</property>
  <property name="kdenlive:id">2</property>
  <property name="mute_on_pause">0</property>
  <property name="kdenlive:active_streams">1;2</property>
  <property name="kdenlive:clip_type">0</property>
  <property name="kdenlive:file_size">999749033</property>
  <property name="kdenlive:file_hash">3e7fe6854fe9fabdcf115764699786d7</property>
  <property name="kdenlive:folderid">-1</property>
  <property name="meta.media.nb_streams">5</property>
  <property name="meta.media.0.stream.type">video</property>
  <property name="meta.media.0.stream.frame_rate">23.976</property>
  <property name="meta.media.0.stream.sample_aspect_ratio">1</property>
  <property name="meta.media.0.codec.width">1440</property>
  <property name="meta.media.0.codec.height">1080</property>
  <property name="meta.media.0.codec.rotate">0</property>
  <property name="meta.media.0.codec.pix_fmt">yuv420p10le</property>
  <property name="meta.media.0.codec.sample_aspect_ratio">0</property>
  <property name="meta.media.0.codec.colorspace">709</property>
  <property name="meta.media.0.codec.color_trc">1</property>
  <property name="meta.media.0.codec.name">libdav1d</property>
  <property name="meta.media.0.codec.long_name">dav1d AV1 decoder by VideoLAN</property>
  <property name="meta.media.0.codec.bit_rate">0</property>
  <property name="meta.attr.0.stream.ENCODER.markup">Lavc60.3.100 av1_qsv</property>
  <property name="meta.attr.0.stream.DURATION.markup">00:23:54.770000000</property>
  <property name="meta.media.1.stream.type">audio</property>
  <property name="meta.media.1.codec.sample_fmt">fltp</property>
  <property name="meta.media.1.codec.sample_rate">48000</property>
  <property name="meta.media.1.codec.channels">6</property>
  <property name="meta.media.1.codec.name">vorbis</property>
  <property name="meta.media.1.codec.long_name">Vorbis</property>
  <property name="meta.media.1.codec.bit_rate">0</property>
  <property name="meta.attr.1.stream.ENCODER.markup">Lavc60.3.100 libvorbis</property>
  <property name="meta.attr.1.stream.DURATION.markup">00:23:54.776000000</property>
  <property name="meta.media.2.stream.type">audio</property>
  <property name="meta.media.2.codec.sample_fmt">fltp</property>
  <property name="meta.media.2.codec.sample_rate">48000</property>
  <property name="meta.media.2.codec.channels">2</property>
  <property name="meta.media.2.codec.name">opus</property>
  <property name="meta.media.2.codec.long_name">Opus</property>
  <property name="meta.media.2.codec.bit_rate">0</property>
  <property name="meta.attr.2.stream.ENCODER.markup">Lavc60.3.100 libopus</property>
  <property name="meta.attr.2.stream.DURATION.markup">00:23:54.784000000</property>
  <property name="meta.media.3.codec.name">pgssub</property>
  <property name="meta.media.3.codec.long_name">HDMV Presentation Graphic Stream subtitles</property>
  <property name="meta.media.3.codec.bit_rate">0</property>
  <property name="meta.attr.3.stream.DURATION.markup">00:23:54.770000000</property>
  <property name="meta.media.4.codec.name">pgssub</property>
  <property name="meta.media.4.codec.long_name">HDMV Presentation Graphic Stream subtitles</property>
  <property name="meta.media.4.codec.bit_rate">0</property>
  <property name="meta.attr.4.stream.DURATION.markup">00:23:54.770000000</property>
  <property name="meta.attr.ENCODER.markup">Lavf60.3.100</property>
  <property name="meta.media.sample_aspect_num">1</property>
  <property name="meta.media.sample_aspect_den">1</property>
  <property name="meta.media.frame_rate_num">24000</property>
  <property name="meta.media.frame_rate_den">1001</property>
  <property name="meta.media.colorspace">709</property>
  <property name="meta.media.color_trc">1</property>
  <property name="meta.media.has_b_frames">0</property>
  <property name="meta.media.width">1440</property>
  <property name="meta.media.height">1080</property>
  <property name="meta.media.color_range">mpeg</property>
  <property name="xml">was here</property>
  <property name="meta.media.top_field_first">0</property>
  <property name="meta.media.progressive">1</property>
  <property name="set.test_audio">1</property>
  <property name="set.test_image">0</property>
 </chain>
 <producer id="producer1" in="00:00:00.000" out="00:11:57.349">
  <property name="length">17200</property>
  <property name="eof">pause</property>
  <property name="resource">2.000000:/mnt/data0/Monster/Monster-Editing/Blu-Ray/Encoded/Ep01-av1.mkv</property>
  <property name="aspect_ratio">1</property>
  <property name="meta.media.nb_streams">5</property>
  <property name="meta.media.0.stream.type">video</property>
  <property name="meta.media.0.stream.frame_rate">23.976</property>
  <property name="meta.media.0.stream.sample_aspect_ratio">1</property>
  <property name="meta.media.0.codec.width">1440</property>
  <property name="meta.media.0.codec.height">1080</property>
  <property name="meta.media.0.codec.rotate">0</property>
  <property name="meta.media.0.codec.pix_fmt">yuv420p10le</property>
  <property name="meta.media.0.codec.sample_aspect_ratio">0</property>
  <property name="meta.media.0.codec.colorspace">709</property>
  <property name="meta.media.0.codec.color_trc">1</property>
  <property name="meta.media.0.codec.name">libdav1d</property>
  <property name="meta.media.0.codec.long_name">dav1d AV1 decoder by VideoLAN</property>
  <property name="meta.media.0.codec.bit_rate">0</property>
  <property name="meta.attr.0.stream.ENCODER.markup">Lavc60.3.100 av1_qsv</property>
  <property name="meta.attr.0.stream.DURATION.markup">00:23:54.770000000</property>
  <property name="meta.media.1.stream.type">audio</property>
  <property name="meta.media.1.codec.sample_fmt">fltp</property>
  <property name="meta.media.1.codec.sample_rate">48000</property>
  <property name="meta.media.1.codec.channels">6</property>
  <property name="meta.media.1.codec.name">vorbis</property>
  <property name="meta.media.1.codec.long_name">Vorbis</property>
  <property name="meta.media.1.codec.bit_rate">0</property>
  <property name="meta.attr.1.stream.ENCODER.markup">Lavc60.3.100 libvorbis</property>
  <property name="meta.attr.1.stream.DURATION.markup">00:23:54.776000000</property>
  <property name="meta.media.2.stream.type">audio</property>
  <property name="meta.media.2.codec.sample_fmt">fltp</property>
  <property name="meta.media.2.codec.sample_rate">48000</property>
  <property name="meta.media.2.codec.channels">2</property>
  <property name="meta.media.2.codec.name">opus</property>
  <property name="meta.media.2.codec.long_name">Opus</property>
  <property name="meta.media.2.codec.bit_rate">0</property>
  <property name="meta.attr.2.stream.ENCODER.markup">Lavc60.3.100 libopus</property>
  <property name="meta.attr.2.stream.DURATION.markup">00:23:54.784000000</property>
  <property name="meta.media.3.codec.name">pgssub</property>
  <property name="meta.media.3.codec.long_name">HDMV Presentation Graphic Stream subtitles</property>
  <property name="meta.media.3.codec.bit_rate">0</property>
  <property name="meta.attr.3.stream.DURATION.markup">00:23:54.770000000</property>
  <property name="meta.media.4.codec.name">pgssub</property>
  <property name="meta.media.4.codec.long_name">HDMV Presentation Graphic Stream subtitles</property>
  <property name="meta.media.4.codec.bit_rate">0</property>
  <property name="meta.attr.4.stream.DURATION.markup">00:23:54.770000000</property>
  <property name="meta.attr.ENCODER.markup">Lavf60.3.100</property>
  <property name="seekable">1</property>
  <property name="meta.media.sample_aspect_num">1</property>
  <property name="meta.media.sample_aspect_den">1</property>
  <property name="format">3</property>
  <property name="audio_index">1</property>
  <property name="video_index">0</property>
  <property name="warp_speed">2</property>
  <property name="warp_resource">/mnt/data0/Monster/Monster-Editing/Blu-Ray/Encoded/Ep01-av1.mkv</property>
  <property name="mlt_service">timewarp</property>
  <property name="kdenlive:proxy">-</property>
  <property name="kdenlive:originalurl">/mnt/data0/Monster/Monster-Editing/Blu-Ray/Encoded/Ep01-av1.mkv</property>
  <property name="vstream">0</property>
  <property name="astream">0</property>
  <property name="set.test_audio">1</property>
  <property name="set.test_image">0</property>
  <property name="kdenlive:id">2</property>
  <property name="warp_pitch">0</property>
  <property name="meta.media.frame_rate_num">24000</property>
  <property name="meta.media.frame_rate_den">1001</property>
  <property name="meta.media.colorspace">709</property>
  <property name="meta.media.color_trc">1</property>
  <property name="meta.media.has_b_frames">0</property>
  <property name="meta.media.width">1440</property>
  <property name="meta.media.height">1080</property>
  <property name="meta.media.color_range">mpeg</property>
  <property name="meta.media.top_field_first">0</property>
  <property name="meta.media.progressive">1</property>
 </producer>
 <chain id="chain17" out="00:23:55.472">
  <property name="length">34417</property>
  <property name="eof">pause</property>
  <property name="resource">/mnt/data0/Monster/Monster-Editing/Blu-Ray/Encoded/Ep02-av1.mkv</property>
  <property name="mlt_service">avformat-novalidate</property>
  <property name="seekable">1</property>
  <property name="format">3</property>
  <property name="audio_index">1</property>
  <property name="video_index">0</property>
  <property name="vstream">0</property>
  <property name="astream">0</property>
  <property name="kdenlive:proxy">-</property>
  <property name="kdenlive:originalurl">/mnt/data0/Monster/Monster-Editing/Blu-Ray/Encoded/Ep02-av1.mkv</property>
  <property name="kdenlive:id">4</property>
  <property name="mute_on_pause">0</property>
  <property name="kdenlive:active_streams">1;2</property>
  <property name="kdenlive:clip_type">0</property>
  <property name="kdenlive:file_size">960398509</property>
  <property name="kdenlive:file_hash">60fcf1bc1f10b591760efe966b9b77ca</property>
  <property name="kdenlive:folderid">-1</property>
  <property name="meta.media.nb_streams">5</property>
  <property name="meta.media.0.stream.type">video</property>
  <property name="meta.media.0.stream.frame_rate">23.976</property>
  <property name="meta.media.0.stream.sample_aspect_ratio">1</property>
  <property name="meta.media.0.codec.width">1440</property>
  <property name="meta.media.0.codec.height">1080</property>
  <property name="meta.media.0.codec.rotate">0</property>
  <property name="meta.media.0.codec.pix_fmt">yuv420p10le</property>
  <property name="meta.media.0.codec.sample_aspect_ratio">0</property>
  <property name="meta.media.0.codec.colorspace">709</property>
  <property name="meta.media.0.codec.color_trc">1</property>
  <property name="meta.media.0.codec.name">libdav1d</property>
  <property name="meta.media.0.codec.long_name">dav1d AV1 decoder by VideoLAN</property>
  <property name="meta.media.0.codec.bit_rate">0</property>
  <property name="meta.attr.0.stream.ENCODER.markup">Lavc60.3.100 av1_qsv</property>
  <property name="meta.attr.0.stream.DURATION.markup">00:23:55.479000000</property>
  <property name="meta.media.1.stream.type">audio</property>
  <property name="meta.media.1.codec.sample_fmt">fltp</property>
  <property name="meta.media.1.codec.sample_rate">48000</property>
  <property name="meta.media.1.codec.channels">6</property>
  <property name="meta.media.1.codec.name">vorbis</property>
  <property name="meta.media.1.codec.long_name">Vorbis</property>
  <property name="meta.media.1.codec.bit_rate">0</property>
  <property name="meta.attr.1.stream.ENCODER.markup">Lavc60.3.100 libvorbis</property>
  <property name="meta.attr.1.stream.DURATION.markup">00:23:55.480000000</property>
  <property name="meta.media.2.stream.type">audio</property>
  <property name="meta.media.2.codec.sample_fmt">fltp</property>
  <property name="meta.media.2.codec.sample_rate">48000</property>
  <property name="meta.media.2.codec.channels">2</property>
  <property name="meta.media.2.codec.name">opus</property>
  <property name="meta.media.2.codec.long_name">Opus</property>
  <property name="meta.media.2.codec.bit_rate">0</property>
  <property name="meta.attr.2.stream.ENCODER.markup">Lavc60.3.100 libopus</property>
  <property name="meta.attr.2.stream.DURATION.markup">00:23:55.488000000</property>
  <property name="meta.media.3.codec.name">pgssub</property>
  <property name="meta.media.3.codec.long_name">HDMV Presentation Graphic Stream subtitles</property>
  <property name="meta.media.3.codec.bit_rate">0</property>
  <property name="meta.attr.3.stream.DURATION.markup">00:23:54.436000000</property>
  <property name="meta.media.4.codec.name">pgssub</property>
  <property name="meta.media.4.codec.long_name">HDMV Presentation Graphic Stream subtitles</property>
  <property name="meta.media.4.codec.bit_rate">0</property>
  <property name="meta.attr.4.stream.DURATION.markup">00:23:54.436000000</property>
  <property name="meta.attr.ENCODER.markup">Lavf60.3.100</property>
  <property name="meta.media.sample_aspect_num">1</property>
  <property name="meta.media.sample_aspect_den">1</property>
  <property name="meta.media.frame_rate_num">24000</property>
  <property name="meta.media.frame_rate_den">1001</property>
  <property name="meta.media.colorspace">709</property>
  <property name="meta.media.color_trc">1</property>
  <property name="meta.media.has_b_frames">0</property>
  <property name="meta.media.width">1440</property>
  <property name="meta.media.height">1080</property>
  <property name="meta.media.color_range">mpeg</property>
  <property name="xml">was here</property>
  <property name="meta.media.top_field_first">0</property>
  <property name="meta.media.progressive">1</property>
  <property name="set.test_audio">1</property>
  <property name="set.test_image">0</property>
 </chain>
 <producer id="producer2" in="00:00:00.000" out="00:11:38.622">
  <property name="length">16751</property>
  <property name="eof">pause</property>
  <property name="resource">2.054600:/mnt/data0/Monster/Monster-Editing/Blu-Ray/Encoded/Ep02-av1.mkv</property>
  <property name="aspect_ratio">1</property>
  <property name="meta.media.nb_streams">5</property>
  <property name="meta.media.0.stream.type">video</property>
  <property name="meta.media.0.stream.frame_rate">23.976</property>
  <property name="meta.media.0.stream.sample_aspect_ratio">1</property>
  <property name="meta.media.0.codec.width">1440</property>
  <property name="meta.media.0.codec.height">1080</property>
  <property name="meta.media.0.codec.rotate">0</property>
  <property name="meta.media.0.codec.pix_fmt">yuv420p10le</property>
  <property name="meta.media.0.codec.sample_aspect_ratio">0</property>
  <property name="meta.media.0.codec.colorspace">709</property>
  <property name="meta.media.0.codec.color_trc">1</property>
  <property name="meta.media.0.codec.name">libdav1d</property>
  <property name="meta.media.0.codec.long_name">dav1d AV1 decoder by VideoLAN</property>
  <property name="meta.media.0.codec.bit_rate">0</property>
  <property name="meta.attr.0.stream.ENCODER.markup">Lavc60.3.100 av1_qsv</property>
  <property name="meta.attr.0.stream.DURATION.markup">00:23:55.479000000</property>
  <property name="meta.media.1.stream.type">audio</property>
  <property name="meta.media.1.codec.sample_fmt">fltp</property>
  <property name="meta.media.1.codec.sample_rate">48000</property>
  <property name="meta.media.1.codec.channels">6</property>
  <property name="meta.media.1.codec.name">vorbis</property>
  <property name="meta.media.1.codec.long_name">Vorbis</property>
  <property name="meta.media.1.codec.bit_rate">0</property>
  <property name="meta.attr.1.stream.ENCODER.markup">Lavc60.3.100 libvorbis</property>
  <property name="meta.attr.1.stream.DURATION.markup">00:23:55.480000000</property>
  <property name="meta.media.2.stream.type">audio</property>
  <property name="meta.media.2.codec.sample_fmt">fltp</property>
  <property name="meta.media.2.codec.sample_rate">48000</property>
  <property name="meta.media.2.codec.channels">2</property>
  <property name="meta.media.2.codec.name">opus</property>
  <property name="meta.media.2.codec.long_name">Opus</property>
  <property name="meta.media.2.codec.bit_rate">0</property>
  <property name="meta.attr.2.stream.ENCODER.markup">Lavc60.3.100 libopus</property>
  <property name="meta.attr.2.stream.DURATION.markup">00:23:55.488000000</property>
  <property name="meta.media.3.codec.name">pgssub</property>
  <property name="meta.media.3.codec.long_name">HDMV Presentation Graphic Stream subtitles</property>
  <property name="meta.media.3.codec.bit_rate">0</property>
  <property name="meta.attr.3.stream.DURATION.markup">00:23:54.436000000</property>
  <property name="meta.media.4.codec.name">pgssub</property>
  <property name="meta.media.4.codec.long_name">HDMV Presentation Graphic Stream subtitles</property>
  <property name="meta.media.4.codec.bit_rate">0</property>
  <property name="meta.attr.4.stream.DURATION.markup">00:23:54.436000000</property>
  <property name="meta.attr.ENCODER.markup">Lavf60.3.100</property>
  <property name="seekable">1</property>
  <property name="meta.media.sample_aspect_num">1</property>
  <property name="meta.media.sample_aspect_den">1</property>
  <property name="format">3</property>
  <property name="audio_index">1</property>
  <property name="video_index">0</property>
  <property name="warp_speed">2.0546</property>
  <property name="warp_resource">/mnt/data0/Monster/Monster-Editing/Blu-Ray/Encoded/Ep02-av1.mkv</property>
  <property name="mlt_service">timewarp</property>
  <property name="kdenlive:proxy">-</property>
  <property name="kdenlive:originalurl">/mnt/data0/Monster/Monster-Editing/Blu-Ray/Encoded/Ep02-av1.mkv</property>
  <property name="vstream">0</property>
  <property name="astream">0</property>
  <property name="set.test_audio">1</property>
  <property name="set.test_image">0</property>
  <property name="kdenlive:id">4</property>
  <property name="warp_pitch">0</property>
 </producer>
 <producer id="producer3" in="00:00:00.000" out="00:03:59.226">
  <property name="length">5736</property>
  <property name="eof">pause</property>
  <property name="resource">6.000000:/mnt/data0/Monster/Monster-Editing/Blu-Ray/Encoded/Ep02-av1.mkv</property>
  <property name="aspect_ratio">1</property>
  <property name="meta.media.nb_streams">5</property>
  <property name="meta.media.0.stream.type">video</property>
  <property name="meta.media.0.stream.frame_rate">23.976</property>
  <property name="meta.media.0.stream.sample_aspect_ratio">1</property>
  <property name="meta.media.0.codec.width">1440</property>
  <property name="meta.media.0.codec.height">1080</property>
  <property name="meta.media.0.codec.rotate">0</property>
  <property name="meta.media.0.codec.pix_fmt">yuv420p10le</property>
  <property name="meta.media.0.codec.sample_aspect_ratio">0</property>
  <property name="meta.media.0.codec.colorspace">709</property>
  <property name="meta.media.0.codec.color_trc">1</property>
  <property name="meta.media.0.codec.name">libdav1d</property>
  <property name="meta.media.0.codec.long_name">dav1d AV1 decoder by VideoLAN</property>
  <property name="meta.media.0.codec.bit_rate">0</property>
  <property name="meta.attr.0.stream.ENCODER.markup">Lavc60.3.100 av1_qsv</property>
  <property name="meta.attr.0.stream.DURATION.markup">00:23:55.479000000</property>
  <property name="meta.media.1.stream.type">audio</property>
  <property name="meta.media.1.codec.sample_fmt">fltp</property>
  <property name="meta.media.1.codec.sample_rate">48000</property>
  <property name="meta.media.1.codec.channels">6</property>
  <property name="meta.media.1.codec.name">vorbis</property>
  <property name="meta.media.1.codec.long_name">Vorbis</property>
  <property name="meta.media.1.codec.bit_rate">0</property>
  <property name="meta.attr.1.stream.ENCODER.markup">Lavc60.3.100 libvorbis</property>
  <property name="meta.attr.1.stream.DURATION.markup">00:23:55.480000000</property>
  <property name="meta.media.2.stream.type">audio</property>
  <property name="meta.media.2.codec.sample_fmt">fltp</property>
  <property name="meta.media.2.codec.sample_rate">48000</property>
  <property name="meta.media.2.codec.channels">2</property>
  <property name="meta.media.2.codec.name">opus</property>
  <property name="meta.media.2.codec.long_name">Opus</property>
  <property name="meta.media.2.codec.bit_rate">0</property>
  <property name="meta.attr.2.stream.ENCODER.markup">Lavc60.3.100 libopus</property>
  <property name="meta.attr.2.stream.DURATION.markup">00:23:55.488000000</property>
  <property name="meta.media.3.codec.name">pgssub</property>
  <property name="meta.media.3.codec.long_name">HDMV Presentation Graphic Stream subtitles</property>
  <property name="meta.media.3.codec.bit_rate">0</property>
  <property name="meta.attr.3.stream.DURATION.markup">00:23:54.436000000</property>
  <property name="meta.media.4.codec.name">pgssub</property>
  <property name="meta.media.4.codec.long_name">HDMV Presentation Graphic Stream subtitles</property>
  <property name="meta.media.4.codec.bit_rate">0</property>
  <property name="meta.attr.4.stream.DURATION.markup">00:23:54.436000000</property>
  <property name="meta.attr.ENCODER.markup">Lavf60.3.100</property>
  <property name="seekable">1</property>
  <property name="meta.media.sample_aspect_num">1</property>
  <property name="meta.media.sample_aspect_den">1</property>
  <property name="format">3</property>
  <property name="audio_index">1</property>
  <property name="video_index">0</property>
  <property name="warp_speed">6</property>
  <property name="warp_resource">/mnt/data0/Monster/Monster-Editing/Blu-Ray/Encoded/Ep02-av1.mkv</property>
  <property name="mlt_service">timewarp</property>
  <property name="kdenlive:proxy">-</property>
  <property name="kdenlive:originalurl">/mnt/data0/Monster/Monster-Editing/Blu-Ray/Encoded/Ep02-av1.mkv</property>
  <property name="vstream">0</property>
  <property name="astream">0</property>
  <property name="set.test_audio">1</property>
  <property name="set.test_image">0</property>
  <property name="kdenlive:id">4</property>
  <property name="warp_pitch">0</property>
 </producer>
 <producer id="producer4" in="00:00:00.000" out="00:09:34.159">
  <property name="length">13767</property>
  <property name="eof">pause</property>
  <property name="resource">2.500000:/mnt/data0/Monster/Monster-Editing/Blu-Ray/Encoded/Ep02-av1.mkv</property>
  <property name="aspect_ratio">1</property>
  <property name="meta.media.nb_streams">5</property>
  <property name="meta.media.0.stream.type">video</property>
  <property name="meta.media.0.stream.frame_rate">23.976</property>
  <property name="meta.media.0.stream.sample_aspect_ratio">1</property>
  <property name="meta.media.0.codec.width">1440</property>
  <property name="meta.media.0.codec.height">1080</property>
  <property name="meta.media.0.codec.rotate">0</property>
  <property name="meta.media.0.codec.pix_fmt">yuv420p10le</property>
  <property name="meta.media.0.codec.sample_aspect_ratio">0</property>
  <property name="meta.media.0.codec.colorspace">709</property>
  <property name="meta.media.0.codec.color_trc">1</property>
  <property name="meta.media.0.codec.name">libdav1d</property>
  <property name="meta.media.0.codec.long_name">dav1d AV1 decoder by VideoLAN</property>
  <property name="meta.media.0.codec.bit_rate">0</property>
  <property name="meta.attr.0.stream.ENCODER.markup">Lavc60.3.100 av1_qsv</property>
  <property name="meta.attr.0.stream.DURATION.markup">00:23:55.479000000</property>
  <property name="meta.media.1.stream.type">audio</property>
  <property name="meta.media.1.codec.sample_fmt">fltp</property>
  <property name="meta.media.1.codec.sample_rate">48000</property>
  <property name="meta.media.1.codec.channels">6</property>
  <property name="meta.media.1.codec.name">vorbis</property>
  <property name="meta.media.1.codec.long_name">Vorbis</property>
  <property name="meta.media.1.codec.bit_rate">0</property>
  <property name="meta.attr.1.stream.ENCODER.markup">Lavc60.3.100 libvorbis</property>
  <property name="meta.attr.1.stream.DURATION.markup">00:23:55.480000000</property>
  <property name="meta.media.2.stream.type">audio</property>
  <property name="meta.media.2.codec.sample_fmt">fltp</property>
  <property name="meta.media.2.codec.sample_rate">48000</property>
  <property name="meta.media.2.codec.channels">2</property>
  <property name="meta.media.2.codec.name">opus</property>
  <property name="meta.media.2.codec.long_name">Opus</property>
  <property name="meta.media.2.codec.bit_rate">0</property>
  <property name="meta.attr.2.stream.ENCODER.markup">Lavc60.3.100 libopus</property>
  <property name="meta.attr.2.stream.DURATION.markup">00:23:55.488000000</property>
  <property name="meta.media.3.codec.name">pgssub</property>
  <property name="meta.media.3.codec.long_name">HDMV Presentation Graphic Stream subtitles</property>
  <property name="meta.media.3.codec.bit_rate">0</property>
  <property name="meta.attr.3.stream.DURATION.markup">00:23:54.436000000</property>
  <property name="meta.media.4.codec.name">pgssub</property>
  <property name="meta.media.4.codec.long_name">HDMV Presentation Graphic Stream subtitles</property>
  <property name="meta.media.4.codec.bit_rate">0</property>
  <property name="meta.attr.4.stream.DURATION.markup">00:23:54.436000000</property>
  <property name="meta.attr.ENCODER.markup">Lavf60.3.100</property>
  <property name="seekable">1</property>
  <property name="meta.media.sample_aspect_num">1</property>
  <property name="meta.media.sample_aspect_den">1</property>
  <property name="format">3</property>
  <property name="audio_index">1</property>
  <property name="video_index">0</property>
  <property name="warp_speed">2.5</property>
  <property name="warp_resource">/mnt/data0/Monster/Monster-Editing/Blu-Ray/Encoded/Ep02-av1.mkv</property>
  <property name="mlt_service">timewarp</property>
  <property name="kdenlive:proxy">-</property>
  <property name="kdenlive:originalurl">/mnt/data0/Monster/Monster-Editing/Blu-Ray/Encoded/Ep02-av1.mkv</property>
  <property name="vstream">0</property>
  <property name="astream">0</property>
  <property name="set.test_audio">1</property>
  <property name="set.test_image">0</property>
  <property name="kdenlive:id">4</property>
  <property name="warp_pitch">0</property>
 </producer>
 <chain id="chain18" out="00:23:55.430">
  <property name="length">34416</property>
  <property name="eof">pause</property>
  <property name="resource">/mnt/data0/Monster/Monster-Editing/Blu-Ray/Encoded/Ep03-av1.mkv</property>
  <property name="mlt_service">avformat-novalidate</property>
  <property name="seekable">1</property>
  <property name="format">3</property>
  <property name="audio_index">1</property>
  <property name="video_index">0</property>
  <property name="vstream">0</property>
  <property name="astream">0</property>
  <property name="kdenlive:proxy">-</property>
  <property name="kdenlive:originalurl">/mnt/data0/Monster/Monster-Editing/Blu-Ray/Encoded/Ep03-av1.mkv</property>
  <property name="kdenlive:id">6</property>
  <property name="mute_on_pause">0</property>
  <property name="kdenlive:active_streams">1;2</property>
  <property name="kdenlive:clip_type">0</property>
  <property name="kdenlive:file_size">1220460611</property>
  <property name="kdenlive:file_hash">87f8c1299f4a9023e523b251a22fe147</property>
  <property name="kdenlive:folderid">-1</property>
  <property name="meta.media.nb_streams">5</property>
  <property name="meta.media.0.stream.type">video</property>
  <property name="meta.media.0.stream.frame_rate">23.976</property>
  <property name="meta.media.0.stream.sample_aspect_ratio">1</property>
  <property name="meta.media.0.codec.width">1440</property>
  <property name="meta.media.0.codec.height">1080</property>
  <property name="meta.media.0.codec.rotate">0</property>
  <property name="meta.media.0.codec.pix_fmt">yuv420p10le</property>
  <property name="meta.media.0.codec.sample_aspect_ratio">0</property>
  <property name="meta.media.0.codec.colorspace">709</property>
  <property name="meta.media.0.codec.color_trc">1</property>
  <property name="meta.media.0.codec.name">libdav1d</property>
  <property name="meta.media.0.codec.long_name">dav1d AV1 decoder by VideoLAN</property>
  <property name="meta.media.0.codec.bit_rate">0</property>
  <property name="meta.attr.0.stream.ENCODER.markup">Lavc60.3.100 av1_qsv</property>
  <property name="meta.attr.0.stream.DURATION.markup">00:23:55.437000000</property>
  <property name="meta.media.1.stream.type">audio</property>
  <property name="meta.media.1.codec.sample_fmt">fltp</property>
  <property name="meta.media.1.codec.sample_rate">48000</property>
  <property name="meta.media.1.codec.channels">6</property>
  <property name="meta.media.1.codec.name">vorbis</property>
  <property name="meta.media.1.codec.long_name">Vorbis</property>
  <property name="meta.media.1.codec.bit_rate">0</property>
  <property name="meta.attr.1.stream.ENCODER.markup">Lavc60.3.100 libvorbis</property>
  <property name="meta.attr.1.stream.DURATION.markup">00:23:55.438000000</property>
  <property name="meta.media.2.stream.type">audio</property>
  <property name="meta.media.2.codec.sample_fmt">fltp</property>
  <property name="meta.media.2.codec.sample_rate">48000</property>
  <property name="meta.media.2.codec.channels">2</property>
  <property name="meta.media.2.codec.name">opus</property>
  <property name="meta.media.2.codec.long_name">Opus</property>
  <property name="meta.media.2.codec.bit_rate">0</property>
  <property name="meta.attr.2.stream.ENCODER.markup">Lavc60.3.100 libopus</property>
  <property name="meta.attr.2.stream.DURATION.markup">00:23:55.445000000</property>
  <property name="meta.media.3.codec.name">pgssub</property>
  <property name="meta.media.3.codec.long_name">HDMV Presentation Graphic Stream subtitles</property>
  <property name="meta.media.3.codec.bit_rate">0</property>
  <property name="meta.attr.3.stream.DURATION.markup">00:23:54.353000000</property>
  <property name="meta.media.4.codec.name">pgssub</property>
  <property name="meta.media.4.codec.long_name">HDMV Presentation Graphic Stream subtitles</property>
  <property name="meta.media.4.codec.bit_rate">0</property>
  <property name="meta.attr.4.stream.DURATION.markup">00:23:54.353000000</property>
  <property name="meta.attr.ENCODER.markup">Lavf60.3.100</property>
  <property name="meta.media.sample_aspect_num">1</property>
  <property name="meta.media.sample_aspect_den">1</property>
  <property name="meta.media.frame_rate_num">24000</property>
  <property name="meta.media.frame_rate_den">1001</property>
  <property name="meta.media.colorspace">709</property>
  <property name="meta.media.color_trc">1</property>
  <property name="meta.media.has_b_frames">0</property>
  <property name="meta.media.width">1440</property>
  <property name="meta.media.height">1080</property>
  <property name="meta.media.color_range">mpeg</property>
  <property name="xml">was here</property>
  <property name="meta.media.top_field_first">0</property>
  <property name="meta.media.progressive">1</property>
  <property name="set.test_audio">1</property>
  <property name="set.test_image">0</property>
 </chain>
 <chain id="chain19" out="00:23:55.430">
  <property name="length">34416</property>
  <property name="eof">pause</property>
  <property name="resource">/mnt/data0/Monster/Monster-Editing/Blu-Ray/Encoded/Ep04-av1.mkv</property>
  <property name="mlt_service">avformat-novalidate</property>
  <property name="seekable">1</property>
  <property name="format">3</property>
  <property name="audio_index">1</property>
  <property name="video_index">0</property>
  <property name="vstream">0</property>
  <property name="astream">0</property>
  <property name="kdenlive:proxy">-</property>
  <property name="kdenlive:originalurl">/mnt/data0/Monster/Monster-Editing/Blu-Ray/Encoded/Ep04-av1.mkv</property>
  <property name="kdenlive:id">8</property>
  <property name="mute_on_pause">0</property>
  <property name="kdenlive:active_streams">1;2</property>
  <property name="kdenlive:clip_type">0</property>
  <property name="kdenlive:file_size">767948903</property>
  <property name="kdenlive:file_hash">2b3e1e7eeb7eb701e746d3b47d529bba</property>
  <property name="kdenlive:folderid">-1</property>
  <property name="meta.media.nb_streams">5</property>
  <property name="meta.media.0.stream.type">video</property>
  <property name="meta.media.0.stream.frame_rate">23.976</property>
  <property name="meta.media.0.stream.sample_aspect_ratio">1</property>
  <property name="meta.media.0.codec.width">1440</property>
  <property name="meta.media.0.codec.height">1080</property>
  <property name="meta.media.0.codec.rotate">0</property>
  <property name="meta.media.0.codec.pix_fmt">yuv420p10le</property>
  <property name="meta.media.0.codec.sample_aspect_ratio">0</property>
  <property name="meta.media.0.codec.colorspace">709</property>
  <property name="meta.media.0.codec.color_trc">1</property>
  <property name="meta.media.0.codec.name">libdav1d</property>
  <property name="meta.media.0.codec.long_name">dav1d AV1 decoder by VideoLAN</property>
  <property name="meta.media.0.codec.bit_rate">0</property>
  <property name="meta.attr.0.stream.ENCODER.markup">Lavc60.3.100 av1_qsv</property>
  <property name="meta.attr.0.stream.DURATION.markup">00:23:55.437000000</property>
  <property name="meta.media.1.stream.type">audio</property>
  <property name="meta.media.1.codec.sample_fmt">fltp</property>
  <property name="meta.media.1.codec.sample_rate">48000</property>
  <property name="meta.media.1.codec.channels">6</property>
  <property name="meta.media.1.codec.name">vorbis</property>
  <property name="meta.media.1.codec.long_name">Vorbis</property>
  <property name="meta.media.1.codec.bit_rate">0</property>
  <property name="meta.attr.1.stream.ENCODER.markup">Lavc60.3.100 libvorbis</property>
  <property name="meta.attr.1.stream.DURATION.markup">00:23:55.437000000</property>
  <property name="meta.media.2.stream.type">audio</property>
  <property name="meta.media.2.codec.sample_fmt">fltp</property>
  <property name="meta.media.2.codec.sample_rate">48000</property>
  <property name="meta.media.2.codec.channels">2</property>
  <property name="meta.media.2.codec.name">opus</property>
  <property name="meta.media.2.codec.long_name">Opus</property>
  <property name="meta.media.2.codec.bit_rate">0</property>
  <property name="meta.attr.2.stream.ENCODER.markup">Lavc60.3.100 libopus</property>
  <property name="meta.attr.2.stream.DURATION.markup">00:23:55.445000000</property>
  <property name="meta.media.3.codec.name">pgssub</property>
  <property name="meta.media.3.codec.long_name">HDMV Presentation Graphic Stream subtitles</property>
  <property name="meta.media.3.codec.bit_rate">0</property>
  <property name="meta.attr.3.stream.DURATION.markup">00:23:54.353000000</property>
  <property name="meta.media.4.codec.name">pgssub</property>
  <property name="meta.media.4.codec.long_name">HDMV Presentation Graphic Stream subtitles</property>
  <property name="meta.media.4.codec.bit_rate">0</property>
  <property name="meta.attr.4.stream.DURATION.markup">00:23:54.311000000</property>
  <property name="meta.attr.ENCODER.markup">Lavf60.3.100</property>
  <property name="meta.media.sample_aspect_num">1</property>
  <property name="meta.media.sample_aspect_den">1</property>
  <property name="meta.media.frame_rate_num">24000</property>
  <property name="meta.media.frame_rate_den">1001</property>
  <property name="meta.media.colorspace">709</property>
  <property name="meta.media.color_trc">1</property>
  <property name="meta.media.has_b_frames">0</property>
  <property name="meta.media.width">1440</property>
  <property name="meta.media.height">1080</property>
  <property name="meta.media.color_range">mpeg</property>
  <property name="xml">was here</property>
  <property name="meta.media.top_field_first">0</property>
  <property name="meta.media.progressive">1</property>
  <property name="set.test_audio">1</property>
  <property name="set.test_image">0</property>
 </chain>
 <chain id="chain22" out="00:23:55.597">
  <property name="length">34420</property>
  <property name="eof">pause</property>
  <property name="resource">/mnt/data0/Monster/Monster-Editing/Blu-Ray/Encoded/Ep23-av1.mkv</property>
  <property name="mlt_service">avformat-novalidate</property>
  <property name="seekable">1</property>
  <property name="format">3</property>
  <property name="audio_index">1</property>
  <property name="video_index">0</property>
  <property name="vstream">0</property>
  <property name="astream">0</property>
  <property name="kdenlive:proxy">-</property>
  <property name="kdenlive:originalurl">/mnt/data0/Monster/Monster-Editing/Blu-Ray/Encoded/Ep23-av1.mkv</property>
  <property name="kdenlive:multistreams">1</property>
  <property name="kdenlive:id">10</property>
  <property name="mute_on_pause">0</property>
  <property name="kdenlive:active_streams">1;2</property>
  <property name="kdenlive:clip_type">0</property>
  <property name="kdenlive:file_size">939030150</property>
  <property name="kdenlive:file_hash">2f3024c2bf7d09c147fc41c4d010cedd</property>
  <property name="kdenlive:folderid">-1</property>
  <property name="meta.media.nb_streams">5</property>
  <property name="meta.media.0.stream.type">video</property>
  <property name="meta.media.0.stream.frame_rate">23.976</property>
  <property name="meta.media.0.stream.sample_aspect_ratio">1</property>
  <property name="meta.media.0.codec.width">1440</property>
  <property name="meta.media.0.codec.height">1080</property>
  <property name="meta.media.0.codec.rotate">0</property>
  <property name="meta.media.0.codec.pix_fmt">yuv420p10le</property>
  <property name="meta.media.0.codec.sample_aspect_ratio">0</property>
  <property name="meta.media.0.codec.colorspace">709</property>
  <property name="meta.media.0.codec.color_trc">1</property>
  <property name="meta.media.0.codec.name">libdav1d</property>
  <property name="meta.media.0.codec.long_name">dav1d AV1 decoder by VideoLAN</property>
  <property name="meta.media.0.codec.bit_rate">0</property>
  <property name="meta.attr.0.stream.ENCODER.markup">Lavc60.3.100 av1_qsv</property>
  <property name="meta.attr.0.stream.DURATION.markup">00:23:55.604000000</property>
  <property name="meta.media.1.stream.type">audio</property>
  <property name="meta.media.1.codec.sample_fmt">fltp</property>
  <property name="meta.media.1.codec.sample_rate">48000</property>
  <property name="meta.media.1.codec.channels">6</property>
  <property name="meta.media.1.codec.name">vorbis</property>
  <property name="meta.media.1.codec.long_name">Vorbis</property>
  <property name="meta.media.1.codec.bit_rate">0</property>
  <property name="meta.attr.1.stream.ENCODER.markup">Lavc60.3.100 libvorbis</property>
  <property name="meta.attr.1.stream.DURATION.markup">00:23:55.608000000</property>
  <property name="meta.media.2.stream.type">audio</property>
  <property name="meta.media.2.codec.sample_fmt">fltp</property>
  <property name="meta.media.2.codec.sample_rate">48000</property>
  <property name="meta.media.2.codec.channels">2</property>
  <property name="meta.media.2.codec.name">opus</property>
  <property name="meta.media.2.codec.long_name">Opus</property>
  <property name="meta.media.2.codec.bit_rate">0</property>
  <property name="meta.attr.2.stream.ENCODER.markup">Lavc60.3.100 libopus</property>
  <property name="meta.attr.2.stream.DURATION.markup">00:23:55.616000000</property>
  <property name="meta.media.3.codec.name">pgssub</property>
  <property name="meta.media.3.codec.long_name">HDMV Presentation Graphic Stream subtitles</property>
  <property name="meta.media.3.codec.bit_rate">0</property>
  <property name="meta.attr.3.stream.DURATION.markup">00:23:54.519000000</property>
  <property name="meta.media.4.codec.name">pgssub</property>
  <property name="meta.media.4.codec.long_name">HDMV Presentation Graphic Stream subtitles</property>
  <property name="meta.media.4.codec.bit_rate">0</property>
  <property name="meta.attr.4.stream.DURATION.markup">00:23:54.102000000</property>
  <property name="meta.attr.ENCODER.markup">Lavf60.3.100</property>
  <property name="meta.media.sample_aspect_num">1</property>
  <property name="meta.media.sample_aspect_den">1</property>
  <property name="meta.media.frame_rate_num">24000</property>
  <property name="meta.media.frame_rate_den">1001</property>
  <property name="meta.media.colorspace">709</property>
  <property name="meta.media.color_trc">1</property>
  <property name="meta.media.has_b_frames">0</property>
  <property name="meta.media.width">1440</property>
  <property name="meta.media.height">1080</property>
  <property name="meta.media.color_range">mpeg</property>
  <property name="xml">was here</property>
  <property name="meta.media.top_field_first">0</property>
  <property name="meta.media.progressive">1</property>
  <property name="set.test_audio">1</property>
  <property name="set.test_image">0</property>
 </chain>
 <producer id="producer5" in="00:00:00.000" out="00:09:34.117">
  <property name="length">13766</property>
  <property name="eof">pause</property>
  <property name="resource">2.500000:/mnt/data0/Monster/Monster-Editing/Blu-Ray/Encoded/Ep04-av1.mkv</property>
  <property name="aspect_ratio">1</property>
  <property name="meta.media.nb_streams">5</property>
  <property name="meta.media.0.stream.type">video</property>
  <property name="meta.media.0.stream.frame_rate">23.976</property>
  <property name="meta.media.0.stream.sample_aspect_ratio">1</property>
  <property name="meta.media.0.codec.width">1440</property>
  <property name="meta.media.0.codec.height">1080</property>
  <property name="meta.media.0.codec.rotate">0</property>
  <property name="meta.media.0.codec.pix_fmt">yuv420p10le</property>
  <property name="meta.media.0.codec.sample_aspect_ratio">0</property>
  <property name="meta.media.0.codec.colorspace">709</property>
  <property name="meta.media.0.codec.color_trc">1</property>
  <property name="meta.media.0.codec.name">libdav1d</property>
  <property name="meta.media.0.codec.long_name">dav1d AV1 decoder by VideoLAN</property>
  <property name="meta.media.0.codec.bit_rate">0</property>
  <property name="meta.attr.0.stream.ENCODER.markup">Lavc60.3.100 av1_qsv</property>
  <property name="meta.attr.0.stream.DURATION.markup">00:23:55.437000000</property>
  <property name="meta.media.1.stream.type">audio</property>
  <property name="meta.media.1.codec.sample_fmt">fltp</property>
  <property name="meta.media.1.codec.sample_rate">48000</property>
  <property name="meta.media.1.codec.channels">6</property>
  <property name="meta.media.1.codec.name">vorbis</property>
  <property name="meta.media.1.codec.long_name">Vorbis</property>
  <property name="meta.media.1.codec.bit_rate">0</property>
  <property name="meta.attr.1.stream.ENCODER.markup">Lavc60.3.100 libvorbis</property>
  <property name="meta.attr.1.stream.DURATION.markup">00:23:55.437000000</property>
  <property name="meta.media.2.stream.type">audio</property>
  <property name="meta.media.2.codec.sample_fmt">fltp</property>
  <property name="meta.media.2.codec.sample_rate">48000</property>
  <property name="meta.media.2.codec.channels">2</property>
  <property name="meta.media.2.codec.name">opus</property>
  <property name="meta.media.2.codec.long_name">Opus</property>
  <property name="meta.media.2.codec.bit_rate">0</property>
  <property name="meta.attr.2.stream.ENCODER.markup">Lavc60.3.100 libopus</property>
  <property name="meta.attr.2.stream.DURATION.markup">00:23:55.445000000</property>
  <property name="meta.media.3.codec.name">pgssub</property>
  <property name="meta.media.3.codec.long_name">HDMV Presentation Graphic Stream subtitles</property>
  <property name="meta.media.3.codec.bit_rate">0</property>
  <property name="meta.attr.3.stream.DURATION.markup">00:23:54.353000000</property>
  <property name="meta.media.4.codec.name">pgssub</property>
  <property name="meta.media.4.codec.long_name">HDMV Presentation Graphic Stream subtitles</property>
  <property name="meta.media.4.codec.bit_rate">0</property>
  <property name="meta.attr.4.stream.DURATION.markup">00:23:54.311000000</property>
  <property name="meta.attr.ENCODER.markup">Lavf60.3.100</property>
  <property name="seekable">1</property>
  <property name="meta.media.sample_aspect_num">1</property>
  <property name="meta.media.sample_aspect_den">1</property>
  <property name="format">3</property>
  <property name="audio_index">1</property>
  <property name="video_index">0</property>
  <property name="warp_speed">2.5</property>
  <property name="warp_resource">/mnt/data0/Monster/Monster-Editing/Blu-Ray/Encoded/Ep04-av1.mkv</property>
  <property name="mlt_service">timewarp</property>
  <property name="kdenlive:proxy">-</property>
  <property name="kdenlive:originalurl">/mnt/data0/Monster/Monster-Editing/Blu-Ray/Encoded/Ep04-av1.mkv</property>
  <property name="vstream">0</property>
  <property name="astream">0</property>
  <property name="set.test_audio">1</property>
  <property name="set.test_image">0</property>
  <property name="kdenlive:id">8</property>
  <property name="warp_pitch">0</property>
 </producer>
 <producer id="producer6" in="00:00:00.000" out="00:09:34.117">
  <property name="length">13766</property>
  <property name="eof">pause</property>
  <property name="resource">2.500000:/mnt/data0/Monster/Monster-Editing/Blu-Ray/Encoded/Ep04-av1.mkv</property>
  <property name="aspect_ratio">1</property>
  <property name="meta.media.nb_streams">5</property>
  <property name="meta.media.0.stream.type">video</property>
  <property name="meta.media.0.stream.frame_rate">23.976</property>
  <property name="meta.media.0.stream.sample_aspect_ratio">1</property>
  <property name="meta.media.0.codec.width">1440</property>
  <property name="meta.media.0.codec.height">1080</property>
  <property name="meta.media.0.codec.rotate">0</property>
  <property name="meta.media.0.codec.pix_fmt">yuv420p10le</property>
  <property name="meta.media.0.codec.sample_aspect_ratio">0</property>
  <property name="meta.media.0.codec.colorspace">709</property>
  <property name="meta.media.0.codec.color_trc">1</property>
  <property name="meta.media.0.codec.name">libdav1d</property>
  <property name="meta.media.0.codec.long_name">dav1d AV1 decoder by VideoLAN</property>
  <property name="meta.media.0.codec.bit_rate">0</property>
  <property name="meta.attr.0.stream.ENCODER.markup">Lavc60.3.100 av1_qsv</property>
  <property name="meta.attr.0.stream.DURATION.markup">00:23:55.437000000</property>
  <property name="meta.media.1.stream.type">audio</property>
  <property name="meta.media.1.codec.sample_fmt">fltp</property>
  <property name="meta.media.1.codec.sample_rate">48000</property>
  <property name="meta.media.1.codec.channels">6</property>
  <property name="meta.media.1.codec.name">vorbis</property>
  <property name="meta.media.1.codec.long_name">Vorbis</property>
  <property name="meta.media.1.codec.bit_rate">0</property>
  <property name="meta.attr.1.stream.ENCODER.markup">Lavc60.3.100 libvorbis</property>
  <property name="meta.attr.1.stream.DURATION.markup">00:23:55.437000000</property>
  <property name="meta.media.2.stream.type">audio</property>
  <property name="meta.media.2.codec.sample_fmt">fltp</property>
  <property name="meta.media.2.codec.sample_rate">48000</property>
  <property name="meta.media.2.codec.channels">2</property>
  <property name="meta.media.2.codec.name">opus</property>
  <property name="meta.media.2.codec.long_name">Opus</property>
  <property name="meta.media.2.codec.bit_rate">0</property>
  <property name="meta.attr.2.stream.ENCODER.markup">Lavc60.3.100 libopus</property>
  <property name="meta.attr.2.stream.DURATION.markup">00:23:55.445000000</property>
  <property name="meta.media.3.codec.name">pgssub</property>
  <property name="meta.media.3.codec.long_name">HDMV Presentation Graphic Stream subtitles</property>
  <property name="meta.media.3.codec.bit_rate">0</property>
  <property name="meta.attr.3.stream.DURATION.markup">00:23:54.353000000</property>
  <property name="meta.media.4.codec.name">pgssub</property>
  <property name="meta.media.4.codec.long_name">HDMV Presentation Graphic Stream subtitles</property>
  <property name="meta.media.4.codec.bit_rate">0</property>
  <property name="meta.attr.4.stream.DURATION.markup">00:23:54.311000000</property>
  <property name="meta.attr.ENCODER.markup">Lavf60.3.100</property>
  <property name="seekable">1</property>
  <property name="meta.media.sample_aspect_num">1</property>
  <property name="meta.media.sample_aspect_den">1</property>
  <property name="format">3</property>
  <property name="audio_index">1</property>
  <property name="video_index">0</property>
  <property name="warp_speed">2.5</property>
  <property name="warp_resource">/mnt/data0/Monster/Monster-Editing/Blu-Ray/Encoded/Ep04-av1.mkv</property>
  <property name="mlt_service">timewarp</property>
  <property name="kdenlive:proxy">-</property>
  <property name="kdenlive:originalurl">/mnt/data0/Monster/Monster-Editing/Blu-Ray/Encoded/Ep04-av1.mkv</property>
  <property name="vstream">0</property>
  <property name="astream">0</property>
  <property name="set.test_audio">1</property>
  <property name="set.test_image">0</property>
  <property name="kdenlive:id">8</property>
  <property name="warp_pitch">0</property>
 </producer>
 <playlist id="playlist8">
  <blank length="00:00:00.042"/>
  <entry producer="chain16" in="00:00:00.000" out="00:01:52.219">
   <property name="kdenlive:id">2</property>
   <filter id="filter180" in="00:01:48.257" out="00:01:52.219">
    <property name="start">1</property>
    <property name="level">1</property>
    <property name="mlt_service">brightness</property>
    <property name="kdenlive_id">fade_to_black</property>
    <property name="alpha">00:00:00.000=1;00:00:03.962=0</property>
    <property name="kdenlive:collapsed">0</property>
   </filter>
  </entry>
  <blank length="00:05:07.174"/>
  <entry producer="chain16" in="00:08:58.267" out="00:09:23.649">
   <property name="kdenlive:id">2</property>
   <filter id="filter181" in="00:08:58.267" out="00:08:59.726">
    <property name="start">1</property>
    <property name="level">1</property>
    <property name="mlt_service">brightness</property>
    <property name="kdenlive_id">fade_from_black</property>
    <property name="alpha">00:00:00.000=0;00:00:01.460=1</property>
    <property name="kdenlive:collapsed">0</property>
   </filter>
  </entry>
  <entry producer="chain16" in="00:09:25.317" out="00:09:36.995">
   <property name="kdenlive:id">2</property>
  </entry>
  <entry producer="chain16" in="00:09:38.080" out="00:10:18.435">
   <property name="kdenlive:id">2</property>
  </entry>
  <entry producer="chain16" in="00:10:18.894" out="00:10:21.271">
   <property name="kdenlive:id">2</property>
  </entry>
  <entry producer="chain16" in="00:10:21.772" out="00:10:24.274">
   <property name="kdenlive:id">2</property>
  </entry>
  <entry producer="chain16" in="00:10:25.192" out="00:10:27.110">
   <property name="kdenlive:id">2</property>
  </entry>
  <entry producer="producer1" in="00:05:15.599" out="00:05:19.353">
   <property name="kdenlive:id">2</property>
  </entry>
  <entry producer="chain16" in="00:10:38.789" out="00:10:40.666">
   <property name="kdenlive:id">2</property>
  </entry>
  <entry producer="chain16" in="00:10:50.133" out="00:11:25.817">
   <property name="kdenlive:id">2</property>
  </entry>
  <entry producer="chain16" in="00:11:28.445" out="00:11:35.535">
   <property name="kdenlive:id">2</property>
  </entry>
  <entry producer="chain16" in="00:11:49.800" out="00:12:38.914">
   <property name="kdenlive:id">2</property>
  </entry>
  <entry producer="chain16" in="00:12:45.504" out="00:13:16.183">
   <property name="kdenlive:id">2</property>
  </entry>
  <entry producer="chain16" in="00:13:16.850" out="00:17:13.513">
   <property name="kdenlive:id">2</property>
  </entry>
  <entry producer="chain16" in="00:17:15.015" out="00:17:19.144">
   <property name="kdenlive:id">2</property>
  </entry>
  <blank length="00:00:00.083"/>
  <entry producer="chain16" in="00:17:25.275" out="00:18:54.596">
   <property name="kdenlive:id">2</property>
  </entry>
  <entry producer="chain16" in="00:18:56.556" out="00:19:18.143">
   <property name="kdenlive:id">2</property>
  </entry>
  <entry producer="chain16" in="00:19:18.769" out="00:20:30.447">
   <property name="kdenlive:id">2</property>
  </entry>
  <entry producer="chain16" in="00:21:16.225" out="00:22:26.610">
   <property name="kdenlive:id">2</property>
   <filter id="filter182" in="00:22:22.189" out="00:22:26.610">
    <property name="start">1</property>
    <property name="level">1</property>
    <property name="mlt_service">brightness</property>
    <property name="kdenlive_id">fade_to_black</property>
    <property name="alpha">00:00:00.000=1;00:00:04.421=0</property>
    <property name="kdenlive:collapsed">0</property>
   </filter>
  </entry>
  <blank length="00:00:45.170"/>
  <entry producer="chain17" in="00:02:18.685" out="00:09:58.850">
   <property name="kdenlive:id">4</property>
   <filter id="filter183" in="00:02:18.685" out="00:02:21.313">
    <property name="start">1</property>
    <property name="level">1</property>
    <property name="mlt_service">brightness</property>
    <property name="kdenlive_id">fade_from_black</property>
    <property name="alpha">00:00:00.000=0;00:00:02.628=1</property>
    <property name="kdenlive:collapsed">0</property>
   </filter>
  </entry>
  <entry producer="chain17" in="00:09:59.184" out="00:10:30.489">
   <property name="kdenlive:id">4</property>
  </entry>
  <entry producer="producer2" in="00:05:07.341" out="00:05:08.508">
   <property name="kdenlive:id">4</property>
  </entry>
  <entry producer="chain17" in="00:10:34.034" out="00:11:08.467">
   <property name="kdenlive:id">4</property>
  </entry>
  <entry producer="chain17" in="00:11:09.676" out="00:11:29.196">
   <property name="kdenlive:id">4</property>
  </entry>
  <entry producer="chain17" in="00:11:38.247" out="00:11:42.709">
   <property name="kdenlive:id">4</property>
  </entry>
  <entry producer="chain17" in="00:11:44.002" out="00:11:44.962">
   <property name="kdenlive:id">4</property>
  </entry>
  <entry producer="chain17" in="00:11:48.590" out="00:11:52.135">
   <property name="kdenlive:id">4</property>
  </entry>
  <entry producer="producer3" in="00:01:58.725" out="00:01:59.351">
   <property name="kdenlive:id">4</property>
  </entry>
  <entry producer="chain17" in="00:11:56.181" out="00:12:20.479">
   <property name="kdenlive:id">4</property>
   <filter id="filter184" in="00:12:19.102" out="00:12:20.479">
    <property name="start">1</property>
    <property name="level">1</property>
    <property name="mlt_service">brightness</property>
    <property name="kdenlive_id">fade_to_black</property>
    <property name="alpha">00:00:00.000=1;00:00:01.376=0</property>
    <property name="kdenlive:collapsed">0</property>
   </filter>
  </entry>
  <blank length="00:01:47.506"/>
  <entry producer="chain17" in="00:14:34.201" out="00:19:52.886">
   <property name="kdenlive:id">4</property>
   <filter id="filter185" in="00:14:34.201" out="00:14:35.994">
    <property name="start">1</property>
    <property name="level">1</property>
    <property name="mlt_service">brightness</property>
    <property name="kdenlive_id">fade_from_black</property>
    <property name="alpha">00:00:00.000=0;00:00:01.793=1</property>
    <property name="kdenlive:collapsed">0</property>
   </filter>
  </entry>
  <blank length="00:01:50.008"/>
  <entry producer="chain17" in="00:21:50.759" out="00:21:52.052">
   <property name="kdenlive:id">4</property>
  </entry>
  <entry producer="chain17" in="00:21:52.261" out="00:22:00.959">
   <property name="kdenlive:id">4</property>
  </entry>
  <entry producer="producer4" in="00:08:48.757" out="00:08:52.552">
   <property name="kdenlive:id">4</property>
  </entry>
  <entry producer="chain17" in="00:22:11.511" out="00:22:26.735">
   <property name="kdenlive:id">4</property>
  </entry>
  <entry producer="chain18" in="00:00:00.000" out="00:00:51.510">
   <property name="kdenlive:id">6</property>
  </entry>
  <entry producer="chain18" in="00:02:20.270" out="00:03:32.991">
   <property name="kdenlive:id">6</property>
  </entry>
  <entry producer="chain18" in="00:03:40.082" out="00:03:55.222">
   <property name="kdenlive:id">6</property>
  </entry>
  <entry producer="chain18" in="00:04:02.669" out="00:06:02.711">
   <property name="kdenlive:id">6</property>
  </entry>
  <entry producer="chain18" in="00:06:04.796" out="00:06:11.053">
   <property name="kdenlive:id">6</property>
  </entry>
  <entry producer="chain18" in="00:06:11.428" out="00:07:28.779">
   <property name="kdenlive:id">6</property>
  </entry>
  <entry producer="chain18" in="00:07:48.048" out="00:10:29.488">
   <property name="kdenlive:id">6</property>
  </entry>
  <entry producer="chain18" in="00:10:46.546" out="00:12:47.047">
   <property name="kdenlive:id">6</property>
  </entry>
  <entry producer="chain18" in="00:12:48.799" out="00:16:47.923">
   <property name="kdenlive:id">6</property>
  </entry>
  <blank length="00:00:02.002"/>
  <entry producer="chain18" in="00:16:48.423" out="00:17:00.375">
   <property name="kdenlive:id">6</property>
  </entry>
  <entry producer="chain18" in="00:17:02.794" out="00:17:17.809">
   <property name="kdenlive:id">6</property>
  </entry>
  <entry producer="chain18" in="00:17:25.359" out="00:17:25.817">
   <property name="kdenlive:id">6</property>
  </entry>
  <entry producer="chain18" in="00:17:26.235" out="00:17:49.841">
   <property name="kdenlive:id">6</property>
  </entry>
  <entry producer="chain18" in="00:17:51.468" out="00:18:36.161">
   <property name="kdenlive:id">6</property>
  </entry>
  <entry producer="chain18" in="00:18:36.954" out="00:20:15.682">
   <property name="kdenlive:id">6</property>
  </entry>
  <entry producer="chain18" in="00:20:16.350" out="00:22:26.777">
   <property name="kdenlive:id">6</property>
   <filter id="filter186" in="00:22:25.609" out="00:22:26.777">
    <property name="start">1</property>
    <property name="level">1</property>
    <property name="mlt_service">brightness</property>
    <property name="kdenlive_id">fade_to_black</property>
    <property name="alpha">00:00:00.000=1;00:00:01.168=0</property>
    <property name="kdenlive:collapsed">0</property>
   </filter>
  </entry>
  <blank length="00:00:21.271"/>
  <entry producer="chain19" in="00:02:45.837" out="00:02:53.720">
   <property name="kdenlive:id">8</property>
  </entry>
  <entry producer="chain19" in="00:02:57.516" out="00:02:59.768">
   <property name="kdenlive:id">8</property>
  </entry>
  <entry producer="chain19" in="00:03:00.042" out="00:03:05.297">
   <property name="kdenlive:id">8</property>
  </entry>
  <entry producer="chain19" in="00:03:08.050" out="00:07:20.812">
   <property name="kdenlive:id">8</property>
  </entry>
  <entry producer="chain19" in="00:07:26.985" out="00:09:46.630">
   <property name="kdenlive:id">8</property>
  </entry>
  <entry producer="chain22" in="00:17:40.457" out="00:18:20.103">
   <property name="kdenlive:id">10</property>
  </entry>
  <entry producer="chain19" in="00:09:46.672" out="00:09:56.640">
   <property name="kdenlive:id">8</property>
  </entry>
  <entry producer="chain19" in="00:10:02.294" out="00:10:34.159">
   <property name="kdenlive:id">8</property>
  </entry>
  <entry producer="chain19" in="00:10:42.084" out="00:13:11.678">
   <property name="kdenlive:id">8</property>
  </entry>
  <entry producer="chain19" in="00:13:12.262" out="00:13:39.748">
   <property name="kdenlive:id">8</property>
  </entry>
  <entry producer="chain19" in="00:13:46.922" out="00:13:52.094">
   <property name="kdenlive:id">8</property>
  </entry>
  <entry producer="chain19" in="00:13:58.350" out="00:14:02.920">
   <property name="kdenlive:id">8</property>
  </entry>
  <entry producer="chain19" in="00:14:07.549" out="00:14:11.845">
   <property name="kdenlive:id">8</property>
  </entry>
  <entry producer="chain19" in="00:14:12.304" out="00:14:15.641">
   <property name="kdenlive:id">8</property>
  </entry>
  <entry producer="producer5" in="00:05:42.292" out="00:05:43.001">
   <property name="kdenlive:id">8</property>
  </entry>
  <entry producer="producer6" in="00:05:43.502" out="00:05:44.461">
   <property name="kdenlive:id">8</property>
  </entry>
  <entry producer="chain19" in="00:14:17.684" out="00:14:18.644">
   <property name="kdenlive:id">8</property>
  </entry>
  <entry producer="chain19" in="00:14:21.230" out="00:14:59.476">
   <property name="kdenlive:id">8</property>
  </entry>
  <entry producer="chain19" in="00:15:08.300" out="00:15:13.722">
   <property name="kdenlive:id">8</property>
  </entry>
  <entry producer="chain19" in="00:15:18.143" out="00:15:19.811">
   <property name="kdenlive:id">8</property>
  </entry>
  <entry producer="chain19" in="00:15:21.021" out="00:15:28.904">
   <property name="kdenlive:id">8</property>
  </entry>
  <entry producer="chain19" in="00:15:30.113" out="00:15:31.240">
   <property name="kdenlive:id">8</property>
  </entry>
  <entry producer="chain19" in="00:15:32.199" out="00:17:59.893">
   <property name="kdenlive:id">8</property>
  </entry>
  <entry producer="chain19" in="00:18:11.511" out="00:21:03.712">
   <property name="kdenlive:id">8</property>
  </entry>
 </playlist>
 <playlist id="playlist9"/>
 <tractor id="tractor4" in="00:00:00.000" out="01:16:32.407">
  <property name="kdenlive:trackheight">67</property>
  <property name="kdenlive:timeline_active">1</property>
  <property name="kdenlive:collapsed">0</property>
  <property name="kdenlive:thumbs_format"/>
  <property name="kdenlive:audio_rec"/>
  <track hide="audio" producer="playlist8"/>
  <track hide="audio" producer="playlist9"/>
 </tractor>
 <chain id="chain23" out="00:23:54.763">
  <property name="length">34400</property>
  <property name="eof">pause</property>
  <property name="resource">/mnt/data0/Monster/Monster-Editing/Blu-Ray/Encoded/Ep01-av1.mkv</property>
  <property name="mlt_service">avformat-novalidate</property>
  <property name="seekable">1</property>
  <property name="format">3</property>
  <property name="audio_index">1</property>
  <property name="video_index">0</property>
  <property name="vstream">0</property>
  <property name="astream">0</property>
  <property name="kdenlive:proxy">-</property>
  <property name="kdenlive:originalurl">/mnt/data0/Monster/Monster-Editing/Blu-Ray/Encoded/Ep01-av1.mkv</property>
  <property name="kdenlive:id">2</property>
  <property name="mute_on_pause">0</property>
  <property name="kdenlive:active_streams">1;2</property>
  <property name="kdenlive:clip_type">0</property>
  <property name="kdenlive:file_size">999749033</property>
  <property name="kdenlive:file_hash">3e7fe6854fe9fabdcf115764699786d7</property>
  <property name="kdenlive:folderid">-1</property>
  <property name="meta.media.nb_streams">5</property>
  <property name="meta.media.0.stream.type">video</property>
  <property name="meta.media.0.stream.frame_rate">23.976</property>
  <property name="meta.media.0.stream.sample_aspect_ratio">1</property>
  <property name="meta.media.0.codec.width">1440</property>
  <property name="meta.media.0.codec.height">1080</property>
  <property name="meta.media.0.codec.rotate">0</property>
  <property name="meta.media.0.codec.pix_fmt">yuv420p10le</property>
  <property name="meta.media.0.codec.sample_aspect_ratio">0</property>
  <property name="meta.media.0.codec.colorspace">709</property>
  <property name="meta.media.0.codec.color_trc">1</property>
  <property name="meta.media.0.codec.name">libdav1d</property>
  <property name="meta.media.0.codec.long_name">dav1d AV1 decoder by VideoLAN</property>
  <property name="meta.media.0.codec.bit_rate">0</property>
  <property name="meta.attr.0.stream.ENCODER.markup">Lavc60.3.100 av1_qsv</property>
  <property name="meta.attr.0.stream.DURATION.markup">00:23:54.770000000</property>
  <property name="meta.media.1.stream.type">audio</property>
  <property name="meta.media.1.codec.sample_fmt">fltp</property>
  <property name="meta.media.1.codec.sample_rate">48000</property>
  <property name="meta.media.1.codec.channels">6</property>
  <property name="meta.media.1.codec.name">vorbis</property>
  <property name="meta.media.1.codec.long_name">Vorbis</property>
  <property name="meta.media.1.codec.bit_rate">0</property>
  <property name="meta.attr.1.stream.ENCODER.markup">Lavc60.3.100 libvorbis</property>
  <property name="meta.attr.1.stream.DURATION.markup">00:23:54.776000000</property>
  <property name="meta.media.2.stream.type">audio</property>
  <property name="meta.media.2.codec.sample_fmt">fltp</property>
  <property name="meta.media.2.codec.sample_rate">48000</property>
  <property name="meta.media.2.codec.channels">2</property>
  <property name="meta.media.2.codec.name">opus</property>
  <property name="meta.media.2.codec.long_name">Opus</property>
  <property name="meta.media.2.codec.bit_rate">0</property>
  <property name="meta.attr.2.stream.ENCODER.markup">Lavc60.3.100 libopus</property>
  <property name="meta.attr.2.stream.DURATION.markup">00:23:54.784000000</property>
  <property name="meta.media.3.codec.name">pgssub</property>
  <property name="meta.media.3.codec.long_name">HDMV Presentation Graphic Stream subtitles</property>
  <property name="meta.media.3.codec.bit_rate">0</property>
  <property name="meta.attr.3.stream.DURATION.markup">00:23:54.770000000</property>
  <property name="meta.media.4.codec.name">pgssub</property>
  <property name="meta.media.4.codec.long_name">HDMV Presentation Graphic Stream subtitles</property>
  <property name="meta.media.4.codec.bit_rate">0</property>
  <property name="meta.attr.4.stream.DURATION.markup">00:23:54.770000000</property>
  <property name="meta.attr.ENCODER.markup">Lavf60.3.100</property>
  <property name="meta.media.sample_aspect_num">1</property>
  <property name="meta.media.sample_aspect_den">1</property>
  <property name="meta.media.frame_rate_num">24000</property>
  <property name="meta.media.frame_rate_den">1001</property>
  <property name="meta.media.colorspace">709</property>
  <property name="meta.media.color_trc">1</property>
  <property name="meta.media.has_b_frames">0</property>
  <property name="meta.media.width">1440</property>
  <property name="meta.media.height">1080</property>
  <property name="meta.media.color_range">mpeg</property>
  <property name="xml">was here</property>
  <property name="meta.media.top_field_first">0</property>
  <property name="meta.media.progressive">1</property>
  <property name="set.test_audio">1</property>
  <property name="set.test_image">0</property>
 </chain>
 <chain id="chain24" out="00:23:55.472">
  <property name="length">34417</property>
  <property name="eof">pause</property>
  <property name="resource">/mnt/data0/Monster/Monster-Editing/Blu-Ray/Encoded/Ep02-av1.mkv</property>
  <property name="mlt_service">avformat-novalidate</property>
  <property name="seekable">1</property>
  <property name="format">3</property>
  <property name="audio_index">1</property>
  <property name="video_index">0</property>
  <property name="vstream">0</property>
  <property name="astream">0</property>
  <property name="kdenlive:proxy">-</property>
  <property name="kdenlive:originalurl">/mnt/data0/Monster/Monster-Editing/Blu-Ray/Encoded/Ep02-av1.mkv</property>
  <property name="kdenlive:id">4</property>
  <property name="mute_on_pause">0</property>
  <property name="kdenlive:active_streams">1;2</property>
  <property name="kdenlive:clip_type">0</property>
  <property name="kdenlive:file_size">960398509</property>
  <property name="kdenlive:file_hash">60fcf1bc1f10b591760efe966b9b77ca</property>
  <property name="kdenlive:folderid">-1</property>
  <property name="meta.media.nb_streams">5</property>
  <property name="meta.media.0.stream.type">video</property>
  <property name="meta.media.0.stream.frame_rate">23.976</property>
  <property name="meta.media.0.stream.sample_aspect_ratio">1</property>
  <property name="meta.media.0.codec.width">1440</property>
  <property name="meta.media.0.codec.height">1080</property>
  <property name="meta.media.0.codec.rotate">0</property>
  <property name="meta.media.0.codec.pix_fmt">yuv420p10le</property>
  <property name="meta.media.0.codec.sample_aspect_ratio">0</property>
  <property name="meta.media.0.codec.colorspace">709</property>
  <property name="meta.media.0.codec.color_trc">1</property>
  <property name="meta.media.0.codec.name">libdav1d</property>
  <property name="meta.media.0.codec.long_name">dav1d AV1 decoder by VideoLAN</property>
  <property name="meta.media.0.codec.bit_rate">0</property>
  <property name="meta.attr.0.stream.ENCODER.markup">Lavc60.3.100 av1_qsv</property>
  <property name="meta.attr.0.stream.DURATION.markup">00:23:55.479000000</property>
  <property name="meta.media.1.stream.type">audio</property>
  <property name="meta.media.1.codec.sample_fmt">fltp</property>
  <property name="meta.media.1.codec.sample_rate">48000</property>
  <property name="meta.media.1.codec.channels">6</property>
  <property name="meta.media.1.codec.name">vorbis</property>
  <property name="meta.media.1.codec.long_name">Vorbis</property>
  <property name="meta.media.1.codec.bit_rate">0</property>
  <property name="meta.attr.1.stream.ENCODER.markup">Lavc60.3.100 libvorbis</property>
  <property name="meta.attr.1.stream.DURATION.markup">00:23:55.480000000</property>
  <property name="meta.media.2.stream.type">audio</property>
  <property name="meta.media.2.codec.sample_fmt">fltp</property>
  <property name="meta.media.2.codec.sample_rate">48000</property>
  <property name="meta.media.2.codec.channels">2</property>
  <property name="meta.media.2.codec.name">opus</property>
  <property name="meta.media.2.codec.long_name">Opus</property>
  <property name="meta.media.2.codec.bit_rate">0</property>
  <property name="meta.attr.2.stream.ENCODER.markup">Lavc60.3.100 libopus</property>
  <property name="meta.attr.2.stream.DURATION.markup">00:23:55.488000000</property>
  <property name="meta.media.3.codec.name">pgssub</property>
  <property name="meta.media.3.codec.long_name">HDMV Presentation Graphic Stream subtitles</property>
  <property name="meta.media.3.codec.bit_rate">0</property>
  <property name="meta.attr.3.stream.DURATION.markup">00:23:54.436000000</property>
  <property name="meta.media.4.codec.name">pgssub</property>
  <property name="meta.media.4.codec.long_name">HDMV Presentation Graphic Stream subtitles</property>
  <property name="meta.media.4.codec.bit_rate">0</property>
  <property name="meta.attr.4.stream.DURATION.markup">00:23:54.436000000</property>
  <property name="meta.attr.ENCODER.markup">Lavf60.3.100</property>
  <property name="meta.media.sample_aspect_num">1</property>
  <property name="meta.media.sample_aspect_den">1</property>
  <property name="meta.media.frame_rate_num">24000</property>
  <property name="meta.media.frame_rate_den">1001</property>
  <property name="meta.media.colorspace">709</property>
  <property name="meta.media.color_trc">1</property>
  <property name="meta.media.has_b_frames">0</property>
  <property name="meta.media.width">1440</property>
  <property name="meta.media.height">1080</property>
  <property name="meta.media.color_range">mpeg</property>
  <property name="xml">was here</property>
  <property name="meta.media.top_field_first">0</property>
  <property name="meta.media.progressive">1</property>
  <property name="set.test_audio">1</property>
  <property name="set.test_image">0</property>
 </chain>
 <chain id="chain25" out="00:23:55.430">
  <property name="length">34416</property>
  <property name="eof">pause</property>
  <property name="resource">/mnt/data0/Monster/Monster-Editing/Blu-Ray/Encoded/Ep03-av1.mkv</property>
  <property name="mlt_service">avformat-novalidate</property>
  <property name="seekable">1</property>
  <property name="format">3</property>
  <property name="audio_index">1</property>
  <property name="video_index">0</property>
  <property name="vstream">0</property>
  <property name="astream">0</property>
  <property name="kdenlive:proxy">-</property>
  <property name="kdenlive:originalurl">/mnt/data0/Monster/Monster-Editing/Blu-Ray/Encoded/Ep03-av1.mkv</property>
  <property name="kdenlive:id">6</property>
  <property name="mute_on_pause">0</property>
  <property name="kdenlive:active_streams">1;2</property>
  <property name="kdenlive:clip_type">0</property>
  <property name="kdenlive:file_size">1220460611</property>
  <property name="kdenlive:file_hash">87f8c1299f4a9023e523b251a22fe147</property>
  <property name="kdenlive:folderid">-1</property>
  <property name="meta.media.nb_streams">5</property>
  <property name="meta.media.0.stream.type">video</property>
  <property name="meta.media.0.stream.frame_rate">23.976</property>
  <property name="meta.media.0.stream.sample_aspect_ratio">1</property>
  <property name="meta.media.0.codec.width">1440</property>
  <property name="meta.media.0.codec.height">1080</property>
  <property name="meta.media.0.codec.rotate">0</property>
  <property name="meta.media.0.codec.pix_fmt">yuv420p10le</property>
  <property name="meta.media.0.codec.sample_aspect_ratio">0</property>
  <property name="meta.media.0.codec.colorspace">709</property>
  <property name="meta.media.0.codec.color_trc">1</property>
  <property name="meta.media.0.codec.name">libdav1d</property>
  <property name="meta.media.0.codec.long_name">dav1d AV1 decoder by VideoLAN</property>
  <property name="meta.media.0.codec.bit_rate">0</property>
  <property name="meta.attr.0.stream.ENCODER.markup">Lavc60.3.100 av1_qsv</property>
  <property name="meta.attr.0.stream.DURATION.markup">00:23:55.437000000</property>
  <property name="meta.media.1.stream.type">audio</property>
  <property name="meta.media.1.codec.sample_fmt">fltp</property>
  <property name="meta.media.1.codec.sample_rate">48000</property>
  <property name="meta.media.1.codec.channels">6</property>
  <property name="meta.media.1.codec.name">vorbis</property>
  <property name="meta.media.1.codec.long_name">Vorbis</property>
  <property name="meta.media.1.codec.bit_rate">0</property>
  <property name="meta.attr.1.stream.ENCODER.markup">Lavc60.3.100 libvorbis</property>
  <property name="meta.attr.1.stream.DURATION.markup">00:23:55.438000000</property>
  <property name="meta.media.2.stream.type">audio</property>
  <property name="meta.media.2.codec.sample_fmt">fltp</property>
  <property name="meta.media.2.codec.sample_rate">48000</property>
  <property name="meta.media.2.codec.channels">2</property>
  <property name="meta.media.2.codec.name">opus</property>
  <property name="meta.media.2.codec.long_name">Opus</property>
  <property name="meta.media.2.codec.bit_rate">0</property>
  <property name="meta.attr.2.stream.ENCODER.markup">Lavc60.3.100 libopus</property>
  <property name="meta.attr.2.stream.DURATION.markup">00:23:55.445000000</property>
  <property name="meta.media.3.codec.name">pgssub</property>
  <property name="meta.media.3.codec.long_name">HDMV Presentation Graphic Stream subtitles</property>
  <property name="meta.media.3.codec.bit_rate">0</property>
  <property name="meta.attr.3.stream.DURATION.markup">00:23:54.353000000</property>
  <property name="meta.media.4.codec.name">pgssub</property>
  <property name="meta.media.4.codec.long_name">HDMV Presentation Graphic Stream subtitles</property>
  <property name="meta.media.4.codec.bit_rate">0</property>
  <property name="meta.attr.4.stream.DURATION.markup">00:23:54.353000000</property>
  <property name="meta.attr.ENCODER.markup">Lavf60.3.100</property>
  <property name="meta.media.sample_aspect_num">1</property>
  <property name="meta.media.sample_aspect_den">1</property>
  <property name="meta.media.frame_rate_num">24000</property>
  <property name="meta.media.frame_rate_den">1001</property>
  <property name="meta.media.colorspace">709</property>
  <property name="meta.media.color_trc">1</property>
  <property name="meta.media.has_b_frames">0</property>
  <property name="meta.media.width">1440</property>
  <property name="meta.media.height">1080</property>
  <property name="meta.media.color_range">mpeg</property>
  <property name="xml">was here</property>
  <property name="meta.media.top_field_first">0</property>
  <property name="meta.media.progressive">1</property>
  <property name="set.test_audio">1</property>
  <property name="set.test_image">0</property>
 </chain>
 <chain id="chain26" out="00:23:55.430">
  <property name="length">34416</property>
  <property name="eof">pause</property>
  <property name="resource">/mnt/data0/Monster/Monster-Editing/Blu-Ray/Encoded/Ep04-av1.mkv</property>
  <property name="mlt_service">avformat-novalidate</property>
  <property name="seekable">1</property>
  <property name="format">3</property>
  <property name="audio_index">1</property>
  <property name="video_index">0</property>
  <property name="vstream">0</property>
  <property name="astream">0</property>
  <property name="kdenlive:proxy">-</property>
  <property name="kdenlive:originalurl">/mnt/data0/Monster/Monster-Editing/Blu-Ray/Encoded/Ep04-av1.mkv</property>
  <property name="kdenlive:id">8</property>
  <property name="mute_on_pause">0</property>
  <property name="kdenlive:active_streams">1;2</property>
  <property name="kdenlive:clip_type">0</property>
  <property name="kdenlive:file_size">767948903</property>
  <property name="kdenlive:file_hash">2b3e1e7eeb7eb701e746d3b47d529bba</property>
  <property name="kdenlive:folderid">-1</property>
  <property name="meta.media.nb_streams">5</property>
  <property name="meta.media.0.stream.type">video</property>
  <property name="meta.media.0.stream.frame_rate">23.976</property>
  <property name="meta.media.0.stream.sample_aspect_ratio">1</property>
  <property name="meta.media.0.codec.width">1440</property>
  <property name="meta.media.0.codec.height">1080</property>
  <property name="meta.media.0.codec.rotate">0</property>
  <property name="meta.media.0.codec.pix_fmt">yuv420p10le</property>
  <property name="meta.media.0.codec.sample_aspect_ratio">0</property>
  <property name="meta.media.0.codec.colorspace">709</property>
  <property name="meta.media.0.codec.color_trc">1</property>
  <property name="meta.media.0.codec.name">libdav1d</property>
  <property name="meta.media.0.codec.long_name">dav1d AV1 decoder by VideoLAN</property>
  <property name="meta.media.0.codec.bit_rate">0</property>
  <property name="meta.attr.0.stream.ENCODER.markup">Lavc60.3.100 av1_qsv</property>
  <property name="meta.attr.0.stream.DURATION.markup">00:23:55.437000000</property>
  <property name="meta.media.1.stream.type">audio</property>
  <property name="meta.media.1.codec.sample_fmt">fltp</property>
  <property name="meta.media.1.codec.sample_rate">48000</property>
  <property name="meta.media.1.codec.channels">6</property>
  <property name="meta.media.1.codec.name">vorbis</property>
  <property name="meta.media.1.codec.long_name">Vorbis</property>
  <property name="meta.media.1.codec.bit_rate">0</property>
  <property name="meta.attr.1.stream.ENCODER.markup">Lavc60.3.100 libvorbis</property>
  <property name="meta.attr.1.stream.DURATION.markup">00:23:55.437000000</property>
  <property name="meta.media.2.stream.type">audio</property>
  <property name="meta.media.2.codec.sample_fmt">fltp</property>
  <property name="meta.media.2.codec.sample_rate">48000</property>
  <property name="meta.media.2.codec.channels">2</property>
  <property name="meta.media.2.codec.name">opus</property>
  <property name="meta.media.2.codec.long_name">Opus</property>
  <property name="meta.media.2.codec.bit_rate">0</property>
  <property name="meta.attr.2.stream.ENCODER.markup">Lavc60.3.100 libopus</property>
  <property name="meta.attr.2.stream.DURATION.markup">00:23:55.445000000</property>
  <property name="meta.media.3.codec.name">pgssub</property>
  <property name="meta.media.3.codec.long_name">HDMV Presentation Graphic Stream subtitles</property>
  <property name="meta.media.3.codec.bit_rate">0</property>
  <property name="meta.attr.3.stream.DURATION.markup">00:23:54.353000000</property>
  <property name="meta.media.4.codec.name">pgssub</property>
  <property name="meta.media.4.codec.long_name">HDMV Presentation Graphic Stream subtitles</property>
  <property name="meta.media.4.codec.bit_rate">0</property>
  <property name="meta.attr.4.stream.DURATION.markup">00:23:54.311000000</property>
  <property name="meta.attr.ENCODER.markup">Lavf60.3.100</property>
  <property name="meta.media.sample_aspect_num">1</property>
  <property name="meta.media.sample_aspect_den">1</property>
  <property name="meta.media.frame_rate_num">24000</property>
  <property name="meta.media.frame_rate_den">1001</property>
  <property name="meta.media.colorspace">709</property>
  <property name="meta.media.color_trc">1</property>
  <property name="meta.media.has_b_frames">0</property>
  <property name="meta.media.width">1440</property>
  <property name="meta.media.height">1080</property>
  <property name="meta.media.color_range">mpeg</property>
  <property name="xml">was here</property>
  <property name="meta.media.top_field_first">0</property>
  <property name="meta.media.progressive">1</property>
  <property name="set.test_audio">1</property>
  <property name="set.test_image">0</property>
 </chain>
 <playlist id="playlist10">
  <blank length="00:01:47.965"/>
  <entry producer="chain23" in="00:03:22.147" out="00:05:03.712">
   <property name="kdenlive:id">2</property>
   <filter id="filter187" in="00:03:22.147" out="00:03:26.109">
    <property name="start">1</property>
    <property name="level">1</property>
    <property name="mlt_service">brightness</property>
    <property name="kdenlive_id">fade_from_black</property>
    <property name="alpha">00:00:00.000=0;00:00:03.962=1</property>
    <property name="kdenlive:collapsed">0</property>
   </filter>
  </entry>
  <entry producer="chain23" in="00:05:04.338" out="00:07:24.274">
   <property name="kdenlive:id">2</property>
  </entry>
  <entry producer="chain23" in="00:07:37.913" out="00:08:04.796">
   <property name="kdenlive:id">2</property>
  </entry>
  <entry producer="chain23" in="00:08:06.590" out="00:08:07.591">
   <property name="kdenlive:id">2</property>
  </entry>
  <entry producer="chain23" in="00:08:10.219" out="00:08:53.595">
   <property name="kdenlive:id">2</property>
   <filter id="filter188" in="00:08:52.052" out="00:08:53.595">
    <property name="start">1</property>
    <property name="level">1</property>
    <property name="mlt_service">brightness</property>
    <property name="kdenlive_id">fade_to_black</property>
    <property name="alpha">00:00:00.000=1;00:00:01.543=0</property>
    <property name="kdenlive:collapsed">0</property>
   </filter>
  </entry>
  <blank length="00:11:41.124"/>
  <entry producer="chain24" in="00:00:00.000" out="00:00:52.594">
   <property name="kdenlive:id">4</property>
   <filter id="filter189" out="00:00:04.421">
    <property name="start">1</property>
    <property name="level">1</property>
    <property name="mlt_service">brightness</property>
    <property name="kdenlive_id">fade_from_black</property>
    <property name="alpha">00:00:00.000=0;00:00:04.421=1</property>
    <property name="kdenlive:collapsed">0</property>
   </filter>
   <filter id="filter190" in="00:00:49.549" out="00:00:52.594">
    <property name="start">1</property>
    <property name="level">1</property>
    <property name="mlt_service">brightness</property>
    <property name="kdenlive_id">fade_to_black</property>
    <property name="alpha">00:00:00.000=1;00:00:03.045=0</property>
    <property name="kdenlive:collapsed">0</property>
   </filter>
  </entry>
  <blank length="00:09:36.453"/>
  <entry producer="chain24" in="00:12:27.110" out="00:14:18.393">
   <property name="kdenlive:id">4</property>
   <filter id="filter191" in="00:14:15.974" out="00:14:18.393">
    <property name="start">1</property>
    <property name="level">1</property>
    <property name="mlt_service">brightness</property>
    <property name="kdenlive_id">fade_to_black</property>
    <property name="alpha">00:00:00.000=1;00:00:02.419=0</property>
    <property name="kdenlive:collapsed">0</property>
   </filter>
   <filter id="filter192" in="00:12:27.110" out="00:12:28.487">
    <property name="start">1</property>
    <property name="level">1</property>
    <property name="mlt_service">brightness</property>
    <property name="kdenlive_id">fade_from_black</property>
    <property name="alpha">00:00:00.000=0;00:00:01.376=1</property>
    <property name="kdenlive:collapsed">0</property>
   </filter>
  </entry>
  <blank length="00:05:16.308"/>
  <entry producer="chain24" in="00:19:56.098" out="00:21:44.670">
   <property name="kdenlive:id">4</property>
  </entry>
  <entry producer="chain24" in="00:21:45.587" out="00:21:46.922">
   <property name="kdenlive:id">4</property>
  </entry>
  <blank length="00:14:53.637"/>
  <entry producer="chain25" in="00:17:00.667" out="00:17:02.628">
   <property name="kdenlive:id">6</property>
  </entry>
  <blank length="00:05:23.649"/>
  <entry producer="chain26" in="00:02:20.812" out="00:02:43.627">
   <property name="kdenlive:id">8</property>
   <filter id="filter193" in="00:02:20.812" out="00:02:23.232">
    <property name="start">1</property>
    <property name="level">1</property>
    <property name="mlt_service">brightness</property>
    <property name="kdenlive_id">fade_from_black</property>
    <property name="alpha">00:00:00.000=0;00:00:02.419=1</property>
    <property name="kdenlive:collapsed">0</property>
   </filter>
  </entry>
  <blank length="00:17:41.625"/>
  <entry producer="chain26" in="00:21:04.129" out="00:23:36.954">
   <property name="kdenlive:id">8</property>
  </entry>
 </playlist>
 <playlist id="playlist11"/>
 <tractor id="tractor5" in="00:00:00.000" out="01:19:05.255">
  <property name="kdenlive:trackheight">67</property>
  <property name="kdenlive:timeline_active">1</property>
  <property name="kdenlive:collapsed">0</property>
  <property name="kdenlive:thumbs_format"/>
  <property name="kdenlive:audio_rec"/>
  <track hide="audio" producer="playlist10"/>
  <track hide="audio" producer="playlist11"/>
 </tractor>
 <tractor id="tractor6" in="00:00:00.000" out="01:39:56.556">
  <property name="kdenlive:duration">01:19:05:07</property>
  <property name="kdenlive:maxduration">113772</property>
  <property name="kdenlive:clipname">Sequence 1</property>
  <property name="kdenlive:description"/>
  <property name="kdenlive:uuid">{5d9a1881-23a1-459d-8d76-1cd643492ee4}</property>
  <property name="kdenlive:producer_type">17</property>
  <property name="kdenlive:id">12</property>
  <property name="kdenlive:clip_type">0</property>
  <property name="kdenlive:file_hash">aadd8f57ef28fe2051fd307127266c22</property>
  <property name="kdenlive:folderid">13</property>
  <property name="kdenlive:sequenceproperties.activeTrack">4</property>
  <property name="kdenlive:sequenceproperties.audioTarget">1</property>
  <property name="kdenlive:sequenceproperties.disablepreview">0</property>
  <property name="kdenlive:sequenceproperties.documentuuid">{5d9a1881-23a1-459d-8d76-1cd643492ee4}</property>
  <property name="kdenlive:sequenceproperties.hasAudio">1</property>
  <property name="kdenlive:sequenceproperties.hasVideo">1</property>
  <property name="kdenlive:sequenceproperties.hidesubtitle">0</property>
  <property name="kdenlive:sequenceproperties.position">20963</property>
  <property name="kdenlive:sequenceproperties.scrollPos">647365</property>
  <property name="kdenlive:sequenceproperties.tracksCount">6</property>
  <property name="kdenlive:sequenceproperties.videoTarget">3</property>
  <property name="kdenlive:sequenceproperties.zonein">0</property>
  <property name="kdenlive:sequenceproperties.zoneout">113714</property>
  <property name="kdenlive:sequenceproperties.zoom">1</property>
  <property name="kdenlive:sequenceproperties.groups">[
    {
        "children": [
            {
                "data": "4:10056",
                "leaf": "clip",
                "type": "Leaf"
            },
            {
                "data": "1:10066",
                "leaf": "clip",
                "type": "Leaf"
            },
            {
                "data": "2:10092",
                "leaf": "clip",
                "type": "Leaf"
            }
        ],
        "type": "Normal"
    },
    {
        "children": [
            {
                "data": "4:41309",
                "leaf": "clip",
                "type": "Leaf"
            },
            {
                "data": "4:41333",
                "leaf": "clip",
                "type": "Leaf"
            },
            {
                "data": "4:41419",
                "leaf": "clip",
                "type": "Leaf"
            },
            {
                "data": "2:41331",
                "leaf": "clip",
                "type": "Leaf"
            }
        ],
        "type": "Normal"
    },
    {
        "children": [
            {
                "data": "1:105957",
                "leaf": "clip",
                "type": "Leaf"
            },
            {
                "children": [
                    {
                        "data": "4:102436",
                        "leaf": "clip",
                        "type": "Leaf"
                    },
                    {
                        "data": "2:102403",
                        "leaf": "clip",
                        "type": "Leaf"
                    }
                ],
                "type": "Normal"
            }
        ],
        "type": "Normal"
    },
    {
        "children": [
            {
                "data": "4:58554",
                "leaf": "clip",
                "type": "Leaf"
            },
            {
                "data": "3:58510",
                "leaf": "clip",
                "type": "Leaf"
            }
        ],
        "type": "Normal"
    },
    {
        "children": [
            {
                "data": "4:61797",
                "leaf": "clip",
                "type": "Leaf"
            },
            {
                "data": "3:61792",
                "leaf": "clip",
                "type": "Leaf"
            }
        ],
        "type": "Normal"
    },
    {
        "children": [
            {
                "data": "4:40732",
                "leaf": "clip",
                "type": "Leaf"
            },
            {
                "data": "2:40732",
                "leaf": "clip",
                "type": "Leaf"
            }
        ],
        "type": "Normal"
    },
    {
        "children": [
            {
                "data": "2:102170",
                "leaf": "clip",
                "type": "Leaf"
            },
            {
                "data": "4:102177",
                "leaf": "clip",
                "type": "Leaf"
            }
        ],
        "type": "Normal"
    },
    {
        "children": [
            {
                "data": "1:44547",
                "leaf": "clip",
                "type": "Leaf"
            },
            {
                "data": "1:42524",
                "leaf": "clip",
                "type": "Leaf"
            },
            {
                "data": "2:41985",
                "leaf": "clip",
                "type": "Leaf"
            },
            {
                "data": "5:41985",
                "leaf": "clip",
                "type": "Leaf"
            },
            {
                "data": "3:42341",
                "leaf": "clip",
                "type": "Leaf"
            }
        ],
        "type": "Normal"
    },
    {
        "children": [
            {
                "data": "4:41435",
                "leaf": "clip",
                "type": "Leaf"
            },
            {
                "data": "3:41409",
                "leaf": "clip",
                "type": "Leaf"
            }
        ],
        "type": "Normal"
    },
    {
        "children": [
            {
                "data": "4:13075",
                "leaf": "clip",
                "type": "Leaf"
            },
            {
                "data": "2:13075",
                "leaf": "clip",
                "type": "Leaf"
            }
        ],
        "type": "Normal"
    },
    {
        "children": [
            {
                "data": "4:70565",
                "leaf": "clip",
                "type": "Leaf"
            },
            {
                "data": "3:70565",
                "leaf": "clip",
                "type": "Leaf"
            }
        ],
        "type": "Normal"
    },
    {
        "children": [
            {
                "data": "4:100767",
                "leaf": "clip",
                "type": "Leaf"
            },
            {
                "data": "2:100732",
                "leaf": "clip",
                "type": "Leaf"
            }
        ],
        "type": "Normal"
    },
    {
        "children": [
            {
                "data": "-2:2588",
                "leaf": "subtitle",
                "type": "Leaf"
            },
            {
                "data": "-2:2692",
                "leaf": "subtitle",
                "type": "Leaf"
            },
            {
                "children": [
                    {
                        "data": "2:2564",
                        "leaf": "clip",
                        "type": "Leaf"
                    },
                    {
                        "data": "5:2588",
                        "leaf": "clip",
                        "type": "Leaf"
                    }
                ],
                "type": "Normal"
            },
            {
                "data": "-2:3543",
                "leaf": "subtitle",
                "type": "Leaf"
            },
            {
                "data": "-2:3387",
                "leaf": "subtitle",
                "type": "Leaf"
            }
        ],
        "type": "Normal"
    },
    {
        "children": [
            {
                "data": "4:55208",
                "leaf": "clip",
                "type": "Leaf"
            },
            {
                "data": "3:55208",
                "leaf": "clip",
                "type": "Leaf"
            }
        ],
        "type": "Normal"
    },
    {
        "children": [
            {
                "data": "4:105978",
                "leaf": "clip",
                "type": "Leaf"
            },
            {
                "data": "3:105967",
                "leaf": "clip",
                "type": "Leaf"
            }
        ],
        "type": "Normal"
    },
    {
        "children": [
            {
                "data": "4:25319",
                "leaf": "clip",
                "type": "Leaf"
            },
            {
                "data": "3:25329",
                "leaf": "clip",
                "type": "Leaf"
            }
        ],
        "type": "Normal"
    },
    {
        "children": [
            {
                "data": "2:52237",
                "leaf": "clip",
                "type": "Leaf"
            },
            {
                "data": "5:52237",
                "leaf": "clip",
                "type": "Leaf"
            }
        ],
        "type": "Normal"
    },
    {
        "children": [
            {
                "data": "3:101051",
                "leaf": "clip",
                "type": "Leaf"
            },
            {
                "data": "4:101080",
                "leaf": "clip",
                "type": "Leaf"
            },
            {
                "data": "4:101062",
                "leaf": "clip",
                "type": "Leaf"
            },
            {
                "data": "4:101104",
                "leaf": "clip",
                "type": "Leaf"
            }
        ],
        "type": "Normal"
    },
    {
        "children": [
            {
                "data": "4:14424",
                "leaf": "clip",
                "type": "Leaf"
            },
            {
                "data": "1:14406",
                "leaf": "clip",
                "type": "Leaf"
            }
        ],
        "type": "Normal"
    },
    {
        "children": [
            {
                "data": "4:12218",
                "leaf": "clip",
                "type": "Leaf"
            },
            {
                "data": "1:12161",
                "leaf": "clip",
                "type": "Leaf"
            }
        ],
        "type": "Normal"
    },
    {
        "children": [
            {
                "data": "4:20836",
                "leaf": "clip",
                "type": "Leaf"
            },
            {
                "data": "1:20828",
                "leaf": "clip",
                "type": "Leaf"
            }
        ],
        "type": "Normal"
    },
    {
        "children": [
            {
                "data": "5:54841",
                "leaf": "clip",
                "type": "Leaf"
            },
            {
                "data": "1:54823",
                "leaf": "clip",
                "type": "Leaf"
            }
        ],
        "type": "Normal"
    },
    {
        "children": [
            {
                "data": "4:15161",
                "leaf": "clip",
                "type": "Leaf"
            },
            {
                "data": "3:15154",
                "leaf": "clip",
                "type": "Leaf"
            }
        ],
        "type": "Normal"
    },
    {
        "children": [
            {
                "data": "4:10666",
                "leaf": "clip",
                "type": "Leaf"
            },
            {
                "data": "3:10666",
                "leaf": "clip",
                "type": "Leaf"
            }
        ],
        "type": "Normal"
    },
    {
        "children": [
            {
                "data": "4:100877",
                "leaf": "clip",
                "type": "Leaf"
            },
            {
                "data": "3:100876",
                "leaf": "clip",
                "type": "Leaf"
            }
        ],
        "type": "Normal"
    },
    {
        "children": [
            {
                "data": "1:63796",
                "leaf": "clip",
                "type": "Leaf"
            },
            {
                "data": "4:63803",
                "leaf": "clip",
                "type": "Leaf"
            }
        ],
        "type": "Normal"
    },
    {
        "children": [
            {
                "data": "4:77008",
                "leaf": "clip",
                "type": "Leaf"
            },
            {
                "data": "4:76996",
                "leaf": "clip",
                "type": "Leaf"
            },
            {
                "data": "3:76953",
                "leaf": "clip",
                "type": "Leaf"
            }
        ],
        "type": "Normal"
    },
    {
        "children": [
            {
                "data": "4:81016",
                "leaf": "clip",
                "type": "Leaf"
            },
            {
                "data": "2:81016",
                "leaf": "clip",
                "type": "Leaf"
            }
        ],
        "type": "Normal"
    },
    {
        "children": [
            {
                "data": "2:10947",
                "leaf": "clip",
                "type": "Leaf"
            },
            {
                "data": "4:10947",
                "leaf": "clip",
                "type": "Leaf"
            }
        ],
        "type": "Normal"
    },
    {
        "children": [
            {
                "data": "2:110098",
                "leaf": "clip",
                "type": "Leaf"
            },
            {
                "data": "5:110107",
                "leaf": "clip",
                "type": "Leaf"
            }
        ],
        "type": "Normal"
    },
    {
        "children": [
            {
                "data": "1:99961",
                "leaf": "clip",
                "type": "Leaf"
            },
            {
                "data": "4:99982",
                "leaf": "clip",
                "type": "Leaf"
            }
        ],
        "type": "Normal"
    },
    {
        "children": [
            {
                "data": "4:54874",
                "leaf": "clip",
                "type": "Leaf"
            },
            {
                "data": "3:54860",
                "leaf": "clip",
                "type": "Leaf"
            },
            {
                "data": "4:54906",
                "leaf": "clip",
                "type": "Leaf"
            }
        ],
        "type": "Normal"
    },
    {
        "children": [
            {
                "data": "5:9026",
                "leaf": "clip",
                "type": "Leaf"
            },
            {
                "data": "2:9018",
                "leaf": "clip",
                "type": "Leaf"
            }
        ],
        "type": "Normal"
    },
    {
        "children": [
            {
                "data": "4:78648",
                "leaf": "clip",
                "type": "Leaf"
            },
            {
                "data": "3:78636",
                "leaf": "clip",
                "type": "Leaf"
            }
        ],
        "type": "Normal"
    },
    {
        "children": [
            {
                "data": "1:12030",
                "leaf": "clip",
                "type": "Leaf"
            },
            {
                "data": "4:12034",
                "leaf": "clip",
                "type": "Leaf"
            }
        ],
        "type": "Normal"
    },
    {
        "children": [
            {
                "children": [
                    {
                        "data": "3:39883",
                        "leaf": "clip",
                        "type": "Leaf"
                    },
                    {
                        "data": "4:39905",
                        "leaf": "clip",
                        "type": "Leaf"
                    }
                ],
                "type": "Normal"
            },
            {
                "data": "4:39876",
                "leaf": "clip",
                "type": "Leaf"
            }
        ],
        "type": "Normal"
    },
    {
        "children": [
            {
                "data": "2:58890",
                "leaf": "clip",
                "type": "Leaf"
            },
            {
                "data": "4:58918",
                "leaf": "clip",
                "type": "Leaf"
            }
        ],
        "type": "Normal"
    },
    {
        "children": [
            {
                "data": "4:20938",
                "leaf": "clip",
                "type": "Leaf"
            },
            {
                "data": "2:20938",
                "leaf": "clip",
                "type": "Leaf"
            }
        ],
        "type": "Normal"
    },
    {
        "children": [
            {
                "data": "2:61941",
                "leaf": "clip",
                "type": "Leaf"
            },
            {
                "data": "4:61948",
                "leaf": "clip",
                "type": "Leaf"
            }
        ],
        "type": "Normal"
    },
    {
        "children": [
            {
                "data": "4:102046",
                "leaf": "clip",
                "type": "Leaf"
            },
            {
                "data": "3:102060",
                "leaf": "clip",
                "type": "Leaf"
            }
        ],
        "type": "Normal"
    },
    {
        "children": [
            {
                "data": "0:98930",
                "leaf": "clip",
                "type": "Leaf"
            },
            {
                "children": [
                    {
                        "data": "4:96394",
                        "leaf": "clip",
                        "type": "Leaf"
                    },
                    {
                        "data": "2:96394",
                        "leaf": "clip",
                        "type": "Leaf"
                    }
                ],
                "type": "Normal"
            }
        ],
        "type": "Normal"
    },
    {
        "children": [
            {
                "data": "3:13161",
                "leaf": "clip",
                "type": "Leaf"
            },
            {
                "data": "4:13246",
                "leaf": "clip",
                "type": "Leaf"
            }
        ],
        "type": "Normal"
    },
    {
        "children": [
            {
                "data": "4:76635",
                "leaf": "clip",
                "type": "Leaf"
            },
            {
                "data": "2:76635",
                "leaf": "clip",
                "type": "Leaf"
            }
        ],
        "type": "Normal"
    },
    {
        "children": [
            {
                "data": "5:84106",
                "leaf": "clip",
                "type": "Leaf"
            },
            {
                "data": "3:84086",
                "leaf": "clip",
                "type": "Leaf"
            }
        ],
        "type": "Normal"
    },
    {
        "children": [
            {
                "data": "4:55116",
                "leaf": "clip",
                "type": "Leaf"
            },
            {
                "data": "2:55055",
                "leaf": "clip",
                "type": "Leaf"
            }
        ],
        "type": "Normal"
    },
    {
        "children": [
            {
                "data": "4:28091",
                "leaf": "clip",
                "type": "Leaf"
            },
            {
                "data": "3:28091",
                "leaf": "clip",
                "type": "Leaf"
            }
        ],
        "type": "Normal"
    },
    {
        "children": [
            {
                "data": "4:1",
                "leaf": "clip",
                "type": "Leaf"
            },
            {
                "data": "3:0",
                "leaf": "clip",
                "type": "Leaf"
            }
        ],
        "type": "Normal"
    },
    {
        "children": [
            {
                "data": "4:100642",
                "leaf": "clip",
                "type": "Leaf"
            },
            {
                "data": "3:100595",
                "leaf": "clip",
                "type": "Leaf"
            }
        ],
        "type": "Normal"
    },
    {
        "children": [
            {
                "data": "3:9044",
                "leaf": "clip",
                "type": "Leaf"
            },
            {
                "data": "5:9051",
                "leaf": "clip",
                "type": "Leaf"
            }
        ],
        "type": "Normal"
    },
    {
        "children": [
            {
                "data": "4:84899",
                "leaf": "clip",
                "type": "Leaf"
            },
            {
                "data": "3:84893",
                "leaf": "clip",
                "type": "Leaf"
            }
        ],
        "type": "Normal"
    },
    {
        "children": [
            {
                "data": "4:84844",
                "leaf": "clip",
                "type": "Leaf"
            },
            {
                "children": [
                    {
                        "data": "2:84642",
                        "leaf": "clip",
                        "type": "Leaf"
                    },
                    {
                        "data": "4:84654",
                        "leaf": "clip",
                        "type": "Leaf"
                    }
                ],
                "type": "Normal"
            }
        ],
        "type": "Normal"
    },
    {
        "children": [
            {
                "data": "4:94437",
                "leaf": "clip",
                "type": "Leaf"
            },
            {
                "data": "2:95069",
                "leaf": "clip",
                "type": "Leaf"
            },
            {
                "data": "1:95230",
                "leaf": "clip",
                "type": "Leaf"
            },
            {
                "data": "1:94888",
                "leaf": "clip",
                "type": "Leaf"
            },
            {
                "data": "1:94587",
                "leaf": "clip",
                "type": "Leaf"
            },
            {
                "data": "3:94434",
                "leaf": "clip",
                "type": "Leaf"
            },
            {
                "data": "2:94724",
                "leaf": "clip",
                "type": "Leaf"
            }
        ],
        "type": "Normal"
    },
    {
        "children": [
            {
                "data": "4:91087",
                "leaf": "clip",
                "type": "Leaf"
            },
            {
                "data": "2:91083",
                "leaf": "clip",
                "type": "Leaf"
            }
        ],
        "type": "Normal"
    },
    {
        "children": [
            {
                "data": "5:5024",
                "leaf": "clip",
                "type": "Leaf"
            },
            {
                "data": "3:5012",
                "leaf": "clip",
                "type": "Leaf"
            },
            {
                "data": "-2:7808",
                "leaf": "subtitle",
                "type": "Leaf"
            },
            {
                "data": "-2:5060",
                "leaf": "subtitle",
                "type": "Leaf"
            }
        ],
        "type": "Normal"
    },
    {
        "children": [
            {
                "data": "1:102211",
                "leaf": "clip",
                "type": "Leaf"
            },
            {
                "data": "4:102218",
                "leaf": "clip",
                "type": "Leaf"
            }
        ],
        "type": "Normal"
    },
    {
        "children": [
            {
                "data": "3:12163",
                "leaf": "clip",
                "type": "Leaf"
            },
            {
                "data": "4:12172",
                "leaf": "clip",
                "type": "Leaf"
            }
        ],
        "type": "Normal"
    },
    {
        "children": [
            {
                "data": "4:56810",
                "leaf": "clip",
                "type": "Leaf"
            },
            {
                "data": "2:56792",
                "leaf": "clip",
                "type": "Leaf"
            }
        ],
        "type": "Normal"
    },
    {
        "children": [
            {
                "data": "4:41201",
                "leaf": "clip",
                "type": "Leaf"
            },
            {
                "data": "3:41107",
                "leaf": "clip",
                "type": "Leaf"
            }
        ],
        "type": "Normal"
    },
    {
        "children": [
            {
                "data": "4:77575",
                "leaf": "clip",
                "type": "Leaf"
            },
            {
                "data": "2:77556",
                "leaf": "clip",
                "type": "Leaf"
            }
        ],
        "type": "Normal"
    },
    {
        "children": [
            {
                "data": "2:95384",
                "leaf": "clip",
                "type": "Leaf"
            },
            {
                "data": "4:95389",
                "leaf": "clip",
                "type": "Leaf"
            }
        ],
        "type": "Normal"
    },
    {
        "children": [
            {
                "data": "5:26902",
                "leaf": "clip",
                "type": "Leaf"
            },
            {
                "data": "2:26902",
                "leaf": "clip",
                "type": "Leaf"
            }
        ],
        "type": "Normal"
    },
    {
        "children": [
            {
                "data": "3:76344",
                "leaf": "clip",
                "type": "Leaf"
            },
            {
                "data": "4:76347",
                "leaf": "clip",
                "type": "Leaf"
            }
        ],
        "type": "Normal"
    },
    {
        "children": [
            {
                "data": "2:39123",
                "leaf": "clip",
                "type": "Leaf"
            },
            {
                "data": "4:39125",
                "leaf": "clip",
                "type": "Leaf"
            }
        ],
        "type": "Normal"
    },
    {
        "children": [
            {
                "data": "3:55574",
                "leaf": "clip",
                "type": "Leaf"
            },
            {
                "data": "4:55574",
                "leaf": "clip",
                "type": "Leaf"
            }
        ],
        "type": "Normal"
    },
    {
        "children": [
            {
                "data": "3:95619",
                "leaf": "clip",
                "type": "Leaf"
            },
            {
                "data": "4:95629",
                "leaf": "clip",
                "type": "Leaf"
            }
        ],
        "type": "Normal"
    },
    {
        "children": [
            {
                "data": "1:8371",
                "leaf": "clip",
                "type": "Leaf"
            },
            {
                "data": "5:8380",
                "leaf": "clip",
                "type": "Leaf"
            }
        ],
        "type": "Normal"
    },
    {
        "children": [
            {
                "data": "4:85026",
                "leaf": "clip",
                "type": "Leaf"
            },
            {
                "data": "1:85026",
                "leaf": "clip",
                "type": "Leaf"
            }
        ],
        "type": "Normal"
    },
    {
        "children": [
            {
                "data": "4:101128",
                "leaf": "clip",
                "type": "Leaf"
            },
            {
                "data": "2:101129",
                "leaf": "clip",
                "type": "Leaf"
            }
        ],
        "type": "Normal"
    },
    {
        "children": [
            {
                "data": "4:44595",
                "leaf": "clip",
                "type": "Leaf"
            },
            {
                "data": "3:44595",
                "leaf": "clip",
                "type": "Leaf"
            }
        ],
        "type": "Normal"
    },
    {
        "children": [
            {
                "data": "3:102395",
                "leaf": "clip",
                "type": "Leaf"
            },
            {
                "data": "4:102408",
                "leaf": "clip",
                "type": "Leaf"
            }
        ],
        "type": "Normal"
    },
    {
        "children": [
            {
                "data": "2:100976",
                "leaf": "clip",
                "type": "Leaf"
            },
            {
                "data": "4:100981",
                "leaf": "clip",
                "type": "Leaf"
            }
        ],
        "type": "Normal"
    },
    {
        "children": [
            {
                "data": "4:23081",
                "leaf": "clip",
                "type": "Leaf"
            },
            {
                "data": "3:23071",
                "leaf": "clip",
                "type": "Leaf"
            }
        ],
        "type": "Normal"
    },
    {
        "children": [
            {
                "data": "4:23599",
                "leaf": "clip",
                "type": "Leaf"
            },
            {
                "data": "2:23599",
                "leaf": "clip",
                "type": "Leaf"
            }
        ],
        "type": "Normal"
    },
    {
        "children": [
            {
                "data": "5:76299",
                "leaf": "clip",
                "type": "Leaf"
            },
            {
                "data": "2:76287",
                "leaf": "clip",
                "type": "Leaf"
            }
        ],
        "type": "Normal"
    }
]
</property>
  <property name="kdenlive:sequenceproperties.guides">[
]
</property>
  <track producer="producer0"/>
  <track producer="tractor0"/>
  <track producer="tractor1"/>
  <track producer="tractor2"/>
  <track producer="tractor3"/>
  <track producer="tractor4"/>
  <track producer="tractor5"/>
  <transition id="transition0">
   <property name="a_track">0</property>
   <property name="b_track">1</property>
   <property name="mlt_service">mix</property>
   <property name="kdenlive_id">mix</property>
   <property name="internal_added">237</property>
   <property name="always_active">1</property>
   <property name="accepts_blanks">1</property>
   <property name="sum">1</property>
  </transition>
  <transition id="transition1">
   <property name="a_track">0</property>
   <property name="b_track">2</property>
   <property name="mlt_service">mix</property>
   <property name="kdenlive_id">mix</property>
   <property name="internal_added">237</property>
   <property name="always_active">1</property>
   <property name="accepts_blanks">1</property>
   <property name="sum">1</property>
  </transition>
  <transition id="transition2">
   <property name="a_track">0</property>
   <property name="b_track">3</property>
   <property name="mlt_service">mix</property>
   <property name="kdenlive_id">mix</property>
   <property name="internal_added">237</property>
   <property name="always_active">1</property>
   <property name="accepts_blanks">1</property>
   <property name="sum">1</property>
  </transition>
  <transition id="transition3">
   <property name="a_track">0</property>
   <property name="b_track">4</property>
   <property name="mlt_service">mix</property>
   <property name="kdenlive_id">mix</property>
   <property name="internal_added">237</property>
   <property name="always_active">1</property>
   <property name="accepts_blanks">1</property>
   <property name="sum">1</property>
  </transition>
  <transition id="transition4">
   <property name="a_track">0</property>
   <property name="b_track">5</property>
   <property name="compositing">0</property>
   <property name="distort">0</property>
   <property name="rotate_center">0</property>
   <property name="mlt_service">qtblend</property>
   <property name="always_active">1</property>
   <property name="internal_added">237</property>
  </transition>
  <transition id="transition5">
   <property name="a_track">0</property>
   <property name="b_track">6</property>
   <property name="compositing">0</property>
   <property name="distort">0</property>
   <property name="rotate_center">0</property>
   <property name="mlt_service">qtblend</property>
   <property name="always_active">1</property>
   <property name="internal_added">237</property>
  </transition>
  <filter id="filter194">
   <property name="window">75</property>
   <property name="max_gain">20dB</property>
   <property name="mlt_service">volume</property>
   <property name="internal_added">237</property>
   <property name="disable">1</property>
  </filter>
  <filter id="filter195">
   <property name="channel">-1</property>
   <property name="mlt_service">panner</property>
   <property name="internal_added">237</property>
   <property name="start">0.5</property>
   <property name="disable">1</property>
  </filter>
  <filter id="filter196">
   <property name="window">75</property>
   <property name="max_gain">20dB</property>
   <property name="mlt_service">volume</property>
   <property name="internal_added">237</property>
   <property name="disable">1</property>
  </filter>
  <filter id="filter197">
   <property name="channel">-1</property>
   <property name="mlt_service">panner</property>
   <property name="internal_added">237</property>
   <property name="start">0.5</property>
   <property name="disable">1</property>
  </filter>
  <filter id="filter117">
   <property name="mlt_service">avfilter.subtitles</property>
   <property name="internal_added">237</property>
   <property name="av.filename">Monster_01-04_Murder_and_Execution_1080p_24fps_deu.kdenlive.srt</property>
  </filter>
 </tractor>
 <playlist id="main_bin">
  <property name="kdenlive:folder.-1.13">Sequences</property>
  <property name="kdenlive:docproperties.activetimeline">{5d9a1881-23a1-459d-8d76-1cd643492ee4}</property>
  <property name="kdenlive:docproperties.audioChannels">2</property>
  <property name="kdenlive:docproperties.browserurl">/home/redxarch/Videos/</property>
  <property name="kdenlive:docproperties.compositing">1</property>
  <property name="kdenlive:docproperties.documentid">1666493296366</property>
  <property name="kdenlive:docproperties.enableTimelineZone">0</property>
  <property name="kdenlive:docproperties.enableexternalproxy">0</property>
  <property name="kdenlive:docproperties.enableproxy">0</property>
  <property name="kdenlive:docproperties.externalproxyparams"/>
  <property name="kdenlive:docproperties.generateimageproxy">0</property>
  <property name="kdenlive:docproperties.generateproxy">0</property>
  <property name="kdenlive:docproperties.guidesCategories">[
    {
        "color": "#9b59b6",
        "comment": "Category 1",
        "index": 0
    },
    {
        "color": "#3daee9",
        "comment": "Category 2",
        "index": 1
    },
    {
        "color": "#1abc9c",
        "comment": "Category 3",
        "index": 2
    },
    {
        "color": "#1cdc9a",
        "comment": "Category 4",
        "index": 3
    },
    {
        "color": "#c9ce3b",
        "comment": "Category 5",
        "index": 4
    },
    {
        "color": "#fdbc4b",
        "comment": "Category 6",
        "index": 5
    },
    {
        "color": "#f39c1f",
        "comment": "Category 7",
        "index": 6
    },
    {
        "color": "#f47750",
        "comment": "Category 8",
        "index": 7
    },
    {
        "color": "#da4453",
        "comment": "Category 9",
        "index": 8
    }
]
</property>
  <property name="kdenlive:docproperties.kdenliveversion">23.08.4</property>
  <property name="kdenlive:docproperties.opensequences">{5d9a1881-23a1-459d-8d76-1cd643492ee4}</property>
  <property name="kdenlive:docproperties.previewextension"/>
  <property name="kdenlive:docproperties.previewparameters"/>
  <property name="kdenlive:docproperties.profile">/home/redxarch/.local/share/kdenlive/profiles/customprofile0</property>
  <property name="kdenlive:docproperties.proxyextension"/>
  <property name="kdenlive:docproperties.proxyimageminsize">2000</property>
  <property name="kdenlive:docproperties.proxyimagesize">800</property>
  <property name="kdenlive:docproperties.proxyminsize">1000</property>
  <property name="kdenlive:docproperties.proxyparams"/>
  <property name="kdenlive:docproperties.proxyresize">640</property>
  <property name="kdenlive:docproperties.rendercategory">Lossless/HQ</property>
  <property name="kdenlive:docproperties.rendercustomquality">100</property>
  <property name="kdenlive:docproperties.renderendguide">-1</property>
  <property name="kdenlive:docproperties.renderexportaudio">0</property>
  <property name="kdenlive:docproperties.renderfullcolorrange">0</property>
  <property name="kdenlive:docproperties.rendermode">0</property>
  <property name="kdenlive:docproperties.renderplay">0</property>
  <property name="kdenlive:docproperties.renderpreview">0</property>
  <property name="kdenlive:docproperties.renderprofile">H.264 (libx264+aac)</property>
  <property name="kdenlive:docproperties.renderratio">0</property>
  <property name="kdenlive:docproperties.renderrescale">0</property>
  <property name="kdenlive:docproperties.renderrescaleheight">1</property>
  <property name="kdenlive:docproperties.renderrescalewidth">1</property>
  <property name="kdenlive:docproperties.renderspeed">0</property>
  <property name="kdenlive:docproperties.renderstartguide">-1</property>
  <property name="kdenlive:docproperties.rendertcoverlay">0</property>
  <property name="kdenlive:docproperties.rendertctype">-1</property>
  <property name="kdenlive:docproperties.rendertwopass">0</property>
  <property name="kdenlive:docproperties.seekOffset">30000</property>
  <property name="kdenlive:docproperties.uuid">{5d9a1881-23a1-459d-8d76-1cd643492ee4}</property>
  <property name="kdenlive:docproperties.version">1.1</property>
  <property name="kdenlive:docproperties.verticalzoom">1</property>
  <property name="kdenlive:docproperties.zoom">9</property>
  <property name="kdenlive:expandedFolders"/>
  <property name="kdenlive:binZoom">0</property>
  <property name="kdenlive:documentnotes">&lt;!DOCTYPE HTML PUBLIC "-//W3C//DTD HTML 4.0//EN" "http://www.w3.org/TR/REC-html40/strict.dtd">
&lt;html>&lt;head>&lt;meta name="qrichtext" content="1" />&lt;style type="text/css">
p, li { white-space: pre-wrap; }
&lt;/style>&lt;/head>&lt;body style=" font-family:'Noto Sans'; font-size:10pt; font-weight:400; font-style:normal;">
&lt;p style=" margin-top:0px; margin-bottom:0px; margin-left:0px; margin-right:0px; -qt-block-indent:0; text-indent:0px;">srt formatting: https://docs.fileformat.com/video/srt/&lt;/p>
&lt;p style=" margin-top:0px; margin-bottom:0px; margin-left:0px; margin-right:0px; -qt-block-indent:0; text-indent:0px;">adding empty char to raise subtitles by a line: https://emptycharacter.com/&lt;/p>&lt;/body>&lt;/html></property>
  <property name="xml_retain">1</property>
  <entry producer="chain31" in="00:00:00.000" out="00:23:54.763"/>
  <entry producer="chain27" in="00:00:00.000" out="00:23:54.763"/>
  <entry producer="chain32" in="00:00:00.000" out="00:23:55.472"/>
  <entry producer="chain28" in="00:00:00.000" out="00:23:55.472"/>
  <entry producer="chain33" in="00:00:00.000" out="00:23:55.430"/>
  <entry producer="chain30" in="00:00:00.000" out="00:23:55.430"/>
  <entry producer="chain34" in="00:00:00.000" out="00:23:55.430"/>
  <entry producer="chain29" in="00:00:00.000" out="00:23:55.430"/>
  <entry producer="chain36" in="00:00:00.000" out="00:23:55.597"/>
  <entry producer="chain37" in="00:00:00.000" out="00:23:55.597"/>
  <entry producer="chain20" in="00:00:00.000" out="00:03:11.220"/>
  <entry producer="chain21" in="00:00:00.000" out="00:01:42.584"/>
  <entry producer="chain35" in="00:00:00.000" out="00:24:09.593"/>
  <entry producer="tractor6" in="00:00:00.000" out="01:19:07.883"/>
 </playlist>
 <tractor id="tractor7" in="00:00:00.000" out="01:19:05.297">
  <property name="kdenlive:projectTractor">1</property>
  <track producer="tractor6" in="00:00:00.000" out="01:19:05.297"/>
 </tractor>
</mlt>
