<?xml version='1.0' encoding='utf-8'?>
<mlt LC_NUMERIC="C" producer="main_bin" root="/mnt/data1/Anime-Edits/Monster/Monster-Editing/Editing" version="7.26.0">
 <profile colorspace="709" description="1440x1080 23.98fps" display_aspect_den="3" display_aspect_num="4" frame_rate_den="1001" frame_rate_num="24000" height="1080" progressive="1" sample_aspect_den="1" sample_aspect_num="1" width="1440"/>
 <chain id="chain11" out="00:23:54.012">
  <property name="length">34382</property>
  <property name="eof">pause</property>
  <property name="resource">/mnt/data1/Anime-Edits/Monster/Monster-Editing/Audio/eng/Ep09.wav</property>
  <property name="mlt_service">avformat</property>
  <property name="meta.media.nb_streams">1</property>
  <property name="meta.media.0.stream.type">audio</property>
  <property name="meta.media.0.codec.sample_fmt">s16</property>
  <property name="meta.media.0.codec.sample_rate">48000</property>
  <property name="meta.media.0.codec.channels">2</property>
  <property name="meta.media.0.codec.name">pcm_s16le</property>
  <property name="meta.media.0.codec.long_name">PCM signed 16-bit little-endian</property>
  <property name="meta.media.0.codec.bit_rate">1536000</property>
  <property name="meta.attr.title.markup">Monster : Chapter 09 : Elderly Soldier And A Young Girl</property>
  <property name="meta.attr.encoder.markup">Lavf60.16.100</property>
  <property name="seekable">1</property>
  <property name="audio_index">0</property>
  <property name="video_index">-1</property>
  <property name="astream">0</property>
  <property name="kdenlive:proxy">-</property>
  <property name="kdenlive:originalurl">/mnt/data1/Anime-Edits/Monster/Monster-Editing/Audio/eng/Ep09.wav</property>
  <property name="kdenlive:id">2</property>
  <property name="kdenlive:clip_type">1</property>
  <property name="kdenlive:file_size">275331214</property>
  <property name="kdenlive:file_hash">7df013b1070174663caf9588b7744866</property>
  <property name="kdenlive:folderid">-1</property>
  <property name="kdenlive:audio_max0">165</property>
  <property name="kdenlive:control_uuid">{f6a6cc5d-d907-4438-8cb6-70f166f61d83}</property>
  <property name="meta.media.0.codec.layout">independent</property>
 </chain>
 <chain id="chain12" out="00:23:54.012">
  <property name="length">34382</property>
  <property name="eof">pause</property>
  <property name="resource">/mnt/data1/Anime-Edits/Monster/Monster-Editing/Audio/eng/Ep10.wav</property>
  <property name="mlt_service">avformat</property>
  <property name="meta.media.nb_streams">1</property>
  <property name="meta.media.0.stream.type">audio</property>
  <property name="meta.media.0.codec.sample_fmt">s16</property>
  <property name="meta.media.0.codec.sample_rate">48000</property>
  <property name="meta.media.0.codec.channels">2</property>
  <property name="meta.media.0.codec.name">pcm_s16le</property>
  <property name="meta.media.0.codec.long_name">PCM signed 16-bit little-endian</property>
  <property name="meta.media.0.codec.bit_rate">1536000</property>
  <property name="meta.attr.title.markup">Monster : Chapter 10 : An Erased Past</property>
  <property name="meta.attr.encoder.markup">Lavf60.16.100</property>
  <property name="seekable">1</property>
  <property name="audio_index">0</property>
  <property name="video_index">-1</property>
  <property name="astream">0</property>
  <property name="kdenlive:proxy">-</property>
  <property name="kdenlive:originalurl">/mnt/data1/Anime-Edits/Monster/Monster-Editing/Audio/eng/Ep10.wav</property>
  <property name="kdenlive:id">3</property>
  <property name="kdenlive:clip_type">1</property>
  <property name="kdenlive:file_size">275331196</property>
  <property name="kdenlive:file_hash">4c7852d7bb142a12f96ab1c28bc9b9ae</property>
  <property name="kdenlive:folderid">-1</property>
  <property name="kdenlive:audio_max0">168</property>
  <property name="kdenlive:control_uuid">{19c3e707-04b5-42ec-acdb-860487637ae4}</property>
  <property name="meta.media.0.codec.layout">independent</property>
 </chain>
 <chain id="producer2" out="00:23:55.555">
  <property name="length">34419</property>
  <property name="eof">pause</property>
  <property name="resource">/mnt/data0/Monster/Monster-Editing/Orig/Monster - Chapter 09 - Elderly Soldier And A Young Girl.mkv</property>
  <property name="mlt_service">avformat-novalidate</property>
  <property name="audio_index">1</property>
  <property name="video_index">0</property>
  <property name="meta.media.nb_streams">82</property>
  <property name="meta.media.0.stream.type">video</property>
  <property name="meta.media.0.stream.frame_rate">23.976</property>
  <property name="meta.media.0.stream.sample_aspect_ratio">1</property>
  <property name="meta.media.0.codec.width">1440</property>
  <property name="meta.media.0.codec.height">1080</property>
  <property name="meta.media.0.codec.rotate">0</property>
  <property name="meta.media.0.codec.pix_fmt">yuv420p10le</property>
  <property name="meta.media.0.codec.sample_aspect_ratio">1</property>
  <property name="meta.media.0.codec.colorspace">709</property>
  <property name="meta.media.0.codec.color_trc">1</property>
  <property name="meta.media.0.codec.name">hevc</property>
  <property name="meta.media.0.codec.long_name">HEVC (High Efficiency Video Coding)</property>
  <property name="meta.media.0.codec.bit_rate">0</property>
  <property name="meta.attr.0.stream.BPS.markup">2319496</property>
  <property name="meta.attr.0.stream.DURATION.markup">00:23:55.518000000</property>
  <property name="meta.attr.0.stream.NUMBER_OF_FRAMES.markup">34418</property>
  <property name="meta.attr.0.stream.NUMBER_OF_BYTES.markup">416209934</property>
  <property name="meta.attr.0.stream._STATISTICS_WRITING_APP.markup">mkvmerge v61.0.0 ('So') 64-bit</property>
  <property name="meta.attr.0.stream._STATISTICS_WRITING_DATE_UTC.markup">2022-10-22 08:25:38</property>
  <property name="meta.attr.0.stream._STATISTICS_TAGS.markup">BPS DURATION NUMBER_OF_FRAMES NUMBER_OF_BYTES</property>
  <property name="meta.media.1.stream.type">audio</property>
  <property name="meta.media.1.codec.sample_fmt">fltp</property>
  <property name="meta.media.1.codec.sample_rate">48000</property>
  <property name="meta.media.1.codec.channels">2</property>
  <property name="meta.media.1.codec.name">ac3</property>
  <property name="meta.media.1.codec.long_name">ATSC A/52A (AC-3)</property>
  <property name="meta.media.1.codec.bit_rate">448000</property>
  <property name="meta.attr.1.stream.language.markup">jpn</property>
  <property name="meta.attr.1.stream.title.markup">Japanese DVD AC-3 DD_2.0</property>
  <property name="meta.attr.1.stream.BPS.markup">448000</property>
  <property name="meta.attr.1.stream.DURATION.markup">00:23:55.552000000</property>
  <property name="meta.attr.1.stream.NUMBER_OF_FRAMES.markup">44861</property>
  <property name="meta.attr.1.stream.NUMBER_OF_BYTES.markup">80390912</property>
  <property name="meta.attr.1.stream._STATISTICS_WRITING_APP.markup">mkvmerge v61.0.0 ('So') 64-bit</property>
  <property name="meta.attr.1.stream._STATISTICS_WRITING_DATE_UTC.markup">2022-10-22 08:25:38</property>
  <property name="meta.attr.1.stream._STATISTICS_TAGS.markup">BPS DURATION NUMBER_OF_FRAMES NUMBER_OF_BYTES</property>
  <property name="meta.media.2.stream.type">audio</property>
  <property name="meta.media.2.codec.sample_fmt">fltp</property>
  <property name="meta.media.2.codec.sample_rate">48000</property>
  <property name="meta.media.2.codec.channels">2</property>
  <property name="meta.media.2.codec.name">aac</property>
  <property name="meta.media.2.codec.long_name">AAC (Advanced Audio Coding)</property>
  <property name="meta.media.2.codec.bit_rate">0</property>
  <property name="meta.attr.2.stream.language.markup">eng</property>
  <property name="meta.attr.2.stream.title.markup">English AAC DD_2.0</property>
  <property name="meta.attr.2.stream.BPS.markup">167759</property>
  <property name="meta.attr.2.stream.DURATION.markup">00:23:55.285000000</property>
  <property name="meta.attr.2.stream.NUMBER_OF_FRAMES.markup">67279</property>
  <property name="meta.attr.2.stream.NUMBER_OF_BYTES.markup">30097775</property>
  <property name="meta.attr.2.stream._STATISTICS_WRITING_APP.markup">mkvmerge v61.0.0 ('So') 64-bit</property>
  <property name="meta.attr.2.stream._STATISTICS_WRITING_DATE_UTC.markup">2022-10-22 08:25:38</property>
  <property name="meta.attr.2.stream._STATISTICS_TAGS.markup">BPS DURATION NUMBER_OF_FRAMES NUMBER_OF_BYTES</property>
  <property name="meta.media.3.codec.name">ssa</property>
  <property name="meta.media.3.codec.long_name">ASS (Advanced SubStation Alpha) subtitle</property>
  <property name="meta.media.3.codec.bit_rate">0</property>
  <property name="meta.attr.3.stream.language.markup">eng</property>
  <property name="meta.attr.3.stream.title.markup">English (Full) ASS</property>
  <property name="meta.attr.3.stream.BPS.markup">44</property>
  <property name="meta.attr.3.stream.DURATION.markup">00:23:42.490000000</property>
  <property name="meta.attr.3.stream.NUMBER_OF_FRAMES.markup">141</property>
  <property name="meta.attr.3.stream.NUMBER_OF_BYTES.markup">7862</property>
  <property name="meta.attr.3.stream._STATISTICS_WRITING_APP.markup">mkvmerge v61.0.0 ('So') 64-bit</property>
  <property name="meta.attr.3.stream._STATISTICS_WRITING_DATE_UTC.markup">2022-10-22 08:25:38</property>
  <property name="meta.attr.3.stream._STATISTICS_TAGS.markup">BPS DURATION NUMBER_OF_FRAMES NUMBER_OF_BYTES</property>
  <property name="meta.media.4.codec.name">ssa</property>
  <property name="meta.media.4.codec.long_name">ASS (Advanced SubStation Alpha) subtitle</property>
  <property name="meta.media.4.codec.bit_rate">0</property>
  <property name="meta.attr.4.stream.language.markup">eng</property>
  <property name="meta.attr.4.stream.title.markup">English (Titles &amp; Signs) ASS</property>
  <property name="meta.attr.4.stream.BPS.markup">1</property>
  <property name="meta.attr.4.stream.DURATION.markup">00:21:38.460000000</property>
  <property name="meta.attr.4.stream.NUMBER_OF_FRAMES.markup">4</property>
  <property name="meta.attr.4.stream.NUMBER_OF_BYTES.markup">278</property>
  <property name="meta.attr.4.stream._STATISTICS_WRITING_APP.markup">mkvmerge v61.0.0 ('So') 64-bit</property>
  <property name="meta.attr.4.stream._STATISTICS_WRITING_DATE_UTC.markup">2022-10-22 08:25:38</property>
  <property name="meta.attr.4.stream._STATISTICS_TAGS.markup">BPS DURATION NUMBER_OF_FRAMES NUMBER_OF_BYTES</property>
  <property name="meta.media.5.codec.name">ssa</property>
  <property name="meta.media.5.codec.long_name">ASS (Advanced SubStation Alpha) subtitle</property>
  <property name="meta.media.5.codec.bit_rate">0</property>
  <property name="meta.attr.5.stream.language.markup">ara</property>
  <property name="meta.attr.5.stream.title.markup">Arabic</property>
  <property name="meta.attr.5.stream.BPS.markup">55</property>
  <property name="meta.attr.5.stream.DURATION.markup">00:21:03.330000000</property>
  <property name="meta.attr.5.stream.NUMBER_OF_FRAMES.markup">158</property>
  <property name="meta.attr.5.stream.NUMBER_OF_BYTES.markup">8797</property>
  <property name="meta.attr.5.stream._STATISTICS_WRITING_APP.markup">mkvmerge v61.0.0 ('So') 64-bit</property>
  <property name="meta.attr.5.stream._STATISTICS_WRITING_DATE_UTC.markup">2022-10-22 08:25:38</property>
  <property name="meta.attr.5.stream._STATISTICS_TAGS.markup">BPS DURATION NUMBER_OF_FRAMES NUMBER_OF_BYTES</property>
  <property name="meta.attr.title.markup">Monster : Chapter 09 : Elderly Soldier And A Young Girl</property>
  <property name="meta.attr.encoder.markup">libebml v1.4.2 + libmatroska v1.6.4</property>
  <property name="meta.attr.creation_time.markup">2022-10-22T08:25:38.000000Z</property>
  <property name="seekable">1</property>
  <property name="meta.media.sample_aspect_num">1</property>
  <property name="meta.media.sample_aspect_den">1</property>
  <property name="aspect_ratio">1</property>
  <property name="format">3</property>
  <property name="kdenlive:clipname"/>
  <property name="kdenlive:clip_type">0</property>
  <property name="kdenlive:folderid">-1</property>
  <property name="kdenlive:id">4</property>
  <property name="kdenlive:active_streams">1;2</property>
  <property name="kdenlive:file_size">546562530</property>
  <property name="kdenlive:file_hash">10d26f59a28b41e2c6ccc00593ac5600</property>
  <property name="kdenlive:audio_max1">180</property>
  <property name="kdenlive:audio_max2">191</property>
  <property name="meta.media.frame_rate_num">24000</property>
  <property name="meta.media.frame_rate_den">1001</property>
  <property name="meta.media.colorspace">709</property>
  <property name="meta.media.color_trc">1</property>
  <property name="meta.media.has_b_frames">2</property>
  <property name="meta.media.width">1440</property>
  <property name="meta.media.height">1080</property>
  <property name="meta.media.color_range">mpeg</property>
  <property name="meta.media.top_field_first">0</property>
  <property name="meta.media.progressive">1</property>
  <property name="kdenlive:control_uuid">{9a4e1399-7c09-4a28-ae8b-68d560db1d40}</property>
 </chain>
 <chain id="producer3" out="00:23:55.514">
  <property name="length">34418</property>
  <property name="eof">pause</property>
  <property name="resource">/mnt/data0/Monster/Monster-Editing/Orig/Monster - Chapter 10 - An Erased Past.mkv</property>
  <property name="mlt_service">avformat-novalidate</property>
  <property name="audio_index">1</property>
  <property name="video_index">0</property>
  <property name="meta.media.nb_streams">82</property>
  <property name="meta.media.0.stream.type">video</property>
  <property name="meta.media.0.stream.frame_rate">23.976</property>
  <property name="meta.media.0.stream.sample_aspect_ratio">1</property>
  <property name="meta.media.0.codec.width">1440</property>
  <property name="meta.media.0.codec.height">1080</property>
  <property name="meta.media.0.codec.rotate">0</property>
  <property name="meta.media.0.codec.pix_fmt">yuv420p10le</property>
  <property name="meta.media.0.codec.sample_aspect_ratio">1</property>
  <property name="meta.media.0.codec.colorspace">709</property>
  <property name="meta.media.0.codec.color_trc">1</property>
  <property name="meta.media.0.codec.name">hevc</property>
  <property name="meta.media.0.codec.long_name">HEVC (High Efficiency Video Coding)</property>
  <property name="meta.media.0.codec.bit_rate">0</property>
  <property name="meta.attr.0.stream.BPS.markup">1837948</property>
  <property name="meta.attr.0.stream.DURATION.markup">00:23:55.518000000</property>
  <property name="meta.attr.0.stream.NUMBER_OF_FRAMES.markup">34418</property>
  <property name="meta.attr.0.stream.NUMBER_OF_BYTES.markup">329801077</property>
  <property name="meta.attr.0.stream._STATISTICS_WRITING_APP.markup">mkvmerge v61.0.0 ('So') 64-bit</property>
  <property name="meta.attr.0.stream._STATISTICS_WRITING_DATE_UTC.markup">2022-10-22 08:26:10</property>
  <property name="meta.attr.0.stream._STATISTICS_TAGS.markup">BPS DURATION NUMBER_OF_FRAMES NUMBER_OF_BYTES</property>
  <property name="meta.media.1.stream.type">audio</property>
  <property name="meta.media.1.codec.sample_fmt">fltp</property>
  <property name="meta.media.1.codec.sample_rate">48000</property>
  <property name="meta.media.1.codec.channels">2</property>
  <property name="meta.media.1.codec.name">ac3</property>
  <property name="meta.media.1.codec.long_name">ATSC A/52A (AC-3)</property>
  <property name="meta.media.1.codec.bit_rate">448000</property>
  <property name="meta.attr.1.stream.language.markup">jpn</property>
  <property name="meta.attr.1.stream.title.markup">Japanese DVD AC-3 DD_2.0</property>
  <property name="meta.attr.1.stream.BPS.markup">448000</property>
  <property name="meta.attr.1.stream.DURATION.markup">00:23:55.520000000</property>
  <property name="meta.attr.1.stream.NUMBER_OF_FRAMES.markup">44860</property>
  <property name="meta.attr.1.stream.NUMBER_OF_BYTES.markup">80389120</property>
  <property name="meta.attr.1.stream._STATISTICS_WRITING_APP.markup">mkvmerge v61.0.0 ('So') 64-bit</property>
  <property name="meta.attr.1.stream._STATISTICS_WRITING_DATE_UTC.markup">2022-10-22 08:26:10</property>
  <property name="meta.attr.1.stream._STATISTICS_TAGS.markup">BPS DURATION NUMBER_OF_FRAMES NUMBER_OF_BYTES</property>
  <property name="meta.media.2.stream.type">audio</property>
  <property name="meta.media.2.codec.sample_fmt">fltp</property>
  <property name="meta.media.2.codec.sample_rate">48000</property>
  <property name="meta.media.2.codec.channels">2</property>
  <property name="meta.media.2.codec.name">aac</property>
  <property name="meta.media.2.codec.long_name">AAC (Advanced Audio Coding)</property>
  <property name="meta.media.2.codec.bit_rate">0</property>
  <property name="meta.attr.2.stream.language.markup">eng</property>
  <property name="meta.attr.2.stream.title.markup">English AAC DD_2.0</property>
  <property name="meta.attr.2.stream.BPS.markup">156054</property>
  <property name="meta.attr.2.stream.DURATION.markup">00:23:55.413000000</property>
  <property name="meta.attr.2.stream.NUMBER_OF_FRAMES.markup">67285</property>
  <property name="meta.attr.2.stream.NUMBER_OF_BYTES.markup">28000365</property>
  <property name="meta.attr.2.stream._STATISTICS_WRITING_APP.markup">mkvmerge v61.0.0 ('So') 64-bit</property>
  <property name="meta.attr.2.stream._STATISTICS_WRITING_DATE_UTC.markup">2022-10-22 08:26:10</property>
  <property name="meta.attr.2.stream._STATISTICS_TAGS.markup">BPS DURATION NUMBER_OF_FRAMES NUMBER_OF_BYTES</property>
  <property name="meta.media.3.codec.name">ssa</property>
  <property name="meta.media.3.codec.long_name">ASS (Advanced SubStation Alpha) subtitle</property>
  <property name="meta.media.3.codec.bit_rate">0</property>
  <property name="meta.attr.3.stream.language.markup">eng</property>
  <property name="meta.attr.3.stream.title.markup">English (Full) ASS</property>
  <property name="meta.attr.3.stream.BPS.markup">106</property>
  <property name="meta.attr.3.stream.DURATION.markup">00:23:49.070000000</property>
  <property name="meta.attr.3.stream.NUMBER_OF_FRAMES.markup">316</property>
  <property name="meta.attr.3.stream.NUMBER_OF_BYTES.markup">19090</property>
  <property name="meta.attr.3.stream._STATISTICS_WRITING_APP.markup">mkvmerge v61.0.0 ('So') 64-bit</property>
  <property name="meta.attr.3.stream._STATISTICS_WRITING_DATE_UTC.markup">2022-10-22 08:26:10</property>
  <property name="meta.attr.3.stream._STATISTICS_TAGS.markup">BPS DURATION NUMBER_OF_FRAMES NUMBER_OF_BYTES</property>
  <property name="meta.media.4.codec.name">ssa</property>
  <property name="meta.media.4.codec.long_name">ASS (Advanced SubStation Alpha) subtitle</property>
  <property name="meta.media.4.codec.bit_rate">0</property>
  <property name="meta.attr.4.stream.language.markup">eng</property>
  <property name="meta.attr.4.stream.title.markup">English (Titles &amp; Signs) ASS</property>
  <property name="meta.attr.4.stream.BPS.markup">1</property>
  <property name="meta.attr.4.stream.DURATION.markup">00:21:51.470000000</property>
  <property name="meta.attr.4.stream.NUMBER_OF_FRAMES.markup">3</property>
  <property name="meta.attr.4.stream.NUMBER_OF_BYTES.markup">204</property>
  <property name="meta.attr.4.stream._STATISTICS_WRITING_APP.markup">mkvmerge v61.0.0 ('So') 64-bit</property>
  <property name="meta.attr.4.stream._STATISTICS_WRITING_DATE_UTC.markup">2022-10-22 08:26:10</property>
  <property name="meta.attr.4.stream._STATISTICS_TAGS.markup">BPS DURATION NUMBER_OF_FRAMES NUMBER_OF_BYTES</property>
  <property name="meta.media.5.codec.name">ssa</property>
  <property name="meta.media.5.codec.long_name">ASS (Advanced SubStation Alpha) subtitle</property>
  <property name="meta.media.5.codec.bit_rate">0</property>
  <property name="meta.attr.5.stream.language.markup">ara</property>
  <property name="meta.attr.5.stream.title.markup">Arabic</property>
  <property name="meta.attr.5.stream.BPS.markup">131</property>
  <property name="meta.attr.5.stream.DURATION.markup">00:22:21.630000000</property>
  <property name="meta.attr.5.stream.NUMBER_OF_FRAMES.markup">360</property>
  <property name="meta.attr.5.stream.NUMBER_OF_BYTES.markup">22061</property>
  <property name="meta.attr.5.stream._STATISTICS_WRITING_APP.markup">mkvmerge v61.0.0 ('So') 64-bit</property>
  <property name="meta.attr.5.stream._STATISTICS_WRITING_DATE_UTC.markup">2022-10-22 08:26:10</property>
  <property name="meta.attr.5.stream._STATISTICS_TAGS.markup">BPS DURATION NUMBER_OF_FRAMES NUMBER_OF_BYTES</property>
  <property name="meta.attr.title.markup">Monster : Chapter 10 : An Erased Past</property>
  <property name="meta.attr.encoder.markup">libebml v1.4.2 + libmatroska v1.6.4</property>
  <property name="meta.attr.creation_time.markup">2022-10-22T08:26:10.000000Z</property>
  <property name="seekable">1</property>
  <property name="meta.media.sample_aspect_num">1</property>
  <property name="meta.media.sample_aspect_den">1</property>
  <property name="aspect_ratio">1</property>
  <property name="format">3</property>
  <property name="kdenlive:clipname"/>
  <property name="kdenlive:clip_type">0</property>
  <property name="kdenlive:folderid">-1</property>
  <property name="kdenlive:id">5</property>
  <property name="kdenlive:active_streams">1;2</property>
  <property name="kdenlive:file_size">458092872</property>
  <property name="kdenlive:file_hash">2db7a8fe0113cab102dd9cb9dc770368</property>
  <property name="kdenlive:audio_max1">180</property>
  <property name="kdenlive:audio_max2">202</property>
  <property name="meta.media.frame_rate_num">24000</property>
  <property name="meta.media.frame_rate_den">1001</property>
  <property name="meta.media.colorspace">709</property>
  <property name="meta.media.color_trc">1</property>
  <property name="meta.media.has_b_frames">2</property>
  <property name="meta.media.width">1440</property>
  <property name="meta.media.height">1080</property>
  <property name="meta.media.color_range">mpeg</property>
  <property name="meta.media.top_field_first">0</property>
  <property name="meta.media.progressive">1</property>
  <property name="kdenlive:control_uuid">{a5f43af7-506f-40a7-ab1a-ea35b9c3d8c9}</property>
 </chain>
 <chain id="chain4" out="00:01:11.887">
  <property name="length">1724</property>
  <property name="eof">pause</property>
  <property name="resource">/mnt/data1/Anime-Edits/Monster/Monster-Editing/Monster [Ultimate Collection] By Kira [SEV]/Original Soundtracks [2004]/Monster - Original Soundtrack [2004]/12 - idler wheel.flac</property>
  <property name="mlt_service">avformat-novalidate</property>
  <property name="meta.media.nb_streams">2</property>
  <property name="meta.media.0.stream.type">audio</property>
  <property name="meta.media.0.codec.sample_fmt">s16</property>
  <property name="meta.media.0.codec.sample_rate">44100</property>
  <property name="meta.media.0.codec.channels">2</property>
  <property name="meta.media.0.codec.name">flac</property>
  <property name="meta.media.0.codec.long_name">FLAC (Free Lossless Audio Codec)</property>
  <property name="meta.media.0.codec.bit_rate">0</property>
  <property name="meta.media.1.stream.type">video</property>
  <property name="meta.media.1.stream.frame_rate">90000</property>
  <property name="meta.media.1.stream.sample_aspect_ratio">0</property>
  <property name="meta.media.1.codec.width">1669</property>
  <property name="meta.media.1.codec.height">1486</property>
  <property name="meta.media.1.codec.rotate">0</property>
  <property name="meta.media.1.codec.pix_fmt">yuvj420p</property>
  <property name="meta.media.1.codec.sample_aspect_ratio">0</property>
  <property name="meta.media.1.codec.colorspace">601</property>
  <property name="meta.media.1.codec.name">mjpeg</property>
  <property name="meta.media.1.codec.long_name">MJPEG (Motion JPEG)</property>
  <property name="meta.media.1.codec.bit_rate">0</property>
  <property name="meta.attr.1.stream.comment.markup">Cover (front)</property>
  <property name="meta.attr.TITLE.markup">idler wheel</property>
  <property name="meta.attr.ARTIST.markup">Kuniaki Haishima</property>
  <property name="meta.attr.ALBUM.markup">Monster : Original Soundtrack</property>
  <property name="meta.attr.DATE.markup">2004</property>
  <property name="meta.attr.GENRE.markup">Anime</property>
  <property name="meta.attr.COMPOSER.markup">Kuniaki Haishima</property>
  <property name="meta.attr.ORIGINALARTIST.markup">Kuniaki Haishima</property>
  <property name="meta.attr.ENCODEDBY.markup">Mr. J</property>
  <property name="meta.attr.track.markup">12/24</property>
  <property name="meta.attr.disc.markup">01/01</property>
  <property name="meta.attr.ORIGARTIST.markup">Kuniaki Haishima</property>
  <property name="meta.attr.ALBUM ARTIST.markup">Kuniaki Haishima</property>
  <property name="meta.attr.ARTISTSORT.markup">Kuniaki Haishima</property>
  <property name="meta.attr.ALBUMARTISTSORT.markup">Kuniaki Haishima</property>
  <property name="meta.attr.ALBUMSORT.markup">Monster : Original Soundtrack</property>
  <property name="meta.attr.COMPOSERSORT.markup">Kuniaki Haishima</property>
  <property name="meta.attr.SHOWSORT.markup">Monster</property>
  <property name="seekable">1</property>
  <property name="meta.media.sample_aspect_num">1</property>
  <property name="meta.media.sample_aspect_den">1</property>
  <property name="format">3</property>
  <property name="audio_index">0</property>
  <property name="video_index">1</property>
  <property name="vstream">0</property>
  <property name="meta.media.frame_rate_num">90000</property>
  <property name="meta.media.frame_rate_den">1</property>
  <property name="meta.media.colorspace">601</property>
  <property name="meta.media.color_trc">2</property>
  <property name="meta.media.has_b_frames">0</property>
  <property name="meta.media.width">1669</property>
  <property name="meta.media.height">1486</property>
  <property name="meta.media.color_range">full</property>
  <property name="astream">0</property>
  <property name="meta.media.top_field_first">0</property>
  <property name="meta.media.progressive">1</property>
  <property name="kdenlive:folderid">-1</property>
  <property name="kdenlive:id">8</property>
  <property name="mute_on_pause">0</property>
  <property name="kdenlive:clip_type">0</property>
  <property name="kdenlive:file_size">8223693</property>
  <property name="kdenlive:file_hash">e5a582c5b47d14b3764e017d4c4a0910</property>
  <property name="kdenlive:audio_max0">208</property>
  <property name="kdenlive:control_uuid">{8117c10a-4a5b-47c0-9c42-d1274a436ba6}</property>
 </chain>
 <chain id="chain5" out="00:02:00.584">
  <property name="length">2892</property>
  <property name="eof">pause</property>
  <property name="resource">/mnt/data1/Anime-Edits/Monster/Monster-Editing/Monster [Ultimate Collection] By Kira [SEV]/Original Soundtracks [2004]/Monster - Original Soundtrack [2004]/04 - Part.flac</property>
  <property name="mlt_service">avformat-novalidate</property>
  <property name="meta.media.nb_streams">2</property>
  <property name="meta.media.0.stream.type">audio</property>
  <property name="meta.media.0.codec.sample_fmt">s16</property>
  <property name="meta.media.0.codec.sample_rate">44100</property>
  <property name="meta.media.0.codec.channels">2</property>
  <property name="meta.media.0.codec.name">flac</property>
  <property name="meta.media.0.codec.long_name">FLAC (Free Lossless Audio Codec)</property>
  <property name="meta.media.0.codec.bit_rate">0</property>
  <property name="meta.media.1.stream.type">video</property>
  <property name="meta.media.1.stream.frame_rate">90000</property>
  <property name="meta.media.1.stream.sample_aspect_ratio">0</property>
  <property name="meta.media.1.codec.width">1669</property>
  <property name="meta.media.1.codec.height">1486</property>
  <property name="meta.media.1.codec.rotate">0</property>
  <property name="meta.media.1.codec.pix_fmt">yuvj420p</property>
  <property name="meta.media.1.codec.sample_aspect_ratio">0</property>
  <property name="meta.media.1.codec.colorspace">601</property>
  <property name="meta.media.1.codec.name">mjpeg</property>
  <property name="meta.media.1.codec.long_name">MJPEG (Motion JPEG)</property>
  <property name="meta.media.1.codec.bit_rate">0</property>
  <property name="meta.attr.1.stream.comment.markup">Cover (front)</property>
  <property name="meta.attr.TITLE.markup">Part</property>
  <property name="meta.attr.ARTIST.markup">Kuniaki Haishima</property>
  <property name="meta.attr.ALBUM.markup">Monster : Original Soundtrack</property>
  <property name="meta.attr.DATE.markup">2004</property>
  <property name="meta.attr.GENRE.markup">Anime</property>
  <property name="meta.attr.COMPOSER.markup">Kuniaki Haishima</property>
  <property name="meta.attr.ORIGINALARTIST.markup">Kuniaki Haishima</property>
  <property name="meta.attr.ENCODEDBY.markup">Mr. J</property>
  <property name="meta.attr.track.markup">04/24</property>
  <property name="meta.attr.disc.markup">01/01</property>
  <property name="meta.attr.ORIGARTIST.markup">Kuniaki Haishima</property>
  <property name="meta.attr.ALBUM ARTIST.markup">Kuniaki Haishima</property>
  <property name="meta.attr.ARTISTSORT.markup">Kuniaki Haishima</property>
  <property name="meta.attr.ALBUMARTISTSORT.markup">Kuniaki Haishima</property>
  <property name="meta.attr.ALBUMSORT.markup">Monster : Original Soundtrack</property>
  <property name="meta.attr.COMPOSERSORT.markup">Kuniaki Haishima</property>
  <property name="meta.attr.SHOWSORT.markup">Monster</property>
  <property name="seekable">1</property>
  <property name="meta.media.sample_aspect_num">1</property>
  <property name="meta.media.sample_aspect_den">1</property>
  <property name="format">3</property>
  <property name="audio_index">0</property>
  <property name="video_index">1</property>
  <property name="vstream">0</property>
  <property name="meta.media.frame_rate_num">90000</property>
  <property name="meta.media.frame_rate_den">1</property>
  <property name="meta.media.colorspace">601</property>
  <property name="meta.media.color_trc">2</property>
  <property name="meta.media.has_b_frames">0</property>
  <property name="meta.media.width">1669</property>
  <property name="meta.media.height">1486</property>
  <property name="meta.media.color_range">full</property>
  <property name="astream">0</property>
  <property name="meta.media.top_field_first">0</property>
  <property name="meta.media.progressive">1</property>
  <property name="kdenlive:folderid">-1</property>
  <property name="kdenlive:id">9</property>
  <property name="mute_on_pause">0</property>
  <property name="kdenlive:clip_type">0</property>
  <property name="kdenlive:file_size">10641241</property>
  <property name="kdenlive:file_hash">9db49e1a1d105b8da8b7f2fb51a501ee</property>
  <property name="kdenlive:audio_max0">211</property>
  <property name="kdenlive:control_uuid">{e597f7fb-ade7-48c0-97f1-dd09e34f660b}</property>
 </chain>
 <chain id="chain6" out="00:05:53.220">
  <property name="length">8469</property>
  <property name="eof">pause</property>
  <property name="resource">/mnt/data1/Anime-Edits/Monster/Monster-Editing/Monster [Ultimate Collection] By Kira [SEV]/Original Soundtracks [2004]/Various Artists - Monster Remix -Octopus- [2004]/04 - Drift Mind (Child who dreams mix).flac</property>
  <property name="mlt_service">avformat-novalidate</property>
  <property name="meta.media.nb_streams">2</property>
  <property name="meta.media.0.stream.type">audio</property>
  <property name="meta.media.0.codec.sample_fmt">s16</property>
  <property name="meta.media.0.codec.sample_rate">44100</property>
  <property name="meta.media.0.codec.channels">2</property>
  <property name="meta.media.0.codec.name">flac</property>
  <property name="meta.media.0.codec.long_name">FLAC (Free Lossless Audio Codec)</property>
  <property name="meta.media.0.codec.bit_rate">0</property>
  <property name="meta.media.1.stream.type">video</property>
  <property name="meta.media.1.stream.frame_rate">90000</property>
  <property name="meta.media.1.stream.sample_aspect_ratio">0</property>
  <property name="meta.media.1.codec.width">1642</property>
  <property name="meta.media.1.codec.height">1462</property>
  <property name="meta.media.1.codec.rotate">0</property>
  <property name="meta.media.1.codec.pix_fmt">yuvj420p</property>
  <property name="meta.media.1.codec.sample_aspect_ratio">1</property>
  <property name="meta.media.1.codec.colorspace">601</property>
  <property name="meta.media.1.codec.name">mjpeg</property>
  <property name="meta.media.1.codec.long_name">MJPEG (Motion JPEG)</property>
  <property name="meta.media.1.codec.bit_rate">0</property>
  <property name="meta.attr.1.stream.comment.markup">Cover (front)</property>
  <property name="meta.attr.CATALOG.markup">VPCC-81491</property>
  <property name="meta.attr.TITLE.markup">Drift Mind (Child who dreams mix)</property>
  <property name="meta.attr.ARTIST.markup">FreeTEMPO</property>
  <property name="meta.attr.ALBUM.markup">Monster Remix -Octopus-</property>
  <property name="meta.attr.DATE.markup">2004</property>
  <property name="meta.attr.GENRE.markup">Anime</property>
  <property name="meta.attr.ORIGINALARTIST.markup">Various Artists</property>
  <property name="meta.attr.ENCODEDBY.markup">Mr. J</property>
  <property name="meta.attr.track.markup">04/08</property>
  <property name="meta.attr.disc.markup">01/01</property>
  <property name="meta.attr.ORIGARTIST.markup">Various Artists</property>
  <property name="meta.attr.ALBUM ARTIST.markup">Various Artists</property>
  <property name="meta.attr.ALBUMARTISTSORT.markup">Various Artists</property>
  <property name="meta.attr.ALBUMSORT.markup">Monster Remix -Octopus-</property>
  <property name="seekable">1</property>
  <property name="meta.media.sample_aspect_num">72</property>
  <property name="meta.media.sample_aspect_den">72</property>
  <property name="format">3</property>
  <property name="audio_index">0</property>
  <property name="video_index">1</property>
  <property name="vstream">0</property>
  <property name="meta.media.frame_rate_num">90000</property>
  <property name="meta.media.frame_rate_den">1</property>
  <property name="meta.media.colorspace">601</property>
  <property name="meta.media.color_trc">2</property>
  <property name="meta.media.has_b_frames">0</property>
  <property name="meta.media.width">1642</property>
  <property name="meta.media.height">1462</property>
  <property name="meta.media.color_range">full</property>
  <property name="astream">0</property>
  <property name="meta.media.top_field_first">0</property>
  <property name="meta.media.progressive">1</property>
  <property name="kdenlive:folderid">-1</property>
  <property name="kdenlive:id">10</property>
  <property name="mute_on_pause">0</property>
  <property name="kdenlive:clip_type">0</property>
  <property name="kdenlive:file_size">32501837</property>
  <property name="kdenlive:file_hash">e63e82ec21e9394c2716e70d0752a884</property>
  <property name="kdenlive:audio_max0">241</property>
  <property name="kdenlive:control_uuid">{3b46b4c9-6535-4199-ab41-43f18beddc6c}</property>
 </chain>
 <producer id="producer0" in="00:00:00.000" out="00:48:34.201">
  <property name="length">2147483647</property>
  <property name="eof">continue</property>
  <property name="resource">black</property>
  <property name="aspect_ratio">1</property>
  <property name="mlt_service">color</property>
  <property name="kdenlive:playlistid">black_track</property>
  <property name="mlt_image_format">rgba</property>
  <property name="set.test_audio">0</property>
 </producer>
 <chain id="chain0" out="00:23:54.012">
  <property name="length">34382</property>
  <property name="eof">pause</property>
  <property name="resource">/mnt/data1/Anime-Edits/Monster/Monster-Editing/Audio/eng/Ep09.wav</property>
  <property name="mlt_service">avformat-novalidate</property>
  <property name="seekable">1</property>
  <property name="audio_index">0</property>
  <property name="video_index">-1</property>
  <property name="astream">0</property>
  <property name="kdenlive:proxy">-</property>
  <property name="kdenlive:originalurl">/mnt/data1/Anime-Edits/Monster/Monster-Editing/Audio/eng/Ep09.wav</property>
  <property name="kdenlive:id">2</property>
  <property name="kdenlive:clip_type">1</property>
  <property name="kdenlive:file_size">275331214</property>
  <property name="kdenlive:file_hash">7df013b1070174663caf9588b7744866</property>
  <property name="kdenlive:folderid">-1</property>
  <property name="meta.media.nb_streams">1</property>
  <property name="meta.media.0.stream.type">audio</property>
  <property name="meta.media.0.codec.sample_fmt">s16</property>
  <property name="meta.media.0.codec.sample_rate">48000</property>
  <property name="meta.media.0.codec.channels">2</property>
  <property name="meta.media.0.codec.name">pcm_s16le</property>
  <property name="meta.media.0.codec.long_name">PCM signed 16-bit little-endian</property>
  <property name="meta.media.0.codec.bit_rate">1536000</property>
  <property name="meta.attr.title.markup">Monster : Chapter 09 : Elderly Soldier And A Young Girl</property>
  <property name="meta.attr.encoder.markup">Lavf60.16.100</property>
  <property name="xml">was here</property>
  <property name="mute_on_pause">0</property>
  <property name="set.test_audio">0</property>
  <property name="set.test_image">1</property>
  <property name="kdenlive:control_uuid">{f6a6cc5d-d907-4438-8cb6-70f166f61d83}</property>
  <property name="meta.media.0.codec.layout">independent</property>
 </chain>
 <playlist id="playlist0">
  <property name="kdenlive:audio_track">1</property>
  <blank length="00:04:36.536"/>
  <entry in="00:05:34.409" out="00:05:38.038" producer="chain0">
   <property name="kdenlive:id">2</property>
   <filter id="filter0" in="00:05:36.078" out="00:05:38.038">
    <property name="window">75</property>
    <property name="max_gain">20dB</property>
    <property name="mlt_service">volume</property>
    <property name="kdenlive_id">fadeout</property>
    <property name="gain">1</property>
    <property name="end">0</property>
    <property name="kdenlive:collapsed">0</property>
   </filter>
   <filter id="filter1" in="00:05:34.409" out="00:05:35.452">
    <property name="window">75</property>
    <property name="max_gain">20dB</property>
    <property name="mlt_service">volume</property>
    <property name="kdenlive_id">fadein</property>
    <property name="gain">0</property>
    <property name="end">1</property>
   </filter>
  </entry>
  <blank length="00:04:25.651"/>
  <entry in="00:10:04.963" out="00:10:08.842" producer="chain0">
   <property name="kdenlive:id">2</property>
   <filter id="filter2" in="00:10:04.963" out="00:10:07.090">
    <property name="window">75</property>
    <property name="max_gain">20dB</property>
    <property name="mlt_service">volume</property>
    <property name="kdenlive_id">fadein</property>
    <property name="gain">0</property>
    <property name="end">1</property>
    <property name="kdenlive:collapsed">0</property>
   </filter>
   <filter id="filter3" in="00:10:07.174" out="00:10:08.842">
    <property name="window">75</property>
    <property name="max_gain">20dB</property>
    <property name="mlt_service">volume</property>
    <property name="kdenlive_id">fadeout</property>
    <property name="gain">1</property>
    <property name="end">0</property>
    <property name="kdenlive:collapsed">0</property>
   </filter>
   <filter id="filter4">
    <property name="window">75</property>
    <property name="max_gain">20dB</property>
    <property name="mlt_service">volume</property>
    <property name="kdenlive_id">gain</property>
    <property name="gain">1.25</property>
    <property name="kdenlive:collapsed">0</property>
   </filter>
  </entry>
 </playlist>
 <playlist id="playlist1">
  <property name="kdenlive:audio_track">1</property>
 </playlist>
 <tractor id="tractor0" in="00:00:00.000" out="00:09:09.718">
  <property name="kdenlive:audio_track">1</property>
  <property name="kdenlive:trackheight">67</property>
  <property name="kdenlive:timeline_active">1</property>
  <property name="kdenlive:collapsed">0</property>
  <property name="kdenlive:thumbs_format"/>
  <property name="kdenlive:audio_rec"/>
  <track hide="video" producer="playlist0"/>
  <track hide="video" producer="playlist1"/>
  <filter id="filter5">
   <property name="window">75</property>
   <property name="max_gain">20dB</property>
   <property name="mlt_service">volume</property>
   <property name="internal_added">237</property>
   <property name="disable">1</property>
  </filter>
  <filter id="filter6">
   <property name="channel">-1</property>
   <property name="mlt_service">panner</property>
   <property name="internal_added">237</property>
   <property name="start">0.5</property>
   <property name="disable">1</property>
  </filter>
  <filter id="filter7">
   <property name="iec_scale">0</property>
   <property name="mlt_service">audiolevel</property>
   <property name="dbpeak">1</property>
   <property name="disable">1</property>
  </filter>
 </tractor>
 <chain id="chain1" out="00:23:54.012">
  <property name="length">34382</property>
  <property name="eof">pause</property>
  <property name="resource">/mnt/data1/Anime-Edits/Monster/Monster-Editing/Audio/eng/Ep09.wav</property>
  <property name="mlt_service">avformat-novalidate</property>
  <property name="seekable">1</property>
  <property name="audio_index">0</property>
  <property name="video_index">-1</property>
  <property name="astream">0</property>
  <property name="kdenlive:proxy">-</property>
  <property name="kdenlive:originalurl">/mnt/data1/Anime-Edits/Monster/Monster-Editing/Audio/eng/Ep09.wav</property>
  <property name="kdenlive:id">2</property>
  <property name="kdenlive:clip_type">1</property>
  <property name="kdenlive:file_size">275331214</property>
  <property name="kdenlive:file_hash">7df013b1070174663caf9588b7744866</property>
  <property name="kdenlive:folderid">-1</property>
  <property name="meta.media.nb_streams">1</property>
  <property name="meta.media.0.stream.type">audio</property>
  <property name="meta.media.0.codec.sample_fmt">s16</property>
  <property name="meta.media.0.codec.sample_rate">48000</property>
  <property name="meta.media.0.codec.channels">2</property>
  <property name="meta.media.0.codec.name">pcm_s16le</property>
  <property name="meta.media.0.codec.long_name">PCM signed 16-bit little-endian</property>
  <property name="meta.media.0.codec.bit_rate">1536000</property>
  <property name="meta.attr.title.markup">Monster : Chapter 09 : Elderly Soldier And A Young Girl</property>
  <property name="meta.attr.encoder.markup">Lavf60.16.100</property>
  <property name="xml">was here</property>
  <property name="mute_on_pause">0</property>
  <property name="set.test_audio">0</property>
  <property name="set.test_image">1</property>
  <property name="kdenlive:control_uuid">{f6a6cc5d-d907-4438-8cb6-70f166f61d83}</property>
  <property name="meta.media.0.codec.layout">independent</property>
 </chain>
 <chain id="chain2" out="00:01:11.887">
  <property name="length">1724</property>
  <property name="eof">pause</property>
  <property name="resource">/mnt/data1/Anime-Edits/Monster/Monster-Editing/Monster [Ultimate Collection] By Kira [SEV]/Original Soundtracks [2004]/Monster - Original Soundtrack [2004]/12 - idler wheel.flac</property>
  <property name="mlt_service">avformat-novalidate</property>
  <property name="seekable">1</property>
  <property name="format">3</property>
  <property name="audio_index">0</property>
  <property name="video_index">1</property>
  <property name="vstream">0</property>
  <property name="astream">0</property>
  <property name="kdenlive:folderid">-1</property>
  <property name="kdenlive:id">8</property>
  <property name="mute_on_pause">0</property>
  <property name="kdenlive:clip_type">0</property>
  <property name="kdenlive:file_size">8223693</property>
  <property name="kdenlive:file_hash">e5a582c5b47d14b3764e017d4c4a0910</property>
  <property name="kdenlive:audio_max0">208</property>
  <property name="meta.media.nb_streams">2</property>
  <property name="meta.media.0.stream.type">audio</property>
  <property name="meta.media.0.codec.sample_fmt">s16</property>
  <property name="meta.media.0.codec.sample_rate">44100</property>
  <property name="meta.media.0.codec.channels">2</property>
  <property name="meta.media.0.codec.name">flac</property>
  <property name="meta.media.0.codec.long_name">FLAC (Free Lossless Audio Codec)</property>
  <property name="meta.media.0.codec.bit_rate">0</property>
  <property name="meta.media.1.stream.type">video</property>
  <property name="meta.media.1.stream.frame_rate">90000</property>
  <property name="meta.media.1.stream.sample_aspect_ratio">0</property>
  <property name="meta.media.1.codec.width">1669</property>
  <property name="meta.media.1.codec.height">1486</property>
  <property name="meta.media.1.codec.rotate">0</property>
  <property name="meta.media.1.codec.pix_fmt">yuvj420p</property>
  <property name="meta.media.1.codec.sample_aspect_ratio">0</property>
  <property name="meta.media.1.codec.colorspace">601</property>
  <property name="meta.media.1.codec.name">mjpeg</property>
  <property name="meta.media.1.codec.long_name">MJPEG (Motion JPEG)</property>
  <property name="meta.media.1.codec.bit_rate">0</property>
  <property name="meta.attr.1.stream.comment.markup">Cover (front)</property>
  <property name="meta.attr.TITLE.markup">idler wheel</property>
  <property name="meta.attr.ARTIST.markup">Kuniaki Haishima</property>
  <property name="meta.attr.ALBUM.markup">Monster : Original Soundtrack</property>
  <property name="meta.attr.DATE.markup">2004</property>
  <property name="meta.attr.GENRE.markup">Anime</property>
  <property name="meta.attr.COMPOSER.markup">Kuniaki Haishima</property>
  <property name="meta.attr.ORIGINALARTIST.markup">Kuniaki Haishima</property>
  <property name="meta.attr.ENCODEDBY.markup">Mr. J</property>
  <property name="meta.attr.track.markup">12/24</property>
  <property name="meta.attr.disc.markup">01/01</property>
  <property name="meta.attr.ORIGARTIST.markup">Kuniaki Haishima</property>
  <property name="meta.attr.ALBUM ARTIST.markup">Kuniaki Haishima</property>
  <property name="meta.attr.ARTISTSORT.markup">Kuniaki Haishima</property>
  <property name="meta.attr.ALBUMARTISTSORT.markup">Kuniaki Haishima</property>
  <property name="meta.attr.ALBUMSORT.markup">Monster : Original Soundtrack</property>
  <property name="meta.attr.COMPOSERSORT.markup">Kuniaki Haishima</property>
  <property name="meta.attr.SHOWSORT.markup">Monster</property>
  <property name="meta.media.sample_aspect_num">1</property>
  <property name="meta.media.sample_aspect_den">1</property>
  <property name="meta.media.frame_rate_num">90000</property>
  <property name="meta.media.frame_rate_den">1</property>
  <property name="meta.media.colorspace">601</property>
  <property name="meta.media.color_trc">2</property>
  <property name="meta.media.has_b_frames">0</property>
  <property name="meta.media.width">1669</property>
  <property name="meta.media.height">1486</property>
  <property name="meta.media.color_range">full</property>
  <property name="xml">was here</property>
  <property name="meta.media.top_field_first">0</property>
  <property name="meta.media.progressive">1</property>
  <property name="set.test_audio">0</property>
  <property name="set.test_image">1</property>
  <property name="kdenlive:control_uuid">{8117c10a-4a5b-47c0-9c42-d1274a436ba6}</property>
 </chain>
 <chain id="chain3" out="00:23:54.012">
  <property name="length">34382</property>
  <property name="eof">pause</property>
  <property name="resource">/mnt/data1/Anime-Edits/Monster/Monster-Editing/Audio/eng/Ep10.wav</property>
  <property name="mlt_service">avformat-novalidate</property>
  <property name="seekable">1</property>
  <property name="audio_index">0</property>
  <property name="video_index">-1</property>
  <property name="astream">0</property>
  <property name="kdenlive:proxy">-</property>
  <property name="kdenlive:originalurl">/mnt/data1/Anime-Edits/Monster/Monster-Editing/Audio/eng/Ep10.wav</property>
  <property name="kdenlive:id">3</property>
  <property name="kdenlive:clip_type">1</property>
  <property name="kdenlive:file_size">275331196</property>
  <property name="kdenlive:file_hash">4c7852d7bb142a12f96ab1c28bc9b9ae</property>
  <property name="kdenlive:folderid">-1</property>
  <property name="meta.media.nb_streams">1</property>
  <property name="meta.media.0.stream.type">audio</property>
  <property name="meta.media.0.codec.sample_fmt">s16</property>
  <property name="meta.media.0.codec.sample_rate">48000</property>
  <property name="meta.media.0.codec.channels">2</property>
  <property name="meta.media.0.codec.name">pcm_s16le</property>
  <property name="meta.media.0.codec.long_name">PCM signed 16-bit little-endian</property>
  <property name="meta.media.0.codec.bit_rate">1536000</property>
  <property name="meta.attr.title.markup">Monster : Chapter 10 : An Erased Past</property>
  <property name="meta.attr.encoder.markup">Lavf60.16.100</property>
  <property name="xml">was here</property>
  <property name="mute_on_pause">0</property>
  <property name="set.test_audio">0</property>
  <property name="set.test_image">1</property>
  <property name="kdenlive:control_uuid">{19c3e707-04b5-42ec-acdb-860487637ae4}</property>
  <property name="meta.media.0.codec.layout">independent</property>
 </chain>
 <playlist id="playlist2">
  <property name="kdenlive:audio_track">1</property>
  <blank length="00:02:21.438"/>
  <entry in="00:00:46.546" out="00:02:11.595" producer="chain1">
   <property name="kdenlive:id">2</property>
  </entry>
  <blank length="00:00:48.382"/>
  <entry in="00:05:26.360" out="00:05:30.322" producer="chain1">
   <property name="kdenlive:id">2</property>
   <filter id="filter8" in="00:05:26.360" out="00:05:26.902">
    <property name="window">75</property>
    <property name="max_gain">20dB</property>
    <property name="mlt_service">volume</property>
    <property name="kdenlive_id">fadein</property>
    <property name="gain">0</property>
    <property name="end">1</property>
    <property name="kdenlive:collapsed">0</property>
   </filter>
   <filter id="filter9" in="00:05:28.820" out="00:05:30.322">
    <property name="window">75</property>
    <property name="max_gain">20dB</property>
    <property name="mlt_service">volume</property>
    <property name="kdenlive_id">fadeout</property>
    <property name="gain">1</property>
    <property name="end">0</property>
    <property name="kdenlive:collapsed">0</property>
   </filter>
  </entry>
  <blank length="00:00:46.797"/>
  <entry in="00:00:00.000" out="00:00:38.205" producer="chain2">
   <property name="kdenlive:id">8</property>
   <property name="kdenlive:activeeffect">1</property>
   <filter id="filter10">
    <property name="mlt_service">rbpitch</property>
    <property name="kdenlive_id">rbpitch</property>
    <property name="pitchscale">0.5</property>
    <property name="stretch">0</property>
    <property name="latency">87.875</property>
    <property name="kdenlive:collapsed">0</property>
   </filter>
   <filter id="filter11">
    <property name="window">75</property>
    <property name="max_gain">20dB</property>
    <property name="level">00:00:00.000=-50;00:00:00.584=-12.1808</property>
    <property name="mlt_service">volume</property>
    <property name="kdenlive_id">volume</property>
    <property name="kdenlive:collapsed">0</property>
   </filter>
   <filter id="filter12" in="00:00:31.323" out="00:00:38.205">
    <property name="window">75</property>
    <property name="max_gain">20dB</property>
    <property name="mlt_service">volume</property>
    <property name="kdenlive_id">fadeout</property>
    <property name="gain">1</property>
    <property name="end">0</property>
    <property name="kdenlive:collapsed">0</property>
   </filter>
  </entry>
  <blank length="00:03:00.626"/>
  <entry in="00:10:04.296" out="00:10:09.176" producer="chain1">
   <property name="kdenlive:id">2</property>
   <filter id="filter13" in="00:10:04.296" out="00:10:04.546">
    <property name="window">75</property>
    <property name="max_gain">20dB</property>
    <property name="mlt_service">volume</property>
    <property name="kdenlive_id">fadein</property>
    <property name="gain">0</property>
    <property name="end">1</property>
    <property name="kdenlive:collapsed">0</property>
   </filter>
   <filter id="filter14" in="00:10:07.007" out="00:10:09.176">
    <property name="window">75</property>
    <property name="max_gain">20dB</property>
    <property name="mlt_service">volume</property>
    <property name="kdenlive_id">fadeout</property>
    <property name="gain">1</property>
    <property name="end">0</property>
    <property name="kdenlive:collapsed">0</property>
   </filter>
  </entry>
  <blank length="00:12:47.798"/>
  <entry in="00:02:00.125" out="00:23:37.037" producer="chain3">
   <property name="kdenlive:id">3</property>
   <property name="kdenlive:activeeffect">1</property>
   <filter id="filter15">
    <property name="window">75</property>
    <property name="max_gain">20dB</property>
    <property name="level">00:02:00.125=0;00:18:43.293=0.0501267;00:18:43.669=6.78149;00:18:45.879=12.1808;00:18:46.296=6.78149;00:18:46.546=0.0501267;00:18:48.298=0.312803;00:18:48.548=9;00:18:53.637~=12;00:18:54.554=9;00:18:55.013=0;00:18:56.348=0;00:18:56.598=12.1808;00:18:58.725=12.1808;00:18:59.017=-0.732857;00:19:02.127=0;00:19:03.462=0;00:19:04.046=6.78149;00:19:05.005=6;00:19:05.422=-0.0501267</property>
    <property name="mlt_service">volume</property>
    <property name="kdenlive_id">volume</property>
    <property name="kdenlive:collapsed">0</property>
   </filter>
   <filter id="filter16">
    <property name="mlt_service">rbpitch</property>
    <property name="kdenlive_id">rboctaveshift</property>
    <property name="octaveshift">0</property>
    <property name="stretch">0</property>
    <property name="latency">85.2917</property>
   </filter>
  </entry>
 </playlist>
 <playlist id="playlist3">
  <property name="kdenlive:audio_track">1</property>
 </playlist>
 <tractor id="tractor1" in="00:00:00.000" out="00:43:34.117">
  <property name="kdenlive:audio_track">1</property>
  <property name="kdenlive:trackheight">67</property>
  <property name="kdenlive:timeline_active">1</property>
  <property name="kdenlive:collapsed">0</property>
  <property name="kdenlive:thumbs_format"/>
  <property name="kdenlive:audio_rec"/>
  <track hide="video" producer="playlist2"/>
  <track hide="video" producer="playlist3"/>
  <filter id="filter17">
   <property name="window">75</property>
   <property name="max_gain">20dB</property>
   <property name="mlt_service">volume</property>
   <property name="internal_added">237</property>
   <property name="disable">1</property>
  </filter>
  <filter id="filter18">
   <property name="channel">-1</property>
   <property name="mlt_service">panner</property>
   <property name="internal_added">237</property>
   <property name="start">0.5</property>
   <property name="disable">1</property>
  </filter>
  <filter id="filter19">
   <property name="iec_scale">0</property>
   <property name="mlt_service">audiolevel</property>
   <property name="dbpeak">1</property>
   <property name="disable">1</property>
  </filter>
 </tractor>
 <chain id="chain7" out="00:23:54.012">
  <property name="length">34382</property>
  <property name="eof">pause</property>
  <property name="resource">/mnt/data1/Anime-Edits/Monster/Monster-Editing/Audio/eng/Ep09.wav</property>
  <property name="mlt_service">avformat-novalidate</property>
  <property name="seekable">1</property>
  <property name="audio_index">0</property>
  <property name="video_index">-1</property>
  <property name="astream">0</property>
  <property name="kdenlive:proxy">-</property>
  <property name="kdenlive:originalurl">/mnt/data1/Anime-Edits/Monster/Monster-Editing/Audio/eng/Ep09.wav</property>
  <property name="kdenlive:id">2</property>
  <property name="kdenlive:clip_type">1</property>
  <property name="kdenlive:file_size">275331214</property>
  <property name="kdenlive:file_hash">7df013b1070174663caf9588b7744866</property>
  <property name="kdenlive:folderid">-1</property>
  <property name="meta.media.nb_streams">1</property>
  <property name="meta.media.0.stream.type">audio</property>
  <property name="meta.media.0.codec.sample_fmt">s16</property>
  <property name="meta.media.0.codec.sample_rate">48000</property>
  <property name="meta.media.0.codec.channels">2</property>
  <property name="meta.media.0.codec.name">pcm_s16le</property>
  <property name="meta.media.0.codec.long_name">PCM signed 16-bit little-endian</property>
  <property name="meta.media.0.codec.bit_rate">1536000</property>
  <property name="meta.attr.title.markup">Monster : Chapter 09 : Elderly Soldier And A Young Girl</property>
  <property name="meta.attr.encoder.markup">Lavf60.16.100</property>
  <property name="xml">was here</property>
  <property name="mute_on_pause">0</property>
  <property name="set.test_audio">0</property>
  <property name="set.test_image">1</property>
  <property name="kdenlive:control_uuid">{f6a6cc5d-d907-4438-8cb6-70f166f61d83}</property>
  <property name="meta.media.0.codec.layout">independent</property>
 </chain>
 <chain id="chain8" out="00:23:54.012">
  <property name="length">34382</property>
  <property name="eof">pause</property>
  <property name="resource">/mnt/data1/Anime-Edits/Monster/Monster-Editing/Audio/eng/Ep10.wav</property>
  <property name="mlt_service">avformat-novalidate</property>
  <property name="seekable">1</property>
  <property name="audio_index">0</property>
  <property name="video_index">-1</property>
  <property name="astream">0</property>
  <property name="kdenlive:proxy">-</property>
  <property name="kdenlive:originalurl">/mnt/data1/Anime-Edits/Monster/Monster-Editing/Audio/eng/Ep10.wav</property>
  <property name="kdenlive:id">3</property>
  <property name="kdenlive:clip_type">1</property>
  <property name="kdenlive:file_size">275331196</property>
  <property name="kdenlive:file_hash">4c7852d7bb142a12f96ab1c28bc9b9ae</property>
  <property name="kdenlive:folderid">-1</property>
  <property name="meta.media.nb_streams">1</property>
  <property name="meta.media.0.stream.type">audio</property>
  <property name="meta.media.0.codec.sample_fmt">s16</property>
  <property name="meta.media.0.codec.sample_rate">48000</property>
  <property name="meta.media.0.codec.channels">2</property>
  <property name="meta.media.0.codec.name">pcm_s16le</property>
  <property name="meta.media.0.codec.long_name">PCM signed 16-bit little-endian</property>
  <property name="meta.media.0.codec.bit_rate">1536000</property>
  <property name="meta.attr.title.markup">Monster : Chapter 10 : An Erased Past</property>
  <property name="meta.attr.encoder.markup">Lavf60.16.100</property>
  <property name="xml">was here</property>
  <property name="mute_on_pause">0</property>
  <property name="set.test_audio">0</property>
  <property name="set.test_image">1</property>
  <property name="kdenlive:control_uuid">{19c3e707-04b5-42ec-acdb-860487637ae4}</property>
  <property name="meta.media.0.codec.layout">independent</property>
 </chain>
 <chain id="chain9" out="00:02:00.584">
  <property name="length">2892</property>
  <property name="eof">pause</property>
  <property name="resource">/mnt/data1/Anime-Edits/Monster/Monster-Editing/Monster [Ultimate Collection] By Kira [SEV]/Original Soundtracks [2004]/Monster - Original Soundtrack [2004]/04 - Part.flac</property>
  <property name="mlt_service">avformat-novalidate</property>
  <property name="seekable">1</property>
  <property name="format">3</property>
  <property name="audio_index">0</property>
  <property name="video_index">1</property>
  <property name="vstream">0</property>
  <property name="astream">0</property>
  <property name="kdenlive:folderid">-1</property>
  <property name="kdenlive:id">9</property>
  <property name="mute_on_pause">0</property>
  <property name="kdenlive:clip_type">0</property>
  <property name="kdenlive:file_size">10641241</property>
  <property name="kdenlive:file_hash">9db49e1a1d105b8da8b7f2fb51a501ee</property>
  <property name="kdenlive:audio_max0">211</property>
  <property name="meta.media.nb_streams">2</property>
  <property name="meta.media.0.stream.type">audio</property>
  <property name="meta.media.0.codec.sample_fmt">s16</property>
  <property name="meta.media.0.codec.sample_rate">44100</property>
  <property name="meta.media.0.codec.channels">2</property>
  <property name="meta.media.0.codec.name">flac</property>
  <property name="meta.media.0.codec.long_name">FLAC (Free Lossless Audio Codec)</property>
  <property name="meta.media.0.codec.bit_rate">0</property>
  <property name="meta.media.1.stream.type">video</property>
  <property name="meta.media.1.stream.frame_rate">90000</property>
  <property name="meta.media.1.stream.sample_aspect_ratio">0</property>
  <property name="meta.media.1.codec.width">1669</property>
  <property name="meta.media.1.codec.height">1486</property>
  <property name="meta.media.1.codec.rotate">0</property>
  <property name="meta.media.1.codec.pix_fmt">yuvj420p</property>
  <property name="meta.media.1.codec.sample_aspect_ratio">0</property>
  <property name="meta.media.1.codec.colorspace">601</property>
  <property name="meta.media.1.codec.name">mjpeg</property>
  <property name="meta.media.1.codec.long_name">MJPEG (Motion JPEG)</property>
  <property name="meta.media.1.codec.bit_rate">0</property>
  <property name="meta.attr.1.stream.comment.markup">Cover (front)</property>
  <property name="meta.attr.TITLE.markup">Part</property>
  <property name="meta.attr.ARTIST.markup">Kuniaki Haishima</property>
  <property name="meta.attr.ALBUM.markup">Monster : Original Soundtrack</property>
  <property name="meta.attr.DATE.markup">2004</property>
  <property name="meta.attr.GENRE.markup">Anime</property>
  <property name="meta.attr.COMPOSER.markup">Kuniaki Haishima</property>
  <property name="meta.attr.ORIGINALARTIST.markup">Kuniaki Haishima</property>
  <property name="meta.attr.ENCODEDBY.markup">Mr. J</property>
  <property name="meta.attr.track.markup">04/24</property>
  <property name="meta.attr.disc.markup">01/01</property>
  <property name="meta.attr.ORIGARTIST.markup">Kuniaki Haishima</property>
  <property name="meta.attr.ALBUM ARTIST.markup">Kuniaki Haishima</property>
  <property name="meta.attr.ARTISTSORT.markup">Kuniaki Haishima</property>
  <property name="meta.attr.ALBUMARTISTSORT.markup">Kuniaki Haishima</property>
  <property name="meta.attr.ALBUMSORT.markup">Monster : Original Soundtrack</property>
  <property name="meta.attr.COMPOSERSORT.markup">Kuniaki Haishima</property>
  <property name="meta.attr.SHOWSORT.markup">Monster</property>
  <property name="meta.media.sample_aspect_num">1</property>
  <property name="meta.media.sample_aspect_den">1</property>
  <property name="meta.media.frame_rate_num">90000</property>
  <property name="meta.media.frame_rate_den">1</property>
  <property name="meta.media.colorspace">601</property>
  <property name="meta.media.color_trc">2</property>
  <property name="meta.media.has_b_frames">0</property>
  <property name="meta.media.width">1669</property>
  <property name="meta.media.height">1486</property>
  <property name="meta.media.color_range">full</property>
  <property name="xml">was here</property>
  <property name="meta.media.top_field_first">0</property>
  <property name="meta.media.progressive">1</property>
  <property name="set.test_audio">0</property>
  <property name="set.test_image">1</property>
  <property name="kdenlive:control_uuid">{e597f7fb-ade7-48c0-97f1-dd09e34f660b}</property>
  <property name="meta.media.0.codec.layout">stereo</property>
  <property name="meta.media.aspect_ratio">1</property>
 </chain>
 <producer id="producer9" in="00:00:00.000" out="00:07:50.968">
  <property name="length">11292</property>
  <property name="eof">pause</property>
  <property name="resource">0.750000:/mnt/data1/Anime-Edits/Monster/Monster-Editing/Monster [Ultimate Collection] By Kira [SEV]/Original Soundtracks [2004]/Various Artists - Monster Remix -Octopus- [2004]/04 - Drift Mind (Child who dreams mix).flac</property>
  <property name="aspect_ratio">1</property>
  <property name="meta.media.nb_streams">2</property>
  <property name="meta.media.0.stream.type">audio</property>
  <property name="meta.media.0.codec.sample_fmt">s16</property>
  <property name="meta.media.0.codec.sample_rate">44100</property>
  <property name="meta.media.0.codec.channels">2</property>
  <property name="meta.media.0.codec.layout">stereo</property>
  <property name="meta.media.0.codec.name">flac</property>
  <property name="meta.media.0.codec.long_name">FLAC (Free Lossless Audio Codec)</property>
  <property name="meta.media.0.codec.bit_rate">0</property>
  <property name="meta.media.1.stream.type">video</property>
  <property name="meta.media.1.stream.frame_rate">90000</property>
  <property name="meta.media.1.stream.sample_aspect_ratio">0</property>
  <property name="meta.media.1.codec.width">1642</property>
  <property name="meta.media.1.codec.height">1462</property>
  <property name="meta.media.1.codec.rotate">0</property>
  <property name="meta.media.1.codec.pix_fmt">yuvj420p</property>
  <property name="meta.media.1.codec.sample_aspect_ratio">1</property>
  <property name="meta.media.1.codec.colorspace">601</property>
  <property name="meta.media.1.codec.name">mjpeg</property>
  <property name="meta.media.1.codec.long_name">MJPEG (Motion JPEG)</property>
  <property name="meta.media.1.codec.bit_rate">0</property>
  <property name="meta.attr.1.stream.comment.markup">Cover (front)</property>
  <property name="meta.attr.CATALOG.markup">VPCC-81491</property>
  <property name="meta.attr.TITLE.markup">Drift Mind (Child who dreams mix)</property>
  <property name="meta.attr.ARTIST.markup">FreeTEMPO</property>
  <property name="meta.attr.ALBUM.markup">Monster Remix -Octopus-</property>
  <property name="meta.attr.DATE.markup">2004</property>
  <property name="meta.attr.GENRE.markup">Anime</property>
  <property name="meta.attr.ORIGINALARTIST.markup">Various Artists</property>
  <property name="meta.attr.ENCODEDBY.markup">Mr. J</property>
  <property name="meta.attr.track.markup">04/08</property>
  <property name="meta.attr.disc.markup">01/01</property>
  <property name="meta.attr.ORIGARTIST.markup">Various Artists</property>
  <property name="meta.attr.ALBUM ARTIST.markup">Various Artists</property>
  <property name="meta.attr.ALBUMARTISTSORT.markup">Various Artists</property>
  <property name="meta.attr.ALBUMSORT.markup">Monster Remix -Octopus-</property>
  <property name="seekable">1</property>
  <property name="meta.media.sample_aspect_num">72</property>
  <property name="meta.media.sample_aspect_den">72</property>
  <property name="format">3</property>
  <property name="audio_index">0</property>
  <property name="video_index">1</property>
  <property name="warp_speed">0.75</property>
  <property name="warp_resource">/mnt/data1/Anime-Edits/Monster/Monster-Editing/Monster [Ultimate Collection] By Kira [SEV]/Original Soundtracks [2004]/Various Artists - Monster Remix -Octopus- [2004]/04 - Drift Mind (Child who dreams mix).flac</property>
  <property name="mlt_service">timewarp</property>
  <property name="vstream">0</property>
  <property name="astream">0</property>
  <property name="set.test_audio">0</property>
  <property name="set.test_image">1</property>
  <property name="kdenlive:id">10</property>
  <property name="warp_pitch">0</property>
  <property name="meta.media.frame_rate_num">90000</property>
  <property name="meta.media.frame_rate_den">1</property>
  <property name="meta.media.colorspace">601</property>
  <property name="meta.media.color_trc">2</property>
  <property name="meta.media.has_b_frames">0</property>
  <property name="meta.media.width">1642</property>
  <property name="meta.media.height">1462</property>
  <property name="meta.media.color_range">full</property>
  <property name="kdenlive:control_uuid">{3b46b4c9-6535-4199-ab41-43f18beddc6c}</property>
  <property name="meta.media.aspect_ratio">1</property>
 </producer>
 <playlist id="playlist4">
  <property name="kdenlive:audio_track">1</property>
  <entry in="00:02:11.637" out="00:04:33.909" producer="chain7">
   <property name="kdenlive:id">2</property>
   <filter id="filter20" in="00:04:31.823" out="00:04:33.909">
    <property name="window">75</property>
    <property name="max_gain">20dB</property>
    <property name="mlt_service">volume</property>
    <property name="kdenlive_id">fadeout</property>
    <property name="gain">1</property>
    <property name="end">0</property>
    <property name="kdenlive:collapsed">0</property>
   </filter>
  </entry>
  <blank length="00:01:24.233"/>
  <entry in="00:04:35.285" out="00:05:24.316" producer="chain7">
   <property name="kdenlive:id">2</property>
   <filter id="filter21" in="00:04:35.285" out="00:04:37.162">
    <property name="window">75</property>
    <property name="max_gain">20dB</property>
    <property name="mlt_service">volume</property>
    <property name="kdenlive_id">fadein</property>
    <property name="gain">0</property>
    <property name="end">1</property>
    <property name="kdenlive:collapsed">0</property>
   </filter>
   <filter id="filter22" in="00:05:24.066" out="00:05:24.316">
    <property name="window">75</property>
    <property name="max_gain">20dB</property>
    <property name="mlt_service">volume</property>
    <property name="kdenlive_id">fadeout</property>
    <property name="gain">1</property>
    <property name="end">0</property>
    <property name="kdenlive:collapsed">0</property>
   </filter>
  </entry>
  <blank length="00:00:02.002"/>
  <entry in="00:05:36.745" out="00:10:04.379" producer="chain7">
   <property name="kdenlive:id">2</property>
   <filter id="filter23" in="00:10:03.879" out="00:10:04.379">
    <property name="window">75</property>
    <property name="max_gain">20dB</property>
    <property name="mlt_service">volume</property>
    <property name="kdenlive_id">fadeout</property>
    <property name="gain">1</property>
    <property name="end">0</property>
    <property name="kdenlive:collapsed">0</property>
   </filter>
   <filter id="filter24" in="00:05:36.745" out="00:05:38.538">
    <property name="window">75</property>
    <property name="max_gain">20dB</property>
    <property name="mlt_service">volume</property>
    <property name="kdenlive_id">fadein</property>
    <property name="gain">0</property>
    <property name="end">1</property>
    <property name="kdenlive:collapsed">0</property>
   </filter>
  </entry>
  <blank length="00:00:02.586"/>
  <entry in="00:10:10.219" out="00:22:27.152" producer="chain7">
   <property name="kdenlive:id">2</property>
   <filter id="filter25" in="00:10:10.219" out="00:10:11.845">
    <property name="window">75</property>
    <property name="max_gain">20dB</property>
    <property name="mlt_service">volume</property>
    <property name="kdenlive_id">fadein</property>
    <property name="gain">0</property>
    <property name="end">1</property>
    <property name="kdenlive:collapsed">0</property>
   </filter>
  </entry>
  <entry in="00:00:00.000" out="00:00:33.575" producer="chain8">
   <property name="kdenlive:id">3</property>
   <filter id="filter26" in="00:00:32.449" out="00:00:33.575">
    <property name="window">75</property>
    <property name="max_gain">20dB</property>
    <property name="mlt_service">volume</property>
    <property name="kdenlive_id">fadeout</property>
    <property name="gain">1</property>
    <property name="end">0</property>
   </filter>
  </entry>
  <blank length="00:06:15.891"/>
  <entry in="00:00:00.000" out="00:02:00.584" producer="chain9">
   <property name="kdenlive:id">9</property>
   <property name="kdenlive:activeeffect">2</property>
   <filter id="filter27" out="00:00:03.003">
    <property name="window">75</property>
    <property name="max_gain">20dB</property>
    <property name="mlt_service">volume</property>
    <property name="kdenlive_id">fadein</property>
    <property name="gain">0</property>
    <property name="end">1</property>
    <property name="kdenlive:collapsed">0</property>
   </filter>
   <filter id="filter28">
    <property name="window">75</property>
    <property name="max_gain">20dB</property>
    <property name="mlt_service">volume</property>
    <property name="kdenlive_id">gain</property>
    <property name="gain">0.12</property>
    <property name="kdenlive:collapsed">0</property>
   </filter>
   <filter id="filter29">
    <property name="mlt_service">rbpitch</property>
    <property name="kdenlive_id">rboctaveshift</property>
    <property name="octaveshift">-1</property>
    <property name="stretch">0</property>
    <property name="latency">87.4583</property>
    <property name="kdenlive:collapsed">0</property>
   </filter>
  </entry>
  <blank length="00:06:51.843"/>
  <entry in="00:00:00.000" out="00:05:17.893" producer="producer9">
   <property name="kdenlive:id">10</property>
   <property name="kdenlive:activeeffect">3</property>
   <filter id="filter30">
    <property name="mlt_service">rbpitch</property>
    <property name="kdenlive_id">rboctaveshift</property>
    <property name="octaveshift">-1</property>
    <property name="stretch">0</property>
    <property name="latency">87.375</property>
    <property name="kdenlive:collapsed">0</property>
   </filter>
   <filter id="filter31">
    <property name="window">75</property>
    <property name="max_gain">20dB</property>
    <property name="level">00:00:00.000=-50;00:00:00.500=-12;00:03:19.269~=-15;00:05:16.433~=-15.0001;00:05:17.309~=-50</property>
    <property name="mlt_service">volume</property>
    <property name="kdenlive_id">volume</property>
    <property name="kdenlive:collapsed">0</property>
   </filter>
   <filter id="filter32" in="00:05:15.557" out="00:05:17.893">
    <property name="window">75</property>
    <property name="max_gain">20dB</property>
    <property name="mlt_service">volume</property>
    <property name="kdenlive_id">fadeout</property>
    <property name="gain">1</property>
    <property name="end">0</property>
    <property name="kdenlive:collapsed">0</property>
   </filter>
  </entry>
 </playlist>
 <playlist id="playlist5">
  <property name="kdenlive:audio_track">1</property>
 </playlist>
 <tractor id="tractor2" in="00:00:00.000" out="00:42:24.650">
  <property name="kdenlive:audio_track">1</property>
  <property name="kdenlive:trackheight">67</property>
  <property name="kdenlive:timeline_active">1</property>
  <property name="kdenlive:collapsed">0</property>
  <property name="kdenlive:thumbs_format"/>
  <property name="kdenlive:audio_rec"/>
  <track hide="video" producer="playlist4"/>
  <track hide="video" producer="playlist5"/>
  <filter id="filter33">
   <property name="window">75</property>
   <property name="max_gain">20dB</property>
   <property name="mlt_service">volume</property>
   <property name="internal_added">237</property>
   <property name="disable">1</property>
  </filter>
  <filter id="filter34">
   <property name="channel">-1</property>
   <property name="mlt_service">panner</property>
   <property name="internal_added">237</property>
   <property name="start">0.5</property>
   <property name="disable">1</property>
  </filter>
  <filter id="filter35">
   <property name="iec_scale">0</property>
   <property name="mlt_service">audiolevel</property>
   <property name="dbpeak">1</property>
   <property name="disable">1</property>
  </filter>
 </tractor>
 <chain id="chain10" out="00:23:55.555">
  <property name="length">34419</property>
  <property name="eof">pause</property>
  <property name="resource">/mnt/data0/Monster/Monster-Editing/Orig/Monster - Chapter 09 - Elderly Soldier And A Young Girl.mkv</property>
  <property name="mlt_service">avformat-novalidate</property>
  <property name="audio_index">1</property>
  <property name="video_index">0</property>
  <property name="meta.media.nb_streams">82</property>
  <property name="meta.media.0.stream.type">video</property>
  <property name="meta.media.0.stream.frame_rate">23.976</property>
  <property name="meta.media.0.stream.sample_aspect_ratio">1</property>
  <property name="meta.media.0.codec.width">1440</property>
  <property name="meta.media.0.codec.height">1080</property>
  <property name="meta.media.0.codec.rotate">0</property>
  <property name="meta.media.0.codec.pix_fmt">yuv420p10le</property>
  <property name="meta.media.0.codec.sample_aspect_ratio">1</property>
  <property name="meta.media.0.codec.colorspace">709</property>
  <property name="meta.media.0.codec.color_trc">1</property>
  <property name="meta.media.0.codec.name">hevc</property>
  <property name="meta.media.0.codec.long_name">HEVC (High Efficiency Video Coding)</property>
  <property name="meta.media.0.codec.bit_rate">0</property>
  <property name="meta.attr.0.stream.BPS.markup">2319496</property>
  <property name="meta.attr.0.stream.DURATION.markup">00:23:55.518000000</property>
  <property name="meta.attr.0.stream.NUMBER_OF_FRAMES.markup">34418</property>
  <property name="meta.attr.0.stream.NUMBER_OF_BYTES.markup">416209934</property>
  <property name="meta.attr.0.stream._STATISTICS_WRITING_APP.markup">mkvmerge v61.0.0 ('So') 64-bit</property>
  <property name="meta.attr.0.stream._STATISTICS_WRITING_DATE_UTC.markup">2022-10-22 08:25:38</property>
  <property name="meta.attr.0.stream._STATISTICS_TAGS.markup">BPS DURATION NUMBER_OF_FRAMES NUMBER_OF_BYTES</property>
  <property name="meta.media.1.stream.type">audio</property>
  <property name="meta.media.1.codec.sample_fmt">fltp</property>
  <property name="meta.media.1.codec.sample_rate">48000</property>
  <property name="meta.media.1.codec.channels">2</property>
  <property name="meta.media.1.codec.name">ac3</property>
  <property name="meta.media.1.codec.long_name">ATSC A/52A (AC-3)</property>
  <property name="meta.media.1.codec.bit_rate">448000</property>
  <property name="meta.attr.1.stream.language.markup">jpn</property>
  <property name="meta.attr.1.stream.title.markup">Japanese DVD AC-3 DD_2.0</property>
  <property name="meta.attr.1.stream.BPS.markup">448000</property>
  <property name="meta.attr.1.stream.DURATION.markup">00:23:55.552000000</property>
  <property name="meta.attr.1.stream.NUMBER_OF_FRAMES.markup">44861</property>
  <property name="meta.attr.1.stream.NUMBER_OF_BYTES.markup">80390912</property>
  <property name="meta.attr.1.stream._STATISTICS_WRITING_APP.markup">mkvmerge v61.0.0 ('So') 64-bit</property>
  <property name="meta.attr.1.stream._STATISTICS_WRITING_DATE_UTC.markup">2022-10-22 08:25:38</property>
  <property name="meta.attr.1.stream._STATISTICS_TAGS.markup">BPS DURATION NUMBER_OF_FRAMES NUMBER_OF_BYTES</property>
  <property name="meta.media.2.stream.type">audio</property>
  <property name="meta.media.2.codec.sample_fmt">fltp</property>
  <property name="meta.media.2.codec.sample_rate">48000</property>
  <property name="meta.media.2.codec.channels">2</property>
  <property name="meta.media.2.codec.name">aac</property>
  <property name="meta.media.2.codec.long_name">AAC (Advanced Audio Coding)</property>
  <property name="meta.media.2.codec.bit_rate">0</property>
  <property name="meta.attr.2.stream.language.markup">eng</property>
  <property name="meta.attr.2.stream.title.markup">English AAC DD_2.0</property>
  <property name="meta.attr.2.stream.BPS.markup">167759</property>
  <property name="meta.attr.2.stream.DURATION.markup">00:23:55.285000000</property>
  <property name="meta.attr.2.stream.NUMBER_OF_FRAMES.markup">67279</property>
  <property name="meta.attr.2.stream.NUMBER_OF_BYTES.markup">30097775</property>
  <property name="meta.attr.2.stream._STATISTICS_WRITING_APP.markup">mkvmerge v61.0.0 ('So') 64-bit</property>
  <property name="meta.attr.2.stream._STATISTICS_WRITING_DATE_UTC.markup">2022-10-22 08:25:38</property>
  <property name="meta.attr.2.stream._STATISTICS_TAGS.markup">BPS DURATION NUMBER_OF_FRAMES NUMBER_OF_BYTES</property>
  <property name="meta.media.3.codec.name">ssa</property>
  <property name="meta.media.3.codec.long_name">ASS (Advanced SubStation Alpha) subtitle</property>
  <property name="meta.media.3.codec.bit_rate">0</property>
  <property name="meta.attr.3.stream.language.markup">eng</property>
  <property name="meta.attr.3.stream.title.markup">English (Full) ASS</property>
  <property name="meta.attr.3.stream.BPS.markup">44</property>
  <property name="meta.attr.3.stream.DURATION.markup">00:23:42.490000000</property>
  <property name="meta.attr.3.stream.NUMBER_OF_FRAMES.markup">141</property>
  <property name="meta.attr.3.stream.NUMBER_OF_BYTES.markup">7862</property>
  <property name="meta.attr.3.stream._STATISTICS_WRITING_APP.markup">mkvmerge v61.0.0 ('So') 64-bit</property>
  <property name="meta.attr.3.stream._STATISTICS_WRITING_DATE_UTC.markup">2022-10-22 08:25:38</property>
  <property name="meta.attr.3.stream._STATISTICS_TAGS.markup">BPS DURATION NUMBER_OF_FRAMES NUMBER_OF_BYTES</property>
  <property name="meta.media.4.codec.name">ssa</property>
  <property name="meta.media.4.codec.long_name">ASS (Advanced SubStation Alpha) subtitle</property>
  <property name="meta.media.4.codec.bit_rate">0</property>
  <property name="meta.attr.4.stream.language.markup">eng</property>
  <property name="meta.attr.4.stream.title.markup">English (Titles &amp; Signs) ASS</property>
  <property name="meta.attr.4.stream.BPS.markup">1</property>
  <property name="meta.attr.4.stream.DURATION.markup">00:21:38.460000000</property>
  <property name="meta.attr.4.stream.NUMBER_OF_FRAMES.markup">4</property>
  <property name="meta.attr.4.stream.NUMBER_OF_BYTES.markup">278</property>
  <property name="meta.attr.4.stream._STATISTICS_WRITING_APP.markup">mkvmerge v61.0.0 ('So') 64-bit</property>
  <property name="meta.attr.4.stream._STATISTICS_WRITING_DATE_UTC.markup">2022-10-22 08:25:38</property>
  <property name="meta.attr.4.stream._STATISTICS_TAGS.markup">BPS DURATION NUMBER_OF_FRAMES NUMBER_OF_BYTES</property>
  <property name="meta.media.5.codec.name">ssa</property>
  <property name="meta.media.5.codec.long_name">ASS (Advanced SubStation Alpha) subtitle</property>
  <property name="meta.media.5.codec.bit_rate">0</property>
  <property name="meta.attr.5.stream.language.markup">ara</property>
  <property name="meta.attr.5.stream.title.markup">Arabic</property>
  <property name="meta.attr.5.stream.BPS.markup">55</property>
  <property name="meta.attr.5.stream.DURATION.markup">00:21:03.330000000</property>
  <property name="meta.attr.5.stream.NUMBER_OF_FRAMES.markup">158</property>
  <property name="meta.attr.5.stream.NUMBER_OF_BYTES.markup">8797</property>
  <property name="meta.attr.5.stream._STATISTICS_WRITING_APP.markup">mkvmerge v61.0.0 ('So') 64-bit</property>
  <property name="meta.attr.5.stream._STATISTICS_WRITING_DATE_UTC.markup">2022-10-22 08:25:38</property>
  <property name="meta.attr.5.stream._STATISTICS_TAGS.markup">BPS DURATION NUMBER_OF_FRAMES NUMBER_OF_BYTES</property>
  <property name="meta.attr.title.markup">Monster : Chapter 09 : Elderly Soldier And A Young Girl</property>
  <property name="meta.attr.encoder.markup">libebml v1.4.2 + libmatroska v1.6.4</property>
  <property name="meta.attr.creation_time.markup">2022-10-22T08:25:38.000000Z</property>
  <property name="seekable">1</property>
  <property name="meta.media.sample_aspect_num">1</property>
  <property name="meta.media.sample_aspect_den">1</property>
  <property name="aspect_ratio">1</property>
  <property name="kdenlive:clipname"/>
  <property name="kdenlive:clip_type">0</property>
  <property name="kdenlive:folderid">-1</property>
  <property name="kdenlive:id">4</property>
  <property name="kdenlive:active_streams">1;2</property>
  <property name="kdenlive:file_size">546562530</property>
  <property name="kdenlive:file_hash">10d26f59a28b41e2c6ccc00593ac5600</property>
  <property name="kdenlive:audio_max1">180</property>
  <property name="kdenlive:audio_max2">191</property>
  <property name="xml">was here</property>
  <property name="meta.media.frame_rate_num">24000</property>
  <property name="meta.media.frame_rate_den">1001</property>
  <property name="meta.media.colorspace">709</property>
  <property name="meta.media.color_trc">1</property>
  <property name="meta.media.has_b_frames">2</property>
  <property name="meta.media.width">1440</property>
  <property name="meta.media.height">1080</property>
  <property name="meta.media.color_range">mpeg</property>
  <property name="meta.media.top_field_first">0</property>
  <property name="meta.media.progressive">1</property>
  <property name="set.test_audio">1</property>
  <property name="set.test_image">0</property>
  <property name="format">3</property>
  <property name="vstream">0</property>
  <property name="astream">0</property>
  <property name="kdenlive:control_uuid">{9a4e1399-7c09-4a28-ae8b-68d560db1d40}</property>
  <property name="meta.media.1.codec.layout">stereo</property>
  <property name="meta.media.2.codec.layout">stereo</property>
  <property name="meta.media.aspect_ratio">1</property>
 </chain>
 <chain id="producer10" out="00:23:55.514">
  <property name="length">34418</property>
  <property name="eof">pause</property>
  <property name="resource">/mnt/data0/Monster/Monster-Editing/Orig/Monster - Chapter 10 - An Erased Past.mkv</property>
  <property name="mlt_service">avformat-novalidate</property>
  <property name="audio_index">1</property>
  <property name="video_index">0</property>
  <property name="seekable">1</property>
  <property name="aspect_ratio">1</property>
  <property name="format">3</property>
  <property name="kdenlive:clipname"/>
  <property name="kdenlive:clip_type">0</property>
  <property name="kdenlive:folderid">-1</property>
  <property name="kdenlive:id">5</property>
  <property name="kdenlive:active_streams">1;2</property>
  <property name="kdenlive:file_size">458092872</property>
  <property name="kdenlive:file_hash">2db7a8fe0113cab102dd9cb9dc770368</property>
  <property name="kdenlive:audio_max1">180</property>
  <property name="kdenlive:audio_max2">202</property>
  <property name="xml">was here</property>
  <property name="meta.media.nb_streams">82</property>
  <property name="meta.media.0.stream.type">video</property>
  <property name="meta.media.0.stream.frame_rate">23.976</property>
  <property name="meta.media.0.stream.sample_aspect_ratio">1</property>
  <property name="meta.media.0.codec.width">1440</property>
  <property name="meta.media.0.codec.height">1080</property>
  <property name="meta.media.0.codec.rotate">0</property>
  <property name="meta.media.0.codec.pix_fmt">yuv420p10le</property>
  <property name="meta.media.0.codec.sample_aspect_ratio">1</property>
  <property name="meta.media.0.codec.colorspace">709</property>
  <property name="meta.media.0.codec.color_trc">1</property>
  <property name="meta.media.0.codec.name">hevc</property>
  <property name="meta.media.0.codec.long_name">HEVC (High Efficiency Video Coding)</property>
  <property name="meta.media.0.codec.bit_rate">0</property>
  <property name="meta.attr.0.stream.BPS.markup">1837948</property>
  <property name="meta.attr.0.stream.DURATION.markup">00:23:55.518000000</property>
  <property name="meta.attr.0.stream.NUMBER_OF_FRAMES.markup">34418</property>
  <property name="meta.attr.0.stream.NUMBER_OF_BYTES.markup">329801077</property>
  <property name="meta.attr.0.stream._STATISTICS_WRITING_APP.markup">mkvmerge v61.0.0 ('So') 64-bit</property>
  <property name="meta.attr.0.stream._STATISTICS_WRITING_DATE_UTC.markup">2022-10-22 08:26:10</property>
  <property name="meta.attr.0.stream._STATISTICS_TAGS.markup">BPS DURATION NUMBER_OF_FRAMES NUMBER_OF_BYTES</property>
  <property name="meta.media.1.stream.type">audio</property>
  <property name="meta.media.1.codec.sample_fmt">fltp</property>
  <property name="meta.media.1.codec.sample_rate">48000</property>
  <property name="meta.media.1.codec.channels">2</property>
  <property name="meta.media.1.codec.name">ac3</property>
  <property name="meta.media.1.codec.long_name">ATSC A/52A (AC-3)</property>
  <property name="meta.media.1.codec.bit_rate">448000</property>
  <property name="meta.attr.1.stream.language.markup">jpn</property>
  <property name="meta.attr.1.stream.title.markup">Japanese DVD AC-3 DD_2.0</property>
  <property name="meta.attr.1.stream.BPS.markup">448000</property>
  <property name="meta.attr.1.stream.DURATION.markup">00:23:55.520000000</property>
  <property name="meta.attr.1.stream.NUMBER_OF_FRAMES.markup">44860</property>
  <property name="meta.attr.1.stream.NUMBER_OF_BYTES.markup">80389120</property>
  <property name="meta.attr.1.stream._STATISTICS_WRITING_APP.markup">mkvmerge v61.0.0 ('So') 64-bit</property>
  <property name="meta.attr.1.stream._STATISTICS_WRITING_DATE_UTC.markup">2022-10-22 08:26:10</property>
  <property name="meta.attr.1.stream._STATISTICS_TAGS.markup">BPS DURATION NUMBER_OF_FRAMES NUMBER_OF_BYTES</property>
  <property name="meta.media.2.stream.type">audio</property>
  <property name="meta.media.2.codec.sample_fmt">fltp</property>
  <property name="meta.media.2.codec.sample_rate">48000</property>
  <property name="meta.media.2.codec.channels">2</property>
  <property name="meta.media.2.codec.name">aac</property>
  <property name="meta.media.2.codec.long_name">AAC (Advanced Audio Coding)</property>
  <property name="meta.media.2.codec.bit_rate">0</property>
  <property name="meta.attr.2.stream.language.markup">eng</property>
  <property name="meta.attr.2.stream.title.markup">English AAC DD_2.0</property>
  <property name="meta.attr.2.stream.BPS.markup">156054</property>
  <property name="meta.attr.2.stream.DURATION.markup">00:23:55.413000000</property>
  <property name="meta.attr.2.stream.NUMBER_OF_FRAMES.markup">67285</property>
  <property name="meta.attr.2.stream.NUMBER_OF_BYTES.markup">28000365</property>
  <property name="meta.attr.2.stream._STATISTICS_WRITING_APP.markup">mkvmerge v61.0.0 ('So') 64-bit</property>
  <property name="meta.attr.2.stream._STATISTICS_WRITING_DATE_UTC.markup">2022-10-22 08:26:10</property>
  <property name="meta.attr.2.stream._STATISTICS_TAGS.markup">BPS DURATION NUMBER_OF_FRAMES NUMBER_OF_BYTES</property>
  <property name="meta.media.3.codec.name">ssa</property>
  <property name="meta.media.3.codec.long_name">ASS (Advanced SubStation Alpha) subtitle</property>
  <property name="meta.media.3.codec.bit_rate">0</property>
  <property name="meta.attr.3.stream.language.markup">eng</property>
  <property name="meta.attr.3.stream.title.markup">English (Full) ASS</property>
  <property name="meta.attr.3.stream.BPS.markup">106</property>
  <property name="meta.attr.3.stream.DURATION.markup">00:23:49.070000000</property>
  <property name="meta.attr.3.stream.NUMBER_OF_FRAMES.markup">316</property>
  <property name="meta.attr.3.stream.NUMBER_OF_BYTES.markup">19090</property>
  <property name="meta.attr.3.stream._STATISTICS_WRITING_APP.markup">mkvmerge v61.0.0 ('So') 64-bit</property>
  <property name="meta.attr.3.stream._STATISTICS_WRITING_DATE_UTC.markup">2022-10-22 08:26:10</property>
  <property name="meta.attr.3.stream._STATISTICS_TAGS.markup">BPS DURATION NUMBER_OF_FRAMES NUMBER_OF_BYTES</property>
  <property name="meta.media.4.codec.name">ssa</property>
  <property name="meta.media.4.codec.long_name">ASS (Advanced SubStation Alpha) subtitle</property>
  <property name="meta.media.4.codec.bit_rate">0</property>
  <property name="meta.attr.4.stream.language.markup">eng</property>
  <property name="meta.attr.4.stream.title.markup">English (Titles &amp; Signs) ASS</property>
  <property name="meta.attr.4.stream.BPS.markup">1</property>
  <property name="meta.attr.4.stream.DURATION.markup">00:21:51.470000000</property>
  <property name="meta.attr.4.stream.NUMBER_OF_FRAMES.markup">3</property>
  <property name="meta.attr.4.stream.NUMBER_OF_BYTES.markup">204</property>
  <property name="meta.attr.4.stream._STATISTICS_WRITING_APP.markup">mkvmerge v61.0.0 ('So') 64-bit</property>
  <property name="meta.attr.4.stream._STATISTICS_WRITING_DATE_UTC.markup">2022-10-22 08:26:10</property>
  <property name="meta.attr.4.stream._STATISTICS_TAGS.markup">BPS DURATION NUMBER_OF_FRAMES NUMBER_OF_BYTES</property>
  <property name="meta.media.5.codec.name">ssa</property>
  <property name="meta.media.5.codec.long_name">ASS (Advanced SubStation Alpha) subtitle</property>
  <property name="meta.media.5.codec.bit_rate">0</property>
  <property name="meta.attr.5.stream.language.markup">ara</property>
  <property name="meta.attr.5.stream.title.markup">Arabic</property>
  <property name="meta.attr.5.stream.BPS.markup">131</property>
  <property name="meta.attr.5.stream.DURATION.markup">00:22:21.630000000</property>
  <property name="meta.attr.5.stream.NUMBER_OF_FRAMES.markup">360</property>
  <property name="meta.attr.5.stream.NUMBER_OF_BYTES.markup">22061</property>
  <property name="meta.attr.5.stream._STATISTICS_WRITING_APP.markup">mkvmerge v61.0.0 ('So') 64-bit</property>
  <property name="meta.attr.5.stream._STATISTICS_WRITING_DATE_UTC.markup">2022-10-22 08:26:10</property>
  <property name="meta.attr.5.stream._STATISTICS_TAGS.markup">BPS DURATION NUMBER_OF_FRAMES NUMBER_OF_BYTES</property>
  <property name="meta.attr.title.markup">Monster : Chapter 10 : An Erased Past</property>
  <property name="meta.attr.encoder.markup">libebml v1.4.2 + libmatroska v1.6.4</property>
  <property name="meta.attr.creation_time.markup">2022-10-22T08:26:10.000000Z</property>
  <property name="meta.media.sample_aspect_num">1</property>
  <property name="meta.media.sample_aspect_den">1</property>
  <property name="meta.media.frame_rate_num">24000</property>
  <property name="meta.media.frame_rate_den">1001</property>
  <property name="meta.media.colorspace">709</property>
  <property name="meta.media.color_trc">1</property>
  <property name="meta.media.has_b_frames">2</property>
  <property name="meta.media.width">1440</property>
  <property name="meta.media.height">1080</property>
  <property name="meta.media.color_range">mpeg</property>
  <property name="meta.media.top_field_first">0</property>
  <property name="meta.media.progressive">1</property>
  <property name="set.test_audio">1</property>
  <property name="set.test_image">0</property>
  <property name="vstream">0</property>
  <property name="astream">0</property>
  <property name="kdenlive:control_uuid">{a5f43af7-506f-40a7-ab1a-ea35b9c3d8c9}</property>
 </chain>
 <playlist id="playlist6">
  <entry in="00:02:11.637" out="00:04:33.200" producer="chain10">
   <property name="kdenlive:id">4</property>
   <filter id="filter36" in="00:04:31.823" out="00:04:33.200">
    <property name="start">1</property>
    <property name="level">1</property>
    <property name="mlt_service">brightness</property>
    <property name="kdenlive_id">fade_to_black</property>
    <property name="alpha">00:00:00.000=1;00:00:01.376=0</property>
    <property name="kdenlive:collapsed">0</property>
   </filter>
  </entry>
  <blank length="00:01:24.942"/>
  <entry in="00:04:35.285" out="00:05:24.024" producer="chain10">
   <property name="kdenlive:id">4</property>
   <filter id="filter37" in="00:04:35.285" out="00:04:37.162">
    <property name="start">1</property>
    <property name="level">1</property>
    <property name="mlt_service">brightness</property>
    <property name="kdenlive_id">fade_from_black</property>
    <property name="alpha">00:00:00.000=0;00:00:01.877=1</property>
    <property name="kdenlive:collapsed">0</property>
   </filter>
  </entry>
  <entry in="00:05:26.735" out="00:05:29.154" producer="chain10">
   <property name="kdenlive:id">4</property>
  </entry>
  <entry in="00:05:35.619" out="00:05:38.038" producer="chain10">
   <property name="kdenlive:id">4</property>
  </entry>
  <entry in="00:05:39.373" out="00:10:03.879" producer="chain10">
   <property name="kdenlive:id">4</property>
  </entry>
  <entry in="00:10:04.504" out="00:10:08.508" producer="chain10">
   <property name="kdenlive:id">4</property>
  </entry>
  <entry in="00:10:11.178" out="00:22:27.152" producer="chain10">
   <property name="kdenlive:id">4</property>
  </entry>
  <entry in="00:00:00.000" out="00:00:33.575" producer="producer10">
   <property name="kdenlive:id">5</property>
   <filter id="filter38" in="00:00:32.366" out="00:00:33.575">
    <property name="start">1</property>
    <property name="level">1</property>
    <property name="mlt_service">brightness</property>
    <property name="kdenlive_id">fade_to_black</property>
    <property name="alpha">00:00:00.000=1;00:00:01.210=0</property>
    <property name="kdenlive:collapsed">0</property>
   </filter>
  </entry>
 </playlist>
 <playlist id="playlist7"/>
 <tractor id="tractor3" in="00:00:00.000" out="00:21:58.433">
  <property name="kdenlive:trackheight">67</property>
  <property name="kdenlive:timeline_active">1</property>
  <property name="kdenlive:collapsed">0</property>
  <property name="kdenlive:thumbs_format"/>
  <property name="kdenlive:audio_rec"/>
  <track hide="audio" producer="playlist6"/>
  <track hide="audio" producer="playlist7"/>
 </tractor>
 <chain id="producer11" out="00:23:55.555">
  <property name="length">34419</property>
  <property name="eof">pause</property>
  <property name="resource">/mnt/data0/Monster/Monster-Editing/Orig/Monster - Chapter 09 - Elderly Soldier And A Young Girl.mkv</property>
  <property name="mlt_service">avformat-novalidate</property>
  <property name="audio_index">1</property>
  <property name="video_index">0</property>
  <property name="meta.media.nb_streams">82</property>
  <property name="meta.media.0.stream.type">video</property>
  <property name="meta.media.0.stream.frame_rate">23.976</property>
  <property name="meta.media.0.stream.sample_aspect_ratio">1</property>
  <property name="meta.media.0.codec.width">1440</property>
  <property name="meta.media.0.codec.height">1080</property>
  <property name="meta.media.0.codec.rotate">0</property>
  <property name="meta.media.0.codec.pix_fmt">yuv420p10le</property>
  <property name="meta.media.0.codec.sample_aspect_ratio">1</property>
  <property name="meta.media.0.codec.colorspace">709</property>
  <property name="meta.media.0.codec.color_trc">1</property>
  <property name="meta.media.0.codec.name">hevc</property>
  <property name="meta.media.0.codec.long_name">HEVC (High Efficiency Video Coding)</property>
  <property name="meta.media.0.codec.bit_rate">0</property>
  <property name="meta.attr.0.stream.BPS.markup">2319496</property>
  <property name="meta.attr.0.stream.DURATION.markup">00:23:55.518000000</property>
  <property name="meta.attr.0.stream.NUMBER_OF_FRAMES.markup">34418</property>
  <property name="meta.attr.0.stream.NUMBER_OF_BYTES.markup">416209934</property>
  <property name="meta.attr.0.stream._STATISTICS_WRITING_APP.markup">mkvmerge v61.0.0 ('So') 64-bit</property>
  <property name="meta.attr.0.stream._STATISTICS_WRITING_DATE_UTC.markup">2022-10-22 08:25:38</property>
  <property name="meta.attr.0.stream._STATISTICS_TAGS.markup">BPS DURATION NUMBER_OF_FRAMES NUMBER_OF_BYTES</property>
  <property name="meta.media.1.stream.type">audio</property>
  <property name="meta.media.1.codec.sample_fmt">fltp</property>
  <property name="meta.media.1.codec.sample_rate">48000</property>
  <property name="meta.media.1.codec.channels">2</property>
  <property name="meta.media.1.codec.name">ac3</property>
  <property name="meta.media.1.codec.long_name">ATSC A/52A (AC-3)</property>
  <property name="meta.media.1.codec.bit_rate">448000</property>
  <property name="meta.attr.1.stream.language.markup">jpn</property>
  <property name="meta.attr.1.stream.title.markup">Japanese DVD AC-3 DD_2.0</property>
  <property name="meta.attr.1.stream.BPS.markup">448000</property>
  <property name="meta.attr.1.stream.DURATION.markup">00:23:55.552000000</property>
  <property name="meta.attr.1.stream.NUMBER_OF_FRAMES.markup">44861</property>
  <property name="meta.attr.1.stream.NUMBER_OF_BYTES.markup">80390912</property>
  <property name="meta.attr.1.stream._STATISTICS_WRITING_APP.markup">mkvmerge v61.0.0 ('So') 64-bit</property>
  <property name="meta.attr.1.stream._STATISTICS_WRITING_DATE_UTC.markup">2022-10-22 08:25:38</property>
  <property name="meta.attr.1.stream._STATISTICS_TAGS.markup">BPS DURATION NUMBER_OF_FRAMES NUMBER_OF_BYTES</property>
  <property name="meta.media.2.stream.type">audio</property>
  <property name="meta.media.2.codec.sample_fmt">fltp</property>
  <property name="meta.media.2.codec.sample_rate">48000</property>
  <property name="meta.media.2.codec.channels">2</property>
  <property name="meta.media.2.codec.name">aac</property>
  <property name="meta.media.2.codec.long_name">AAC (Advanced Audio Coding)</property>
  <property name="meta.media.2.codec.bit_rate">0</property>
  <property name="meta.attr.2.stream.language.markup">eng</property>
  <property name="meta.attr.2.stream.title.markup">English AAC DD_2.0</property>
  <property name="meta.attr.2.stream.BPS.markup">167759</property>
  <property name="meta.attr.2.stream.DURATION.markup">00:23:55.285000000</property>
  <property name="meta.attr.2.stream.NUMBER_OF_FRAMES.markup">67279</property>
  <property name="meta.attr.2.stream.NUMBER_OF_BYTES.markup">30097775</property>
  <property name="meta.attr.2.stream._STATISTICS_WRITING_APP.markup">mkvmerge v61.0.0 ('So') 64-bit</property>
  <property name="meta.attr.2.stream._STATISTICS_WRITING_DATE_UTC.markup">2022-10-22 08:25:38</property>
  <property name="meta.attr.2.stream._STATISTICS_TAGS.markup">BPS DURATION NUMBER_OF_FRAMES NUMBER_OF_BYTES</property>
  <property name="meta.media.3.codec.name">ssa</property>
  <property name="meta.media.3.codec.long_name">ASS (Advanced SubStation Alpha) subtitle</property>
  <property name="meta.media.3.codec.bit_rate">0</property>
  <property name="meta.attr.3.stream.language.markup">eng</property>
  <property name="meta.attr.3.stream.title.markup">English (Full) ASS</property>
  <property name="meta.attr.3.stream.BPS.markup">44</property>
  <property name="meta.attr.3.stream.DURATION.markup">00:23:42.490000000</property>
  <property name="meta.attr.3.stream.NUMBER_OF_FRAMES.markup">141</property>
  <property name="meta.attr.3.stream.NUMBER_OF_BYTES.markup">7862</property>
  <property name="meta.attr.3.stream._STATISTICS_WRITING_APP.markup">mkvmerge v61.0.0 ('So') 64-bit</property>
  <property name="meta.attr.3.stream._STATISTICS_WRITING_DATE_UTC.markup">2022-10-22 08:25:38</property>
  <property name="meta.attr.3.stream._STATISTICS_TAGS.markup">BPS DURATION NUMBER_OF_FRAMES NUMBER_OF_BYTES</property>
  <property name="meta.media.4.codec.name">ssa</property>
  <property name="meta.media.4.codec.long_name">ASS (Advanced SubStation Alpha) subtitle</property>
  <property name="meta.media.4.codec.bit_rate">0</property>
  <property name="meta.attr.4.stream.language.markup">eng</property>
  <property name="meta.attr.4.stream.title.markup">English (Titles &amp; Signs) ASS</property>
  <property name="meta.attr.4.stream.BPS.markup">1</property>
  <property name="meta.attr.4.stream.DURATION.markup">00:21:38.460000000</property>
  <property name="meta.attr.4.stream.NUMBER_OF_FRAMES.markup">4</property>
  <property name="meta.attr.4.stream.NUMBER_OF_BYTES.markup">278</property>
  <property name="meta.attr.4.stream._STATISTICS_WRITING_APP.markup">mkvmerge v61.0.0 ('So') 64-bit</property>
  <property name="meta.attr.4.stream._STATISTICS_WRITING_DATE_UTC.markup">2022-10-22 08:25:38</property>
  <property name="meta.attr.4.stream._STATISTICS_TAGS.markup">BPS DURATION NUMBER_OF_FRAMES NUMBER_OF_BYTES</property>
  <property name="meta.media.5.codec.name">ssa</property>
  <property name="meta.media.5.codec.long_name">ASS (Advanced SubStation Alpha) subtitle</property>
  <property name="meta.media.5.codec.bit_rate">0</property>
  <property name="meta.attr.5.stream.language.markup">ara</property>
  <property name="meta.attr.5.stream.title.markup">Arabic</property>
  <property name="meta.attr.5.stream.BPS.markup">55</property>
  <property name="meta.attr.5.stream.DURATION.markup">00:21:03.330000000</property>
  <property name="meta.attr.5.stream.NUMBER_OF_FRAMES.markup">158</property>
  <property name="meta.attr.5.stream.NUMBER_OF_BYTES.markup">8797</property>
  <property name="meta.attr.5.stream._STATISTICS_WRITING_APP.markup">mkvmerge v61.0.0 ('So') 64-bit</property>
  <property name="meta.attr.5.stream._STATISTICS_WRITING_DATE_UTC.markup">2022-10-22 08:25:38</property>
  <property name="meta.attr.5.stream._STATISTICS_TAGS.markup">BPS DURATION NUMBER_OF_FRAMES NUMBER_OF_BYTES</property>
  <property name="meta.attr.title.markup">Monster : Chapter 09 : Elderly Soldier And A Young Girl</property>
  <property name="meta.attr.encoder.markup">libebml v1.4.2 + libmatroska v1.6.4</property>
  <property name="meta.attr.creation_time.markup">2022-10-22T08:25:38.000000Z</property>
  <property name="seekable">1</property>
  <property name="meta.media.sample_aspect_num">1</property>
  <property name="meta.media.sample_aspect_den">1</property>
  <property name="aspect_ratio">1</property>
  <property name="kdenlive:clipname"/>
  <property name="kdenlive:clip_type">0</property>
  <property name="kdenlive:folderid">-1</property>
  <property name="kdenlive:id">4</property>
  <property name="kdenlive:active_streams">1;2</property>
  <property name="kdenlive:file_size">546562530</property>
  <property name="kdenlive:file_hash">10d26f59a28b41e2c6ccc00593ac5600</property>
  <property name="kdenlive:audio_max1">180</property>
  <property name="kdenlive:audio_max2">191</property>
  <property name="xml">was here</property>
  <property name="meta.media.frame_rate_num">24000</property>
  <property name="meta.media.frame_rate_den">1001</property>
  <property name="meta.media.colorspace">709</property>
  <property name="meta.media.color_trc">1</property>
  <property name="meta.media.has_b_frames">2</property>
  <property name="meta.media.width">1440</property>
  <property name="meta.media.height">1080</property>
  <property name="meta.media.color_range">mpeg</property>
  <property name="meta.media.top_field_first">0</property>
  <property name="meta.media.progressive">1</property>
  <property name="set.test_audio">1</property>
  <property name="set.test_image">0</property>
  <property name="format">3</property>
  <property name="kdenlive:control_uuid">{9a4e1399-7c09-4a28-ae8b-68d560db1d40}</property>
 </chain>
 <chain id="producer12" out="00:23:55.514">
  <property name="length">34418</property>
  <property name="eof">pause</property>
  <property name="resource">/mnt/data0/Monster/Monster-Editing/Orig/Monster - Chapter 10 - An Erased Past.mkv</property>
  <property name="mlt_service">avformat-novalidate</property>
  <property name="audio_index">1</property>
  <property name="video_index">0</property>
  <property name="seekable">1</property>
  <property name="aspect_ratio">1</property>
  <property name="format">3</property>
  <property name="kdenlive:clipname"/>
  <property name="kdenlive:clip_type">0</property>
  <property name="kdenlive:folderid">-1</property>
  <property name="kdenlive:id">5</property>
  <property name="kdenlive:active_streams">1;2</property>
  <property name="kdenlive:file_size">458092872</property>
  <property name="kdenlive:file_hash">2db7a8fe0113cab102dd9cb9dc770368</property>
  <property name="kdenlive:audio_max1">180</property>
  <property name="kdenlive:audio_max2">202</property>
  <property name="xml">was here</property>
  <property name="meta.media.nb_streams">82</property>
  <property name="meta.media.0.stream.type">video</property>
  <property name="meta.media.0.stream.frame_rate">23.976</property>
  <property name="meta.media.0.stream.sample_aspect_ratio">1</property>
  <property name="meta.media.0.codec.width">1440</property>
  <property name="meta.media.0.codec.height">1080</property>
  <property name="meta.media.0.codec.rotate">0</property>
  <property name="meta.media.0.codec.pix_fmt">yuv420p10le</property>
  <property name="meta.media.0.codec.sample_aspect_ratio">1</property>
  <property name="meta.media.0.codec.colorspace">709</property>
  <property name="meta.media.0.codec.color_trc">1</property>
  <property name="meta.media.0.codec.name">hevc</property>
  <property name="meta.media.0.codec.long_name">HEVC (High Efficiency Video Coding)</property>
  <property name="meta.media.0.codec.bit_rate">0</property>
  <property name="meta.attr.0.stream.BPS.markup">1837948</property>
  <property name="meta.attr.0.stream.DURATION.markup">00:23:55.518000000</property>
  <property name="meta.attr.0.stream.NUMBER_OF_FRAMES.markup">34418</property>
  <property name="meta.attr.0.stream.NUMBER_OF_BYTES.markup">329801077</property>
  <property name="meta.attr.0.stream._STATISTICS_WRITING_APP.markup">mkvmerge v61.0.0 ('So') 64-bit</property>
  <property name="meta.attr.0.stream._STATISTICS_WRITING_DATE_UTC.markup">2022-10-22 08:26:10</property>
  <property name="meta.attr.0.stream._STATISTICS_TAGS.markup">BPS DURATION NUMBER_OF_FRAMES NUMBER_OF_BYTES</property>
  <property name="meta.media.1.stream.type">audio</property>
  <property name="meta.media.1.codec.sample_fmt">fltp</property>
  <property name="meta.media.1.codec.sample_rate">48000</property>
  <property name="meta.media.1.codec.channels">2</property>
  <property name="meta.media.1.codec.name">ac3</property>
  <property name="meta.media.1.codec.long_name">ATSC A/52A (AC-3)</property>
  <property name="meta.media.1.codec.bit_rate">448000</property>
  <property name="meta.attr.1.stream.language.markup">jpn</property>
  <property name="meta.attr.1.stream.title.markup">Japanese DVD AC-3 DD_2.0</property>
  <property name="meta.attr.1.stream.BPS.markup">448000</property>
  <property name="meta.attr.1.stream.DURATION.markup">00:23:55.520000000</property>
  <property name="meta.attr.1.stream.NUMBER_OF_FRAMES.markup">44860</property>
  <property name="meta.attr.1.stream.NUMBER_OF_BYTES.markup">80389120</property>
  <property name="meta.attr.1.stream._STATISTICS_WRITING_APP.markup">mkvmerge v61.0.0 ('So') 64-bit</property>
  <property name="meta.attr.1.stream._STATISTICS_WRITING_DATE_UTC.markup">2022-10-22 08:26:10</property>
  <property name="meta.attr.1.stream._STATISTICS_TAGS.markup">BPS DURATION NUMBER_OF_FRAMES NUMBER_OF_BYTES</property>
  <property name="meta.media.2.stream.type">audio</property>
  <property name="meta.media.2.codec.sample_fmt">fltp</property>
  <property name="meta.media.2.codec.sample_rate">48000</property>
  <property name="meta.media.2.codec.channels">2</property>
  <property name="meta.media.2.codec.name">aac</property>
  <property name="meta.media.2.codec.long_name">AAC (Advanced Audio Coding)</property>
  <property name="meta.media.2.codec.bit_rate">0</property>
  <property name="meta.attr.2.stream.language.markup">eng</property>
  <property name="meta.attr.2.stream.title.markup">English AAC DD_2.0</property>
  <property name="meta.attr.2.stream.BPS.markup">156054</property>
  <property name="meta.attr.2.stream.DURATION.markup">00:23:55.413000000</property>
  <property name="meta.attr.2.stream.NUMBER_OF_FRAMES.markup">67285</property>
  <property name="meta.attr.2.stream.NUMBER_OF_BYTES.markup">28000365</property>
  <property name="meta.attr.2.stream._STATISTICS_WRITING_APP.markup">mkvmerge v61.0.0 ('So') 64-bit</property>
  <property name="meta.attr.2.stream._STATISTICS_WRITING_DATE_UTC.markup">2022-10-22 08:26:10</property>
  <property name="meta.attr.2.stream._STATISTICS_TAGS.markup">BPS DURATION NUMBER_OF_FRAMES NUMBER_OF_BYTES</property>
  <property name="meta.media.3.codec.name">ssa</property>
  <property name="meta.media.3.codec.long_name">ASS (Advanced SubStation Alpha) subtitle</property>
  <property name="meta.media.3.codec.bit_rate">0</property>
  <property name="meta.attr.3.stream.language.markup">eng</property>
  <property name="meta.attr.3.stream.title.markup">English (Full) ASS</property>
  <property name="meta.attr.3.stream.BPS.markup">106</property>
  <property name="meta.attr.3.stream.DURATION.markup">00:23:49.070000000</property>
  <property name="meta.attr.3.stream.NUMBER_OF_FRAMES.markup">316</property>
  <property name="meta.attr.3.stream.NUMBER_OF_BYTES.markup">19090</property>
  <property name="meta.attr.3.stream._STATISTICS_WRITING_APP.markup">mkvmerge v61.0.0 ('So') 64-bit</property>
  <property name="meta.attr.3.stream._STATISTICS_WRITING_DATE_UTC.markup">2022-10-22 08:26:10</property>
  <property name="meta.attr.3.stream._STATISTICS_TAGS.markup">BPS DURATION NUMBER_OF_FRAMES NUMBER_OF_BYTES</property>
  <property name="meta.media.4.codec.name">ssa</property>
  <property name="meta.media.4.codec.long_name">ASS (Advanced SubStation Alpha) subtitle</property>
  <property name="meta.media.4.codec.bit_rate">0</property>
  <property name="meta.attr.4.stream.language.markup">eng</property>
  <property name="meta.attr.4.stream.title.markup">English (Titles &amp; Signs) ASS</property>
  <property name="meta.attr.4.stream.BPS.markup">1</property>
  <property name="meta.attr.4.stream.DURATION.markup">00:21:51.470000000</property>
  <property name="meta.attr.4.stream.NUMBER_OF_FRAMES.markup">3</property>
  <property name="meta.attr.4.stream.NUMBER_OF_BYTES.markup">204</property>
  <property name="meta.attr.4.stream._STATISTICS_WRITING_APP.markup">mkvmerge v61.0.0 ('So') 64-bit</property>
  <property name="meta.attr.4.stream._STATISTICS_WRITING_DATE_UTC.markup">2022-10-22 08:26:10</property>
  <property name="meta.attr.4.stream._STATISTICS_TAGS.markup">BPS DURATION NUMBER_OF_FRAMES NUMBER_OF_BYTES</property>
  <property name="meta.media.5.codec.name">ssa</property>
  <property name="meta.media.5.codec.long_name">ASS (Advanced SubStation Alpha) subtitle</property>
  <property name="meta.media.5.codec.bit_rate">0</property>
  <property name="meta.attr.5.stream.language.markup">ara</property>
  <property name="meta.attr.5.stream.title.markup">Arabic</property>
  <property name="meta.attr.5.stream.BPS.markup">131</property>
  <property name="meta.attr.5.stream.DURATION.markup">00:22:21.630000000</property>
  <property name="meta.attr.5.stream.NUMBER_OF_FRAMES.markup">360</property>
  <property name="meta.attr.5.stream.NUMBER_OF_BYTES.markup">22061</property>
  <property name="meta.attr.5.stream._STATISTICS_WRITING_APP.markup">mkvmerge v61.0.0 ('So') 64-bit</property>
  <property name="meta.attr.5.stream._STATISTICS_WRITING_DATE_UTC.markup">2022-10-22 08:26:10</property>
  <property name="meta.attr.5.stream._STATISTICS_TAGS.markup">BPS DURATION NUMBER_OF_FRAMES NUMBER_OF_BYTES</property>
  <property name="meta.attr.title.markup">Monster : Chapter 10 : An Erased Past</property>
  <property name="meta.attr.encoder.markup">libebml v1.4.2 + libmatroska v1.6.4</property>
  <property name="meta.attr.creation_time.markup">2022-10-22T08:26:10.000000Z</property>
  <property name="meta.media.sample_aspect_num">1</property>
  <property name="meta.media.sample_aspect_den">1</property>
  <property name="meta.media.frame_rate_num">24000</property>
  <property name="meta.media.frame_rate_den">1001</property>
  <property name="meta.media.colorspace">709</property>
  <property name="meta.media.color_trc">1</property>
  <property name="meta.media.has_b_frames">2</property>
  <property name="meta.media.width">1440</property>
  <property name="meta.media.height">1080</property>
  <property name="meta.media.color_range">mpeg</property>
  <property name="meta.media.top_field_first">0</property>
  <property name="meta.media.progressive">1</property>
  <property name="set.test_audio">1</property>
  <property name="set.test_image">0</property>
  <property name="vstream">0</property>
  <property name="astream">0</property>
  <property name="kdenlive:control_uuid">{a5f43af7-506f-40a7-ab1a-ea35b9c3d8c9}</property>
  <property name="meta.media.1.codec.layout">stereo</property>
  <property name="meta.media.2.codec.layout">stereo</property>
  <property name="meta.media.aspect_ratio">1</property>
 </chain>
 <playlist id="playlist8">
  <blank length="00:02:21.438"/>
  <entry in="00:00:46.546" out="00:02:11.595" producer="producer11">
   <property name="kdenlive:id">4</property>
   <filter id="filter39" in="00:00:46.546" out="00:00:46.713">
    <property name="start">1</property>
    <property name="level">1</property>
    <property name="mlt_service">brightness</property>
    <property name="kdenlive_id">fade_from_black</property>
    <property name="alpha">00:00:00.000=0;00:00:00.167=1</property>
    <property name="kdenlive:collapsed">0</property>
   </filter>
   <filter id="filter40" in="00:02:10.719" out="00:02:11.595">
    <property name="start">1</property>
    <property name="level">1</property>
    <property name="mlt_service">brightness</property>
    <property name="kdenlive_id">fade_to_black</property>
    <property name="alpha">00:00:00.000=1;00:00:00.876=0</property>
    <property name="kdenlive:collapsed">0</property>
   </filter>
  </entry>
  <blank length="00:18:10.719"/>
  <entry in="00:02:00.125" out="00:23:37.037" producer="producer12">
   <property name="kdenlive:id">5</property>
   <filter id="filter41" in="00:02:00.125" out="00:02:01.335">
    <property name="start">1</property>
    <property name="level">1</property>
    <property name="mlt_service">brightness</property>
    <property name="kdenlive_id">fade_from_black</property>
    <property name="alpha">00:00:00.000=0;00:00:01.210=1</property>
    <property name="kdenlive:collapsed">0</property>
   </filter>
  </entry>
 </playlist>
 <playlist id="playlist9"/>
 <tractor id="tractor4" in="00:00:00.000" out="00:43:34.117">
  <property name="kdenlive:trackheight">67</property>
  <property name="kdenlive:timeline_active">1</property>
  <property name="kdenlive:collapsed">0</property>
  <property name="kdenlive:thumbs_format"/>
  <property name="kdenlive:audio_rec"/>
  <track hide="audio" producer="playlist8"/>
  <track hide="audio" producer="playlist9"/>
 </tractor>
 <tractor id="tractor5" in="00:00:00.000" out="00:43:34.117">
  <property name="kdenlive:duration">00:43:34.159</property>
  <property name="kdenlive:maxduration">62677</property>
  <property name="kdenlive:clipname">Sequence 1</property>
  <property name="kdenlive:description"/>
  <property name="kdenlive:uuid">{477dff03-a9fa-4d13-b3c4-f015ba3708e6}</property>
  <property name="kdenlive:producer_type">17</property>
  <property name="kdenlive:control_uuid">{f701cd3d-576e-486a-8532-4470488e5215}</property>
  <property name="kdenlive:id">7</property>
  <property name="kdenlive:clip_type">0</property>
  <property name="kdenlive:file_hash">eb3fc40652af055f3e4ecb0587b32849</property>
  <property name="kdenlive:folderid">6</property>
  <property name="kdenlive:sequenceproperties.activeTrack">4</property>
  <property name="kdenlive:sequenceproperties.audioTarget">-1</property>
  <property name="kdenlive:sequenceproperties.disablepreview">0</property>
  <property name="kdenlive:sequenceproperties.documentuuid">{477dff03-a9fa-4d13-b3c4-f015ba3708e6}</property>
  <property name="kdenlive:sequenceproperties.hasAudio">1</property>
  <property name="kdenlive:sequenceproperties.hasVideo">1</property>
  <property name="kdenlive:sequenceproperties.hidesubtitle">0</property>
  <property name="kdenlive:sequenceproperties.position">19814</property>
  <property name="kdenlive:sequenceproperties.scrollPos">0</property>
  <property name="kdenlive:sequenceproperties.subtitlesList">[
    {
        "file": "/mnt/data1/Anime-Edits/Monster/Monster-Editing/Editing/Monster_09-10_A_Past_Erased_1080p_24fps.kdenlive.srt",
        "id": 0,
        "name": "Subtitles"
    }
]
</property>
  <property name="kdenlive:sequenceproperties.tracksCount">5</property>
  <property name="kdenlive:sequenceproperties.videoTarget">-1</property>
  <property name="kdenlive:sequenceproperties.zonein">0</property>
  <property name="kdenlive:sequenceproperties.zoneout">62726</property>
  <property name="kdenlive:sequenceproperties.zoom">15</property>
  <property name="kdenlive:sequenceproperties.groups">[
    {
        "children": [
            {
                "data": "1:3391",
                "leaf": "clip",
                "type": "Leaf"
            },
            {
                "data": "4:3391",
                "leaf": "clip",
                "type": "Leaf"
            }
        ],
        "type": "Normal"
    },
    {
        "children": [
            {
                "data": "3:6659",
                "leaf": "clip",
                "type": "Leaf"
            },
            {
                "data": "0:6630",
                "leaf": "clip",
                "type": "Leaf"
            }
        ],
        "type": "Normal"
    },
    {
        "children": [
            {
                "data": "2:6655",
                "leaf": "clip",
                "type": "Leaf"
            },
            {
                "data": "1:7809",
                "leaf": "clip",
                "type": "Leaf"
            },
            {
                "data": "3:6718",
                "leaf": "clip",
                "type": "Leaf"
            }
        ],
        "type": "Normal"
    },
    {
        "children": [
            {
                "data": "3:30805",
                "leaf": "clip",
                "type": "Leaf"
            },
            {
                "data": "2:30805",
                "leaf": "clip",
                "type": "Leaf"
            }
        ],
        "type": "Normal"
    },
    {
        "children": [
            {
                "data": "2:13135",
                "leaf": "clip",
                "type": "Leaf"
            },
            {
                "data": "3:13158",
                "leaf": "clip",
                "type": "Leaf"
            }
        ],
        "type": "Normal"
    },
    {
        "children": [
            {
                "data": "1:13056",
                "leaf": "clip",
                "type": "Leaf"
            },
            {
                "data": "3:13061",
                "leaf": "clip",
                "type": "Leaf"
            },
            {
                "data": "0:13087",
                "leaf": "clip",
                "type": "Leaf"
            }
        ],
        "type": "Normal"
    },
    {
        "children": [
            {
                "data": "-2:85",
                "leaf": "subtitle",
                "type": "Leaf"
            },
            {
                "children": [
                    {
                        "data": "3:0",
                        "leaf": "clip",
                        "type": "Leaf"
                    },
                    {
                        "data": "2:0",
                        "leaf": "clip",
                        "type": "Leaf"
                    }
                ],
                "type": "Normal"
            }
        ],
        "type": "Normal"
    },
    {
        "children": [
            {
                "data": "1:31582",
                "leaf": "clip",
                "type": "Leaf"
            },
            {
                "data": "4:31582",
                "leaf": "clip",
                "type": "Leaf"
            },
            {
                "data": "2:40623",
                "leaf": "clip",
                "type": "Leaf"
            },
            {
                "data": "-2:31630",
                "leaf": "subtitle",
                "type": "Leaf"
            },
            {
                "data": "-2:31740",
                "leaf": "subtitle",
                "type": "Leaf"
            }
        ],
        "type": "Normal"
    },
    {
        "children": [
            {
                "data": "2:5431",
                "leaf": "clip",
                "type": "Leaf"
            },
            {
                "data": "3:5431",
                "leaf": "clip",
                "type": "Leaf"
            },
            {
                "data": "-2:5692",
                "leaf": "subtitle",
                "type": "Leaf"
            }
        ],
        "type": "Normal"
    },
    {
        "children": [
            {
                "data": "1:6591",
                "leaf": "clip",
                "type": "Leaf"
            },
            {
                "data": "3:6600",
                "leaf": "clip",
                "type": "Leaf"
            }
        ],
        "type": "Normal"
    }
]
</property>
  <property name="kdenlive:sequenceproperties.guides">[
]
</property>
  <track producer="producer0"/>
  <track producer="tractor0"/>
  <track producer="tractor1"/>
  <track producer="tractor2"/>
  <track producer="tractor3"/>
  <track producer="tractor4"/>
  <transition id="transition0">
   <property name="a_track">0</property>
   <property name="b_track">1</property>
   <property name="mlt_service">mix</property>
   <property name="kdenlive_id">mix</property>
   <property name="internal_added">237</property>
   <property name="always_active">1</property>
   <property name="accepts_blanks">1</property>
   <property name="sum">1</property>
  </transition>
  <transition id="transition1">
   <property name="a_track">0</property>
   <property name="b_track">2</property>
   <property name="mlt_service">mix</property>
   <property name="kdenlive_id">mix</property>
   <property name="internal_added">237</property>
   <property name="always_active">1</property>
   <property name="accepts_blanks">1</property>
   <property name="sum">1</property>
  </transition>
  <transition id="transition2">
   <property name="a_track">0</property>
   <property name="b_track">3</property>
   <property name="mlt_service">mix</property>
   <property name="kdenlive_id">mix</property>
   <property name="internal_added">237</property>
   <property name="always_active">1</property>
   <property name="accepts_blanks">1</property>
   <property name="sum">1</property>
  </transition>
  <transition id="transition3">
   <property name="a_track">0</property>
   <property name="b_track">4</property>
   <property name="compositing">0</property>
   <property name="distort">0</property>
   <property name="rotate_center">0</property>
   <property name="mlt_service">qtblend</property>
   <property name="kdenlive_id">qtblend</property>
   <property name="internal_added">237</property>
   <property name="always_active">1</property>
  </transition>
  <transition id="transition4">
   <property name="a_track">0</property>
   <property name="b_track">5</property>
   <property name="compositing">0</property>
   <property name="distort">0</property>
   <property name="rotate_center">0</property>
   <property name="mlt_service">qtblend</property>
   <property name="kdenlive_id">qtblend</property>
   <property name="internal_added">237</property>
   <property name="always_active">1</property>
  </transition>
  <filter id="filter42">
   <property name="window">75</property>
   <property name="max_gain">20dB</property>
   <property name="mlt_service">volume</property>
   <property name="internal_added">237</property>
   <property name="disable">1</property>
  </filter>
  <filter id="filter43">
   <property name="channel">-1</property>
   <property name="mlt_service">panner</property>
   <property name="internal_added">237</property>
   <property name="start">0.5</property>
   <property name="disable">1</property>
  </filter>
  <filter id="filter44">
   <property name="window">75</property>
   <property name="max_gain">20dB</property>
   <property name="mlt_service">volume</property>
   <property name="internal_added">237</property>
   <property name="disable">1</property>
  </filter>
  <filter id="filter45">
   <property name="channel">-1</property>
   <property name="mlt_service">panner</property>
   <property name="internal_added">237</property>
   <property name="start">0.5</property>
   <property name="disable">1</property>
  </filter>
  <filter id="filter46">
   <property name="mlt_service">avfilter.subtitles</property>
   <property name="av.alpha">1</property>
   <property name="internal_added">237</property>
   <property name="av.filename">Monster_09-10_A_Past_Erased_1080p_24fps.kdenlive.srt</property>
   <property name="av.force_style">Outline=0,Shadow=1,</property>
  </filter>
 </tractor>
 <playlist id="main_bin">
  <property name="kdenlive:folder.-1.6">Sequences</property>
  <property name="kdenlive:docproperties.activetimeline">{477dff03-a9fa-4d13-b3c4-f015ba3708e6}</property>
  <property name="kdenlive:docproperties.audioChannels">2</property>
  <property name="kdenlive:docproperties.binsort">0</property>
  <property name="kdenlive:docproperties.browserurl">/home/redxarch/Videos/</property>
  <property name="kdenlive:docproperties.compositing">1</property>
  <property name="kdenlive:docproperties.documentid">1666909365844</property>
  <property name="kdenlive:docproperties.enableTimelineZone">0</property>
  <property name="kdenlive:docproperties.enableexternalproxy">0</property>
  <property name="kdenlive:docproperties.enableproxy">0</property>
  <property name="kdenlive:docproperties.externalproxyparams"/>
  <property name="kdenlive:docproperties.generateimageproxy">0</property>
  <property name="kdenlive:docproperties.generateproxy">0</property>
  <property name="kdenlive:docproperties.guidesCategories">[
    {
        "color": "#9b59b6",
        "comment": "Category 1",
        "index": 0
    },
    {
        "color": "#3daee9",
        "comment": "Category 2",
        "index": 1
    },
    {
        "color": "#1abc9c",
        "comment": "Category 3",
        "index": 2
    },
    {
        "color": "#1cdc9a",
        "comment": "Category 4",
        "index": 3
    },
    {
        "color": "#c9ce3b",
        "comment": "Category 5",
        "index": 4
    },
    {
        "color": "#fdbc4b",
        "comment": "Category 6",
        "index": 5
    },
    {
        "color": "#f39c1f",
        "comment": "Category 7",
        "index": 6
    },
    {
        "color": "#f47750",
        "comment": "Category 8",
        "index": 7
    },
    {
        "color": "#da4453",
        "comment": "Category 9",
        "index": 8
    }
]
</property>
  <property name="kdenlive:docproperties.kdenliveversion">24.08.0</property>
  <property name="kdenlive:docproperties.opensequences">{477dff03-a9fa-4d13-b3c4-f015ba3708e6}</property>
  <property name="kdenlive:docproperties.previewextension"/>
  <property name="kdenlive:docproperties.previewparameters"/>
  <property name="kdenlive:docproperties.profile">/home/redxarch/.local/share/kdenlive/profiles/customprofile0</property>
  <property name="kdenlive:docproperties.proxyextension"/>
  <property name="kdenlive:docproperties.proxyimageminsize">2000</property>
  <property name="kdenlive:docproperties.proxyimagesize">800</property>
  <property name="kdenlive:docproperties.proxyminsize">1000</property>
  <property name="kdenlive:docproperties.proxyparams"/>
  <property name="kdenlive:docproperties.proxyresize">640</property>
  <property name="kdenlive:docproperties.rendercategory">Ultra-High Definition (4K)</property>
  <property name="kdenlive:docproperties.rendercustomquality">30</property>
  <property name="kdenlive:docproperties.renderendguide">-1</property>
  <property name="kdenlive:docproperties.renderexportaudio">0</property>
  <property name="kdenlive:docproperties.renderfullcolorrange">0</property>
  <property name="kdenlive:docproperties.rendermode">0</property>
  <property name="kdenlive:docproperties.renderplay">0</property>
  <property name="kdenlive:docproperties.renderpreview">0</property>
  <property name="kdenlive:docproperties.renderprofile">SVT-AV1</property>
  <property name="kdenlive:docproperties.renderratio">0</property>
  <property name="kdenlive:docproperties.renderrescale">0</property>
  <property name="kdenlive:docproperties.renderrescaleheight">720</property>
  <property name="kdenlive:docproperties.renderrescalewidth">960</property>
  <property name="kdenlive:docproperties.renderspeed">0</property>
  <property name="kdenlive:docproperties.renderstartguide">-1</property>
  <property name="kdenlive:docproperties.rendertcoverlay">0</property>
  <property name="kdenlive:docproperties.rendertctype">-1</property>
  <property name="kdenlive:docproperties.rendertwopass">0</property>
  <property name="kdenlive:docproperties.renderurl">/mnt/data1/Anime-Edits/Monster/Monster-Editing/Output/Monster-Edit/Monster_9-10_A_Past_Erased_1080p_24fps.webm</property>
  <property name="kdenlive:docproperties.seekOffset">30000</property>
  <property name="kdenlive:docproperties.uuid">{477dff03-a9fa-4d13-b3c4-f015ba3708e6}</property>
  <property name="kdenlive:docproperties.version">1.1</property>
  <property name="kdenlive:docproperties.verticalzoom">1</property>
  <property name="kdenlive:docproperties.zoom">4</property>
  <property name="kdenlive:expandedFolders"/>
  <property name="kdenlive:binZoom">5</property>
  <property name="kdenlive:extraBins">project_bin:-1:0</property>
  <property name="kdenlive:documentnotes">&lt;!DOCTYPE HTML PUBLIC "-//W3C//DTD HTML 4.0//EN" "http://www.w3.org/TR/REC-html40/strict.dtd">
&lt;html>&lt;head>&lt;meta name="qrichtext" content="1" />&lt;meta charset="utf-8" />&lt;style type="text/css">
p, li { white-space: pre-wrap; }
hr { height: 1px; border-width: 0; }
li.unchecked::marker { content: "\2610"; }
li.checked::marker { content: "\2612"; }
&lt;/style>&lt;/head>&lt;body style=" font-family:'Noto Sans'; font-size:10pt; font-weight:400; font-style:normal;">
&lt;p style=" margin-top:0px; margin-bottom:0px; margin-left:0px; margin-right:0px; -qt-block-indent:0; text-indent:0px;">srt formatting: https://docs.fileformat.com/video/srt/&lt;/p>
&lt;p style=" margin-top:0px; margin-bottom:0px; margin-left:0px; margin-right:0px; -qt-block-indent:0; text-indent:0px;">adding empty char to raise subtitles by a line: https://emptycharacter.com/&lt;/p>
&lt;p style="-qt-paragraph-type:empty; margin-top:0px; margin-bottom:0px; margin-left:0px; margin-right:0px; -qt-block-indent:0; text-indent:0px;">&lt;br />&lt;/p>
&lt;p style=" margin-top:0px; margin-bottom:0px; margin-left:0px; margin-right:0px; -qt-block-indent:0; text-indent:0px;">list of dub voice actors: https://www.behindthevoiceactors.com/tv-shows/Monster/&lt;/p>
&lt;p style="-qt-paragraph-type:empty; margin-top:0px; margin-bottom:0px; margin-left:0px; margin-right:0px; -qt-block-indent:0; text-indent:0px;">&lt;br />&lt;/p>&lt;/body>&lt;/html></property>
  <property name="xml_retain">1</property>
  <entry in="00:00:00.000" out="00:23:54.012" producer="chain11"/>
  <entry in="00:00:00.000" out="00:23:54.012" producer="chain12"/>
  <entry in="00:00:00.000" out="00:23:55.555" producer="producer2"/>
  <entry in="00:00:00.000" out="00:23:55.514" producer="producer3"/>
  <entry in="00:00:00.000" out="00:01:11.887" producer="chain4"/>
  <entry in="00:00:00.000" out="00:02:00.584" producer="chain5"/>
  <entry in="00:00:00.000" out="00:05:53.220" producer="chain6"/>
  <entry in="00:00:00.000" out="00:43:34.117" producer="tractor5"/>
 </playlist>
 <tractor id="tractor6" in="00:00:00.000" out="00:43:34.117">
  <property name="kdenlive:projectTractor">1</property>
  <track in="00:00:00.000" out="00:43:34.117" producer="tractor5"/>
 </tractor>
</mlt>
