<?xml version='1.0' encoding='utf-8'?>
<mlt LC_NUMERIC="C" producer="main_bin" version="7.4.0" root="/home/redxherring/Videos/Monster/Editing">
 <profile frame_rate_num="30000" sample_aspect_num="1" display_aspect_den="3" colorspace="709" progressive="1" description="960x720 29.97fps" display_aspect_num="4" frame_rate_den="1001" width="960" height="720" sample_aspect_den="1"/>
 <producer id="producer0" in="00:00:00.000" out="00:23:55.589">
  <property name="length">43025</property>
  <property name="eof">pause</property>
  <property name="resource">/home/redxherring/Videos/Monster/MP4/Monster 68 - Ruhenheim [Eng Dub &amp; HD] - YouTube.mp4</property>
  <property name="audio_index">-1</property>
  <property name="video_index">0</property>
  <property name="mute_on_pause">0</property>
  <property name="mlt_service">avformat-novalidate</property>
  <property name="seekable">1</property>
  <property name="aspect_ratio">1</property>
  <property name="kdenlive:clipname"/>
  <property name="kdenlive:folderid">-1</property>
  <property name="kdenlive:id">2</property>
  <property name="kdenlive:file_size">154121940</property>
  <property name="kdenlive:file_hash">9724937bec7ec002b69a2e298962e53d</property>
  <property name="meta.media.nb_streams">1</property>
  <property name="meta.media.0.stream.type">video</property>
  <property name="meta.media.0.stream.frame_rate">29.97</property>
  <property name="meta.media.0.stream.sample_aspect_ratio">1</property>
  <property name="meta.media.0.codec.width">960</property>
  <property name="meta.media.0.codec.height">720</property>
  <property name="meta.media.0.codec.rotate">0</property>
  <property name="meta.media.0.codec.pix_fmt">yuv420p</property>
  <property name="meta.media.0.codec.sample_aspect_ratio">1</property>
  <property name="meta.media.0.codec.colorspace">709</property>
  <property name="meta.media.0.codec.color_trc">1</property>
  <property name="meta.media.0.codec.name">h264</property>
  <property name="meta.media.0.codec.long_name">H.264 / AVC / MPEG-4 AVC / MPEG-4 part 10</property>
  <property name="meta.media.0.codec.bit_rate">854942</property>
  <property name="meta.attr.0.stream.handler_name.markup">ISO Media file produced by Google Inc.</property>
  <property name="meta.attr.0.stream.vendor_id.markup">[0][0][0][0]</property>
  <property name="meta.attr.major_brand.markup">isom</property>
  <property name="meta.attr.minor_version.markup">512</property>
  <property name="meta.attr.compatible_brands.markup">isomiso2avc1mp41</property>
  <property name="meta.attr.encoder.markup">Lavf58.76.100</property>
  <property name="meta.media.sample_aspect_num">1</property>
  <property name="meta.media.sample_aspect_den">1</property>
  <property name="meta.media.frame_rate_num">344200000</property>
  <property name="meta.media.frame_rate_den">11484803</property>
  <property name="meta.media.colorspace">709</property>
  <property name="meta.media.color_trc">1</property>
  <property name="meta.media.has_b_frames">1</property>
  <property name="meta.media.width">960</property>
  <property name="meta.media.height">720</property>
  <property name="meta.media.color_range">mpeg</property>
  <property name="meta.media.top_field_first">0</property>
  <property name="meta.media.progressive">1</property>
 </producer>
 <producer id="producer1" in="00:00:00.000" out="00:23:55.589">
  <property name="length">43025</property>
  <property name="eof">pause</property>
  <property name="resource">/home/redxherring/Videos/Monster/MP4/Monster 69 - The Peaceful House [Eng Dub &amp; HD] - YouTube.mp4</property>
  <property name="audio_index">-1</property>
  <property name="video_index">0</property>
  <property name="mute_on_pause">0</property>
  <property name="mlt_service">avformat-novalidate</property>
  <property name="seekable">1</property>
  <property name="aspect_ratio">1</property>
  <property name="kdenlive:clipname"/>
  <property name="kdenlive:folderid">-1</property>
  <property name="kdenlive:id">3</property>
  <property name="kdenlive:file_size">154088687</property>
  <property name="kdenlive:file_hash">4051124d787aefb0f5435e66bd6071cb</property>
  <property name="meta.media.nb_streams">1</property>
  <property name="meta.media.0.stream.type">video</property>
  <property name="meta.media.0.stream.frame_rate">29.97</property>
  <property name="meta.media.0.stream.sample_aspect_ratio">1</property>
  <property name="meta.media.0.codec.width">960</property>
  <property name="meta.media.0.codec.height">720</property>
  <property name="meta.media.0.codec.rotate">0</property>
  <property name="meta.media.0.codec.pix_fmt">yuv420p</property>
  <property name="meta.media.0.codec.sample_aspect_ratio">1</property>
  <property name="meta.media.0.codec.colorspace">709</property>
  <property name="meta.media.0.codec.color_trc">1</property>
  <property name="meta.media.0.codec.name">h264</property>
  <property name="meta.media.0.codec.long_name">H.264 / AVC / MPEG-4 AVC / MPEG-4 part 10</property>
  <property name="meta.media.0.codec.bit_rate">854773</property>
  <property name="meta.attr.0.stream.handler_name.markup">ISO Media file produced by Google Inc.</property>
  <property name="meta.attr.0.stream.vendor_id.markup">[0][0][0][0]</property>
  <property name="meta.attr.major_brand.markup">isom</property>
  <property name="meta.attr.minor_version.markup">512</property>
  <property name="meta.attr.compatible_brands.markup">isomiso2avc1mp41</property>
  <property name="meta.attr.encoder.markup">Lavf58.76.100</property>
  <property name="meta.media.sample_aspect_num">1</property>
  <property name="meta.media.sample_aspect_den">1</property>
  <property name="meta.media.frame_rate_num">344200000</property>
  <property name="meta.media.frame_rate_den">11484803</property>
  <property name="meta.media.colorspace">709</property>
  <property name="meta.media.color_trc">1</property>
  <property name="meta.media.has_b_frames">1</property>
  <property name="meta.media.width">960</property>
  <property name="meta.media.height">720</property>
  <property name="meta.media.color_range">mpeg</property>
  <property name="meta.media.top_field_first">0</property>
  <property name="meta.media.progressive">1</property>
 </producer>
 <producer id="producer2" in="00:00:00.000" out="00:23:55.589">
  <property name="length">43025</property>
  <property name="eof">pause</property>
  <property name="resource">/home/redxherring/Videos/Monster/MP4/Monster 70 - The Town Massacre [Eng Dub &amp; HD] - YouTube.mp4</property>
  <property name="audio_index">-1</property>
  <property name="video_index">0</property>
  <property name="mute_on_pause">0</property>
  <property name="mlt_service">avformat-novalidate</property>
  <property name="seekable">1</property>
  <property name="aspect_ratio">1</property>
  <property name="kdenlive:clipname"/>
  <property name="kdenlive:folderid">-1</property>
  <property name="kdenlive:id">4</property>
  <property name="kdenlive:file_size">152658109</property>
  <property name="kdenlive:file_hash">125502118d06cee80ffba7c91d0577b3</property>
  <property name="meta.media.nb_streams">1</property>
  <property name="meta.media.0.stream.type">video</property>
  <property name="meta.media.0.stream.frame_rate">29.97</property>
  <property name="meta.media.0.stream.sample_aspect_ratio">1</property>
  <property name="meta.media.0.codec.width">960</property>
  <property name="meta.media.0.codec.height">720</property>
  <property name="meta.media.0.codec.rotate">0</property>
  <property name="meta.media.0.codec.pix_fmt">yuv420p</property>
  <property name="meta.media.0.codec.sample_aspect_ratio">1</property>
  <property name="meta.media.0.codec.colorspace">709</property>
  <property name="meta.media.0.codec.color_trc">1</property>
  <property name="meta.media.0.codec.name">h264</property>
  <property name="meta.media.0.codec.long_name">H.264 / AVC / MPEG-4 AVC / MPEG-4 part 10</property>
  <property name="meta.media.0.codec.bit_rate">846762</property>
  <property name="meta.attr.0.stream.handler_name.markup">ISO Media file produced by Google Inc.</property>
  <property name="meta.attr.0.stream.vendor_id.markup">[0][0][0][0]</property>
  <property name="meta.attr.major_brand.markup">isom</property>
  <property name="meta.attr.minor_version.markup">512</property>
  <property name="meta.attr.compatible_brands.markup">isomiso2avc1mp41</property>
  <property name="meta.attr.encoder.markup">Lavf58.76.100</property>
  <property name="meta.media.sample_aspect_num">1</property>
  <property name="meta.media.sample_aspect_den">1</property>
  <property name="meta.media.frame_rate_num">344200000</property>
  <property name="meta.media.frame_rate_den">11484803</property>
  <property name="meta.media.colorspace">709</property>
  <property name="meta.media.color_trc">1</property>
  <property name="meta.media.has_b_frames">1</property>
  <property name="meta.media.width">960</property>
  <property name="meta.media.height">720</property>
  <property name="meta.media.color_range">mpeg</property>
  <property name="meta.media.top_field_first">0</property>
  <property name="meta.media.progressive">1</property>
 </producer>
 <producer id="producer3" in="00:00:00.000" out="00:23:55.589">
  <property name="length">43025</property>
  <property name="eof">pause</property>
  <property name="resource">/home/redxherring/Videos/Monster/MP4/Monster 71 - The Wrath of the Magnificent Steiner [Eng Dub &amp;.mp4</property>
  <property name="audio_index">-1</property>
  <property name="video_index">0</property>
  <property name="mute_on_pause">0</property>
  <property name="mlt_service">avformat-novalidate</property>
  <property name="seekable">1</property>
  <property name="aspect_ratio">1</property>
  <property name="kdenlive:clipname"/>
  <property name="kdenlive:folderid">-1</property>
  <property name="kdenlive:id">5</property>
  <property name="kdenlive:file_size">153195105</property>
  <property name="kdenlive:file_hash">fe0ff785c1f32e64fbef1c18fcf3dd21</property>
  <property name="meta.media.nb_streams">1</property>
  <property name="meta.media.0.stream.type">video</property>
  <property name="meta.media.0.stream.frame_rate">29.97</property>
  <property name="meta.media.0.stream.sample_aspect_ratio">1</property>
  <property name="meta.media.0.codec.width">960</property>
  <property name="meta.media.0.codec.height">720</property>
  <property name="meta.media.0.codec.rotate">0</property>
  <property name="meta.media.0.codec.pix_fmt">yuv420p</property>
  <property name="meta.media.0.codec.sample_aspect_ratio">1</property>
  <property name="meta.media.0.codec.colorspace">709</property>
  <property name="meta.media.0.codec.color_trc">1</property>
  <property name="meta.media.0.codec.name">h264</property>
  <property name="meta.media.0.codec.long_name">H.264 / AVC / MPEG-4 AVC / MPEG-4 part 10</property>
  <property name="meta.media.0.codec.bit_rate">849753</property>
  <property name="meta.attr.0.stream.handler_name.markup">ISO Media file produced by Google Inc.</property>
  <property name="meta.attr.0.stream.vendor_id.markup">[0][0][0][0]</property>
  <property name="meta.attr.major_brand.markup">isom</property>
  <property name="meta.attr.minor_version.markup">512</property>
  <property name="meta.attr.compatible_brands.markup">isomiso2avc1mp41</property>
  <property name="meta.attr.encoder.markup">Lavf58.76.100</property>
  <property name="meta.media.sample_aspect_num">1</property>
  <property name="meta.media.sample_aspect_den">1</property>
  <property name="meta.media.frame_rate_num">344200000</property>
  <property name="meta.media.frame_rate_den">11484803</property>
  <property name="meta.media.colorspace">709</property>
  <property name="meta.media.color_trc">1</property>
  <property name="meta.media.has_b_frames">1</property>
  <property name="meta.media.width">960</property>
  <property name="meta.media.height">720</property>
  <property name="meta.media.color_range">mpeg</property>
  <property name="meta.media.top_field_first">0</property>
  <property name="meta.media.progressive">1</property>
 </producer>
 <producer id="producer4" in="00:00:00.000" out="00:23:55.455">
  <property name="length">43021</property>
  <property name="eof">pause</property>
  <property name="resource">/home/redxherring/Videos/Monster/MP4/Monster 72 - A Nameless Man [Eng Dub &amp; HD] - YouTube.mp4</property>
  <property name="audio_index">-1</property>
  <property name="video_index">0</property>
  <property name="mute_on_pause">0</property>
  <property name="mlt_service">avformat-novalidate</property>
  <property name="seekable">1</property>
  <property name="aspect_ratio">1</property>
  <property name="kdenlive:clipname"/>
  <property name="kdenlive:folderid">-1</property>
  <property name="kdenlive:id">6</property>
  <property name="kdenlive:file_size">150781427</property>
  <property name="kdenlive:file_hash">d466925c301b81b494f8ec63c6ebfb88</property>
  <property name="meta.media.nb_streams">1</property>
  <property name="meta.media.0.stream.type">video</property>
  <property name="meta.media.0.stream.frame_rate">29.97</property>
  <property name="meta.media.0.stream.sample_aspect_ratio">1</property>
  <property name="meta.media.0.codec.width">960</property>
  <property name="meta.media.0.codec.height">720</property>
  <property name="meta.media.0.codec.rotate">0</property>
  <property name="meta.media.0.codec.pix_fmt">yuv420p</property>
  <property name="meta.media.0.codec.sample_aspect_ratio">1</property>
  <property name="meta.media.0.codec.colorspace">709</property>
  <property name="meta.media.0.codec.color_trc">1</property>
  <property name="meta.media.0.codec.name">h264</property>
  <property name="meta.media.0.codec.long_name">H.264 / AVC / MPEG-4 AVC / MPEG-4 part 10</property>
  <property name="meta.media.0.codec.bit_rate">836440</property>
  <property name="meta.attr.0.stream.handler_name.markup">ISO Media file produced by Google Inc.</property>
  <property name="meta.attr.0.stream.vendor_id.markup">[0][0][0][0]</property>
  <property name="meta.attr.major_brand.markup">isom</property>
  <property name="meta.attr.minor_version.markup">512</property>
  <property name="meta.attr.compatible_brands.markup">isomiso2avc1mp41</property>
  <property name="meta.attr.encoder.markup">Lavf58.76.100</property>
  <property name="meta.media.sample_aspect_num">1</property>
  <property name="meta.media.sample_aspect_den">1</property>
  <property name="meta.media.frame_rate_num">344168000</property>
  <property name="meta.media.frame_rate_den">11483739</property>
  <property name="meta.media.colorspace">709</property>
  <property name="meta.media.color_trc">1</property>
  <property name="meta.media.has_b_frames">1</property>
  <property name="meta.media.width">960</property>
  <property name="meta.media.height">720</property>
  <property name="meta.media.color_range">mpeg</property>
  <property name="meta.media.top_field_first">0</property>
  <property name="meta.media.progressive">1</property>
 </producer>
 <producer id="producer5" in="00:00:00.000" out="00:23:55.589">
  <property name="length">43025</property>
  <property name="eof">pause</property>
  <property name="resource">/home/redxherring/Videos/Monster/MP4/Monster 73 - Scenery for a Doomsday [Eng Dub &amp; HD] - YouTube.mp4</property>
  <property name="audio_index">-1</property>
  <property name="video_index">0</property>
  <property name="mute_on_pause">0</property>
  <property name="mlt_service">avformat-novalidate</property>
  <property name="seekable">1</property>
  <property name="aspect_ratio">1</property>
  <property name="kdenlive:clipname"/>
  <property name="kdenlive:folderid">-1</property>
  <property name="kdenlive:id">7</property>
  <property name="kdenlive:file_size">160389441</property>
  <property name="kdenlive:file_hash">918e00b4fbe957089e32e051bd067dfa</property>
  <property name="meta.media.nb_streams">1</property>
  <property name="meta.media.0.stream.type">video</property>
  <property name="meta.media.0.stream.frame_rate">29.97</property>
  <property name="meta.media.0.stream.sample_aspect_ratio">1</property>
  <property name="meta.media.0.codec.width">960</property>
  <property name="meta.media.0.codec.height">720</property>
  <property name="meta.media.0.codec.rotate">0</property>
  <property name="meta.media.0.codec.pix_fmt">yuv420p</property>
  <property name="meta.media.0.codec.sample_aspect_ratio">1</property>
  <property name="meta.media.0.codec.colorspace">709</property>
  <property name="meta.media.0.codec.color_trc">1</property>
  <property name="meta.media.0.codec.name">h264</property>
  <property name="meta.media.0.codec.long_name">H.264 / AVC / MPEG-4 AVC / MPEG-4 part 10</property>
  <property name="meta.media.0.codec.bit_rate">889851</property>
  <property name="meta.attr.0.stream.handler_name.markup">ISO Media file produced by Google Inc.</property>
  <property name="meta.attr.0.stream.vendor_id.markup">[0][0][0][0]</property>
  <property name="meta.attr.major_brand.markup">isom</property>
  <property name="meta.attr.minor_version.markup">512</property>
  <property name="meta.attr.compatible_brands.markup">isomiso2avc1mp41</property>
  <property name="meta.attr.encoder.markup">Lavf58.76.100</property>
  <property name="meta.media.sample_aspect_num">1</property>
  <property name="meta.media.sample_aspect_den">1</property>
  <property name="meta.media.frame_rate_num">344200000</property>
  <property name="meta.media.frame_rate_den">11484803</property>
  <property name="meta.media.colorspace">709</property>
  <property name="meta.media.color_trc">1</property>
  <property name="meta.media.has_b_frames">1</property>
  <property name="meta.media.width">960</property>
  <property name="meta.media.height">720</property>
  <property name="meta.media.color_range">mpeg</property>
  <property name="meta.media.top_field_first">0</property>
  <property name="meta.media.progressive">1</property>
 </producer>
 <producer id="producer6" in="00:00:00.000" out="00:23:39.006">
  <property name="length">42528</property>
  <property name="eof">pause</property>
  <property name="resource">/home/redxherring/Videos/Monster/MP4/Monster 74 - The Real Monster [Eng Dub &amp; HD] - YouTube.mp4</property>
  <property name="audio_index">-1</property>
  <property name="video_index">0</property>
  <property name="mute_on_pause">0</property>
  <property name="mlt_service">avformat-novalidate</property>
  <property name="seekable">1</property>
  <property name="aspect_ratio">1</property>
  <property name="kdenlive:clipname"/>
  <property name="kdenlive:folderid">-1</property>
  <property name="kdenlive:id">8</property>
  <property name="kdenlive:file_size">160347747</property>
  <property name="kdenlive:file_hash">6f26a2736b3efe89fe9d6caa165e56ec</property>
  <property name="meta.media.nb_streams">1</property>
  <property name="meta.media.0.stream.type">video</property>
  <property name="meta.media.0.stream.frame_rate">29.97</property>
  <property name="meta.media.0.stream.sample_aspect_ratio">1</property>
  <property name="meta.media.0.codec.width">960</property>
  <property name="meta.media.0.codec.height">720</property>
  <property name="meta.media.0.codec.rotate">0</property>
  <property name="meta.media.0.codec.pix_fmt">yuv420p</property>
  <property name="meta.media.0.codec.sample_aspect_ratio">1</property>
  <property name="meta.media.0.codec.colorspace">709</property>
  <property name="meta.media.0.codec.color_trc">1</property>
  <property name="meta.media.0.codec.name">h264</property>
  <property name="meta.media.0.codec.long_name">H.264 / AVC / MPEG-4 AVC / MPEG-4 part 10</property>
  <property name="meta.media.0.codec.bit_rate">900130</property>
  <property name="meta.attr.0.stream.handler_name.markup">ISO Media file produced by Google Inc.</property>
  <property name="meta.attr.0.stream.vendor_id.markup">[0][0][0][0]</property>
  <property name="meta.attr.major_brand.markup">isom</property>
  <property name="meta.attr.minor_version.markup">512</property>
  <property name="meta.attr.compatible_brands.markup">isomiso2avc1mp41</property>
  <property name="meta.attr.encoder.markup">Lavf58.76.100</property>
  <property name="meta.media.sample_aspect_num">1</property>
  <property name="meta.media.sample_aspect_den">1</property>
  <property name="meta.media.frame_rate_num">340224000</property>
  <property name="meta.media.frame_rate_den">11352139</property>
  <property name="meta.media.colorspace">709</property>
  <property name="meta.media.color_trc">1</property>
  <property name="meta.media.has_b_frames">1</property>
  <property name="meta.media.width">960</property>
  <property name="meta.media.height">720</property>
  <property name="meta.media.color_range">mpeg</property>
  <property name="meta.media.top_field_first">0</property>
  <property name="meta.media.progressive">1</property>
 </producer>
 <producer id="producer7" in="00:00:00.000" out="00:23:55.589">
  <property name="length">43025</property>
  <property name="eof">pause</property>
  <property name="resource">/home/redxherring/Videos/Monster/WAV/Monster 68 - Ruhenheim [Eng Dub &amp; HD] - YouTubeL.wav</property>
  <property name="meta.media.nb_streams">1</property>
  <property name="meta.media.0.stream.type">audio</property>
  <property name="meta.media.0.codec.sample_fmt">s16</property>
  <property name="meta.media.0.codec.sample_rate">48000</property>
  <property name="meta.media.0.codec.channels">1</property>
  <property name="meta.media.0.codec.name">pcm_s16le</property>
  <property name="meta.media.0.codec.long_name">PCM signed 16-bit little-endian</property>
  <property name="meta.media.0.codec.bit_rate">768000</property>
  <property name="meta.attr.encoder.markup">Lavf58.76.100</property>
  <property name="seekable">1</property>
  <property name="audio_index">0</property>
  <property name="video_index">-1</property>
  <property name="mute_on_pause">1</property>
  <property name="mlt_service">avformat</property>
  <property name="kdenlive:clipname"/>
  <property name="kdenlive:folderid">-1</property>
  <property name="kdenlive:id">9</property>
  <property name="kdenlive:file_size">137818498</property>
  <property name="kdenlive:file_hash">3179fed1466bd579eaa45b90fae1c674</property>
  <property name="kdenlive:audio_max0">232</property>
 </producer>
 <producer id="producer8" in="00:00:00.000" out="00:23:55.589">
  <property name="length">43025</property>
  <property name="eof">pause</property>
  <property name="resource">/home/redxherring/Videos/Monster/WAV/Monster 68 - Ruhenheim [Eng Dub &amp; HD] - YouTubeR.wav</property>
  <property name="meta.media.nb_streams">1</property>
  <property name="meta.media.0.stream.type">audio</property>
  <property name="meta.media.0.codec.sample_fmt">s16</property>
  <property name="meta.media.0.codec.sample_rate">48000</property>
  <property name="meta.media.0.codec.channels">1</property>
  <property name="meta.media.0.codec.name">pcm_s16le</property>
  <property name="meta.media.0.codec.long_name">PCM signed 16-bit little-endian</property>
  <property name="meta.media.0.codec.bit_rate">768000</property>
  <property name="meta.attr.encoder.markup">Lavf58.76.100</property>
  <property name="seekable">1</property>
  <property name="audio_index">0</property>
  <property name="video_index">-1</property>
  <property name="mute_on_pause">1</property>
  <property name="mlt_service">avformat</property>
  <property name="kdenlive:clipname"/>
  <property name="kdenlive:folderid">-1</property>
  <property name="kdenlive:id">10</property>
  <property name="kdenlive:file_size">137818498</property>
  <property name="kdenlive:file_hash">3877bfccaa99643a3f89f2bd5d8b26be</property>
  <property name="kdenlive:audio_max0">230</property>
 </producer>
 <producer id="producer9" in="00:00:00.000" out="00:23:55.589">
  <property name="length">43025</property>
  <property name="eof">pause</property>
  <property name="resource">/home/redxherring/Videos/Monster/WAV/Monster 69 - The Peaceful House [Eng Dub &amp; HD] - YouTubeL.wav</property>
  <property name="meta.media.nb_streams">1</property>
  <property name="meta.media.0.stream.type">audio</property>
  <property name="meta.media.0.codec.sample_fmt">s16</property>
  <property name="meta.media.0.codec.sample_rate">48000</property>
  <property name="meta.media.0.codec.channels">1</property>
  <property name="meta.media.0.codec.name">pcm_s16le</property>
  <property name="meta.media.0.codec.long_name">PCM signed 16-bit little-endian</property>
  <property name="meta.media.0.codec.bit_rate">768000</property>
  <property name="meta.attr.encoder.markup">Lavf58.76.100</property>
  <property name="seekable">1</property>
  <property name="audio_index">0</property>
  <property name="video_index">-1</property>
  <property name="mute_on_pause">1</property>
  <property name="mlt_service">avformat</property>
  <property name="kdenlive:clipname"/>
  <property name="kdenlive:folderid">-1</property>
  <property name="kdenlive:id">11</property>
  <property name="kdenlive:file_size">137818498</property>
  <property name="kdenlive:file_hash">a52638b3d3a3e708a9614b7cb8f5dc3e</property>
  <property name="kdenlive:audio_max0">230</property>
 </producer>
 <producer id="producer10" in="00:00:00.000" out="00:23:55.589">
  <property name="length">43025</property>
  <property name="eof">pause</property>
  <property name="resource">/home/redxherring/Videos/Monster/WAV/Monster 69 - The Peaceful House [Eng Dub &amp; HD] - YouTubeR.wav</property>
  <property name="meta.media.nb_streams">1</property>
  <property name="meta.media.0.stream.type">audio</property>
  <property name="meta.media.0.codec.sample_fmt">s16</property>
  <property name="meta.media.0.codec.sample_rate">48000</property>
  <property name="meta.media.0.codec.channels">1</property>
  <property name="meta.media.0.codec.name">pcm_s16le</property>
  <property name="meta.media.0.codec.long_name">PCM signed 16-bit little-endian</property>
  <property name="meta.media.0.codec.bit_rate">768000</property>
  <property name="meta.attr.encoder.markup">Lavf58.76.100</property>
  <property name="seekable">1</property>
  <property name="audio_index">0</property>
  <property name="video_index">-1</property>
  <property name="mute_on_pause">1</property>
  <property name="mlt_service">avformat</property>
  <property name="kdenlive:clipname"/>
  <property name="kdenlive:folderid">-1</property>
  <property name="kdenlive:id">12</property>
  <property name="kdenlive:file_size">137818498</property>
  <property name="kdenlive:file_hash">3d6a464df8e73a92e8b1dbd91cfb83da</property>
  <property name="kdenlive:audio_max0">230</property>
 </producer>
 <producer id="producer11" in="00:00:00.000" out="00:23:55.622">
  <property name="length">43026</property>
  <property name="eof">pause</property>
  <property name="resource">/home/redxherring/Videos/Monster/WAV/Monster 70 - The Town Massacre [Eng Dub &amp; HD] - YouTubeL.wav</property>
  <property name="meta.media.nb_streams">1</property>
  <property name="meta.media.0.stream.type">audio</property>
  <property name="meta.media.0.codec.sample_fmt">s16</property>
  <property name="meta.media.0.codec.sample_rate">48000</property>
  <property name="meta.media.0.codec.channels">1</property>
  <property name="meta.media.0.codec.name">pcm_s16le</property>
  <property name="meta.media.0.codec.long_name">PCM signed 16-bit little-endian</property>
  <property name="meta.media.0.codec.bit_rate">768000</property>
  <property name="meta.attr.encoder.markup">Lavf58.76.100</property>
  <property name="seekable">1</property>
  <property name="audio_index">0</property>
  <property name="video_index">-1</property>
  <property name="mute_on_pause">1</property>
  <property name="mlt_service">avformat</property>
  <property name="kdenlive:clipname"/>
  <property name="kdenlive:folderid">-1</property>
  <property name="kdenlive:id">13</property>
  <property name="kdenlive:file_size">137821842</property>
  <property name="kdenlive:file_hash">116e3576fa0a6c1b845c4925d75e76a6</property>
  <property name="kdenlive:audio_max0">204</property>
 </producer>
 <producer id="producer12" in="00:00:00.000" out="00:23:55.622">
  <property name="length">43026</property>
  <property name="eof">pause</property>
  <property name="resource">/home/redxherring/Videos/Monster/WAV/Monster 70 - The Town Massacre [Eng Dub &amp; HD] - YouTubeR.wav</property>
  <property name="meta.media.nb_streams">1</property>
  <property name="meta.media.0.stream.type">audio</property>
  <property name="meta.media.0.codec.sample_fmt">s16</property>
  <property name="meta.media.0.codec.sample_rate">48000</property>
  <property name="meta.media.0.codec.channels">1</property>
  <property name="meta.media.0.codec.name">pcm_s16le</property>
  <property name="meta.media.0.codec.long_name">PCM signed 16-bit little-endian</property>
  <property name="meta.media.0.codec.bit_rate">768000</property>
  <property name="meta.attr.encoder.markup">Lavf58.76.100</property>
  <property name="seekable">1</property>
  <property name="audio_index">0</property>
  <property name="video_index">-1</property>
  <property name="mute_on_pause">1</property>
  <property name="mlt_service">avformat</property>
  <property name="kdenlive:clipname"/>
  <property name="kdenlive:folderid">-1</property>
  <property name="kdenlive:id">14</property>
  <property name="kdenlive:file_size">137821842</property>
  <property name="kdenlive:file_hash">140f2ca5d89d3ea0813510a6426236c2</property>
  <property name="kdenlive:audio_max0">208</property>
 </producer>
 <producer id="producer13" in="00:00:00.000" out="00:23:55.589">
  <property name="length">43025</property>
  <property name="eof">pause</property>
  <property name="resource">/home/redxherring/Videos/Monster/WAV/Monster 71 - The Wrath of the Magnificent Steiner [Eng Dub &amp;L.wav</property>
  <property name="meta.media.nb_streams">1</property>
  <property name="meta.media.0.stream.type">audio</property>
  <property name="meta.media.0.codec.sample_fmt">s16</property>
  <property name="meta.media.0.codec.sample_rate">48000</property>
  <property name="meta.media.0.codec.channels">1</property>
  <property name="meta.media.0.codec.name">pcm_s16le</property>
  <property name="meta.media.0.codec.long_name">PCM signed 16-bit little-endian</property>
  <property name="meta.media.0.codec.bit_rate">768000</property>
  <property name="meta.attr.encoder.markup">Lavf58.76.100</property>
  <property name="seekable">1</property>
  <property name="audio_index">0</property>
  <property name="video_index">-1</property>
  <property name="mute_on_pause">1</property>
  <property name="mlt_service">avformat</property>
  <property name="kdenlive:clipname"/>
  <property name="kdenlive:folderid">-1</property>
  <property name="kdenlive:id">15</property>
  <property name="kdenlive:file_size">137818498</property>
  <property name="kdenlive:file_hash">244d8b21bfb9da3709b4361b79ba70e2</property>
  <property name="kdenlive:audio_max0">225</property>
 </producer>
 <producer id="producer14" in="00:00:00.000" out="00:23:55.589">
  <property name="length">43025</property>
  <property name="eof">pause</property>
  <property name="resource">/home/redxherring/Videos/Monster/WAV/Monster 71 - The Wrath of the Magnificent Steiner [Eng Dub &amp;R.wav</property>
  <property name="meta.media.nb_streams">1</property>
  <property name="meta.media.0.stream.type">audio</property>
  <property name="meta.media.0.codec.sample_fmt">s16</property>
  <property name="meta.media.0.codec.sample_rate">48000</property>
  <property name="meta.media.0.codec.channels">1</property>
  <property name="meta.media.0.codec.name">pcm_s16le</property>
  <property name="meta.media.0.codec.long_name">PCM signed 16-bit little-endian</property>
  <property name="meta.media.0.codec.bit_rate">768000</property>
  <property name="meta.attr.encoder.markup">Lavf58.76.100</property>
  <property name="seekable">1</property>
  <property name="audio_index">0</property>
  <property name="video_index">-1</property>
  <property name="mute_on_pause">1</property>
  <property name="mlt_service">avformat</property>
  <property name="kdenlive:clipname"/>
  <property name="kdenlive:folderid">-1</property>
  <property name="kdenlive:id">16</property>
  <property name="kdenlive:file_size">137818498</property>
  <property name="kdenlive:file_hash">84340010a345de7f46569f5855dbf697</property>
  <property name="kdenlive:audio_max0">225</property>
 </producer>
 <producer id="producer15" in="00:00:00.000" out="00:23:55.455">
  <property name="length">43021</property>
  <property name="eof">pause</property>
  <property name="resource">/home/redxherring/Videos/Monster/WAV/Monster 72 - A Nameless Man [Eng Dub &amp; HD] - YouTubeL.wav</property>
  <property name="meta.media.nb_streams">1</property>
  <property name="meta.media.0.stream.type">audio</property>
  <property name="meta.media.0.codec.sample_fmt">s16</property>
  <property name="meta.media.0.codec.sample_rate">48000</property>
  <property name="meta.media.0.codec.channels">1</property>
  <property name="meta.media.0.codec.name">pcm_s16le</property>
  <property name="meta.media.0.codec.long_name">PCM signed 16-bit little-endian</property>
  <property name="meta.media.0.codec.bit_rate">768000</property>
  <property name="meta.attr.encoder.markup">Lavf58.76.100</property>
  <property name="seekable">1</property>
  <property name="audio_index">0</property>
  <property name="video_index">-1</property>
  <property name="mute_on_pause">1</property>
  <property name="mlt_service">avformat</property>
  <property name="kdenlive:clipname"/>
  <property name="kdenlive:folderid">-1</property>
  <property name="kdenlive:id">17</property>
  <property name="kdenlive:file_size">137805122</property>
  <property name="kdenlive:file_hash">5a1b3319bf8d3830b3ccdc97417eb47b</property>
  <property name="kdenlive:audio_max0">221</property>
 </producer>
 <producer id="producer16" in="00:00:00.000" out="00:23:55.455">
  <property name="length">43021</property>
  <property name="eof">pause</property>
  <property name="resource">/home/redxherring/Videos/Monster/WAV/Monster 72 - A Nameless Man [Eng Dub &amp; HD] - YouTubeR.wav</property>
  <property name="meta.media.nb_streams">1</property>
  <property name="meta.media.0.stream.type">audio</property>
  <property name="meta.media.0.codec.sample_fmt">s16</property>
  <property name="meta.media.0.codec.sample_rate">48000</property>
  <property name="meta.media.0.codec.channels">1</property>
  <property name="meta.media.0.codec.name">pcm_s16le</property>
  <property name="meta.media.0.codec.long_name">PCM signed 16-bit little-endian</property>
  <property name="meta.media.0.codec.bit_rate">768000</property>
  <property name="meta.attr.encoder.markup">Lavf58.76.100</property>
  <property name="seekable">1</property>
  <property name="audio_index">0</property>
  <property name="video_index">-1</property>
  <property name="mute_on_pause">1</property>
  <property name="mlt_service">avformat</property>
  <property name="kdenlive:clipname"/>
  <property name="kdenlive:folderid">-1</property>
  <property name="kdenlive:id">18</property>
  <property name="kdenlive:file_size">137805122</property>
  <property name="kdenlive:file_hash">45bf5415072570b28545e0af81103f28</property>
  <property name="kdenlive:audio_max0">223</property>
 </producer>
 <producer id="producer17" in="00:00:00.000" out="00:23:55.589">
  <property name="length">43025</property>
  <property name="eof">pause</property>
  <property name="resource">/home/redxherring/Videos/Monster/WAV/Monster 73 - Scenery for a Doomsday [Eng Dub &amp; HD] - YouTubeL.wav</property>
  <property name="meta.media.nb_streams">1</property>
  <property name="meta.media.0.stream.type">audio</property>
  <property name="meta.media.0.codec.sample_fmt">s16</property>
  <property name="meta.media.0.codec.sample_rate">48000</property>
  <property name="meta.media.0.codec.channels">1</property>
  <property name="meta.media.0.codec.name">pcm_s16le</property>
  <property name="meta.media.0.codec.long_name">PCM signed 16-bit little-endian</property>
  <property name="meta.media.0.codec.bit_rate">768000</property>
  <property name="meta.attr.encoder.markup">Lavf58.76.100</property>
  <property name="seekable">1</property>
  <property name="audio_index">0</property>
  <property name="video_index">-1</property>
  <property name="mute_on_pause">1</property>
  <property name="mlt_service">avformat</property>
  <property name="kdenlive:clipname"/>
  <property name="kdenlive:folderid">-1</property>
  <property name="kdenlive:id">19</property>
  <property name="kdenlive:file_size">137818498</property>
  <property name="kdenlive:file_hash">4b5b4477e8ac86fb38629e6326d9ef10</property>
  <property name="kdenlive:audio_max0">206</property>
 </producer>
 <producer id="producer18" in="00:00:00.000" out="00:23:55.589">
  <property name="length">43025</property>
  <property name="eof">pause</property>
  <property name="resource">/home/redxherring/Videos/Monster/WAV/Monster 73 - Scenery for a Doomsday [Eng Dub &amp; HD] - YouTubeR.wav</property>
  <property name="meta.media.nb_streams">1</property>
  <property name="meta.media.0.stream.type">audio</property>
  <property name="meta.media.0.codec.sample_fmt">s16</property>
  <property name="meta.media.0.codec.sample_rate">48000</property>
  <property name="meta.media.0.codec.channels">1</property>
  <property name="meta.media.0.codec.name">pcm_s16le</property>
  <property name="meta.media.0.codec.long_name">PCM signed 16-bit little-endian</property>
  <property name="meta.media.0.codec.bit_rate">768000</property>
  <property name="meta.attr.encoder.markup">Lavf58.76.100</property>
  <property name="seekable">1</property>
  <property name="audio_index">0</property>
  <property name="video_index">-1</property>
  <property name="mute_on_pause">1</property>
  <property name="mlt_service">avformat</property>
  <property name="kdenlive:clipname"/>
  <property name="kdenlive:folderid">-1</property>
  <property name="kdenlive:id">20</property>
  <property name="kdenlive:file_size">137818498</property>
  <property name="kdenlive:file_hash">727f0b2dc2e0891f8d3d51a87a87c2d7</property>
  <property name="kdenlive:audio_max0">204</property>
 </producer>
 <producer id="producer19" in="00:00:00.000" out="00:23:39.006">
  <property name="length">42528</property>
  <property name="eof">pause</property>
  <property name="resource">/home/redxherring/Videos/Monster/WAV/Monster 74 - The Real Monster [Eng Dub &amp; HD] - YouTubeL.wav</property>
  <property name="meta.media.nb_streams">1</property>
  <property name="meta.media.0.stream.type">audio</property>
  <property name="meta.media.0.codec.sample_fmt">s16</property>
  <property name="meta.media.0.codec.sample_rate">48000</property>
  <property name="meta.media.0.codec.channels">1</property>
  <property name="meta.media.0.codec.name">pcm_s16le</property>
  <property name="meta.media.0.codec.long_name">PCM signed 16-bit little-endian</property>
  <property name="meta.media.0.codec.bit_rate">768000</property>
  <property name="meta.attr.encoder.markup">Lavf58.76.100</property>
  <property name="seekable">1</property>
  <property name="audio_index">0</property>
  <property name="video_index">-1</property>
  <property name="mute_on_pause">1</property>
  <property name="mlt_service">avformat</property>
  <property name="kdenlive:clipname"/>
  <property name="kdenlive:folderid">-1</property>
  <property name="kdenlive:id">21</property>
  <property name="kdenlive:file_size">136225794</property>
  <property name="kdenlive:file_hash">a8f0a260471305c7809479867c6ed70b</property>
  <property name="kdenlive:audio_max0">215</property>
 </producer>
 <producer id="producer20" in="00:00:00.000" out="00:23:39.006">
  <property name="length">42528</property>
  <property name="eof">pause</property>
  <property name="resource">/home/redxherring/Videos/Monster/WAV/Monster 74 - The Real Monster [Eng Dub &amp; HD] - YouTubeR.wav</property>
  <property name="meta.media.nb_streams">1</property>
  <property name="meta.media.0.stream.type">audio</property>
  <property name="meta.media.0.codec.sample_fmt">s16</property>
  <property name="meta.media.0.codec.sample_rate">48000</property>
  <property name="meta.media.0.codec.channels">1</property>
  <property name="meta.media.0.codec.name">pcm_s16le</property>
  <property name="meta.media.0.codec.long_name">PCM signed 16-bit little-endian</property>
  <property name="meta.media.0.codec.bit_rate">768000</property>
  <property name="meta.attr.encoder.markup">Lavf58.76.100</property>
  <property name="seekable">1</property>
  <property name="audio_index">0</property>
  <property name="video_index">-1</property>
  <property name="mute_on_pause">1</property>
  <property name="mlt_service">avformat</property>
  <property name="kdenlive:clipname"/>
  <property name="kdenlive:folderid">-1</property>
  <property name="kdenlive:id">22</property>
  <property name="kdenlive:file_size">136225794</property>
  <property name="kdenlive:file_hash">fdee703cbdaae759c383245f72e27101</property>
  <property name="kdenlive:audio_max0">226</property>
 </producer>
 <playlist id="main_bin">
  <property name="kdenlive:docproperties.activeTrack">3</property>
  <property name="kdenlive:docproperties.audioChannels">2</property>
  <property name="kdenlive:docproperties.audioTarget">-1</property>
  <property name="kdenlive:docproperties.disablepreview">0</property>
  <property name="kdenlive:docproperties.documentid">1644163095266</property>
  <property name="kdenlive:docproperties.enableTimelineZone">0</property>
  <property name="kdenlive:docproperties.enableexternalproxy">0</property>
  <property name="kdenlive:docproperties.enableproxy">0</property>
  <property name="kdenlive:docproperties.externalproxyparams"/>
  <property name="kdenlive:docproperties.generateimageproxy">0</property>
  <property name="kdenlive:docproperties.generateproxy">0</property>
  <property name="kdenlive:docproperties.groups">[
    {
        "children": [
            {
                "children": [
                    {
                        "data": "2:171210",
                        "leaf": "clip",
                        "type": "Leaf"
                    },
                    {
                        "data": "3:171210",
                        "leaf": "clip",
                        "type": "Leaf"
                    }
                ],
                "type": "Normal"
            },
            {
                "data": "4:171210",
                "leaf": "clip",
                "type": "Leaf"
            }
        ],
        "type": "Normal"
    },
    {
        "children": [
            {
                "children": [
                    {
                        "children": [
                            {
                                "data": "4:7914",
                                "leaf": "clip",
                                "type": "Leaf"
                            },
                            {
                                "children": [
                                    {
                                        "data": "2:7914",
                                        "leaf": "clip",
                                        "type": "Leaf"
                                    },
                                    {
                                        "data": "3:7914",
                                        "leaf": "clip",
                                        "type": "Leaf"
                                    }
                                ],
                                "type": "Normal"
                            }
                        ],
                        "type": "Normal"
                    },
                    {
                        "children": [
                            {
                                "children": [
                                    {
                                        "data": "4:7752",
                                        "leaf": "clip",
                                        "type": "Leaf"
                                    },
                                    {
                                        "children": [
                                            {
                                                "data": "2:7752",
                                                "leaf": "clip",
                                                "type": "Leaf"
                                            },
                                            {
                                                "data": "3:7752",
                                                "leaf": "clip",
                                                "type": "Leaf"
                                            }
                                        ],
                                        "type": "Normal"
                                    }
                                ],
                                "type": "Normal"
                            },
                            {
                                "children": [
                                    {
                                        "data": "4:7763",
                                        "leaf": "clip",
                                        "type": "Leaf"
                                    },
                                    {
                                        "children": [
                                            {
                                                "data": "2:7763",
                                                "leaf": "clip",
                                                "type": "Leaf"
                                            },
                                            {
                                                "data": "3:7763",
                                                "leaf": "clip",
                                                "type": "Leaf"
                                            }
                                        ],
                                        "type": "Normal"
                                    }
                                ],
                                "type": "Normal"
                            },
                            {
                                "children": [
                                    {
                                        "children": [
                                            {
                                                "data": "4:7304",
                                                "leaf": "clip",
                                                "type": "Leaf"
                                            },
                                            {
                                                "children": [
                                                    {
                                                        "data": "3:7304",
                                                        "leaf": "clip",
                                                        "type": "Leaf"
                                                    },
                                                    {
                                                        "data": "2:7304",
                                                        "leaf": "clip",
                                                        "type": "Leaf"
                                                    }
                                                ],
                                                "type": "Normal"
                                            }
                                        ],
                                        "type": "Normal"
                                    },
                                    {
                                        "children": [
                                            {
                                                "data": "4:0",
                                                "leaf": "clip",
                                                "type": "Leaf"
                                            },
                                            {
                                                "children": [
                                                    {
                                                        "data": "3:0",
                                                        "leaf": "clip",
                                                        "type": "Leaf"
                                                    },
                                                    {
                                                        "data": "2:0",
                                                        "leaf": "clip",
                                                        "type": "Leaf"
                                                    }
                                                ],
                                                "type": "Normal"
                                            }
                                        ],
                                        "type": "Normal"
                                    }
                                ],
                                "type": "Normal"
                            }
                        ],
                        "type": "Normal"
                    },
                    {
                        "children": [
                            {
                                "data": "4:39130",
                                "leaf": "clip",
                                "type": "Leaf"
                            },
                            {
                                "children": [
                                    {
                                        "data": "4:8033",
                                        "leaf": "clip",
                                        "type": "Leaf"
                                    },
                                    {
                                        "children": [
                                            {
                                                "data": "2:8033",
                                                "leaf": "clip",
                                                "type": "Leaf"
                                            },
                                            {
                                                "data": "3:8033",
                                                "leaf": "clip",
                                                "type": "Leaf"
                                            }
                                        ],
                                        "type": "Normal"
                                    }
                                ],
                                "type": "Normal"
                            },
                            {
                                "children": [
                                    {
                                        "children": [
                                            {
                                                "data": "4:39170",
                                                "leaf": "clip",
                                                "type": "Leaf"
                                            },
                                            {
                                                "children": [
                                                    {
                                                        "data": "2:39170",
                                                        "leaf": "clip",
                                                        "type": "Leaf"
                                                    },
                                                    {
                                                        "data": "3:39170",
                                                        "leaf": "clip",
                                                        "type": "Leaf"
                                                    }
                                                ],
                                                "type": "Normal"
                                            }
                                        ],
                                        "type": "Normal"
                                    },
                                    {
                                        "children": [
                                            {
                                                "data": "4:39518",
                                                "leaf": "clip",
                                                "type": "Leaf"
                                            },
                                            {
                                                "children": [
                                                    {
                                                        "data": "2:39518",
                                                        "leaf": "clip",
                                                        "type": "Leaf"
                                                    },
                                                    {
                                                        "data": "3:39518",
                                                        "leaf": "clip",
                                                        "type": "Leaf"
                                                    }
                                                ],
                                                "type": "Normal"
                                            }
                                        ],
                                        "type": "Normal"
                                    },
                                    {
                                        "children": [
                                            {
                                                "data": "4:42158",
                                                "leaf": "clip",
                                                "type": "Leaf"
                                            },
                                            {
                                                "children": [
                                                    {
                                                        "data": "3:42158",
                                                        "leaf": "clip",
                                                        "type": "Leaf"
                                                    },
                                                    {
                                                        "data": "2:42158",
                                                        "leaf": "clip",
                                                        "type": "Leaf"
                                                    }
                                                ],
                                                "type": "Normal"
                                            }
                                        ],
                                        "type": "Normal"
                                    }
                                ],
                                "type": "Normal"
                            },
                            {
                                "children": [
                                    {
                                        "data": "3:39130",
                                        "leaf": "clip",
                                        "type": "Leaf"
                                    },
                                    {
                                        "data": "2:39130",
                                        "leaf": "clip",
                                        "type": "Leaf"
                                    }
                                ],
                                "type": "Normal"
                            }
                        ],
                        "type": "Normal"
                    }
                ],
                "type": "Normal"
            },
            {
                "children": [
                    {
                        "children": [
                            {
                                "data": "3:59124",
                                "leaf": "clip",
                                "type": "Leaf"
                            },
                            {
                                "data": "2:59124",
                                "leaf": "clip",
                                "type": "Leaf"
                            }
                        ],
                        "type": "Normal"
                    },
                    {
                        "data": "4:59124",
                        "leaf": "clip",
                        "type": "Leaf"
                    }
                ],
                "type": "Normal"
            },
            {
                "children": [
                    {
                        "data": "1:59108",
                        "leaf": "clip",
                        "type": "Leaf"
                    },
                    {
                        "data": "0:59108",
                        "leaf": "clip",
                        "type": "Leaf"
                    }
                ],
                "type": "Normal"
            },
            {
                "data": "4:59114",
                "leaf": "clip",
                "type": "Leaf"
            }
        ],
        "type": "Normal"
    },
    {
        "children": [
            {
                "children": [
                    {
                        "children": [
                            {
                                "children": [
                                    {
                                        "data": "2:78028",
                                        "leaf": "clip",
                                        "type": "Leaf"
                                    },
                                    {
                                        "data": "3:78028",
                                        "leaf": "clip",
                                        "type": "Leaf"
                                    }
                                ],
                                "type": "Normal"
                            },
                            {
                                "data": "4:78028",
                                "leaf": "clip",
                                "type": "Leaf"
                            }
                        ],
                        "type": "Normal"
                    },
                    {
                        "children": [
                            {
                                "data": "0:77835",
                                "leaf": "clip",
                                "type": "Leaf"
                            },
                            {
                                "data": "1:77835",
                                "leaf": "clip",
                                "type": "Leaf"
                            }
                        ],
                        "type": "Normal"
                    },
                    {
                        "children": [
                            {
                                "children": [
                                    {
                                        "children": [
                                            {
                                                "data": "2:76915",
                                                "leaf": "clip",
                                                "type": "Leaf"
                                            },
                                            {
                                                "data": "3:76915",
                                                "leaf": "clip",
                                                "type": "Leaf"
                                            }
                                        ],
                                        "type": "Normal"
                                    },
                                    {
                                        "data": "4:76915",
                                        "leaf": "clip",
                                        "type": "Leaf"
                                    }
                                ],
                                "type": "Normal"
                            },
                            {
                                "children": [
                                    {
                                        "data": "4:76134",
                                        "leaf": "clip",
                                        "type": "Leaf"
                                    },
                                    {
                                        "data": "4:76159",
                                        "leaf": "clip",
                                        "type": "Leaf"
                                    },
                                    {
                                        "children": [
                                            {
                                                "data": "3:76178",
                                                "leaf": "clip",
                                                "type": "Leaf"
                                            },
                                            {
                                                "data": "2:76178",
                                                "leaf": "clip",
                                                "type": "Leaf"
                                            }
                                        ],
                                        "type": "Normal"
                                    },
                                    {
                                        "data": "4:76169",
                                        "leaf": "clip",
                                        "type": "Leaf"
                                    },
                                    {
                                        "children": [
                                            {
                                                "data": "0:76142",
                                                "leaf": "clip",
                                                "type": "Leaf"
                                            },
                                            {
                                                "data": "1:76142",
                                                "leaf": "clip",
                                                "type": "Leaf"
                                            }
                                        ],
                                        "type": "Normal"
                                    },
                                    {
                                        "children": [
                                            {
                                                "data": "3:76134",
                                                "leaf": "clip",
                                                "type": "Leaf"
                                            },
                                            {
                                                "data": "2:76134",
                                                "leaf": "clip",
                                                "type": "Leaf"
                                            }
                                        ],
                                        "type": "Normal"
                                    },
                                    {
                                        "data": "4:76186",
                                        "leaf": "clip",
                                        "type": "Leaf"
                                    }
                                ],
                                "type": "Normal"
                            }
                        ],
                        "type": "Normal"
                    },
                    {
                        "data": "5:77856",
                        "leaf": "clip",
                        "type": "Leaf"
                    },
                    {
                        "children": [
                            {
                                "children": [
                                    {
                                        "data": "0:78012",
                                        "leaf": "clip",
                                        "type": "Leaf"
                                    },
                                    {
                                        "data": "1:78012",
                                        "leaf": "clip",
                                        "type": "Leaf"
                                    }
                                ],
                                "type": "Normal"
                            },
                            {
                                "data": "4:78012",
                                "leaf": "clip",
                                "type": "Leaf"
                            }
                        ],
                        "type": "Normal"
                    }
                ],
                "type": "Normal"
            },
            {
                "children": [
                    {
                        "children": [
                            {
                                "data": "1:244666",
                                "leaf": "clip",
                                "type": "Leaf"
                            },
                            {
                                "data": "0:244666",
                                "leaf": "clip",
                                "type": "Leaf"
                            }
                        ],
                        "type": "Normal"
                    },
                    {
                        "data": "4:244696",
                        "leaf": "clip",
                        "type": "Leaf"
                    },
                    {
                        "children": [
                            {
                                "data": "4:244781",
                                "leaf": "clip",
                                "type": "Leaf"
                            },
                            {
                                "children": [
                                    {
                                        "data": "3:244781",
                                        "leaf": "clip",
                                        "type": "Leaf"
                                    },
                                    {
                                        "data": "2:244781",
                                        "leaf": "clip",
                                        "type": "Leaf"
                                    }
                                ],
                                "type": "Normal"
                            }
                        ],
                        "type": "Normal"
                    },
                    {
                        "children": [
                            {
                                "data": "3:244696",
                                "leaf": "clip",
                                "type": "Leaf"
                            },
                            {
                                "data": "2:244696",
                                "leaf": "clip",
                                "type": "Leaf"
                            }
                        ],
                        "type": "Normal"
                    },
                    {
                        "children": [
                            {
                                "children": [
                                    {
                                        "children": [
                                            {
                                                "data": "4:155803",
                                                "leaf": "clip",
                                                "type": "Leaf"
                                            },
                                            {
                                                "children": [
                                                    {
                                                        "data": "3:155708",
                                                        "leaf": "clip",
                                                        "type": "Leaf"
                                                    },
                                                    {
                                                        "data": "2:155708",
                                                        "leaf": "clip",
                                                        "type": "Leaf"
                                                    }
                                                ],
                                                "type": "Normal"
                                            },
                                            {
                                                "children": [
                                                    {
                                                        "data": "4:155891",
                                                        "leaf": "clip",
                                                        "type": "Leaf"
                                                    },
                                                    {
                                                        "children": [
                                                            {
                                                                "data": "3:155891",
                                                                "leaf": "clip",
                                                                "type": "Leaf"
                                                            },
                                                            {
                                                                "data": "2:155891",
                                                                "leaf": "clip",
                                                                "type": "Leaf"
                                                            }
                                                        ],
                                                        "type": "Normal"
                                                    }
                                                ],
                                                "type": "Normal"
                                            },
                                            {
                                                "children": [
                                                    {
                                                        "data": "0:155795",
                                                        "leaf": "clip",
                                                        "type": "Leaf"
                                                    },
                                                    {
                                                        "data": "1:155795",
                                                        "leaf": "clip",
                                                        "type": "Leaf"
                                                    }
                                                ],
                                                "type": "Normal"
                                            },
                                            {
                                                "data": "4:155708",
                                                "leaf": "clip",
                                                "type": "Leaf"
                                            },
                                            {
                                                "children": [
                                                    {
                                                        "children": [
                                                            {
                                                                "data": "4:98906",
                                                                "leaf": "clip",
                                                                "type": "Leaf"
                                                            },
                                                            {
                                                                "children": [
                                                                    {
                                                                        "data": "2:98906",
                                                                        "leaf": "clip",
                                                                        "type": "Leaf"
                                                                    },
                                                                    {
                                                                        "data": "3:98906",
                                                                        "leaf": "clip",
                                                                        "type": "Leaf"
                                                                    }
                                                                ],
                                                                "type": "Normal"
                                                            }
                                                        ],
                                                        "type": "Normal"
                                                    },
                                                    {
                                                        "children": [
                                                            {
                                                                "data": "4:114628",
                                                                "leaf": "clip",
                                                                "type": "Leaf"
                                                            },
                                                            {
                                                                "children": [
                                                                    {
                                                                        "data": "2:114628",
                                                                        "leaf": "clip",
                                                                        "type": "Leaf"
                                                                    },
                                                                    {
                                                                        "data": "3:114628",
                                                                        "leaf": "clip",
                                                                        "type": "Leaf"
                                                                    }
                                                                ],
                                                                "type": "Normal"
                                                            }
                                                        ],
                                                        "type": "Normal"
                                                    },
                                                    {
                                                        "children": [
                                                            {
                                                                "data": "4:117382",
                                                                "leaf": "clip",
                                                                "type": "Leaf"
                                                            },
                                                            {
                                                                "children": [
                                                                    {
                                                                        "data": "2:117382",
                                                                        "leaf": "clip",
                                                                        "type": "Leaf"
                                                                    },
                                                                    {
                                                                        "data": "3:117382",
                                                                        "leaf": "clip",
                                                                        "type": "Leaf"
                                                                    }
                                                                ],
                                                                "type": "Normal"
                                                            }
                                                        ],
                                                        "type": "Normal"
                                                    },
                                                    {
                                                        "children": [
                                                            {
                                                                "data": "4:152399",
                                                                "leaf": "clip",
                                                                "type": "Leaf"
                                                            },
                                                            {
                                                                "children": [
                                                                    {
                                                                        "data": "2:152399",
                                                                        "leaf": "clip",
                                                                        "type": "Leaf"
                                                                    },
                                                                    {
                                                                        "data": "3:152399",
                                                                        "leaf": "clip",
                                                                        "type": "Leaf"
                                                                    }
                                                                ],
                                                                "type": "Normal"
                                                            }
                                                        ],
                                                        "type": "Normal"
                                                    }
                                                ],
                                                "type": "Normal"
                                            }
                                        ],
                                        "type": "Normal"
                                    },
                                    {
                                        "children": [
                                            {
                                                "data": "4:171217",
                                                "leaf": "clip",
                                                "type": "Leaf"
                                            },
                                            {
                                                "children": [
                                                    {
                                                        "data": "3:171217",
                                                        "leaf": "clip",
                                                        "type": "Leaf"
                                                    },
                                                    {
                                                        "data": "2:171217",
                                                        "leaf": "clip",
                                                        "type": "Leaf"
                                                    }
                                                ],
                                                "type": "Normal"
                                            }
                                        ],
                                        "type": "Normal"
                                    }
                                ],
                                "type": "Normal"
                            },
                            {
                                "children": [
                                    {
                                        "children": [
                                            {
                                                "children": [
                                                    {
                                                        "children": [
                                                            {
                                                                "data": "3:227908",
                                                                "leaf": "clip",
                                                                "type": "Leaf"
                                                            },
                                                            {
                                                                "data": "2:227908",
                                                                "leaf": "clip",
                                                                "type": "Leaf"
                                                            }
                                                        ],
                                                        "type": "Normal"
                                                    },
                                                    {
                                                        "data": "4:227908",
                                                        "leaf": "clip",
                                                        "type": "Leaf"
                                                    }
                                                ],
                                                "type": "Normal"
                                            },
                                            {
                                                "children": [
                                                    {
                                                        "children": [
                                                            {
                                                                "data": "2:194834",
                                                                "leaf": "clip",
                                                                "type": "Leaf"
                                                            },
                                                            {
                                                                "data": "3:194834",
                                                                "leaf": "clip",
                                                                "type": "Leaf"
                                                            }
                                                        ],
                                                        "type": "Normal"
                                                    },
                                                    {
                                                        "data": "4:194834",
                                                        "leaf": "clip",
                                                        "type": "Leaf"
                                                    }
                                                ],
                                                "type": "Normal"
                                            },
                                            {
                                                "children": [
                                                    {
                                                        "data": "4:226434",
                                                        "leaf": "clip",
                                                        "type": "Leaf"
                                                    },
                                                    {
                                                        "children": [
                                                            {
                                                                "data": "2:226434",
                                                                "leaf": "clip",
                                                                "type": "Leaf"
                                                            },
                                                            {
                                                                "data": "3:226434",
                                                                "leaf": "clip",
                                                                "type": "Leaf"
                                                            }
                                                        ],
                                                        "type": "Normal"
                                                    }
                                                ],
                                                "type": "Normal"
                                            }
                                        ],
                                        "type": "Normal"
                                    },
                                    {
                                        "children": [
                                            {
                                                "children": [
                                                    {
                                                        "data": "3:189470",
                                                        "leaf": "clip",
                                                        "type": "Leaf"
                                                    },
                                                    {
                                                        "data": "2:189470",
                                                        "leaf": "clip",
                                                        "type": "Leaf"
                                                    }
                                                ],
                                                "type": "Normal"
                                            },
                                            {
                                                "data": "4:189470",
                                                "leaf": "clip",
                                                "type": "Leaf"
                                            }
                                        ],
                                        "type": "Normal"
                                    }
                                ],
                                "type": "Normal"
                            },
                            {
                                "children": [
                                    {
                                        "data": "1:188950",
                                        "leaf": "clip",
                                        "type": "Leaf"
                                    },
                                    {
                                        "data": "0:188950",
                                        "leaf": "clip",
                                        "type": "Leaf"
                                    }
                                ],
                                "type": "Normal"
                            },
                            {
                                "data": "4:188950",
                                "leaf": "clip",
                                "type": "Leaf"
                            }
                        ],
                        "type": "Normal"
                    }
                ],
                "type": "Normal"
            }
        ],
        "type": "Normal"
    }
]
</property>
  <property name="kdenlive:docproperties.kdenliveversion">21.12.2</property>
  <property name="kdenlive:docproperties.position">265179</property>
  <property name="kdenlive:docproperties.previewextension"/>
  <property name="kdenlive:docproperties.previewparameters"/>
  <property name="kdenlive:docproperties.profile">/home/redxherring/.local/share/kdenlive/profiles/customprofile1</property>
  <property name="kdenlive:docproperties.proxyextension"/>
  <property name="kdenlive:docproperties.proxyimageminsize">2000</property>
  <property name="kdenlive:docproperties.proxyimagesize">800</property>
  <property name="kdenlive:docproperties.proxyminsize">1000</property>
  <property name="kdenlive:docproperties.proxyparams"/>
  <property name="kdenlive:docproperties.proxyresize">640</property>
  <property name="kdenlive:docproperties.renderaudioquality">80</property>
  <property name="kdenlive:docproperties.rendercategory">Generic (HD for web, mobile devices...)</property>
  <property name="kdenlive:docproperties.renderendguide">-1</property>
  <property name="kdenlive:docproperties.renderexportaudio">0</property>
  <property name="kdenlive:docproperties.renderfield">0</property>
  <property name="kdenlive:docproperties.renderguide">0</property>
  <property name="kdenlive:docproperties.renderplay">0</property>
  <property name="kdenlive:docproperties.renderprofile">MP4-H264/AAC</property>
  <property name="kdenlive:docproperties.renderquality">24</property>
  <property name="kdenlive:docproperties.renderratio">1</property>
  <property name="kdenlive:docproperties.renderrescale">0</property>
  <property name="kdenlive:docproperties.renderrescaleheight">360</property>
  <property name="kdenlive:docproperties.renderrescalewidth">480</property>
  <property name="kdenlive:docproperties.renderscanning">0</property>
  <property name="kdenlive:docproperties.renderspeed">2</property>
  <property name="kdenlive:docproperties.renderstartguide">-1</property>
  <property name="kdenlive:docproperties.rendertcoverlay">0</property>
  <property name="kdenlive:docproperties.rendertctype">0</property>
  <property name="kdenlive:docproperties.rendertwopass">0</property>
  <property name="kdenlive:docproperties.renderurl">/home/redxherring/Videos/Monster/Output/ep68-74.mp4</property>
  <property name="kdenlive:docproperties.renderzone">0</property>
  <property name="kdenlive:docproperties.scrollPos">16439403</property>
  <property name="kdenlive:docproperties.seekOffset">30000</property>
  <property name="kdenlive:docproperties.version">1.04</property>
  <property name="kdenlive:docproperties.verticalzoom">1</property>
  <property name="kdenlive:docproperties.videoTarget">-1</property>
  <property name="kdenlive:docproperties.zonein">0</property>
  <property name="kdenlive:docproperties.zoneout">265180</property>
  <property name="kdenlive:docproperties.zoom">0</property>
  <property name="kdenlive:expandedFolders"/>
  <property name="kdenlive:documentnotes"/>
  <property name="xml_retain">1</property>
  <entry producer="producer0" in="00:00:00.000" out="00:23:55.589"/>
  <entry producer="producer1" in="00:00:00.000" out="00:23:55.589"/>
  <entry producer="producer2" in="00:00:00.000" out="00:23:55.589"/>
  <entry producer="producer3" in="00:00:00.000" out="00:23:55.589"/>
  <entry producer="producer4" in="00:00:00.000" out="00:23:55.455"/>
  <entry producer="producer5" in="00:00:00.000" out="00:23:55.589"/>
  <entry producer="producer6" in="00:00:00.000" out="00:23:39.006"/>
  <entry producer="producer7" in="00:00:00.000" out="00:23:55.589"/>
  <entry producer="producer8" in="00:00:00.000" out="00:23:55.589"/>
  <entry producer="producer9" in="00:00:00.000" out="00:23:55.589"/>
  <entry producer="producer10" in="00:00:00.000" out="00:23:55.589"/>
  <entry producer="producer11" in="00:00:00.000" out="00:23:55.622"/>
  <entry producer="producer12" in="00:00:00.000" out="00:23:55.622"/>
  <entry producer="producer13" in="00:00:00.000" out="00:23:55.589"/>
  <entry producer="producer14" in="00:00:00.000" out="00:23:55.589"/>
  <entry producer="producer15" in="00:00:00.000" out="00:23:55.455"/>
  <entry producer="producer16" in="00:00:00.000" out="00:23:55.455"/>
  <entry producer="producer17" in="00:00:00.000" out="00:23:55.589"/>
  <entry producer="producer18" in="00:00:00.000" out="00:23:55.589"/>
  <entry producer="producer19" in="00:00:00.000" out="00:23:39.006"/>
  <entry producer="producer20" in="00:00:00.000" out="00:23:39.006"/>
 </playlist>
 <producer id="black_track" in="00:00:00.000" out="02:44:09.209">
  <property name="length">2147483647</property>
  <property name="eof">continue</property>
  <property name="resource">black</property>
  <property name="aspect_ratio">1</property>
  <property name="mlt_service">color</property>
  <property name="mlt_image_format">rgba</property>
  <property name="set.test_audio">0</property>
 </producer>
 <producer id="producer21" in="00:00:00.000" out="00:23:55.589">
  <property name="length">43025</property>
  <property name="eof">pause</property>
  <property name="resource">/home/redxherring/Videos/Monster/WAV/Monster 69 - The Peaceful House [Eng Dub &amp; HD] - YouTubeR.wav</property>
  <property name="meta.media.nb_streams">1</property>
  <property name="meta.media.0.stream.type">audio</property>
  <property name="meta.media.0.codec.sample_fmt">s16</property>
  <property name="meta.media.0.codec.sample_rate">48000</property>
  <property name="meta.media.0.codec.channels">1</property>
  <property name="meta.media.0.codec.name">pcm_s16le</property>
  <property name="meta.media.0.codec.long_name">PCM signed 16-bit little-endian</property>
  <property name="meta.media.0.codec.bit_rate">768000</property>
  <property name="meta.attr.encoder.markup">Lavf58.76.100</property>
  <property name="seekable">1</property>
  <property name="audio_index">0</property>
  <property name="video_index">-1</property>
  <property name="mute_on_pause">0</property>
  <property name="mlt_service">avformat-novalidate</property>
  <property name="kdenlive:clipname"/>
  <property name="kdenlive:folderid">-1</property>
  <property name="kdenlive:id">12</property>
  <property name="kdenlive:file_size">137818498</property>
  <property name="kdenlive:file_hash">3d6a464df8e73a92e8b1dbd91cfb83da</property>
  <property name="kdenlive:audio_max0">230</property>
  <property name="xml">was here</property>
  <property name="set.test_audio">0</property>
  <property name="set.test_image">1</property>
 </producer>
 <producer id="producer22" in="00:00:00.000" out="00:23:55.622">
  <property name="length">43026</property>
  <property name="eof">pause</property>
  <property name="resource">/home/redxherring/Videos/Monster/WAV/Monster 70 - The Town Massacre [Eng Dub &amp; HD] - YouTubeR.wav</property>
  <property name="meta.media.nb_streams">1</property>
  <property name="meta.media.0.stream.type">audio</property>
  <property name="meta.media.0.codec.sample_fmt">s16</property>
  <property name="meta.media.0.codec.sample_rate">48000</property>
  <property name="meta.media.0.codec.channels">1</property>
  <property name="meta.media.0.codec.name">pcm_s16le</property>
  <property name="meta.media.0.codec.long_name">PCM signed 16-bit little-endian</property>
  <property name="meta.media.0.codec.bit_rate">768000</property>
  <property name="meta.attr.encoder.markup">Lavf58.76.100</property>
  <property name="seekable">1</property>
  <property name="audio_index">0</property>
  <property name="video_index">-1</property>
  <property name="mute_on_pause">0</property>
  <property name="mlt_service">avformat-novalidate</property>
  <property name="kdenlive:clipname"/>
  <property name="kdenlive:folderid">-1</property>
  <property name="kdenlive:id">14</property>
  <property name="kdenlive:file_size">137821842</property>
  <property name="kdenlive:file_hash">140f2ca5d89d3ea0813510a6426236c2</property>
  <property name="kdenlive:audio_max0">208</property>
  <property name="xml">was here</property>
  <property name="set.test_audio">0</property>
  <property name="set.test_image">1</property>
 </producer>
 <producer id="producer23" in="00:00:00.000" out="00:23:55.455">
  <property name="length">43021</property>
  <property name="eof">pause</property>
  <property name="resource">/home/redxherring/Videos/Monster/WAV/Monster 72 - A Nameless Man [Eng Dub &amp; HD] - YouTubeR.wav</property>
  <property name="audio_index">0</property>
  <property name="video_index">-1</property>
  <property name="mute_on_pause">0</property>
  <property name="mlt_service">avformat-novalidate</property>
  <property name="meta.media.nb_streams">1</property>
  <property name="meta.media.0.stream.type">audio</property>
  <property name="meta.media.0.codec.sample_fmt">s16</property>
  <property name="meta.media.0.codec.sample_rate">48000</property>
  <property name="meta.media.0.codec.channels">1</property>
  <property name="meta.media.0.codec.name">pcm_s16le</property>
  <property name="meta.media.0.codec.long_name">PCM signed 16-bit little-endian</property>
  <property name="meta.media.0.codec.bit_rate">768000</property>
  <property name="meta.attr.encoder.markup">Lavf58.76.100</property>
  <property name="seekable">1</property>
  <property name="kdenlive:clipname"/>
  <property name="kdenlive:folderid">-1</property>
  <property name="kdenlive:id">18</property>
  <property name="kdenlive:file_size">137805122</property>
  <property name="kdenlive:file_hash">45bf5415072570b28545e0af81103f28</property>
  <property name="kdenlive:audio_max0">223</property>
  <property name="xml">was here</property>
  <property name="set.test_audio">0</property>
  <property name="set.test_image">1</property>
 </producer>
 <producer id="producer24" in="00:00:00.000" out="00:23:39.006">
  <property name="length">42528</property>
  <property name="eof">pause</property>
  <property name="resource">/home/redxherring/Videos/Monster/WAV/Monster 74 - The Real Monster [Eng Dub &amp; HD] - YouTubeR.wav</property>
  <property name="meta.media.nb_streams">1</property>
  <property name="meta.media.0.stream.type">audio</property>
  <property name="meta.media.0.codec.sample_fmt">s16</property>
  <property name="meta.media.0.codec.sample_rate">48000</property>
  <property name="meta.media.0.codec.channels">1</property>
  <property name="meta.media.0.codec.name">pcm_s16le</property>
  <property name="meta.media.0.codec.long_name">PCM signed 16-bit little-endian</property>
  <property name="meta.media.0.codec.bit_rate">768000</property>
  <property name="meta.attr.encoder.markup">Lavf58.76.100</property>
  <property name="seekable">1</property>
  <property name="audio_index">0</property>
  <property name="video_index">-1</property>
  <property name="mute_on_pause">0</property>
  <property name="mlt_service">avformat-novalidate</property>
  <property name="kdenlive:clipname"/>
  <property name="kdenlive:folderid">-1</property>
  <property name="kdenlive:id">22</property>
  <property name="kdenlive:file_size">136225794</property>
  <property name="kdenlive:file_hash">fdee703cbdaae759c383245f72e27101</property>
  <property name="kdenlive:audio_max0">226</property>
  <property name="xml">was here</property>
  <property name="set.test_audio">0</property>
  <property name="set.test_image">1</property>
 </producer>
 <playlist id="playlist0">
  <property name="kdenlive:audio_track">1</property>
  <blank length="00:32:52.252"/>
  <entry producer="producer21" in="00:12:27.928" out="00:12:28.595">
   <property name="kdenlive:id">12</property>
   <filter id="filter0" in="00:12:27.928" out="00:12:28.228">
    <property name="window">75</property>
    <property name="max_gain">20dB</property>
    <property name="mlt_service">volume</property>
    <property name="kdenlive_id">fadein</property>
    <property name="gain">0</property>
    <property name="end">1</property>
   </filter>
   <filter id="filter1" in="00:12:28.428" out="00:12:28.595">
    <property name="window">75</property>
    <property name="max_gain">20dB</property>
    <property name="mlt_service">volume</property>
    <property name="kdenlive_id">fadeout</property>
    <property name="gain">1</property>
    <property name="end">0</property>
   </filter>
  </entry>
  <blank length="00:09:27.694"/>
  <entry producer="producer21" in="00:21:59.693" out="00:22:02.169">
   <property name="kdenlive:id">12</property>
   <filter id="filter2" in="00:21:59.693" out="00:22:00.267">
    <property name="window">75</property>
    <property name="max_gain">20dB</property>
    <property name="mlt_service">volume</property>
    <property name="kdenlive_id">fadein</property>
    <property name="gain">0</property>
    <property name="end">1</property>
   </filter>
   <filter id="filter3" in="00:22:00.868" out="00:22:02.169">
    <property name="window">75</property>
    <property name="max_gain">20dB</property>
    <property name="mlt_service">volume</property>
    <property name="kdenlive_id">fadeout</property>
    <property name="gain">1</property>
    <property name="end">0</property>
   </filter>
  </entry>
  <blank length="00:00:53.987"/>
  <entry producer="producer22" in="00:01:58.225" out="00:02:04.104">
   <property name="kdenlive:id">14</property>
  </entry>
  <entry producer="producer22" in="00:02:04.137" out="00:02:04.671">
   <property name="kdenlive:id">14</property>
   <filter id="filter4" in="00:02:04.671" out="00:02:04.705">
    <property name="window">75</property>
    <property name="max_gain">20dB</property>
    <property name="mlt_service">volume</property>
    <property name="kdenlive_id">fadeout</property>
    <property name="gain">1</property>
    <property name="end">0</property>
   </filter>
  </entry>
  <blank length="00:43:14.815"/>
  <entry producer="producer23" in="00:01:55.322" out="00:01:58.492">
   <property name="kdenlive:id">18</property>
   <filter id="filter5" in="00:01:55.322" out="00:01:55.589">
    <property name="window">75</property>
    <property name="max_gain">20dB</property>
    <property name="mlt_service">volume</property>
    <property name="kdenlive_id">fadein</property>
    <property name="gain">0</property>
    <property name="end">1</property>
    <property name="kdenlive:collapsed">0</property>
   </filter>
  </entry>
  <blank length="00:18:23.090"/>
  <entry producer="producer23" in="00:22:08.508" out="00:22:26.493">
   <property name="kdenlive:id">18</property>
   <filter id="filter6" in="00:22:25.058" out="00:22:26.493">
    <property name="window">75</property>
    <property name="max_gain">20dB</property>
    <property name="mlt_service">volume</property>
    <property name="kdenlive_id">fadeout</property>
    <property name="gain">1</property>
    <property name="end">0</property>
   </filter>
  </entry>
  <blank length="00:30:41.041"/>
  <entry producer="producer24" in="00:12:14.047" out="00:12:18.685">
   <property name="kdenlive:id">22</property>
   <filter id="filter7" in="00:12:14.047" out="00:12:15.215">
    <property name="window">75</property>
    <property name="max_gain">20dB</property>
    <property name="mlt_service">volume</property>
    <property name="kdenlive_id">fadein</property>
    <property name="gain">0</property>
    <property name="end">1</property>
    <property name="kdenlive:collapsed">0</property>
   </filter>
  </entry>
 </playlist>
 <playlist id="playlist1">
  <property name="kdenlive:audio_track">1</property>
 </playlist>
 <tractor id="tractor0" in="00:00:00.000" out="02:16:08.342">
  <property name="kdenlive:audio_track">1</property>
  <property name="kdenlive:trackheight">67</property>
  <property name="kdenlive:timeline_active">1</property>
  <property name="kdenlive:collapsed">0</property>
  <property name="kdenlive:thumbs_format"/>
  <property name="kdenlive:audio_rec"/>
  <track hide="video" producer="playlist0"/>
  <track hide="video" producer="playlist1"/>
  <filter id="filter8">
   <property name="window">75</property>
   <property name="max_gain">20dB</property>
   <property name="mlt_service">volume</property>
   <property name="internal_added">237</property>
   <property name="disable">1</property>
  </filter>
  <filter id="filter9">
   <property name="channel">-1</property>
   <property name="mlt_service">panner</property>
   <property name="internal_added">237</property>
   <property name="start">1</property>
   <property name="disable">0</property>
  </filter>
  <filter id="filter10">
   <property name="iec_scale">0</property>
   <property name="mlt_service">audiolevel</property>
   <property name="disable">1</property>
  </filter>
 </tractor>
 <producer id="producer25" in="00:00:00.000" out="00:23:55.589">
  <property name="length">43025</property>
  <property name="eof">pause</property>
  <property name="resource">/home/redxherring/Videos/Monster/WAV/Monster 69 - The Peaceful House [Eng Dub &amp; HD] - YouTubeL.wav</property>
  <property name="meta.media.nb_streams">1</property>
  <property name="meta.media.0.stream.type">audio</property>
  <property name="meta.media.0.codec.sample_fmt">s16</property>
  <property name="meta.media.0.codec.sample_rate">48000</property>
  <property name="meta.media.0.codec.channels">1</property>
  <property name="meta.media.0.codec.name">pcm_s16le</property>
  <property name="meta.media.0.codec.long_name">PCM signed 16-bit little-endian</property>
  <property name="meta.media.0.codec.bit_rate">768000</property>
  <property name="meta.attr.encoder.markup">Lavf58.76.100</property>
  <property name="seekable">1</property>
  <property name="audio_index">0</property>
  <property name="video_index">-1</property>
  <property name="mute_on_pause">0</property>
  <property name="mlt_service">avformat-novalidate</property>
  <property name="kdenlive:clipname"/>
  <property name="kdenlive:folderid">-1</property>
  <property name="kdenlive:id">11</property>
  <property name="kdenlive:file_size">137818498</property>
  <property name="kdenlive:file_hash">a52638b3d3a3e708a9614b7cb8f5dc3e</property>
  <property name="kdenlive:audio_max0">230</property>
  <property name="xml">was here</property>
  <property name="set.test_audio">0</property>
  <property name="set.test_image">1</property>
 </producer>
 <producer id="producer26" in="00:00:00.000" out="00:23:55.622">
  <property name="length">43026</property>
  <property name="eof">pause</property>
  <property name="resource">/home/redxherring/Videos/Monster/WAV/Monster 70 - The Town Massacre [Eng Dub &amp; HD] - YouTubeL.wav</property>
  <property name="meta.media.nb_streams">1</property>
  <property name="meta.media.0.stream.type">audio</property>
  <property name="meta.media.0.codec.sample_fmt">s16</property>
  <property name="meta.media.0.codec.sample_rate">48000</property>
  <property name="meta.media.0.codec.channels">1</property>
  <property name="meta.media.0.codec.name">pcm_s16le</property>
  <property name="meta.media.0.codec.long_name">PCM signed 16-bit little-endian</property>
  <property name="meta.media.0.codec.bit_rate">768000</property>
  <property name="meta.attr.encoder.markup">Lavf58.76.100</property>
  <property name="seekable">1</property>
  <property name="audio_index">0</property>
  <property name="video_index">-1</property>
  <property name="mute_on_pause">0</property>
  <property name="mlt_service">avformat-novalidate</property>
  <property name="kdenlive:clipname"/>
  <property name="kdenlive:folderid">-1</property>
  <property name="kdenlive:id">13</property>
  <property name="kdenlive:file_size">137821842</property>
  <property name="kdenlive:file_hash">116e3576fa0a6c1b845c4925d75e76a6</property>
  <property name="kdenlive:audio_max0">204</property>
  <property name="xml">was here</property>
  <property name="set.test_audio">0</property>
  <property name="set.test_image">1</property>
 </producer>
 <producer id="producer27" in="00:00:00.000" out="00:23:55.455">
  <property name="length">43021</property>
  <property name="eof">pause</property>
  <property name="resource">/home/redxherring/Videos/Monster/WAV/Monster 72 - A Nameless Man [Eng Dub &amp; HD] - YouTubeL.wav</property>
  <property name="audio_index">0</property>
  <property name="video_index">-1</property>
  <property name="mute_on_pause">0</property>
  <property name="mlt_service">avformat-novalidate</property>
  <property name="meta.media.nb_streams">1</property>
  <property name="meta.media.0.stream.type">audio</property>
  <property name="meta.media.0.codec.sample_fmt">s16</property>
  <property name="meta.media.0.codec.sample_rate">48000</property>
  <property name="meta.media.0.codec.channels">1</property>
  <property name="meta.media.0.codec.name">pcm_s16le</property>
  <property name="meta.media.0.codec.long_name">PCM signed 16-bit little-endian</property>
  <property name="meta.media.0.codec.bit_rate">768000</property>
  <property name="meta.attr.encoder.markup">Lavf58.76.100</property>
  <property name="seekable">1</property>
  <property name="kdenlive:clipname"/>
  <property name="kdenlive:folderid">-1</property>
  <property name="kdenlive:id">17</property>
  <property name="kdenlive:file_size">137805122</property>
  <property name="kdenlive:file_hash">5a1b3319bf8d3830b3ccdc97417eb47b</property>
  <property name="kdenlive:audio_max0">221</property>
  <property name="xml">was here</property>
  <property name="set.test_audio">0</property>
  <property name="set.test_image">1</property>
 </producer>
 <producer id="producer28" in="00:00:00.000" out="00:23:39.006">
  <property name="length">42528</property>
  <property name="eof">pause</property>
  <property name="resource">/home/redxherring/Videos/Monster/WAV/Monster 74 - The Real Monster [Eng Dub &amp; HD] - YouTubeL.wav</property>
  <property name="meta.media.nb_streams">1</property>
  <property name="meta.media.0.stream.type">audio</property>
  <property name="meta.media.0.codec.sample_fmt">s16</property>
  <property name="meta.media.0.codec.sample_rate">48000</property>
  <property name="meta.media.0.codec.channels">1</property>
  <property name="meta.media.0.codec.name">pcm_s16le</property>
  <property name="meta.media.0.codec.long_name">PCM signed 16-bit little-endian</property>
  <property name="meta.media.0.codec.bit_rate">768000</property>
  <property name="meta.attr.encoder.markup">Lavf58.76.100</property>
  <property name="seekable">1</property>
  <property name="audio_index">0</property>
  <property name="video_index">-1</property>
  <property name="mute_on_pause">0</property>
  <property name="mlt_service">avformat-novalidate</property>
  <property name="kdenlive:clipname"/>
  <property name="kdenlive:folderid">-1</property>
  <property name="kdenlive:id">21</property>
  <property name="kdenlive:file_size">136225794</property>
  <property name="kdenlive:file_hash">a8f0a260471305c7809479867c6ed70b</property>
  <property name="kdenlive:audio_max0">215</property>
  <property name="xml">was here</property>
  <property name="set.test_audio">0</property>
  <property name="set.test_image">1</property>
 </producer>
 <playlist id="playlist2">
  <property name="kdenlive:audio_track">1</property>
  <blank length="00:32:52.252"/>
  <entry producer="producer25" in="00:12:27.928" out="00:12:28.595">
   <property name="kdenlive:id">11</property>
   <filter id="filter11" in="00:12:27.928" out="00:12:28.228">
    <property name="window">75</property>
    <property name="max_gain">20dB</property>
    <property name="mlt_service">volume</property>
    <property name="kdenlive_id">fadein</property>
    <property name="gain">0</property>
    <property name="end">1</property>
    <property name="kdenlive:collapsed">0</property>
   </filter>
   <filter id="filter12" in="00:12:28.428" out="00:12:28.595">
    <property name="window">75</property>
    <property name="max_gain">20dB</property>
    <property name="mlt_service">volume</property>
    <property name="kdenlive_id">fadeout</property>
    <property name="gain">1</property>
    <property name="end">0</property>
    <property name="kdenlive:collapsed">0</property>
   </filter>
  </entry>
  <blank length="00:09:27.694"/>
  <entry producer="producer25" in="00:21:59.693" out="00:22:02.169">
   <property name="kdenlive:id">11</property>
   <filter id="filter13" in="00:21:59.693" out="00:22:00.267">
    <property name="window">75</property>
    <property name="max_gain">20dB</property>
    <property name="mlt_service">volume</property>
    <property name="kdenlive_id">fadein</property>
    <property name="gain">0</property>
    <property name="end">1</property>
    <property name="kdenlive:collapsed">0</property>
   </filter>
   <filter id="filter14" in="00:22:00.868" out="00:22:02.169">
    <property name="window">75</property>
    <property name="max_gain">20dB</property>
    <property name="mlt_service">volume</property>
    <property name="kdenlive_id">fadeout</property>
    <property name="gain">1</property>
    <property name="end">0</property>
    <property name="kdenlive:collapsed">0</property>
   </filter>
  </entry>
  <blank length="00:00:53.987"/>
  <entry producer="producer26" in="00:01:58.225" out="00:02:04.104">
   <property name="kdenlive:id">13</property>
  </entry>
  <entry producer="producer26" in="00:02:04.137" out="00:02:04.671">
   <property name="kdenlive:id">13</property>
   <filter id="filter15" in="00:02:04.671" out="00:02:04.705">
    <property name="window">75</property>
    <property name="max_gain">20dB</property>
    <property name="mlt_service">volume</property>
    <property name="kdenlive_id">fadeout</property>
    <property name="gain">1</property>
    <property name="end">0</property>
   </filter>
  </entry>
  <blank length="00:43:14.815"/>
  <entry producer="producer27" in="00:01:55.322" out="00:01:58.492">
   <property name="kdenlive:id">17</property>
   <filter id="filter16" in="00:01:55.322" out="00:01:55.589">
    <property name="window">75</property>
    <property name="max_gain">20dB</property>
    <property name="mlt_service">volume</property>
    <property name="kdenlive_id">fadein</property>
    <property name="gain">0</property>
    <property name="end">1</property>
    <property name="kdenlive:collapsed">0</property>
   </filter>
  </entry>
  <blank length="00:18:23.090"/>
  <entry producer="producer27" in="00:22:08.508" out="00:22:26.493">
   <property name="kdenlive:id">17</property>
   <filter id="filter17" in="00:22:25.058" out="00:22:26.493">
    <property name="window">75</property>
    <property name="max_gain">20dB</property>
    <property name="mlt_service">volume</property>
    <property name="kdenlive_id">fadeout</property>
    <property name="gain">1</property>
    <property name="end">0</property>
    <property name="kdenlive:collapsed">0</property>
   </filter>
  </entry>
  <blank length="00:30:41.041"/>
  <entry producer="producer28" in="00:12:14.047" out="00:12:18.685">
   <property name="kdenlive:id">21</property>
   <filter id="filter18" in="00:12:14.047" out="00:12:15.182">
    <property name="window">75</property>
    <property name="max_gain">20dB</property>
    <property name="mlt_service">volume</property>
    <property name="kdenlive_id">fadein</property>
    <property name="gain">0</property>
    <property name="end">1</property>
    <property name="kdenlive:collapsed">0</property>
   </filter>
  </entry>
 </playlist>
 <playlist id="playlist3">
  <property name="kdenlive:audio_track">1</property>
 </playlist>
 <tractor id="tractor1" in="00:00:00.000" out="02:16:08.342">
  <property name="kdenlive:audio_track">1</property>
  <property name="kdenlive:trackheight">67</property>
  <property name="kdenlive:timeline_active">1</property>
  <property name="kdenlive:collapsed">0</property>
  <property name="kdenlive:thumbs_format"/>
  <property name="kdenlive:audio_rec"/>
  <track hide="video" producer="playlist2"/>
  <track hide="video" producer="playlist3"/>
  <filter id="filter19">
   <property name="window">75</property>
   <property name="max_gain">20dB</property>
   <property name="mlt_service">volume</property>
   <property name="internal_added">237</property>
   <property name="disable">1</property>
  </filter>
  <filter id="filter20">
   <property name="channel">-1</property>
   <property name="mlt_service">panner</property>
   <property name="internal_added">237</property>
   <property name="start">0</property>
   <property name="disable">0</property>
  </filter>
  <filter id="filter21">
   <property name="iec_scale">0</property>
   <property name="mlt_service">audiolevel</property>
   <property name="disable">1</property>
  </filter>
 </tractor>
 <producer id="producer29" in="00:00:00.000" out="00:23:55.589">
  <property name="length">43025</property>
  <property name="eof">pause</property>
  <property name="resource">/home/redxherring/Videos/Monster/WAV/Monster 68 - Ruhenheim [Eng Dub &amp; HD] - YouTubeR.wav</property>
  <property name="audio_index">0</property>
  <property name="video_index">-1</property>
  <property name="mute_on_pause">0</property>
  <property name="mlt_service">avformat-novalidate</property>
  <property name="meta.media.nb_streams">1</property>
  <property name="meta.media.0.stream.type">audio</property>
  <property name="meta.media.0.codec.sample_fmt">s16</property>
  <property name="meta.media.0.codec.sample_rate">48000</property>
  <property name="meta.media.0.codec.channels">1</property>
  <property name="meta.media.0.codec.name">pcm_s16le</property>
  <property name="meta.media.0.codec.long_name">PCM signed 16-bit little-endian</property>
  <property name="meta.media.0.codec.bit_rate">768000</property>
  <property name="meta.attr.encoder.markup">Lavf58.76.100</property>
  <property name="seekable">1</property>
  <property name="kdenlive:clipname"/>
  <property name="kdenlive:folderid">-1</property>
  <property name="kdenlive:id">10</property>
  <property name="kdenlive:file_size">137818498</property>
  <property name="kdenlive:file_hash">3877bfccaa99643a3f89f2bd5d8b26be</property>
  <property name="kdenlive:audio_max0">230</property>
  <property name="xml">was here</property>
  <property name="set.test_audio">0</property>
  <property name="set.test_image">1</property>
 </producer>
 <producer id="producer30" in="00:00:00.000" out="00:23:55.589">
  <property name="length">43025</property>
  <property name="eof">pause</property>
  <property name="resource">/home/redxherring/Videos/Monster/WAV/Monster 69 - The Peaceful House [Eng Dub &amp; HD] - YouTubeR.wav</property>
  <property name="audio_index">0</property>
  <property name="video_index">-1</property>
  <property name="mute_on_pause">0</property>
  <property name="mlt_service">avformat-novalidate</property>
  <property name="meta.media.nb_streams">1</property>
  <property name="meta.media.0.stream.type">audio</property>
  <property name="meta.media.0.codec.sample_fmt">s16</property>
  <property name="meta.media.0.codec.sample_rate">48000</property>
  <property name="meta.media.0.codec.channels">1</property>
  <property name="meta.media.0.codec.name">pcm_s16le</property>
  <property name="meta.media.0.codec.long_name">PCM signed 16-bit little-endian</property>
  <property name="meta.media.0.codec.bit_rate">768000</property>
  <property name="meta.attr.encoder.markup">Lavf58.76.100</property>
  <property name="seekable">1</property>
  <property name="kdenlive:clipname"/>
  <property name="kdenlive:folderid">-1</property>
  <property name="kdenlive:id">12</property>
  <property name="kdenlive:file_size">137818498</property>
  <property name="kdenlive:file_hash">3d6a464df8e73a92e8b1dbd91cfb83da</property>
  <property name="kdenlive:audio_max0">230</property>
  <property name="xml">was here</property>
  <property name="set.test_audio">0</property>
  <property name="set.test_image">1</property>
 </producer>
 <producer id="producer31" in="00:00:00.000" out="00:23:55.622">
  <property name="length">43026</property>
  <property name="eof">pause</property>
  <property name="resource">/home/redxherring/Videos/Monster/WAV/Monster 70 - The Town Massacre [Eng Dub &amp; HD] - YouTubeR.wav</property>
  <property name="audio_index">0</property>
  <property name="video_index">-1</property>
  <property name="mute_on_pause">0</property>
  <property name="mlt_service">avformat-novalidate</property>
  <property name="meta.media.nb_streams">1</property>
  <property name="meta.media.0.stream.type">audio</property>
  <property name="meta.media.0.codec.sample_fmt">s16</property>
  <property name="meta.media.0.codec.sample_rate">48000</property>
  <property name="meta.media.0.codec.channels">1</property>
  <property name="meta.media.0.codec.name">pcm_s16le</property>
  <property name="meta.media.0.codec.long_name">PCM signed 16-bit little-endian</property>
  <property name="meta.media.0.codec.bit_rate">768000</property>
  <property name="meta.attr.encoder.markup">Lavf58.76.100</property>
  <property name="seekable">1</property>
  <property name="kdenlive:clipname"/>
  <property name="kdenlive:folderid">-1</property>
  <property name="kdenlive:id">14</property>
  <property name="kdenlive:file_size">137821842</property>
  <property name="kdenlive:file_hash">140f2ca5d89d3ea0813510a6426236c2</property>
  <property name="kdenlive:audio_max0">208</property>
  <property name="xml">was here</property>
  <property name="set.test_audio">0</property>
  <property name="set.test_image">1</property>
 </producer>
 <producer id="producer32" in="00:00:00.000" out="00:23:55.589">
  <property name="length">43025</property>
  <property name="eof">pause</property>
  <property name="resource">/home/redxherring/Videos/Monster/WAV/Monster 71 - The Wrath of the Magnificent Steiner [Eng Dub &amp;R.wav</property>
  <property name="audio_index">0</property>
  <property name="video_index">-1</property>
  <property name="mute_on_pause">0</property>
  <property name="mlt_service">avformat-novalidate</property>
  <property name="meta.media.nb_streams">1</property>
  <property name="meta.media.0.stream.type">audio</property>
  <property name="meta.media.0.codec.sample_fmt">s16</property>
  <property name="meta.media.0.codec.sample_rate">48000</property>
  <property name="meta.media.0.codec.channels">1</property>
  <property name="meta.media.0.codec.name">pcm_s16le</property>
  <property name="meta.media.0.codec.long_name">PCM signed 16-bit little-endian</property>
  <property name="meta.media.0.codec.bit_rate">768000</property>
  <property name="meta.attr.encoder.markup">Lavf58.76.100</property>
  <property name="seekable">1</property>
  <property name="kdenlive:clipname"/>
  <property name="kdenlive:folderid">-1</property>
  <property name="kdenlive:id">16</property>
  <property name="kdenlive:file_size">137818498</property>
  <property name="kdenlive:file_hash">84340010a345de7f46569f5855dbf697</property>
  <property name="kdenlive:audio_max0">225</property>
  <property name="xml">was here</property>
  <property name="set.test_audio">0</property>
  <property name="set.test_image">1</property>
 </producer>
 <producer id="producer33" in="00:00:00.000" out="00:23:55.455">
  <property name="length">43021</property>
  <property name="eof">pause</property>
  <property name="resource">/home/redxherring/Videos/Monster/WAV/Monster 72 - A Nameless Man [Eng Dub &amp; HD] - YouTubeR.wav</property>
  <property name="audio_index">0</property>
  <property name="video_index">-1</property>
  <property name="mute_on_pause">0</property>
  <property name="mlt_service">avformat-novalidate</property>
  <property name="meta.media.nb_streams">1</property>
  <property name="meta.media.0.stream.type">audio</property>
  <property name="meta.media.0.codec.sample_fmt">s16</property>
  <property name="meta.media.0.codec.sample_rate">48000</property>
  <property name="meta.media.0.codec.channels">1</property>
  <property name="meta.media.0.codec.name">pcm_s16le</property>
  <property name="meta.media.0.codec.long_name">PCM signed 16-bit little-endian</property>
  <property name="meta.media.0.codec.bit_rate">768000</property>
  <property name="meta.attr.encoder.markup">Lavf58.76.100</property>
  <property name="seekable">1</property>
  <property name="kdenlive:clipname"/>
  <property name="kdenlive:folderid">-1</property>
  <property name="kdenlive:id">18</property>
  <property name="kdenlive:file_size">137805122</property>
  <property name="kdenlive:file_hash">45bf5415072570b28545e0af81103f28</property>
  <property name="kdenlive:audio_max0">223</property>
  <property name="xml">was here</property>
  <property name="set.test_audio">0</property>
  <property name="set.test_image">1</property>
 </producer>
 <producer id="producer34" in="00:00:00.000" out="00:23:55.589">
  <property name="length">43025</property>
  <property name="eof">pause</property>
  <property name="resource">/home/redxherring/Videos/Monster/WAV/Monster 73 - Scenery for a Doomsday [Eng Dub &amp; HD] - YouTubeR.wav</property>
  <property name="audio_index">0</property>
  <property name="video_index">-1</property>
  <property name="mute_on_pause">0</property>
  <property name="mlt_service">avformat-novalidate</property>
  <property name="meta.media.nb_streams">1</property>
  <property name="meta.media.0.stream.type">audio</property>
  <property name="meta.media.0.codec.sample_fmt">s16</property>
  <property name="meta.media.0.codec.sample_rate">48000</property>
  <property name="meta.media.0.codec.channels">1</property>
  <property name="meta.media.0.codec.name">pcm_s16le</property>
  <property name="meta.media.0.codec.long_name">PCM signed 16-bit little-endian</property>
  <property name="meta.media.0.codec.bit_rate">768000</property>
  <property name="meta.attr.encoder.markup">Lavf58.76.100</property>
  <property name="seekable">1</property>
  <property name="kdenlive:clipname"/>
  <property name="kdenlive:folderid">-1</property>
  <property name="kdenlive:id">20</property>
  <property name="kdenlive:file_size">137818498</property>
  <property name="kdenlive:file_hash">727f0b2dc2e0891f8d3d51a87a87c2d7</property>
  <property name="kdenlive:audio_max0">204</property>
  <property name="xml">was here</property>
  <property name="set.test_audio">0</property>
  <property name="set.test_image">1</property>
 </producer>
 <producer id="producer35" in="00:00:00.000" out="00:23:39.006">
  <property name="length">42528</property>
  <property name="eof">pause</property>
  <property name="resource">/home/redxherring/Videos/Monster/WAV/Monster 74 - The Real Monster [Eng Dub &amp; HD] - YouTubeR.wav</property>
  <property name="audio_index">0</property>
  <property name="video_index">-1</property>
  <property name="mute_on_pause">0</property>
  <property name="mlt_service">avformat-novalidate</property>
  <property name="meta.media.nb_streams">1</property>
  <property name="meta.media.0.stream.type">audio</property>
  <property name="meta.media.0.codec.sample_fmt">s16</property>
  <property name="meta.media.0.codec.sample_rate">48000</property>
  <property name="meta.media.0.codec.channels">1</property>
  <property name="meta.media.0.codec.name">pcm_s16le</property>
  <property name="meta.media.0.codec.long_name">PCM signed 16-bit little-endian</property>
  <property name="meta.media.0.codec.bit_rate">768000</property>
  <property name="meta.attr.encoder.markup">Lavf58.76.100</property>
  <property name="seekable">1</property>
  <property name="kdenlive:clipname"/>
  <property name="kdenlive:folderid">-1</property>
  <property name="kdenlive:id">22</property>
  <property name="kdenlive:file_size">136225794</property>
  <property name="kdenlive:file_hash">fdee703cbdaae759c383245f72e27101</property>
  <property name="kdenlive:audio_max0">226</property>
  <property name="xml">was here</property>
  <property name="set.test_audio">0</property>
  <property name="set.test_image">1</property>
 </producer>
 <playlist id="playlist4">
  <property name="kdenlive:audio_track">1</property>
  <entry producer="producer29" in="00:00:24.524" out="00:04:28.228">
   <property name="kdenlive:id">10</property>
  </entry>
  <entry producer="producer29" in="00:04:28.629" out="00:04:43.544">
   <property name="kdenlive:id">10</property>
  </entry>
  <entry producer="producer29" in="00:04:43.577" out="00:04:43.911">
   <property name="kdenlive:id">10</property>
   <filter id="filter22">
    <property name="window">75</property>
    <property name="max_gain">20dB</property>
    <property name="level">00:04:43.577~=3</property>
    <property name="mlt_service">volume</property>
    <property name="kdenlive_id">volume</property>
    <property name="kdenlive:collapsed">0</property>
   </filter>
  </entry>
  <entry producer="producer29" in="00:04:43.944" out="00:04:48.949">
   <property name="kdenlive:id">10</property>
  </entry>
  <entry producer="producer29" in="00:04:49.182" out="00:04:53.120">
   <property name="kdenlive:id">10</property>
  </entry>
  <entry producer="producer29" in="00:04:53.620" out="00:22:11.178">
   <property name="kdenlive:id">10</property>
  </entry>
  <entry producer="producer29" in="00:22:11.211" out="00:22:12.513">
   <property name="kdenlive:id">10</property>
  </entry>
  <entry producer="producer29" in="00:22:15.182" out="00:22:26.760">
   <property name="kdenlive:id">10</property>
  </entry>
  <entry producer="producer30" in="00:00:00.000" out="00:01:28.061">
   <property name="kdenlive:id">12</property>
  </entry>
  <entry producer="producer30" in="00:02:54.321" out="00:12:20.053">
   <property name="kdenlive:id">12</property>
   <filter id="filter23" in="00:12:18.886" out="00:12:20.087">
    <property name="window">75</property>
    <property name="max_gain">20dB</property>
    <property name="mlt_service">volume</property>
    <property name="kdenlive_id">fadeout</property>
    <property name="gain">1</property>
    <property name="end">0</property>
   </filter>
  </entry>
  <blank length="00:00:00.334"/>
  <entry producer="producer30" in="00:12:28.462" out="00:21:55.989">
   <property name="kdenlive:id">12</property>
   <filter id="filter24" in="00:12:28.462" out="00:12:28.629">
    <property name="window">75</property>
    <property name="max_gain">20dB</property>
    <property name="mlt_service">volume</property>
    <property name="kdenlive_id">fadein</property>
    <property name="gain">0</property>
    <property name="end">1</property>
    <property name="kdenlive:collapsed">0</property>
   </filter>
  </entry>
  <entry producer="producer30" in="00:21:56.023" out="00:21:57.457">
   <property name="kdenlive:id">12</property>
   <filter id="filter25" in="00:21:56.690" out="00:21:57.491">
    <property name="window">75</property>
    <property name="max_gain">20dB</property>
    <property name="mlt_service">volume</property>
    <property name="kdenlive_id">fadeout</property>
    <property name="gain">1</property>
    <property name="end">0</property>
    <property name="kdenlive:collapsed">0</property>
   </filter>
  </entry>
  <entry producer="producer30" in="00:22:02.035" out="00:22:26.593">
   <property name="kdenlive:id">12</property>
   <filter id="filter26" in="00:22:02.035" out="00:22:03.337">
    <property name="window">75</property>
    <property name="max_gain">20dB</property>
    <property name="mlt_service">volume</property>
    <property name="kdenlive_id">fadein</property>
    <property name="gain">0</property>
    <property name="end">1</property>
    <property name="kdenlive:collapsed">0</property>
   </filter>
  </entry>
  <entry producer="producer31" in="00:00:00.000" out="00:00:32.366">
   <property name="kdenlive:id">14</property>
  </entry>
  <blank length="00:00:04.738"/>
  <entry producer="producer31" in="00:02:04.671" out="00:13:41.275">
   <property name="kdenlive:id">14</property>
   <filter id="filter27" in="00:02:04.671" out="00:02:04.705">
    <property name="window">75</property>
    <property name="max_gain">20dB</property>
    <property name="mlt_service">volume</property>
    <property name="kdenlive_id">fadein</property>
    <property name="gain">0</property>
    <property name="end">1</property>
    <property name="kdenlive:collapsed">0</property>
   </filter>
  </entry>
  <entry producer="producer31" in="00:13:42.543" out="00:22:27.094">
   <property name="kdenlive:id">14</property>
   <filter id="filter28" in="00:13:42.543" out="00:13:42.676">
    <property name="window">75</property>
    <property name="max_gain">20dB</property>
    <property name="mlt_service">volume</property>
    <property name="kdenlive_id">fadein</property>
    <property name="gain">0</property>
    <property name="end">1</property>
   </filter>
  </entry>
  <entry producer="producer32" in="00:00:00.000" out="00:01:31.865">
   <property name="kdenlive:id">16</property>
  </entry>
  <entry producer="producer32" in="00:02:58.325" out="00:22:26.693">
   <property name="kdenlive:id">16</property>
  </entry>
  <entry producer="producer33" in="00:00:00.000" out="00:01:50.384">
   <property name="kdenlive:id">18</property>
  </entry>
  <entry producer="producer33" in="00:01:50.417" out="00:01:53.654">
   <property name="kdenlive:id">18</property>
   <filter id="filter29" in="00:01:53.553" out="00:01:53.654">
    <property name="window">75</property>
    <property name="max_gain">20dB</property>
    <property name="mlt_service">volume</property>
    <property name="kdenlive_id">fadeout</property>
    <property name="gain">1</property>
    <property name="end">0</property>
    <property name="kdenlive:collapsed">0</property>
   </filter>
  </entry>
  <blank length="00:00:02.836"/>
  <entry producer="producer33" in="00:03:25.259" out="00:11:56.356">
   <property name="kdenlive:id">18</property>
  </entry>
  <entry producer="producer33" in="00:12:16.583" out="00:12:16.783">
   <property name="kdenlive:id">18</property>
  </entry>
  <entry producer="producer33" in="00:12:16.817" out="00:22:08.475">
   <property name="kdenlive:id">18</property>
  </entry>
  <blank length="00:00:17.351"/>
  <entry producer="producer34" in="00:00:26.927" out="00:03:25.893">
   <property name="kdenlive:id">20</property>
   <property name="kdenlive:activeeffect">-1</property>
   <filter id="filter30" in="00:00:26.927" out="00:00:27.761">
    <property name="window">75</property>
    <property name="max_gain">20dB</property>
    <property name="mlt_service">volume</property>
    <property name="kdenlive_id">fadein</property>
    <property name="gain">0</property>
    <property name="end">1</property>
   </filter>
  </entry>
  <entry producer="producer34" in="00:04:52.719" out="00:22:27.060">
   <property name="kdenlive:id">20</property>
  </entry>
  <entry producer="producer35" in="00:00:00.000" out="00:00:49.149">
   <property name="kdenlive:id">22</property>
  </entry>
  <entry producer="producer35" in="00:02:15.048" out="00:11:35.168">
   <property name="kdenlive:id">22</property>
  </entry>
  <entry producer="producer35" in="00:11:35.202" out="00:11:36.770">
   <property name="kdenlive:id">22</property>
   <filter id="filter31" in="00:11:35.669" out="00:11:36.803">
    <property name="window">75</property>
    <property name="max_gain">20dB</property>
    <property name="mlt_service">volume</property>
    <property name="kdenlive_id">fadeout</property>
    <property name="gain">1</property>
    <property name="end">0</property>
   </filter>
  </entry>
  <blank length="00:00:01.235"/>
  <entry producer="producer35" in="00:12:18.385" out="00:23:39.006">
   <property name="kdenlive:id">22</property>
  </entry>
 </playlist>
 <playlist id="playlist5">
  <property name="kdenlive:audio_track">1</property>
 </playlist>
 <tractor id="tractor2" in="00:00:00.000" out="02:27:28.161">
  <property name="kdenlive:audio_track">1</property>
  <property name="kdenlive:trackheight">67</property>
  <property name="kdenlive:timeline_active">1</property>
  <property name="kdenlive:collapsed">0</property>
  <property name="kdenlive:thumbs_format"/>
  <property name="kdenlive:audio_rec"/>
  <track hide="video" producer="playlist4"/>
  <track hide="video" producer="playlist5"/>
  <filter id="filter32">
   <property name="window">75</property>
   <property name="max_gain">20dB</property>
   <property name="mlt_service">volume</property>
   <property name="internal_added">237</property>
   <property name="disable">1</property>
  </filter>
  <filter id="filter33">
   <property name="channel">-1</property>
   <property name="mlt_service">panner</property>
   <property name="internal_added">237</property>
   <property name="start">1</property>
   <property name="disable">0</property>
  </filter>
  <filter id="filter34">
   <property name="iec_scale">0</property>
   <property name="mlt_service">audiolevel</property>
   <property name="disable">1</property>
  </filter>
 </tractor>
 <producer id="producer36" in="00:00:00.000" out="00:23:55.589">
  <property name="length">43025</property>
  <property name="eof">pause</property>
  <property name="resource">/home/redxherring/Videos/Monster/WAV/Monster 68 - Ruhenheim [Eng Dub &amp; HD] - YouTubeL.wav</property>
  <property name="audio_index">0</property>
  <property name="video_index">-1</property>
  <property name="mute_on_pause">0</property>
  <property name="mlt_service">avformat-novalidate</property>
  <property name="meta.media.nb_streams">1</property>
  <property name="meta.media.0.stream.type">audio</property>
  <property name="meta.media.0.codec.sample_fmt">s16</property>
  <property name="meta.media.0.codec.sample_rate">48000</property>
  <property name="meta.media.0.codec.channels">1</property>
  <property name="meta.media.0.codec.name">pcm_s16le</property>
  <property name="meta.media.0.codec.long_name">PCM signed 16-bit little-endian</property>
  <property name="meta.media.0.codec.bit_rate">768000</property>
  <property name="meta.attr.encoder.markup">Lavf58.76.100</property>
  <property name="seekable">1</property>
  <property name="kdenlive:clipname"/>
  <property name="kdenlive:folderid">-1</property>
  <property name="kdenlive:id">9</property>
  <property name="kdenlive:file_size">137818498</property>
  <property name="kdenlive:file_hash">3179fed1466bd579eaa45b90fae1c674</property>
  <property name="kdenlive:audio_max0">232</property>
  <property name="xml">was here</property>
  <property name="set.test_audio">0</property>
  <property name="set.test_image">1</property>
 </producer>
 <producer id="producer37" in="00:00:00.000" out="00:23:55.589">
  <property name="length">43025</property>
  <property name="eof">pause</property>
  <property name="resource">/home/redxherring/Videos/Monster/WAV/Monster 69 - The Peaceful House [Eng Dub &amp; HD] - YouTubeL.wav</property>
  <property name="audio_index">0</property>
  <property name="video_index">-1</property>
  <property name="mute_on_pause">0</property>
  <property name="mlt_service">avformat-novalidate</property>
  <property name="meta.media.nb_streams">1</property>
  <property name="meta.media.0.stream.type">audio</property>
  <property name="meta.media.0.codec.sample_fmt">s16</property>
  <property name="meta.media.0.codec.sample_rate">48000</property>
  <property name="meta.media.0.codec.channels">1</property>
  <property name="meta.media.0.codec.name">pcm_s16le</property>
  <property name="meta.media.0.codec.long_name">PCM signed 16-bit little-endian</property>
  <property name="meta.media.0.codec.bit_rate">768000</property>
  <property name="meta.attr.encoder.markup">Lavf58.76.100</property>
  <property name="seekable">1</property>
  <property name="kdenlive:clipname"/>
  <property name="kdenlive:folderid">-1</property>
  <property name="kdenlive:id">11</property>
  <property name="kdenlive:file_size">137818498</property>
  <property name="kdenlive:file_hash">a52638b3d3a3e708a9614b7cb8f5dc3e</property>
  <property name="kdenlive:audio_max0">230</property>
  <property name="xml">was here</property>
  <property name="set.test_audio">0</property>
  <property name="set.test_image">1</property>
 </producer>
 <producer id="producer38" in="00:00:00.000" out="00:23:55.622">
  <property name="length">43026</property>
  <property name="eof">pause</property>
  <property name="resource">/home/redxherring/Videos/Monster/WAV/Monster 70 - The Town Massacre [Eng Dub &amp; HD] - YouTubeL.wav</property>
  <property name="audio_index">0</property>
  <property name="video_index">-1</property>
  <property name="mute_on_pause">0</property>
  <property name="mlt_service">avformat-novalidate</property>
  <property name="meta.media.nb_streams">1</property>
  <property name="meta.media.0.stream.type">audio</property>
  <property name="meta.media.0.codec.sample_fmt">s16</property>
  <property name="meta.media.0.codec.sample_rate">48000</property>
  <property name="meta.media.0.codec.channels">1</property>
  <property name="meta.media.0.codec.name">pcm_s16le</property>
  <property name="meta.media.0.codec.long_name">PCM signed 16-bit little-endian</property>
  <property name="meta.media.0.codec.bit_rate">768000</property>
  <property name="meta.attr.encoder.markup">Lavf58.76.100</property>
  <property name="seekable">1</property>
  <property name="kdenlive:clipname"/>
  <property name="kdenlive:folderid">-1</property>
  <property name="kdenlive:id">13</property>
  <property name="kdenlive:file_size">137821842</property>
  <property name="kdenlive:file_hash">116e3576fa0a6c1b845c4925d75e76a6</property>
  <property name="kdenlive:audio_max0">204</property>
  <property name="xml">was here</property>
  <property name="set.test_audio">0</property>
  <property name="set.test_image">1</property>
 </producer>
 <producer id="producer39" in="00:00:00.000" out="00:23:55.589">
  <property name="length">43025</property>
  <property name="eof">pause</property>
  <property name="resource">/home/redxherring/Videos/Monster/WAV/Monster 71 - The Wrath of the Magnificent Steiner [Eng Dub &amp;L.wav</property>
  <property name="audio_index">0</property>
  <property name="video_index">-1</property>
  <property name="mute_on_pause">0</property>
  <property name="mlt_service">avformat-novalidate</property>
  <property name="meta.media.nb_streams">1</property>
  <property name="meta.media.0.stream.type">audio</property>
  <property name="meta.media.0.codec.sample_fmt">s16</property>
  <property name="meta.media.0.codec.sample_rate">48000</property>
  <property name="meta.media.0.codec.channels">1</property>
  <property name="meta.media.0.codec.name">pcm_s16le</property>
  <property name="meta.media.0.codec.long_name">PCM signed 16-bit little-endian</property>
  <property name="meta.media.0.codec.bit_rate">768000</property>
  <property name="meta.attr.encoder.markup">Lavf58.76.100</property>
  <property name="seekable">1</property>
  <property name="kdenlive:clipname"/>
  <property name="kdenlive:folderid">-1</property>
  <property name="kdenlive:id">15</property>
  <property name="kdenlive:file_size">137818498</property>
  <property name="kdenlive:file_hash">244d8b21bfb9da3709b4361b79ba70e2</property>
  <property name="kdenlive:audio_max0">225</property>
  <property name="xml">was here</property>
  <property name="set.test_audio">0</property>
  <property name="set.test_image">1</property>
 </producer>
 <producer id="producer40" in="00:00:00.000" out="00:23:55.455">
  <property name="length">43021</property>
  <property name="eof">pause</property>
  <property name="resource">/home/redxherring/Videos/Monster/WAV/Monster 72 - A Nameless Man [Eng Dub &amp; HD] - YouTubeL.wav</property>
  <property name="audio_index">0</property>
  <property name="video_index">-1</property>
  <property name="mute_on_pause">0</property>
  <property name="mlt_service">avformat-novalidate</property>
  <property name="meta.media.nb_streams">1</property>
  <property name="meta.media.0.stream.type">audio</property>
  <property name="meta.media.0.codec.sample_fmt">s16</property>
  <property name="meta.media.0.codec.sample_rate">48000</property>
  <property name="meta.media.0.codec.channels">1</property>
  <property name="meta.media.0.codec.name">pcm_s16le</property>
  <property name="meta.media.0.codec.long_name">PCM signed 16-bit little-endian</property>
  <property name="meta.media.0.codec.bit_rate">768000</property>
  <property name="meta.attr.encoder.markup">Lavf58.76.100</property>
  <property name="seekable">1</property>
  <property name="kdenlive:clipname"/>
  <property name="kdenlive:folderid">-1</property>
  <property name="kdenlive:id">17</property>
  <property name="kdenlive:file_size">137805122</property>
  <property name="kdenlive:file_hash">5a1b3319bf8d3830b3ccdc97417eb47b</property>
  <property name="kdenlive:audio_max0">221</property>
  <property name="xml">was here</property>
  <property name="set.test_audio">0</property>
  <property name="set.test_image">1</property>
 </producer>
 <producer id="producer41" in="00:00:00.000" out="00:23:55.589">
  <property name="length">43025</property>
  <property name="eof">pause</property>
  <property name="resource">/home/redxherring/Videos/Monster/WAV/Monster 73 - Scenery for a Doomsday [Eng Dub &amp; HD] - YouTubeL.wav</property>
  <property name="audio_index">0</property>
  <property name="video_index">-1</property>
  <property name="mute_on_pause">0</property>
  <property name="mlt_service">avformat-novalidate</property>
  <property name="meta.media.nb_streams">1</property>
  <property name="meta.media.0.stream.type">audio</property>
  <property name="meta.media.0.codec.sample_fmt">s16</property>
  <property name="meta.media.0.codec.sample_rate">48000</property>
  <property name="meta.media.0.codec.channels">1</property>
  <property name="meta.media.0.codec.name">pcm_s16le</property>
  <property name="meta.media.0.codec.long_name">PCM signed 16-bit little-endian</property>
  <property name="meta.media.0.codec.bit_rate">768000</property>
  <property name="meta.attr.encoder.markup">Lavf58.76.100</property>
  <property name="seekable">1</property>
  <property name="kdenlive:clipname"/>
  <property name="kdenlive:folderid">-1</property>
  <property name="kdenlive:id">19</property>
  <property name="kdenlive:file_size">137818498</property>
  <property name="kdenlive:file_hash">4b5b4477e8ac86fb38629e6326d9ef10</property>
  <property name="kdenlive:audio_max0">206</property>
  <property name="xml">was here</property>
  <property name="set.test_audio">0</property>
  <property name="set.test_image">1</property>
 </producer>
 <producer id="producer42" in="00:00:00.000" out="00:23:39.006">
  <property name="length">42528</property>
  <property name="eof">pause</property>
  <property name="resource">/home/redxherring/Videos/Monster/WAV/Monster 74 - The Real Monster [Eng Dub &amp; HD] - YouTubeL.wav</property>
  <property name="audio_index">0</property>
  <property name="video_index">-1</property>
  <property name="mute_on_pause">0</property>
  <property name="mlt_service">avformat-novalidate</property>
  <property name="meta.media.nb_streams">1</property>
  <property name="meta.media.0.stream.type">audio</property>
  <property name="meta.media.0.codec.sample_fmt">s16</property>
  <property name="meta.media.0.codec.sample_rate">48000</property>
  <property name="meta.media.0.codec.channels">1</property>
  <property name="meta.media.0.codec.name">pcm_s16le</property>
  <property name="meta.media.0.codec.long_name">PCM signed 16-bit little-endian</property>
  <property name="meta.media.0.codec.bit_rate">768000</property>
  <property name="meta.attr.encoder.markup">Lavf58.76.100</property>
  <property name="seekable">1</property>
  <property name="kdenlive:clipname"/>
  <property name="kdenlive:folderid">-1</property>
  <property name="kdenlive:id">21</property>
  <property name="kdenlive:file_size">136225794</property>
  <property name="kdenlive:file_hash">a8f0a260471305c7809479867c6ed70b</property>
  <property name="kdenlive:audio_max0">215</property>
  <property name="xml">was here</property>
  <property name="set.test_audio">0</property>
  <property name="set.test_image">1</property>
 </producer>
 <playlist id="playlist6">
  <property name="kdenlive:audio_track">1</property>
  <entry producer="producer36" in="00:00:24.524" out="00:04:28.228">
   <property name="kdenlive:id">9</property>
  </entry>
  <entry producer="producer36" in="00:04:28.629" out="00:04:43.544">
   <property name="kdenlive:id">9</property>
  </entry>
  <entry producer="producer36" in="00:04:43.577" out="00:04:43.911">
   <property name="kdenlive:id">9</property>
   <filter id="filter35">
    <property name="window">75</property>
    <property name="max_gain">20dB</property>
    <property name="level">00:04:43.577~=3</property>
    <property name="mlt_service">volume</property>
    <property name="kdenlive_id">volume</property>
    <property name="kdenlive:collapsed">0</property>
   </filter>
  </entry>
  <entry producer="producer36" in="00:04:43.944" out="00:04:48.949">
   <property name="kdenlive:id">9</property>
  </entry>
  <entry producer="producer36" in="00:04:49.182" out="00:04:53.120">
   <property name="kdenlive:id">9</property>
  </entry>
  <entry producer="producer36" in="00:04:53.620" out="00:22:11.178">
   <property name="kdenlive:id">9</property>
  </entry>
  <entry producer="producer36" in="00:22:11.211" out="00:22:12.513">
   <property name="kdenlive:id">9</property>
  </entry>
  <entry producer="producer36" in="00:22:15.182" out="00:22:26.760">
   <property name="kdenlive:id">9</property>
  </entry>
  <entry producer="producer37" in="00:00:00.000" out="00:01:28.061">
   <property name="kdenlive:id">11</property>
  </entry>
  <entry producer="producer37" in="00:02:54.321" out="00:12:20.053">
   <property name="kdenlive:id">11</property>
   <filter id="filter36" in="00:12:18.852" out="00:12:20.087">
    <property name="window">75</property>
    <property name="max_gain">20dB</property>
    <property name="mlt_service">volume</property>
    <property name="kdenlive_id">fadeout</property>
    <property name="gain">1</property>
    <property name="end">0</property>
    <property name="kdenlive:collapsed">0</property>
   </filter>
  </entry>
  <blank length="00:00:00.334"/>
  <entry producer="producer37" in="00:12:28.462" out="00:21:55.989">
   <property name="kdenlive:id">11</property>
   <filter id="filter37" in="00:12:28.462" out="00:12:28.629">
    <property name="window">75</property>
    <property name="max_gain">20dB</property>
    <property name="mlt_service">volume</property>
    <property name="kdenlive_id">fadein</property>
    <property name="gain">0</property>
    <property name="end">1</property>
    <property name="kdenlive:collapsed">0</property>
   </filter>
  </entry>
  <entry producer="producer37" in="00:21:56.023" out="00:21:57.457">
   <property name="kdenlive:id">11</property>
   <filter id="filter38" in="00:21:56.690" out="00:21:57.491">
    <property name="window">75</property>
    <property name="max_gain">20dB</property>
    <property name="mlt_service">volume</property>
    <property name="kdenlive_id">fadeout</property>
    <property name="gain">1</property>
    <property name="end">0</property>
    <property name="kdenlive:collapsed">0</property>
   </filter>
  </entry>
  <entry producer="producer37" in="00:22:02.035" out="00:22:26.593">
   <property name="kdenlive:id">11</property>
   <filter id="filter39" in="00:22:02.035" out="00:22:03.303">
    <property name="window">75</property>
    <property name="max_gain">20dB</property>
    <property name="mlt_service">volume</property>
    <property name="kdenlive_id">fadein</property>
    <property name="gain">0</property>
    <property name="end">1</property>
    <property name="kdenlive:collapsed">0</property>
   </filter>
  </entry>
  <entry producer="producer38" in="00:00:00.000" out="00:00:32.366">
   <property name="kdenlive:id">13</property>
  </entry>
  <blank length="00:00:04.738"/>
  <entry producer="producer38" in="00:02:04.671" out="00:13:41.275">
   <property name="kdenlive:id">13</property>
   <filter id="filter40" in="00:02:04.671" out="00:02:04.705">
    <property name="window">75</property>
    <property name="max_gain">20dB</property>
    <property name="mlt_service">volume</property>
    <property name="kdenlive_id">fadein</property>
    <property name="gain">0</property>
    <property name="end">1</property>
    <property name="kdenlive:collapsed">0</property>
   </filter>
  </entry>
  <entry producer="producer38" in="00:13:42.543" out="00:22:27.094">
   <property name="kdenlive:id">13</property>
   <filter id="filter41" in="00:13:42.543" out="00:13:42.676">
    <property name="window">75</property>
    <property name="max_gain">20dB</property>
    <property name="mlt_service">volume</property>
    <property name="kdenlive_id">fadein</property>
    <property name="gain">0</property>
    <property name="end">1</property>
    <property name="kdenlive:collapsed">0</property>
   </filter>
  </entry>
  <entry producer="producer39" in="00:00:00.000" out="00:01:31.865">
   <property name="kdenlive:id">15</property>
  </entry>
  <entry producer="producer39" in="00:02:58.325" out="00:22:26.693">
   <property name="kdenlive:id">15</property>
  </entry>
  <entry producer="producer40" in="00:00:00.000" out="00:01:50.384">
   <property name="kdenlive:id">17</property>
  </entry>
  <entry producer="producer40" in="00:01:50.417" out="00:01:53.654">
   <property name="kdenlive:id">17</property>
   <filter id="filter42" in="00:01:53.553" out="00:01:53.654">
    <property name="window">75</property>
    <property name="max_gain">20dB</property>
    <property name="mlt_service">volume</property>
    <property name="kdenlive_id">fadeout</property>
    <property name="gain">1</property>
    <property name="end">0</property>
   </filter>
  </entry>
  <blank length="00:00:02.836"/>
  <entry producer="producer40" in="00:03:25.259" out="00:11:56.356">
   <property name="kdenlive:id">17</property>
  </entry>
  <entry producer="producer40" in="00:12:16.583" out="00:12:16.783">
   <property name="kdenlive:id">17</property>
  </entry>
  <entry producer="producer40" in="00:12:16.817" out="00:22:08.475">
   <property name="kdenlive:id">17</property>
  </entry>
  <blank length="00:00:17.351"/>
  <entry producer="producer41" in="00:00:26.927" out="00:03:25.893">
   <property name="kdenlive:id">19</property>
   <property name="kdenlive:activeeffect">-1</property>
   <filter id="filter43" in="00:00:26.927" out="00:00:27.794">
    <property name="window">75</property>
    <property name="max_gain">20dB</property>
    <property name="mlt_service">volume</property>
    <property name="kdenlive_id">fadein</property>
    <property name="gain">0</property>
    <property name="end">1</property>
    <property name="kdenlive:collapsed">0</property>
   </filter>
  </entry>
  <entry producer="producer41" in="00:04:52.719" out="00:22:27.060">
   <property name="kdenlive:id">19</property>
  </entry>
  <entry producer="producer42" in="00:00:00.000" out="00:00:49.149">
   <property name="kdenlive:id">21</property>
  </entry>
  <entry producer="producer42" in="00:02:15.048" out="00:11:35.168">
   <property name="kdenlive:id">21</property>
  </entry>
  <entry producer="producer42" in="00:11:35.202" out="00:11:36.770">
   <property name="kdenlive:id">21</property>
   <filter id="filter44" in="00:11:35.669" out="00:11:36.803">
    <property name="window">75</property>
    <property name="max_gain">20dB</property>
    <property name="mlt_service">volume</property>
    <property name="kdenlive_id">fadeout</property>
    <property name="gain">1</property>
    <property name="end">0</property>
    <property name="kdenlive:collapsed">0</property>
   </filter>
  </entry>
  <blank length="00:00:01.235"/>
  <entry producer="producer42" in="00:12:18.385" out="00:23:39.006">
   <property name="kdenlive:id">21</property>
  </entry>
 </playlist>
 <playlist id="playlist7">
  <property name="kdenlive:audio_track">1</property>
 </playlist>
 <tractor id="tractor3" in="00:00:00.000" out="02:27:28.161">
  <property name="kdenlive:audio_track">1</property>
  <property name="kdenlive:trackheight">67</property>
  <property name="kdenlive:timeline_active">1</property>
  <property name="kdenlive:collapsed">0</property>
  <property name="kdenlive:thumbs_format"/>
  <property name="kdenlive:audio_rec"/>
  <track hide="video" producer="playlist6"/>
  <track hide="video" producer="playlist7"/>
  <filter id="filter45">
   <property name="window">75</property>
   <property name="max_gain">20dB</property>
   <property name="mlt_service">volume</property>
   <property name="internal_added">237</property>
   <property name="disable">1</property>
  </filter>
  <filter id="filter46">
   <property name="channel">-1</property>
   <property name="mlt_service">panner</property>
   <property name="internal_added">237</property>
   <property name="start">0</property>
   <property name="disable">0</property>
  </filter>
  <filter id="filter47">
   <property name="iec_scale">0</property>
   <property name="mlt_service">audiolevel</property>
   <property name="disable">1</property>
  </filter>
 </tractor>
 <producer id="producer43" in="00:00:00.000" out="00:23:55.589">
  <property name="length">43025</property>
  <property name="eof">pause</property>
  <property name="resource">/home/redxherring/Videos/Monster/MP4/Monster 68 - Ruhenheim [Eng Dub &amp; HD] - YouTube.mp4</property>
  <property name="audio_index">-1</property>
  <property name="video_index">0</property>
  <property name="mute_on_pause">0</property>
  <property name="mlt_service">avformat-novalidate</property>
  <property name="seekable">1</property>
  <property name="aspect_ratio">1</property>
  <property name="kdenlive:clipname"/>
  <property name="kdenlive:folderid">-1</property>
  <property name="kdenlive:id">2</property>
  <property name="kdenlive:file_size">154121940</property>
  <property name="kdenlive:file_hash">9724937bec7ec002b69a2e298962e53d</property>
  <property name="xml">was here</property>
  <property name="meta.media.nb_streams">1</property>
  <property name="meta.media.0.stream.type">video</property>
  <property name="meta.media.0.stream.frame_rate">29.97</property>
  <property name="meta.media.0.stream.sample_aspect_ratio">1</property>
  <property name="meta.media.0.codec.width">960</property>
  <property name="meta.media.0.codec.height">720</property>
  <property name="meta.media.0.codec.rotate">0</property>
  <property name="meta.media.0.codec.pix_fmt">yuv420p</property>
  <property name="meta.media.0.codec.sample_aspect_ratio">1</property>
  <property name="meta.media.0.codec.colorspace">709</property>
  <property name="meta.media.0.codec.color_trc">1</property>
  <property name="meta.media.0.codec.name">h264</property>
  <property name="meta.media.0.codec.long_name">H.264 / AVC / MPEG-4 AVC / MPEG-4 part 10</property>
  <property name="meta.media.0.codec.bit_rate">854942</property>
  <property name="meta.attr.0.stream.handler_name.markup">ISO Media file produced by Google Inc.</property>
  <property name="meta.attr.0.stream.vendor_id.markup">[0][0][0][0]</property>
  <property name="meta.attr.major_brand.markup">isom</property>
  <property name="meta.attr.minor_version.markup">512</property>
  <property name="meta.attr.compatible_brands.markup">isomiso2avc1mp41</property>
  <property name="meta.attr.encoder.markup">Lavf58.76.100</property>
  <property name="meta.media.sample_aspect_num">1</property>
  <property name="meta.media.sample_aspect_den">1</property>
  <property name="meta.media.frame_rate_num">344200000</property>
  <property name="meta.media.frame_rate_den">11484803</property>
  <property name="meta.media.colorspace">709</property>
  <property name="meta.media.color_trc">1</property>
  <property name="meta.media.has_b_frames">1</property>
  <property name="meta.media.width">960</property>
  <property name="meta.media.height">720</property>
  <property name="meta.media.color_range">mpeg</property>
  <property name="meta.media.top_field_first">0</property>
  <property name="meta.media.progressive">1</property>
  <property name="set.test_audio">1</property>
  <property name="set.test_image">0</property>
 </producer>
 <producer id="producer44" in="00:00:00.000" out="00:07:58.525">
  <property name="length">14342</property>
  <property name="eof">pause</property>
  <property name="resource">3.000000:/home/redxherring/Videos/Monster/MP4/Monster 68 - Ruhenheim [Eng Dub &amp; HD] - YouTube.mp4</property>
  <property name="aspect_ratio">1</property>
  <property name="meta.media.nb_streams">1</property>
  <property name="meta.media.0.stream.type">video</property>
  <property name="meta.media.0.stream.frame_rate">29.97</property>
  <property name="meta.media.0.stream.sample_aspect_ratio">1</property>
  <property name="meta.media.0.codec.width">960</property>
  <property name="meta.media.0.codec.height">720</property>
  <property name="meta.media.0.codec.rotate">0</property>
  <property name="meta.media.0.codec.pix_fmt">yuv420p</property>
  <property name="meta.media.0.codec.sample_aspect_ratio">1</property>
  <property name="meta.media.0.codec.colorspace">709</property>
  <property name="meta.media.0.codec.color_trc">1</property>
  <property name="meta.media.0.codec.name">h264</property>
  <property name="meta.media.0.codec.long_name">H.264 / AVC / MPEG-4 AVC / MPEG-4 part 10</property>
  <property name="meta.media.0.codec.bit_rate">854942</property>
  <property name="meta.attr.0.stream.handler_name.markup">ISO Media file produced by Google Inc.</property>
  <property name="meta.attr.0.stream.vendor_id.markup">[0][0][0][0]</property>
  <property name="meta.attr.major_brand.markup">isom</property>
  <property name="meta.attr.minor_version.markup">512</property>
  <property name="meta.attr.compatible_brands.markup">isomiso2avc1mp41</property>
  <property name="meta.attr.encoder.markup">Lavf58.76.100</property>
  <property name="seekable">1</property>
  <property name="meta.media.sample_aspect_num">1</property>
  <property name="meta.media.sample_aspect_den">1</property>
  <property name="audio_index">-1</property>
  <property name="video_index">0</property>
  <property name="mute_on_pause">1</property>
  <property name="warp_speed">3</property>
  <property name="warp_resource">/home/redxherring/Videos/Monster/MP4/Monster 68 - Ruhenheim [Eng Dub &amp; HD] - YouTube.mp4</property>
  <property name="mlt_service">timewarp</property>
  <property name="set.test_audio">1</property>
  <property name="set.test_image">0</property>
  <property name="kdenlive:id">2</property>
  <property name="warp_pitch">0</property>
  <property name="meta.media.frame_rate_num">344200000</property>
  <property name="meta.media.frame_rate_den">11484803</property>
  <property name="meta.media.colorspace">709</property>
  <property name="meta.media.color_trc">1</property>
  <property name="meta.media.has_b_frames">1</property>
  <property name="meta.media.width">960</property>
  <property name="meta.media.height">720</property>
  <property name="meta.media.color_range">mpeg</property>
  <property name="meta.media.top_field_first">0</property>
  <property name="meta.media.progressive">1</property>
 </producer>
 <producer id="producer45" in="00:00:00.000" out="00:23:55.589">
  <property name="length">43025</property>
  <property name="eof">pause</property>
  <property name="resource">/home/redxherring/Videos/Monster/MP4/Monster 69 - The Peaceful House [Eng Dub &amp; HD] - YouTube.mp4</property>
  <property name="audio_index">-1</property>
  <property name="video_index">0</property>
  <property name="mute_on_pause">0</property>
  <property name="mlt_service">avformat-novalidate</property>
  <property name="seekable">1</property>
  <property name="aspect_ratio">1</property>
  <property name="kdenlive:clipname"/>
  <property name="kdenlive:folderid">-1</property>
  <property name="kdenlive:id">3</property>
  <property name="kdenlive:file_size">154088687</property>
  <property name="kdenlive:file_hash">4051124d787aefb0f5435e66bd6071cb</property>
  <property name="xml">was here</property>
  <property name="meta.media.nb_streams">1</property>
  <property name="meta.media.0.stream.type">video</property>
  <property name="meta.media.0.stream.frame_rate">29.97</property>
  <property name="meta.media.0.stream.sample_aspect_ratio">1</property>
  <property name="meta.media.0.codec.width">960</property>
  <property name="meta.media.0.codec.height">720</property>
  <property name="meta.media.0.codec.rotate">0</property>
  <property name="meta.media.0.codec.pix_fmt">yuv420p</property>
  <property name="meta.media.0.codec.sample_aspect_ratio">1</property>
  <property name="meta.media.0.codec.colorspace">709</property>
  <property name="meta.media.0.codec.color_trc">1</property>
  <property name="meta.media.0.codec.name">h264</property>
  <property name="meta.media.0.codec.long_name">H.264 / AVC / MPEG-4 AVC / MPEG-4 part 10</property>
  <property name="meta.media.0.codec.bit_rate">854773</property>
  <property name="meta.attr.0.stream.handler_name.markup">ISO Media file produced by Google Inc.</property>
  <property name="meta.attr.0.stream.vendor_id.markup">[0][0][0][0]</property>
  <property name="meta.attr.major_brand.markup">isom</property>
  <property name="meta.attr.minor_version.markup">512</property>
  <property name="meta.attr.compatible_brands.markup">isomiso2avc1mp41</property>
  <property name="meta.attr.encoder.markup">Lavf58.76.100</property>
  <property name="meta.media.sample_aspect_num">1</property>
  <property name="meta.media.sample_aspect_den">1</property>
  <property name="meta.media.frame_rate_num">344200000</property>
  <property name="meta.media.frame_rate_den">11484803</property>
  <property name="meta.media.colorspace">709</property>
  <property name="meta.media.color_trc">1</property>
  <property name="meta.media.has_b_frames">1</property>
  <property name="meta.media.width">960</property>
  <property name="meta.media.height">720</property>
  <property name="meta.media.color_range">mpeg</property>
  <property name="meta.media.top_field_first">0</property>
  <property name="meta.media.progressive">1</property>
  <property name="set.test_audio">1</property>
  <property name="set.test_image">0</property>
 </producer>
 <producer id="producer46" in="00:00:00.000" out="00:07:58.525">
  <property name="length">14342</property>
  <property name="eof">pause</property>
  <property name="resource">3.000000:/home/redxherring/Videos/Monster/MP4/Monster 69 - The Peaceful House [Eng Dub &amp; HD] - YouTube.mp4</property>
  <property name="aspect_ratio">1</property>
  <property name="meta.media.nb_streams">1</property>
  <property name="meta.media.0.stream.type">video</property>
  <property name="meta.media.0.stream.frame_rate">29.97</property>
  <property name="meta.media.0.stream.sample_aspect_ratio">1</property>
  <property name="meta.media.0.codec.width">960</property>
  <property name="meta.media.0.codec.height">720</property>
  <property name="meta.media.0.codec.rotate">0</property>
  <property name="meta.media.0.codec.pix_fmt">yuv420p</property>
  <property name="meta.media.0.codec.sample_aspect_ratio">1</property>
  <property name="meta.media.0.codec.colorspace">709</property>
  <property name="meta.media.0.codec.color_trc">1</property>
  <property name="meta.media.0.codec.name">h264</property>
  <property name="meta.media.0.codec.long_name">H.264 / AVC / MPEG-4 AVC / MPEG-4 part 10</property>
  <property name="meta.media.0.codec.bit_rate">854773</property>
  <property name="meta.attr.0.stream.handler_name.markup">ISO Media file produced by Google Inc.</property>
  <property name="meta.attr.0.stream.vendor_id.markup">[0][0][0][0]</property>
  <property name="meta.attr.major_brand.markup">isom</property>
  <property name="meta.attr.minor_version.markup">512</property>
  <property name="meta.attr.compatible_brands.markup">isomiso2avc1mp41</property>
  <property name="meta.attr.encoder.markup">Lavf58.76.100</property>
  <property name="seekable">1</property>
  <property name="meta.media.sample_aspect_num">1</property>
  <property name="meta.media.sample_aspect_den">1</property>
  <property name="audio_index">-1</property>
  <property name="video_index">0</property>
  <property name="mute_on_pause">1</property>
  <property name="warp_speed">3</property>
  <property name="warp_resource">/home/redxherring/Videos/Monster/MP4/Monster 69 - The Peaceful House [Eng Dub &amp; HD] - YouTube.mp4</property>
  <property name="mlt_service">timewarp</property>
  <property name="set.test_audio">1</property>
  <property name="set.test_image">0</property>
  <property name="kdenlive:id">3</property>
  <property name="warp_pitch">0</property>
  <property name="meta.media.frame_rate_num">344200000</property>
  <property name="meta.media.frame_rate_den">11484803</property>
  <property name="meta.media.colorspace">709</property>
  <property name="meta.media.color_trc">1</property>
  <property name="meta.media.has_b_frames">1</property>
  <property name="meta.media.width">960</property>
  <property name="meta.media.height">720</property>
  <property name="meta.media.color_range">mpeg</property>
  <property name="meta.media.top_field_first">0</property>
  <property name="meta.media.progressive">1</property>
 </producer>
 <producer id="producer47" in="00:00:00.000" out="00:23:55.589">
  <property name="length">43025</property>
  <property name="eof">pause</property>
  <property name="resource">/home/redxherring/Videos/Monster/MP4/Monster 70 - The Town Massacre [Eng Dub &amp; HD] - YouTube.mp4</property>
  <property name="audio_index">-1</property>
  <property name="video_index">0</property>
  <property name="mute_on_pause">0</property>
  <property name="mlt_service">avformat-novalidate</property>
  <property name="seekable">1</property>
  <property name="aspect_ratio">1</property>
  <property name="kdenlive:clipname"/>
  <property name="kdenlive:folderid">-1</property>
  <property name="kdenlive:id">4</property>
  <property name="kdenlive:file_size">152658109</property>
  <property name="kdenlive:file_hash">125502118d06cee80ffba7c91d0577b3</property>
  <property name="xml">was here</property>
  <property name="meta.media.nb_streams">1</property>
  <property name="meta.media.0.stream.type">video</property>
  <property name="meta.media.0.stream.frame_rate">29.97</property>
  <property name="meta.media.0.stream.sample_aspect_ratio">1</property>
  <property name="meta.media.0.codec.width">960</property>
  <property name="meta.media.0.codec.height">720</property>
  <property name="meta.media.0.codec.rotate">0</property>
  <property name="meta.media.0.codec.pix_fmt">yuv420p</property>
  <property name="meta.media.0.codec.sample_aspect_ratio">1</property>
  <property name="meta.media.0.codec.colorspace">709</property>
  <property name="meta.media.0.codec.color_trc">1</property>
  <property name="meta.media.0.codec.name">h264</property>
  <property name="meta.media.0.codec.long_name">H.264 / AVC / MPEG-4 AVC / MPEG-4 part 10</property>
  <property name="meta.media.0.codec.bit_rate">846762</property>
  <property name="meta.attr.0.stream.handler_name.markup">ISO Media file produced by Google Inc.</property>
  <property name="meta.attr.0.stream.vendor_id.markup">[0][0][0][0]</property>
  <property name="meta.attr.major_brand.markup">isom</property>
  <property name="meta.attr.minor_version.markup">512</property>
  <property name="meta.attr.compatible_brands.markup">isomiso2avc1mp41</property>
  <property name="meta.attr.encoder.markup">Lavf58.76.100</property>
  <property name="meta.media.sample_aspect_num">1</property>
  <property name="meta.media.sample_aspect_den">1</property>
  <property name="meta.media.frame_rate_num">344200000</property>
  <property name="meta.media.frame_rate_den">11484803</property>
  <property name="meta.media.colorspace">709</property>
  <property name="meta.media.color_trc">1</property>
  <property name="meta.media.has_b_frames">1</property>
  <property name="meta.media.width">960</property>
  <property name="meta.media.height">720</property>
  <property name="meta.media.color_range">mpeg</property>
  <property name="meta.media.top_field_first">0</property>
  <property name="meta.media.progressive">1</property>
  <property name="set.test_audio">1</property>
  <property name="set.test_image">0</property>
 </producer>
 <producer id="producer48" in="00:00:00.000" out="00:23:55.589">
  <property name="length">43025</property>
  <property name="eof">pause</property>
  <property name="resource">/home/redxherring/Videos/Monster/MP4/Monster 71 - The Wrath of the Magnificent Steiner [Eng Dub &amp;.mp4</property>
  <property name="audio_index">-1</property>
  <property name="video_index">0</property>
  <property name="mute_on_pause">0</property>
  <property name="mlt_service">avformat-novalidate</property>
  <property name="seekable">1</property>
  <property name="aspect_ratio">1</property>
  <property name="kdenlive:clipname"/>
  <property name="kdenlive:folderid">-1</property>
  <property name="kdenlive:id">5</property>
  <property name="kdenlive:file_size">153195105</property>
  <property name="kdenlive:file_hash">fe0ff785c1f32e64fbef1c18fcf3dd21</property>
  <property name="xml">was here</property>
  <property name="meta.media.nb_streams">1</property>
  <property name="meta.media.0.stream.type">video</property>
  <property name="meta.media.0.stream.frame_rate">29.97</property>
  <property name="meta.media.0.stream.sample_aspect_ratio">1</property>
  <property name="meta.media.0.codec.width">960</property>
  <property name="meta.media.0.codec.height">720</property>
  <property name="meta.media.0.codec.rotate">0</property>
  <property name="meta.media.0.codec.pix_fmt">yuv420p</property>
  <property name="meta.media.0.codec.sample_aspect_ratio">1</property>
  <property name="meta.media.0.codec.colorspace">709</property>
  <property name="meta.media.0.codec.color_trc">1</property>
  <property name="meta.media.0.codec.name">h264</property>
  <property name="meta.media.0.codec.long_name">H.264 / AVC / MPEG-4 AVC / MPEG-4 part 10</property>
  <property name="meta.media.0.codec.bit_rate">849753</property>
  <property name="meta.attr.0.stream.handler_name.markup">ISO Media file produced by Google Inc.</property>
  <property name="meta.attr.0.stream.vendor_id.markup">[0][0][0][0]</property>
  <property name="meta.attr.major_brand.markup">isom</property>
  <property name="meta.attr.minor_version.markup">512</property>
  <property name="meta.attr.compatible_brands.markup">isomiso2avc1mp41</property>
  <property name="meta.attr.encoder.markup">Lavf58.76.100</property>
  <property name="meta.media.sample_aspect_num">1</property>
  <property name="meta.media.sample_aspect_den">1</property>
  <property name="meta.media.frame_rate_num">344200000</property>
  <property name="meta.media.frame_rate_den">11484803</property>
  <property name="meta.media.colorspace">709</property>
  <property name="meta.media.color_trc">1</property>
  <property name="meta.media.has_b_frames">1</property>
  <property name="meta.media.width">960</property>
  <property name="meta.media.height">720</property>
  <property name="meta.media.color_range">mpeg</property>
  <property name="meta.media.top_field_first">0</property>
  <property name="meta.media.progressive">1</property>
  <property name="set.test_audio">1</property>
  <property name="set.test_image">0</property>
 </producer>
 <producer id="producer49" in="00:00:00.000" out="00:23:55.455">
  <property name="length">43021</property>
  <property name="eof">pause</property>
  <property name="resource">/home/redxherring/Videos/Monster/MP4/Monster 72 - A Nameless Man [Eng Dub &amp; HD] - YouTube.mp4</property>
  <property name="audio_index">-1</property>
  <property name="video_index">0</property>
  <property name="mute_on_pause">0</property>
  <property name="mlt_service">avformat-novalidate</property>
  <property name="seekable">1</property>
  <property name="aspect_ratio">1</property>
  <property name="kdenlive:clipname"/>
  <property name="kdenlive:folderid">-1</property>
  <property name="kdenlive:id">6</property>
  <property name="kdenlive:file_size">150781427</property>
  <property name="kdenlive:file_hash">d466925c301b81b494f8ec63c6ebfb88</property>
  <property name="xml">was here</property>
  <property name="meta.media.nb_streams">1</property>
  <property name="meta.media.0.stream.type">video</property>
  <property name="meta.media.0.stream.frame_rate">29.97</property>
  <property name="meta.media.0.stream.sample_aspect_ratio">1</property>
  <property name="meta.media.0.codec.width">960</property>
  <property name="meta.media.0.codec.height">720</property>
  <property name="meta.media.0.codec.rotate">0</property>
  <property name="meta.media.0.codec.pix_fmt">yuv420p</property>
  <property name="meta.media.0.codec.sample_aspect_ratio">1</property>
  <property name="meta.media.0.codec.colorspace">709</property>
  <property name="meta.media.0.codec.color_trc">1</property>
  <property name="meta.media.0.codec.name">h264</property>
  <property name="meta.media.0.codec.long_name">H.264 / AVC / MPEG-4 AVC / MPEG-4 part 10</property>
  <property name="meta.media.0.codec.bit_rate">836440</property>
  <property name="meta.attr.0.stream.handler_name.markup">ISO Media file produced by Google Inc.</property>
  <property name="meta.attr.0.stream.vendor_id.markup">[0][0][0][0]</property>
  <property name="meta.attr.major_brand.markup">isom</property>
  <property name="meta.attr.minor_version.markup">512</property>
  <property name="meta.attr.compatible_brands.markup">isomiso2avc1mp41</property>
  <property name="meta.attr.encoder.markup">Lavf58.76.100</property>
  <property name="meta.media.sample_aspect_num">1</property>
  <property name="meta.media.sample_aspect_den">1</property>
  <property name="meta.media.frame_rate_num">344168000</property>
  <property name="meta.media.frame_rate_den">11483739</property>
  <property name="meta.media.colorspace">709</property>
  <property name="meta.media.color_trc">1</property>
  <property name="meta.media.has_b_frames">1</property>
  <property name="meta.media.width">960</property>
  <property name="meta.media.height">720</property>
  <property name="meta.media.color_range">mpeg</property>
  <property name="meta.media.top_field_first">0</property>
  <property name="meta.media.progressive">1</property>
  <property name="set.test_audio">1</property>
  <property name="set.test_image">0</property>
 </producer>
 <producer id="producer50" in="00:00:00.000" out="00:23:39.006">
  <property name="length">42528</property>
  <property name="eof">pause</property>
  <property name="resource">/home/redxherring/Videos/Monster/MP4/Monster 74 - The Real Monster [Eng Dub &amp; HD] - YouTube.mp4</property>
  <property name="audio_index">-1</property>
  <property name="video_index">0</property>
  <property name="mute_on_pause">0</property>
  <property name="mlt_service">avformat-novalidate</property>
  <property name="seekable">1</property>
  <property name="aspect_ratio">1</property>
  <property name="kdenlive:clipname"/>
  <property name="kdenlive:folderid">-1</property>
  <property name="kdenlive:id">8</property>
  <property name="kdenlive:file_size">160347747</property>
  <property name="kdenlive:file_hash">6f26a2736b3efe89fe9d6caa165e56ec</property>
  <property name="xml">was here</property>
  <property name="meta.media.nb_streams">1</property>
  <property name="meta.media.0.stream.type">video</property>
  <property name="meta.media.0.stream.frame_rate">29.97</property>
  <property name="meta.media.0.stream.sample_aspect_ratio">1</property>
  <property name="meta.media.0.codec.width">960</property>
  <property name="meta.media.0.codec.height">720</property>
  <property name="meta.media.0.codec.rotate">0</property>
  <property name="meta.media.0.codec.pix_fmt">yuv420p</property>
  <property name="meta.media.0.codec.sample_aspect_ratio">1</property>
  <property name="meta.media.0.codec.colorspace">709</property>
  <property name="meta.media.0.codec.color_trc">1</property>
  <property name="meta.media.0.codec.name">h264</property>
  <property name="meta.media.0.codec.long_name">H.264 / AVC / MPEG-4 AVC / MPEG-4 part 10</property>
  <property name="meta.media.0.codec.bit_rate">900130</property>
  <property name="meta.attr.0.stream.handler_name.markup">ISO Media file produced by Google Inc.</property>
  <property name="meta.attr.0.stream.vendor_id.markup">[0][0][0][0]</property>
  <property name="meta.attr.major_brand.markup">isom</property>
  <property name="meta.attr.minor_version.markup">512</property>
  <property name="meta.attr.compatible_brands.markup">isomiso2avc1mp41</property>
  <property name="meta.attr.encoder.markup">Lavf58.76.100</property>
  <property name="meta.media.sample_aspect_num">1</property>
  <property name="meta.media.sample_aspect_den">1</property>
  <property name="meta.media.frame_rate_num">340224000</property>
  <property name="meta.media.frame_rate_den">11352139</property>
  <property name="meta.media.colorspace">709</property>
  <property name="meta.media.color_trc">1</property>
  <property name="meta.media.has_b_frames">1</property>
  <property name="meta.media.width">960</property>
  <property name="meta.media.height">720</property>
  <property name="meta.media.color_range">mpeg</property>
  <property name="meta.media.top_field_first">0</property>
  <property name="meta.media.progressive">1</property>
  <property name="set.test_audio">1</property>
  <property name="set.test_image">0</property>
 </producer>
 <playlist id="playlist8">
  <entry producer="producer43" in="00:00:24.524" out="00:04:28.228">
   <property name="kdenlive:id">2</property>
  </entry>
  <entry producer="producer43" in="00:04:28.629" out="00:04:43.544">
   <property name="kdenlive:id">2</property>
  </entry>
  <entry producer="producer43" in="00:04:43.577" out="00:04:43.911">
   <property name="kdenlive:id">2</property>
  </entry>
  <entry producer="producer43" in="00:04:43.944" out="00:04:48.949">
   <property name="kdenlive:id">2</property>
  </entry>
  <entry producer="producer43" in="00:04:49.182" out="00:04:53.120">
   <property name="kdenlive:id">2</property>
  </entry>
  <entry producer="producer43" in="00:04:53.620" out="00:22:11.178">
   <property name="kdenlive:id">2</property>
  </entry>
  <entry producer="producer44" in="00:07:23.757" out="00:07:25.058">
   <property name="kdenlive:id">2</property>
  </entry>
  <entry producer="producer43" in="00:22:15.182" out="00:22:26.760">
   <property name="kdenlive:id">2</property>
  </entry>
  <entry producer="producer45" in="00:00:00.000" out="00:01:28.061">
   <property name="kdenlive:id">3</property>
  </entry>
  <entry producer="producer45" in="00:02:54.321" out="00:12:20.053">
   <property name="kdenlive:id">3</property>
   <filter id="filter48" in="00:12:18.919" out="00:12:20.087">
    <property name="start">1</property>
    <property name="level">1</property>
    <property name="mlt_service">brightness</property>
    <property name="kdenlive_id">fade_to_black</property>
    <property name="alpha">00:00:00.000=1;00:00:01.168=0</property>
   </filter>
  </entry>
  <entry producer="producer45" in="00:12:28.128" out="00:12:28.428">
   <property name="kdenlive:id">3</property>
  </entry>
  <entry producer="producer45" in="00:12:28.462" out="00:21:55.989">
   <property name="kdenlive:id">3</property>
  </entry>
  <entry producer="producer45" in="00:21:56.023" out="00:21:56.823">
   <property name="kdenlive:id">3</property>
  </entry>
  <entry producer="producer45" in="00:22:00.267" out="00:22:00.567">
   <property name="kdenlive:id">3</property>
  </entry>
  <entry producer="producer46" in="00:07:20.187" out="00:07:20.721">
   <property name="kdenlive:id">3</property>
  </entry>
  <entry producer="producer45" in="00:22:02.302" out="00:22:26.593">
   <property name="kdenlive:id">3</property>
  </entry>
  <entry producer="producer47" in="00:00:00.000" out="00:00:32.366">
   <property name="kdenlive:id">4</property>
   <filter id="filter49" in="00:00:30.631" out="00:00:32.366">
    <property name="start">1</property>
    <property name="level">1</property>
    <property name="mlt_service">brightness</property>
    <property name="kdenlive_id">fade_to_black</property>
    <property name="alpha">00:00:00.000=1;00:00:01.735=0</property>
   </filter>
  </entry>
  <blank length="00:00:04.204"/>
  <entry producer="producer47" in="00:02:04.137" out="00:02:04.638">
   <property name="kdenlive:id">4</property>
  </entry>
  <entry producer="producer47" in="00:02:04.671" out="00:13:41.275">
   <property name="kdenlive:id">4</property>
  </entry>
  <entry producer="producer47" in="00:13:42.543" out="00:22:27.094">
   <property name="kdenlive:id">4</property>
  </entry>
  <entry producer="producer48" in="00:00:00.000" out="00:01:31.865">
   <property name="kdenlive:id">5</property>
  </entry>
  <entry producer="producer48" in="00:02:58.325" out="00:22:26.693">
   <property name="kdenlive:id">5</property>
  </entry>
  <entry producer="producer49" in="00:00:00.000" out="00:01:50.384">
   <property name="kdenlive:id">6</property>
  </entry>
  <entry producer="producer49" in="00:01:50.417" out="00:01:53.553">
   <property name="kdenlive:id">6</property>
  </entry>
  <entry producer="producer49" in="00:01:55.589" out="00:01:58.492">
   <property name="kdenlive:id">6</property>
  </entry>
  <entry producer="producer49" in="00:03:25.259" out="00:11:56.356">
   <property name="kdenlive:id">6</property>
  </entry>
  <entry producer="producer49" in="00:12:16.583" out="00:12:16.783">
   <property name="kdenlive:id">6</property>
   <filter id="filter50">
    <property name="gamma">00:12:16.583~=3</property>
    <property name="mlt_service">gamma</property>
    <property name="kdenlive_id">gamma</property>
    <property name="kdenlive:collapsed">0</property>
   </filter>
  </entry>
  <entry producer="producer49" in="00:12:16.817" out="00:22:08.475">
   <property name="kdenlive:id">6</property>
  </entry>
  <entry producer="producer49" in="00:22:08.508" out="00:22:25.826">
   <property name="kdenlive:id">6</property>
  </entry>
  <entry producer="producer5" in="00:00:26.927" out="00:03:25.893">
   <property name="kdenlive:id">7</property>
  </entry>
  <entry producer="producer5" in="00:04:52.719" out="00:22:27.060">
   <property name="kdenlive:id">7</property>
  </entry>
  <entry producer="producer50" in="00:00:00.000" out="00:00:49.149">
   <property name="kdenlive:id">8</property>
  </entry>
  <entry producer="producer50" in="00:02:15.048" out="00:11:35.168">
   <property name="kdenlive:id">8</property>
  </entry>
  <entry producer="producer50" in="00:11:35.202" out="00:11:38.005">
   <property name="kdenlive:id">8</property>
  </entry>
  <entry producer="producer50" in="00:12:18.385" out="00:23:39.006">
   <property name="kdenlive:id">8</property>
  </entry>
 </playlist>
 <playlist id="playlist9"/>
 <tractor id="tractor4" in="00:00:00.000" out="02:27:28.161">
  <property name="kdenlive:trackheight">67</property>
  <property name="kdenlive:timeline_active">1</property>
  <property name="kdenlive:collapsed">0</property>
  <property name="kdenlive:thumbs_format"/>
  <property name="kdenlive:audio_rec"/>
  <track hide="audio" producer="playlist8"/>
  <track hide="audio" producer="playlist9"/>
 </tractor>
 <producer id="producer51" in="00:00:00.000" out="00:23:55.589">
  <property name="length">43025</property>
  <property name="eof">pause</property>
  <property name="resource">/home/redxherring/Videos/Monster/MP4/Monster 70 - The Town Massacre [Eng Dub &amp; HD] - YouTube.mp4</property>
  <property name="audio_index">-1</property>
  <property name="video_index">0</property>
  <property name="mute_on_pause">0</property>
  <property name="mlt_service">avformat-novalidate</property>
  <property name="seekable">1</property>
  <property name="aspect_ratio">1</property>
  <property name="kdenlive:clipname"/>
  <property name="kdenlive:folderid">-1</property>
  <property name="kdenlive:id">4</property>
  <property name="kdenlive:file_size">152658109</property>
  <property name="kdenlive:file_hash">125502118d06cee80ffba7c91d0577b3</property>
  <property name="xml">was here</property>
  <property name="meta.media.nb_streams">1</property>
  <property name="meta.media.0.stream.type">video</property>
  <property name="meta.media.0.stream.frame_rate">29.97</property>
  <property name="meta.media.0.stream.sample_aspect_ratio">1</property>
  <property name="meta.media.0.codec.width">960</property>
  <property name="meta.media.0.codec.height">720</property>
  <property name="meta.media.0.codec.rotate">0</property>
  <property name="meta.media.0.codec.pix_fmt">yuv420p</property>
  <property name="meta.media.0.codec.sample_aspect_ratio">1</property>
  <property name="meta.media.0.codec.colorspace">709</property>
  <property name="meta.media.0.codec.color_trc">1</property>
  <property name="meta.media.0.codec.name">h264</property>
  <property name="meta.media.0.codec.long_name">H.264 / AVC / MPEG-4 AVC / MPEG-4 part 10</property>
  <property name="meta.media.0.codec.bit_rate">846762</property>
  <property name="meta.attr.0.stream.handler_name.markup">ISO Media file produced by Google Inc.</property>
  <property name="meta.attr.0.stream.vendor_id.markup">[0][0][0][0]</property>
  <property name="meta.attr.major_brand.markup">isom</property>
  <property name="meta.attr.minor_version.markup">512</property>
  <property name="meta.attr.compatible_brands.markup">isomiso2avc1mp41</property>
  <property name="meta.attr.encoder.markup">Lavf58.76.100</property>
  <property name="meta.media.sample_aspect_num">1</property>
  <property name="meta.media.sample_aspect_den">1</property>
  <property name="meta.media.frame_rate_num">344200000</property>
  <property name="meta.media.frame_rate_den">11484803</property>
  <property name="meta.media.colorspace">709</property>
  <property name="meta.media.color_trc">1</property>
  <property name="meta.media.has_b_frames">1</property>
  <property name="meta.media.width">960</property>
  <property name="meta.media.height">720</property>
  <property name="meta.media.color_range">mpeg</property>
  <property name="meta.media.top_field_first">0</property>
  <property name="meta.media.progressive">1</property>
  <property name="set.test_audio">1</property>
  <property name="set.test_image">0</property>
 </producer>
 <playlist id="playlist10">
  <blank length="00:43:17.818"/>
  <entry producer="producer51" in="00:01:58.926" out="00:02:04.104">
   <property name="kdenlive:id">4</property>
   <filter id="filter51" in="00:01:58.926" out="00:02:00.634">
    <property name="start">1</property>
    <property name="level">1</property>
    <property name="mlt_service">brightness</property>
    <property name="kdenlive_id">fade_from_black</property>
    <property name="alpha">00:00:00.000=0;00:00:01.702=1</property>
    <property name="kdenlive:collapsed">0</property>
   </filter>
  </entry>
 </playlist>
 <playlist id="playlist11"/>
 <tractor id="tractor5" in="00:00:00.000" out="00:43:22.990">
  <property name="kdenlive:trackheight">67</property>
  <property name="kdenlive:timeline_active">1</property>
  <property name="kdenlive:collapsed">0</property>
  <property name="kdenlive:thumbs_format"/>
  <property name="kdenlive:audio_rec"/>
  <track hide="audio" producer="playlist10"/>
  <track hide="audio" producer="playlist11"/>
 </tractor>
 <tractor id="tractor6" in="00:00:00.000" out="02:44:09.209">
  <track producer="black_track"/>
  <track producer="tractor0"/>
  <track producer="tractor1"/>
  <track producer="tractor2"/>
  <track producer="tractor3"/>
  <track producer="tractor4"/>
  <track producer="tractor5"/>
  <transition id="transition0">
   <property name="a_track">0</property>
   <property name="b_track">1</property>
   <property name="mlt_service">mix</property>
   <property name="kdenlive_id">mix</property>
   <property name="internal_added">237</property>
   <property name="always_active">1</property>
   <property name="accepts_blanks">1</property>
   <property name="sum">1</property>
  </transition>
  <transition id="transition1">
   <property name="a_track">0</property>
   <property name="b_track">2</property>
   <property name="mlt_service">mix</property>
   <property name="kdenlive_id">mix</property>
   <property name="internal_added">237</property>
   <property name="always_active">1</property>
   <property name="accepts_blanks">1</property>
   <property name="sum">1</property>
  </transition>
  <transition id="transition2">
   <property name="a_track">0</property>
   <property name="b_track">3</property>
   <property name="mlt_service">mix</property>
   <property name="kdenlive_id">mix</property>
   <property name="internal_added">237</property>
   <property name="always_active">1</property>
   <property name="accepts_blanks">1</property>
   <property name="sum">1</property>
  </transition>
  <transition id="transition3">
   <property name="a_track">0</property>
   <property name="b_track">4</property>
   <property name="mlt_service">mix</property>
   <property name="kdenlive_id">mix</property>
   <property name="internal_added">237</property>
   <property name="always_active">1</property>
   <property name="accepts_blanks">1</property>
   <property name="sum">1</property>
  </transition>
  <transition id="transition4">
   <property name="a_track">0</property>
   <property name="b_track">5</property>
   <property name="version">0.1</property>
   <property name="mlt_service">frei0r.cairoblend</property>
   <property name="kdenlive_id">frei0r.cairoblend</property>
   <property name="internal_added">237</property>
   <property name="always_active">1</property>
  </transition>
  <transition id="transition5">
   <property name="a_track">0</property>
   <property name="b_track">6</property>
   <property name="version">0.1</property>
   <property name="mlt_service">frei0r.cairoblend</property>
   <property name="kdenlive_id">frei0r.cairoblend</property>
   <property name="internal_added">237</property>
   <property name="always_active">1</property>
  </transition>
  <filter id="filter52">
   <property name="window">75</property>
   <property name="max_gain">20dB</property>
   <property name="mlt_service">volume</property>
   <property name="internal_added">237</property>
   <property name="disable">1</property>
  </filter>
  <filter id="filter53">
   <property name="channel">-1</property>
   <property name="mlt_service">panner</property>
   <property name="internal_added">237</property>
   <property name="start">0.5</property>
   <property name="disable">1</property>
  </filter>
  <filter id="filter54">
   <property name="iec_scale">0</property>
   <property name="mlt_service">audiolevel</property>
   <property name="disable">1</property>
  </filter>
 </tractor>
</mlt>
