<?xml version='1.0' encoding='utf-8'?>
<mlt LC_NUMERIC="C" producer="main_bin" version="7.22.0" root="/mnt/data1/Anime-Edits/Monster/Monster-Editing/Editing">
 <profile frame_rate_num="24000" sample_aspect_num="1" display_aspect_den="3" colorspace="709" progressive="1" description="1440x1080 23.98fps" display_aspect_num="4" frame_rate_den="1001" width="1440" height="1080" sample_aspect_den="1"/>
 <chain id="producer1" out="00:23:55.555">
  <property name="length">34419</property>
  <property name="eof">pause</property>
  <property name="resource">/mnt/data1/Anime-Edits/Monster/Monster-Editing/Orig/Monster - Chapter 11 - Kinderheim 511.mkv</property>
  <property name="mlt_service">avformat-novalidate</property>
  <property name="audio_index">1</property>
  <property name="video_index">0</property>
  <property name="meta.media.nb_streams">82</property>
  <property name="meta.media.0.stream.type">video</property>
  <property name="meta.media.0.stream.frame_rate">23.976</property>
  <property name="meta.media.0.stream.sample_aspect_ratio">1</property>
  <property name="meta.media.0.codec.width">1440</property>
  <property name="meta.media.0.codec.height">1080</property>
  <property name="meta.media.0.codec.rotate">0</property>
  <property name="meta.media.0.codec.pix_fmt">yuv420p10le</property>
  <property name="meta.media.0.codec.sample_aspect_ratio">1</property>
  <property name="meta.media.0.codec.colorspace">709</property>
  <property name="meta.media.0.codec.color_trc">1</property>
  <property name="meta.media.0.codec.name">hevc</property>
  <property name="meta.media.0.codec.long_name">HEVC (High Efficiency Video Coding)</property>
  <property name="meta.media.0.codec.bit_rate">0</property>
  <property name="meta.attr.0.stream.BPS.markup">1977086</property>
  <property name="meta.attr.0.stream.DURATION.markup">00:23:55.518000000</property>
  <property name="meta.attr.0.stream.NUMBER_OF_FRAMES.markup">34418</property>
  <property name="meta.attr.0.stream.NUMBER_OF_BYTES.markup">354767942</property>
  <property name="meta.attr.0.stream._STATISTICS_WRITING_APP.markup">mkvmerge v61.0.0 ('So') 64-bit</property>
  <property name="meta.attr.0.stream._STATISTICS_WRITING_DATE_UTC.markup">2022-10-22 08:26:35</property>
  <property name="meta.attr.0.stream._STATISTICS_TAGS.markup">BPS DURATION NUMBER_OF_FRAMES NUMBER_OF_BYTES</property>
  <property name="meta.media.1.stream.type">audio</property>
  <property name="meta.media.1.codec.sample_fmt">fltp</property>
  <property name="meta.media.1.codec.sample_rate">48000</property>
  <property name="meta.media.1.codec.channels">2</property>
  <property name="meta.media.1.codec.name">ac3</property>
  <property name="meta.media.1.codec.long_name">ATSC A/52A (AC-3)</property>
  <property name="meta.media.1.codec.bit_rate">448000</property>
  <property name="meta.attr.1.stream.language.markup">jpn</property>
  <property name="meta.attr.1.stream.title.markup">Japanese DVD AC-3 DD_2.0</property>
  <property name="meta.attr.1.stream.BPS.markup">448000</property>
  <property name="meta.attr.1.stream.DURATION.markup">00:23:55.552000000</property>
  <property name="meta.attr.1.stream.NUMBER_OF_FRAMES.markup">44861</property>
  <property name="meta.attr.1.stream.NUMBER_OF_BYTES.markup">80390912</property>
  <property name="meta.attr.1.stream._STATISTICS_WRITING_APP.markup">mkvmerge v61.0.0 ('So') 64-bit</property>
  <property name="meta.attr.1.stream._STATISTICS_WRITING_DATE_UTC.markup">2022-10-22 08:26:35</property>
  <property name="meta.attr.1.stream._STATISTICS_TAGS.markup">BPS DURATION NUMBER_OF_FRAMES NUMBER_OF_BYTES</property>
  <property name="meta.media.2.stream.type">audio</property>
  <property name="meta.media.2.codec.sample_fmt">fltp</property>
  <property name="meta.media.2.codec.sample_rate">48000</property>
  <property name="meta.media.2.codec.channels">2</property>
  <property name="meta.media.2.codec.name">aac</property>
  <property name="meta.media.2.codec.long_name">AAC (Advanced Audio Coding)</property>
  <property name="meta.media.2.codec.bit_rate">0</property>
  <property name="meta.attr.2.stream.language.markup">eng</property>
  <property name="meta.attr.2.stream.title.markup">English AAC DD_2.0</property>
  <property name="meta.attr.2.stream.BPS.markup">157868</property>
  <property name="meta.attr.2.stream.DURATION.markup">00:23:55.285000000</property>
  <property name="meta.attr.2.stream.NUMBER_OF_FRAMES.markup">67279</property>
  <property name="meta.attr.2.stream.NUMBER_OF_BYTES.markup">28323375</property>
  <property name="meta.attr.2.stream._STATISTICS_WRITING_APP.markup">mkvmerge v61.0.0 ('So') 64-bit</property>
  <property name="meta.attr.2.stream._STATISTICS_WRITING_DATE_UTC.markup">2022-10-22 08:26:35</property>
  <property name="meta.attr.2.stream._STATISTICS_TAGS.markup">BPS DURATION NUMBER_OF_FRAMES NUMBER_OF_BYTES</property>
  <property name="meta.media.3.codec.name">ssa</property>
  <property name="meta.media.3.codec.long_name">ASS (Advanced SubStation Alpha) subtitle</property>
  <property name="meta.media.3.codec.bit_rate">0</property>
  <property name="meta.attr.3.stream.language.markup">eng</property>
  <property name="meta.attr.3.stream.title.markup">English (Full) ASS</property>
  <property name="meta.attr.3.stream.BPS.markup">102</property>
  <property name="meta.attr.3.stream.DURATION.markup">00:23:52.080000000</property>
  <property name="meta.attr.3.stream.NUMBER_OF_FRAMES.markup">322</property>
  <property name="meta.attr.3.stream.NUMBER_OF_BYTES.markup">18334</property>
  <property name="meta.attr.3.stream._STATISTICS_WRITING_APP.markup">mkvmerge v61.0.0 ('So') 64-bit</property>
  <property name="meta.attr.3.stream._STATISTICS_WRITING_DATE_UTC.markup">2022-10-22 08:26:35</property>
  <property name="meta.attr.3.stream._STATISTICS_TAGS.markup">BPS DURATION NUMBER_OF_FRAMES NUMBER_OF_BYTES</property>
  <property name="meta.media.4.codec.name">ssa</property>
  <property name="meta.media.4.codec.long_name">ASS (Advanced SubStation Alpha) subtitle</property>
  <property name="meta.media.4.codec.bit_rate">0</property>
  <property name="meta.attr.4.stream.language.markup">eng</property>
  <property name="meta.attr.4.stream.title.markup">English (Titles &amp; Signs) ASS</property>
  <property name="meta.attr.4.stream.BPS.markup">1</property>
  <property name="meta.attr.4.stream.DURATION.markup">00:23:44.630000000</property>
  <property name="meta.attr.4.stream.NUMBER_OF_FRAMES.markup">3</property>
  <property name="meta.attr.4.stream.NUMBER_OF_BYTES.markup">200</property>
  <property name="meta.attr.4.stream._STATISTICS_WRITING_APP.markup">mkvmerge v61.0.0 ('So') 64-bit</property>
  <property name="meta.attr.4.stream._STATISTICS_WRITING_DATE_UTC.markup">2022-10-22 08:26:35</property>
  <property name="meta.attr.4.stream._STATISTICS_TAGS.markup">BPS DURATION NUMBER_OF_FRAMES NUMBER_OF_BYTES</property>
  <property name="meta.media.5.codec.name">ssa</property>
  <property name="meta.media.5.codec.long_name">ASS (Advanced SubStation Alpha) subtitle</property>
  <property name="meta.media.5.codec.bit_rate">0</property>
  <property name="meta.attr.5.stream.language.markup">ara</property>
  <property name="meta.attr.5.stream.title.markup">Arabic</property>
  <property name="meta.attr.5.stream.BPS.markup">126</property>
  <property name="meta.attr.5.stream.DURATION.markup">00:22:16.190000000</property>
  <property name="meta.attr.5.stream.NUMBER_OF_FRAMES.markup">318</property>
  <property name="meta.attr.5.stream.NUMBER_OF_BYTES.markup">21119</property>
  <property name="meta.attr.5.stream._STATISTICS_WRITING_APP.markup">mkvmerge v61.0.0 ('So') 64-bit</property>
  <property name="meta.attr.5.stream._STATISTICS_WRITING_DATE_UTC.markup">2022-10-22 08:26:35</property>
  <property name="meta.attr.5.stream._STATISTICS_TAGS.markup">BPS DURATION NUMBER_OF_FRAMES NUMBER_OF_BYTES</property>
  <property name="meta.attr.title.markup">Monster : Chapter 11 : Kinderheim 511</property>
  <property name="meta.attr.encoder.markup">libebml v1.4.2 + libmatroska v1.6.4</property>
  <property name="meta.attr.creation_time.markup">2022-10-22T08:26:35.000000Z</property>
  <property name="seekable">1</property>
  <property name="meta.media.sample_aspect_num">1</property>
  <property name="meta.media.sample_aspect_den">1</property>
  <property name="aspect_ratio">1</property>
  <property name="kdenlive:clipname"/>
  <property name="kdenlive:clip_type">0</property>
  <property name="kdenlive:folderid">-1</property>
  <property name="kdenlive:id">2</property>
  <property name="kdenlive:active_streams">1;2</property>
  <property name="kdenlive:file_size">483382970</property>
  <property name="kdenlive:file_hash">b5782a0f2ff883bb9ea0b3a2e78ff8a1</property>
  <property name="meta.media.frame_rate_num">24000</property>
  <property name="meta.media.frame_rate_den">1001</property>
  <property name="meta.media.colorspace">709</property>
  <property name="meta.media.color_trc">1</property>
  <property name="meta.media.has_b_frames">2</property>
  <property name="meta.media.width">1440</property>
  <property name="meta.media.height">1080</property>
  <property name="meta.media.color_range">mpeg</property>
  <property name="meta.media.top_field_first">0</property>
  <property name="meta.media.progressive">1</property>
  <property name="kdenlive:audio_max1">181</property>
  <property name="kdenlive:audio_max2">197</property>
 </chain>
 <chain id="producer0" out="00:24:09.509">
  <property name="length">34754</property>
  <property name="eof">pause</property>
  <property name="resource">/mnt/data1/Anime-Edits/Monster/Monster-Editing/Orig/Monster - Chapter 12 - Modest Experiment.mkv</property>
  <property name="mlt_service">avformat-novalidate</property>
  <property name="audio_index">1</property>
  <property name="video_index">0</property>
  <property name="meta.media.nb_streams">81</property>
  <property name="meta.media.0.stream.type">video</property>
  <property name="meta.media.0.stream.frame_rate">23.976</property>
  <property name="meta.media.0.stream.sample_aspect_ratio">1</property>
  <property name="meta.media.0.codec.width">1440</property>
  <property name="meta.media.0.codec.height">1080</property>
  <property name="meta.media.0.codec.rotate">0</property>
  <property name="meta.media.0.codec.pix_fmt">yuv420p10le</property>
  <property name="meta.media.0.codec.sample_aspect_ratio">1</property>
  <property name="meta.media.0.codec.colorspace">709</property>
  <property name="meta.media.0.codec.color_trc">1</property>
  <property name="meta.media.0.codec.name">hevc</property>
  <property name="meta.media.0.codec.long_name">HEVC (High Efficiency Video Coding)</property>
  <property name="meta.media.0.codec.bit_rate">0</property>
  <property name="meta.attr.0.stream.BPS.markup">1781680</property>
  <property name="meta.attr.0.stream.DURATION.markup">00:24:09.532000000</property>
  <property name="meta.attr.0.stream.NUMBER_OF_FRAMES.markup">34754</property>
  <property name="meta.attr.0.stream.NUMBER_OF_BYTES.markup">322825391</property>
  <property name="meta.attr.0.stream._STATISTICS_WRITING_APP.markup">mkvmerge v61.0.0 ('So') 64-bit</property>
  <property name="meta.attr.0.stream._STATISTICS_WRITING_DATE_UTC.markup">2022-10-22 08:27:04</property>
  <property name="meta.attr.0.stream._STATISTICS_TAGS.markup">BPS DURATION NUMBER_OF_FRAMES NUMBER_OF_BYTES</property>
  <property name="meta.media.1.stream.type">audio</property>
  <property name="meta.media.1.codec.sample_fmt">fltp</property>
  <property name="meta.media.1.codec.sample_rate">48000</property>
  <property name="meta.media.1.codec.channels">2</property>
  <property name="meta.media.1.codec.name">ac3</property>
  <property name="meta.media.1.codec.long_name">ATSC A/52A (AC-3)</property>
  <property name="meta.media.1.codec.bit_rate">448000</property>
  <property name="meta.attr.1.stream.language.markup">jpn</property>
  <property name="meta.attr.1.stream.title.markup">Japanese DVD AC-3 DD_2.0</property>
  <property name="meta.attr.1.stream.BPS.markup">448000</property>
  <property name="meta.attr.1.stream.DURATION.markup">00:24:09.440000000</property>
  <property name="meta.attr.1.stream.NUMBER_OF_FRAMES.markup">45295</property>
  <property name="meta.attr.1.stream.NUMBER_OF_BYTES.markup">81168640</property>
  <property name="meta.attr.1.stream._STATISTICS_WRITING_APP.markup">mkvmerge v61.0.0 ('So') 64-bit</property>
  <property name="meta.attr.1.stream._STATISTICS_WRITING_DATE_UTC.markup">2022-10-22 08:27:04</property>
  <property name="meta.attr.1.stream._STATISTICS_TAGS.markup">BPS DURATION NUMBER_OF_FRAMES NUMBER_OF_BYTES</property>
  <property name="meta.media.2.stream.type">audio</property>
  <property name="meta.media.2.codec.sample_fmt">fltp</property>
  <property name="meta.media.2.codec.sample_rate">48000</property>
  <property name="meta.media.2.codec.channels">2</property>
  <property name="meta.media.2.codec.name">aac</property>
  <property name="meta.media.2.codec.long_name">AAC (Advanced Audio Coding)</property>
  <property name="meta.media.2.codec.bit_rate">0</property>
  <property name="meta.attr.2.stream.language.markup">eng</property>
  <property name="meta.attr.2.stream.title.markup">English AAC DD_2.0</property>
  <property name="meta.attr.2.stream.BPS.markup">167063</property>
  <property name="meta.attr.2.stream.DURATION.markup">00:23:54.795000000</property>
  <property name="meta.attr.2.stream.NUMBER_OF_FRAMES.markup">67256</property>
  <property name="meta.attr.2.stream.NUMBER_OF_BYTES.markup">29962781</property>
  <property name="meta.attr.2.stream._STATISTICS_WRITING_APP.markup">mkvmerge v61.0.0 ('So') 64-bit</property>
  <property name="meta.attr.2.stream._STATISTICS_WRITING_DATE_UTC.markup">2022-10-22 08:27:04</property>
  <property name="meta.attr.2.stream._STATISTICS_TAGS.markup">BPS DURATION NUMBER_OF_FRAMES NUMBER_OF_BYTES</property>
  <property name="meta.media.3.codec.name">ssa</property>
  <property name="meta.media.3.codec.long_name">ASS (Advanced SubStation Alpha) subtitle</property>
  <property name="meta.media.3.codec.bit_rate">0</property>
  <property name="meta.attr.3.stream.language.markup">eng</property>
  <property name="meta.attr.3.stream.title.markup">English (Full) ASS</property>
  <property name="meta.attr.3.stream.BPS.markup">71</property>
  <property name="meta.attr.3.stream.DURATION.markup">00:23:50.830000000</property>
  <property name="meta.attr.3.stream.NUMBER_OF_FRAMES.markup">238</property>
  <property name="meta.attr.3.stream.NUMBER_OF_BYTES.markup">12792</property>
  <property name="meta.attr.3.stream._STATISTICS_WRITING_APP.markup">mkvmerge v61.0.0 ('So') 64-bit</property>
  <property name="meta.attr.3.stream._STATISTICS_WRITING_DATE_UTC.markup">2022-10-22 08:27:04</property>
  <property name="meta.attr.3.stream._STATISTICS_TAGS.markup">BPS DURATION NUMBER_OF_FRAMES NUMBER_OF_BYTES</property>
  <property name="meta.media.4.codec.name">ssa</property>
  <property name="meta.media.4.codec.long_name">ASS (Advanced SubStation Alpha) subtitle</property>
  <property name="meta.media.4.codec.bit_rate">0</property>
  <property name="meta.attr.4.stream.language.markup">eng</property>
  <property name="meta.attr.4.stream.title.markup">English (Titles &amp; Signs) ASS</property>
  <property name="meta.attr.4.stream.BPS.markup">0</property>
  <property name="meta.attr.4.stream.DURATION.markup">00:20:22.470000000</property>
  <property name="meta.attr.4.stream.NUMBER_OF_FRAMES.markup">2</property>
  <property name="meta.attr.4.stream.NUMBER_OF_BYTES.markup">143</property>
  <property name="meta.attr.4.stream._STATISTICS_WRITING_APP.markup">mkvmerge v61.0.0 ('So') 64-bit</property>
  <property name="meta.attr.4.stream._STATISTICS_WRITING_DATE_UTC.markup">2022-10-22 08:27:04</property>
  <property name="meta.attr.4.stream._STATISTICS_TAGS.markup">BPS DURATION NUMBER_OF_FRAMES NUMBER_OF_BYTES</property>
  <property name="meta.media.5.codec.name">ssa</property>
  <property name="meta.media.5.codec.long_name">ASS (Advanced SubStation Alpha) subtitle</property>
  <property name="meta.media.5.codec.bit_rate">0</property>
  <property name="meta.attr.5.stream.language.markup">ara</property>
  <property name="meta.attr.5.stream.title.markup">Arabic</property>
  <property name="meta.attr.5.stream.BPS.markup">91</property>
  <property name="meta.attr.5.stream.DURATION.markup">00:22:15.420000000</property>
  <property name="meta.attr.5.stream.NUMBER_OF_FRAMES.markup">248</property>
  <property name="meta.attr.5.stream.NUMBER_OF_BYTES.markup">15212</property>
  <property name="meta.attr.5.stream._STATISTICS_WRITING_APP.markup">mkvmerge v61.0.0 ('So') 64-bit</property>
  <property name="meta.attr.5.stream._STATISTICS_WRITING_DATE_UTC.markup">2022-10-22 08:27:04</property>
  <property name="meta.attr.5.stream._STATISTICS_TAGS.markup">BPS DURATION NUMBER_OF_FRAMES NUMBER_OF_BYTES</property>
  <property name="meta.attr.title.markup">Monster : Chapter 12 : Modest Experiment</property>
  <property name="meta.attr.encoder.markup">libebml v1.4.2 + libmatroska v1.6.4</property>
  <property name="meta.attr.creation_time.markup">2022-10-22T08:27:04.000000Z</property>
  <property name="seekable">1</property>
  <property name="meta.media.sample_aspect_num">1</property>
  <property name="meta.media.sample_aspect_den">1</property>
  <property name="aspect_ratio">1</property>
  <property name="kdenlive:clipname"/>
  <property name="kdenlive:clip_type">0</property>
  <property name="kdenlive:folderid">-1</property>
  <property name="kdenlive:id">3</property>
  <property name="kdenlive:active_streams">1;2</property>
  <property name="kdenlive:file_size">453005305</property>
  <property name="kdenlive:file_hash">af074ba6d1bffabf205ce6e38dd7f26c</property>
  <property name="meta.media.frame_rate_num">24000</property>
  <property name="meta.media.frame_rate_den">1001</property>
  <property name="meta.media.colorspace">709</property>
  <property name="meta.media.color_trc">1</property>
  <property name="meta.media.has_b_frames">2</property>
  <property name="meta.media.width">1440</property>
  <property name="meta.media.height">1080</property>
  <property name="meta.media.color_range">mpeg</property>
  <property name="meta.media.top_field_first">0</property>
  <property name="meta.media.progressive">1</property>
  <property name="kdenlive:audio_max1">180</property>
  <property name="kdenlive:audio_max2">203</property>
 </chain>
 <chain id="producer2" out="00:23:55.264">
  <property name="length">34412</property>
  <property name="eof">pause</property>
  <property name="resource">/mnt/data1/Anime-Edits/Monster/Monster-Editing/Audio/eng/Ep11.flac</property>
  <property name="mlt_service">avformat</property>
  <property name="meta.media.nb_streams">1</property>
  <property name="meta.media.0.stream.type">audio</property>
  <property name="meta.media.0.codec.sample_fmt">s32</property>
  <property name="meta.media.0.codec.sample_rate">48000</property>
  <property name="meta.media.0.codec.channels">2</property>
  <property name="meta.media.0.codec.name">flac</property>
  <property name="meta.media.0.codec.long_name">FLAC (Free Lossless Audio Codec)</property>
  <property name="meta.media.0.codec.bit_rate">0</property>
  <property name="meta.attr.title.markup">Monster : Chapter 11 : Kinderheim 511</property>
  <property name="meta.attr.encoder.markup">Lavf60.3.100</property>
  <property name="seekable">1</property>
  <property name="audio_index">0</property>
  <property name="video_index">-1</property>
  <property name="kdenlive:clipname"/>
  <property name="kdenlive:clip_type">1</property>
  <property name="kdenlive:folderid">-1</property>
  <property name="kdenlive:id">4</property>
  <property name="kdenlive:file_size">216033147</property>
  <property name="kdenlive:audio_max0">180</property>
  <property name="astream">0</property>
  <property name="kdenlive:file_hash">8ad295d081b65f640ad1b717b5ee8267</property>
 </chain>
 <chain id="producer3" out="00:23:54.805">
  <property name="length">34401</property>
  <property name="eof">pause</property>
  <property name="resource">/mnt/data1/Anime-Edits/Monster/Monster-Editing/Audio/eng/Ep12.flac</property>
  <property name="mlt_service">avformat</property>
  <property name="meta.media.nb_streams">1</property>
  <property name="meta.media.0.stream.type">audio</property>
  <property name="meta.media.0.codec.sample_fmt">s32</property>
  <property name="meta.media.0.codec.sample_rate">48000</property>
  <property name="meta.media.0.codec.channels">2</property>
  <property name="meta.media.0.codec.name">flac</property>
  <property name="meta.media.0.codec.long_name">FLAC (Free Lossless Audio Codec)</property>
  <property name="meta.media.0.codec.bit_rate">0</property>
  <property name="meta.attr.title.markup">Monster : Chapter 12 : Modest Experiment</property>
  <property name="meta.attr.encoder.markup">Lavf60.3.100</property>
  <property name="seekable">1</property>
  <property name="audio_index">0</property>
  <property name="video_index">-1</property>
  <property name="kdenlive:clipname"/>
  <property name="kdenlive:clip_type">1</property>
  <property name="kdenlive:folderid">-1</property>
  <property name="kdenlive:id">5</property>
  <property name="kdenlive:file_size">231510193</property>
  <property name="kdenlive:audio_max0">169</property>
  <property name="astream">0</property>
  <property name="kdenlive:file_hash">e1f68b04ecdca2d90febb8d4e24ca7c6</property>
 </chain>
 <chain id="chain5" out="00:01:53.637">
  <property name="length">2725</property>
  <property name="eof">pause</property>
  <property name="resource">/mnt/data1/Anime-Edits/Monster/Monster-Editing/Monster [Ultimate Collection] By Kira [SEV]/Original Soundtracks [2004]/Monster - Original Soundtrack [2004]/07 - Sweet home.flac</property>
  <property name="mlt_service">avformat-novalidate</property>
  <property name="meta.media.nb_streams">2</property>
  <property name="meta.media.0.stream.type">audio</property>
  <property name="meta.media.0.codec.sample_fmt">s16</property>
  <property name="meta.media.0.codec.sample_rate">44100</property>
  <property name="meta.media.0.codec.channels">2</property>
  <property name="meta.media.0.codec.name">flac</property>
  <property name="meta.media.0.codec.long_name">FLAC (Free Lossless Audio Codec)</property>
  <property name="meta.media.0.codec.bit_rate">0</property>
  <property name="meta.media.1.stream.type">video</property>
  <property name="meta.media.1.stream.frame_rate">90000</property>
  <property name="meta.media.1.stream.sample_aspect_ratio">0</property>
  <property name="meta.media.1.codec.width">1669</property>
  <property name="meta.media.1.codec.height">1486</property>
  <property name="meta.media.1.codec.rotate">0</property>
  <property name="meta.media.1.codec.pix_fmt">yuvj420p</property>
  <property name="meta.media.1.codec.sample_aspect_ratio">0</property>
  <property name="meta.media.1.codec.colorspace">601</property>
  <property name="meta.media.1.codec.name">mjpeg</property>
  <property name="meta.media.1.codec.long_name">MJPEG (Motion JPEG)</property>
  <property name="meta.media.1.codec.bit_rate">0</property>
  <property name="meta.attr.1.stream.comment.markup">Cover (front)</property>
  <property name="meta.attr.TITLE.markup">Sweet home</property>
  <property name="meta.attr.ARTIST.markup">Kuniaki Haishima</property>
  <property name="meta.attr.ALBUM.markup">Monster : Original Soundtrack</property>
  <property name="meta.attr.DATE.markup">2004</property>
  <property name="meta.attr.GENRE.markup">Anime</property>
  <property name="meta.attr.COMPOSER.markup">Kuniaki Haishima</property>
  <property name="meta.attr.ORIGINALARTIST.markup">Kuniaki Haishima</property>
  <property name="meta.attr.ENCODEDBY.markup">Mr. J</property>
  <property name="meta.attr.track.markup">07/24</property>
  <property name="meta.attr.disc.markup">01/01</property>
  <property name="meta.attr.ORIGARTIST.markup">Kuniaki Haishima</property>
  <property name="meta.attr.ALBUM ARTIST.markup">Kuniaki Haishima</property>
  <property name="meta.attr.ARTISTSORT.markup">Kuniaki Haishima</property>
  <property name="meta.attr.ALBUMARTISTSORT.markup">Kuniaki Haishima</property>
  <property name="meta.attr.ALBUMSORT.markup">Monster : Original Soundtrack</property>
  <property name="meta.attr.COMPOSERSORT.markup">Kuniaki Haishima</property>
  <property name="meta.attr.SHOWSORT.markup">Monster</property>
  <property name="seekable">1</property>
  <property name="meta.media.sample_aspect_num">1</property>
  <property name="meta.media.sample_aspect_den">1</property>
  <property name="format">3</property>
  <property name="audio_index">0</property>
  <property name="video_index">1</property>
  <property name="vstream">0</property>
  <property name="meta.media.frame_rate_num">90000</property>
  <property name="meta.media.frame_rate_den">1</property>
  <property name="meta.media.colorspace">601</property>
  <property name="meta.media.color_trc">2</property>
  <property name="meta.media.has_b_frames">0</property>
  <property name="meta.media.width">1669</property>
  <property name="meta.media.height">1486</property>
  <property name="meta.media.color_range">full</property>
  <property name="astream">0</property>
  <property name="meta.media.top_field_first">0</property>
  <property name="meta.media.progressive">1</property>
  <property name="kdenlive:folderid">-1</property>
  <property name="kdenlive:id">8</property>
  <property name="mute_on_pause">0</property>
  <property name="kdenlive:clip_type">0</property>
  <property name="kdenlive:file_size">10865261</property>
  <property name="kdenlive:file_hash">9e63bc96e2fad646b1b71fae4cb8946e</property>
  <property name="kdenlive:audio_max0">222</property>
 </chain>
 <chain id="chain6" out="00:01:39.998">
  <property name="length">2398</property>
  <property name="eof">pause</property>
  <property name="resource">/mnt/data1/Anime-Edits/Monster/Monster-Editing/Monster [Ultimate Collection] By Kira [SEV]/Original Soundtracks [2004]/Monster - Original Soundtrack [2004]/08 - gingerly.flac</property>
  <property name="mlt_service">avformat-novalidate</property>
  <property name="meta.media.nb_streams">2</property>
  <property name="meta.media.0.stream.type">audio</property>
  <property name="meta.media.0.codec.sample_fmt">s16</property>
  <property name="meta.media.0.codec.sample_rate">44100</property>
  <property name="meta.media.0.codec.channels">2</property>
  <property name="meta.media.0.codec.name">flac</property>
  <property name="meta.media.0.codec.long_name">FLAC (Free Lossless Audio Codec)</property>
  <property name="meta.media.0.codec.bit_rate">0</property>
  <property name="meta.media.1.stream.type">video</property>
  <property name="meta.media.1.stream.frame_rate">90000</property>
  <property name="meta.media.1.stream.sample_aspect_ratio">0</property>
  <property name="meta.media.1.codec.width">1669</property>
  <property name="meta.media.1.codec.height">1486</property>
  <property name="meta.media.1.codec.rotate">0</property>
  <property name="meta.media.1.codec.pix_fmt">yuvj420p</property>
  <property name="meta.media.1.codec.sample_aspect_ratio">0</property>
  <property name="meta.media.1.codec.colorspace">601</property>
  <property name="meta.media.1.codec.name">mjpeg</property>
  <property name="meta.media.1.codec.long_name">MJPEG (Motion JPEG)</property>
  <property name="meta.media.1.codec.bit_rate">0</property>
  <property name="meta.attr.1.stream.comment.markup">Cover (front)</property>
  <property name="meta.attr.TITLE.markup">gingerly</property>
  <property name="meta.attr.ARTIST.markup">Kuniaki Haishima</property>
  <property name="meta.attr.ALBUM.markup">Monster : Original Soundtrack</property>
  <property name="meta.attr.DATE.markup">2004</property>
  <property name="meta.attr.GENRE.markup">Anime</property>
  <property name="meta.attr.COMPOSER.markup">Kuniaki Haishima</property>
  <property name="meta.attr.ORIGINALARTIST.markup">Kuniaki Haishima</property>
  <property name="meta.attr.ENCODEDBY.markup">Mr. J</property>
  <property name="meta.attr.track.markup">08/24</property>
  <property name="meta.attr.disc.markup">01/01</property>
  <property name="meta.attr.ORIGARTIST.markup">Kuniaki Haishima</property>
  <property name="meta.attr.ALBUM ARTIST.markup">Kuniaki Haishima</property>
  <property name="meta.attr.ARTISTSORT.markup">Kuniaki Haishima</property>
  <property name="meta.attr.ALBUMARTISTSORT.markup">Kuniaki Haishima</property>
  <property name="meta.attr.ALBUMSORT.markup">Monster : Original Soundtrack</property>
  <property name="meta.attr.COMPOSERSORT.markup">Kuniaki Haishima</property>
  <property name="meta.attr.SHOWSORT.markup">Monster</property>
  <property name="seekable">1</property>
  <property name="meta.media.sample_aspect_num">1</property>
  <property name="meta.media.sample_aspect_den">1</property>
  <property name="format">3</property>
  <property name="audio_index">0</property>
  <property name="video_index">1</property>
  <property name="vstream">0</property>
  <property name="meta.media.frame_rate_num">90000</property>
  <property name="meta.media.frame_rate_den">1</property>
  <property name="meta.media.colorspace">601</property>
  <property name="meta.media.color_trc">2</property>
  <property name="meta.media.has_b_frames">0</property>
  <property name="meta.media.width">1669</property>
  <property name="meta.media.height">1486</property>
  <property name="meta.media.color_range">full</property>
  <property name="astream">0</property>
  <property name="meta.media.top_field_first">0</property>
  <property name="meta.media.progressive">1</property>
  <property name="kdenlive:folderid">-1</property>
  <property name="kdenlive:id">9</property>
  <property name="mute_on_pause">0</property>
  <property name="kdenlive:clip_type">0</property>
  <property name="kdenlive:file_size">9132596</property>
  <property name="kdenlive:file_hash">b1cac6717e96c8487a89fb448e081e53</property>
  <property name="kdenlive:audio_max0">205</property>
 </chain>
 <producer id="producer4" in="00:00:00.000" out="01:02:59.017">
  <property name="length">2147483647</property>
  <property name="eof">continue</property>
  <property name="resource">black</property>
  <property name="aspect_ratio">1</property>
  <property name="mlt_service">color</property>
  <property name="kdenlive:playlistid">black_track</property>
  <property name="mlt_image_format">rgba</property>
  <property name="set.test_audio">0</property>
 </producer>
 <producer id="producer5" in="00:00:00.000" out="00:01:53.637">
  <property name="length">2725</property>
  <property name="eof">pause</property>
  <property name="resource">-1.000000:/mnt/data1/Anime-Edits/Monster/Monster-Editing/Monster [Ultimate Collection] By Kira [SEV]/Original Soundtracks [2004]/Monster - Original Soundtrack [2004]/07 - Sweet home.flac</property>
  <property name="aspect_ratio">1</property>
  <property name="meta.media.nb_streams">2</property>
  <property name="meta.media.0.stream.type">audio</property>
  <property name="meta.media.0.codec.sample_fmt">s16</property>
  <property name="meta.media.0.codec.sample_rate">44100</property>
  <property name="meta.media.0.codec.channels">2</property>
  <property name="meta.media.0.codec.name">flac</property>
  <property name="meta.media.0.codec.long_name">FLAC (Free Lossless Audio Codec)</property>
  <property name="meta.media.0.codec.bit_rate">0</property>
  <property name="meta.media.1.stream.type">video</property>
  <property name="meta.media.1.stream.frame_rate">90000</property>
  <property name="meta.media.1.stream.sample_aspect_ratio">0</property>
  <property name="meta.media.1.codec.width">1669</property>
  <property name="meta.media.1.codec.height">1486</property>
  <property name="meta.media.1.codec.rotate">0</property>
  <property name="meta.media.1.codec.pix_fmt">yuvj420p</property>
  <property name="meta.media.1.codec.sample_aspect_ratio">0</property>
  <property name="meta.media.1.codec.colorspace">601</property>
  <property name="meta.media.1.codec.name">mjpeg</property>
  <property name="meta.media.1.codec.long_name">MJPEG (Motion JPEG)</property>
  <property name="meta.media.1.codec.bit_rate">0</property>
  <property name="meta.attr.1.stream.comment.markup">Cover (front)</property>
  <property name="meta.attr.TITLE.markup">Sweet home</property>
  <property name="meta.attr.ARTIST.markup">Kuniaki Haishima</property>
  <property name="meta.attr.ALBUM.markup">Monster : Original Soundtrack</property>
  <property name="meta.attr.DATE.markup">2004</property>
  <property name="meta.attr.GENRE.markup">Anime</property>
  <property name="meta.attr.COMPOSER.markup">Kuniaki Haishima</property>
  <property name="meta.attr.ORIGINALARTIST.markup">Kuniaki Haishima</property>
  <property name="meta.attr.ENCODEDBY.markup">Mr. J</property>
  <property name="meta.attr.track.markup">07/24</property>
  <property name="meta.attr.disc.markup">01/01</property>
  <property name="meta.attr.ORIGARTIST.markup">Kuniaki Haishima</property>
  <property name="meta.attr.ALBUM ARTIST.markup">Kuniaki Haishima</property>
  <property name="meta.attr.ARTISTSORT.markup">Kuniaki Haishima</property>
  <property name="meta.attr.ALBUMARTISTSORT.markup">Kuniaki Haishima</property>
  <property name="meta.attr.ALBUMSORT.markup">Monster : Original Soundtrack</property>
  <property name="meta.attr.COMPOSERSORT.markup">Kuniaki Haishima</property>
  <property name="meta.attr.SHOWSORT.markup">Monster</property>
  <property name="seekable">1</property>
  <property name="meta.media.sample_aspect_num">1</property>
  <property name="meta.media.sample_aspect_den">1</property>
  <property name="format">3</property>
  <property name="audio_index">0</property>
  <property name="video_index">1</property>
  <property name="warp_speed">-1</property>
  <property name="warp_resource">/mnt/data1/Anime-Edits/Monster/Monster-Editing/Monster [Ultimate Collection] By Kira [SEV]/Original Soundtracks [2004]/Monster - Original Soundtrack [2004]/07 - Sweet home.flac</property>
  <property name="mlt_service">timewarp</property>
  <property name="vstream">0</property>
  <property name="astream">0</property>
  <property name="set.test_audio">0</property>
  <property name="set.test_image">1</property>
  <property name="kdenlive:id">8</property>
  <property name="warp_pitch">0</property>
  <property name="meta.media.frame_rate_num">90000</property>
  <property name="meta.media.frame_rate_den">1</property>
  <property name="meta.media.colorspace">601</property>
  <property name="meta.media.color_trc">2</property>
  <property name="meta.media.has_b_frames">0</property>
  <property name="meta.media.width">1669</property>
  <property name="meta.media.height">1486</property>
  <property name="meta.media.color_range">full</property>
 </producer>
 <playlist id="playlist0">
  <property name="kdenlive:audio_track">1</property>
  <blank length="00:27:50.175"/>
  <entry producer="producer5" in="00:00:00.000" out="00:01:53.637">
   <property name="kdenlive:id">8</property>
   <filter id="filter0">
    <property name="window">75</property>
    <property name="max_gain">20dB</property>
    <property name="mlt_service">volume</property>
    <property name="kdenlive_id">gain</property>
    <property name="gain">0.3</property>
    <property name="kdenlive:collapsed">0</property>
   </filter>
   <filter id="filter1">
    <property name="mlt_service">rbpitch</property>
    <property name="kdenlive_id">rbpitch</property>
    <property name="pitchscale">0.1</property>
    <property name="stretch">0</property>
    <property name="latency">95</property>
    <property name="kdenlive:collapsed">0</property>
   </filter>
   <filter id="filter2" in="00:01:38.080" out="00:01:53.637">
    <property name="window">75</property>
    <property name="max_gain">20dB</property>
    <property name="mlt_service">volume</property>
    <property name="kdenlive_id">fadeout</property>
    <property name="gain">1</property>
    <property name="end">0</property>
    <property name="kdenlive:collapsed">0</property>
   </filter>
   <filter id="filter3" out="00:01:06.757">
    <property name="window">75</property>
    <property name="max_gain">20dB</property>
    <property name="mlt_service">volume</property>
    <property name="kdenlive_id">fadein</property>
    <property name="gain">0</property>
    <property name="end">1</property>
    <property name="kdenlive:collapsed">0</property>
   </filter>
  </entry>
 </playlist>
 <playlist id="playlist1">
  <property name="kdenlive:audio_track">1</property>
 </playlist>
 <tractor id="tractor0" in="00:00:00.000" out="00:29:43.794">
  <property name="kdenlive:audio_track">1</property>
  <property name="kdenlive:trackheight">67</property>
  <property name="kdenlive:timeline_active">1</property>
  <property name="kdenlive:collapsed">0</property>
  <property name="kdenlive:thumbs_format"/>
  <property name="kdenlive:audio_rec"/>
  <track hide="video" producer="playlist0"/>
  <track hide="video" producer="playlist1"/>
  <filter id="filter4">
   <property name="window">75</property>
   <property name="max_gain">20dB</property>
   <property name="mlt_service">volume</property>
   <property name="internal_added">237</property>
   <property name="disable">1</property>
  </filter>
  <filter id="filter5">
   <property name="channel">-1</property>
   <property name="mlt_service">panner</property>
   <property name="internal_added">237</property>
   <property name="start">0.5</property>
   <property name="disable">1</property>
  </filter>
  <filter id="filter6">
   <property name="iec_scale">0</property>
   <property name="mlt_service">audiolevel</property>
   <property name="dbpeak">1</property>
   <property name="disable">1</property>
  </filter>
 </tractor>
 <chain id="chain0" out="00:23:54.805">
  <property name="length">34401</property>
  <property name="eof">pause</property>
  <property name="resource">/mnt/data1/Anime-Edits/Monster/Monster-Editing/Audio/eng/Ep12.flac</property>
  <property name="mlt_service">avformat-novalidate</property>
  <property name="audio_index">0</property>
  <property name="video_index">-1</property>
  <property name="meta.media.nb_streams">1</property>
  <property name="meta.media.0.stream.type">audio</property>
  <property name="meta.media.0.codec.sample_fmt">s32</property>
  <property name="meta.media.0.codec.sample_rate">48000</property>
  <property name="meta.media.0.codec.channels">2</property>
  <property name="meta.media.0.codec.name">flac</property>
  <property name="meta.media.0.codec.long_name">FLAC (Free Lossless Audio Codec)</property>
  <property name="meta.media.0.codec.bit_rate">0</property>
  <property name="meta.attr.title.markup">Monster : Chapter 12 : Modest Experiment</property>
  <property name="meta.attr.encoder.markup">Lavf60.3.100</property>
  <property name="seekable">1</property>
  <property name="kdenlive:clipname"/>
  <property name="kdenlive:clip_type">1</property>
  <property name="kdenlive:folderid">-1</property>
  <property name="kdenlive:id">5</property>
  <property name="kdenlive:file_size">275480704</property>
  <property name="kdenlive:file_hash">a3b31205fc606bfb57b65971a0309611</property>
  <property name="kdenlive:audio_max0">213</property>
  <property name="xml">was here</property>
  <property name="set.test_audio">0</property>
  <property name="set.test_image">1</property>
  <property name="astream">0</property>
 </chain>
 <chain id="chain1" out="00:01:53.637">
  <property name="length">2725</property>
  <property name="eof">pause</property>
  <property name="resource">/mnt/data1/Anime-Edits/Monster/Monster-Editing/Monster [Ultimate Collection] By Kira [SEV]/Original Soundtracks [2004]/Monster - Original Soundtrack [2004]/07 - Sweet home.flac</property>
  <property name="mlt_service">avformat-novalidate</property>
  <property name="seekable">1</property>
  <property name="format">3</property>
  <property name="audio_index">0</property>
  <property name="video_index">1</property>
  <property name="vstream">0</property>
  <property name="astream">0</property>
  <property name="kdenlive:folderid">-1</property>
  <property name="kdenlive:id">8</property>
  <property name="mute_on_pause">0</property>
  <property name="kdenlive:clip_type">0</property>
  <property name="kdenlive:file_size">10865261</property>
  <property name="kdenlive:file_hash">9e63bc96e2fad646b1b71fae4cb8946e</property>
  <property name="kdenlive:audio_max0">222</property>
  <property name="meta.media.nb_streams">2</property>
  <property name="meta.media.0.stream.type">audio</property>
  <property name="meta.media.0.codec.sample_fmt">s16</property>
  <property name="meta.media.0.codec.sample_rate">44100</property>
  <property name="meta.media.0.codec.channels">2</property>
  <property name="meta.media.0.codec.name">flac</property>
  <property name="meta.media.0.codec.long_name">FLAC (Free Lossless Audio Codec)</property>
  <property name="meta.media.0.codec.bit_rate">0</property>
  <property name="meta.media.1.stream.type">video</property>
  <property name="meta.media.1.stream.frame_rate">90000</property>
  <property name="meta.media.1.stream.sample_aspect_ratio">0</property>
  <property name="meta.media.1.codec.width">1669</property>
  <property name="meta.media.1.codec.height">1486</property>
  <property name="meta.media.1.codec.rotate">0</property>
  <property name="meta.media.1.codec.pix_fmt">yuvj420p</property>
  <property name="meta.media.1.codec.sample_aspect_ratio">0</property>
  <property name="meta.media.1.codec.colorspace">601</property>
  <property name="meta.media.1.codec.name">mjpeg</property>
  <property name="meta.media.1.codec.long_name">MJPEG (Motion JPEG)</property>
  <property name="meta.media.1.codec.bit_rate">0</property>
  <property name="meta.attr.1.stream.comment.markup">Cover (front)</property>
  <property name="meta.attr.TITLE.markup">Sweet home</property>
  <property name="meta.attr.ARTIST.markup">Kuniaki Haishima</property>
  <property name="meta.attr.ALBUM.markup">Monster : Original Soundtrack</property>
  <property name="meta.attr.DATE.markup">2004</property>
  <property name="meta.attr.GENRE.markup">Anime</property>
  <property name="meta.attr.COMPOSER.markup">Kuniaki Haishima</property>
  <property name="meta.attr.ORIGINALARTIST.markup">Kuniaki Haishima</property>
  <property name="meta.attr.ENCODEDBY.markup">Mr. J</property>
  <property name="meta.attr.track.markup">07/24</property>
  <property name="meta.attr.disc.markup">01/01</property>
  <property name="meta.attr.ORIGARTIST.markup">Kuniaki Haishima</property>
  <property name="meta.attr.ALBUM ARTIST.markup">Kuniaki Haishima</property>
  <property name="meta.attr.ARTISTSORT.markup">Kuniaki Haishima</property>
  <property name="meta.attr.ALBUMARTISTSORT.markup">Kuniaki Haishima</property>
  <property name="meta.attr.ALBUMSORT.markup">Monster : Original Soundtrack</property>
  <property name="meta.attr.COMPOSERSORT.markup">Kuniaki Haishima</property>
  <property name="meta.attr.SHOWSORT.markup">Monster</property>
  <property name="meta.media.sample_aspect_num">1</property>
  <property name="meta.media.sample_aspect_den">1</property>
  <property name="meta.media.frame_rate_num">90000</property>
  <property name="meta.media.frame_rate_den">1</property>
  <property name="meta.media.colorspace">601</property>
  <property name="meta.media.color_trc">2</property>
  <property name="meta.media.has_b_frames">0</property>
  <property name="meta.media.width">1669</property>
  <property name="meta.media.height">1486</property>
  <property name="meta.media.color_range">full</property>
  <property name="xml">was here</property>
  <property name="meta.media.top_field_first">0</property>
  <property name="meta.media.progressive">1</property>
  <property name="set.test_audio">0</property>
  <property name="set.test_image">1</property>
 </chain>
 <producer id="producer6" in="00:00:00.000" out="00:01:19.978">
  <property name="length">1918</property>
  <property name="eof">pause</property>
  <property name="resource">1.250000:/mnt/data1/Anime-Edits/Monster/Monster-Editing/Monster [Ultimate Collection] By Kira [SEV]/Original Soundtracks [2004]/Monster - Original Soundtrack [2004]/08 - gingerly.flac</property>
  <property name="aspect_ratio">1</property>
  <property name="meta.media.nb_streams">2</property>
  <property name="meta.media.0.stream.type">audio</property>
  <property name="meta.media.0.codec.sample_fmt">s16</property>
  <property name="meta.media.0.codec.sample_rate">44100</property>
  <property name="meta.media.0.codec.channels">2</property>
  <property name="meta.media.0.codec.name">flac</property>
  <property name="meta.media.0.codec.long_name">FLAC (Free Lossless Audio Codec)</property>
  <property name="meta.media.0.codec.bit_rate">0</property>
  <property name="meta.media.1.stream.type">video</property>
  <property name="meta.media.1.stream.frame_rate">90000</property>
  <property name="meta.media.1.stream.sample_aspect_ratio">0</property>
  <property name="meta.media.1.codec.width">1669</property>
  <property name="meta.media.1.codec.height">1486</property>
  <property name="meta.media.1.codec.rotate">0</property>
  <property name="meta.media.1.codec.pix_fmt">yuvj420p</property>
  <property name="meta.media.1.codec.sample_aspect_ratio">0</property>
  <property name="meta.media.1.codec.colorspace">601</property>
  <property name="meta.media.1.codec.name">mjpeg</property>
  <property name="meta.media.1.codec.long_name">MJPEG (Motion JPEG)</property>
  <property name="meta.media.1.codec.bit_rate">0</property>
  <property name="meta.attr.1.stream.comment.markup">Cover (front)</property>
  <property name="meta.attr.TITLE.markup">gingerly</property>
  <property name="meta.attr.ARTIST.markup">Kuniaki Haishima</property>
  <property name="meta.attr.ALBUM.markup">Monster : Original Soundtrack</property>
  <property name="meta.attr.DATE.markup">2004</property>
  <property name="meta.attr.GENRE.markup">Anime</property>
  <property name="meta.attr.COMPOSER.markup">Kuniaki Haishima</property>
  <property name="meta.attr.ORIGINALARTIST.markup">Kuniaki Haishima</property>
  <property name="meta.attr.ENCODEDBY.markup">Mr. J</property>
  <property name="meta.attr.track.markup">08/24</property>
  <property name="meta.attr.disc.markup">01/01</property>
  <property name="meta.attr.ORIGARTIST.markup">Kuniaki Haishima</property>
  <property name="meta.attr.ALBUM ARTIST.markup">Kuniaki Haishima</property>
  <property name="meta.attr.ARTISTSORT.markup">Kuniaki Haishima</property>
  <property name="meta.attr.ALBUMARTISTSORT.markup">Kuniaki Haishima</property>
  <property name="meta.attr.ALBUMSORT.markup">Monster : Original Soundtrack</property>
  <property name="meta.attr.COMPOSERSORT.markup">Kuniaki Haishima</property>
  <property name="meta.attr.SHOWSORT.markup">Monster</property>
  <property name="seekable">1</property>
  <property name="meta.media.sample_aspect_num">1</property>
  <property name="meta.media.sample_aspect_den">1</property>
  <property name="format">3</property>
  <property name="audio_index">0</property>
  <property name="video_index">1</property>
  <property name="warp_speed">1.25</property>
  <property name="warp_resource">/mnt/data1/Anime-Edits/Monster/Monster-Editing/Monster [Ultimate Collection] By Kira [SEV]/Original Soundtracks [2004]/Monster - Original Soundtrack [2004]/08 - gingerly.flac</property>
  <property name="mlt_service">timewarp</property>
  <property name="vstream">0</property>
  <property name="astream">0</property>
  <property name="set.test_audio">0</property>
  <property name="set.test_image">1</property>
  <property name="kdenlive:id">9</property>
  <property name="warp_pitch">1</property>
  <property name="meta.media.frame_rate_num">90000</property>
  <property name="meta.media.frame_rate_den">1</property>
  <property name="meta.media.colorspace">601</property>
  <property name="meta.media.color_trc">2</property>
  <property name="meta.media.has_b_frames">0</property>
  <property name="meta.media.width">1669</property>
  <property name="meta.media.height">1486</property>
  <property name="meta.media.color_range">full</property>
 </producer>
 <playlist id="playlist2">
  <property name="kdenlive:audio_track">1</property>
  <blank length="00:22:23.649"/>
  <entry producer="chain0" in="00:03:28.320" out="00:03:40.707">
   <property name="kdenlive:id">5</property>
   <filter id="filter7" in="00:03:40.415" out="00:03:40.707">
    <property name="window">75</property>
    <property name="max_gain">20dB</property>
    <property name="mlt_service">volume</property>
    <property name="kdenlive_id">fadeout</property>
    <property name="gain">1</property>
    <property name="end">0</property>
   </filter>
  </entry>
  <blank length="00:04:33.033"/>
  <entry producer="chain1" in="00:00:00.000" out="00:01:53.637">
   <property name="kdenlive:id">8</property>
   <property name="kdenlive:activeeffect">1</property>
   <filter id="filter8">
    <property name="window">75</property>
    <property name="max_gain">20dB</property>
    <property name="mlt_service">volume</property>
    <property name="kdenlive_id">gain</property>
    <property name="gain">0.3</property>
    <property name="kdenlive:collapsed">0</property>
   </filter>
   <filter id="filter9">
    <property name="mlt_service">rbpitch</property>
    <property name="kdenlive_id">rbpitch</property>
    <property name="pitchscale">0.1</property>
    <property name="stretch">0</property>
    <property name="latency">95</property>
    <property name="kdenlive:collapsed">0</property>
   </filter>
   <filter id="filter10" in="00:01:18.727" out="00:01:53.637">
    <property name="window">75</property>
    <property name="max_gain">20dB</property>
    <property name="mlt_service">volume</property>
    <property name="kdenlive_id">fadeout</property>
    <property name="gain">1</property>
    <property name="end">0</property>
   </filter>
  </entry>
  <blank length="00:00:30.822"/>
  <entry producer="chain0" in="00:10:49.174" out="00:11:23.482">
   <property name="kdenlive:id">5</property>
   <filter id="filter11" in="00:10:49.174" out="00:10:49.424">
    <property name="window">75</property>
    <property name="max_gain">20dB</property>
    <property name="mlt_service">volume</property>
    <property name="kdenlive_id">fadein</property>
    <property name="gain">0</property>
    <property name="end">1</property>
    <property name="kdenlive:collapsed">0</property>
   </filter>
   <filter id="filter12" in="00:11:14.681" out="00:11:23.482">
    <property name="window">75</property>
    <property name="max_gain">20dB</property>
    <property name="mlt_service">volume</property>
    <property name="kdenlive_id">fadeout</property>
    <property name="gain">1</property>
    <property name="end">0</property>
   </filter>
  </entry>
  <blank length="00:03:31.323"/>
  <entry producer="producer6" in="00:00:00.000" out="00:01:19.978">
   <property name="kdenlive:id">9</property>
   <filter id="filter13">
    <property name="mlt_service">rbpitch</property>
    <property name="kdenlive_id">rbpitch</property>
    <property name="pitchscale">0.25</property>
    <property name="stretch">0</property>
    <property name="latency">90.2083</property>
    <property name="kdenlive:collapsed">0</property>
   </filter>
   <filter id="filter14">
    <property name="window">75</property>
    <property name="max_gain">20dB</property>
    <property name="mlt_service">volume</property>
    <property name="kdenlive_id">gain</property>
    <property name="gain">0.25</property>
    <property name="kdenlive:collapsed">0</property>
   </filter>
  </entry>
 </playlist>
 <playlist id="playlist3">
  <property name="kdenlive:audio_track">1</property>
 </playlist>
 <tractor id="tractor1" in="00:00:00.000" out="00:34:59.184">
  <property name="kdenlive:audio_track">1</property>
  <property name="kdenlive:trackheight">67</property>
  <property name="kdenlive:timeline_active">1</property>
  <property name="kdenlive:collapsed">0</property>
  <property name="kdenlive:thumbs_format"/>
  <property name="kdenlive:audio_rec"/>
  <track hide="video" producer="playlist2"/>
  <track hide="video" producer="playlist3"/>
  <filter id="filter15">
   <property name="window">75</property>
   <property name="max_gain">20dB</property>
   <property name="mlt_service">volume</property>
   <property name="internal_added">237</property>
   <property name="disable">1</property>
  </filter>
  <filter id="filter16">
   <property name="channel">-1</property>
   <property name="mlt_service">panner</property>
   <property name="internal_added">237</property>
   <property name="start">0.5</property>
   <property name="disable">1</property>
  </filter>
  <filter id="filter17">
   <property name="iec_scale">0</property>
   <property name="mlt_service">audiolevel</property>
   <property name="dbpeak">1</property>
   <property name="disable">1</property>
  </filter>
 </tractor>
 <chain id="chain2" out="00:23:55.264">
  <property name="length">34412</property>
  <property name="eof">pause</property>
  <property name="resource">/mnt/data1/Anime-Edits/Monster/Monster-Editing/Audio/eng/Ep11.flac</property>
  <property name="mlt_service">avformat-novalidate</property>
  <property name="audio_index">0</property>
  <property name="video_index">-1</property>
  <property name="meta.media.nb_streams">1</property>
  <property name="meta.media.0.stream.type">audio</property>
  <property name="meta.media.0.codec.sample_fmt">s32</property>
  <property name="meta.media.0.codec.sample_rate">48000</property>
  <property name="meta.media.0.codec.channels">2</property>
  <property name="meta.media.0.codec.name">flac</property>
  <property name="meta.media.0.codec.long_name">FLAC (Free Lossless Audio Codec)</property>
  <property name="meta.media.0.codec.bit_rate">0</property>
  <property name="meta.attr.title.markup">Monster : Chapter 11 : Kinderheim 511</property>
  <property name="meta.attr.encoder.markup">Lavf60.3.100</property>
  <property name="seekable">1</property>
  <property name="kdenlive:clipname"/>
  <property name="kdenlive:clip_type">1</property>
  <property name="kdenlive:folderid">-1</property>
  <property name="kdenlive:id">4</property>
  <property name="kdenlive:file_size">275574908</property>
  <property name="kdenlive:file_hash">99b11edb439e421cd834f66a7b8fa940</property>
  <property name="kdenlive:audio_max0">192</property>
  <property name="xml">was here</property>
  <property name="set.test_audio">0</property>
  <property name="set.test_image">1</property>
  <property name="astream">0</property>
 </chain>
 <chain id="chain3" out="00:23:54.805">
  <property name="length">34401</property>
  <property name="eof">pause</property>
  <property name="resource">/mnt/data1/Anime-Edits/Monster/Monster-Editing/Audio/eng/Ep12.flac</property>
  <property name="mlt_service">avformat-novalidate</property>
  <property name="audio_index">0</property>
  <property name="video_index">-1</property>
  <property name="meta.media.nb_streams">1</property>
  <property name="meta.media.0.stream.type">audio</property>
  <property name="meta.media.0.codec.sample_fmt">s32</property>
  <property name="meta.media.0.codec.sample_rate">48000</property>
  <property name="meta.media.0.codec.channels">2</property>
  <property name="meta.media.0.codec.name">flac</property>
  <property name="meta.media.0.codec.long_name">FLAC (Free Lossless Audio Codec)</property>
  <property name="meta.media.0.codec.bit_rate">0</property>
  <property name="meta.attr.title.markup">Monster : Chapter 12 : Modest Experiment</property>
  <property name="meta.attr.encoder.markup">Lavf60.3.100</property>
  <property name="seekable">1</property>
  <property name="kdenlive:clipname"/>
  <property name="kdenlive:clip_type">1</property>
  <property name="kdenlive:folderid">-1</property>
  <property name="kdenlive:id">5</property>
  <property name="kdenlive:file_size">275480704</property>
  <property name="kdenlive:file_hash">a3b31205fc606bfb57b65971a0309611</property>
  <property name="kdenlive:audio_max0">213</property>
  <property name="xml">was here</property>
  <property name="set.test_audio">0</property>
  <property name="set.test_image">1</property>
  <property name="astream">0</property>
 </chain>
 <producer id="producer7" in="00:00:00.000" out="00:01:53.637">
  <property name="length">2725</property>
  <property name="eof">pause</property>
  <property name="resource">-1.000000:/mnt/data1/Anime-Edits/Monster/Monster-Editing/Monster [Ultimate Collection] By Kira [SEV]/Original Soundtracks [2004]/Monster - Original Soundtrack [2004]/07 - Sweet home.flac</property>
  <property name="aspect_ratio">1</property>
  <property name="meta.media.nb_streams">2</property>
  <property name="meta.media.0.stream.type">audio</property>
  <property name="meta.media.0.codec.sample_fmt">s16</property>
  <property name="meta.media.0.codec.sample_rate">44100</property>
  <property name="meta.media.0.codec.channels">2</property>
  <property name="meta.media.0.codec.name">flac</property>
  <property name="meta.media.0.codec.long_name">FLAC (Free Lossless Audio Codec)</property>
  <property name="meta.media.0.codec.bit_rate">0</property>
  <property name="meta.media.1.stream.type">video</property>
  <property name="meta.media.1.stream.frame_rate">90000</property>
  <property name="meta.media.1.stream.sample_aspect_ratio">0</property>
  <property name="meta.media.1.codec.width">1669</property>
  <property name="meta.media.1.codec.height">1486</property>
  <property name="meta.media.1.codec.rotate">0</property>
  <property name="meta.media.1.codec.pix_fmt">yuvj420p</property>
  <property name="meta.media.1.codec.sample_aspect_ratio">0</property>
  <property name="meta.media.1.codec.colorspace">601</property>
  <property name="meta.media.1.codec.name">mjpeg</property>
  <property name="meta.media.1.codec.long_name">MJPEG (Motion JPEG)</property>
  <property name="meta.media.1.codec.bit_rate">0</property>
  <property name="meta.attr.1.stream.comment.markup">Cover (front)</property>
  <property name="meta.attr.TITLE.markup">Sweet home</property>
  <property name="meta.attr.ARTIST.markup">Kuniaki Haishima</property>
  <property name="meta.attr.ALBUM.markup">Monster : Original Soundtrack</property>
  <property name="meta.attr.DATE.markup">2004</property>
  <property name="meta.attr.GENRE.markup">Anime</property>
  <property name="meta.attr.COMPOSER.markup">Kuniaki Haishima</property>
  <property name="meta.attr.ORIGINALARTIST.markup">Kuniaki Haishima</property>
  <property name="meta.attr.ENCODEDBY.markup">Mr. J</property>
  <property name="meta.attr.track.markup">07/24</property>
  <property name="meta.attr.disc.markup">01/01</property>
  <property name="meta.attr.ORIGARTIST.markup">Kuniaki Haishima</property>
  <property name="meta.attr.ALBUM ARTIST.markup">Kuniaki Haishima</property>
  <property name="meta.attr.ARTISTSORT.markup">Kuniaki Haishima</property>
  <property name="meta.attr.ALBUMARTISTSORT.markup">Kuniaki Haishima</property>
  <property name="meta.attr.ALBUMSORT.markup">Monster : Original Soundtrack</property>
  <property name="meta.attr.COMPOSERSORT.markup">Kuniaki Haishima</property>
  <property name="meta.attr.SHOWSORT.markup">Monster</property>
  <property name="seekable">1</property>
  <property name="meta.media.sample_aspect_num">1</property>
  <property name="meta.media.sample_aspect_den">1</property>
  <property name="format">3</property>
  <property name="audio_index">0</property>
  <property name="video_index">1</property>
  <property name="warp_speed">-1</property>
  <property name="warp_resource">/mnt/data1/Anime-Edits/Monster/Monster-Editing/Monster [Ultimate Collection] By Kira [SEV]/Original Soundtracks [2004]/Monster - Original Soundtrack [2004]/07 - Sweet home.flac</property>
  <property name="mlt_service">timewarp</property>
  <property name="vstream">0</property>
  <property name="astream">0</property>
  <property name="set.test_audio">0</property>
  <property name="set.test_image">1</property>
  <property name="kdenlive:id">8</property>
  <property name="warp_pitch">0</property>
  <property name="meta.media.frame_rate_num">90000</property>
  <property name="meta.media.frame_rate_den">1</property>
  <property name="meta.media.colorspace">601</property>
  <property name="meta.media.color_trc">2</property>
  <property name="meta.media.has_b_frames">0</property>
  <property name="meta.media.width">1669</property>
  <property name="meta.media.height">1486</property>
  <property name="meta.media.color_range">full</property>
 </producer>
 <playlist id="playlist4">
  <property name="kdenlive:audio_track">1</property>
  <entry producer="chain2" in="00:00:00.000" out="00:22:27.027">
   <property name="kdenlive:id">4</property>
  </entry>
  <blank length="00:00:08.091"/>
  <entry producer="chain3" in="00:03:48.757" out="00:10:47.506">
   <property name="kdenlive:id">5</property>
   <filter id="filter18" in="00:03:48.757" out="00:03:49.383">
    <property name="window">75</property>
    <property name="max_gain">20dB</property>
    <property name="mlt_service">volume</property>
    <property name="kdenlive_id">fadein</property>
    <property name="gain">0</property>
    <property name="end">1</property>
    <property name="kdenlive:collapsed">0</property>
   </filter>
   <filter id="filter19" in="00:10:47.214" out="00:10:47.506">
    <property name="window">75</property>
    <property name="max_gain">20dB</property>
    <property name="mlt_service">volume</property>
    <property name="kdenlive_id">fadeout</property>
    <property name="gain">1</property>
    <property name="end">0</property>
    <property name="kdenlive:collapsed">0</property>
   </filter>
  </entry>
  <entry producer="producer7" in="00:00:00.000" out="00:00:29.112">
   <property name="kdenlive:id">8</property>
   <filter id="filter20">
    <property name="window">75</property>
    <property name="max_gain">20dB</property>
    <property name="mlt_service">volume</property>
    <property name="kdenlive_id">gain</property>
    <property name="gain">0.3</property>
    <property name="kdenlive:collapsed">0</property>
   </filter>
   <filter id="filter21">
    <property name="mlt_service">rbpitch</property>
    <property name="kdenlive_id">rbpitch</property>
    <property name="pitchscale">0.1</property>
    <property name="stretch">0</property>
    <property name="latency">95.0833</property>
    <property name="kdenlive:collapsed">0</property>
   </filter>
   <filter id="filter22" in="00:00:19.770" out="00:00:29.112">
    <property name="window">75</property>
    <property name="max_gain">20dB</property>
    <property name="mlt_service">volume</property>
    <property name="kdenlive_id">fadeout</property>
    <property name="gain">1</property>
    <property name="end">0</property>
    <property name="kdenlive:collapsed">0</property>
   </filter>
  </entry>
  <entry producer="chain3" in="00:11:29.029" out="00:15:58.058">
   <property name="kdenlive:id">5</property>
   <filter id="filter23" in="00:11:29.029" out="00:11:30.781">
    <property name="window">75</property>
    <property name="max_gain">20dB</property>
    <property name="mlt_service">volume</property>
    <property name="kdenlive_id">fadein</property>
    <property name="gain">0</property>
    <property name="end">1</property>
    <property name="kdenlive:collapsed">0</property>
   </filter>
  </entry>
  <entry producer="chain3" in="00:16:01.501" out="00:23:37.037">
   <property name="kdenlive:id">5</property>
  </entry>
 </playlist>
 <playlist id="playlist5">
  <property name="kdenlive:audio_track">1</property>
 </playlist>
 <tractor id="tractor2" in="00:00:00.000" out="00:42:07.716">
  <property name="kdenlive:audio_track">1</property>
  <property name="kdenlive:trackheight">67</property>
  <property name="kdenlive:timeline_active">1</property>
  <property name="kdenlive:collapsed">0</property>
  <property name="kdenlive:thumbs_format"/>
  <property name="kdenlive:audio_rec"/>
  <track hide="video" producer="playlist4"/>
  <track hide="video" producer="playlist5"/>
  <filter id="filter24">
   <property name="window">75</property>
   <property name="max_gain">20dB</property>
   <property name="mlt_service">volume</property>
   <property name="internal_added">237</property>
   <property name="disable">1</property>
  </filter>
  <filter id="filter25">
   <property name="channel">-1</property>
   <property name="mlt_service">panner</property>
   <property name="internal_added">237</property>
   <property name="start">0.5</property>
   <property name="disable">1</property>
  </filter>
  <filter id="filter26">
   <property name="iec_scale">0</property>
   <property name="mlt_service">audiolevel</property>
   <property name="dbpeak">1</property>
   <property name="disable">1</property>
  </filter>
 </tractor>
 <chain id="chain4" out="00:23:55.555">
  <property name="length">34419</property>
  <property name="eof">pause</property>
  <property name="resource">/mnt/data1/Anime-Edits/Monster/Monster-Editing/Orig/Monster - Chapter 11 - Kinderheim 511.mkv</property>
  <property name="mlt_service">avformat-novalidate</property>
  <property name="audio_index">1</property>
  <property name="video_index">0</property>
  <property name="meta.media.nb_streams">82</property>
  <property name="meta.media.0.stream.type">video</property>
  <property name="meta.media.0.stream.frame_rate">23.976</property>
  <property name="meta.media.0.stream.sample_aspect_ratio">1</property>
  <property name="meta.media.0.codec.width">1440</property>
  <property name="meta.media.0.codec.height">1080</property>
  <property name="meta.media.0.codec.rotate">0</property>
  <property name="meta.media.0.codec.pix_fmt">yuv420p10le</property>
  <property name="meta.media.0.codec.sample_aspect_ratio">1</property>
  <property name="meta.media.0.codec.colorspace">709</property>
  <property name="meta.media.0.codec.color_trc">1</property>
  <property name="meta.media.0.codec.name">hevc</property>
  <property name="meta.media.0.codec.long_name">HEVC (High Efficiency Video Coding)</property>
  <property name="meta.media.0.codec.bit_rate">0</property>
  <property name="meta.attr.0.stream.BPS.markup">1977086</property>
  <property name="meta.attr.0.stream.DURATION.markup">00:23:55.518000000</property>
  <property name="meta.attr.0.stream.NUMBER_OF_FRAMES.markup">34418</property>
  <property name="meta.attr.0.stream.NUMBER_OF_BYTES.markup">354767942</property>
  <property name="meta.attr.0.stream._STATISTICS_WRITING_APP.markup">mkvmerge v61.0.0 ('So') 64-bit</property>
  <property name="meta.attr.0.stream._STATISTICS_WRITING_DATE_UTC.markup">2022-10-22 08:26:35</property>
  <property name="meta.attr.0.stream._STATISTICS_TAGS.markup">BPS DURATION NUMBER_OF_FRAMES NUMBER_OF_BYTES</property>
  <property name="meta.media.1.stream.type">audio</property>
  <property name="meta.media.1.codec.sample_fmt">fltp</property>
  <property name="meta.media.1.codec.sample_rate">48000</property>
  <property name="meta.media.1.codec.channels">2</property>
  <property name="meta.media.1.codec.name">ac3</property>
  <property name="meta.media.1.codec.long_name">ATSC A/52A (AC-3)</property>
  <property name="meta.media.1.codec.bit_rate">448000</property>
  <property name="meta.attr.1.stream.language.markup">jpn</property>
  <property name="meta.attr.1.stream.title.markup">Japanese DVD AC-3 DD_2.0</property>
  <property name="meta.attr.1.stream.BPS.markup">448000</property>
  <property name="meta.attr.1.stream.DURATION.markup">00:23:55.552000000</property>
  <property name="meta.attr.1.stream.NUMBER_OF_FRAMES.markup">44861</property>
  <property name="meta.attr.1.stream.NUMBER_OF_BYTES.markup">80390912</property>
  <property name="meta.attr.1.stream._STATISTICS_WRITING_APP.markup">mkvmerge v61.0.0 ('So') 64-bit</property>
  <property name="meta.attr.1.stream._STATISTICS_WRITING_DATE_UTC.markup">2022-10-22 08:26:35</property>
  <property name="meta.attr.1.stream._STATISTICS_TAGS.markup">BPS DURATION NUMBER_OF_FRAMES NUMBER_OF_BYTES</property>
  <property name="meta.media.2.stream.type">audio</property>
  <property name="meta.media.2.codec.sample_fmt">fltp</property>
  <property name="meta.media.2.codec.sample_rate">48000</property>
  <property name="meta.media.2.codec.channels">2</property>
  <property name="meta.media.2.codec.name">aac</property>
  <property name="meta.media.2.codec.long_name">AAC (Advanced Audio Coding)</property>
  <property name="meta.media.2.codec.bit_rate">0</property>
  <property name="meta.attr.2.stream.language.markup">eng</property>
  <property name="meta.attr.2.stream.title.markup">English AAC DD_2.0</property>
  <property name="meta.attr.2.stream.BPS.markup">157868</property>
  <property name="meta.attr.2.stream.DURATION.markup">00:23:55.285000000</property>
  <property name="meta.attr.2.stream.NUMBER_OF_FRAMES.markup">67279</property>
  <property name="meta.attr.2.stream.NUMBER_OF_BYTES.markup">28323375</property>
  <property name="meta.attr.2.stream._STATISTICS_WRITING_APP.markup">mkvmerge v61.0.0 ('So') 64-bit</property>
  <property name="meta.attr.2.stream._STATISTICS_WRITING_DATE_UTC.markup">2022-10-22 08:26:35</property>
  <property name="meta.attr.2.stream._STATISTICS_TAGS.markup">BPS DURATION NUMBER_OF_FRAMES NUMBER_OF_BYTES</property>
  <property name="meta.media.3.codec.name">ssa</property>
  <property name="meta.media.3.codec.long_name">ASS (Advanced SubStation Alpha) subtitle</property>
  <property name="meta.media.3.codec.bit_rate">0</property>
  <property name="meta.attr.3.stream.language.markup">eng</property>
  <property name="meta.attr.3.stream.title.markup">English (Full) ASS</property>
  <property name="meta.attr.3.stream.BPS.markup">102</property>
  <property name="meta.attr.3.stream.DURATION.markup">00:23:52.080000000</property>
  <property name="meta.attr.3.stream.NUMBER_OF_FRAMES.markup">322</property>
  <property name="meta.attr.3.stream.NUMBER_OF_BYTES.markup">18334</property>
  <property name="meta.attr.3.stream._STATISTICS_WRITING_APP.markup">mkvmerge v61.0.0 ('So') 64-bit</property>
  <property name="meta.attr.3.stream._STATISTICS_WRITING_DATE_UTC.markup">2022-10-22 08:26:35</property>
  <property name="meta.attr.3.stream._STATISTICS_TAGS.markup">BPS DURATION NUMBER_OF_FRAMES NUMBER_OF_BYTES</property>
  <property name="meta.media.4.codec.name">ssa</property>
  <property name="meta.media.4.codec.long_name">ASS (Advanced SubStation Alpha) subtitle</property>
  <property name="meta.media.4.codec.bit_rate">0</property>
  <property name="meta.attr.4.stream.language.markup">eng</property>
  <property name="meta.attr.4.stream.title.markup">English (Titles &amp; Signs) ASS</property>
  <property name="meta.attr.4.stream.BPS.markup">1</property>
  <property name="meta.attr.4.stream.DURATION.markup">00:23:44.630000000</property>
  <property name="meta.attr.4.stream.NUMBER_OF_FRAMES.markup">3</property>
  <property name="meta.attr.4.stream.NUMBER_OF_BYTES.markup">200</property>
  <property name="meta.attr.4.stream._STATISTICS_WRITING_APP.markup">mkvmerge v61.0.0 ('So') 64-bit</property>
  <property name="meta.attr.4.stream._STATISTICS_WRITING_DATE_UTC.markup">2022-10-22 08:26:35</property>
  <property name="meta.attr.4.stream._STATISTICS_TAGS.markup">BPS DURATION NUMBER_OF_FRAMES NUMBER_OF_BYTES</property>
  <property name="meta.media.5.codec.name">ssa</property>
  <property name="meta.media.5.codec.long_name">ASS (Advanced SubStation Alpha) subtitle</property>
  <property name="meta.media.5.codec.bit_rate">0</property>
  <property name="meta.attr.5.stream.language.markup">ara</property>
  <property name="meta.attr.5.stream.title.markup">Arabic</property>
  <property name="meta.attr.5.stream.BPS.markup">126</property>
  <property name="meta.attr.5.stream.DURATION.markup">00:22:16.190000000</property>
  <property name="meta.attr.5.stream.NUMBER_OF_FRAMES.markup">318</property>
  <property name="meta.attr.5.stream.NUMBER_OF_BYTES.markup">21119</property>
  <property name="meta.attr.5.stream._STATISTICS_WRITING_APP.markup">mkvmerge v61.0.0 ('So') 64-bit</property>
  <property name="meta.attr.5.stream._STATISTICS_WRITING_DATE_UTC.markup">2022-10-22 08:26:35</property>
  <property name="meta.attr.5.stream._STATISTICS_TAGS.markup">BPS DURATION NUMBER_OF_FRAMES NUMBER_OF_BYTES</property>
  <property name="meta.attr.title.markup">Monster : Chapter 11 : Kinderheim 511</property>
  <property name="meta.attr.encoder.markup">libebml v1.4.2 + libmatroska v1.6.4</property>
  <property name="meta.attr.creation_time.markup">2022-10-22T08:26:35.000000Z</property>
  <property name="seekable">1</property>
  <property name="meta.media.sample_aspect_num">1</property>
  <property name="meta.media.sample_aspect_den">1</property>
  <property name="aspect_ratio">1</property>
  <property name="kdenlive:clipname"/>
  <property name="kdenlive:clip_type">0</property>
  <property name="kdenlive:folderid">-1</property>
  <property name="kdenlive:id">2</property>
  <property name="kdenlive:active_streams">1;2</property>
  <property name="kdenlive:file_size">483382970</property>
  <property name="kdenlive:file_hash">b5782a0f2ff883bb9ea0b3a2e78ff8a1</property>
  <property name="kdenlive:audio_max1">181</property>
  <property name="kdenlive:audio_max2">197</property>
  <property name="xml">was here</property>
  <property name="meta.media.frame_rate_num">24000</property>
  <property name="meta.media.frame_rate_den">1001</property>
  <property name="meta.media.colorspace">709</property>
  <property name="meta.media.color_trc">1</property>
  <property name="meta.media.has_b_frames">2</property>
  <property name="meta.media.width">1440</property>
  <property name="meta.media.height">1080</property>
  <property name="meta.media.color_range">mpeg</property>
  <property name="meta.media.top_field_first">0</property>
  <property name="meta.media.progressive">1</property>
  <property name="set.test_audio">1</property>
  <property name="set.test_image">0</property>
  <property name="format">3</property>
  <property name="vstream">0</property>
  <property name="astream">0</property>
 </chain>
 <chain id="producer8" out="00:24:09.509">
  <property name="length">34754</property>
  <property name="eof">pause</property>
  <property name="resource">/mnt/data1/Anime-Edits/Monster/Monster-Editing/Orig/Monster - Chapter 12 - Modest Experiment.mkv</property>
  <property name="mlt_service">avformat-novalidate</property>
  <property name="audio_index">1</property>
  <property name="video_index">0</property>
  <property name="meta.media.nb_streams">81</property>
  <property name="meta.media.0.stream.type">video</property>
  <property name="meta.media.0.stream.frame_rate">23.976</property>
  <property name="meta.media.0.stream.sample_aspect_ratio">1</property>
  <property name="meta.media.0.codec.width">1440</property>
  <property name="meta.media.0.codec.height">1080</property>
  <property name="meta.media.0.codec.rotate">0</property>
  <property name="meta.media.0.codec.pix_fmt">yuv420p10le</property>
  <property name="meta.media.0.codec.sample_aspect_ratio">1</property>
  <property name="meta.media.0.codec.colorspace">709</property>
  <property name="meta.media.0.codec.color_trc">1</property>
  <property name="meta.media.0.codec.name">hevc</property>
  <property name="meta.media.0.codec.long_name">HEVC (High Efficiency Video Coding)</property>
  <property name="meta.media.0.codec.bit_rate">0</property>
  <property name="meta.attr.0.stream.BPS.markup">1781680</property>
  <property name="meta.attr.0.stream.DURATION.markup">00:24:09.532000000</property>
  <property name="meta.attr.0.stream.NUMBER_OF_FRAMES.markup">34754</property>
  <property name="meta.attr.0.stream.NUMBER_OF_BYTES.markup">322825391</property>
  <property name="meta.attr.0.stream._STATISTICS_WRITING_APP.markup">mkvmerge v61.0.0 ('So') 64-bit</property>
  <property name="meta.attr.0.stream._STATISTICS_WRITING_DATE_UTC.markup">2022-10-22 08:27:04</property>
  <property name="meta.attr.0.stream._STATISTICS_TAGS.markup">BPS DURATION NUMBER_OF_FRAMES NUMBER_OF_BYTES</property>
  <property name="meta.media.1.stream.type">audio</property>
  <property name="meta.media.1.codec.sample_fmt">fltp</property>
  <property name="meta.media.1.codec.sample_rate">48000</property>
  <property name="meta.media.1.codec.channels">2</property>
  <property name="meta.media.1.codec.name">ac3</property>
  <property name="meta.media.1.codec.long_name">ATSC A/52A (AC-3)</property>
  <property name="meta.media.1.codec.bit_rate">448000</property>
  <property name="meta.attr.1.stream.language.markup">jpn</property>
  <property name="meta.attr.1.stream.title.markup">Japanese DVD AC-3 DD_2.0</property>
  <property name="meta.attr.1.stream.BPS.markup">448000</property>
  <property name="meta.attr.1.stream.DURATION.markup">00:24:09.440000000</property>
  <property name="meta.attr.1.stream.NUMBER_OF_FRAMES.markup">45295</property>
  <property name="meta.attr.1.stream.NUMBER_OF_BYTES.markup">81168640</property>
  <property name="meta.attr.1.stream._STATISTICS_WRITING_APP.markup">mkvmerge v61.0.0 ('So') 64-bit</property>
  <property name="meta.attr.1.stream._STATISTICS_WRITING_DATE_UTC.markup">2022-10-22 08:27:04</property>
  <property name="meta.attr.1.stream._STATISTICS_TAGS.markup">BPS DURATION NUMBER_OF_FRAMES NUMBER_OF_BYTES</property>
  <property name="meta.media.2.stream.type">audio</property>
  <property name="meta.media.2.codec.sample_fmt">fltp</property>
  <property name="meta.media.2.codec.sample_rate">48000</property>
  <property name="meta.media.2.codec.channels">2</property>
  <property name="meta.media.2.codec.name">aac</property>
  <property name="meta.media.2.codec.long_name">AAC (Advanced Audio Coding)</property>
  <property name="meta.media.2.codec.bit_rate">0</property>
  <property name="meta.attr.2.stream.language.markup">eng</property>
  <property name="meta.attr.2.stream.title.markup">English AAC DD_2.0</property>
  <property name="meta.attr.2.stream.BPS.markup">167063</property>
  <property name="meta.attr.2.stream.DURATION.markup">00:23:54.795000000</property>
  <property name="meta.attr.2.stream.NUMBER_OF_FRAMES.markup">67256</property>
  <property name="meta.attr.2.stream.NUMBER_OF_BYTES.markup">29962781</property>
  <property name="meta.attr.2.stream._STATISTICS_WRITING_APP.markup">mkvmerge v61.0.0 ('So') 64-bit</property>
  <property name="meta.attr.2.stream._STATISTICS_WRITING_DATE_UTC.markup">2022-10-22 08:27:04</property>
  <property name="meta.attr.2.stream._STATISTICS_TAGS.markup">BPS DURATION NUMBER_OF_FRAMES NUMBER_OF_BYTES</property>
  <property name="meta.media.3.codec.name">ssa</property>
  <property name="meta.media.3.codec.long_name">ASS (Advanced SubStation Alpha) subtitle</property>
  <property name="meta.media.3.codec.bit_rate">0</property>
  <property name="meta.attr.3.stream.language.markup">eng</property>
  <property name="meta.attr.3.stream.title.markup">English (Full) ASS</property>
  <property name="meta.attr.3.stream.BPS.markup">71</property>
  <property name="meta.attr.3.stream.DURATION.markup">00:23:50.830000000</property>
  <property name="meta.attr.3.stream.NUMBER_OF_FRAMES.markup">238</property>
  <property name="meta.attr.3.stream.NUMBER_OF_BYTES.markup">12792</property>
  <property name="meta.attr.3.stream._STATISTICS_WRITING_APP.markup">mkvmerge v61.0.0 ('So') 64-bit</property>
  <property name="meta.attr.3.stream._STATISTICS_WRITING_DATE_UTC.markup">2022-10-22 08:27:04</property>
  <property name="meta.attr.3.stream._STATISTICS_TAGS.markup">BPS DURATION NUMBER_OF_FRAMES NUMBER_OF_BYTES</property>
  <property name="meta.media.4.codec.name">ssa</property>
  <property name="meta.media.4.codec.long_name">ASS (Advanced SubStation Alpha) subtitle</property>
  <property name="meta.media.4.codec.bit_rate">0</property>
  <property name="meta.attr.4.stream.language.markup">eng</property>
  <property name="meta.attr.4.stream.title.markup">English (Titles &amp; Signs) ASS</property>
  <property name="meta.attr.4.stream.BPS.markup">0</property>
  <property name="meta.attr.4.stream.DURATION.markup">00:20:22.470000000</property>
  <property name="meta.attr.4.stream.NUMBER_OF_FRAMES.markup">2</property>
  <property name="meta.attr.4.stream.NUMBER_OF_BYTES.markup">143</property>
  <property name="meta.attr.4.stream._STATISTICS_WRITING_APP.markup">mkvmerge v61.0.0 ('So') 64-bit</property>
  <property name="meta.attr.4.stream._STATISTICS_WRITING_DATE_UTC.markup">2022-10-22 08:27:04</property>
  <property name="meta.attr.4.stream._STATISTICS_TAGS.markup">BPS DURATION NUMBER_OF_FRAMES NUMBER_OF_BYTES</property>
  <property name="meta.media.5.codec.name">ssa</property>
  <property name="meta.media.5.codec.long_name">ASS (Advanced SubStation Alpha) subtitle</property>
  <property name="meta.media.5.codec.bit_rate">0</property>
  <property name="meta.attr.5.stream.language.markup">ara</property>
  <property name="meta.attr.5.stream.title.markup">Arabic</property>
  <property name="meta.attr.5.stream.BPS.markup">91</property>
  <property name="meta.attr.5.stream.DURATION.markup">00:22:15.420000000</property>
  <property name="meta.attr.5.stream.NUMBER_OF_FRAMES.markup">248</property>
  <property name="meta.attr.5.stream.NUMBER_OF_BYTES.markup">15212</property>
  <property name="meta.attr.5.stream._STATISTICS_WRITING_APP.markup">mkvmerge v61.0.0 ('So') 64-bit</property>
  <property name="meta.attr.5.stream._STATISTICS_WRITING_DATE_UTC.markup">2022-10-22 08:27:04</property>
  <property name="meta.attr.5.stream._STATISTICS_TAGS.markup">BPS DURATION NUMBER_OF_FRAMES NUMBER_OF_BYTES</property>
  <property name="meta.attr.title.markup">Monster : Chapter 12 : Modest Experiment</property>
  <property name="meta.attr.encoder.markup">libebml v1.4.2 + libmatroska v1.6.4</property>
  <property name="meta.attr.creation_time.markup">2022-10-22T08:27:04.000000Z</property>
  <property name="seekable">1</property>
  <property name="meta.media.sample_aspect_num">1</property>
  <property name="meta.media.sample_aspect_den">1</property>
  <property name="aspect_ratio">1</property>
  <property name="kdenlive:clipname"/>
  <property name="kdenlive:clip_type">0</property>
  <property name="kdenlive:folderid">-1</property>
  <property name="kdenlive:id">3</property>
  <property name="kdenlive:active_streams">1;2</property>
  <property name="kdenlive:file_size">453005305</property>
  <property name="kdenlive:file_hash">af074ba6d1bffabf205ce6e38dd7f26c</property>
  <property name="kdenlive:audio_max1">180</property>
  <property name="kdenlive:audio_max2">203</property>
  <property name="xml">was here</property>
  <property name="meta.media.frame_rate_num">24000</property>
  <property name="meta.media.frame_rate_den">1001</property>
  <property name="meta.media.colorspace">709</property>
  <property name="meta.media.color_trc">1</property>
  <property name="meta.media.has_b_frames">2</property>
  <property name="meta.media.width">1440</property>
  <property name="meta.media.height">1080</property>
  <property name="meta.media.color_range">mpeg</property>
  <property name="meta.media.top_field_first">0</property>
  <property name="meta.media.progressive">1</property>
  <property name="set.test_audio">1</property>
  <property name="set.test_image">0</property>
  <property name="format">3</property>
  <property name="vstream">0</property>
  <property name="astream">0</property>
 </chain>
 <playlist id="playlist6">
  <entry producer="chain4" in="00:00:00.000" out="00:22:27.027">
   <property name="kdenlive:id">2</property>
   <filter id="filter27" in="00:22:23.607" out="00:22:27.027">
    <property name="start">1</property>
    <property name="level">1</property>
    <property name="mlt_service">brightness</property>
    <property name="kdenlive_id">fade_to_black</property>
    <property name="alpha">00:00:00.000=1;00:00:03.420=0</property>
    <property name="kdenlive:collapsed">0</property>
   </filter>
  </entry>
  <blank length="00:00:09.259"/>
  <entry producer="producer8" in="00:03:49.925" out="00:10:47.422">
   <property name="kdenlive:id">3</property>
  </entry>
  <entry producer="producer8" in="00:10:49.466" out="00:11:20.646">
   <property name="kdenlive:id">3</property>
  </entry>
  <entry producer="producer8" in="00:11:31.031" out="00:15:58.058">
   <property name="kdenlive:id">3</property>
  </entry>
  <entry producer="producer8" in="00:16:01.501" out="00:23:37.037">
   <property name="kdenlive:id">3</property>
  </entry>
 </playlist>
 <playlist id="playlist7"/>
 <tractor id="tractor3" in="00:00:00.000" out="00:42:07.716">
  <property name="kdenlive:trackheight">67</property>
  <property name="kdenlive:timeline_active">1</property>
  <property name="kdenlive:collapsed">0</property>
  <property name="kdenlive:thumbs_format"/>
  <property name="kdenlive:audio_rec"/>
  <track hide="audio" producer="playlist6"/>
  <track hide="audio" producer="playlist7"/>
 </tractor>
 <chain id="producer9" out="00:24:09.509">
  <property name="length">34754</property>
  <property name="eof">pause</property>
  <property name="resource">/mnt/data1/Anime-Edits/Monster/Monster-Editing/Orig/Monster - Chapter 12 - Modest Experiment.mkv</property>
  <property name="mlt_service">avformat-novalidate</property>
  <property name="audio_index">1</property>
  <property name="video_index">0</property>
  <property name="meta.media.nb_streams">81</property>
  <property name="meta.media.0.stream.type">video</property>
  <property name="meta.media.0.stream.frame_rate">23.976</property>
  <property name="meta.media.0.stream.sample_aspect_ratio">1</property>
  <property name="meta.media.0.codec.width">1440</property>
  <property name="meta.media.0.codec.height">1080</property>
  <property name="meta.media.0.codec.rotate">0</property>
  <property name="meta.media.0.codec.pix_fmt">yuv420p10le</property>
  <property name="meta.media.0.codec.sample_aspect_ratio">1</property>
  <property name="meta.media.0.codec.colorspace">709</property>
  <property name="meta.media.0.codec.color_trc">1</property>
  <property name="meta.media.0.codec.name">hevc</property>
  <property name="meta.media.0.codec.long_name">HEVC (High Efficiency Video Coding)</property>
  <property name="meta.media.0.codec.bit_rate">0</property>
  <property name="meta.attr.0.stream.BPS.markup">1781680</property>
  <property name="meta.attr.0.stream.DURATION.markup">00:24:09.532000000</property>
  <property name="meta.attr.0.stream.NUMBER_OF_FRAMES.markup">34754</property>
  <property name="meta.attr.0.stream.NUMBER_OF_BYTES.markup">322825391</property>
  <property name="meta.attr.0.stream._STATISTICS_WRITING_APP.markup">mkvmerge v61.0.0 ('So') 64-bit</property>
  <property name="meta.attr.0.stream._STATISTICS_WRITING_DATE_UTC.markup">2022-10-22 08:27:04</property>
  <property name="meta.attr.0.stream._STATISTICS_TAGS.markup">BPS DURATION NUMBER_OF_FRAMES NUMBER_OF_BYTES</property>
  <property name="meta.media.1.stream.type">audio</property>
  <property name="meta.media.1.codec.sample_fmt">fltp</property>
  <property name="meta.media.1.codec.sample_rate">48000</property>
  <property name="meta.media.1.codec.channels">2</property>
  <property name="meta.media.1.codec.name">ac3</property>
  <property name="meta.media.1.codec.long_name">ATSC A/52A (AC-3)</property>
  <property name="meta.media.1.codec.bit_rate">448000</property>
  <property name="meta.attr.1.stream.language.markup">jpn</property>
  <property name="meta.attr.1.stream.title.markup">Japanese DVD AC-3 DD_2.0</property>
  <property name="meta.attr.1.stream.BPS.markup">448000</property>
  <property name="meta.attr.1.stream.DURATION.markup">00:24:09.440000000</property>
  <property name="meta.attr.1.stream.NUMBER_OF_FRAMES.markup">45295</property>
  <property name="meta.attr.1.stream.NUMBER_OF_BYTES.markup">81168640</property>
  <property name="meta.attr.1.stream._STATISTICS_WRITING_APP.markup">mkvmerge v61.0.0 ('So') 64-bit</property>
  <property name="meta.attr.1.stream._STATISTICS_WRITING_DATE_UTC.markup">2022-10-22 08:27:04</property>
  <property name="meta.attr.1.stream._STATISTICS_TAGS.markup">BPS DURATION NUMBER_OF_FRAMES NUMBER_OF_BYTES</property>
  <property name="meta.media.2.stream.type">audio</property>
  <property name="meta.media.2.codec.sample_fmt">fltp</property>
  <property name="meta.media.2.codec.sample_rate">48000</property>
  <property name="meta.media.2.codec.channels">2</property>
  <property name="meta.media.2.codec.name">aac</property>
  <property name="meta.media.2.codec.long_name">AAC (Advanced Audio Coding)</property>
  <property name="meta.media.2.codec.bit_rate">0</property>
  <property name="meta.attr.2.stream.language.markup">eng</property>
  <property name="meta.attr.2.stream.title.markup">English AAC DD_2.0</property>
  <property name="meta.attr.2.stream.BPS.markup">167063</property>
  <property name="meta.attr.2.stream.DURATION.markup">00:23:54.795000000</property>
  <property name="meta.attr.2.stream.NUMBER_OF_FRAMES.markup">67256</property>
  <property name="meta.attr.2.stream.NUMBER_OF_BYTES.markup">29962781</property>
  <property name="meta.attr.2.stream._STATISTICS_WRITING_APP.markup">mkvmerge v61.0.0 ('So') 64-bit</property>
  <property name="meta.attr.2.stream._STATISTICS_WRITING_DATE_UTC.markup">2022-10-22 08:27:04</property>
  <property name="meta.attr.2.stream._STATISTICS_TAGS.markup">BPS DURATION NUMBER_OF_FRAMES NUMBER_OF_BYTES</property>
  <property name="meta.media.3.codec.name">ssa</property>
  <property name="meta.media.3.codec.long_name">ASS (Advanced SubStation Alpha) subtitle</property>
  <property name="meta.media.3.codec.bit_rate">0</property>
  <property name="meta.attr.3.stream.language.markup">eng</property>
  <property name="meta.attr.3.stream.title.markup">English (Full) ASS</property>
  <property name="meta.attr.3.stream.BPS.markup">71</property>
  <property name="meta.attr.3.stream.DURATION.markup">00:23:50.830000000</property>
  <property name="meta.attr.3.stream.NUMBER_OF_FRAMES.markup">238</property>
  <property name="meta.attr.3.stream.NUMBER_OF_BYTES.markup">12792</property>
  <property name="meta.attr.3.stream._STATISTICS_WRITING_APP.markup">mkvmerge v61.0.0 ('So') 64-bit</property>
  <property name="meta.attr.3.stream._STATISTICS_WRITING_DATE_UTC.markup">2022-10-22 08:27:04</property>
  <property name="meta.attr.3.stream._STATISTICS_TAGS.markup">BPS DURATION NUMBER_OF_FRAMES NUMBER_OF_BYTES</property>
  <property name="meta.media.4.codec.name">ssa</property>
  <property name="meta.media.4.codec.long_name">ASS (Advanced SubStation Alpha) subtitle</property>
  <property name="meta.media.4.codec.bit_rate">0</property>
  <property name="meta.attr.4.stream.language.markup">eng</property>
  <property name="meta.attr.4.stream.title.markup">English (Titles &amp; Signs) ASS</property>
  <property name="meta.attr.4.stream.BPS.markup">0</property>
  <property name="meta.attr.4.stream.DURATION.markup">00:20:22.470000000</property>
  <property name="meta.attr.4.stream.NUMBER_OF_FRAMES.markup">2</property>
  <property name="meta.attr.4.stream.NUMBER_OF_BYTES.markup">143</property>
  <property name="meta.attr.4.stream._STATISTICS_WRITING_APP.markup">mkvmerge v61.0.0 ('So') 64-bit</property>
  <property name="meta.attr.4.stream._STATISTICS_WRITING_DATE_UTC.markup">2022-10-22 08:27:04</property>
  <property name="meta.attr.4.stream._STATISTICS_TAGS.markup">BPS DURATION NUMBER_OF_FRAMES NUMBER_OF_BYTES</property>
  <property name="meta.media.5.codec.name">ssa</property>
  <property name="meta.media.5.codec.long_name">ASS (Advanced SubStation Alpha) subtitle</property>
  <property name="meta.media.5.codec.bit_rate">0</property>
  <property name="meta.attr.5.stream.language.markup">ara</property>
  <property name="meta.attr.5.stream.title.markup">Arabic</property>
  <property name="meta.attr.5.stream.BPS.markup">91</property>
  <property name="meta.attr.5.stream.DURATION.markup">00:22:15.420000000</property>
  <property name="meta.attr.5.stream.NUMBER_OF_FRAMES.markup">248</property>
  <property name="meta.attr.5.stream.NUMBER_OF_BYTES.markup">15212</property>
  <property name="meta.attr.5.stream._STATISTICS_WRITING_APP.markup">mkvmerge v61.0.0 ('So') 64-bit</property>
  <property name="meta.attr.5.stream._STATISTICS_WRITING_DATE_UTC.markup">2022-10-22 08:27:04</property>
  <property name="meta.attr.5.stream._STATISTICS_TAGS.markup">BPS DURATION NUMBER_OF_FRAMES NUMBER_OF_BYTES</property>
  <property name="meta.attr.title.markup">Monster : Chapter 12 : Modest Experiment</property>
  <property name="meta.attr.encoder.markup">libebml v1.4.2 + libmatroska v1.6.4</property>
  <property name="meta.attr.creation_time.markup">2022-10-22T08:27:04.000000Z</property>
  <property name="seekable">1</property>
  <property name="meta.media.sample_aspect_num">1</property>
  <property name="meta.media.sample_aspect_den">1</property>
  <property name="aspect_ratio">1</property>
  <property name="kdenlive:clipname"/>
  <property name="kdenlive:clip_type">0</property>
  <property name="kdenlive:folderid">-1</property>
  <property name="kdenlive:id">3</property>
  <property name="kdenlive:active_streams">1;2</property>
  <property name="kdenlive:file_size">453005305</property>
  <property name="kdenlive:file_hash">af074ba6d1bffabf205ce6e38dd7f26c</property>
  <property name="kdenlive:audio_max1">180</property>
  <property name="kdenlive:audio_max2">203</property>
  <property name="xml">was here</property>
  <property name="meta.media.frame_rate_num">24000</property>
  <property name="meta.media.frame_rate_den">1001</property>
  <property name="meta.media.colorspace">709</property>
  <property name="meta.media.color_trc">1</property>
  <property name="meta.media.has_b_frames">2</property>
  <property name="meta.media.width">1440</property>
  <property name="meta.media.height">1080</property>
  <property name="meta.media.color_range">mpeg</property>
  <property name="meta.media.top_field_first">0</property>
  <property name="meta.media.progressive">1</property>
  <property name="set.test_audio">1</property>
  <property name="set.test_image">0</property>
  <property name="format">3</property>
  <property name="vstream">0</property>
  <property name="astream">0</property>
 </chain>
 <playlist id="playlist8">
  <blank length="00:22:23.649"/>
  <entry producer="producer9" in="00:03:28.320" out="00:03:40.707">
   <property name="kdenlive:id">3</property>
   <filter id="filter28" in="00:03:28.320" out="00:03:31.740">
    <property name="start">1</property>
    <property name="level">1</property>
    <property name="mlt_service">brightness</property>
    <property name="kdenlive_id">fade_from_black</property>
    <property name="alpha">00:00:00.000=0;00:00:03.420=1</property>
    <property name="kdenlive:collapsed">0</property>
   </filter>
  </entry>
  <entry producer="producer9" in="00:03:39.289" out="00:03:39.373">
   <property name="kdenlive:id">3</property>
  </entry>
  <entry producer="producer9" in="00:03:38.789" out="00:03:38.872">
   <property name="kdenlive:id">3</property>
  </entry>
 </playlist>
 <playlist id="playlist9"/>
 <tractor id="tractor4" in="00:00:00.000" out="00:22:36.286">
  <property name="kdenlive:trackheight">67</property>
  <property name="kdenlive:timeline_active">1</property>
  <property name="kdenlive:collapsed">0</property>
  <property name="kdenlive:thumbs_format"/>
  <property name="kdenlive:audio_rec"/>
  <track hide="audio" producer="playlist8"/>
  <track hide="audio" producer="playlist9"/>
 </tractor>
 <tractor id="tractor5" in="00:00:00.000" out="00:42:07.716">
  <property name="kdenlive:duration">00:42:07:18</property>
  <property name="kdenlive:maxduration">60605</property>
  <property name="kdenlive:clipname">Sequence 1</property>
  <property name="kdenlive:description"/>
  <property name="kdenlive:uuid">{21619e1d-2d2a-4ede-b784-b360cb57d3b4}</property>
  <property name="kdenlive:producer_type">17</property>
  <property name="kdenlive:id">7</property>
  <property name="kdenlive:clip_type">0</property>
  <property name="kdenlive:file_hash">d836e7a4448d34c67ef9c8eccc9ac35c</property>
  <property name="kdenlive:folderid">6</property>
  <property name="kdenlive:sequenceproperties.activeTrack">2</property>
  <property name="kdenlive:sequenceproperties.audioTarget">-1</property>
  <property name="kdenlive:sequenceproperties.disablepreview">0</property>
  <property name="kdenlive:sequenceproperties.documentuuid">{21619e1d-2d2a-4ede-b784-b360cb57d3b4}</property>
  <property name="kdenlive:sequenceproperties.hasAudio">1</property>
  <property name="kdenlive:sequenceproperties.hasVideo">1</property>
  <property name="kdenlive:sequenceproperties.hidesubtitle">0</property>
  <property name="kdenlive:sequenceproperties.position">42004</property>
  <property name="kdenlive:sequenceproperties.scrollPos">10273</property>
  <property name="kdenlive:sequenceproperties.tracksCount">5</property>
  <property name="kdenlive:sequenceproperties.videoTarget">-1</property>
  <property name="kdenlive:sequenceproperties.zonein">0</property>
  <property name="kdenlive:sequenceproperties.zoneout">75</property>
  <property name="kdenlive:sequenceproperties.zoom">10</property>
  <property name="kdenlive:sequenceproperties.groups">[
    {
        "children": [
            {
                "data": "2:43231",
                "leaf": "clip",
                "type": "Leaf"
            },
            {
                "data": "3:43279",
                "leaf": "clip",
                "type": "Leaf"
            }
        ],
        "type": "Normal"
    },
    {
        "children": [
            {
                "children": [
                    {
                        "data": "4:32215",
                        "leaf": "clip",
                        "type": "Leaf"
                    },
                    {
                        "data": "1:32215",
                        "leaf": "clip",
                        "type": "Leaf"
                    }
                ],
                "type": "Normal"
            },
            {
                "data": "-2:32286",
                "leaf": "subtitle",
                "type": "Leaf"
            }
        ],
        "type": "Normal"
    },
    {
        "children": [
            {
                "data": "3:32519",
                "leaf": "clip",
                "type": "Leaf"
            },
            {
                "data": "2:32491",
                "leaf": "clip",
                "type": "Leaf"
            }
        ],
        "type": "Normal"
    },
    {
        "children": [
            {
                "data": "1:48413",
                "leaf": "clip",
                "type": "Leaf"
            },
            {
                "data": "2:49682",
                "leaf": "clip",
                "type": "Leaf"
            },
            {
                "data": "3:49682",
                "leaf": "clip",
                "type": "Leaf"
            }
        ],
        "type": "Normal"
    },
    {
        "children": [
            {
                "data": "-2:214",
                "leaf": "subtitle",
                "type": "Leaf"
            },
            {
                "children": [
                    {
                        "data": "-2:7446",
                        "leaf": "subtitle",
                        "type": "Leaf"
                    },
                    {
                        "children": [
                            {
                                "data": "2:0",
                                "leaf": "clip",
                                "type": "Leaf"
                            },
                            {
                                "data": "3:0",
                                "leaf": "clip",
                                "type": "Leaf"
                            }
                        ],
                        "type": "Normal"
                    }
                ],
                "type": "Normal"
            }
        ],
        "type": "Normal"
    },
    {
        "children": [
            {
                "data": "1:42523",
                "leaf": "clip",
                "type": "Leaf"
            },
            {
                "data": "3:42530",
                "leaf": "clip",
                "type": "Leaf"
            }
        ],
        "type": "Normal"
    }
]
</property>
  <property name="kdenlive:sequenceproperties.guides">[
]
</property>
  <track producer="producer4"/>
  <track producer="tractor0"/>
  <track producer="tractor1"/>
  <track producer="tractor2"/>
  <track producer="tractor3"/>
  <track producer="tractor4"/>
  <transition id="transition0">
   <property name="a_track">0</property>
   <property name="b_track">1</property>
   <property name="mlt_service">mix</property>
   <property name="kdenlive_id">mix</property>
   <property name="internal_added">237</property>
   <property name="always_active">1</property>
   <property name="accepts_blanks">1</property>
   <property name="sum">1</property>
  </transition>
  <transition id="transition1">
   <property name="a_track">0</property>
   <property name="b_track">2</property>
   <property name="mlt_service">mix</property>
   <property name="kdenlive_id">mix</property>
   <property name="internal_added">237</property>
   <property name="always_active">1</property>
   <property name="accepts_blanks">1</property>
   <property name="sum">1</property>
  </transition>
  <transition id="transition2">
   <property name="a_track">0</property>
   <property name="b_track">3</property>
   <property name="mlt_service">mix</property>
   <property name="kdenlive_id">mix</property>
   <property name="internal_added">237</property>
   <property name="always_active">1</property>
   <property name="accepts_blanks">1</property>
   <property name="sum">1</property>
  </transition>
  <transition id="transition3">
   <property name="a_track">0</property>
   <property name="b_track">4</property>
   <property name="compositing">0</property>
   <property name="distort">0</property>
   <property name="rotate_center">0</property>
   <property name="mlt_service">qtblend</property>
   <property name="always_active">1</property>
   <property name="internal_added">237</property>
  </transition>
  <transition id="transition4">
   <property name="a_track">0</property>
   <property name="b_track">5</property>
   <property name="compositing">0</property>
   <property name="distort">0</property>
   <property name="rotate_center">0</property>
   <property name="mlt_service">qtblend</property>
   <property name="always_active">1</property>
   <property name="internal_added">237</property>
  </transition>
  <filter id="filter29">
   <property name="window">75</property>
   <property name="max_gain">20dB</property>
   <property name="mlt_service">volume</property>
   <property name="internal_added">237</property>
   <property name="disable">1</property>
  </filter>
  <filter id="filter30">
   <property name="channel">-1</property>
   <property name="mlt_service">panner</property>
   <property name="internal_added">237</property>
   <property name="start">0.5</property>
   <property name="disable">1</property>
  </filter>
  <filter id="filter31">
   <property name="window">75</property>
   <property name="max_gain">20dB</property>
   <property name="mlt_service">volume</property>
   <property name="internal_added">237</property>
   <property name="disable">1</property>
  </filter>
  <filter id="filter32">
   <property name="channel">-1</property>
   <property name="mlt_service">panner</property>
   <property name="internal_added">237</property>
   <property name="start">0.5</property>
   <property name="disable">1</property>
  </filter>
  <filter id="filter33">
   <property name="mlt_service">avfilter.subtitles</property>
   <property name="internal_added">237</property>
   <property name="av.filename">Monster_11-12_511_Kinderheim_1080p_24fps.kdenlive.srt</property>
   <property name="av.force_style">Outline=0,Shadow=1,</property>
  </filter>
 </tractor>
 <playlist id="main_bin">
  <property name="kdenlive:folder.-1.6">Sequences</property>
  <property name="kdenlive:docproperties.activetimeline">{21619e1d-2d2a-4ede-b784-b360cb57d3b4}</property>
  <property name="kdenlive:docproperties.audioChannels">2</property>
  <property name="kdenlive:docproperties.browserurl">/home/redxarch/Videos/</property>
  <property name="kdenlive:docproperties.compositing">1</property>
  <property name="kdenlive:docproperties.documentid">1666912294110</property>
  <property name="kdenlive:docproperties.enableTimelineZone">0</property>
  <property name="kdenlive:docproperties.enableexternalproxy">0</property>
  <property name="kdenlive:docproperties.enableproxy">0</property>
  <property name="kdenlive:docproperties.externalproxyparams"/>
  <property name="kdenlive:docproperties.generateimageproxy">0</property>
  <property name="kdenlive:docproperties.generateproxy">0</property>
  <property name="kdenlive:docproperties.guidesCategories">[
    {
        "color": "#9b59b6",
        "comment": "Category 1",
        "index": 0
    },
    {
        "color": "#3daee9",
        "comment": "Category 2",
        "index": 1
    },
    {
        "color": "#1abc9c",
        "comment": "Category 3",
        "index": 2
    },
    {
        "color": "#1cdc9a",
        "comment": "Category 4",
        "index": 3
    },
    {
        "color": "#c9ce3b",
        "comment": "Category 5",
        "index": 4
    },
    {
        "color": "#fdbc4b",
        "comment": "Category 6",
        "index": 5
    },
    {
        "color": "#f39c1f",
        "comment": "Category 7",
        "index": 6
    },
    {
        "color": "#f47750",
        "comment": "Category 8",
        "index": 7
    },
    {
        "color": "#da4453",
        "comment": "Category 9",
        "index": 8
    }
]
</property>
  <property name="kdenlive:docproperties.kdenliveversion">23.08.4</property>
  <property name="kdenlive:docproperties.opensequences">{21619e1d-2d2a-4ede-b784-b360cb57d3b4}</property>
  <property name="kdenlive:docproperties.previewextension"/>
  <property name="kdenlive:docproperties.previewparameters"/>
  <property name="kdenlive:docproperties.profile">/home/redxarch/.local/share/kdenlive/profiles/customprofile0</property>
  <property name="kdenlive:docproperties.proxyextension"/>
  <property name="kdenlive:docproperties.proxyimageminsize">2000</property>
  <property name="kdenlive:docproperties.proxyimagesize">800</property>
  <property name="kdenlive:docproperties.proxyminsize">1000</property>
  <property name="kdenlive:docproperties.proxyparams"/>
  <property name="kdenlive:docproperties.proxyresize">640</property>
  <property name="kdenlive:docproperties.rendercategory">Lossless/HQ</property>
  <property name="kdenlive:docproperties.rendercustomquality">100</property>
  <property name="kdenlive:docproperties.renderendguide">-1</property>
  <property name="kdenlive:docproperties.renderexportaudio">0</property>
  <property name="kdenlive:docproperties.renderfullcolorrange">0</property>
  <property name="kdenlive:docproperties.rendermode">0</property>
  <property name="kdenlive:docproperties.renderplay">0</property>
  <property name="kdenlive:docproperties.renderpreview">0</property>
  <property name="kdenlive:docproperties.renderprofile">H.264 (libx264+aac)</property>
  <property name="kdenlive:docproperties.renderratio">0</property>
  <property name="kdenlive:docproperties.renderrescale">0</property>
  <property name="kdenlive:docproperties.renderrescaleheight">720</property>
  <property name="kdenlive:docproperties.renderrescalewidth">960</property>
  <property name="kdenlive:docproperties.renderspeed">1</property>
  <property name="kdenlive:docproperties.renderstartguide">-1</property>
  <property name="kdenlive:docproperties.rendertcoverlay">0</property>
  <property name="kdenlive:docproperties.rendertctype">-1</property>
  <property name="kdenlive:docproperties.rendertwopass">0</property>
  <property name="kdenlive:docproperties.renderurl">/mnt/data1/Anime-Edits/Monster/Monster-Editing/Output/Monster-Edit/Monster_11-12_511_Kinderheim_1080p_24fps.mp4</property>
  <property name="kdenlive:docproperties.seekOffset">30000</property>
  <property name="kdenlive:docproperties.uuid">{21619e1d-2d2a-4ede-b784-b360cb57d3b4}</property>
  <property name="kdenlive:docproperties.version">1.1</property>
  <property name="kdenlive:docproperties.verticalzoom">1</property>
  <property name="kdenlive:docproperties.zoom">8</property>
  <property name="kdenlive:expandedFolders"/>
  <property name="kdenlive:binZoom">4</property>
  <property name="kdenlive:documentnotes">&lt;!DOCTYPE HTML PUBLIC "-//W3C//DTD HTML 4.0//EN" "http://www.w3.org/TR/REC-html40/strict.dtd">
&lt;html>&lt;head>&lt;meta name="qrichtext" content="1" />&lt;style type="text/css">
p, li { white-space: pre-wrap; }
&lt;/style>&lt;/head>&lt;body style=" font-family:'Noto Sans'; font-size:10pt; font-weight:400; font-style:normal;">
&lt;p style=" margin-top:0px; margin-bottom:0px; margin-left:0px; margin-right:0px; -qt-block-indent:0; text-indent:0px;">srt formatting: https://docs.fileformat.com/video/srt/&lt;/p>
&lt;p style=" margin-top:0px; margin-bottom:0px; margin-left:0px; margin-right:0px; -qt-block-indent:0; text-indent:0px;">adding empty char to raise subtitles by a line: https://emptycharacter.com/&lt;/p>
&lt;p style="-qt-paragraph-type:empty; margin-top:0px; margin-bottom:0px; margin-left:0px; margin-right:0px; -qt-block-indent:0; text-indent:0px;">&lt;br />&lt;/p>
&lt;p style=" margin-top:0px; margin-bottom:0px; margin-left:0px; margin-right:0px; -qt-block-indent:0; text-indent:0px;">list of dub voice actors: https://www.behindthevoiceactors.com/tv-shows/Monster/&lt;/p>
&lt;p style="-qt-paragraph-type:empty; margin-top:0px; margin-bottom:0px; margin-left:0px; margin-right:0px; -qt-block-indent:0; text-indent:0px;">&lt;br />&lt;/p>&lt;/body>&lt;/html></property>
  <property name="xml_retain">1</property>
  <entry producer="producer1" in="00:00:00.000" out="00:23:55.555"/>
  <entry producer="producer0" in="00:00:00.000" out="00:24:09.509"/>
  <entry producer="producer2" in="00:00:00.000" out="00:23:55.264"/>
  <entry producer="producer3" in="00:00:00.000" out="00:23:54.805"/>
  <entry producer="chain5" in="00:00:00.000" out="00:01:53.637"/>
  <entry producer="chain6" in="00:00:00.000" out="00:01:39.998"/>
  <entry producer="tractor5" in="00:00:00.000" out="00:42:07.716"/>
 </playlist>
 <tractor id="tractor6" in="00:00:00.000" out="00:42:07.716">
  <property name="kdenlive:projectTractor">1</property>
  <track producer="tractor5" in="00:00:00.000" out="00:42:07.716"/>
 </tractor>
</mlt>
