<?xml version='1.0' encoding='utf-8'?>
<mlt LC_NUMERIC="C" producer="main_bin" version="7.22.0" root="/mnt/data1/Anime-Edits/Monster/Monster-Editing/Editing">
 <profile frame_rate_num="24000" sample_aspect_num="1" display_aspect_den="3" colorspace="709" progressive="1" description="1440x1080 23.98fps" display_aspect_num="4" frame_rate_den="1001" width="1440" height="1080" sample_aspect_den="1"/>
 <chain id="producer0" out="00:24:09.509">
  <property name="length">34754</property>
  <property name="eof">pause</property>
  <property name="resource">/mnt/data1/Anime-Edits/Monster/Monster-Editing/Orig/Monster - Chapter 15 - Be My Baby.mkv</property>
  <property name="mlt_service">avformat-novalidate</property>
  <property name="audio_index">1</property>
  <property name="video_index">0</property>
  <property name="meta.media.nb_streams">24</property>
  <property name="meta.media.0.stream.type">video</property>
  <property name="meta.media.0.stream.frame_rate">23.976</property>
  <property name="meta.media.0.stream.sample_aspect_ratio">1</property>
  <property name="meta.media.0.codec.width">1440</property>
  <property name="meta.media.0.codec.height">1080</property>
  <property name="meta.media.0.codec.rotate">0</property>
  <property name="meta.media.0.codec.pix_fmt">yuv420p10le</property>
  <property name="meta.media.0.codec.sample_aspect_ratio">1</property>
  <property name="meta.media.0.codec.colorspace">709</property>
  <property name="meta.media.0.codec.color_trc">1</property>
  <property name="meta.media.0.codec.name">hevc</property>
  <property name="meta.media.0.codec.long_name">HEVC (High Efficiency Video Coding)</property>
  <property name="meta.media.0.codec.bit_rate">0</property>
  <property name="meta.attr.0.stream.BPS-eng.markup">1983526</property>
  <property name="meta.attr.0.stream.DURATION-eng.markup">00:24:09.532000000</property>
  <property name="meta.attr.0.stream.NUMBER_OF_FRAMES-eng.markup">34754</property>
  <property name="meta.attr.0.stream.NUMBER_OF_BYTES-eng.markup">359398070</property>
  <property name="meta.attr.0.stream._STATISTICS_WRITING_APP-eng.markup">mkvmerge v52.0.0 ('Secret For The Mad') 64-bit</property>
  <property name="meta.attr.0.stream._STATISTICS_WRITING_DATE_UTC-eng.markup">2022-11-08 22:23:44</property>
  <property name="meta.attr.0.stream._STATISTICS_TAGS-eng.markup">BPS DURATION NUMBER_OF_FRAMES NUMBER_OF_BYTES</property>
  <property name="meta.media.1.stream.type">audio</property>
  <property name="meta.media.1.codec.sample_fmt">fltp</property>
  <property name="meta.media.1.codec.sample_rate">48000</property>
  <property name="meta.media.1.codec.channels">2</property>
  <property name="meta.media.1.codec.name">ac3</property>
  <property name="meta.media.1.codec.long_name">ATSC A/52A (AC-3)</property>
  <property name="meta.media.1.codec.bit_rate">448000</property>
  <property name="meta.attr.1.stream.language.markup">jpn</property>
  <property name="meta.attr.1.stream.title.markup">Japanese DVD AC-3 DD_2.0</property>
  <property name="meta.attr.1.stream.BPS-eng.markup">448000</property>
  <property name="meta.attr.1.stream.DURATION-eng.markup">00:24:09.472000000</property>
  <property name="meta.attr.1.stream.NUMBER_OF_FRAMES-eng.markup">45296</property>
  <property name="meta.attr.1.stream.NUMBER_OF_BYTES-eng.markup">81170432</property>
  <property name="meta.attr.1.stream._STATISTICS_WRITING_APP-eng.markup">mkvmerge v52.0.0 ('Secret For The Mad') 64-bit</property>
  <property name="meta.attr.1.stream._STATISTICS_WRITING_DATE_UTC-eng.markup">2022-11-08 22:23:44</property>
  <property name="meta.attr.1.stream._STATISTICS_TAGS-eng.markup">BPS DURATION NUMBER_OF_FRAMES NUMBER_OF_BYTES</property>
  <property name="meta.media.2.stream.type">audio</property>
  <property name="meta.media.2.codec.sample_fmt">fltp</property>
  <property name="meta.media.2.codec.sample_rate">48000</property>
  <property name="meta.media.2.codec.channels">2</property>
  <property name="meta.media.2.codec.name">mp3float</property>
  <property name="meta.media.2.codec.long_name">MP3 (MPEG audio layer 3)</property>
  <property name="meta.media.2.codec.bit_rate">99999</property>
  <property name="meta.attr.2.stream.language.markup">jpn</property>
  <property name="meta.attr.2.stream.title.markup">Original Broadcast Audio</property>
  <property name="meta.attr.2.stream.BPS-eng.markup">124204</property>
  <property name="meta.attr.2.stream.DURATION-eng.markup">00:23:54.000000000</property>
  <property name="meta.attr.2.stream.NUMBER_OF_FRAMES-eng.markup">59750</property>
  <property name="meta.attr.2.stream.NUMBER_OF_BYTES-eng.markup">22263744</property>
  <property name="meta.attr.2.stream._STATISTICS_WRITING_APP-eng.markup">mkvmerge v52.0.0 ('Secret For The Mad') 64-bit</property>
  <property name="meta.attr.2.stream._STATISTICS_WRITING_DATE_UTC-eng.markup">2022-11-08 22:23:44</property>
  <property name="meta.attr.2.stream._STATISTICS_TAGS-eng.markup">BPS DURATION NUMBER_OF_FRAMES NUMBER_OF_BYTES</property>
  <property name="meta.media.3.stream.type">audio</property>
  <property name="meta.media.3.codec.sample_fmt">fltp</property>
  <property name="meta.media.3.codec.sample_rate">48000</property>
  <property name="meta.media.3.codec.channels">2</property>
  <property name="meta.media.3.codec.name">aac</property>
  <property name="meta.media.3.codec.long_name">AAC (Advanced Audio Coding)</property>
  <property name="meta.media.3.codec.bit_rate">0</property>
  <property name="meta.attr.3.stream.language.markup">eng</property>
  <property name="meta.attr.3.stream.title.markup">English AAC DD_2.0</property>
  <property name="meta.attr.3.stream.BPS-eng.markup">156906</property>
  <property name="meta.attr.3.stream.DURATION-eng.markup">00:23:54.688000000</property>
  <property name="meta.attr.3.stream.NUMBER_OF_FRAMES-eng.markup">67251</property>
  <property name="meta.attr.3.stream.NUMBER_OF_BYTES-eng.markup">28138979</property>
  <property name="meta.attr.3.stream._STATISTICS_WRITING_APP-eng.markup">mkvmerge v52.0.0 ('Secret For The Mad') 64-bit</property>
  <property name="meta.attr.3.stream._STATISTICS_WRITING_DATE_UTC-eng.markup">2022-11-08 22:23:44</property>
  <property name="meta.attr.3.stream._STATISTICS_TAGS-eng.markup">BPS DURATION NUMBER_OF_FRAMES NUMBER_OF_BYTES</property>
  <property name="meta.media.4.codec.name">ssa</property>
  <property name="meta.media.4.codec.long_name">ASS (Advanced SubStation Alpha) subtitle</property>
  <property name="meta.media.4.codec.bit_rate">0</property>
  <property name="meta.attr.4.stream.language.markup">eng</property>
  <property name="meta.attr.4.stream.title.markup">English (Full) ASS</property>
  <property name="meta.attr.4.stream.BPS-eng.markup">96</property>
  <property name="meta.attr.4.stream.DURATION-eng.markup">00:23:23.800000000</property>
  <property name="meta.attr.4.stream.NUMBER_OF_FRAMES-eng.markup">310</property>
  <property name="meta.attr.4.stream.NUMBER_OF_BYTES-eng.markup">16890</property>
  <property name="meta.attr.4.stream._STATISTICS_WRITING_APP-eng.markup">mkvmerge v52.0.0 ('Secret For The Mad') 64-bit</property>
  <property name="meta.attr.4.stream._STATISTICS_WRITING_DATE_UTC-eng.markup">2022-11-08 22:23:44</property>
  <property name="meta.attr.4.stream._STATISTICS_TAGS-eng.markup">BPS DURATION NUMBER_OF_FRAMES NUMBER_OF_BYTES</property>
  <property name="meta.media.5.codec.name">ssa</property>
  <property name="meta.media.5.codec.long_name">ASS (Advanced SubStation Alpha) subtitle</property>
  <property name="meta.media.5.codec.bit_rate">0</property>
  <property name="meta.attr.5.stream.language.markup">eng</property>
  <property name="meta.attr.5.stream.title.markup">English (Titles &amp; Signs) ASS</property>
  <property name="meta.attr.5.stream.BPS-eng.markup">1</property>
  <property name="meta.attr.5.stream.DURATION-eng.markup">00:21:26.490000000</property>
  <property name="meta.attr.5.stream.NUMBER_OF_FRAMES-eng.markup">3</property>
  <property name="meta.attr.5.stream.NUMBER_OF_BYTES-eng.markup">197</property>
  <property name="meta.attr.5.stream._STATISTICS_WRITING_APP-eng.markup">mkvmerge v52.0.0 ('Secret For The Mad') 64-bit</property>
  <property name="meta.attr.5.stream._STATISTICS_WRITING_DATE_UTC-eng.markup">2022-11-08 22:23:44</property>
  <property name="meta.attr.5.stream._STATISTICS_TAGS-eng.markup">BPS DURATION NUMBER_OF_FRAMES NUMBER_OF_BYTES</property>
  <property name="meta.media.6.codec.name">ssa</property>
  <property name="meta.media.6.codec.long_name">ASS (Advanced SubStation Alpha) subtitle</property>
  <property name="meta.media.6.codec.bit_rate">0</property>
  <property name="meta.attr.6.stream.language.markup">ara</property>
  <property name="meta.attr.6.stream.title.markup">Arabic</property>
  <property name="meta.attr.6.stream.BPS-eng.markup">119</property>
  <property name="meta.attr.6.stream.DURATION-eng.markup">00:21:55.700000000</property>
  <property name="meta.attr.6.stream.NUMBER_OF_FRAMES-eng.markup">328</property>
  <property name="meta.attr.6.stream.NUMBER_OF_BYTES-eng.markup">19720</property>
  <property name="meta.attr.6.stream._STATISTICS_WRITING_APP-eng.markup">mkvmerge v52.0.0 ('Secret For The Mad') 64-bit</property>
  <property name="meta.attr.6.stream._STATISTICS_WRITING_DATE_UTC-eng.markup">2022-11-08 22:23:44</property>
  <property name="meta.attr.6.stream._STATISTICS_TAGS-eng.markup">BPS DURATION NUMBER_OF_FRAMES NUMBER_OF_BYTES</property>
  <property name="meta.attr.title.markup">Monster : Chapter 15 : Be My Baby</property>
  <property name="meta.attr.encoder.markup">libebml v1.4.1 + libmatroska v1.6.2</property>
  <property name="meta.attr.creation_time.markup">2022-11-08T22:23:44.000000Z</property>
  <property name="seekable">1</property>
  <property name="meta.media.sample_aspect_num">1</property>
  <property name="meta.media.sample_aspect_den">1</property>
  <property name="aspect_ratio">1</property>
  <property name="format">3</property>
  <property name="kdenlive:clipname"/>
  <property name="kdenlive:clip_type">0</property>
  <property name="kdenlive:folderid">-1</property>
  <property name="kdenlive:id">2</property>
  <property name="kdenlive:active_streams">1;2;3</property>
  <property name="kdenlive:file_size">494036232</property>
  <property name="kdenlive:file_hash">2ca6d30d65808083acf92eb29459b304</property>
  <property name="meta.media.frame_rate_num">24000</property>
  <property name="meta.media.frame_rate_den">1001</property>
  <property name="meta.media.colorspace">709</property>
  <property name="meta.media.color_trc">1</property>
  <property name="meta.media.has_b_frames">2</property>
  <property name="meta.media.width">1440</property>
  <property name="meta.media.height">1080</property>
  <property name="meta.media.color_range">mpeg</property>
  <property name="meta.media.top_field_first">0</property>
  <property name="meta.media.progressive">1</property>
  <property name="kdenlive:audio_max1">182</property>
  <property name="kdenlive:audio_max2">193</property>
  <property name="kdenlive:audio_max3">189</property>
 </chain>
 <chain id="producer1" out="00:23:55.555">
  <property name="length">34419</property>
  <property name="eof">pause</property>
  <property name="resource">/mnt/data1/Anime-Edits/Monster/Monster-Editing/Orig/Monster - Chapter 16 - Wolf's Confession.mkv</property>
  <property name="mlt_service">avformat-novalidate</property>
  <property name="audio_index">1</property>
  <property name="video_index">0</property>
  <property name="meta.media.nb_streams">23</property>
  <property name="meta.media.0.stream.type">video</property>
  <property name="meta.media.0.stream.frame_rate">23.976</property>
  <property name="meta.media.0.stream.sample_aspect_ratio">1</property>
  <property name="meta.media.0.codec.width">1440</property>
  <property name="meta.media.0.codec.height">1080</property>
  <property name="meta.media.0.codec.rotate">0</property>
  <property name="meta.media.0.codec.pix_fmt">yuv420p10le</property>
  <property name="meta.media.0.codec.sample_aspect_ratio">1</property>
  <property name="meta.media.0.codec.colorspace">709</property>
  <property name="meta.media.0.codec.color_trc">1</property>
  <property name="meta.media.0.codec.name">hevc</property>
  <property name="meta.media.0.codec.long_name">HEVC (High Efficiency Video Coding)</property>
  <property name="meta.media.0.codec.bit_rate">0</property>
  <property name="meta.attr.0.stream.BPS-eng.markup">1927560</property>
  <property name="meta.attr.0.stream.DURATION-eng.markup">00:23:55.518000000</property>
  <property name="meta.attr.0.stream.NUMBER_OF_FRAMES-eng.markup">34418</property>
  <property name="meta.attr.0.stream.NUMBER_OF_BYTES-eng.markup">345881056</property>
  <property name="meta.attr.0.stream._STATISTICS_WRITING_APP-eng.markup">mkvmerge v52.0.0 ('Secret For The Mad') 64-bit</property>
  <property name="meta.attr.0.stream._STATISTICS_WRITING_DATE_UTC-eng.markup">2022-11-09 08:56:56</property>
  <property name="meta.attr.0.stream._STATISTICS_TAGS-eng.markup">BPS DURATION NUMBER_OF_FRAMES NUMBER_OF_BYTES</property>
  <property name="meta.media.1.stream.type">audio</property>
  <property name="meta.media.1.codec.sample_fmt">fltp</property>
  <property name="meta.media.1.codec.sample_rate">48000</property>
  <property name="meta.media.1.codec.channels">2</property>
  <property name="meta.media.1.codec.name">ac3</property>
  <property name="meta.media.1.codec.long_name">ATSC A/52A (AC-3)</property>
  <property name="meta.media.1.codec.bit_rate">448000</property>
  <property name="meta.attr.1.stream.language.markup">jpn</property>
  <property name="meta.attr.1.stream.title.markup">Japanese DVD AC-3 DD_2.0</property>
  <property name="meta.attr.1.stream.BPS-eng.markup">448000</property>
  <property name="meta.attr.1.stream.DURATION-eng.markup">00:23:55.552000000</property>
  <property name="meta.attr.1.stream.NUMBER_OF_FRAMES-eng.markup">44861</property>
  <property name="meta.attr.1.stream.NUMBER_OF_BYTES-eng.markup">80390912</property>
  <property name="meta.attr.1.stream._STATISTICS_WRITING_APP-eng.markup">mkvmerge v52.0.0 ('Secret For The Mad') 64-bit</property>
  <property name="meta.attr.1.stream._STATISTICS_WRITING_DATE_UTC-eng.markup">2022-11-09 08:56:56</property>
  <property name="meta.attr.1.stream._STATISTICS_TAGS-eng.markup">BPS DURATION NUMBER_OF_FRAMES NUMBER_OF_BYTES</property>
  <property name="meta.media.2.stream.type">audio</property>
  <property name="meta.media.2.codec.sample_fmt">fltp</property>
  <property name="meta.media.2.codec.sample_rate">44100</property>
  <property name="meta.media.2.codec.channels">2</property>
  <property name="meta.media.2.codec.name">aac</property>
  <property name="meta.media.2.codec.long_name">AAC (Advanced Audio Coding)</property>
  <property name="meta.media.2.codec.bit_rate">0</property>
  <property name="meta.attr.2.stream.language.markup">eng</property>
  <property name="meta.attr.2.stream.title.markup">English AAC DD_2.0</property>
  <property name="meta.attr.2.stream.BPS-eng.markup">134680</property>
  <property name="meta.attr.2.stream.DURATION-eng.markup">00:23:55.295000000</property>
  <property name="meta.attr.2.stream.NUMBER_OF_FRAMES-eng.markup">61813</property>
  <property name="meta.attr.2.stream.NUMBER_OF_BYTES-eng.markup">24163291</property>
  <property name="meta.attr.2.stream._STATISTICS_WRITING_APP-eng.markup">mkvmerge v52.0.0 ('Secret For The Mad') 64-bit</property>
  <property name="meta.attr.2.stream._STATISTICS_WRITING_DATE_UTC-eng.markup">2022-11-09 08:56:56</property>
  <property name="meta.attr.2.stream._STATISTICS_TAGS-eng.markup">BPS DURATION NUMBER_OF_FRAMES NUMBER_OF_BYTES</property>
  <property name="meta.media.3.codec.name">ssa</property>
  <property name="meta.media.3.codec.long_name">ASS (Advanced SubStation Alpha) subtitle</property>
  <property name="meta.media.3.codec.bit_rate">0</property>
  <property name="meta.attr.3.stream.language.markup">eng</property>
  <property name="meta.attr.3.stream.title.markup">English (Full) ASS</property>
  <property name="meta.attr.3.stream.BPS-eng.markup">79</property>
  <property name="meta.attr.3.stream.DURATION-eng.markup">00:23:51.650000000</property>
  <property name="meta.attr.3.stream.NUMBER_OF_FRAMES-eng.markup">246</property>
  <property name="meta.attr.3.stream.NUMBER_OF_BYTES-eng.markup">14158</property>
  <property name="meta.attr.3.stream._STATISTICS_WRITING_APP-eng.markup">mkvmerge v52.0.0 ('Secret For The Mad') 64-bit</property>
  <property name="meta.attr.3.stream._STATISTICS_WRITING_DATE_UTC-eng.markup">2022-11-09 08:56:56</property>
  <property name="meta.attr.3.stream._STATISTICS_TAGS-eng.markup">BPS DURATION NUMBER_OF_FRAMES NUMBER_OF_BYTES</property>
  <property name="meta.media.4.codec.name">ssa</property>
  <property name="meta.media.4.codec.long_name">ASS (Advanced SubStation Alpha) subtitle</property>
  <property name="meta.media.4.codec.bit_rate">0</property>
  <property name="meta.attr.4.stream.language.markup">eng</property>
  <property name="meta.attr.4.stream.title.markup">English (Titles &amp; Signs) ASS</property>
  <property name="meta.attr.4.stream.BPS-eng.markup">0</property>
  <property name="meta.attr.4.stream.DURATION-eng.markup">00:21:53.260000000</property>
  <property name="meta.attr.4.stream.NUMBER_OF_FRAMES-eng.markup">2</property>
  <property name="meta.attr.4.stream.NUMBER_OF_BYTES-eng.markup">120</property>
  <property name="meta.attr.4.stream._STATISTICS_WRITING_APP-eng.markup">mkvmerge v52.0.0 ('Secret For The Mad') 64-bit</property>
  <property name="meta.attr.4.stream._STATISTICS_WRITING_DATE_UTC-eng.markup">2022-11-09 08:56:56</property>
  <property name="meta.attr.4.stream._STATISTICS_TAGS-eng.markup">BPS DURATION NUMBER_OF_FRAMES NUMBER_OF_BYTES</property>
  <property name="meta.media.5.codec.name">ssa</property>
  <property name="meta.media.5.codec.long_name">ASS (Advanced SubStation Alpha) subtitle</property>
  <property name="meta.media.5.codec.bit_rate">0</property>
  <property name="meta.attr.5.stream.language.markup">ara</property>
  <property name="meta.attr.5.stream.title.markup">Arabic</property>
  <property name="meta.attr.5.stream.BPS-eng.markup">108</property>
  <property name="meta.attr.5.stream.DURATION-eng.markup">00:22:21.280000000</property>
  <property name="meta.attr.5.stream.NUMBER_OF_FRAMES-eng.markup">300</property>
  <property name="meta.attr.5.stream.NUMBER_OF_BYTES-eng.markup">18142</property>
  <property name="meta.attr.5.stream._STATISTICS_WRITING_APP-eng.markup">mkvmerge v52.0.0 ('Secret For The Mad') 64-bit</property>
  <property name="meta.attr.5.stream._STATISTICS_WRITING_DATE_UTC-eng.markup">2022-11-09 08:56:56</property>
  <property name="meta.attr.5.stream._STATISTICS_TAGS-eng.markup">BPS DURATION NUMBER_OF_FRAMES NUMBER_OF_BYTES</property>
  <property name="meta.attr.title.markup">Monster : Chapter 16 : Wolf's Confession</property>
  <property name="meta.attr.encoder.markup">libebml v1.4.1 + libmatroska v1.6.2</property>
  <property name="meta.attr.creation_time.markup">2022-11-09T08:56:56.000000Z</property>
  <property name="seekable">1</property>
  <property name="meta.media.sample_aspect_num">1</property>
  <property name="meta.media.sample_aspect_den">1</property>
  <property name="aspect_ratio">1</property>
  <property name="format">3</property>
  <property name="kdenlive:clipname"/>
  <property name="kdenlive:clip_type">0</property>
  <property name="kdenlive:folderid">-1</property>
  <property name="kdenlive:id">3</property>
  <property name="kdenlive:active_streams">1;2</property>
  <property name="kdenlive:file_size">453347744</property>
  <property name="kdenlive:file_hash">e20faadd6aacbf2723f80ea021db38b5</property>
  <property name="meta.media.frame_rate_num">24000</property>
  <property name="meta.media.frame_rate_den">1001</property>
  <property name="meta.media.colorspace">709</property>
  <property name="meta.media.color_trc">1</property>
  <property name="meta.media.has_b_frames">2</property>
  <property name="meta.media.width">1440</property>
  <property name="meta.media.height">1080</property>
  <property name="meta.media.color_range">mpeg</property>
  <property name="meta.media.top_field_first">0</property>
  <property name="meta.media.progressive">1</property>
  <property name="kdenlive:audio_max1">184</property>
  <property name="kdenlive:audio_max2">193</property>
 </chain>
 <chain id="producer2" out="00:23:55.514">
  <property name="length">34418</property>
  <property name="eof">pause</property>
  <property name="resource">/mnt/data1/Anime-Edits/Monster/Monster-Editing/Orig/Monster - Chapter 17 - Reunion.mkv</property>
  <property name="mlt_service">avformat-novalidate</property>
  <property name="audio_index">1</property>
  <property name="video_index">0</property>
  <property name="meta.media.nb_streams">23</property>
  <property name="meta.media.0.stream.type">video</property>
  <property name="meta.media.0.stream.frame_rate">23.976</property>
  <property name="meta.media.0.stream.sample_aspect_ratio">1</property>
  <property name="meta.media.0.codec.width">1440</property>
  <property name="meta.media.0.codec.height">1080</property>
  <property name="meta.media.0.codec.rotate">0</property>
  <property name="meta.media.0.codec.pix_fmt">yuv420p10le</property>
  <property name="meta.media.0.codec.sample_aspect_ratio">1</property>
  <property name="meta.media.0.codec.colorspace">709</property>
  <property name="meta.media.0.codec.color_trc">1</property>
  <property name="meta.media.0.codec.name">hevc</property>
  <property name="meta.media.0.codec.long_name">HEVC (High Efficiency Video Coding)</property>
  <property name="meta.media.0.codec.bit_rate">0</property>
  <property name="meta.attr.0.stream.BPS-eng.markup">1815816</property>
  <property name="meta.attr.0.stream.DURATION-eng.markup">00:23:55.518000000</property>
  <property name="meta.attr.0.stream.NUMBER_OF_FRAMES-eng.markup">34418</property>
  <property name="meta.attr.0.stream.NUMBER_OF_BYTES-eng.markup">325829715</property>
  <property name="meta.attr.0.stream._STATISTICS_WRITING_APP-eng.markup">mkvmerge v52.0.0 ('Secret For The Mad') 64-bit</property>
  <property name="meta.attr.0.stream._STATISTICS_WRITING_DATE_UTC-eng.markup">2022-11-09 08:57:37</property>
  <property name="meta.attr.0.stream._STATISTICS_TAGS-eng.markup">BPS DURATION NUMBER_OF_FRAMES NUMBER_OF_BYTES</property>
  <property name="meta.media.1.stream.type">audio</property>
  <property name="meta.media.1.codec.sample_fmt">fltp</property>
  <property name="meta.media.1.codec.sample_rate">48000</property>
  <property name="meta.media.1.codec.channels">2</property>
  <property name="meta.media.1.codec.name">ac3</property>
  <property name="meta.media.1.codec.long_name">ATSC A/52A (AC-3)</property>
  <property name="meta.media.1.codec.bit_rate">448000</property>
  <property name="meta.attr.1.stream.language.markup">jpn</property>
  <property name="meta.attr.1.stream.title.markup">Japanese DVD AC-3 DD_2.0</property>
  <property name="meta.attr.1.stream.BPS-eng.markup">448000</property>
  <property name="meta.attr.1.stream.DURATION-eng.markup">00:23:55.520000000</property>
  <property name="meta.attr.1.stream.NUMBER_OF_FRAMES-eng.markup">44860</property>
  <property name="meta.attr.1.stream.NUMBER_OF_BYTES-eng.markup">80389120</property>
  <property name="meta.attr.1.stream._STATISTICS_WRITING_APP-eng.markup">mkvmerge v52.0.0 ('Secret For The Mad') 64-bit</property>
  <property name="meta.attr.1.stream._STATISTICS_WRITING_DATE_UTC-eng.markup">2022-11-09 08:57:37</property>
  <property name="meta.attr.1.stream._STATISTICS_TAGS-eng.markup">BPS DURATION NUMBER_OF_FRAMES NUMBER_OF_BYTES</property>
  <property name="meta.media.2.stream.type">audio</property>
  <property name="meta.media.2.codec.sample_fmt">fltp</property>
  <property name="meta.media.2.codec.sample_rate">44100</property>
  <property name="meta.media.2.codec.channels">2</property>
  <property name="meta.media.2.codec.name">aac</property>
  <property name="meta.media.2.codec.long_name">AAC (Advanced Audio Coding)</property>
  <property name="meta.media.2.codec.bit_rate">0</property>
  <property name="meta.attr.2.stream.language.markup">eng</property>
  <property name="meta.attr.2.stream.title.markup">English AAC DD_2.0</property>
  <property name="meta.attr.2.stream.BPS-eng.markup">141066</property>
  <property name="meta.attr.2.stream.DURATION-eng.markup">00:23:55.435000000</property>
  <property name="meta.attr.2.stream.NUMBER_OF_FRAMES-eng.markup">61819</property>
  <property name="meta.attr.2.stream.NUMBER_OF_BYTES-eng.markup">25311493</property>
  <property name="meta.attr.2.stream._STATISTICS_WRITING_APP-eng.markup">mkvmerge v52.0.0 ('Secret For The Mad') 64-bit</property>
  <property name="meta.attr.2.stream._STATISTICS_WRITING_DATE_UTC-eng.markup">2022-11-09 08:57:37</property>
  <property name="meta.attr.2.stream._STATISTICS_TAGS-eng.markup">BPS DURATION NUMBER_OF_FRAMES NUMBER_OF_BYTES</property>
  <property name="meta.media.3.codec.name">ssa</property>
  <property name="meta.media.3.codec.long_name">ASS (Advanced SubStation Alpha) subtitle</property>
  <property name="meta.media.3.codec.bit_rate">0</property>
  <property name="meta.attr.3.stream.language.markup">eng</property>
  <property name="meta.attr.3.stream.title.markup">English (Full) ASS</property>
  <property name="meta.attr.3.stream.BPS-eng.markup">94</property>
  <property name="meta.attr.3.stream.DURATION-eng.markup">00:23:38.620000000</property>
  <property name="meta.attr.3.stream.NUMBER_OF_FRAMES-eng.markup">304</property>
  <property name="meta.attr.3.stream.NUMBER_OF_BYTES-eng.markup">16798</property>
  <property name="meta.attr.3.stream._STATISTICS_WRITING_APP-eng.markup">mkvmerge v52.0.0 ('Secret For The Mad') 64-bit</property>
  <property name="meta.attr.3.stream._STATISTICS_WRITING_DATE_UTC-eng.markup">2022-11-09 08:57:37</property>
  <property name="meta.attr.3.stream._STATISTICS_TAGS-eng.markup">BPS DURATION NUMBER_OF_FRAMES NUMBER_OF_BYTES</property>
  <property name="meta.media.4.codec.name">ssa</property>
  <property name="meta.media.4.codec.long_name">ASS (Advanced SubStation Alpha) subtitle</property>
  <property name="meta.media.4.codec.bit_rate">0</property>
  <property name="meta.attr.4.stream.language.markup">eng</property>
  <property name="meta.attr.4.stream.title.markup">English (Titles &amp; Signs) ASS</property>
  <property name="meta.attr.4.stream.BPS-eng.markup">0</property>
  <property name="meta.attr.4.stream.DURATION-eng.markup">00:21:21.740000000</property>
  <property name="meta.attr.4.stream.NUMBER_OF_FRAMES-eng.markup">2</property>
  <property name="meta.attr.4.stream.NUMBER_OF_BYTES-eng.markup">125</property>
  <property name="meta.attr.4.stream._STATISTICS_WRITING_APP-eng.markup">mkvmerge v52.0.0 ('Secret For The Mad') 64-bit</property>
  <property name="meta.attr.4.stream._STATISTICS_WRITING_DATE_UTC-eng.markup">2022-11-09 08:57:37</property>
  <property name="meta.attr.4.stream._STATISTICS_TAGS-eng.markup">BPS DURATION NUMBER_OF_FRAMES NUMBER_OF_BYTES</property>
  <property name="meta.media.5.codec.name">ssa</property>
  <property name="meta.media.5.codec.long_name">ASS (Advanced SubStation Alpha) subtitle</property>
  <property name="meta.media.5.codec.bit_rate">0</property>
  <property name="meta.attr.5.stream.language.markup">ara</property>
  <property name="meta.attr.5.stream.title.markup">Arabic</property>
  <property name="meta.attr.5.stream.BPS-eng.markup">125</property>
  <property name="meta.attr.5.stream.DURATION-eng.markup">00:22:11.080000000</property>
  <property name="meta.attr.5.stream.NUMBER_OF_FRAMES-eng.markup">362</property>
  <property name="meta.attr.5.stream.NUMBER_OF_BYTES-eng.markup">20869</property>
  <property name="meta.attr.5.stream._STATISTICS_WRITING_APP-eng.markup">mkvmerge v52.0.0 ('Secret For The Mad') 64-bit</property>
  <property name="meta.attr.5.stream._STATISTICS_WRITING_DATE_UTC-eng.markup">2022-11-09 08:57:37</property>
  <property name="meta.attr.5.stream._STATISTICS_TAGS-eng.markup">BPS DURATION NUMBER_OF_FRAMES NUMBER_OF_BYTES</property>
  <property name="meta.attr.title.markup">Monster : Chapter 17 : Reunion</property>
  <property name="meta.attr.encoder.markup">libebml v1.4.1 + libmatroska v1.6.2</property>
  <property name="meta.attr.creation_time.markup">2022-11-09T08:57:37.000000Z</property>
  <property name="seekable">1</property>
  <property name="meta.media.sample_aspect_num">1</property>
  <property name="meta.media.sample_aspect_den">1</property>
  <property name="aspect_ratio">1</property>
  <property name="format">3</property>
  <property name="kdenlive:clipname"/>
  <property name="kdenlive:clip_type">0</property>
  <property name="kdenlive:folderid">-1</property>
  <property name="kdenlive:id">4</property>
  <property name="kdenlive:active_streams">1;2</property>
  <property name="kdenlive:file_size">434452861</property>
  <property name="kdenlive:file_hash">0f152e6813adc63a91f8c38e71ab3613</property>
  <property name="meta.media.frame_rate_num">24000</property>
  <property name="meta.media.frame_rate_den">1001</property>
  <property name="meta.media.colorspace">709</property>
  <property name="meta.media.color_trc">1</property>
  <property name="meta.media.has_b_frames">2</property>
  <property name="meta.media.width">1440</property>
  <property name="meta.media.height">1080</property>
  <property name="meta.media.color_range">mpeg</property>
  <property name="meta.media.top_field_first">0</property>
  <property name="meta.media.progressive">1</property>
  <property name="kdenlive:audio_max1">180</property>
  <property name="kdenlive:audio_max2">202</property>
 </chain>
 <chain id="producer3" out="00:23:55.472">
  <property name="length">34417</property>
  <property name="eof">pause</property>
  <property name="resource">/mnt/data1/Anime-Edits/Monster/Monster-Editing/Orig/Monster - Chapter 18 - The Fifth Spoonful Of Sugar.mkv</property>
  <property name="mlt_service">avformat-novalidate</property>
  <property name="audio_index">1</property>
  <property name="video_index">0</property>
  <property name="meta.media.nb_streams">23</property>
  <property name="meta.media.0.stream.type">video</property>
  <property name="meta.media.0.stream.frame_rate">23.976</property>
  <property name="meta.media.0.stream.sample_aspect_ratio">1</property>
  <property name="meta.media.0.codec.width">1440</property>
  <property name="meta.media.0.codec.height">1080</property>
  <property name="meta.media.0.codec.rotate">0</property>
  <property name="meta.media.0.codec.pix_fmt">yuv420p10le</property>
  <property name="meta.media.0.codec.sample_aspect_ratio">1</property>
  <property name="meta.media.0.codec.colorspace">709</property>
  <property name="meta.media.0.codec.color_trc">1</property>
  <property name="meta.media.0.codec.name">hevc</property>
  <property name="meta.media.0.codec.long_name">HEVC (High Efficiency Video Coding)</property>
  <property name="meta.media.0.codec.bit_rate">0</property>
  <property name="meta.attr.0.stream.BPS-eng.markup">1872489</property>
  <property name="meta.attr.0.stream.DURATION-eng.markup">00:23:55.434000000</property>
  <property name="meta.attr.0.stream.NUMBER_OF_FRAMES-eng.markup">34416</property>
  <property name="meta.attr.0.stream.NUMBER_OF_BYTES-eng.markup">335979397</property>
  <property name="meta.attr.0.stream._STATISTICS_WRITING_APP-eng.markup">mkvmerge v52.0.0 ('Secret For The Mad') 64-bit</property>
  <property name="meta.attr.0.stream._STATISTICS_WRITING_DATE_UTC-eng.markup">2022-11-09 08:58:24</property>
  <property name="meta.attr.0.stream._STATISTICS_TAGS-eng.markup">BPS DURATION NUMBER_OF_FRAMES NUMBER_OF_BYTES</property>
  <property name="meta.media.1.stream.type">audio</property>
  <property name="meta.media.1.codec.sample_fmt">fltp</property>
  <property name="meta.media.1.codec.sample_rate">48000</property>
  <property name="meta.media.1.codec.channels">2</property>
  <property name="meta.media.1.codec.name">ac3</property>
  <property name="meta.media.1.codec.long_name">ATSC A/52A (AC-3)</property>
  <property name="meta.media.1.codec.bit_rate">448000</property>
  <property name="meta.attr.1.stream.language.markup">jpn</property>
  <property name="meta.attr.1.stream.title.markup">Japanese DVD AC-3 DD_2.0</property>
  <property name="meta.attr.1.stream.BPS-eng.markup">448000</property>
  <property name="meta.attr.1.stream.DURATION-eng.markup">00:23:55.488000000</property>
  <property name="meta.attr.1.stream.NUMBER_OF_FRAMES-eng.markup">44859</property>
  <property name="meta.attr.1.stream.NUMBER_OF_BYTES-eng.markup">80387328</property>
  <property name="meta.attr.1.stream._STATISTICS_WRITING_APP-eng.markup">mkvmerge v52.0.0 ('Secret For The Mad') 64-bit</property>
  <property name="meta.attr.1.stream._STATISTICS_WRITING_DATE_UTC-eng.markup">2022-11-09 08:58:24</property>
  <property name="meta.attr.1.stream._STATISTICS_TAGS-eng.markup">BPS DURATION NUMBER_OF_FRAMES NUMBER_OF_BYTES</property>
  <property name="meta.media.2.stream.type">audio</property>
  <property name="meta.media.2.codec.sample_fmt">fltp</property>
  <property name="meta.media.2.codec.sample_rate">44100</property>
  <property name="meta.media.2.codec.channels">2</property>
  <property name="meta.media.2.codec.name">aac</property>
  <property name="meta.media.2.codec.long_name">AAC (Advanced Audio Coding)</property>
  <property name="meta.media.2.codec.bit_rate">0</property>
  <property name="meta.attr.2.stream.language.markup">eng</property>
  <property name="meta.attr.2.stream.title.markup">English AAC DD_2.0</property>
  <property name="meta.attr.2.stream.BPS-eng.markup">142539</property>
  <property name="meta.attr.2.stream.DURATION-eng.markup">00:23:55.202000000</property>
  <property name="meta.attr.2.stream.NUMBER_OF_FRAMES-eng.markup">61809</property>
  <property name="meta.attr.2.stream.NUMBER_OF_BYTES-eng.markup">25571616</property>
  <property name="meta.attr.2.stream._STATISTICS_WRITING_APP-eng.markup">mkvmerge v52.0.0 ('Secret For The Mad') 64-bit</property>
  <property name="meta.attr.2.stream._STATISTICS_WRITING_DATE_UTC-eng.markup">2022-11-09 08:58:24</property>
  <property name="meta.attr.2.stream._STATISTICS_TAGS-eng.markup">BPS DURATION NUMBER_OF_FRAMES NUMBER_OF_BYTES</property>
  <property name="meta.media.3.codec.name">ssa</property>
  <property name="meta.media.3.codec.long_name">ASS (Advanced SubStation Alpha) subtitle</property>
  <property name="meta.media.3.codec.bit_rate">0</property>
  <property name="meta.attr.3.stream.language.markup">eng</property>
  <property name="meta.attr.3.stream.title.markup">English (Full) ASS</property>
  <property name="meta.attr.3.stream.BPS-eng.markup">65</property>
  <property name="meta.attr.3.stream.DURATION-eng.markup">00:23:48.540000000</property>
  <property name="meta.attr.3.stream.NUMBER_OF_FRAMES-eng.markup">214</property>
  <property name="meta.attr.3.stream.NUMBER_OF_BYTES-eng.markup">11619</property>
  <property name="meta.attr.3.stream._STATISTICS_WRITING_APP-eng.markup">mkvmerge v52.0.0 ('Secret For The Mad') 64-bit</property>
  <property name="meta.attr.3.stream._STATISTICS_WRITING_DATE_UTC-eng.markup">2022-11-09 08:58:24</property>
  <property name="meta.attr.3.stream._STATISTICS_TAGS-eng.markup">BPS DURATION NUMBER_OF_FRAMES NUMBER_OF_BYTES</property>
  <property name="meta.media.4.codec.name">ssa</property>
  <property name="meta.media.4.codec.long_name">ASS (Advanced SubStation Alpha) subtitle</property>
  <property name="meta.media.4.codec.bit_rate">0</property>
  <property name="meta.attr.4.stream.language.markup">eng</property>
  <property name="meta.attr.4.stream.title.markup">English (Titles &amp; Signs) ASS</property>
  <property name="meta.attr.4.stream.BPS-eng.markup">0</property>
  <property name="meta.attr.4.stream.DURATION-eng.markup">00:21:34.430000000</property>
  <property name="meta.attr.4.stream.NUMBER_OF_FRAMES-eng.markup">2</property>
  <property name="meta.attr.4.stream.NUMBER_OF_BYTES-eng.markup">132</property>
  <property name="meta.attr.4.stream._STATISTICS_WRITING_APP-eng.markup">mkvmerge v52.0.0 ('Secret For The Mad') 64-bit</property>
  <property name="meta.attr.4.stream._STATISTICS_WRITING_DATE_UTC-eng.markup">2022-11-09 08:58:24</property>
  <property name="meta.attr.4.stream._STATISTICS_TAGS-eng.markup">BPS DURATION NUMBER_OF_FRAMES NUMBER_OF_BYTES</property>
  <property name="meta.media.5.codec.name">ssa</property>
  <property name="meta.media.5.codec.long_name">ASS (Advanced SubStation Alpha) subtitle</property>
  <property name="meta.media.5.codec.bit_rate">0</property>
  <property name="meta.attr.5.stream.language.markup">ara</property>
  <property name="meta.attr.5.stream.title.markup">Arabic</property>
  <property name="meta.attr.5.stream.BPS-eng.markup">96</property>
  <property name="meta.attr.5.stream.DURATION-eng.markup">00:21:32.040000000</property>
  <property name="meta.attr.5.stream.NUMBER_OF_FRAMES-eng.markup">255</property>
  <property name="meta.attr.5.stream.NUMBER_OF_BYTES-eng.markup">15580</property>
  <property name="meta.attr.5.stream._STATISTICS_WRITING_APP-eng.markup">mkvmerge v52.0.0 ('Secret For The Mad') 64-bit</property>
  <property name="meta.attr.5.stream._STATISTICS_WRITING_DATE_UTC-eng.markup">2022-11-09 08:58:24</property>
  <property name="meta.attr.5.stream._STATISTICS_TAGS-eng.markup">BPS DURATION NUMBER_OF_FRAMES NUMBER_OF_BYTES</property>
  <property name="meta.attr.title.markup">Monster : Chapter 18 : The Fifth Spoonful Of Sugar</property>
  <property name="meta.attr.encoder.markup">libebml v1.4.1 + libmatroska v1.6.2</property>
  <property name="meta.attr.creation_time.markup">2022-11-09T08:58:24.000000Z</property>
  <property name="seekable">1</property>
  <property name="meta.media.sample_aspect_num">1</property>
  <property name="meta.media.sample_aspect_den">1</property>
  <property name="aspect_ratio">1</property>
  <property name="format">3</property>
  <property name="kdenlive:clipname"/>
  <property name="kdenlive:clip_type">0</property>
  <property name="kdenlive:folderid">-1</property>
  <property name="kdenlive:id">5</property>
  <property name="kdenlive:active_streams">1;2</property>
  <property name="kdenlive:file_size">444843133</property>
  <property name="kdenlive:file_hash">a86567c7e1de80ed0c91f4dd5f126d18</property>
  <property name="meta.media.frame_rate_num">24000</property>
  <property name="meta.media.frame_rate_den">1001</property>
  <property name="meta.media.colorspace">709</property>
  <property name="meta.media.color_trc">1</property>
  <property name="meta.media.has_b_frames">2</property>
  <property name="meta.media.width">1440</property>
  <property name="meta.media.height">1080</property>
  <property name="meta.media.color_range">mpeg</property>
  <property name="meta.media.top_field_first">0</property>
  <property name="meta.media.progressive">1</property>
  <property name="kdenlive:audio_max1">180</property>
  <property name="kdenlive:audio_max2">195</property>
 </chain>
 <chain id="producer7" out="00:23:54.680">
  <property name="length">34398</property>
  <property name="eof">pause</property>
  <property name="resource">/mnt/data1/Anime-Edits/Monster/Monster-Editing/Audio/eng/Ep15.flac</property>
  <property name="mlt_service">avformat</property>
  <property name="meta.media.nb_streams">1</property>
  <property name="meta.media.0.stream.type">audio</property>
  <property name="meta.media.0.codec.sample_fmt">s32</property>
  <property name="meta.media.0.codec.sample_rate">48000</property>
  <property name="meta.media.0.codec.channels">2</property>
  <property name="meta.media.0.codec.name">flac</property>
  <property name="meta.media.0.codec.long_name">FLAC (Free Lossless Audio Codec)</property>
  <property name="meta.media.0.codec.bit_rate">0</property>
  <property name="meta.attr.title.markup">Monster : Chapter 15 : Be My Baby</property>
  <property name="meta.attr.encoder.markup">Lavf60.3.100</property>
  <property name="seekable">1</property>
  <property name="audio_index">0</property>
  <property name="video_index">-1</property>
  <property name="kdenlive:clipname"/>
  <property name="kdenlive:clip_type">1</property>
  <property name="kdenlive:folderid">-1</property>
  <property name="kdenlive:id">6</property>
  <property name="kdenlive:file_size">275460216</property>
  <property name="kdenlive:audio_max0">196</property>
  <property name="kdenlive:file_hash">26d0123b9c9826864119cd850c89a59f</property>
  <property name="astream">0</property>
 </chain>
 <chain id="producer4" out="00:23:55.305">
  <property name="length">34413</property>
  <property name="eof">pause</property>
  <property name="resource">/mnt/data1/Anime-Edits/Monster/Monster-Editing/Audio/eng/Ep16.flac</property>
  <property name="mlt_service">avformat</property>
  <property name="meta.media.nb_streams">1</property>
  <property name="meta.media.0.stream.type">audio</property>
  <property name="meta.media.0.codec.sample_fmt">s32</property>
  <property name="meta.media.0.codec.sample_rate">48000</property>
  <property name="meta.media.0.codec.channels">2</property>
  <property name="meta.media.0.codec.name">flac</property>
  <property name="meta.media.0.codec.long_name">FLAC (Free Lossless Audio Codec)</property>
  <property name="meta.media.0.codec.bit_rate">0</property>
  <property name="meta.attr.title.markup">Monster : Chapter 16 : Wolf's Confession</property>
  <property name="meta.attr.encoder.markup">Lavf60.3.100</property>
  <property name="seekable">1</property>
  <property name="audio_index">0</property>
  <property name="video_index">-1</property>
  <property name="kdenlive:clipname"/>
  <property name="kdenlive:clip_type">1</property>
  <property name="kdenlive:originalurl">/mnt/data1/Anime-Edits/Monster/Monster-Editing/Audio/eng/Ep16.flac</property>
  <property name="kdenlive:id">7</property>
  <property name="kdenlive:file_size">253186176</property>
  <property name="kdenlive:file_hash">5132c6867fd5c2b38e4b25b40a531f57</property>
  <property name="kdenlive:folderid">-1</property>
  <property name="kdenlive:audio_max0">201</property>
  <property name="astream">0</property>
 </chain>
 <chain id="producer5" out="00:23:55.430">
  <property name="length">34416</property>
  <property name="eof">pause</property>
  <property name="resource">/mnt/data1/Anime-Edits/Monster/Monster-Editing/Audio/eng/Ep17.flac</property>
  <property name="mlt_service">avformat</property>
  <property name="meta.media.nb_streams">1</property>
  <property name="meta.media.0.stream.type">audio</property>
  <property name="meta.media.0.codec.sample_fmt">s32</property>
  <property name="meta.media.0.codec.sample_rate">48000</property>
  <property name="meta.media.0.codec.channels">2</property>
  <property name="meta.media.0.codec.name">flac</property>
  <property name="meta.media.0.codec.long_name">FLAC (Free Lossless Audio Codec)</property>
  <property name="meta.media.0.codec.bit_rate">0</property>
  <property name="meta.attr.title.markup">Monster : Chapter 17 : Reunion</property>
  <property name="meta.attr.encoder.markup">Lavf60.3.100</property>
  <property name="seekable">1</property>
  <property name="audio_index">0</property>
  <property name="video_index">-1</property>
  <property name="kdenlive:clipname"/>
  <property name="kdenlive:clip_type">1</property>
  <property name="kdenlive:folderid">-1</property>
  <property name="kdenlive:id">8</property>
  <property name="kdenlive:file_size">253210742</property>
  <property name="kdenlive:file_hash">a938b63e4d506c75b9c56d7c20c08891</property>
  <property name="kdenlive:audio_max0">200</property>
  <property name="astream">0</property>
 </chain>
 <chain id="producer6" out="00:23:55.180">
  <property name="length">34410</property>
  <property name="eof">pause</property>
  <property name="resource">/mnt/data1/Anime-Edits/Monster/Monster-Editing/Audio/eng/Ep18.flac</property>
  <property name="mlt_service">avformat</property>
  <property name="meta.media.nb_streams">1</property>
  <property name="meta.media.0.stream.type">audio</property>
  <property name="meta.media.0.codec.sample_fmt">s32</property>
  <property name="meta.media.0.codec.sample_rate">48000</property>
  <property name="meta.media.0.codec.channels">2</property>
  <property name="meta.media.0.codec.name">flac</property>
  <property name="meta.media.0.codec.long_name">FLAC (Free Lossless Audio Codec)</property>
  <property name="meta.media.0.codec.bit_rate">0</property>
  <property name="meta.attr.title.markup">Monster : Chapter 18 : The Fifth Spoonful Of Sugar</property>
  <property name="meta.attr.encoder.markup">Lavf60.3.100</property>
  <property name="seekable">1</property>
  <property name="audio_index">0</property>
  <property name="video_index">-1</property>
  <property name="kdenlive:clipname"/>
  <property name="kdenlive:clip_type">1</property>
  <property name="kdenlive:folderid">-1</property>
  <property name="kdenlive:id">9</property>
  <property name="kdenlive:file_size">253169802</property>
  <property name="kdenlive:file_hash">44166c13f8da33e9c6d069bbc704d05b</property>
  <property name="kdenlive:audio_max0">200</property>
  <property name="astream">0</property>
 </chain>
 <chain id="producer8" out="00:02:41.959">
  <property name="length">3884</property>
  <property name="eof">pause</property>
  <property name="resource">/mnt/data1/Anime-Edits/Monster/Monster-Editing/ClipsnRandom/The Ronettes - Be My Baby (Official Audio) - YouTube.wav</property>
  <property name="mlt_service">avformat</property>
  <property name="meta.media.nb_streams">1</property>
  <property name="meta.media.0.stream.type">audio</property>
  <property name="meta.media.0.codec.sample_fmt">s16</property>
  <property name="meta.media.0.codec.sample_rate">48000</property>
  <property name="meta.media.0.codec.channels">2</property>
  <property name="meta.media.0.codec.name">pcm_s16le</property>
  <property name="meta.media.0.codec.long_name">PCM signed 16-bit little-endian</property>
  <property name="meta.media.0.codec.bit_rate">1536000</property>
  <property name="meta.attr.encoder.markup">Lavf59.27.100</property>
  <property name="seekable">1</property>
  <property name="audio_index">0</property>
  <property name="video_index">-1</property>
  <property name="kdenlive:clipname"/>
  <property name="kdenlive:clip_type">1</property>
  <property name="kdenlive:folderid">-1</property>
  <property name="kdenlive:id">10</property>
  <property name="kdenlive:file_size">31105158</property>
  <property name="kdenlive:file_hash">c1c5c22fb90110217815fb39e73fbeef</property>
  <property name="kdenlive:audio_max0">210</property>
  <property name="astream">0</property>
 </chain>
 <producer id="producer9" in="00:00:00.000" out="01:43:44.127">
  <property name="length">2147483647</property>
  <property name="eof">continue</property>
  <property name="resource">black</property>
  <property name="aspect_ratio">1</property>
  <property name="mlt_service">color</property>
  <property name="kdenlive:playlistid">black_track</property>
  <property name="mlt_image_format">rgba</property>
  <property name="set.test_audio">0</property>
 </producer>
 <chain id="chain0" out="00:23:54.680">
  <property name="length">34398</property>
  <property name="eof">pause</property>
  <property name="resource">/mnt/data1/Anime-Edits/Monster/Monster-Editing/Audio/eng/Ep15.flac</property>
  <property name="mlt_service">avformat-novalidate</property>
  <property name="audio_index">0</property>
  <property name="video_index">-1</property>
  <property name="meta.media.nb_streams">1</property>
  <property name="meta.media.0.stream.type">audio</property>
  <property name="meta.media.0.codec.sample_fmt">s32</property>
  <property name="meta.media.0.codec.sample_rate">48000</property>
  <property name="meta.media.0.codec.channels">2</property>
  <property name="meta.media.0.codec.name">flac</property>
  <property name="meta.media.0.codec.long_name">FLAC (Free Lossless Audio Codec)</property>
  <property name="meta.media.0.codec.bit_rate">0</property>
  <property name="meta.attr.title.markup">Monster : Chapter 15 : Be My Baby</property>
  <property name="meta.attr.encoder.markup">Lavf60.3.100</property>
  <property name="seekable">1</property>
  <property name="kdenlive:clipname"/>
  <property name="kdenlive:clip_type">1</property>
  <property name="kdenlive:folderid">-1</property>
  <property name="kdenlive:id">6</property>
  <property name="kdenlive:file_size">275460216</property>
  <property name="kdenlive:file_hash">0645762c70aa2e5c8074d6adcdcb6b1d</property>
  <property name="kdenlive:audio_max0">196</property>
  <property name="xml">was here</property>
  <property name="set.test_audio">0</property>
  <property name="set.test_image">1</property>
  <property name="astream">0</property>
 </chain>
 <producer id="producer10" in="00:00:00.000" out="00:01:25.067">
  <property name="length">2039</property>
  <property name="eof">pause</property>
  <property name="resource">1.500000:/mnt/data1/Anime-Edits/Monster/Monster-Editing/Monster [Ultimate Collection] By Kira [SEV]/Original Soundtracks [2004]/Monster - Original Soundtrack II [2004]/07 - OUR DESTINATIONS CALLS.flac</property>
  <property name="aspect_ratio">1</property>
  <property name="meta.media.nb_streams">2</property>
  <property name="meta.media.0.stream.type">audio</property>
  <property name="meta.media.0.codec.sample_fmt">s16</property>
  <property name="meta.media.0.codec.sample_rate">44100</property>
  <property name="meta.media.0.codec.channels">2</property>
  <property name="meta.media.0.codec.name">flac</property>
  <property name="meta.media.0.codec.long_name">FLAC (Free Lossless Audio Codec)</property>
  <property name="meta.media.0.codec.bit_rate">0</property>
  <property name="meta.media.1.stream.type">video</property>
  <property name="meta.media.1.stream.frame_rate">90000</property>
  <property name="meta.media.1.stream.sample_aspect_ratio">0</property>
  <property name="meta.media.1.codec.width">1685</property>
  <property name="meta.media.1.codec.height">1475</property>
  <property name="meta.media.1.codec.rotate">0</property>
  <property name="meta.media.1.codec.pix_fmt">yuvj420p</property>
  <property name="meta.media.1.codec.sample_aspect_ratio">0</property>
  <property name="meta.media.1.codec.colorspace">601</property>
  <property name="meta.media.1.codec.name">mjpeg</property>
  <property name="meta.media.1.codec.long_name">MJPEG (Motion JPEG)</property>
  <property name="meta.media.1.codec.bit_rate">0</property>
  <property name="meta.attr.1.stream.comment.markup">Cover (front)</property>
  <property name="meta.attr.TITLE.markup">OUR DESTINATIONS CALLS</property>
  <property name="meta.attr.ARTIST.markup">Kuniaki Haishima</property>
  <property name="meta.attr.ALBUM.markup">Monster : Original Soundtrack II</property>
  <property name="meta.attr.DATE.markup">2004</property>
  <property name="meta.attr.GENRE.markup">Anime</property>
  <property name="meta.attr.COMPOSER.markup">Kuniaki Haishima</property>
  <property name="meta.attr.ORIGINALARTIST.markup">Kuniaki Haishima</property>
  <property name="meta.attr.ENCODEDBY.markup">Mr. J</property>
  <property name="meta.attr.track.markup">07/21</property>
  <property name="meta.attr.disc.markup">01/01</property>
  <property name="meta.attr.ORIGARTIST.markup">Kuniaki Haishima</property>
  <property name="meta.attr.ALBUM ARTIST.markup">Kuniaki Haishima</property>
  <property name="meta.attr.ARTISTSORT.markup">Kuniaki Haishima</property>
  <property name="meta.attr.ALBUMARTISTSORT.markup">Kuniaki Haishima</property>
  <property name="meta.attr.ALBUMSORT.markup">Monster : Original Soundtrack II</property>
  <property name="meta.attr.COMPOSERSORT.markup">Kuniaki Haishima</property>
  <property name="meta.attr.SHOWSORT.markup">Monster</property>
  <property name="seekable">1</property>
  <property name="meta.media.sample_aspect_num">1</property>
  <property name="meta.media.sample_aspect_den">1</property>
  <property name="format">3</property>
  <property name="audio_index">0</property>
  <property name="video_index">1</property>
  <property name="warp_speed">1.5</property>
  <property name="warp_resource">/mnt/data1/Anime-Edits/Monster/Monster-Editing/Monster [Ultimate Collection] By Kira [SEV]/Original Soundtracks [2004]/Monster - Original Soundtrack II [2004]/07 - OUR DESTINATIONS CALLS.flac</property>
  <property name="mlt_service">timewarp</property>
  <property name="vstream">0</property>
  <property name="astream">0</property>
  <property name="set.test_audio">0</property>
  <property name="set.test_image">1</property>
  <property name="kdenlive:id">14</property>
  <property name="warp_pitch">1</property>
  <property name="meta.media.frame_rate_num">90000</property>
  <property name="meta.media.frame_rate_den">1</property>
  <property name="meta.media.colorspace">601</property>
  <property name="meta.media.color_trc">2</property>
  <property name="meta.media.has_b_frames">0</property>
  <property name="meta.media.width">1685</property>
  <property name="meta.media.height">1475</property>
  <property name="meta.media.color_range">full</property>
 </producer>
 <chain id="chain1" out="00:23:55.430">
  <property name="length">34416</property>
  <property name="eof">pause</property>
  <property name="resource">/mnt/data1/Anime-Edits/Monster/Monster-Editing/Audio/eng/Ep17.flac</property>
  <property name="mlt_service">avformat-novalidate</property>
  <property name="seekable">1</property>
  <property name="audio_index">0</property>
  <property name="video_index">-1</property>
  <property name="kdenlive:clipname"/>
  <property name="kdenlive:clip_type">1</property>
  <property name="kdenlive:folderid">-1</property>
  <property name="kdenlive:id">8</property>
  <property name="kdenlive:file_size">253210742</property>
  <property name="kdenlive:file_hash">a938b63e4d506c75b9c56d7c20c08891</property>
  <property name="kdenlive:audio_max0">200</property>
  <property name="astream">0</property>
  <property name="meta.media.nb_streams">1</property>
  <property name="meta.media.0.stream.type">audio</property>
  <property name="meta.media.0.codec.sample_fmt">s32</property>
  <property name="meta.media.0.codec.sample_rate">48000</property>
  <property name="meta.media.0.codec.channels">2</property>
  <property name="meta.media.0.codec.name">flac</property>
  <property name="meta.media.0.codec.long_name">FLAC (Free Lossless Audio Codec)</property>
  <property name="meta.media.0.codec.bit_rate">0</property>
  <property name="meta.attr.title.markup">Monster : Chapter 17 : Reunion</property>
  <property name="meta.attr.encoder.markup">Lavf60.3.100</property>
  <property name="xml">was here</property>
  <property name="mute_on_pause">0</property>
  <property name="set.test_audio">0</property>
  <property name="set.test_image">1</property>
 </chain>
 <playlist id="playlist0">
  <property name="kdenlive:audio_track">1</property>
  <blank length="00:09:11.178"/>
  <entry producer="chain0" in="00:09:19.436" out="00:09:38.830">
   <property name="kdenlive:id">6</property>
   <property name="kdenlive:activeeffect">2</property>
   <filter id="filter0">
    <property name="window">75</property>
    <property name="max_gain">20dB</property>
    <property name="mlt_service">volume</property>
    <property name="kdenlive_id">gain</property>
    <property name="gain">0.5</property>
    <property name="kdenlive:collapsed">0</property>
   </filter>
   <filter id="filter1" in="00:09:19.436" out="00:09:37.663">
    <property name="window">75</property>
    <property name="max_gain">20dB</property>
    <property name="mlt_service">volume</property>
    <property name="kdenlive_id">fadein</property>
    <property name="gain">0</property>
    <property name="end">1</property>
    <property name="kdenlive:collapsed">0</property>
   </filter>
   <filter id="filter2" in="00:09:37.996" out="00:09:38.830">
    <property name="window">75</property>
    <property name="max_gain">20dB</property>
    <property name="mlt_service">volume</property>
    <property name="kdenlive_id">fadeout</property>
    <property name="gain">1</property>
    <property name="end">0</property>
    <property name="kdenlive:collapsed">0</property>
   </filter>
  </entry>
  <blank length="00:01:23.273"/>
  <entry producer="chain0" in="00:11:07.633" out="00:14:48.966">
   <property name="kdenlive:id">6</property>
   <filter id="filter3" in="00:14:48.507" out="00:14:48.966">
    <property name="window">75</property>
    <property name="max_gain">20dB</property>
    <property name="mlt_service">volume</property>
    <property name="kdenlive_id">fadeout</property>
    <property name="gain">1</property>
    <property name="end">0</property>
    <property name="kdenlive:collapsed">0</property>
   </filter>
  </entry>
  <blank length="00:41:35.744"/>
  <entry producer="producer10" in="00:00:00.000" out="00:01:25.025">
   <property name="kdenlive:id">14</property>
   <filter id="filter4">
    <property name="window">75</property>
    <property name="max_gain">20dB</property>
    <property name="mlt_service">volume</property>
    <property name="kdenlive_id">gain</property>
    <property name="gain">0.05</property>
    <property name="kdenlive:collapsed">0</property>
   </filter>
   <filter id="filter5" out="00:00:00.459">
    <property name="window">75</property>
    <property name="max_gain">20dB</property>
    <property name="mlt_service">volume</property>
    <property name="kdenlive_id">fadein</property>
    <property name="gain">0</property>
    <property name="end">1</property>
    <property name="kdenlive:collapsed">0</property>
   </filter>
  </entry>
  <blank length="00:00:48.924"/>
  <entry producer="chain1" in="00:19:04.338" out="00:22:21.730">
   <property name="kdenlive:id">8</property>
   <filter id="filter6" in="00:22:19.770" out="00:22:21.772">
    <property name="window">75</property>
    <property name="max_gain">20dB</property>
    <property name="mlt_service">volume</property>
    <property name="kdenlive_id">fadeout</property>
    <property name="gain">1</property>
    <property name="end">0</property>
    <property name="kdenlive:collapsed">0</property>
   </filter>
   <filter id="filter7" in="00:19:04.338" out="00:19:04.463">
    <property name="window">75</property>
    <property name="max_gain">20dB</property>
    <property name="mlt_service">volume</property>
    <property name="kdenlive_id">fadein</property>
    <property name="gain">0</property>
    <property name="end">1</property>
    <property name="kdenlive:collapsed">0</property>
   </filter>
  </entry>
 </playlist>
 <playlist id="playlist1">
  <property name="kdenlive:audio_track">1</property>
 </playlist>
 <tractor id="tractor0" in="00:00:00.000" out="01:01:42.376">
  <property name="kdenlive:audio_track">1</property>
  <property name="kdenlive:trackheight">67</property>
  <property name="kdenlive:timeline_active">1</property>
  <property name="kdenlive:collapsed">0</property>
  <property name="kdenlive:thumbs_format"/>
  <property name="kdenlive:audio_rec"/>
  <track hide="video" producer="playlist0"/>
  <track hide="video" producer="playlist1"/>
  <filter id="filter8">
   <property name="window">75</property>
   <property name="max_gain">20dB</property>
   <property name="mlt_service">volume</property>
   <property name="internal_added">237</property>
   <property name="disable">1</property>
  </filter>
  <filter id="filter9">
   <property name="channel">-1</property>
   <property name="mlt_service">panner</property>
   <property name="internal_added">237</property>
   <property name="start">0.5</property>
   <property name="disable">1</property>
  </filter>
  <filter id="filter10">
   <property name="iec_scale">0</property>
   <property name="mlt_service">audiolevel</property>
   <property name="dbpeak">1</property>
   <property name="disable">1</property>
  </filter>
 </tractor>
 <chain id="chain2" out="00:23:54.680">
  <property name="length">34398</property>
  <property name="eof">pause</property>
  <property name="resource">/mnt/data1/Anime-Edits/Monster/Monster-Editing/Audio/eng/Ep15.flac</property>
  <property name="mlt_service">avformat-novalidate</property>
  <property name="audio_index">0</property>
  <property name="video_index">-1</property>
  <property name="meta.media.nb_streams">1</property>
  <property name="meta.media.0.stream.type">audio</property>
  <property name="meta.media.0.codec.sample_fmt">s32</property>
  <property name="meta.media.0.codec.sample_rate">48000</property>
  <property name="meta.media.0.codec.channels">2</property>
  <property name="meta.media.0.codec.name">flac</property>
  <property name="meta.media.0.codec.long_name">FLAC (Free Lossless Audio Codec)</property>
  <property name="meta.media.0.codec.bit_rate">0</property>
  <property name="meta.attr.title.markup">Monster : Chapter 15 : Be My Baby</property>
  <property name="meta.attr.encoder.markup">Lavf60.3.100</property>
  <property name="seekable">1</property>
  <property name="kdenlive:clipname"/>
  <property name="kdenlive:clip_type">1</property>
  <property name="kdenlive:folderid">-1</property>
  <property name="kdenlive:id">6</property>
  <property name="kdenlive:file_size">275460216</property>
  <property name="kdenlive:file_hash">0645762c70aa2e5c8074d6adcdcb6b1d</property>
  <property name="kdenlive:audio_max0">196</property>
  <property name="xml">was here</property>
  <property name="set.test_audio">0</property>
  <property name="set.test_image">1</property>
  <property name="astream">0</property>
 </chain>
 <chain id="producer11" out="00:02:41.959">
  <property name="length">3884</property>
  <property name="eof">pause</property>
  <property name="resource">/mnt/data1/Anime-Edits/Monster/Monster-Editing/ClipsnRandom/The Ronettes - Be My Baby (Official Audio) - YouTube.wav</property>
  <property name="mlt_service">avformat-novalidate</property>
  <property name="audio_index">0</property>
  <property name="video_index">-1</property>
  <property name="meta.media.nb_streams">1</property>
  <property name="meta.media.0.stream.type">audio</property>
  <property name="meta.media.0.codec.sample_fmt">s16</property>
  <property name="meta.media.0.codec.sample_rate">48000</property>
  <property name="meta.media.0.codec.channels">2</property>
  <property name="meta.media.0.codec.name">pcm_s16le</property>
  <property name="meta.media.0.codec.long_name">PCM signed 16-bit little-endian</property>
  <property name="meta.media.0.codec.bit_rate">1536000</property>
  <property name="meta.attr.encoder.markup">Lavf59.27.100</property>
  <property name="seekable">1</property>
  <property name="kdenlive:clipname"/>
  <property name="kdenlive:clip_type">1</property>
  <property name="kdenlive:folderid">-1</property>
  <property name="kdenlive:id">10</property>
  <property name="kdenlive:file_size">31105158</property>
  <property name="kdenlive:file_hash">c1c5c22fb90110217815fb39e73fbeef</property>
  <property name="kdenlive:audio_max0">210</property>
  <property name="xml">was here</property>
  <property name="set.test_audio">0</property>
  <property name="set.test_image">1</property>
  <property name="astream">0</property>
 </chain>
 <chain id="producer12" out="00:23:55.305">
  <property name="length">34413</property>
  <property name="eof">pause</property>
  <property name="resource">/mnt/data1/Anime-Edits/Monster/Monster-Editing/Audio/eng/Ep16.flac</property>
  <property name="mlt_service">avformat-novalidate</property>
  <property name="audio_index">0</property>
  <property name="video_index">-1</property>
  <property name="meta.media.nb_streams">1</property>
  <property name="meta.media.0.stream.type">audio</property>
  <property name="meta.media.0.codec.sample_fmt">s32</property>
  <property name="meta.media.0.codec.sample_rate">48000</property>
  <property name="meta.media.0.codec.channels">2</property>
  <property name="meta.media.0.codec.name">flac</property>
  <property name="meta.media.0.codec.long_name">FLAC (Free Lossless Audio Codec)</property>
  <property name="meta.media.0.codec.bit_rate">0</property>
  <property name="meta.attr.title.markup">Monster : Chapter 16 : Wolf's Confession</property>
  <property name="meta.attr.encoder.markup">Lavf60.3.100</property>
  <property name="seekable">1</property>
  <property name="kdenlive:clipname"/>
  <property name="kdenlive:clip_type">1</property>
  <property name="kdenlive:originalurl">/mnt/data1/Anime-Edits/Monster/Monster-Editing/Audio/eng/Ep16.flac</property>
  <property name="kdenlive:id">7</property>
  <property name="kdenlive:file_size">253186176</property>
  <property name="kdenlive:file_hash">5132c6867fd5c2b38e4b25b40a531f57</property>
  <property name="kdenlive:folderid">-1</property>
  <property name="kdenlive:audio_max0">201</property>
  <property name="xml">was here</property>
  <property name="set.test_audio">0</property>
  <property name="set.test_image">1</property>
  <property name="astream">0</property>
 </chain>
 <chain id="producer13" out="00:23:55.430">
  <property name="length">34416</property>
  <property name="eof">pause</property>
  <property name="resource">/mnt/data1/Anime-Edits/Monster/Monster-Editing/Audio/eng/Ep17.flac</property>
  <property name="mlt_service">avformat-novalidate</property>
  <property name="audio_index">0</property>
  <property name="video_index">-1</property>
  <property name="meta.media.nb_streams">1</property>
  <property name="meta.media.0.stream.type">audio</property>
  <property name="meta.media.0.codec.sample_fmt">s32</property>
  <property name="meta.media.0.codec.sample_rate">48000</property>
  <property name="meta.media.0.codec.channels">2</property>
  <property name="meta.media.0.codec.name">flac</property>
  <property name="meta.media.0.codec.long_name">FLAC (Free Lossless Audio Codec)</property>
  <property name="meta.media.0.codec.bit_rate">0</property>
  <property name="meta.attr.title.markup">Monster : Chapter 17 : Reunion</property>
  <property name="meta.attr.encoder.markup">Lavf60.3.100</property>
  <property name="seekable">1</property>
  <property name="kdenlive:clipname"/>
  <property name="kdenlive:clip_type">1</property>
  <property name="kdenlive:folderid">-1</property>
  <property name="kdenlive:id">8</property>
  <property name="kdenlive:file_size">253210742</property>
  <property name="kdenlive:file_hash">a938b63e4d506c75b9c56d7c20c08891</property>
  <property name="kdenlive:audio_max0">200</property>
  <property name="xml">was here</property>
  <property name="set.test_audio">0</property>
  <property name="set.test_image">1</property>
  <property name="astream">0</property>
 </chain>
 <chain id="chain3" out="00:23:55.180">
  <property name="length">34410</property>
  <property name="eof">pause</property>
  <property name="resource">/mnt/data1/Anime-Edits/Monster/Monster-Editing/Audio/eng/Ep18.flac</property>
  <property name="mlt_service">avformat-novalidate</property>
  <property name="seekable">1</property>
  <property name="audio_index">0</property>
  <property name="video_index">-1</property>
  <property name="kdenlive:clipname"/>
  <property name="kdenlive:clip_type">1</property>
  <property name="kdenlive:folderid">-1</property>
  <property name="kdenlive:id">9</property>
  <property name="kdenlive:file_size">253169802</property>
  <property name="kdenlive:file_hash">44166c13f8da33e9c6d069bbc704d05b</property>
  <property name="kdenlive:audio_max0">200</property>
  <property name="astream">0</property>
  <property name="meta.media.nb_streams">1</property>
  <property name="meta.media.0.stream.type">audio</property>
  <property name="meta.media.0.codec.sample_fmt">s32</property>
  <property name="meta.media.0.codec.sample_rate">48000</property>
  <property name="meta.media.0.codec.channels">2</property>
  <property name="meta.media.0.codec.name">flac</property>
  <property name="meta.media.0.codec.long_name">FLAC (Free Lossless Audio Codec)</property>
  <property name="meta.media.0.codec.bit_rate">0</property>
  <property name="meta.attr.title.markup">Monster : Chapter 18 : The Fifth Spoonful Of Sugar</property>
  <property name="meta.attr.encoder.markup">Lavf60.3.100</property>
  <property name="xml">was here</property>
  <property name="mute_on_pause">0</property>
  <property name="set.test_audio">0</property>
  <property name="set.test_image">1</property>
 </chain>
 <playlist id="playlist2">
  <property name="kdenlive:audio_track">1</property>
  <entry producer="chain2" in="00:00:00.000" out="00:04:19.186">
   <property name="kdenlive:id">6</property>
   <filter id="filter11" in="00:04:17.935" out="00:04:19.186">
    <property name="window">75</property>
    <property name="max_gain">20dB</property>
    <property name="mlt_service">volume</property>
    <property name="kdenlive_id">fadeout</property>
    <property name="gain">1</property>
    <property name="end">0</property>
   </filter>
  </entry>
  <blank length="00:01:01.084"/>
  <entry producer="chain2" in="00:05:27.027" out="00:07:45.170">
   <property name="kdenlive:id">6</property>
   <filter id="filter12" in="00:07:43.919" out="00:07:45.170">
    <property name="window">75</property>
    <property name="max_gain">20dB</property>
    <property name="mlt_service">volume</property>
    <property name="kdenlive_id">fadeout</property>
    <property name="gain">1</property>
    <property name="end">0</property>
    <property name="kdenlive:collapsed">0</property>
   </filter>
   <filter id="filter13" in="00:05:27.027" out="00:05:28.403">
    <property name="window">75</property>
    <property name="max_gain">20dB</property>
    <property name="mlt_service">volume</property>
    <property name="kdenlive_id">fadein</property>
    <property name="gain">0</property>
    <property name="end">1</property>
    <property name="kdenlive:collapsed">0</property>
   </filter>
  </entry>
  <blank length="00:01:32.324"/>
  <entry producer="producer11" in="00:00:00.000" out="00:00:30.197">
   <property name="kdenlive:id">10</property>
   <property name="kdenlive:activeeffect">4</property>
   <filter id="filter14">
    <property name="window">75</property>
    <property name="max_gain">20dB</property>
    <property name="mlt_service">volume</property>
    <property name="kdenlive_id">gain</property>
    <property name="gain">0.71</property>
    <property name="kdenlive:collapsed">0</property>
   </filter>
   <filter id="filter15" in="00:00:03.337" out="00:00:30.197">
    <property name="window">75</property>
    <property name="max_gain">20dB</property>
    <property name="mlt_service">volume</property>
    <property name="kdenlive_id">fadeout</property>
    <property name="gain">1</property>
    <property name="end">0</property>
    <property name="kdenlive:collapsed">0</property>
   </filter>
   <filter id="filter16">
    <property name="window">75</property>
    <property name="max_gain">20dB</property>
    <property name="level">00:00:00.000~=36;00:00:02.502=0.312803</property>
    <property name="mlt_service">volume</property>
    <property name="kdenlive_id">volume</property>
    <property name="kdenlive:collapsed">0</property>
   </filter>
   <filter id="filter17" out="00:00:00.834">
    <property name="window">75</property>
    <property name="max_gain">20dB</property>
    <property name="mlt_service">volume</property>
    <property name="kdenlive_id">fadein</property>
    <property name="gain">0</property>
    <property name="end">1</property>
    <property name="kdenlive:collapsed">0</property>
   </filter>
  </entry>
  <blank length="00:00:16.225"/>
  <entry producer="producer11" in="00:00:30.239" out="00:01:30.656">
   <property name="kdenlive:id">10</property>
   <filter id="filter18">
    <property name="window">75</property>
    <property name="max_gain">20dB</property>
    <property name="mlt_service">volume</property>
    <property name="kdenlive_id">gain</property>
    <property name="gain">0.1</property>
    <property name="kdenlive:collapsed">0</property>
   </filter>
   <filter id="filter19" in="00:00:32.115" out="00:01:30.697">
    <property name="window">75</property>
    <property name="max_gain">20dB</property>
    <property name="mlt_service">volume</property>
    <property name="kdenlive_id">fadeout</property>
    <property name="gain">1</property>
    <property name="end">0</property>
    <property name="kdenlive:collapsed">0</property>
   </filter>
   <filter id="filter20" in="00:00:30.239" out="00:00:32.032">
    <property name="window">75</property>
    <property name="max_gain">20dB</property>
    <property name="mlt_service">volume</property>
    <property name="kdenlive_id">fadein</property>
    <property name="gain">0</property>
    <property name="end">1</property>
    <property name="kdenlive:collapsed">0</property>
   </filter>
  </entry>
  <blank length="00:03:36.578"/>
  <entry producer="chain2" in="00:14:49.091" out="00:14:50.634">
   <property name="kdenlive:id">6</property>
   <filter id="filter21" in="00:14:49.091" out="00:14:49.841">
    <property name="window">75</property>
    <property name="max_gain">20dB</property>
    <property name="mlt_service">volume</property>
    <property name="kdenlive_id">fadein</property>
    <property name="gain">0</property>
    <property name="end">1</property>
    <property name="kdenlive:collapsed">0</property>
   </filter>
   <filter id="filter22" in="00:14:50.259" out="00:14:50.634">
    <property name="window">75</property>
    <property name="max_gain">20dB</property>
    <property name="mlt_service">volume</property>
    <property name="kdenlive_id">fadeout</property>
    <property name="gain">1</property>
    <property name="end">0</property>
    <property name="kdenlive:collapsed">0</property>
   </filter>
  </entry>
  <blank length="00:02:22.981"/>
  <entry producer="chain2" in="00:17:19.853" out="00:18:37.621">
   <property name="kdenlive:id">6</property>
   <filter id="filter23" in="00:17:19.853" out="00:17:20.145">
    <property name="window">75</property>
    <property name="max_gain">20dB</property>
    <property name="mlt_service">volume</property>
    <property name="kdenlive_id">fadein</property>
    <property name="gain">0</property>
    <property name="end">1</property>
    <property name="kdenlive:collapsed">0</property>
   </filter>
  </entry>
  <blank length="00:02:52.844"/>
  <entry producer="chain2" in="00:21:45.796" out="00:22:27.361">
   <property name="kdenlive:id">6</property>
   <filter id="filter24" in="00:21:45.796" out="00:21:46.129">
    <property name="window">75</property>
    <property name="max_gain">20dB</property>
    <property name="mlt_service">volume</property>
    <property name="kdenlive_id">fadein</property>
    <property name="gain">0</property>
    <property name="end">1</property>
   </filter>
  </entry>
  <blank length="00:03:30.322"/>
  <entry producer="producer12" in="00:05:45.629" out="00:06:29.446">
   <property name="kdenlive:id">7</property>
   <filter id="filter25" in="00:05:45.629" out="00:05:46.255">
    <property name="window">75</property>
    <property name="max_gain">20dB</property>
    <property name="mlt_service">volume</property>
    <property name="kdenlive_id">fadein</property>
    <property name="gain">0</property>
    <property name="end">1</property>
   </filter>
   <filter id="filter26" in="00:06:29.196" out="00:06:29.446">
    <property name="window">75</property>
    <property name="max_gain">20dB</property>
    <property name="mlt_service">volume</property>
    <property name="kdenlive_id">fadeout</property>
    <property name="gain">1</property>
    <property name="end">0</property>
   </filter>
  </entry>
  <blank length="00:00:02.920"/>
  <entry producer="producer12" in="00:06:33.450" out="00:07:58.016">
   <property name="kdenlive:id">7</property>
   <filter id="filter27" in="00:06:33.450" out="00:06:34.493">
    <property name="window">75</property>
    <property name="max_gain">20dB</property>
    <property name="mlt_service">volume</property>
    <property name="kdenlive_id">fadein</property>
    <property name="gain">0</property>
    <property name="end">1</property>
    <property name="kdenlive:collapsed">0</property>
   </filter>
   <filter id="filter28" in="00:07:53.929" out="00:07:58.016">
    <property name="window">75</property>
    <property name="max_gain">20dB</property>
    <property name="mlt_service">volume</property>
    <property name="kdenlive_id">fadeout</property>
    <property name="gain">1</property>
    <property name="end">0</property>
   </filter>
  </entry>
  <blank length="00:02:06.298"/>
  <entry producer="producer12" in="00:10:06.840" out="00:10:12.721">
   <property name="kdenlive:id">7</property>
   <filter id="filter29" in="00:10:06.840" out="00:10:08.175">
    <property name="window">75</property>
    <property name="max_gain">20dB</property>
    <property name="mlt_service">volume</property>
    <property name="kdenlive_id">fadein</property>
    <property name="gain">0</property>
    <property name="end">1</property>
    <property name="kdenlive:collapsed">0</property>
   </filter>
   <filter id="filter30" in="00:10:10.469" out="00:10:12.721">
    <property name="window">75</property>
    <property name="max_gain">20dB</property>
    <property name="mlt_service">volume</property>
    <property name="kdenlive_id">fadeout</property>
    <property name="gain">1</property>
    <property name="end">0</property>
    <property name="kdenlive:collapsed">0</property>
   </filter>
  </entry>
  <entry producer="producer12" in="00:10:18.393" out="00:10:24.858">
   <property name="kdenlive:id">7</property>
   <filter id="filter31" in="00:10:20.771" out="00:10:24.858">
    <property name="window">75</property>
    <property name="max_gain">20dB</property>
    <property name="mlt_service">volume</property>
    <property name="kdenlive_id">fadeout</property>
    <property name="gain">1</property>
    <property name="end">0</property>
    <property name="kdenlive:collapsed">0</property>
   </filter>
   <filter id="filter32" in="00:10:18.393" out="00:10:20.896">
    <property name="window">75</property>
    <property name="max_gain">20dB</property>
    <property name="mlt_service">volume</property>
    <property name="kdenlive_id">fadein</property>
    <property name="gain">0</property>
    <property name="end">1</property>
    <property name="kdenlive:collapsed">0</property>
   </filter>
  </entry>
  <blank length="00:00:55.555"/>
  <entry producer="producer12" in="00:11:20.854" out="00:11:24.816">
   <property name="kdenlive:id">7</property>
   <filter id="filter33" in="00:11:21.897" out="00:11:24.816">
    <property name="window">75</property>
    <property name="max_gain">20dB</property>
    <property name="mlt_service">volume</property>
    <property name="kdenlive_id">fadeout</property>
    <property name="gain">1</property>
    <property name="end">0</property>
    <property name="kdenlive:collapsed">0</property>
   </filter>
  </entry>
  <blank length="00:00:31.615"/>
  <entry producer="producer12" in="00:12:00.083" out="00:13:10.010">
   <property name="kdenlive:id">7</property>
   <filter id="filter34" in="00:12:00.083" out="00:12:00.250">
    <property name="window">75</property>
    <property name="max_gain">20dB</property>
    <property name="mlt_service">volume</property>
    <property name="kdenlive_id">fadein</property>
    <property name="gain">0</property>
    <property name="end">1</property>
    <property name="kdenlive:collapsed">0</property>
   </filter>
   <filter id="filter35" in="00:13:07.883" out="00:13:10.010">
    <property name="window">75</property>
    <property name="max_gain">20dB</property>
    <property name="mlt_service">volume</property>
    <property name="kdenlive_id">fadeout</property>
    <property name="gain">1</property>
    <property name="end">0</property>
    <property name="kdenlive:collapsed">0</property>
   </filter>
  </entry>
  <blank length="00:09:06.465"/>
  <entry producer="producer13" in="00:00:00.000" out="00:01:04.546">
   <property name="kdenlive:id">8</property>
   <filter id="filter36" out="00:00:00.626">
    <property name="window">75</property>
    <property name="max_gain">20dB</property>
    <property name="mlt_service">volume</property>
    <property name="kdenlive_id">fadein</property>
    <property name="gain">0</property>
    <property name="end">1</property>
    <property name="kdenlive:collapsed">0</property>
   </filter>
  </entry>
  <blank length="00:00:22.105"/>
  <entry producer="producer13" in="00:03:07.424" out="00:04:23.315">
   <property name="kdenlive:id">8</property>
   <filter id="filter37" in="00:03:07.424" out="00:03:08.008">
    <property name="window">75</property>
    <property name="max_gain">20dB</property>
    <property name="mlt_service">volume</property>
    <property name="kdenlive_id">fadein</property>
    <property name="gain">0</property>
    <property name="end">1</property>
    <property name="kdenlive:collapsed">0</property>
   </filter>
   <filter id="filter38" in="00:04:22.814" out="00:04:23.315">
    <property name="window">75</property>
    <property name="max_gain">20dB</property>
    <property name="mlt_service">volume</property>
    <property name="kdenlive_id">fadeout</property>
    <property name="gain">1</property>
    <property name="end">0</property>
    <property name="kdenlive:collapsed">0</property>
   </filter>
  </entry>
  <blank length="00:00:39.957"/>
  <entry producer="producer13" in="00:05:06.173" out="00:05:51.176">
   <property name="kdenlive:id">8</property>
   <filter id="filter39" in="00:05:06.173" out="00:05:06.548">
    <property name="window">75</property>
    <property name="max_gain">20dB</property>
    <property name="mlt_service">volume</property>
    <property name="kdenlive_id">fadein</property>
    <property name="gain">0</property>
    <property name="end">1</property>
    <property name="kdenlive:collapsed">0</property>
   </filter>
  </entry>
  <blank length="00:01:14.598"/>
  <entry producer="producer13" in="00:07:15.432" out="00:07:25.025">
   <property name="kdenlive:id">8</property>
   <filter id="filter40" in="00:07:15.432" out="00:07:15.807">
    <property name="window">75</property>
    <property name="max_gain">20dB</property>
    <property name="mlt_service">volume</property>
    <property name="kdenlive_id">fadein</property>
    <property name="gain">0</property>
    <property name="end">1</property>
    <property name="kdenlive:collapsed">0</property>
   </filter>
   <filter id="filter41" in="00:07:24.399" out="00:07:25.025">
    <property name="window">75</property>
    <property name="max_gain">20dB</property>
    <property name="mlt_service">volume</property>
    <property name="kdenlive_id">fadeout</property>
    <property name="gain">1</property>
    <property name="end">0</property>
   </filter>
  </entry>
  <blank length="00:02:55.222"/>
  <entry producer="producer13" in="00:10:24.399" out="00:17:23.232">
   <property name="kdenlive:id">8</property>
   <filter id="filter42" in="00:17:23.148" out="00:17:23.273">
    <property name="window">75</property>
    <property name="max_gain">20dB</property>
    <property name="mlt_service">volume</property>
    <property name="kdenlive_id">fadeout</property>
    <property name="gain">1</property>
    <property name="end">0</property>
    <property name="kdenlive:collapsed">0</property>
   </filter>
  </entry>
  <blank length="00:01:09.218"/>
  <entry producer="producer13" in="00:18:46.797" out="00:18:49.049">
   <property name="kdenlive:id">8</property>
   <filter id="filter43" in="00:18:46.797" out="00:18:47.756">
    <property name="window">75</property>
    <property name="max_gain">20dB</property>
    <property name="mlt_service">volume</property>
    <property name="kdenlive_id">fadein</property>
    <property name="gain">0</property>
    <property name="end">1</property>
    <property name="kdenlive:collapsed">0</property>
   </filter>
   <filter id="filter44" in="00:18:48.507" out="00:18:49.049">
    <property name="window">75</property>
    <property name="max_gain">20dB</property>
    <property name="mlt_service">volume</property>
    <property name="kdenlive_id">fadeout</property>
    <property name="gain">1</property>
    <property name="end">0</property>
    <property name="kdenlive:collapsed">0</property>
   </filter>
  </entry>
  <blank length="00:00:03.962"/>
  <entry producer="producer13" in="00:18:59.559" out="00:19:04.213">
   <property name="kdenlive:id">8</property>
   <filter id="filter45" in="00:19:04.046" out="00:19:04.254">
    <property name="window">75</property>
    <property name="max_gain">20dB</property>
    <property name="mlt_service">volume</property>
    <property name="kdenlive_id">fadeout</property>
    <property name="gain">1</property>
    <property name="end">0</property>
    <property name="kdenlive:collapsed">0</property>
   </filter>
   <filter id="filter46" in="00:18:59.559" out="00:19:00.334">
    <property name="window">75</property>
    <property name="max_gain">20dB</property>
    <property name="mlt_service">volume</property>
    <property name="kdenlive_id">fadein</property>
    <property name="gain">0</property>
    <property name="end">1</property>
   </filter>
  </entry>
  <blank length="00:21:09.718"/>
  <entry producer="chain3" in="00:20:17.059" out="00:21:02.377">
   <property name="kdenlive:id">9</property>
   <filter id="filter47" in="00:20:17.059" out="00:20:17.267">
    <property name="window">75</property>
    <property name="max_gain">20dB</property>
    <property name="mlt_service">volume</property>
    <property name="kdenlive_id">fadein</property>
    <property name="gain">0</property>
    <property name="end">1</property>
    <property name="kdenlive:collapsed">0</property>
   </filter>
   <filter id="filter48" in="00:21:01.293" out="00:21:02.377">
    <property name="window">75</property>
    <property name="max_gain">20dB</property>
    <property name="mlt_service">volume</property>
    <property name="kdenlive_id">fadeout</property>
    <property name="gain">1</property>
    <property name="end">0</property>
   </filter>
  </entry>
 </playlist>
 <playlist id="playlist3">
  <property name="kdenlive:audio_track">1</property>
 </playlist>
 <tractor id="tractor1" in="00:00:00.000" out="01:20:20.145">
  <property name="kdenlive:audio_track">1</property>
  <property name="kdenlive:trackheight">67</property>
  <property name="kdenlive:timeline_active">1</property>
  <property name="kdenlive:collapsed">0</property>
  <property name="kdenlive:thumbs_format"/>
  <property name="kdenlive:audio_rec"/>
  <track hide="video" producer="playlist2"/>
  <track hide="video" producer="playlist3"/>
  <filter id="filter49">
   <property name="window">75</property>
   <property name="max_gain">20dB</property>
   <property name="mlt_service">volume</property>
   <property name="internal_added">237</property>
   <property name="disable">1</property>
  </filter>
  <filter id="filter50">
   <property name="channel">-1</property>
   <property name="mlt_service">panner</property>
   <property name="internal_added">237</property>
   <property name="start">0.5</property>
   <property name="disable">1</property>
  </filter>
  <filter id="filter51">
   <property name="iec_scale">0</property>
   <property name="mlt_service">audiolevel</property>
   <property name="dbpeak">1</property>
   <property name="disable">1</property>
  </filter>
 </tractor>
 <chain id="producer14" out="00:23:54.680">
  <property name="length">34398</property>
  <property name="eof">pause</property>
  <property name="resource">/mnt/data1/Anime-Edits/Monster/Monster-Editing/Audio/eng/Ep15.flac</property>
  <property name="mlt_service">avformat-novalidate</property>
  <property name="audio_index">0</property>
  <property name="video_index">-1</property>
  <property name="meta.media.nb_streams">1</property>
  <property name="meta.media.0.stream.type">audio</property>
  <property name="meta.media.0.codec.sample_fmt">s32</property>
  <property name="meta.media.0.codec.sample_rate">48000</property>
  <property name="meta.media.0.codec.channels">2</property>
  <property name="meta.media.0.codec.name">flac</property>
  <property name="meta.media.0.codec.long_name">FLAC (Free Lossless Audio Codec)</property>
  <property name="meta.media.0.codec.bit_rate">0</property>
  <property name="meta.attr.title.markup">Monster : Chapter 15 : Be My Baby</property>
  <property name="meta.attr.encoder.markup">Lavf60.3.100</property>
  <property name="seekable">1</property>
  <property name="kdenlive:clipname"/>
  <property name="kdenlive:clip_type">1</property>
  <property name="kdenlive:folderid">-1</property>
  <property name="kdenlive:id">6</property>
  <property name="kdenlive:file_size">275460216</property>
  <property name="kdenlive:file_hash">0645762c70aa2e5c8074d6adcdcb6b1d</property>
  <property name="kdenlive:audio_max0">193</property>
  <property name="xml">was here</property>
  <property name="set.test_audio">0</property>
  <property name="set.test_image">1</property>
  <property name="astream">0</property>
 </chain>
 <chain id="chain4" out="00:01:36.245">
  <property name="length">2308</property>
  <property name="eof">pause</property>
  <property name="resource">/mnt/data1/Anime-Edits/Monster/Monster-Editing/Monster [Ultimate Collection] By Kira [SEV]/Original Soundtracks [2004]/Monster - Original Soundtrack II [2004]/08 - RIGHT AND WRONG.flac</property>
  <property name="mlt_service">avformat-novalidate</property>
  <property name="seekable">1</property>
  <property name="format">3</property>
  <property name="audio_index">0</property>
  <property name="video_index">1</property>
  <property name="vstream">0</property>
  <property name="astream">0</property>
  <property name="kdenlive:folderid">-1</property>
  <property name="kdenlive:id">13</property>
  <property name="mute_on_pause">0</property>
  <property name="kdenlive:clip_type">0</property>
  <property name="kdenlive:file_size">11061155</property>
  <property name="kdenlive:file_hash">dbcd6658df6f24857452c760f084c946</property>
  <property name="kdenlive:audio_max0">237</property>
  <property name="meta.media.nb_streams">2</property>
  <property name="meta.media.0.stream.type">audio</property>
  <property name="meta.media.0.codec.sample_fmt">s16</property>
  <property name="meta.media.0.codec.sample_rate">44100</property>
  <property name="meta.media.0.codec.channels">2</property>
  <property name="meta.media.0.codec.name">flac</property>
  <property name="meta.media.0.codec.long_name">FLAC (Free Lossless Audio Codec)</property>
  <property name="meta.media.0.codec.bit_rate">0</property>
  <property name="meta.media.1.stream.type">video</property>
  <property name="meta.media.1.stream.frame_rate">90000</property>
  <property name="meta.media.1.stream.sample_aspect_ratio">0</property>
  <property name="meta.media.1.codec.width">1685</property>
  <property name="meta.media.1.codec.height">1475</property>
  <property name="meta.media.1.codec.rotate">0</property>
  <property name="meta.media.1.codec.pix_fmt">yuvj420p</property>
  <property name="meta.media.1.codec.sample_aspect_ratio">0</property>
  <property name="meta.media.1.codec.colorspace">601</property>
  <property name="meta.media.1.codec.name">mjpeg</property>
  <property name="meta.media.1.codec.long_name">MJPEG (Motion JPEG)</property>
  <property name="meta.media.1.codec.bit_rate">0</property>
  <property name="meta.attr.1.stream.comment.markup">Cover (front)</property>
  <property name="meta.attr.TITLE.markup">RIGHT AND WRONG</property>
  <property name="meta.attr.ARTIST.markup">Kuniaki Haishima</property>
  <property name="meta.attr.ALBUM.markup">Monster : Original Soundtrack II</property>
  <property name="meta.attr.DATE.markup">2004</property>
  <property name="meta.attr.GENRE.markup">Anime</property>
  <property name="meta.attr.COMPOSER.markup">Kuniaki Haishima</property>
  <property name="meta.attr.ORIGINALARTIST.markup">Kuniaki Haishima</property>
  <property name="meta.attr.ENCODEDBY.markup">Mr. J</property>
  <property name="meta.attr.track.markup">08/21</property>
  <property name="meta.attr.disc.markup">01/01</property>
  <property name="meta.attr.ORIGARTIST.markup">Kuniaki Haishima</property>
  <property name="meta.attr.ALBUM ARTIST.markup">Kuniaki Haishima</property>
  <property name="meta.attr.ARTISTSORT.markup">Kuniaki Haishima</property>
  <property name="meta.attr.ALBUMARTISTSORT.markup">Kuniaki Haishima</property>
  <property name="meta.attr.ALBUMSORT.markup">Monster : Original Soundtrack II</property>
  <property name="meta.attr.COMPOSERSORT.markup">Kuniaki Haishima</property>
  <property name="meta.attr.SHOWSORT.markup">Monster</property>
  <property name="meta.media.sample_aspect_num">1</property>
  <property name="meta.media.sample_aspect_den">1</property>
  <property name="meta.media.frame_rate_num">90000</property>
  <property name="meta.media.frame_rate_den">1</property>
  <property name="meta.media.colorspace">601</property>
  <property name="meta.media.color_trc">2</property>
  <property name="meta.media.has_b_frames">0</property>
  <property name="meta.media.width">1685</property>
  <property name="meta.media.height">1475</property>
  <property name="meta.media.color_range">full</property>
  <property name="xml">was here</property>
  <property name="meta.media.top_field_first">0</property>
  <property name="meta.media.progressive">1</property>
  <property name="set.test_audio">0</property>
  <property name="set.test_image">1</property>
 </chain>
 <chain id="producer15" out="00:23:55.305">
  <property name="length">34413</property>
  <property name="eof">pause</property>
  <property name="resource">/mnt/data1/Anime-Edits/Monster/Monster-Editing/Audio/eng/Ep16.flac</property>
  <property name="mlt_service">avformat-novalidate</property>
  <property name="audio_index">0</property>
  <property name="video_index">-1</property>
  <property name="meta.media.nb_streams">1</property>
  <property name="meta.media.0.stream.type">audio</property>
  <property name="meta.media.0.codec.sample_fmt">s32</property>
  <property name="meta.media.0.codec.sample_rate">48000</property>
  <property name="meta.media.0.codec.channels">2</property>
  <property name="meta.media.0.codec.name">flac</property>
  <property name="meta.media.0.codec.long_name">FLAC (Free Lossless Audio Codec)</property>
  <property name="meta.media.0.codec.bit_rate">0</property>
  <property name="meta.attr.title.markup">Monster : Chapter 16 : Wolf's Confession</property>
  <property name="meta.attr.encoder.markup">Lavf60.3.100</property>
  <property name="seekable">1</property>
  <property name="kdenlive:clipname"/>
  <property name="kdenlive:clip_type">1</property>
  <property name="kdenlive:originalurl">/mnt/data1/Anime-Edits/Monster/Monster-Editing/Audio/eng/Ep16.flac</property>
  <property name="kdenlive:id">7</property>
  <property name="kdenlive:file_size">253186176</property>
  <property name="kdenlive:file_hash">5132c6867fd5c2b38e4b25b40a531f57</property>
  <property name="kdenlive:folderid">-1</property>
  <property name="kdenlive:audio_max0">201</property>
  <property name="xml">was here</property>
  <property name="set.test_audio">0</property>
  <property name="set.test_image">1</property>
  <property name="astream">0</property>
 </chain>
 <chain id="producer16" out="00:23:55.430">
  <property name="length">34416</property>
  <property name="eof">pause</property>
  <property name="resource">/mnt/data1/Anime-Edits/Monster/Monster-Editing/Audio/eng/Ep17.flac</property>
  <property name="mlt_service">avformat-novalidate</property>
  <property name="audio_index">0</property>
  <property name="video_index">-1</property>
  <property name="meta.media.nb_streams">1</property>
  <property name="meta.media.0.stream.type">audio</property>
  <property name="meta.media.0.codec.sample_fmt">s32</property>
  <property name="meta.media.0.codec.sample_rate">48000</property>
  <property name="meta.media.0.codec.channels">2</property>
  <property name="meta.media.0.codec.name">flac</property>
  <property name="meta.media.0.codec.long_name">FLAC (Free Lossless Audio Codec)</property>
  <property name="meta.media.0.codec.bit_rate">0</property>
  <property name="meta.attr.title.markup">Monster : Chapter 17 : Reunion</property>
  <property name="meta.attr.encoder.markup">Lavf60.3.100</property>
  <property name="seekable">1</property>
  <property name="kdenlive:clipname"/>
  <property name="kdenlive:clip_type">1</property>
  <property name="kdenlive:folderid">-1</property>
  <property name="kdenlive:id">8</property>
  <property name="kdenlive:file_size">253210742</property>
  <property name="kdenlive:file_hash">a938b63e4d506c75b9c56d7c20c08891</property>
  <property name="kdenlive:audio_max0">200</property>
  <property name="xml">was here</property>
  <property name="set.test_audio">0</property>
  <property name="set.test_image">1</property>
  <property name="astream">0</property>
 </chain>
 <chain id="producer17" out="00:23:55.180">
  <property name="length">34410</property>
  <property name="eof">pause</property>
  <property name="resource">/mnt/data1/Anime-Edits/Monster/Monster-Editing/Audio/eng/Ep18.flac</property>
  <property name="mlt_service">avformat-novalidate</property>
  <property name="audio_index">0</property>
  <property name="video_index">-1</property>
  <property name="meta.media.nb_streams">1</property>
  <property name="meta.media.0.stream.type">audio</property>
  <property name="meta.media.0.codec.sample_fmt">s32</property>
  <property name="meta.media.0.codec.sample_rate">48000</property>
  <property name="meta.media.0.codec.channels">2</property>
  <property name="meta.media.0.codec.name">flac</property>
  <property name="meta.media.0.codec.long_name">FLAC (Free Lossless Audio Codec)</property>
  <property name="meta.media.0.codec.bit_rate">0</property>
  <property name="meta.attr.title.markup">Monster : Chapter 18 : The Fifth Spoonful Of Sugar</property>
  <property name="meta.attr.encoder.markup">Lavf60.3.100</property>
  <property name="seekable">1</property>
  <property name="kdenlive:clipname"/>
  <property name="kdenlive:clip_type">1</property>
  <property name="kdenlive:folderid">-1</property>
  <property name="kdenlive:id">9</property>
  <property name="kdenlive:file_size">253169802</property>
  <property name="kdenlive:file_hash">44166c13f8da33e9c6d069bbc704d05b</property>
  <property name="kdenlive:audio_max0">200</property>
  <property name="xml">was here</property>
  <property name="set.test_audio">0</property>
  <property name="set.test_image">1</property>
  <property name="astream">0</property>
 </chain>
 <playlist id="playlist4">
  <property name="kdenlive:audio_track">1</property>
  <blank length="00:04:16.892"/>
  <entry producer="producer14" in="00:04:18.894" out="00:05:23.482">
   <property name="kdenlive:id">6</property>
   <filter id="filter52" in="00:04:18.894" out="00:04:19.978">
    <property name="window">75</property>
    <property name="max_gain">20dB</property>
    <property name="mlt_service">volume</property>
    <property name="kdenlive_id">fadein</property>
    <property name="gain">0</property>
    <property name="end">1</property>
    <property name="kdenlive:collapsed">0</property>
   </filter>
   <filter id="filter53" in="00:05:23.315" out="00:05:23.482">
    <property name="window">75</property>
    <property name="max_gain">20dB</property>
    <property name="mlt_service">volume</property>
    <property name="kdenlive_id">fadeout</property>
    <property name="gain">1</property>
    <property name="end">0</property>
    <property name="kdenlive:collapsed">0</property>
   </filter>
  </entry>
  <blank length="00:02:15.140"/>
  <entry producer="producer14" in="00:07:44.920" out="00:09:19.394">
   <property name="kdenlive:id">6</property>
   <filter id="filter54" in="00:07:44.920" out="00:07:46.213">
    <property name="window">75</property>
    <property name="max_gain">20dB</property>
    <property name="mlt_service">volume</property>
    <property name="kdenlive_id">fadein</property>
    <property name="gain">0</property>
    <property name="end">1</property>
    <property name="kdenlive:collapsed">0</property>
   </filter>
   <filter id="filter55" in="00:09:19.102" out="00:09:19.394">
    <property name="window">75</property>
    <property name="max_gain">20dB</property>
    <property name="mlt_service">volume</property>
    <property name="kdenlive_id">fadeout</property>
    <property name="gain">1</property>
    <property name="end">0</property>
    <property name="kdenlive:collapsed">0</property>
   </filter>
  </entry>
  <blank length="00:00:18.185"/>
  <entry producer="producer14" in="00:09:37.621" out="00:09:47.965">
   <property name="kdenlive:id">6</property>
   <filter id="filter56" in="00:09:37.621" out="00:09:39.081">
    <property name="window">75</property>
    <property name="max_gain">20dB</property>
    <property name="mlt_service">volume</property>
    <property name="kdenlive_id">fadein</property>
    <property name="gain">0</property>
    <property name="end">1</property>
    <property name="kdenlive:collapsed">0</property>
   </filter>
  </entry>
  <entry producer="producer14" in="00:09:48.006" out="00:11:05.881">
   <property name="kdenlive:id">6</property>
   <filter id="filter57" in="00:10:59.977" out="00:11:05.881">
    <property name="window">75</property>
    <property name="max_gain">20dB</property>
    <property name="mlt_service">volume</property>
    <property name="kdenlive_id">fadeout</property>
    <property name="gain">1</property>
    <property name="end">0</property>
   </filter>
  </entry>
  <blank length="00:00:51.593"/>
  <entry producer="chain4" in="00:00:00.000" out="00:01:20.604">
   <property name="kdenlive:id">13</property>
   <filter id="filter58">
    <property name="window">75</property>
    <property name="max_gain">20dB</property>
    <property name="mlt_service">volume</property>
    <property name="kdenlive_id">gain</property>
    <property name="gain">0.02</property>
    <property name="kdenlive:collapsed">0</property>
   </filter>
   <filter id="filter59" in="00:01:11.678" out="00:01:20.646">
    <property name="window">75</property>
    <property name="max_gain">20dB</property>
    <property name="mlt_service">volume</property>
    <property name="kdenlive_id">fadeout</property>
    <property name="gain">1</property>
    <property name="end">0</property>
    <property name="kdenlive:collapsed">0</property>
   </filter>
  </entry>
  <blank length="00:01:25.484"/>
  <entry producer="producer14" in="00:14:51.718" out="00:17:16.642">
   <property name="kdenlive:id">6</property>
   <filter id="filter60" in="00:17:14.890" out="00:17:16.642">
    <property name="window">75</property>
    <property name="max_gain">20dB</property>
    <property name="mlt_service">volume</property>
    <property name="kdenlive_id">fadeout</property>
    <property name="gain">1</property>
    <property name="end">0</property>
    <property name="kdenlive:collapsed">0</property>
   </filter>
   <filter id="filter61" in="00:14:51.718" out="00:14:52.094">
    <property name="window">75</property>
    <property name="max_gain">20dB</property>
    <property name="mlt_service">volume</property>
    <property name="kdenlive_id">fadein</property>
    <property name="gain">0</property>
    <property name="end">1</property>
    <property name="kdenlive:collapsed">0</property>
   </filter>
  </entry>
  <blank length="00:01:16.308"/>
  <entry producer="producer14" in="00:18:38.413" out="00:21:31.740">
   <property name="kdenlive:id">6</property>
   <filter id="filter62" in="00:21:31.323" out="00:21:31.740">
    <property name="window">75</property>
    <property name="max_gain">20dB</property>
    <property name="mlt_service">volume</property>
    <property name="kdenlive_id">fadeout</property>
    <property name="gain">1</property>
    <property name="end">0</property>
   </filter>
  </entry>
  <blank length="00:00:40.165"/>
  <entry producer="producer15" in="00:01:58.183" out="00:05:30.781">
   <property name="kdenlive:id">7</property>
   <filter id="filter63" in="00:01:58.183" out="00:01:59.726">
    <property name="window">75</property>
    <property name="max_gain">20dB</property>
    <property name="mlt_service">volume</property>
    <property name="kdenlive_id">fadein</property>
    <property name="gain">0</property>
    <property name="end">1</property>
    <property name="kdenlive:collapsed">0</property>
   </filter>
   <filter id="filter64" in="00:05:30.530" out="00:05:30.781">
    <property name="window">75</property>
    <property name="max_gain">20dB</property>
    <property name="mlt_service">volume</property>
    <property name="kdenlive_id">fadeout</property>
    <property name="gain">1</property>
    <property name="end">0</property>
    <property name="kdenlive:collapsed">0</property>
   </filter>
  </entry>
  <blank length="00:00:42.084"/>
  <entry producer="producer15" in="00:06:29.488" out="00:06:33.909">
   <property name="kdenlive:id">7</property>
   <filter id="filter65" in="00:06:29.488" out="00:06:29.780">
    <property name="window">75</property>
    <property name="max_gain">20dB</property>
    <property name="mlt_service">volume</property>
    <property name="kdenlive_id">fadein</property>
    <property name="gain">0</property>
    <property name="end">1</property>
    <property name="kdenlive:collapsed">0</property>
   </filter>
   <filter id="filter66" in="00:06:33.575" out="00:06:33.909">
    <property name="window">75</property>
    <property name="max_gain">20dB</property>
    <property name="mlt_service">volume</property>
    <property name="kdenlive_id">fadeout</property>
    <property name="gain">1</property>
    <property name="end">0</property>
    <property name="kdenlive:collapsed">0</property>
   </filter>
  </entry>
  <blank length="00:01:20.938"/>
  <entry producer="producer15" in="00:07:57.182" out="00:10:07.424">
   <property name="kdenlive:id">7</property>
   <filter id="filter67" in="00:07:57.182" out="00:07:57.849">
    <property name="window">75</property>
    <property name="max_gain">20dB</property>
    <property name="mlt_service">volume</property>
    <property name="kdenlive_id">fadein</property>
    <property name="gain">0</property>
    <property name="end">1</property>
    <property name="kdenlive:collapsed">0</property>
   </filter>
   <filter id="filter68" in="00:10:06.590" out="00:10:07.424">
    <property name="window">75</property>
    <property name="max_gain">20dB</property>
    <property name="mlt_service">volume</property>
    <property name="kdenlive_id">fadeout</property>
    <property name="gain">1</property>
    <property name="end">0</property>
    <property name="kdenlive:collapsed">0</property>
   </filter>
  </entry>
  <blank length="00:00:01.293"/>
  <entry producer="producer15" in="00:10:12.179" out="00:10:18.352">
   <property name="kdenlive:id">7</property>
   <filter id="filter69" in="00:10:12.179" out="00:10:14.306">
    <property name="window">75</property>
    <property name="max_gain">20dB</property>
    <property name="mlt_service">volume</property>
    <property name="kdenlive_id">fadein</property>
    <property name="gain">0</property>
    <property name="end">1</property>
    <property name="kdenlive:collapsed">0</property>
   </filter>
   <filter id="filter70" in="00:10:15.891" out="00:10:18.352">
    <property name="window">75</property>
    <property name="max_gain">20dB</property>
    <property name="mlt_service">volume</property>
    <property name="kdenlive_id">fadeout</property>
    <property name="gain">1</property>
    <property name="end">0</property>
    <property name="kdenlive:collapsed">0</property>
   </filter>
  </entry>
  <blank length="00:00:03.045"/>
  <entry producer="producer15" in="00:10:24.900" out="00:11:20.812">
   <property name="kdenlive:id">7</property>
   <filter id="filter71" in="00:10:24.900" out="00:10:25.150">
    <property name="window">75</property>
    <property name="max_gain">20dB</property>
    <property name="mlt_service">volume</property>
    <property name="kdenlive_id">fadein</property>
    <property name="gain">0</property>
    <property name="end">1</property>
   </filter>
  </entry>
  <blank length="00:00:00.959"/>
  <entry producer="producer15" in="00:11:24.858" out="00:11:59.726">
   <property name="kdenlive:id">7</property>
   <filter id="filter72" in="00:11:24.858" out="00:11:25.067">
    <property name="window">75</property>
    <property name="max_gain">20dB</property>
    <property name="mlt_service">volume</property>
    <property name="kdenlive_id">fadein</property>
    <property name="gain">0</property>
    <property name="end">1</property>
    <property name="kdenlive:collapsed">0</property>
   </filter>
   <filter id="filter73" in="00:11:59.559" out="00:11:59.726">
    <property name="window">75</property>
    <property name="max_gain">20dB</property>
    <property name="mlt_service">volume</property>
    <property name="kdenlive_id">fadeout</property>
    <property name="gain">1</property>
    <property name="end">0</property>
   </filter>
  </entry>
  <blank length="00:01:06.965"/>
  <entry producer="producer15" in="00:13:15.724" out="00:22:27.110">
   <property name="kdenlive:id">7</property>
   <filter id="filter74" in="00:13:15.724" out="00:13:16.600">
    <property name="window">75</property>
    <property name="max_gain">20dB</property>
    <property name="mlt_service">volume</property>
    <property name="kdenlive_id">fadein</property>
    <property name="gain">0</property>
    <property name="end">1</property>
    <property name="kdenlive:collapsed">0</property>
   </filter>
   <filter id="filter75" in="00:22:23.357" out="00:22:27.110">
    <property name="window">75</property>
    <property name="max_gain">20dB</property>
    <property name="mlt_service">volume</property>
    <property name="kdenlive_id">fadeout</property>
    <property name="gain">1</property>
    <property name="end">0</property>
   </filter>
  </entry>
  <blank length="00:01:00.042"/>
  <entry producer="producer16" in="00:02:29.905" out="00:02:54.763">
   <property name="kdenlive:id">8</property>
   <filter id="filter76" in="00:02:54.429" out="00:02:54.763">
    <property name="window">75</property>
    <property name="max_gain">20dB</property>
    <property name="mlt_service">volume</property>
    <property name="kdenlive_id">fadeout</property>
    <property name="gain">1</property>
    <property name="end">0</property>
   </filter>
  </entry>
  <blank length="00:01:14.723"/>
  <entry producer="producer16" in="00:04:24.483" out="00:05:06.131">
   <property name="kdenlive:id">8</property>
   <filter id="filter77" in="00:04:24.483" out="00:04:25.067">
    <property name="window">75</property>
    <property name="max_gain">20dB</property>
    <property name="mlt_service">volume</property>
    <property name="kdenlive_id">fadein</property>
    <property name="gain">0</property>
    <property name="end">1</property>
    <property name="kdenlive:collapsed">0</property>
   </filter>
   <filter id="filter78" in="00:05:05.839" out="00:05:06.131">
    <property name="window">75</property>
    <property name="max_gain">20dB</property>
    <property name="mlt_service">volume</property>
    <property name="kdenlive_id">fadeout</property>
    <property name="gain">1</property>
    <property name="end">0</property>
   </filter>
  </entry>
  <blank length="00:00:44.169"/>
  <entry producer="producer16" in="00:05:52.219" out="00:07:07.424">
   <property name="kdenlive:id">8</property>
   <filter id="filter79" in="00:07:07.049" out="00:07:07.424">
    <property name="window">75</property>
    <property name="max_gain">20dB</property>
    <property name="mlt_service">volume</property>
    <property name="kdenlive_id">fadeout</property>
    <property name="gain">1</property>
    <property name="end">0</property>
    <property name="kdenlive:collapsed">0</property>
   </filter>
  </entry>
  <blank length="00:00:08.300"/>
  <entry producer="producer16" in="00:07:27.402" out="00:10:23.232">
   <property name="kdenlive:id">8</property>
   <filter id="filter80" in="00:07:27.402" out="00:07:27.694">
    <property name="window">75</property>
    <property name="max_gain">20dB</property>
    <property name="mlt_service">volume</property>
    <property name="kdenlive_id">fadein</property>
    <property name="gain">0</property>
    <property name="end">1</property>
   </filter>
  </entry>
  <blank length="00:06:58.725"/>
  <entry producer="producer16" in="00:17:32.699" out="00:18:43.126">
   <property name="kdenlive:id">8</property>
   <filter id="filter81" in="00:17:32.699" out="00:17:32.950">
    <property name="window">75</property>
    <property name="max_gain">20dB</property>
    <property name="mlt_service">volume</property>
    <property name="kdenlive_id">fadein</property>
    <property name="gain">0</property>
    <property name="end">1</property>
    <property name="kdenlive:collapsed">0</property>
   </filter>
   <filter id="filter82" in="00:18:42.709" out="00:18:43.126">
    <property name="window">75</property>
    <property name="max_gain">20dB</property>
    <property name="mlt_service">volume</property>
    <property name="kdenlive_id">fadeout</property>
    <property name="gain">1</property>
    <property name="end">0</property>
    <property name="kdenlive:collapsed">0</property>
   </filter>
  </entry>
  <blank length="00:00:00.542"/>
  <entry producer="producer16" in="00:18:52.219" out="00:18:58.016">
   <property name="kdenlive:id">8</property>
   <filter id="filter83" in="00:18:52.219" out="00:18:52.427">
    <property name="window">75</property>
    <property name="max_gain">20dB</property>
    <property name="mlt_service">volume</property>
    <property name="kdenlive_id">fadein</property>
    <property name="gain">0</property>
    <property name="end">1</property>
    <property name="kdenlive:collapsed">0</property>
   </filter>
   <filter id="filter84" in="00:18:57.891" out="00:18:58.016">
    <property name="window">75</property>
    <property name="max_gain">20dB</property>
    <property name="mlt_service">volume</property>
    <property name="kdenlive_id">fadeout</property>
    <property name="gain">1</property>
    <property name="end">0</property>
   </filter>
  </entry>
  <blank length="00:03:19.728"/>
  <entry producer="producer17" in="00:02:17.226" out="00:20:13.889">
   <property name="kdenlive:id">9</property>
   <filter id="filter85" in="00:02:17.226" out="00:02:17.517">
    <property name="window">75</property>
    <property name="max_gain">20dB</property>
    <property name="mlt_service">volume</property>
    <property name="kdenlive_id">fadein</property>
    <property name="gain">0</property>
    <property name="end">1</property>
    <property name="kdenlive:collapsed">0</property>
   </filter>
   <filter id="filter86" in="00:20:12.804" out="00:20:13.889">
    <property name="window">75</property>
    <property name="max_gain">20dB</property>
    <property name="mlt_service">volume</property>
    <property name="kdenlive_id">fadeout</property>
    <property name="gain">1</property>
    <property name="end">0</property>
    <property name="kdenlive:collapsed">0</property>
   </filter>
  </entry>
  <blank length="00:00:41.083"/>
  <entry producer="producer17" in="00:21:03.337" out="00:23:36.954">
   <property name="kdenlive:id">9</property>
   <filter id="filter87" in="00:21:03.337" out="00:21:03.754">
    <property name="window">75</property>
    <property name="max_gain">20dB</property>
    <property name="mlt_service">volume</property>
    <property name="kdenlive_id">fadein</property>
    <property name="gain">0</property>
    <property name="end">1</property>
    <property name="kdenlive:collapsed">0</property>
   </filter>
  </entry>
 </playlist>
 <playlist id="playlist5">
  <property name="kdenlive:audio_track">1</property>
 </playlist>
 <tractor id="tractor2" in="00:00:00.000" out="01:22:52.844">
  <property name="kdenlive:audio_track">1</property>
  <property name="kdenlive:trackheight">67</property>
  <property name="kdenlive:timeline_active">1</property>
  <property name="kdenlive:collapsed">0</property>
  <property name="kdenlive:thumbs_format"/>
  <property name="kdenlive:audio_rec"/>
  <track hide="video" producer="playlist4"/>
  <track hide="video" producer="playlist5"/>
  <filter id="filter88">
   <property name="window">75</property>
   <property name="max_gain">20dB</property>
   <property name="mlt_service">volume</property>
   <property name="internal_added">237</property>
   <property name="disable">1</property>
  </filter>
  <filter id="filter89">
   <property name="channel">-1</property>
   <property name="mlt_service">panner</property>
   <property name="internal_added">237</property>
   <property name="start">0.5</property>
   <property name="disable">1</property>
  </filter>
  <filter id="filter90">
   <property name="iec_scale">0</property>
   <property name="mlt_service">audiolevel</property>
   <property name="dbpeak">1</property>
   <property name="disable">1</property>
  </filter>
 </tractor>
 <chain id="producer18" out="00:24:09.509">
  <property name="length">34754</property>
  <property name="eof">pause</property>
  <property name="resource">/mnt/data1/Anime-Edits/Monster/Monster-Editing/Orig/Monster - Chapter 15 - Be My Baby.mkv</property>
  <property name="mlt_service">avformat-novalidate</property>
  <property name="audio_index">1</property>
  <property name="video_index">0</property>
  <property name="meta.media.nb_streams">24</property>
  <property name="meta.media.0.stream.type">video</property>
  <property name="meta.media.0.stream.frame_rate">23.976</property>
  <property name="meta.media.0.stream.sample_aspect_ratio">1</property>
  <property name="meta.media.0.codec.width">1440</property>
  <property name="meta.media.0.codec.height">1080</property>
  <property name="meta.media.0.codec.rotate">0</property>
  <property name="meta.media.0.codec.pix_fmt">yuv420p10le</property>
  <property name="meta.media.0.codec.sample_aspect_ratio">1</property>
  <property name="meta.media.0.codec.colorspace">709</property>
  <property name="meta.media.0.codec.color_trc">1</property>
  <property name="meta.media.0.codec.name">hevc</property>
  <property name="meta.media.0.codec.long_name">HEVC (High Efficiency Video Coding)</property>
  <property name="meta.media.0.codec.bit_rate">0</property>
  <property name="meta.attr.0.stream.BPS-eng.markup">1983526</property>
  <property name="meta.attr.0.stream.DURATION-eng.markup">00:24:09.532000000</property>
  <property name="meta.attr.0.stream.NUMBER_OF_FRAMES-eng.markup">34754</property>
  <property name="meta.attr.0.stream.NUMBER_OF_BYTES-eng.markup">359398070</property>
  <property name="meta.attr.0.stream._STATISTICS_WRITING_APP-eng.markup">mkvmerge v52.0.0 ('Secret For The Mad') 64-bit</property>
  <property name="meta.attr.0.stream._STATISTICS_WRITING_DATE_UTC-eng.markup">2022-11-08 22:23:44</property>
  <property name="meta.attr.0.stream._STATISTICS_TAGS-eng.markup">BPS DURATION NUMBER_OF_FRAMES NUMBER_OF_BYTES</property>
  <property name="meta.media.1.stream.type">audio</property>
  <property name="meta.media.1.codec.sample_fmt">fltp</property>
  <property name="meta.media.1.codec.sample_rate">48000</property>
  <property name="meta.media.1.codec.channels">2</property>
  <property name="meta.media.1.codec.name">ac3</property>
  <property name="meta.media.1.codec.long_name">ATSC A/52A (AC-3)</property>
  <property name="meta.media.1.codec.bit_rate">448000</property>
  <property name="meta.attr.1.stream.language.markup">jpn</property>
  <property name="meta.attr.1.stream.title.markup">Japanese DVD AC-3 DD_2.0</property>
  <property name="meta.attr.1.stream.BPS-eng.markup">448000</property>
  <property name="meta.attr.1.stream.DURATION-eng.markup">00:24:09.472000000</property>
  <property name="meta.attr.1.stream.NUMBER_OF_FRAMES-eng.markup">45296</property>
  <property name="meta.attr.1.stream.NUMBER_OF_BYTES-eng.markup">81170432</property>
  <property name="meta.attr.1.stream._STATISTICS_WRITING_APP-eng.markup">mkvmerge v52.0.0 ('Secret For The Mad') 64-bit</property>
  <property name="meta.attr.1.stream._STATISTICS_WRITING_DATE_UTC-eng.markup">2022-11-08 22:23:44</property>
  <property name="meta.attr.1.stream._STATISTICS_TAGS-eng.markup">BPS DURATION NUMBER_OF_FRAMES NUMBER_OF_BYTES</property>
  <property name="meta.media.2.stream.type">audio</property>
  <property name="meta.media.2.codec.sample_fmt">fltp</property>
  <property name="meta.media.2.codec.sample_rate">48000</property>
  <property name="meta.media.2.codec.channels">2</property>
  <property name="meta.media.2.codec.name">mp3float</property>
  <property name="meta.media.2.codec.long_name">MP3 (MPEG audio layer 3)</property>
  <property name="meta.media.2.codec.bit_rate">99999</property>
  <property name="meta.attr.2.stream.language.markup">jpn</property>
  <property name="meta.attr.2.stream.title.markup">Original Broadcast Audio</property>
  <property name="meta.attr.2.stream.BPS-eng.markup">124204</property>
  <property name="meta.attr.2.stream.DURATION-eng.markup">00:23:54.000000000</property>
  <property name="meta.attr.2.stream.NUMBER_OF_FRAMES-eng.markup">59750</property>
  <property name="meta.attr.2.stream.NUMBER_OF_BYTES-eng.markup">22263744</property>
  <property name="meta.attr.2.stream._STATISTICS_WRITING_APP-eng.markup">mkvmerge v52.0.0 ('Secret For The Mad') 64-bit</property>
  <property name="meta.attr.2.stream._STATISTICS_WRITING_DATE_UTC-eng.markup">2022-11-08 22:23:44</property>
  <property name="meta.attr.2.stream._STATISTICS_TAGS-eng.markup">BPS DURATION NUMBER_OF_FRAMES NUMBER_OF_BYTES</property>
  <property name="meta.media.3.stream.type">audio</property>
  <property name="meta.media.3.codec.sample_fmt">fltp</property>
  <property name="meta.media.3.codec.sample_rate">48000</property>
  <property name="meta.media.3.codec.channels">2</property>
  <property name="meta.media.3.codec.name">aac</property>
  <property name="meta.media.3.codec.long_name">AAC (Advanced Audio Coding)</property>
  <property name="meta.media.3.codec.bit_rate">0</property>
  <property name="meta.attr.3.stream.language.markup">eng</property>
  <property name="meta.attr.3.stream.title.markup">English AAC DD_2.0</property>
  <property name="meta.attr.3.stream.BPS-eng.markup">156906</property>
  <property name="meta.attr.3.stream.DURATION-eng.markup">00:23:54.688000000</property>
  <property name="meta.attr.3.stream.NUMBER_OF_FRAMES-eng.markup">67251</property>
  <property name="meta.attr.3.stream.NUMBER_OF_BYTES-eng.markup">28138979</property>
  <property name="meta.attr.3.stream._STATISTICS_WRITING_APP-eng.markup">mkvmerge v52.0.0 ('Secret For The Mad') 64-bit</property>
  <property name="meta.attr.3.stream._STATISTICS_WRITING_DATE_UTC-eng.markup">2022-11-08 22:23:44</property>
  <property name="meta.attr.3.stream._STATISTICS_TAGS-eng.markup">BPS DURATION NUMBER_OF_FRAMES NUMBER_OF_BYTES</property>
  <property name="meta.media.4.codec.name">ssa</property>
  <property name="meta.media.4.codec.long_name">ASS (Advanced SubStation Alpha) subtitle</property>
  <property name="meta.media.4.codec.bit_rate">0</property>
  <property name="meta.attr.4.stream.language.markup">eng</property>
  <property name="meta.attr.4.stream.title.markup">English (Full) ASS</property>
  <property name="meta.attr.4.stream.BPS-eng.markup">96</property>
  <property name="meta.attr.4.stream.DURATION-eng.markup">00:23:23.800000000</property>
  <property name="meta.attr.4.stream.NUMBER_OF_FRAMES-eng.markup">310</property>
  <property name="meta.attr.4.stream.NUMBER_OF_BYTES-eng.markup">16890</property>
  <property name="meta.attr.4.stream._STATISTICS_WRITING_APP-eng.markup">mkvmerge v52.0.0 ('Secret For The Mad') 64-bit</property>
  <property name="meta.attr.4.stream._STATISTICS_WRITING_DATE_UTC-eng.markup">2022-11-08 22:23:44</property>
  <property name="meta.attr.4.stream._STATISTICS_TAGS-eng.markup">BPS DURATION NUMBER_OF_FRAMES NUMBER_OF_BYTES</property>
  <property name="meta.media.5.codec.name">ssa</property>
  <property name="meta.media.5.codec.long_name">ASS (Advanced SubStation Alpha) subtitle</property>
  <property name="meta.media.5.codec.bit_rate">0</property>
  <property name="meta.attr.5.stream.language.markup">eng</property>
  <property name="meta.attr.5.stream.title.markup">English (Titles &amp; Signs) ASS</property>
  <property name="meta.attr.5.stream.BPS-eng.markup">1</property>
  <property name="meta.attr.5.stream.DURATION-eng.markup">00:21:26.490000000</property>
  <property name="meta.attr.5.stream.NUMBER_OF_FRAMES-eng.markup">3</property>
  <property name="meta.attr.5.stream.NUMBER_OF_BYTES-eng.markup">197</property>
  <property name="meta.attr.5.stream._STATISTICS_WRITING_APP-eng.markup">mkvmerge v52.0.0 ('Secret For The Mad') 64-bit</property>
  <property name="meta.attr.5.stream._STATISTICS_WRITING_DATE_UTC-eng.markup">2022-11-08 22:23:44</property>
  <property name="meta.attr.5.stream._STATISTICS_TAGS-eng.markup">BPS DURATION NUMBER_OF_FRAMES NUMBER_OF_BYTES</property>
  <property name="meta.media.6.codec.name">ssa</property>
  <property name="meta.media.6.codec.long_name">ASS (Advanced SubStation Alpha) subtitle</property>
  <property name="meta.media.6.codec.bit_rate">0</property>
  <property name="meta.attr.6.stream.language.markup">ara</property>
  <property name="meta.attr.6.stream.title.markup">Arabic</property>
  <property name="meta.attr.6.stream.BPS-eng.markup">119</property>
  <property name="meta.attr.6.stream.DURATION-eng.markup">00:21:55.700000000</property>
  <property name="meta.attr.6.stream.NUMBER_OF_FRAMES-eng.markup">328</property>
  <property name="meta.attr.6.stream.NUMBER_OF_BYTES-eng.markup">19720</property>
  <property name="meta.attr.6.stream._STATISTICS_WRITING_APP-eng.markup">mkvmerge v52.0.0 ('Secret For The Mad') 64-bit</property>
  <property name="meta.attr.6.stream._STATISTICS_WRITING_DATE_UTC-eng.markup">2022-11-08 22:23:44</property>
  <property name="meta.attr.6.stream._STATISTICS_TAGS-eng.markup">BPS DURATION NUMBER_OF_FRAMES NUMBER_OF_BYTES</property>
  <property name="meta.attr.title.markup">Monster : Chapter 15 : Be My Baby</property>
  <property name="meta.attr.encoder.markup">libebml v1.4.1 + libmatroska v1.6.2</property>
  <property name="meta.attr.creation_time.markup">2022-11-08T22:23:44.000000Z</property>
  <property name="seekable">1</property>
  <property name="meta.media.sample_aspect_num">1</property>
  <property name="meta.media.sample_aspect_den">1</property>
  <property name="aspect_ratio">1</property>
  <property name="format">3</property>
  <property name="kdenlive:clipname"/>
  <property name="kdenlive:clip_type">0</property>
  <property name="kdenlive:folderid">-1</property>
  <property name="kdenlive:id">2</property>
  <property name="kdenlive:active_streams">1;2;3</property>
  <property name="kdenlive:file_size">494036232</property>
  <property name="kdenlive:file_hash">2ca6d30d65808083acf92eb29459b304</property>
  <property name="kdenlive:audio_max1">182</property>
  <property name="kdenlive:audio_max2">193</property>
  <property name="kdenlive:audio_max3">189</property>
  <property name="xml">was here</property>
  <property name="meta.media.frame_rate_num">24000</property>
  <property name="meta.media.frame_rate_den">1001</property>
  <property name="meta.media.colorspace">709</property>
  <property name="meta.media.color_trc">1</property>
  <property name="meta.media.has_b_frames">2</property>
  <property name="meta.media.width">1440</property>
  <property name="meta.media.height">1080</property>
  <property name="meta.media.color_range">mpeg</property>
  <property name="meta.media.top_field_first">0</property>
  <property name="meta.media.progressive">1</property>
  <property name="set.test_audio">1</property>
  <property name="set.test_image">0</property>
  <property name="vstream">0</property>
  <property name="astream">0</property>
 </chain>
 <chain id="producer19" out="00:23:55.555">
  <property name="length">34419</property>
  <property name="eof">pause</property>
  <property name="resource">/mnt/data1/Anime-Edits/Monster/Monster-Editing/Orig/Monster - Chapter 16 - Wolf's Confession.mkv</property>
  <property name="mlt_service">avformat-novalidate</property>
  <property name="audio_index">1</property>
  <property name="video_index">0</property>
  <property name="seekable">1</property>
  <property name="aspect_ratio">1</property>
  <property name="format">3</property>
  <property name="kdenlive:clipname"/>
  <property name="kdenlive:clip_type">0</property>
  <property name="kdenlive:folderid">-1</property>
  <property name="kdenlive:id">3</property>
  <property name="kdenlive:active_streams">1;2</property>
  <property name="kdenlive:file_size">453347744</property>
  <property name="kdenlive:file_hash">e20faadd6aacbf2723f80ea021db38b5</property>
  <property name="kdenlive:audio_max1">184</property>
  <property name="kdenlive:audio_max2">193</property>
  <property name="xml">was here</property>
  <property name="meta.media.nb_streams">23</property>
  <property name="meta.media.0.stream.type">video</property>
  <property name="meta.media.0.stream.frame_rate">23.976</property>
  <property name="meta.media.0.stream.sample_aspect_ratio">1</property>
  <property name="meta.media.0.codec.width">1440</property>
  <property name="meta.media.0.codec.height">1080</property>
  <property name="meta.media.0.codec.rotate">0</property>
  <property name="meta.media.0.codec.pix_fmt">yuv420p10le</property>
  <property name="meta.media.0.codec.sample_aspect_ratio">1</property>
  <property name="meta.media.0.codec.colorspace">709</property>
  <property name="meta.media.0.codec.color_trc">1</property>
  <property name="meta.media.0.codec.name">hevc</property>
  <property name="meta.media.0.codec.long_name">HEVC (High Efficiency Video Coding)</property>
  <property name="meta.media.0.codec.bit_rate">0</property>
  <property name="meta.attr.0.stream.BPS-eng.markup">1927560</property>
  <property name="meta.attr.0.stream.DURATION-eng.markup">00:23:55.518000000</property>
  <property name="meta.attr.0.stream.NUMBER_OF_FRAMES-eng.markup">34418</property>
  <property name="meta.attr.0.stream.NUMBER_OF_BYTES-eng.markup">345881056</property>
  <property name="meta.attr.0.stream._STATISTICS_WRITING_APP-eng.markup">mkvmerge v52.0.0 ('Secret For The Mad') 64-bit</property>
  <property name="meta.attr.0.stream._STATISTICS_WRITING_DATE_UTC-eng.markup">2022-11-09 08:56:56</property>
  <property name="meta.attr.0.stream._STATISTICS_TAGS-eng.markup">BPS DURATION NUMBER_OF_FRAMES NUMBER_OF_BYTES</property>
  <property name="meta.media.1.stream.type">audio</property>
  <property name="meta.media.1.codec.sample_fmt">fltp</property>
  <property name="meta.media.1.codec.sample_rate">48000</property>
  <property name="meta.media.1.codec.channels">2</property>
  <property name="meta.media.1.codec.name">ac3</property>
  <property name="meta.media.1.codec.long_name">ATSC A/52A (AC-3)</property>
  <property name="meta.media.1.codec.bit_rate">448000</property>
  <property name="meta.attr.1.stream.language.markup">jpn</property>
  <property name="meta.attr.1.stream.title.markup">Japanese DVD AC-3 DD_2.0</property>
  <property name="meta.attr.1.stream.BPS-eng.markup">448000</property>
  <property name="meta.attr.1.stream.DURATION-eng.markup">00:23:55.552000000</property>
  <property name="meta.attr.1.stream.NUMBER_OF_FRAMES-eng.markup">44861</property>
  <property name="meta.attr.1.stream.NUMBER_OF_BYTES-eng.markup">80390912</property>
  <property name="meta.attr.1.stream._STATISTICS_WRITING_APP-eng.markup">mkvmerge v52.0.0 ('Secret For The Mad') 64-bit</property>
  <property name="meta.attr.1.stream._STATISTICS_WRITING_DATE_UTC-eng.markup">2022-11-09 08:56:56</property>
  <property name="meta.attr.1.stream._STATISTICS_TAGS-eng.markup">BPS DURATION NUMBER_OF_FRAMES NUMBER_OF_BYTES</property>
  <property name="meta.media.2.stream.type">audio</property>
  <property name="meta.media.2.codec.sample_fmt">fltp</property>
  <property name="meta.media.2.codec.sample_rate">44100</property>
  <property name="meta.media.2.codec.channels">2</property>
  <property name="meta.media.2.codec.name">aac</property>
  <property name="meta.media.2.codec.long_name">AAC (Advanced Audio Coding)</property>
  <property name="meta.media.2.codec.bit_rate">0</property>
  <property name="meta.attr.2.stream.language.markup">eng</property>
  <property name="meta.attr.2.stream.title.markup">English AAC DD_2.0</property>
  <property name="meta.attr.2.stream.BPS-eng.markup">134680</property>
  <property name="meta.attr.2.stream.DURATION-eng.markup">00:23:55.295000000</property>
  <property name="meta.attr.2.stream.NUMBER_OF_FRAMES-eng.markup">61813</property>
  <property name="meta.attr.2.stream.NUMBER_OF_BYTES-eng.markup">24163291</property>
  <property name="meta.attr.2.stream._STATISTICS_WRITING_APP-eng.markup">mkvmerge v52.0.0 ('Secret For The Mad') 64-bit</property>
  <property name="meta.attr.2.stream._STATISTICS_WRITING_DATE_UTC-eng.markup">2022-11-09 08:56:56</property>
  <property name="meta.attr.2.stream._STATISTICS_TAGS-eng.markup">BPS DURATION NUMBER_OF_FRAMES NUMBER_OF_BYTES</property>
  <property name="meta.media.3.codec.name">ssa</property>
  <property name="meta.media.3.codec.long_name">ASS (Advanced SubStation Alpha) subtitle</property>
  <property name="meta.media.3.codec.bit_rate">0</property>
  <property name="meta.attr.3.stream.language.markup">eng</property>
  <property name="meta.attr.3.stream.title.markup">English (Full) ASS</property>
  <property name="meta.attr.3.stream.BPS-eng.markup">79</property>
  <property name="meta.attr.3.stream.DURATION-eng.markup">00:23:51.650000000</property>
  <property name="meta.attr.3.stream.NUMBER_OF_FRAMES-eng.markup">246</property>
  <property name="meta.attr.3.stream.NUMBER_OF_BYTES-eng.markup">14158</property>
  <property name="meta.attr.3.stream._STATISTICS_WRITING_APP-eng.markup">mkvmerge v52.0.0 ('Secret For The Mad') 64-bit</property>
  <property name="meta.attr.3.stream._STATISTICS_WRITING_DATE_UTC-eng.markup">2022-11-09 08:56:56</property>
  <property name="meta.attr.3.stream._STATISTICS_TAGS-eng.markup">BPS DURATION NUMBER_OF_FRAMES NUMBER_OF_BYTES</property>
  <property name="meta.media.4.codec.name">ssa</property>
  <property name="meta.media.4.codec.long_name">ASS (Advanced SubStation Alpha) subtitle</property>
  <property name="meta.media.4.codec.bit_rate">0</property>
  <property name="meta.attr.4.stream.language.markup">eng</property>
  <property name="meta.attr.4.stream.title.markup">English (Titles &amp; Signs) ASS</property>
  <property name="meta.attr.4.stream.BPS-eng.markup">0</property>
  <property name="meta.attr.4.stream.DURATION-eng.markup">00:21:53.260000000</property>
  <property name="meta.attr.4.stream.NUMBER_OF_FRAMES-eng.markup">2</property>
  <property name="meta.attr.4.stream.NUMBER_OF_BYTES-eng.markup">120</property>
  <property name="meta.attr.4.stream._STATISTICS_WRITING_APP-eng.markup">mkvmerge v52.0.0 ('Secret For The Mad') 64-bit</property>
  <property name="meta.attr.4.stream._STATISTICS_WRITING_DATE_UTC-eng.markup">2022-11-09 08:56:56</property>
  <property name="meta.attr.4.stream._STATISTICS_TAGS-eng.markup">BPS DURATION NUMBER_OF_FRAMES NUMBER_OF_BYTES</property>
  <property name="meta.media.5.codec.name">ssa</property>
  <property name="meta.media.5.codec.long_name">ASS (Advanced SubStation Alpha) subtitle</property>
  <property name="meta.media.5.codec.bit_rate">0</property>
  <property name="meta.attr.5.stream.language.markup">ara</property>
  <property name="meta.attr.5.stream.title.markup">Arabic</property>
  <property name="meta.attr.5.stream.BPS-eng.markup">108</property>
  <property name="meta.attr.5.stream.DURATION-eng.markup">00:22:21.280000000</property>
  <property name="meta.attr.5.stream.NUMBER_OF_FRAMES-eng.markup">300</property>
  <property name="meta.attr.5.stream.NUMBER_OF_BYTES-eng.markup">18142</property>
  <property name="meta.attr.5.stream._STATISTICS_WRITING_APP-eng.markup">mkvmerge v52.0.0 ('Secret For The Mad') 64-bit</property>
  <property name="meta.attr.5.stream._STATISTICS_WRITING_DATE_UTC-eng.markup">2022-11-09 08:56:56</property>
  <property name="meta.attr.5.stream._STATISTICS_TAGS-eng.markup">BPS DURATION NUMBER_OF_FRAMES NUMBER_OF_BYTES</property>
  <property name="meta.attr.title.markup">Monster : Chapter 16 : Wolf's Confession</property>
  <property name="meta.attr.encoder.markup">libebml v1.4.1 + libmatroska v1.6.2</property>
  <property name="meta.attr.creation_time.markup">2022-11-09T08:56:56.000000Z</property>
  <property name="meta.media.sample_aspect_num">1</property>
  <property name="meta.media.sample_aspect_den">1</property>
  <property name="meta.media.frame_rate_num">24000</property>
  <property name="meta.media.frame_rate_den">1001</property>
  <property name="meta.media.colorspace">709</property>
  <property name="meta.media.color_trc">1</property>
  <property name="meta.media.has_b_frames">2</property>
  <property name="meta.media.width">1440</property>
  <property name="meta.media.height">1080</property>
  <property name="meta.media.color_range">mpeg</property>
  <property name="meta.media.top_field_first">0</property>
  <property name="meta.media.progressive">1</property>
  <property name="set.test_audio">1</property>
  <property name="set.test_image">0</property>
  <property name="vstream">0</property>
  <property name="astream">0</property>
 </chain>
 <producer id="producer20" in="00:00:00.000" out="00:11:57.724">
  <property name="length">17210</property>
  <property name="eof">pause</property>
  <property name="resource">2:/mnt/data1/Anime-Edits/Monster/Monster-Editing/Orig/Monster - Chapter 16 - Wolf's Confession.mkv</property>
  <property name="aspect_ratio">1</property>
  <property name="meta.media.nb_streams">23</property>
  <property name="meta.media.0.stream.type">video</property>
  <property name="meta.media.0.stream.frame_rate">23.976</property>
  <property name="meta.media.0.stream.sample_aspect_ratio">1</property>
  <property name="meta.media.0.codec.width">1440</property>
  <property name="meta.media.0.codec.height">1080</property>
  <property name="meta.media.0.codec.rotate">0</property>
  <property name="meta.media.0.codec.pix_fmt">yuv420p10le</property>
  <property name="meta.media.0.codec.sample_aspect_ratio">1</property>
  <property name="meta.media.0.codec.colorspace">709</property>
  <property name="meta.media.0.codec.color_trc">1</property>
  <property name="meta.media.0.codec.name">hevc</property>
  <property name="meta.media.0.codec.long_name">HEVC (High Efficiency Video Coding)</property>
  <property name="meta.media.0.codec.bit_rate">0</property>
  <property name="meta.attr.0.stream.BPS-eng.markup">1927560</property>
  <property name="meta.attr.0.stream.DURATION-eng.markup">00:23:55.518000000</property>
  <property name="meta.attr.0.stream.NUMBER_OF_FRAMES-eng.markup">34418</property>
  <property name="meta.attr.0.stream.NUMBER_OF_BYTES-eng.markup">345881056</property>
  <property name="meta.attr.0.stream._STATISTICS_WRITING_APP-eng.markup">mkvmerge v52.0.0 ('Secret For The Mad') 64-bit</property>
  <property name="meta.attr.0.stream._STATISTICS_WRITING_DATE_UTC-eng.markup">2022-11-09 08:56:56</property>
  <property name="meta.attr.0.stream._STATISTICS_TAGS-eng.markup">BPS DURATION NUMBER_OF_FRAMES NUMBER_OF_BYTES</property>
  <property name="meta.media.1.stream.type">audio</property>
  <property name="meta.media.1.codec.sample_fmt">fltp</property>
  <property name="meta.media.1.codec.sample_rate">48000</property>
  <property name="meta.media.1.codec.channels">2</property>
  <property name="meta.media.1.codec.name">ac3</property>
  <property name="meta.media.1.codec.long_name">ATSC A/52A (AC-3)</property>
  <property name="meta.media.1.codec.bit_rate">448000</property>
  <property name="meta.attr.1.stream.language.markup">jpn</property>
  <property name="meta.attr.1.stream.title.markup">Japanese DVD AC-3 DD_2.0</property>
  <property name="meta.attr.1.stream.BPS-eng.markup">448000</property>
  <property name="meta.attr.1.stream.DURATION-eng.markup">00:23:55.552000000</property>
  <property name="meta.attr.1.stream.NUMBER_OF_FRAMES-eng.markup">44861</property>
  <property name="meta.attr.1.stream.NUMBER_OF_BYTES-eng.markup">80390912</property>
  <property name="meta.attr.1.stream._STATISTICS_WRITING_APP-eng.markup">mkvmerge v52.0.0 ('Secret For The Mad') 64-bit</property>
  <property name="meta.attr.1.stream._STATISTICS_WRITING_DATE_UTC-eng.markup">2022-11-09 08:56:56</property>
  <property name="meta.attr.1.stream._STATISTICS_TAGS-eng.markup">BPS DURATION NUMBER_OF_FRAMES NUMBER_OF_BYTES</property>
  <property name="meta.media.2.stream.type">audio</property>
  <property name="meta.media.2.codec.sample_fmt">fltp</property>
  <property name="meta.media.2.codec.sample_rate">44100</property>
  <property name="meta.media.2.codec.channels">2</property>
  <property name="meta.media.2.codec.name">aac</property>
  <property name="meta.media.2.codec.long_name">AAC (Advanced Audio Coding)</property>
  <property name="meta.media.2.codec.bit_rate">0</property>
  <property name="meta.attr.2.stream.language.markup">eng</property>
  <property name="meta.attr.2.stream.title.markup">English AAC DD_2.0</property>
  <property name="meta.attr.2.stream.BPS-eng.markup">134680</property>
  <property name="meta.attr.2.stream.DURATION-eng.markup">00:23:55.295000000</property>
  <property name="meta.attr.2.stream.NUMBER_OF_FRAMES-eng.markup">61813</property>
  <property name="meta.attr.2.stream.NUMBER_OF_BYTES-eng.markup">24163291</property>
  <property name="meta.attr.2.stream._STATISTICS_WRITING_APP-eng.markup">mkvmerge v52.0.0 ('Secret For The Mad') 64-bit</property>
  <property name="meta.attr.2.stream._STATISTICS_WRITING_DATE_UTC-eng.markup">2022-11-09 08:56:56</property>
  <property name="meta.attr.2.stream._STATISTICS_TAGS-eng.markup">BPS DURATION NUMBER_OF_FRAMES NUMBER_OF_BYTES</property>
  <property name="meta.media.3.codec.name">ssa</property>
  <property name="meta.media.3.codec.long_name">ASS (Advanced SubStation Alpha) subtitle</property>
  <property name="meta.media.3.codec.bit_rate">0</property>
  <property name="meta.attr.3.stream.language.markup">eng</property>
  <property name="meta.attr.3.stream.title.markup">English (Full) ASS</property>
  <property name="meta.attr.3.stream.BPS-eng.markup">79</property>
  <property name="meta.attr.3.stream.DURATION-eng.markup">00:23:51.650000000</property>
  <property name="meta.attr.3.stream.NUMBER_OF_FRAMES-eng.markup">246</property>
  <property name="meta.attr.3.stream.NUMBER_OF_BYTES-eng.markup">14158</property>
  <property name="meta.attr.3.stream._STATISTICS_WRITING_APP-eng.markup">mkvmerge v52.0.0 ('Secret For The Mad') 64-bit</property>
  <property name="meta.attr.3.stream._STATISTICS_WRITING_DATE_UTC-eng.markup">2022-11-09 08:56:56</property>
  <property name="meta.attr.3.stream._STATISTICS_TAGS-eng.markup">BPS DURATION NUMBER_OF_FRAMES NUMBER_OF_BYTES</property>
  <property name="meta.media.4.codec.name">ssa</property>
  <property name="meta.media.4.codec.long_name">ASS (Advanced SubStation Alpha) subtitle</property>
  <property name="meta.media.4.codec.bit_rate">0</property>
  <property name="meta.attr.4.stream.language.markup">eng</property>
  <property name="meta.attr.4.stream.title.markup">English (Titles &amp; Signs) ASS</property>
  <property name="meta.attr.4.stream.BPS-eng.markup">0</property>
  <property name="meta.attr.4.stream.DURATION-eng.markup">00:21:53.260000000</property>
  <property name="meta.attr.4.stream.NUMBER_OF_FRAMES-eng.markup">2</property>
  <property name="meta.attr.4.stream.NUMBER_OF_BYTES-eng.markup">120</property>
  <property name="meta.attr.4.stream._STATISTICS_WRITING_APP-eng.markup">mkvmerge v52.0.0 ('Secret For The Mad') 64-bit</property>
  <property name="meta.attr.4.stream._STATISTICS_WRITING_DATE_UTC-eng.markup">2022-11-09 08:56:56</property>
  <property name="meta.attr.4.stream._STATISTICS_TAGS-eng.markup">BPS DURATION NUMBER_OF_FRAMES NUMBER_OF_BYTES</property>
  <property name="meta.media.5.codec.name">ssa</property>
  <property name="meta.media.5.codec.long_name">ASS (Advanced SubStation Alpha) subtitle</property>
  <property name="meta.media.5.codec.bit_rate">0</property>
  <property name="meta.attr.5.stream.language.markup">ara</property>
  <property name="meta.attr.5.stream.title.markup">Arabic</property>
  <property name="meta.attr.5.stream.BPS-eng.markup">108</property>
  <property name="meta.attr.5.stream.DURATION-eng.markup">00:22:21.280000000</property>
  <property name="meta.attr.5.stream.NUMBER_OF_FRAMES-eng.markup">300</property>
  <property name="meta.attr.5.stream.NUMBER_OF_BYTES-eng.markup">18142</property>
  <property name="meta.attr.5.stream._STATISTICS_WRITING_APP-eng.markup">mkvmerge v52.0.0 ('Secret For The Mad') 64-bit</property>
  <property name="meta.attr.5.stream._STATISTICS_WRITING_DATE_UTC-eng.markup">2022-11-09 08:56:56</property>
  <property name="meta.attr.5.stream._STATISTICS_TAGS-eng.markup">BPS DURATION NUMBER_OF_FRAMES NUMBER_OF_BYTES</property>
  <property name="meta.attr.title.markup">Monster : Chapter 16 : Wolf's Confession</property>
  <property name="meta.attr.encoder.markup">libebml v1.4.1 + libmatroska v1.6.2</property>
  <property name="meta.attr.creation_time.markup">2022-11-09T08:56:56.000000Z</property>
  <property name="seekable">1</property>
  <property name="meta.media.sample_aspect_num">1</property>
  <property name="meta.media.sample_aspect_den">1</property>
  <property name="format">3</property>
  <property name="audio_index">1</property>
  <property name="video_index">0</property>
  <property name="warp_speed">2</property>
  <property name="warp_resource">/mnt/data1/Anime-Edits/Monster/Monster-Editing/Orig/Monster - Chapter 16 - Wolf's Confession.mkv</property>
  <property name="mlt_service">timewarp</property>
  <property name="set.test_audio">1</property>
  <property name="set.test_image">0</property>
  <property name="kdenlive:id">3</property>
  <property name="warp_pitch">0</property>
  <property name="meta.media.frame_rate_num">24000</property>
  <property name="meta.media.frame_rate_den">1001</property>
  <property name="meta.media.colorspace">709</property>
  <property name="meta.media.color_trc">1</property>
  <property name="meta.media.has_b_frames">2</property>
  <property name="meta.media.width">1440</property>
  <property name="meta.media.height">1080</property>
  <property name="meta.media.color_range">mpeg</property>
  <property name="meta.media.top_field_first">0</property>
  <property name="meta.media.progressive">1</property>
 </producer>
 <producer id="producer21" in="00:00:00.000" out="00:15:57.015">
  <property name="length">22946</property>
  <property name="eof">pause</property>
  <property name="resource">1.5:/mnt/data1/Anime-Edits/Monster/Monster-Editing/Orig/Monster - Chapter 16 - Wolf's Confession.mkv</property>
  <property name="aspect_ratio">1</property>
  <property name="meta.media.nb_streams">23</property>
  <property name="meta.media.0.stream.type">video</property>
  <property name="meta.media.0.stream.frame_rate">23.976</property>
  <property name="meta.media.0.stream.sample_aspect_ratio">1</property>
  <property name="meta.media.0.codec.width">1440</property>
  <property name="meta.media.0.codec.height">1080</property>
  <property name="meta.media.0.codec.rotate">0</property>
  <property name="meta.media.0.codec.pix_fmt">yuv420p10le</property>
  <property name="meta.media.0.codec.sample_aspect_ratio">1</property>
  <property name="meta.media.0.codec.colorspace">709</property>
  <property name="meta.media.0.codec.color_trc">1</property>
  <property name="meta.media.0.codec.name">hevc</property>
  <property name="meta.media.0.codec.long_name">HEVC (High Efficiency Video Coding)</property>
  <property name="meta.media.0.codec.bit_rate">0</property>
  <property name="meta.attr.0.stream.BPS-eng.markup">1927560</property>
  <property name="meta.attr.0.stream.DURATION-eng.markup">00:23:55.518000000</property>
  <property name="meta.attr.0.stream.NUMBER_OF_FRAMES-eng.markup">34418</property>
  <property name="meta.attr.0.stream.NUMBER_OF_BYTES-eng.markup">345881056</property>
  <property name="meta.attr.0.stream._STATISTICS_WRITING_APP-eng.markup">mkvmerge v52.0.0 ('Secret For The Mad') 64-bit</property>
  <property name="meta.attr.0.stream._STATISTICS_WRITING_DATE_UTC-eng.markup">2022-11-09 08:56:56</property>
  <property name="meta.attr.0.stream._STATISTICS_TAGS-eng.markup">BPS DURATION NUMBER_OF_FRAMES NUMBER_OF_BYTES</property>
  <property name="meta.media.1.stream.type">audio</property>
  <property name="meta.media.1.codec.sample_fmt">fltp</property>
  <property name="meta.media.1.codec.sample_rate">48000</property>
  <property name="meta.media.1.codec.channels">2</property>
  <property name="meta.media.1.codec.name">ac3</property>
  <property name="meta.media.1.codec.long_name">ATSC A/52A (AC-3)</property>
  <property name="meta.media.1.codec.bit_rate">448000</property>
  <property name="meta.attr.1.stream.language.markup">jpn</property>
  <property name="meta.attr.1.stream.title.markup">Japanese DVD AC-3 DD_2.0</property>
  <property name="meta.attr.1.stream.BPS-eng.markup">448000</property>
  <property name="meta.attr.1.stream.DURATION-eng.markup">00:23:55.552000000</property>
  <property name="meta.attr.1.stream.NUMBER_OF_FRAMES-eng.markup">44861</property>
  <property name="meta.attr.1.stream.NUMBER_OF_BYTES-eng.markup">80390912</property>
  <property name="meta.attr.1.stream._STATISTICS_WRITING_APP-eng.markup">mkvmerge v52.0.0 ('Secret For The Mad') 64-bit</property>
  <property name="meta.attr.1.stream._STATISTICS_WRITING_DATE_UTC-eng.markup">2022-11-09 08:56:56</property>
  <property name="meta.attr.1.stream._STATISTICS_TAGS-eng.markup">BPS DURATION NUMBER_OF_FRAMES NUMBER_OF_BYTES</property>
  <property name="meta.media.2.stream.type">audio</property>
  <property name="meta.media.2.codec.sample_fmt">fltp</property>
  <property name="meta.media.2.codec.sample_rate">44100</property>
  <property name="meta.media.2.codec.channels">2</property>
  <property name="meta.media.2.codec.name">aac</property>
  <property name="meta.media.2.codec.long_name">AAC (Advanced Audio Coding)</property>
  <property name="meta.media.2.codec.bit_rate">0</property>
  <property name="meta.attr.2.stream.language.markup">eng</property>
  <property name="meta.attr.2.stream.title.markup">English AAC DD_2.0</property>
  <property name="meta.attr.2.stream.BPS-eng.markup">134680</property>
  <property name="meta.attr.2.stream.DURATION-eng.markup">00:23:55.295000000</property>
  <property name="meta.attr.2.stream.NUMBER_OF_FRAMES-eng.markup">61813</property>
  <property name="meta.attr.2.stream.NUMBER_OF_BYTES-eng.markup">24163291</property>
  <property name="meta.attr.2.stream._STATISTICS_WRITING_APP-eng.markup">mkvmerge v52.0.0 ('Secret For The Mad') 64-bit</property>
  <property name="meta.attr.2.stream._STATISTICS_WRITING_DATE_UTC-eng.markup">2022-11-09 08:56:56</property>
  <property name="meta.attr.2.stream._STATISTICS_TAGS-eng.markup">BPS DURATION NUMBER_OF_FRAMES NUMBER_OF_BYTES</property>
  <property name="meta.media.3.codec.name">ssa</property>
  <property name="meta.media.3.codec.long_name">ASS (Advanced SubStation Alpha) subtitle</property>
  <property name="meta.media.3.codec.bit_rate">0</property>
  <property name="meta.attr.3.stream.language.markup">eng</property>
  <property name="meta.attr.3.stream.title.markup">English (Full) ASS</property>
  <property name="meta.attr.3.stream.BPS-eng.markup">79</property>
  <property name="meta.attr.3.stream.DURATION-eng.markup">00:23:51.650000000</property>
  <property name="meta.attr.3.stream.NUMBER_OF_FRAMES-eng.markup">246</property>
  <property name="meta.attr.3.stream.NUMBER_OF_BYTES-eng.markup">14158</property>
  <property name="meta.attr.3.stream._STATISTICS_WRITING_APP-eng.markup">mkvmerge v52.0.0 ('Secret For The Mad') 64-bit</property>
  <property name="meta.attr.3.stream._STATISTICS_WRITING_DATE_UTC-eng.markup">2022-11-09 08:56:56</property>
  <property name="meta.attr.3.stream._STATISTICS_TAGS-eng.markup">BPS DURATION NUMBER_OF_FRAMES NUMBER_OF_BYTES</property>
  <property name="meta.media.4.codec.name">ssa</property>
  <property name="meta.media.4.codec.long_name">ASS (Advanced SubStation Alpha) subtitle</property>
  <property name="meta.media.4.codec.bit_rate">0</property>
  <property name="meta.attr.4.stream.language.markup">eng</property>
  <property name="meta.attr.4.stream.title.markup">English (Titles &amp; Signs) ASS</property>
  <property name="meta.attr.4.stream.BPS-eng.markup">0</property>
  <property name="meta.attr.4.stream.DURATION-eng.markup">00:21:53.260000000</property>
  <property name="meta.attr.4.stream.NUMBER_OF_FRAMES-eng.markup">2</property>
  <property name="meta.attr.4.stream.NUMBER_OF_BYTES-eng.markup">120</property>
  <property name="meta.attr.4.stream._STATISTICS_WRITING_APP-eng.markup">mkvmerge v52.0.0 ('Secret For The Mad') 64-bit</property>
  <property name="meta.attr.4.stream._STATISTICS_WRITING_DATE_UTC-eng.markup">2022-11-09 08:56:56</property>
  <property name="meta.attr.4.stream._STATISTICS_TAGS-eng.markup">BPS DURATION NUMBER_OF_FRAMES NUMBER_OF_BYTES</property>
  <property name="meta.media.5.codec.name">ssa</property>
  <property name="meta.media.5.codec.long_name">ASS (Advanced SubStation Alpha) subtitle</property>
  <property name="meta.media.5.codec.bit_rate">0</property>
  <property name="meta.attr.5.stream.language.markup">ara</property>
  <property name="meta.attr.5.stream.title.markup">Arabic</property>
  <property name="meta.attr.5.stream.BPS-eng.markup">108</property>
  <property name="meta.attr.5.stream.DURATION-eng.markup">00:22:21.280000000</property>
  <property name="meta.attr.5.stream.NUMBER_OF_FRAMES-eng.markup">300</property>
  <property name="meta.attr.5.stream.NUMBER_OF_BYTES-eng.markup">18142</property>
  <property name="meta.attr.5.stream._STATISTICS_WRITING_APP-eng.markup">mkvmerge v52.0.0 ('Secret For The Mad') 64-bit</property>
  <property name="meta.attr.5.stream._STATISTICS_WRITING_DATE_UTC-eng.markup">2022-11-09 08:56:56</property>
  <property name="meta.attr.5.stream._STATISTICS_TAGS-eng.markup">BPS DURATION NUMBER_OF_FRAMES NUMBER_OF_BYTES</property>
  <property name="meta.attr.title.markup">Monster : Chapter 16 : Wolf's Confession</property>
  <property name="meta.attr.encoder.markup">libebml v1.4.1 + libmatroska v1.6.2</property>
  <property name="meta.attr.creation_time.markup">2022-11-09T08:56:56.000000Z</property>
  <property name="seekable">1</property>
  <property name="meta.media.sample_aspect_num">1</property>
  <property name="meta.media.sample_aspect_den">1</property>
  <property name="format">3</property>
  <property name="audio_index">1</property>
  <property name="video_index">0</property>
  <property name="warp_speed">1.5</property>
  <property name="warp_resource">/mnt/data1/Anime-Edits/Monster/Monster-Editing/Orig/Monster - Chapter 16 - Wolf's Confession.mkv</property>
  <property name="mlt_service">timewarp</property>
  <property name="set.test_audio">1</property>
  <property name="set.test_image">0</property>
  <property name="kdenlive:id">3</property>
  <property name="warp_pitch">0</property>
  <property name="meta.media.frame_rate_num">24000</property>
  <property name="meta.media.frame_rate_den">1001</property>
  <property name="meta.media.colorspace">709</property>
  <property name="meta.media.color_trc">1</property>
  <property name="meta.media.has_b_frames">2</property>
  <property name="meta.media.width">1440</property>
  <property name="meta.media.height">1080</property>
  <property name="meta.media.color_range">mpeg</property>
  <property name="meta.media.top_field_first">0</property>
  <property name="meta.media.progressive">1</property>
 </producer>
 <producer id="producer22" in="00:00:00.000" out="00:07:58.517">
  <property name="length">11473</property>
  <property name="eof">pause</property>
  <property name="resource">3:/mnt/data1/Anime-Edits/Monster/Monster-Editing/Orig/Monster - Chapter 16 - Wolf's Confession.mkv</property>
  <property name="aspect_ratio">1</property>
  <property name="meta.media.nb_streams">23</property>
  <property name="meta.media.0.stream.type">video</property>
  <property name="meta.media.0.stream.frame_rate">23.976</property>
  <property name="meta.media.0.stream.sample_aspect_ratio">1</property>
  <property name="meta.media.0.codec.width">1440</property>
  <property name="meta.media.0.codec.height">1080</property>
  <property name="meta.media.0.codec.rotate">0</property>
  <property name="meta.media.0.codec.pix_fmt">yuv420p10le</property>
  <property name="meta.media.0.codec.sample_aspect_ratio">1</property>
  <property name="meta.media.0.codec.colorspace">709</property>
  <property name="meta.media.0.codec.color_trc">1</property>
  <property name="meta.media.0.codec.name">hevc</property>
  <property name="meta.media.0.codec.long_name">HEVC (High Efficiency Video Coding)</property>
  <property name="meta.media.0.codec.bit_rate">0</property>
  <property name="meta.attr.0.stream.BPS-eng.markup">1927560</property>
  <property name="meta.attr.0.stream.DURATION-eng.markup">00:23:55.518000000</property>
  <property name="meta.attr.0.stream.NUMBER_OF_FRAMES-eng.markup">34418</property>
  <property name="meta.attr.0.stream.NUMBER_OF_BYTES-eng.markup">345881056</property>
  <property name="meta.attr.0.stream._STATISTICS_WRITING_APP-eng.markup">mkvmerge v52.0.0 ('Secret For The Mad') 64-bit</property>
  <property name="meta.attr.0.stream._STATISTICS_WRITING_DATE_UTC-eng.markup">2022-11-09 08:56:56</property>
  <property name="meta.attr.0.stream._STATISTICS_TAGS-eng.markup">BPS DURATION NUMBER_OF_FRAMES NUMBER_OF_BYTES</property>
  <property name="meta.media.1.stream.type">audio</property>
  <property name="meta.media.1.codec.sample_fmt">fltp</property>
  <property name="meta.media.1.codec.sample_rate">48000</property>
  <property name="meta.media.1.codec.channels">2</property>
  <property name="meta.media.1.codec.name">ac3</property>
  <property name="meta.media.1.codec.long_name">ATSC A/52A (AC-3)</property>
  <property name="meta.media.1.codec.bit_rate">448000</property>
  <property name="meta.attr.1.stream.language.markup">jpn</property>
  <property name="meta.attr.1.stream.title.markup">Japanese DVD AC-3 DD_2.0</property>
  <property name="meta.attr.1.stream.BPS-eng.markup">448000</property>
  <property name="meta.attr.1.stream.DURATION-eng.markup">00:23:55.552000000</property>
  <property name="meta.attr.1.stream.NUMBER_OF_FRAMES-eng.markup">44861</property>
  <property name="meta.attr.1.stream.NUMBER_OF_BYTES-eng.markup">80390912</property>
  <property name="meta.attr.1.stream._STATISTICS_WRITING_APP-eng.markup">mkvmerge v52.0.0 ('Secret For The Mad') 64-bit</property>
  <property name="meta.attr.1.stream._STATISTICS_WRITING_DATE_UTC-eng.markup">2022-11-09 08:56:56</property>
  <property name="meta.attr.1.stream._STATISTICS_TAGS-eng.markup">BPS DURATION NUMBER_OF_FRAMES NUMBER_OF_BYTES</property>
  <property name="meta.media.2.stream.type">audio</property>
  <property name="meta.media.2.codec.sample_fmt">fltp</property>
  <property name="meta.media.2.codec.sample_rate">44100</property>
  <property name="meta.media.2.codec.channels">2</property>
  <property name="meta.media.2.codec.name">aac</property>
  <property name="meta.media.2.codec.long_name">AAC (Advanced Audio Coding)</property>
  <property name="meta.media.2.codec.bit_rate">0</property>
  <property name="meta.attr.2.stream.language.markup">eng</property>
  <property name="meta.attr.2.stream.title.markup">English AAC DD_2.0</property>
  <property name="meta.attr.2.stream.BPS-eng.markup">134680</property>
  <property name="meta.attr.2.stream.DURATION-eng.markup">00:23:55.295000000</property>
  <property name="meta.attr.2.stream.NUMBER_OF_FRAMES-eng.markup">61813</property>
  <property name="meta.attr.2.stream.NUMBER_OF_BYTES-eng.markup">24163291</property>
  <property name="meta.attr.2.stream._STATISTICS_WRITING_APP-eng.markup">mkvmerge v52.0.0 ('Secret For The Mad') 64-bit</property>
  <property name="meta.attr.2.stream._STATISTICS_WRITING_DATE_UTC-eng.markup">2022-11-09 08:56:56</property>
  <property name="meta.attr.2.stream._STATISTICS_TAGS-eng.markup">BPS DURATION NUMBER_OF_FRAMES NUMBER_OF_BYTES</property>
  <property name="meta.media.3.codec.name">ssa</property>
  <property name="meta.media.3.codec.long_name">ASS (Advanced SubStation Alpha) subtitle</property>
  <property name="meta.media.3.codec.bit_rate">0</property>
  <property name="meta.attr.3.stream.language.markup">eng</property>
  <property name="meta.attr.3.stream.title.markup">English (Full) ASS</property>
  <property name="meta.attr.3.stream.BPS-eng.markup">79</property>
  <property name="meta.attr.3.stream.DURATION-eng.markup">00:23:51.650000000</property>
  <property name="meta.attr.3.stream.NUMBER_OF_FRAMES-eng.markup">246</property>
  <property name="meta.attr.3.stream.NUMBER_OF_BYTES-eng.markup">14158</property>
  <property name="meta.attr.3.stream._STATISTICS_WRITING_APP-eng.markup">mkvmerge v52.0.0 ('Secret For The Mad') 64-bit</property>
  <property name="meta.attr.3.stream._STATISTICS_WRITING_DATE_UTC-eng.markup">2022-11-09 08:56:56</property>
  <property name="meta.attr.3.stream._STATISTICS_TAGS-eng.markup">BPS DURATION NUMBER_OF_FRAMES NUMBER_OF_BYTES</property>
  <property name="meta.media.4.codec.name">ssa</property>
  <property name="meta.media.4.codec.long_name">ASS (Advanced SubStation Alpha) subtitle</property>
  <property name="meta.media.4.codec.bit_rate">0</property>
  <property name="meta.attr.4.stream.language.markup">eng</property>
  <property name="meta.attr.4.stream.title.markup">English (Titles &amp; Signs) ASS</property>
  <property name="meta.attr.4.stream.BPS-eng.markup">0</property>
  <property name="meta.attr.4.stream.DURATION-eng.markup">00:21:53.260000000</property>
  <property name="meta.attr.4.stream.NUMBER_OF_FRAMES-eng.markup">2</property>
  <property name="meta.attr.4.stream.NUMBER_OF_BYTES-eng.markup">120</property>
  <property name="meta.attr.4.stream._STATISTICS_WRITING_APP-eng.markup">mkvmerge v52.0.0 ('Secret For The Mad') 64-bit</property>
  <property name="meta.attr.4.stream._STATISTICS_WRITING_DATE_UTC-eng.markup">2022-11-09 08:56:56</property>
  <property name="meta.attr.4.stream._STATISTICS_TAGS-eng.markup">BPS DURATION NUMBER_OF_FRAMES NUMBER_OF_BYTES</property>
  <property name="meta.media.5.codec.name">ssa</property>
  <property name="meta.media.5.codec.long_name">ASS (Advanced SubStation Alpha) subtitle</property>
  <property name="meta.media.5.codec.bit_rate">0</property>
  <property name="meta.attr.5.stream.language.markup">ara</property>
  <property name="meta.attr.5.stream.title.markup">Arabic</property>
  <property name="meta.attr.5.stream.BPS-eng.markup">108</property>
  <property name="meta.attr.5.stream.DURATION-eng.markup">00:22:21.280000000</property>
  <property name="meta.attr.5.stream.NUMBER_OF_FRAMES-eng.markup">300</property>
  <property name="meta.attr.5.stream.NUMBER_OF_BYTES-eng.markup">18142</property>
  <property name="meta.attr.5.stream._STATISTICS_WRITING_APP-eng.markup">mkvmerge v52.0.0 ('Secret For The Mad') 64-bit</property>
  <property name="meta.attr.5.stream._STATISTICS_WRITING_DATE_UTC-eng.markup">2022-11-09 08:56:56</property>
  <property name="meta.attr.5.stream._STATISTICS_TAGS-eng.markup">BPS DURATION NUMBER_OF_FRAMES NUMBER_OF_BYTES</property>
  <property name="meta.attr.title.markup">Monster : Chapter 16 : Wolf's Confession</property>
  <property name="meta.attr.encoder.markup">libebml v1.4.1 + libmatroska v1.6.2</property>
  <property name="meta.attr.creation_time.markup">2022-11-09T08:56:56.000000Z</property>
  <property name="seekable">1</property>
  <property name="meta.media.sample_aspect_num">1</property>
  <property name="meta.media.sample_aspect_den">1</property>
  <property name="format">3</property>
  <property name="audio_index">1</property>
  <property name="video_index">0</property>
  <property name="warp_speed">3</property>
  <property name="warp_resource">/mnt/data1/Anime-Edits/Monster/Monster-Editing/Orig/Monster - Chapter 16 - Wolf's Confession.mkv</property>
  <property name="mlt_service">timewarp</property>
  <property name="set.test_audio">1</property>
  <property name="set.test_image">0</property>
  <property name="kdenlive:id">3</property>
  <property name="warp_pitch">0</property>
  <property name="meta.media.frame_rate_num">24000</property>
  <property name="meta.media.frame_rate_den">1001</property>
  <property name="meta.media.colorspace">709</property>
  <property name="meta.media.color_trc">1</property>
  <property name="meta.media.has_b_frames">2</property>
  <property name="meta.media.width">1440</property>
  <property name="meta.media.height">1080</property>
  <property name="meta.media.color_range">mpeg</property>
  <property name="meta.media.top_field_first">0</property>
  <property name="meta.media.progressive">1</property>
 </producer>
 <producer id="producer23" in="00:00:00.000" out="00:07:58.517">
  <property name="length">11473</property>
  <property name="eof">pause</property>
  <property name="resource">3:/mnt/data1/Anime-Edits/Monster/Monster-Editing/Orig/Monster - Chapter 16 - Wolf's Confession.mkv</property>
  <property name="aspect_ratio">1</property>
  <property name="meta.media.nb_streams">23</property>
  <property name="meta.media.0.stream.type">video</property>
  <property name="meta.media.0.stream.frame_rate">23.976</property>
  <property name="meta.media.0.stream.sample_aspect_ratio">1</property>
  <property name="meta.media.0.codec.width">1440</property>
  <property name="meta.media.0.codec.height">1080</property>
  <property name="meta.media.0.codec.rotate">0</property>
  <property name="meta.media.0.codec.pix_fmt">yuv420p10le</property>
  <property name="meta.media.0.codec.sample_aspect_ratio">1</property>
  <property name="meta.media.0.codec.colorspace">709</property>
  <property name="meta.media.0.codec.color_trc">1</property>
  <property name="meta.media.0.codec.name">hevc</property>
  <property name="meta.media.0.codec.long_name">HEVC (High Efficiency Video Coding)</property>
  <property name="meta.media.0.codec.bit_rate">0</property>
  <property name="meta.attr.0.stream.BPS-eng.markup">1927560</property>
  <property name="meta.attr.0.stream.DURATION-eng.markup">00:23:55.518000000</property>
  <property name="meta.attr.0.stream.NUMBER_OF_FRAMES-eng.markup">34418</property>
  <property name="meta.attr.0.stream.NUMBER_OF_BYTES-eng.markup">345881056</property>
  <property name="meta.attr.0.stream._STATISTICS_WRITING_APP-eng.markup">mkvmerge v52.0.0 ('Secret For The Mad') 64-bit</property>
  <property name="meta.attr.0.stream._STATISTICS_WRITING_DATE_UTC-eng.markup">2022-11-09 08:56:56</property>
  <property name="meta.attr.0.stream._STATISTICS_TAGS-eng.markup">BPS DURATION NUMBER_OF_FRAMES NUMBER_OF_BYTES</property>
  <property name="meta.media.1.stream.type">audio</property>
  <property name="meta.media.1.codec.sample_fmt">fltp</property>
  <property name="meta.media.1.codec.sample_rate">48000</property>
  <property name="meta.media.1.codec.channels">2</property>
  <property name="meta.media.1.codec.name">ac3</property>
  <property name="meta.media.1.codec.long_name">ATSC A/52A (AC-3)</property>
  <property name="meta.media.1.codec.bit_rate">448000</property>
  <property name="meta.attr.1.stream.language.markup">jpn</property>
  <property name="meta.attr.1.stream.title.markup">Japanese DVD AC-3 DD_2.0</property>
  <property name="meta.attr.1.stream.BPS-eng.markup">448000</property>
  <property name="meta.attr.1.stream.DURATION-eng.markup">00:23:55.552000000</property>
  <property name="meta.attr.1.stream.NUMBER_OF_FRAMES-eng.markup">44861</property>
  <property name="meta.attr.1.stream.NUMBER_OF_BYTES-eng.markup">80390912</property>
  <property name="meta.attr.1.stream._STATISTICS_WRITING_APP-eng.markup">mkvmerge v52.0.0 ('Secret For The Mad') 64-bit</property>
  <property name="meta.attr.1.stream._STATISTICS_WRITING_DATE_UTC-eng.markup">2022-11-09 08:56:56</property>
  <property name="meta.attr.1.stream._STATISTICS_TAGS-eng.markup">BPS DURATION NUMBER_OF_FRAMES NUMBER_OF_BYTES</property>
  <property name="meta.media.2.stream.type">audio</property>
  <property name="meta.media.2.codec.sample_fmt">fltp</property>
  <property name="meta.media.2.codec.sample_rate">44100</property>
  <property name="meta.media.2.codec.channels">2</property>
  <property name="meta.media.2.codec.name">aac</property>
  <property name="meta.media.2.codec.long_name">AAC (Advanced Audio Coding)</property>
  <property name="meta.media.2.codec.bit_rate">0</property>
  <property name="meta.attr.2.stream.language.markup">eng</property>
  <property name="meta.attr.2.stream.title.markup">English AAC DD_2.0</property>
  <property name="meta.attr.2.stream.BPS-eng.markup">134680</property>
  <property name="meta.attr.2.stream.DURATION-eng.markup">00:23:55.295000000</property>
  <property name="meta.attr.2.stream.NUMBER_OF_FRAMES-eng.markup">61813</property>
  <property name="meta.attr.2.stream.NUMBER_OF_BYTES-eng.markup">24163291</property>
  <property name="meta.attr.2.stream._STATISTICS_WRITING_APP-eng.markup">mkvmerge v52.0.0 ('Secret For The Mad') 64-bit</property>
  <property name="meta.attr.2.stream._STATISTICS_WRITING_DATE_UTC-eng.markup">2022-11-09 08:56:56</property>
  <property name="meta.attr.2.stream._STATISTICS_TAGS-eng.markup">BPS DURATION NUMBER_OF_FRAMES NUMBER_OF_BYTES</property>
  <property name="meta.media.3.codec.name">ssa</property>
  <property name="meta.media.3.codec.long_name">ASS (Advanced SubStation Alpha) subtitle</property>
  <property name="meta.media.3.codec.bit_rate">0</property>
  <property name="meta.attr.3.stream.language.markup">eng</property>
  <property name="meta.attr.3.stream.title.markup">English (Full) ASS</property>
  <property name="meta.attr.3.stream.BPS-eng.markup">79</property>
  <property name="meta.attr.3.stream.DURATION-eng.markup">00:23:51.650000000</property>
  <property name="meta.attr.3.stream.NUMBER_OF_FRAMES-eng.markup">246</property>
  <property name="meta.attr.3.stream.NUMBER_OF_BYTES-eng.markup">14158</property>
  <property name="meta.attr.3.stream._STATISTICS_WRITING_APP-eng.markup">mkvmerge v52.0.0 ('Secret For The Mad') 64-bit</property>
  <property name="meta.attr.3.stream._STATISTICS_WRITING_DATE_UTC-eng.markup">2022-11-09 08:56:56</property>
  <property name="meta.attr.3.stream._STATISTICS_TAGS-eng.markup">BPS DURATION NUMBER_OF_FRAMES NUMBER_OF_BYTES</property>
  <property name="meta.media.4.codec.name">ssa</property>
  <property name="meta.media.4.codec.long_name">ASS (Advanced SubStation Alpha) subtitle</property>
  <property name="meta.media.4.codec.bit_rate">0</property>
  <property name="meta.attr.4.stream.language.markup">eng</property>
  <property name="meta.attr.4.stream.title.markup">English (Titles &amp; Signs) ASS</property>
  <property name="meta.attr.4.stream.BPS-eng.markup">0</property>
  <property name="meta.attr.4.stream.DURATION-eng.markup">00:21:53.260000000</property>
  <property name="meta.attr.4.stream.NUMBER_OF_FRAMES-eng.markup">2</property>
  <property name="meta.attr.4.stream.NUMBER_OF_BYTES-eng.markup">120</property>
  <property name="meta.attr.4.stream._STATISTICS_WRITING_APP-eng.markup">mkvmerge v52.0.0 ('Secret For The Mad') 64-bit</property>
  <property name="meta.attr.4.stream._STATISTICS_WRITING_DATE_UTC-eng.markup">2022-11-09 08:56:56</property>
  <property name="meta.attr.4.stream._STATISTICS_TAGS-eng.markup">BPS DURATION NUMBER_OF_FRAMES NUMBER_OF_BYTES</property>
  <property name="meta.media.5.codec.name">ssa</property>
  <property name="meta.media.5.codec.long_name">ASS (Advanced SubStation Alpha) subtitle</property>
  <property name="meta.media.5.codec.bit_rate">0</property>
  <property name="meta.attr.5.stream.language.markup">ara</property>
  <property name="meta.attr.5.stream.title.markup">Arabic</property>
  <property name="meta.attr.5.stream.BPS-eng.markup">108</property>
  <property name="meta.attr.5.stream.DURATION-eng.markup">00:22:21.280000000</property>
  <property name="meta.attr.5.stream.NUMBER_OF_FRAMES-eng.markup">300</property>
  <property name="meta.attr.5.stream.NUMBER_OF_BYTES-eng.markup">18142</property>
  <property name="meta.attr.5.stream._STATISTICS_WRITING_APP-eng.markup">mkvmerge v52.0.0 ('Secret For The Mad') 64-bit</property>
  <property name="meta.attr.5.stream._STATISTICS_WRITING_DATE_UTC-eng.markup">2022-11-09 08:56:56</property>
  <property name="meta.attr.5.stream._STATISTICS_TAGS-eng.markup">BPS DURATION NUMBER_OF_FRAMES NUMBER_OF_BYTES</property>
  <property name="meta.attr.title.markup">Monster : Chapter 16 : Wolf's Confession</property>
  <property name="meta.attr.encoder.markup">libebml v1.4.1 + libmatroska v1.6.2</property>
  <property name="meta.attr.creation_time.markup">2022-11-09T08:56:56.000000Z</property>
  <property name="seekable">1</property>
  <property name="meta.media.sample_aspect_num">1</property>
  <property name="meta.media.sample_aspect_den">1</property>
  <property name="format">3</property>
  <property name="audio_index">1</property>
  <property name="video_index">0</property>
  <property name="warp_speed">3</property>
  <property name="warp_resource">/mnt/data1/Anime-Edits/Monster/Monster-Editing/Orig/Monster - Chapter 16 - Wolf's Confession.mkv</property>
  <property name="mlt_service">timewarp</property>
  <property name="set.test_audio">1</property>
  <property name="set.test_image">0</property>
  <property name="kdenlive:id">3</property>
  <property name="warp_pitch">0</property>
  <property name="meta.media.frame_rate_num">24000</property>
  <property name="meta.media.frame_rate_den">1001</property>
  <property name="meta.media.colorspace">709</property>
  <property name="meta.media.color_trc">1</property>
  <property name="meta.media.has_b_frames">2</property>
  <property name="meta.media.width">1440</property>
  <property name="meta.media.height">1080</property>
  <property name="meta.media.color_range">mpeg</property>
  <property name="meta.media.top_field_first">0</property>
  <property name="meta.media.progressive">1</property>
 </producer>
 <chain id="producer24" out="00:23:55.514">
  <property name="length">34418</property>
  <property name="eof">pause</property>
  <property name="resource">/mnt/data1/Anime-Edits/Monster/Monster-Editing/Orig/Monster - Chapter 17 - Reunion.mkv</property>
  <property name="mlt_service">avformat-novalidate</property>
  <property name="audio_index">1</property>
  <property name="video_index">0</property>
  <property name="meta.media.nb_streams">23</property>
  <property name="meta.media.0.stream.type">video</property>
  <property name="meta.media.0.stream.frame_rate">23.976</property>
  <property name="meta.media.0.stream.sample_aspect_ratio">1</property>
  <property name="meta.media.0.codec.width">1440</property>
  <property name="meta.media.0.codec.height">1080</property>
  <property name="meta.media.0.codec.rotate">0</property>
  <property name="meta.media.0.codec.pix_fmt">yuv420p10le</property>
  <property name="meta.media.0.codec.sample_aspect_ratio">1</property>
  <property name="meta.media.0.codec.colorspace">709</property>
  <property name="meta.media.0.codec.color_trc">1</property>
  <property name="meta.media.0.codec.name">hevc</property>
  <property name="meta.media.0.codec.long_name">HEVC (High Efficiency Video Coding)</property>
  <property name="meta.media.0.codec.bit_rate">0</property>
  <property name="meta.attr.0.stream.BPS-eng.markup">1815816</property>
  <property name="meta.attr.0.stream.DURATION-eng.markup">00:23:55.518000000</property>
  <property name="meta.attr.0.stream.NUMBER_OF_FRAMES-eng.markup">34418</property>
  <property name="meta.attr.0.stream.NUMBER_OF_BYTES-eng.markup">325829715</property>
  <property name="meta.attr.0.stream._STATISTICS_WRITING_APP-eng.markup">mkvmerge v52.0.0 ('Secret For The Mad') 64-bit</property>
  <property name="meta.attr.0.stream._STATISTICS_WRITING_DATE_UTC-eng.markup">2022-11-09 08:57:37</property>
  <property name="meta.attr.0.stream._STATISTICS_TAGS-eng.markup">BPS DURATION NUMBER_OF_FRAMES NUMBER_OF_BYTES</property>
  <property name="meta.media.1.stream.type">audio</property>
  <property name="meta.media.1.codec.sample_fmt">fltp</property>
  <property name="meta.media.1.codec.sample_rate">48000</property>
  <property name="meta.media.1.codec.channels">2</property>
  <property name="meta.media.1.codec.name">ac3</property>
  <property name="meta.media.1.codec.long_name">ATSC A/52A (AC-3)</property>
  <property name="meta.media.1.codec.bit_rate">448000</property>
  <property name="meta.attr.1.stream.language.markup">jpn</property>
  <property name="meta.attr.1.stream.title.markup">Japanese DVD AC-3 DD_2.0</property>
  <property name="meta.attr.1.stream.BPS-eng.markup">448000</property>
  <property name="meta.attr.1.stream.DURATION-eng.markup">00:23:55.520000000</property>
  <property name="meta.attr.1.stream.NUMBER_OF_FRAMES-eng.markup">44860</property>
  <property name="meta.attr.1.stream.NUMBER_OF_BYTES-eng.markup">80389120</property>
  <property name="meta.attr.1.stream._STATISTICS_WRITING_APP-eng.markup">mkvmerge v52.0.0 ('Secret For The Mad') 64-bit</property>
  <property name="meta.attr.1.stream._STATISTICS_WRITING_DATE_UTC-eng.markup">2022-11-09 08:57:37</property>
  <property name="meta.attr.1.stream._STATISTICS_TAGS-eng.markup">BPS DURATION NUMBER_OF_FRAMES NUMBER_OF_BYTES</property>
  <property name="meta.media.2.stream.type">audio</property>
  <property name="meta.media.2.codec.sample_fmt">fltp</property>
  <property name="meta.media.2.codec.sample_rate">44100</property>
  <property name="meta.media.2.codec.channels">2</property>
  <property name="meta.media.2.codec.name">aac</property>
  <property name="meta.media.2.codec.long_name">AAC (Advanced Audio Coding)</property>
  <property name="meta.media.2.codec.bit_rate">0</property>
  <property name="meta.attr.2.stream.language.markup">eng</property>
  <property name="meta.attr.2.stream.title.markup">English AAC DD_2.0</property>
  <property name="meta.attr.2.stream.BPS-eng.markup">141066</property>
  <property name="meta.attr.2.stream.DURATION-eng.markup">00:23:55.435000000</property>
  <property name="meta.attr.2.stream.NUMBER_OF_FRAMES-eng.markup">61819</property>
  <property name="meta.attr.2.stream.NUMBER_OF_BYTES-eng.markup">25311493</property>
  <property name="meta.attr.2.stream._STATISTICS_WRITING_APP-eng.markup">mkvmerge v52.0.0 ('Secret For The Mad') 64-bit</property>
  <property name="meta.attr.2.stream._STATISTICS_WRITING_DATE_UTC-eng.markup">2022-11-09 08:57:37</property>
  <property name="meta.attr.2.stream._STATISTICS_TAGS-eng.markup">BPS DURATION NUMBER_OF_FRAMES NUMBER_OF_BYTES</property>
  <property name="meta.media.3.codec.name">ssa</property>
  <property name="meta.media.3.codec.long_name">ASS (Advanced SubStation Alpha) subtitle</property>
  <property name="meta.media.3.codec.bit_rate">0</property>
  <property name="meta.attr.3.stream.language.markup">eng</property>
  <property name="meta.attr.3.stream.title.markup">English (Full) ASS</property>
  <property name="meta.attr.3.stream.BPS-eng.markup">94</property>
  <property name="meta.attr.3.stream.DURATION-eng.markup">00:23:38.620000000</property>
  <property name="meta.attr.3.stream.NUMBER_OF_FRAMES-eng.markup">304</property>
  <property name="meta.attr.3.stream.NUMBER_OF_BYTES-eng.markup">16798</property>
  <property name="meta.attr.3.stream._STATISTICS_WRITING_APP-eng.markup">mkvmerge v52.0.0 ('Secret For The Mad') 64-bit</property>
  <property name="meta.attr.3.stream._STATISTICS_WRITING_DATE_UTC-eng.markup">2022-11-09 08:57:37</property>
  <property name="meta.attr.3.stream._STATISTICS_TAGS-eng.markup">BPS DURATION NUMBER_OF_FRAMES NUMBER_OF_BYTES</property>
  <property name="meta.media.4.codec.name">ssa</property>
  <property name="meta.media.4.codec.long_name">ASS (Advanced SubStation Alpha) subtitle</property>
  <property name="meta.media.4.codec.bit_rate">0</property>
  <property name="meta.attr.4.stream.language.markup">eng</property>
  <property name="meta.attr.4.stream.title.markup">English (Titles &amp; Signs) ASS</property>
  <property name="meta.attr.4.stream.BPS-eng.markup">0</property>
  <property name="meta.attr.4.stream.DURATION-eng.markup">00:21:21.740000000</property>
  <property name="meta.attr.4.stream.NUMBER_OF_FRAMES-eng.markup">2</property>
  <property name="meta.attr.4.stream.NUMBER_OF_BYTES-eng.markup">125</property>
  <property name="meta.attr.4.stream._STATISTICS_WRITING_APP-eng.markup">mkvmerge v52.0.0 ('Secret For The Mad') 64-bit</property>
  <property name="meta.attr.4.stream._STATISTICS_WRITING_DATE_UTC-eng.markup">2022-11-09 08:57:37</property>
  <property name="meta.attr.4.stream._STATISTICS_TAGS-eng.markup">BPS DURATION NUMBER_OF_FRAMES NUMBER_OF_BYTES</property>
  <property name="meta.media.5.codec.name">ssa</property>
  <property name="meta.media.5.codec.long_name">ASS (Advanced SubStation Alpha) subtitle</property>
  <property name="meta.media.5.codec.bit_rate">0</property>
  <property name="meta.attr.5.stream.language.markup">ara</property>
  <property name="meta.attr.5.stream.title.markup">Arabic</property>
  <property name="meta.attr.5.stream.BPS-eng.markup">125</property>
  <property name="meta.attr.5.stream.DURATION-eng.markup">00:22:11.080000000</property>
  <property name="meta.attr.5.stream.NUMBER_OF_FRAMES-eng.markup">362</property>
  <property name="meta.attr.5.stream.NUMBER_OF_BYTES-eng.markup">20869</property>
  <property name="meta.attr.5.stream._STATISTICS_WRITING_APP-eng.markup">mkvmerge v52.0.0 ('Secret For The Mad') 64-bit</property>
  <property name="meta.attr.5.stream._STATISTICS_WRITING_DATE_UTC-eng.markup">2022-11-09 08:57:37</property>
  <property name="meta.attr.5.stream._STATISTICS_TAGS-eng.markup">BPS DURATION NUMBER_OF_FRAMES NUMBER_OF_BYTES</property>
  <property name="meta.attr.title.markup">Monster : Chapter 17 : Reunion</property>
  <property name="meta.attr.encoder.markup">libebml v1.4.1 + libmatroska v1.6.2</property>
  <property name="meta.attr.creation_time.markup">2022-11-09T08:57:37.000000Z</property>
  <property name="seekable">1</property>
  <property name="meta.media.sample_aspect_num">1</property>
  <property name="meta.media.sample_aspect_den">1</property>
  <property name="aspect_ratio">1</property>
  <property name="format">3</property>
  <property name="kdenlive:clipname"/>
  <property name="kdenlive:clip_type">0</property>
  <property name="kdenlive:folderid">-1</property>
  <property name="kdenlive:id">4</property>
  <property name="kdenlive:active_streams">1;2</property>
  <property name="kdenlive:file_size">434452861</property>
  <property name="kdenlive:file_hash">0f152e6813adc63a91f8c38e71ab3613</property>
  <property name="kdenlive:audio_max1">180</property>
  <property name="kdenlive:audio_max2">202</property>
  <property name="xml">was here</property>
  <property name="meta.media.frame_rate_num">24000</property>
  <property name="meta.media.frame_rate_den">1001</property>
  <property name="meta.media.colorspace">709</property>
  <property name="meta.media.color_trc">1</property>
  <property name="meta.media.has_b_frames">2</property>
  <property name="meta.media.width">1440</property>
  <property name="meta.media.height">1080</property>
  <property name="meta.media.color_range">mpeg</property>
  <property name="meta.media.top_field_first">0</property>
  <property name="meta.media.progressive">1</property>
  <property name="set.test_audio">1</property>
  <property name="set.test_image">0</property>
  <property name="vstream">0</property>
  <property name="astream">0</property>
 </chain>
 <producer id="producer25" in="00:00:00.000" out="00:11:57.724">
  <property name="length">17209</property>
  <property name="eof">pause</property>
  <property name="resource">2.000000:/mnt/data1/Anime-Edits/Monster/Monster-Editing/Orig/Monster - Chapter 17 - Reunion.mkv</property>
  <property name="aspect_ratio">1</property>
  <property name="meta.media.nb_streams">23</property>
  <property name="meta.media.0.stream.type">video</property>
  <property name="meta.media.0.stream.frame_rate">23.976</property>
  <property name="meta.media.0.stream.sample_aspect_ratio">1</property>
  <property name="meta.media.0.codec.width">1440</property>
  <property name="meta.media.0.codec.height">1080</property>
  <property name="meta.media.0.codec.rotate">0</property>
  <property name="meta.media.0.codec.pix_fmt">yuv420p10le</property>
  <property name="meta.media.0.codec.sample_aspect_ratio">1</property>
  <property name="meta.media.0.codec.colorspace">709</property>
  <property name="meta.media.0.codec.color_trc">1</property>
  <property name="meta.media.0.codec.name">hevc</property>
  <property name="meta.media.0.codec.long_name">HEVC (High Efficiency Video Coding)</property>
  <property name="meta.media.0.codec.bit_rate">0</property>
  <property name="meta.attr.0.stream.BPS-eng.markup">1815816</property>
  <property name="meta.attr.0.stream.DURATION-eng.markup">00:23:55.518000000</property>
  <property name="meta.attr.0.stream.NUMBER_OF_FRAMES-eng.markup">34418</property>
  <property name="meta.attr.0.stream.NUMBER_OF_BYTES-eng.markup">325829715</property>
  <property name="meta.attr.0.stream._STATISTICS_WRITING_APP-eng.markup">mkvmerge v52.0.0 ('Secret For The Mad') 64-bit</property>
  <property name="meta.attr.0.stream._STATISTICS_WRITING_DATE_UTC-eng.markup">2022-11-09 08:57:37</property>
  <property name="meta.attr.0.stream._STATISTICS_TAGS-eng.markup">BPS DURATION NUMBER_OF_FRAMES NUMBER_OF_BYTES</property>
  <property name="meta.media.1.stream.type">audio</property>
  <property name="meta.media.1.codec.sample_fmt">fltp</property>
  <property name="meta.media.1.codec.sample_rate">48000</property>
  <property name="meta.media.1.codec.channels">2</property>
  <property name="meta.media.1.codec.name">ac3</property>
  <property name="meta.media.1.codec.long_name">ATSC A/52A (AC-3)</property>
  <property name="meta.media.1.codec.bit_rate">448000</property>
  <property name="meta.attr.1.stream.language.markup">jpn</property>
  <property name="meta.attr.1.stream.title.markup">Japanese DVD AC-3 DD_2.0</property>
  <property name="meta.attr.1.stream.BPS-eng.markup">448000</property>
  <property name="meta.attr.1.stream.DURATION-eng.markup">00:23:55.520000000</property>
  <property name="meta.attr.1.stream.NUMBER_OF_FRAMES-eng.markup">44860</property>
  <property name="meta.attr.1.stream.NUMBER_OF_BYTES-eng.markup">80389120</property>
  <property name="meta.attr.1.stream._STATISTICS_WRITING_APP-eng.markup">mkvmerge v52.0.0 ('Secret For The Mad') 64-bit</property>
  <property name="meta.attr.1.stream._STATISTICS_WRITING_DATE_UTC-eng.markup">2022-11-09 08:57:37</property>
  <property name="meta.attr.1.stream._STATISTICS_TAGS-eng.markup">BPS DURATION NUMBER_OF_FRAMES NUMBER_OF_BYTES</property>
  <property name="meta.media.2.stream.type">audio</property>
  <property name="meta.media.2.codec.sample_fmt">fltp</property>
  <property name="meta.media.2.codec.sample_rate">44100</property>
  <property name="meta.media.2.codec.channels">2</property>
  <property name="meta.media.2.codec.name">aac</property>
  <property name="meta.media.2.codec.long_name">AAC (Advanced Audio Coding)</property>
  <property name="meta.media.2.codec.bit_rate">0</property>
  <property name="meta.attr.2.stream.language.markup">eng</property>
  <property name="meta.attr.2.stream.title.markup">English AAC DD_2.0</property>
  <property name="meta.attr.2.stream.BPS-eng.markup">141066</property>
  <property name="meta.attr.2.stream.DURATION-eng.markup">00:23:55.435000000</property>
  <property name="meta.attr.2.stream.NUMBER_OF_FRAMES-eng.markup">61819</property>
  <property name="meta.attr.2.stream.NUMBER_OF_BYTES-eng.markup">25311493</property>
  <property name="meta.attr.2.stream._STATISTICS_WRITING_APP-eng.markup">mkvmerge v52.0.0 ('Secret For The Mad') 64-bit</property>
  <property name="meta.attr.2.stream._STATISTICS_WRITING_DATE_UTC-eng.markup">2022-11-09 08:57:37</property>
  <property name="meta.attr.2.stream._STATISTICS_TAGS-eng.markup">BPS DURATION NUMBER_OF_FRAMES NUMBER_OF_BYTES</property>
  <property name="meta.media.3.codec.name">ssa</property>
  <property name="meta.media.3.codec.long_name">ASS (Advanced SubStation Alpha) subtitle</property>
  <property name="meta.media.3.codec.bit_rate">0</property>
  <property name="meta.attr.3.stream.language.markup">eng</property>
  <property name="meta.attr.3.stream.title.markup">English (Full) ASS</property>
  <property name="meta.attr.3.stream.BPS-eng.markup">94</property>
  <property name="meta.attr.3.stream.DURATION-eng.markup">00:23:38.620000000</property>
  <property name="meta.attr.3.stream.NUMBER_OF_FRAMES-eng.markup">304</property>
  <property name="meta.attr.3.stream.NUMBER_OF_BYTES-eng.markup">16798</property>
  <property name="meta.attr.3.stream._STATISTICS_WRITING_APP-eng.markup">mkvmerge v52.0.0 ('Secret For The Mad') 64-bit</property>
  <property name="meta.attr.3.stream._STATISTICS_WRITING_DATE_UTC-eng.markup">2022-11-09 08:57:37</property>
  <property name="meta.attr.3.stream._STATISTICS_TAGS-eng.markup">BPS DURATION NUMBER_OF_FRAMES NUMBER_OF_BYTES</property>
  <property name="meta.media.4.codec.name">ssa</property>
  <property name="meta.media.4.codec.long_name">ASS (Advanced SubStation Alpha) subtitle</property>
  <property name="meta.media.4.codec.bit_rate">0</property>
  <property name="meta.attr.4.stream.language.markup">eng</property>
  <property name="meta.attr.4.stream.title.markup">English (Titles &amp; Signs) ASS</property>
  <property name="meta.attr.4.stream.BPS-eng.markup">0</property>
  <property name="meta.attr.4.stream.DURATION-eng.markup">00:21:21.740000000</property>
  <property name="meta.attr.4.stream.NUMBER_OF_FRAMES-eng.markup">2</property>
  <property name="meta.attr.4.stream.NUMBER_OF_BYTES-eng.markup">125</property>
  <property name="meta.attr.4.stream._STATISTICS_WRITING_APP-eng.markup">mkvmerge v52.0.0 ('Secret For The Mad') 64-bit</property>
  <property name="meta.attr.4.stream._STATISTICS_WRITING_DATE_UTC-eng.markup">2022-11-09 08:57:37</property>
  <property name="meta.attr.4.stream._STATISTICS_TAGS-eng.markup">BPS DURATION NUMBER_OF_FRAMES NUMBER_OF_BYTES</property>
  <property name="meta.media.5.codec.name">ssa</property>
  <property name="meta.media.5.codec.long_name">ASS (Advanced SubStation Alpha) subtitle</property>
  <property name="meta.media.5.codec.bit_rate">0</property>
  <property name="meta.attr.5.stream.language.markup">ara</property>
  <property name="meta.attr.5.stream.title.markup">Arabic</property>
  <property name="meta.attr.5.stream.BPS-eng.markup">125</property>
  <property name="meta.attr.5.stream.DURATION-eng.markup">00:22:11.080000000</property>
  <property name="meta.attr.5.stream.NUMBER_OF_FRAMES-eng.markup">362</property>
  <property name="meta.attr.5.stream.NUMBER_OF_BYTES-eng.markup">20869</property>
  <property name="meta.attr.5.stream._STATISTICS_WRITING_APP-eng.markup">mkvmerge v52.0.0 ('Secret For The Mad') 64-bit</property>
  <property name="meta.attr.5.stream._STATISTICS_WRITING_DATE_UTC-eng.markup">2022-11-09 08:57:37</property>
  <property name="meta.attr.5.stream._STATISTICS_TAGS-eng.markup">BPS DURATION NUMBER_OF_FRAMES NUMBER_OF_BYTES</property>
  <property name="meta.attr.title.markup">Monster : Chapter 17 : Reunion</property>
  <property name="meta.attr.encoder.markup">libebml v1.4.1 + libmatroska v1.6.2</property>
  <property name="meta.attr.creation_time.markup">2022-11-09T08:57:37.000000Z</property>
  <property name="seekable">1</property>
  <property name="meta.media.sample_aspect_num">1</property>
  <property name="meta.media.sample_aspect_den">1</property>
  <property name="format">3</property>
  <property name="audio_index">1</property>
  <property name="video_index">0</property>
  <property name="warp_speed">2</property>
  <property name="warp_resource">/mnt/data1/Anime-Edits/Monster/Monster-Editing/Orig/Monster - Chapter 17 - Reunion.mkv</property>
  <property name="mlt_service">timewarp</property>
  <property name="astream">0</property>
  <property name="set.test_audio">1</property>
  <property name="set.test_image">0</property>
  <property name="kdenlive:id">4</property>
  <property name="warp_pitch">0</property>
  <property name="vstream">0</property>
  <property name="meta.media.frame_rate_num">24000</property>
  <property name="meta.media.frame_rate_den">1001</property>
  <property name="meta.media.colorspace">709</property>
  <property name="meta.media.color_trc">1</property>
  <property name="meta.media.has_b_frames">2</property>
  <property name="meta.media.width">1440</property>
  <property name="meta.media.height">1080</property>
  <property name="meta.media.color_range">mpeg</property>
  <property name="meta.media.top_field_first">0</property>
  <property name="meta.media.progressive">1</property>
 </producer>
 <chain id="chain5" out="00:23:55.472">
  <property name="length">34417</property>
  <property name="eof">pause</property>
  <property name="resource">/mnt/data1/Anime-Edits/Monster/Monster-Editing/Orig/Monster - Chapter 18 - The Fifth Spoonful Of Sugar.mkv</property>
  <property name="mlt_service">avformat-novalidate</property>
  <property name="audio_index">1</property>
  <property name="video_index">0</property>
  <property name="meta.media.nb_streams">23</property>
  <property name="meta.media.0.stream.type">video</property>
  <property name="meta.media.0.stream.frame_rate">23.976</property>
  <property name="meta.media.0.stream.sample_aspect_ratio">1</property>
  <property name="meta.media.0.codec.width">1440</property>
  <property name="meta.media.0.codec.height">1080</property>
  <property name="meta.media.0.codec.rotate">0</property>
  <property name="meta.media.0.codec.pix_fmt">yuv420p10le</property>
  <property name="meta.media.0.codec.sample_aspect_ratio">1</property>
  <property name="meta.media.0.codec.colorspace">709</property>
  <property name="meta.media.0.codec.color_trc">1</property>
  <property name="meta.media.0.codec.name">hevc</property>
  <property name="meta.media.0.codec.long_name">HEVC (High Efficiency Video Coding)</property>
  <property name="meta.media.0.codec.bit_rate">0</property>
  <property name="meta.attr.0.stream.BPS-eng.markup">1872489</property>
  <property name="meta.attr.0.stream.DURATION-eng.markup">00:23:55.434000000</property>
  <property name="meta.attr.0.stream.NUMBER_OF_FRAMES-eng.markup">34416</property>
  <property name="meta.attr.0.stream.NUMBER_OF_BYTES-eng.markup">335979397</property>
  <property name="meta.attr.0.stream._STATISTICS_WRITING_APP-eng.markup">mkvmerge v52.0.0 ('Secret For The Mad') 64-bit</property>
  <property name="meta.attr.0.stream._STATISTICS_WRITING_DATE_UTC-eng.markup">2022-11-09 08:58:24</property>
  <property name="meta.attr.0.stream._STATISTICS_TAGS-eng.markup">BPS DURATION NUMBER_OF_FRAMES NUMBER_OF_BYTES</property>
  <property name="meta.media.1.stream.type">audio</property>
  <property name="meta.media.1.codec.sample_fmt">fltp</property>
  <property name="meta.media.1.codec.sample_rate">48000</property>
  <property name="meta.media.1.codec.channels">2</property>
  <property name="meta.media.1.codec.name">ac3</property>
  <property name="meta.media.1.codec.long_name">ATSC A/52A (AC-3)</property>
  <property name="meta.media.1.codec.bit_rate">448000</property>
  <property name="meta.attr.1.stream.language.markup">jpn</property>
  <property name="meta.attr.1.stream.title.markup">Japanese DVD AC-3 DD_2.0</property>
  <property name="meta.attr.1.stream.BPS-eng.markup">448000</property>
  <property name="meta.attr.1.stream.DURATION-eng.markup">00:23:55.488000000</property>
  <property name="meta.attr.1.stream.NUMBER_OF_FRAMES-eng.markup">44859</property>
  <property name="meta.attr.1.stream.NUMBER_OF_BYTES-eng.markup">80387328</property>
  <property name="meta.attr.1.stream._STATISTICS_WRITING_APP-eng.markup">mkvmerge v52.0.0 ('Secret For The Mad') 64-bit</property>
  <property name="meta.attr.1.stream._STATISTICS_WRITING_DATE_UTC-eng.markup">2022-11-09 08:58:24</property>
  <property name="meta.attr.1.stream._STATISTICS_TAGS-eng.markup">BPS DURATION NUMBER_OF_FRAMES NUMBER_OF_BYTES</property>
  <property name="meta.media.2.stream.type">audio</property>
  <property name="meta.media.2.codec.sample_fmt">fltp</property>
  <property name="meta.media.2.codec.sample_rate">44100</property>
  <property name="meta.media.2.codec.channels">2</property>
  <property name="meta.media.2.codec.name">aac</property>
  <property name="meta.media.2.codec.long_name">AAC (Advanced Audio Coding)</property>
  <property name="meta.media.2.codec.bit_rate">0</property>
  <property name="meta.attr.2.stream.language.markup">eng</property>
  <property name="meta.attr.2.stream.title.markup">English AAC DD_2.0</property>
  <property name="meta.attr.2.stream.BPS-eng.markup">142539</property>
  <property name="meta.attr.2.stream.DURATION-eng.markup">00:23:55.202000000</property>
  <property name="meta.attr.2.stream.NUMBER_OF_FRAMES-eng.markup">61809</property>
  <property name="meta.attr.2.stream.NUMBER_OF_BYTES-eng.markup">25571616</property>
  <property name="meta.attr.2.stream._STATISTICS_WRITING_APP-eng.markup">mkvmerge v52.0.0 ('Secret For The Mad') 64-bit</property>
  <property name="meta.attr.2.stream._STATISTICS_WRITING_DATE_UTC-eng.markup">2022-11-09 08:58:24</property>
  <property name="meta.attr.2.stream._STATISTICS_TAGS-eng.markup">BPS DURATION NUMBER_OF_FRAMES NUMBER_OF_BYTES</property>
  <property name="meta.media.3.codec.name">ssa</property>
  <property name="meta.media.3.codec.long_name">ASS (Advanced SubStation Alpha) subtitle</property>
  <property name="meta.media.3.codec.bit_rate">0</property>
  <property name="meta.attr.3.stream.language.markup">eng</property>
  <property name="meta.attr.3.stream.title.markup">English (Full) ASS</property>
  <property name="meta.attr.3.stream.BPS-eng.markup">65</property>
  <property name="meta.attr.3.stream.DURATION-eng.markup">00:23:48.540000000</property>
  <property name="meta.attr.3.stream.NUMBER_OF_FRAMES-eng.markup">214</property>
  <property name="meta.attr.3.stream.NUMBER_OF_BYTES-eng.markup">11619</property>
  <property name="meta.attr.3.stream._STATISTICS_WRITING_APP-eng.markup">mkvmerge v52.0.0 ('Secret For The Mad') 64-bit</property>
  <property name="meta.attr.3.stream._STATISTICS_WRITING_DATE_UTC-eng.markup">2022-11-09 08:58:24</property>
  <property name="meta.attr.3.stream._STATISTICS_TAGS-eng.markup">BPS DURATION NUMBER_OF_FRAMES NUMBER_OF_BYTES</property>
  <property name="meta.media.4.codec.name">ssa</property>
  <property name="meta.media.4.codec.long_name">ASS (Advanced SubStation Alpha) subtitle</property>
  <property name="meta.media.4.codec.bit_rate">0</property>
  <property name="meta.attr.4.stream.language.markup">eng</property>
  <property name="meta.attr.4.stream.title.markup">English (Titles &amp; Signs) ASS</property>
  <property name="meta.attr.4.stream.BPS-eng.markup">0</property>
  <property name="meta.attr.4.stream.DURATION-eng.markup">00:21:34.430000000</property>
  <property name="meta.attr.4.stream.NUMBER_OF_FRAMES-eng.markup">2</property>
  <property name="meta.attr.4.stream.NUMBER_OF_BYTES-eng.markup">132</property>
  <property name="meta.attr.4.stream._STATISTICS_WRITING_APP-eng.markup">mkvmerge v52.0.0 ('Secret For The Mad') 64-bit</property>
  <property name="meta.attr.4.stream._STATISTICS_WRITING_DATE_UTC-eng.markup">2022-11-09 08:58:24</property>
  <property name="meta.attr.4.stream._STATISTICS_TAGS-eng.markup">BPS DURATION NUMBER_OF_FRAMES NUMBER_OF_BYTES</property>
  <property name="meta.media.5.codec.name">ssa</property>
  <property name="meta.media.5.codec.long_name">ASS (Advanced SubStation Alpha) subtitle</property>
  <property name="meta.media.5.codec.bit_rate">0</property>
  <property name="meta.attr.5.stream.language.markup">ara</property>
  <property name="meta.attr.5.stream.title.markup">Arabic</property>
  <property name="meta.attr.5.stream.BPS-eng.markup">96</property>
  <property name="meta.attr.5.stream.DURATION-eng.markup">00:21:32.040000000</property>
  <property name="meta.attr.5.stream.NUMBER_OF_FRAMES-eng.markup">255</property>
  <property name="meta.attr.5.stream.NUMBER_OF_BYTES-eng.markup">15580</property>
  <property name="meta.attr.5.stream._STATISTICS_WRITING_APP-eng.markup">mkvmerge v52.0.0 ('Secret For The Mad') 64-bit</property>
  <property name="meta.attr.5.stream._STATISTICS_WRITING_DATE_UTC-eng.markup">2022-11-09 08:58:24</property>
  <property name="meta.attr.5.stream._STATISTICS_TAGS-eng.markup">BPS DURATION NUMBER_OF_FRAMES NUMBER_OF_BYTES</property>
  <property name="meta.attr.title.markup">Monster : Chapter 18 : The Fifth Spoonful Of Sugar</property>
  <property name="meta.attr.encoder.markup">libebml v1.4.1 + libmatroska v1.6.2</property>
  <property name="meta.attr.creation_time.markup">2022-11-09T08:58:24.000000Z</property>
  <property name="seekable">1</property>
  <property name="meta.media.sample_aspect_num">1</property>
  <property name="meta.media.sample_aspect_den">1</property>
  <property name="aspect_ratio">1</property>
  <property name="format">3</property>
  <property name="kdenlive:clipname"/>
  <property name="kdenlive:clip_type">0</property>
  <property name="kdenlive:folderid">-1</property>
  <property name="kdenlive:id">5</property>
  <property name="kdenlive:active_streams">1;2</property>
  <property name="kdenlive:file_size">444843133</property>
  <property name="kdenlive:file_hash">a86567c7e1de80ed0c91f4dd5f126d18</property>
  <property name="kdenlive:audio_max1">180</property>
  <property name="kdenlive:audio_max2">195</property>
  <property name="xml">was here</property>
  <property name="meta.media.frame_rate_num">24000</property>
  <property name="meta.media.frame_rate_den">1001</property>
  <property name="meta.media.colorspace">709</property>
  <property name="meta.media.color_trc">1</property>
  <property name="meta.media.has_b_frames">2</property>
  <property name="meta.media.width">1440</property>
  <property name="meta.media.height">1080</property>
  <property name="meta.media.color_range">mpeg</property>
  <property name="meta.media.top_field_first">0</property>
  <property name="meta.media.progressive">1</property>
  <property name="set.test_audio">1</property>
  <property name="set.test_image">0</property>
  <property name="vstream">0</property>
  <property name="astream">0</property>
 </chain>
 <producer id="producer26" in="00:00:00.000" out="00:22:47.089">
  <property name="length">32778</property>
  <property name="eof">pause</property>
  <property name="resource">1.050000:/mnt/data1/Anime-Edits/Monster/Monster-Editing/Orig/Monster - Chapter 18 - The Fifth Spoonful Of Sugar.mkv</property>
  <property name="aspect_ratio">1</property>
  <property name="meta.media.nb_streams">23</property>
  <property name="meta.media.0.stream.type">video</property>
  <property name="meta.media.0.stream.frame_rate">23.976</property>
  <property name="meta.media.0.stream.sample_aspect_ratio">1</property>
  <property name="meta.media.0.codec.width">1440</property>
  <property name="meta.media.0.codec.height">1080</property>
  <property name="meta.media.0.codec.rotate">0</property>
  <property name="meta.media.0.codec.pix_fmt">yuv420p10le</property>
  <property name="meta.media.0.codec.sample_aspect_ratio">1</property>
  <property name="meta.media.0.codec.colorspace">709</property>
  <property name="meta.media.0.codec.color_trc">1</property>
  <property name="meta.media.0.codec.name">hevc</property>
  <property name="meta.media.0.codec.long_name">HEVC (High Efficiency Video Coding)</property>
  <property name="meta.media.0.codec.bit_rate">0</property>
  <property name="meta.attr.0.stream.BPS-eng.markup">1872489</property>
  <property name="meta.attr.0.stream.DURATION-eng.markup">00:23:55.434000000</property>
  <property name="meta.attr.0.stream.NUMBER_OF_FRAMES-eng.markup">34416</property>
  <property name="meta.attr.0.stream.NUMBER_OF_BYTES-eng.markup">335979397</property>
  <property name="meta.attr.0.stream._STATISTICS_WRITING_APP-eng.markup">mkvmerge v52.0.0 ('Secret For The Mad') 64-bit</property>
  <property name="meta.attr.0.stream._STATISTICS_WRITING_DATE_UTC-eng.markup">2022-11-09 08:58:24</property>
  <property name="meta.attr.0.stream._STATISTICS_TAGS-eng.markup">BPS DURATION NUMBER_OF_FRAMES NUMBER_OF_BYTES</property>
  <property name="meta.media.1.stream.type">audio</property>
  <property name="meta.media.1.codec.sample_fmt">fltp</property>
  <property name="meta.media.1.codec.sample_rate">48000</property>
  <property name="meta.media.1.codec.channels">2</property>
  <property name="meta.media.1.codec.name">ac3</property>
  <property name="meta.media.1.codec.long_name">ATSC A/52A (AC-3)</property>
  <property name="meta.media.1.codec.bit_rate">448000</property>
  <property name="meta.attr.1.stream.language.markup">jpn</property>
  <property name="meta.attr.1.stream.title.markup">Japanese DVD AC-3 DD_2.0</property>
  <property name="meta.attr.1.stream.BPS-eng.markup">448000</property>
  <property name="meta.attr.1.stream.DURATION-eng.markup">00:23:55.488000000</property>
  <property name="meta.attr.1.stream.NUMBER_OF_FRAMES-eng.markup">44859</property>
  <property name="meta.attr.1.stream.NUMBER_OF_BYTES-eng.markup">80387328</property>
  <property name="meta.attr.1.stream._STATISTICS_WRITING_APP-eng.markup">mkvmerge v52.0.0 ('Secret For The Mad') 64-bit</property>
  <property name="meta.attr.1.stream._STATISTICS_WRITING_DATE_UTC-eng.markup">2022-11-09 08:58:24</property>
  <property name="meta.attr.1.stream._STATISTICS_TAGS-eng.markup">BPS DURATION NUMBER_OF_FRAMES NUMBER_OF_BYTES</property>
  <property name="meta.media.2.stream.type">audio</property>
  <property name="meta.media.2.codec.sample_fmt">fltp</property>
  <property name="meta.media.2.codec.sample_rate">44100</property>
  <property name="meta.media.2.codec.channels">2</property>
  <property name="meta.media.2.codec.name">aac</property>
  <property name="meta.media.2.codec.long_name">AAC (Advanced Audio Coding)</property>
  <property name="meta.media.2.codec.bit_rate">0</property>
  <property name="meta.attr.2.stream.language.markup">eng</property>
  <property name="meta.attr.2.stream.title.markup">English AAC DD_2.0</property>
  <property name="meta.attr.2.stream.BPS-eng.markup">142539</property>
  <property name="meta.attr.2.stream.DURATION-eng.markup">00:23:55.202000000</property>
  <property name="meta.attr.2.stream.NUMBER_OF_FRAMES-eng.markup">61809</property>
  <property name="meta.attr.2.stream.NUMBER_OF_BYTES-eng.markup">25571616</property>
  <property name="meta.attr.2.stream._STATISTICS_WRITING_APP-eng.markup">mkvmerge v52.0.0 ('Secret For The Mad') 64-bit</property>
  <property name="meta.attr.2.stream._STATISTICS_WRITING_DATE_UTC-eng.markup">2022-11-09 08:58:24</property>
  <property name="meta.attr.2.stream._STATISTICS_TAGS-eng.markup">BPS DURATION NUMBER_OF_FRAMES NUMBER_OF_BYTES</property>
  <property name="meta.media.3.codec.name">ssa</property>
  <property name="meta.media.3.codec.long_name">ASS (Advanced SubStation Alpha) subtitle</property>
  <property name="meta.media.3.codec.bit_rate">0</property>
  <property name="meta.attr.3.stream.language.markup">eng</property>
  <property name="meta.attr.3.stream.title.markup">English (Full) ASS</property>
  <property name="meta.attr.3.stream.BPS-eng.markup">65</property>
  <property name="meta.attr.3.stream.DURATION-eng.markup">00:23:48.540000000</property>
  <property name="meta.attr.3.stream.NUMBER_OF_FRAMES-eng.markup">214</property>
  <property name="meta.attr.3.stream.NUMBER_OF_BYTES-eng.markup">11619</property>
  <property name="meta.attr.3.stream._STATISTICS_WRITING_APP-eng.markup">mkvmerge v52.0.0 ('Secret For The Mad') 64-bit</property>
  <property name="meta.attr.3.stream._STATISTICS_WRITING_DATE_UTC-eng.markup">2022-11-09 08:58:24</property>
  <property name="meta.attr.3.stream._STATISTICS_TAGS-eng.markup">BPS DURATION NUMBER_OF_FRAMES NUMBER_OF_BYTES</property>
  <property name="meta.media.4.codec.name">ssa</property>
  <property name="meta.media.4.codec.long_name">ASS (Advanced SubStation Alpha) subtitle</property>
  <property name="meta.media.4.codec.bit_rate">0</property>
  <property name="meta.attr.4.stream.language.markup">eng</property>
  <property name="meta.attr.4.stream.title.markup">English (Titles &amp; Signs) ASS</property>
  <property name="meta.attr.4.stream.BPS-eng.markup">0</property>
  <property name="meta.attr.4.stream.DURATION-eng.markup">00:21:34.430000000</property>
  <property name="meta.attr.4.stream.NUMBER_OF_FRAMES-eng.markup">2</property>
  <property name="meta.attr.4.stream.NUMBER_OF_BYTES-eng.markup">132</property>
  <property name="meta.attr.4.stream._STATISTICS_WRITING_APP-eng.markup">mkvmerge v52.0.0 ('Secret For The Mad') 64-bit</property>
  <property name="meta.attr.4.stream._STATISTICS_WRITING_DATE_UTC-eng.markup">2022-11-09 08:58:24</property>
  <property name="meta.attr.4.stream._STATISTICS_TAGS-eng.markup">BPS DURATION NUMBER_OF_FRAMES NUMBER_OF_BYTES</property>
  <property name="meta.media.5.codec.name">ssa</property>
  <property name="meta.media.5.codec.long_name">ASS (Advanced SubStation Alpha) subtitle</property>
  <property name="meta.media.5.codec.bit_rate">0</property>
  <property name="meta.attr.5.stream.language.markup">ara</property>
  <property name="meta.attr.5.stream.title.markup">Arabic</property>
  <property name="meta.attr.5.stream.BPS-eng.markup">96</property>
  <property name="meta.attr.5.stream.DURATION-eng.markup">00:21:32.040000000</property>
  <property name="meta.attr.5.stream.NUMBER_OF_FRAMES-eng.markup">255</property>
  <property name="meta.attr.5.stream.NUMBER_OF_BYTES-eng.markup">15580</property>
  <property name="meta.attr.5.stream._STATISTICS_WRITING_APP-eng.markup">mkvmerge v52.0.0 ('Secret For The Mad') 64-bit</property>
  <property name="meta.attr.5.stream._STATISTICS_WRITING_DATE_UTC-eng.markup">2022-11-09 08:58:24</property>
  <property name="meta.attr.5.stream._STATISTICS_TAGS-eng.markup">BPS DURATION NUMBER_OF_FRAMES NUMBER_OF_BYTES</property>
  <property name="meta.attr.title.markup">Monster : Chapter 18 : The Fifth Spoonful Of Sugar</property>
  <property name="meta.attr.encoder.markup">libebml v1.4.1 + libmatroska v1.6.2</property>
  <property name="meta.attr.creation_time.markup">2022-11-09T08:58:24.000000Z</property>
  <property name="seekable">1</property>
  <property name="meta.media.sample_aspect_num">1</property>
  <property name="meta.media.sample_aspect_den">1</property>
  <property name="format">3</property>
  <property name="audio_index">1</property>
  <property name="video_index">0</property>
  <property name="warp_speed">1.05</property>
  <property name="warp_resource">/mnt/data1/Anime-Edits/Monster/Monster-Editing/Orig/Monster - Chapter 18 - The Fifth Spoonful Of Sugar.mkv</property>
  <property name="mlt_service">timewarp</property>
  <property name="astream">0</property>
  <property name="set.test_audio">1</property>
  <property name="set.test_image">0</property>
  <property name="kdenlive:id">5</property>
  <property name="warp_pitch">0</property>
  <property name="vstream">0</property>
  <property name="meta.media.frame_rate_num">24000</property>
  <property name="meta.media.frame_rate_den">1001</property>
  <property name="meta.media.colorspace">709</property>
  <property name="meta.media.color_trc">1</property>
  <property name="meta.media.has_b_frames">2</property>
  <property name="meta.media.width">1440</property>
  <property name="meta.media.height">1080</property>
  <property name="meta.media.color_range">mpeg</property>
  <property name="meta.media.top_field_first">0</property>
  <property name="meta.media.progressive">1</property>
 </producer>
 <producer id="producer27" in="00:00:00.000" out="00:15:56.974">
  <property name="length">22945</property>
  <property name="eof">pause</property>
  <property name="resource">1.500000:/mnt/data1/Anime-Edits/Monster/Monster-Editing/Orig/Monster - Chapter 18 - The Fifth Spoonful Of Sugar.mkv</property>
  <property name="aspect_ratio">1</property>
  <property name="meta.media.nb_streams">23</property>
  <property name="meta.media.0.stream.type">video</property>
  <property name="meta.media.0.stream.frame_rate">23.976</property>
  <property name="meta.media.0.stream.sample_aspect_ratio">1</property>
  <property name="meta.media.0.codec.width">1440</property>
  <property name="meta.media.0.codec.height">1080</property>
  <property name="meta.media.0.codec.rotate">0</property>
  <property name="meta.media.0.codec.pix_fmt">yuv420p10le</property>
  <property name="meta.media.0.codec.sample_aspect_ratio">1</property>
  <property name="meta.media.0.codec.colorspace">709</property>
  <property name="meta.media.0.codec.color_trc">1</property>
  <property name="meta.media.0.codec.name">hevc</property>
  <property name="meta.media.0.codec.long_name">HEVC (High Efficiency Video Coding)</property>
  <property name="meta.media.0.codec.bit_rate">0</property>
  <property name="meta.attr.0.stream.BPS-eng.markup">1872489</property>
  <property name="meta.attr.0.stream.DURATION-eng.markup">00:23:55.434000000</property>
  <property name="meta.attr.0.stream.NUMBER_OF_FRAMES-eng.markup">34416</property>
  <property name="meta.attr.0.stream.NUMBER_OF_BYTES-eng.markup">335979397</property>
  <property name="meta.attr.0.stream._STATISTICS_WRITING_APP-eng.markup">mkvmerge v52.0.0 ('Secret For The Mad') 64-bit</property>
  <property name="meta.attr.0.stream._STATISTICS_WRITING_DATE_UTC-eng.markup">2022-11-09 08:58:24</property>
  <property name="meta.attr.0.stream._STATISTICS_TAGS-eng.markup">BPS DURATION NUMBER_OF_FRAMES NUMBER_OF_BYTES</property>
  <property name="meta.media.1.stream.type">audio</property>
  <property name="meta.media.1.codec.sample_fmt">fltp</property>
  <property name="meta.media.1.codec.sample_rate">48000</property>
  <property name="meta.media.1.codec.channels">2</property>
  <property name="meta.media.1.codec.name">ac3</property>
  <property name="meta.media.1.codec.long_name">ATSC A/52A (AC-3)</property>
  <property name="meta.media.1.codec.bit_rate">448000</property>
  <property name="meta.attr.1.stream.language.markup">jpn</property>
  <property name="meta.attr.1.stream.title.markup">Japanese DVD AC-3 DD_2.0</property>
  <property name="meta.attr.1.stream.BPS-eng.markup">448000</property>
  <property name="meta.attr.1.stream.DURATION-eng.markup">00:23:55.488000000</property>
  <property name="meta.attr.1.stream.NUMBER_OF_FRAMES-eng.markup">44859</property>
  <property name="meta.attr.1.stream.NUMBER_OF_BYTES-eng.markup">80387328</property>
  <property name="meta.attr.1.stream._STATISTICS_WRITING_APP-eng.markup">mkvmerge v52.0.0 ('Secret For The Mad') 64-bit</property>
  <property name="meta.attr.1.stream._STATISTICS_WRITING_DATE_UTC-eng.markup">2022-11-09 08:58:24</property>
  <property name="meta.attr.1.stream._STATISTICS_TAGS-eng.markup">BPS DURATION NUMBER_OF_FRAMES NUMBER_OF_BYTES</property>
  <property name="meta.media.2.stream.type">audio</property>
  <property name="meta.media.2.codec.sample_fmt">fltp</property>
  <property name="meta.media.2.codec.sample_rate">44100</property>
  <property name="meta.media.2.codec.channels">2</property>
  <property name="meta.media.2.codec.name">aac</property>
  <property name="meta.media.2.codec.long_name">AAC (Advanced Audio Coding)</property>
  <property name="meta.media.2.codec.bit_rate">0</property>
  <property name="meta.attr.2.stream.language.markup">eng</property>
  <property name="meta.attr.2.stream.title.markup">English AAC DD_2.0</property>
  <property name="meta.attr.2.stream.BPS-eng.markup">142539</property>
  <property name="meta.attr.2.stream.DURATION-eng.markup">00:23:55.202000000</property>
  <property name="meta.attr.2.stream.NUMBER_OF_FRAMES-eng.markup">61809</property>
  <property name="meta.attr.2.stream.NUMBER_OF_BYTES-eng.markup">25571616</property>
  <property name="meta.attr.2.stream._STATISTICS_WRITING_APP-eng.markup">mkvmerge v52.0.0 ('Secret For The Mad') 64-bit</property>
  <property name="meta.attr.2.stream._STATISTICS_WRITING_DATE_UTC-eng.markup">2022-11-09 08:58:24</property>
  <property name="meta.attr.2.stream._STATISTICS_TAGS-eng.markup">BPS DURATION NUMBER_OF_FRAMES NUMBER_OF_BYTES</property>
  <property name="meta.media.3.codec.name">ssa</property>
  <property name="meta.media.3.codec.long_name">ASS (Advanced SubStation Alpha) subtitle</property>
  <property name="meta.media.3.codec.bit_rate">0</property>
  <property name="meta.attr.3.stream.language.markup">eng</property>
  <property name="meta.attr.3.stream.title.markup">English (Full) ASS</property>
  <property name="meta.attr.3.stream.BPS-eng.markup">65</property>
  <property name="meta.attr.3.stream.DURATION-eng.markup">00:23:48.540000000</property>
  <property name="meta.attr.3.stream.NUMBER_OF_FRAMES-eng.markup">214</property>
  <property name="meta.attr.3.stream.NUMBER_OF_BYTES-eng.markup">11619</property>
  <property name="meta.attr.3.stream._STATISTICS_WRITING_APP-eng.markup">mkvmerge v52.0.0 ('Secret For The Mad') 64-bit</property>
  <property name="meta.attr.3.stream._STATISTICS_WRITING_DATE_UTC-eng.markup">2022-11-09 08:58:24</property>
  <property name="meta.attr.3.stream._STATISTICS_TAGS-eng.markup">BPS DURATION NUMBER_OF_FRAMES NUMBER_OF_BYTES</property>
  <property name="meta.media.4.codec.name">ssa</property>
  <property name="meta.media.4.codec.long_name">ASS (Advanced SubStation Alpha) subtitle</property>
  <property name="meta.media.4.codec.bit_rate">0</property>
  <property name="meta.attr.4.stream.language.markup">eng</property>
  <property name="meta.attr.4.stream.title.markup">English (Titles &amp; Signs) ASS</property>
  <property name="meta.attr.4.stream.BPS-eng.markup">0</property>
  <property name="meta.attr.4.stream.DURATION-eng.markup">00:21:34.430000000</property>
  <property name="meta.attr.4.stream.NUMBER_OF_FRAMES-eng.markup">2</property>
  <property name="meta.attr.4.stream.NUMBER_OF_BYTES-eng.markup">132</property>
  <property name="meta.attr.4.stream._STATISTICS_WRITING_APP-eng.markup">mkvmerge v52.0.0 ('Secret For The Mad') 64-bit</property>
  <property name="meta.attr.4.stream._STATISTICS_WRITING_DATE_UTC-eng.markup">2022-11-09 08:58:24</property>
  <property name="meta.attr.4.stream._STATISTICS_TAGS-eng.markup">BPS DURATION NUMBER_OF_FRAMES NUMBER_OF_BYTES</property>
  <property name="meta.media.5.codec.name">ssa</property>
  <property name="meta.media.5.codec.long_name">ASS (Advanced SubStation Alpha) subtitle</property>
  <property name="meta.media.5.codec.bit_rate">0</property>
  <property name="meta.attr.5.stream.language.markup">ara</property>
  <property name="meta.attr.5.stream.title.markup">Arabic</property>
  <property name="meta.attr.5.stream.BPS-eng.markup">96</property>
  <property name="meta.attr.5.stream.DURATION-eng.markup">00:21:32.040000000</property>
  <property name="meta.attr.5.stream.NUMBER_OF_FRAMES-eng.markup">255</property>
  <property name="meta.attr.5.stream.NUMBER_OF_BYTES-eng.markup">15580</property>
  <property name="meta.attr.5.stream._STATISTICS_WRITING_APP-eng.markup">mkvmerge v52.0.0 ('Secret For The Mad') 64-bit</property>
  <property name="meta.attr.5.stream._STATISTICS_WRITING_DATE_UTC-eng.markup">2022-11-09 08:58:24</property>
  <property name="meta.attr.5.stream._STATISTICS_TAGS-eng.markup">BPS DURATION NUMBER_OF_FRAMES NUMBER_OF_BYTES</property>
  <property name="meta.attr.title.markup">Monster : Chapter 18 : The Fifth Spoonful Of Sugar</property>
  <property name="meta.attr.encoder.markup">libebml v1.4.1 + libmatroska v1.6.2</property>
  <property name="meta.attr.creation_time.markup">2022-11-09T08:58:24.000000Z</property>
  <property name="seekable">1</property>
  <property name="meta.media.sample_aspect_num">1</property>
  <property name="meta.media.sample_aspect_den">1</property>
  <property name="format">3</property>
  <property name="audio_index">1</property>
  <property name="video_index">0</property>
  <property name="warp_speed">1.5</property>
  <property name="warp_resource">/mnt/data1/Anime-Edits/Monster/Monster-Editing/Orig/Monster - Chapter 18 - The Fifth Spoonful Of Sugar.mkv</property>
  <property name="mlt_service">timewarp</property>
  <property name="astream">0</property>
  <property name="set.test_audio">1</property>
  <property name="set.test_image">0</property>
  <property name="kdenlive:id">5</property>
  <property name="warp_pitch">0</property>
  <property name="vstream">0</property>
  <property name="meta.media.frame_rate_num">24000</property>
  <property name="meta.media.frame_rate_den">1001</property>
  <property name="meta.media.colorspace">709</property>
  <property name="meta.media.color_trc">1</property>
  <property name="meta.media.has_b_frames">2</property>
  <property name="meta.media.width">1440</property>
  <property name="meta.media.height">1080</property>
  <property name="meta.media.color_range">mpeg</property>
  <property name="meta.media.top_field_first">0</property>
  <property name="meta.media.progressive">1</property>
 </producer>
 <playlist id="playlist6">
  <entry producer="producer18" in="00:00:00.000" out="00:04:17.935">
   <property name="kdenlive:id">2</property>
  </entry>
  <entry producer="producer18" in="00:04:19.978" out="00:05:23.398">
   <property name="kdenlive:id">2</property>
  </entry>
  <entry producer="producer18" in="00:05:28.153" out="00:07:44.044">
   <property name="kdenlive:id">2</property>
  </entry>
  <entry producer="producer18" in="00:07:45.629" out="00:09:18.977">
   <property name="kdenlive:id">2</property>
  </entry>
  <entry producer="producer18" in="00:09:19.019" out="00:09:47.965">
   <property name="kdenlive:id">2</property>
  </entry>
  <entry producer="producer18" in="00:09:48.006" out="00:11:02.252">
   <property name="kdenlive:id">2</property>
   <property name="kdenlive:activeeffect">-1</property>
  </entry>
  <blank length="00:06:04.755"/>
  <entry producer="producer18" in="00:17:19.853" out="00:18:37.621">
   <property name="kdenlive:id">2</property>
  </entry>
  <entry producer="producer18" in="00:18:38.413" out="00:21:31.281">
   <property name="kdenlive:id">2</property>
  </entry>
  <entry producer="producer18" in="00:21:45.837" out="00:22:27.361">
   <property name="kdenlive:id">2</property>
   <filter id="filter91" in="00:22:26.401" out="00:22:27.361">
    <property name="start">1</property>
    <property name="level">1</property>
    <property name="mlt_service">brightness</property>
    <property name="kdenlive_id">fade_to_black</property>
    <property name="alpha">00:00:00.000=1;00:00:00.959=0</property>
   </filter>
  </entry>
  <blank length="00:05:39.164"/>
  <entry producer="producer19" in="00:07:57.182" out="00:10:06.924">
   <property name="kdenlive:id">3</property>
  </entry>
  <entry producer="producer20" in="00:05:03.879" out="00:05:06.423">
   <property name="kdenlive:id">3</property>
  </entry>
  <entry producer="producer19" in="00:10:12.971" out="00:10:14.431">
   <property name="kdenlive:id">3</property>
  </entry>
  <entry producer="producer21" in="00:06:49.633" out="00:06:56.556">
   <property name="kdenlive:id">3</property>
  </entry>
  <entry producer="producer19" in="00:10:24.900" out="00:11:20.812">
   <property name="kdenlive:id">3</property>
  </entry>
  <entry producer="producer22" in="00:03:46.964" out="00:03:47.381">
   <property name="kdenlive:id">3</property>
  </entry>
  <entry producer="producer23" in="00:03:47.798" out="00:03:48.257">
   <property name="kdenlive:id">3</property>
  </entry>
  <entry producer="producer19" in="00:11:24.858" out="00:11:59.476">
   <property name="kdenlive:id">3</property>
  </entry>
  <blank length="00:01:07.674"/>
  <entry producer="producer19" in="00:13:16.183" out="00:22:24.942">
   <property name="kdenlive:id">3</property>
   <filter id="filter92" in="00:22:23.357" out="00:22:24.942">
    <property name="start">1</property>
    <property name="level">1</property>
    <property name="mlt_service">brightness</property>
    <property name="kdenlive_id">fade_to_black</property>
    <property name="alpha">00:00:00.000=1;00:00:01.585=0</property>
    <property name="kdenlive:collapsed">0</property>
   </filter>
  </entry>
  <blank length="00:01:03.128"/>
  <entry producer="producer24" in="00:02:30.822" out="00:02:54.596">
   <property name="kdenlive:id">4</property>
  </entry>
  <entry producer="producer24" in="00:03:07.674" out="00:04:23.315">
   <property name="kdenlive:id">4</property>
  </entry>
  <entry producer="producer24" in="00:04:25.317" out="00:05:05.756">
   <property name="kdenlive:id">4</property>
  </entry>
  <entry producer="producer24" in="00:05:06.673" out="00:05:51.176">
   <property name="kdenlive:id">4</property>
  </entry>
  <entry producer="producer24" in="00:05:52.219" out="00:07:06.423">
   <property name="kdenlive:id">4</property>
  </entry>
  <entry producer="producer24" in="00:07:06.632" out="00:07:07.466">
   <property name="kdenlive:id">4</property>
  </entry>
  <entry producer="producer24" in="00:07:15.974" out="00:07:24.358">
   <property name="kdenlive:id">4</property>
  </entry>
  <entry producer="producer24" in="00:07:27.402" out="00:10:23.232">
   <property name="kdenlive:id">4</property>
  </entry>
  <entry producer="producer24" in="00:10:24.399" out="00:17:23.148">
   <property name="kdenlive:id">4</property>
  </entry>
  <entry producer="producer24" in="00:17:32.783" out="00:18:43.001">
   <property name="kdenlive:id">4</property>
  </entry>
  <entry producer="producer24" in="00:18:47.798" out="00:18:48.465">
   <property name="kdenlive:id">4</property>
  </entry>
  <entry producer="producer25" in="00:09:26.026" out="00:09:26.193">
   <property name="kdenlive:id">4</property>
  </entry>
  <entry producer="producer24" in="00:18:52.469" out="00:18:57.307">
   <property name="kdenlive:id">4</property>
  </entry>
  <entry producer="producer24" in="00:19:00.125" out="00:19:04.046">
   <property name="kdenlive:id">4</property>
  </entry>
  <entry producer="producer24" in="00:19:04.379" out="00:22:20.771">
   <property name="kdenlive:id">4</property>
   <filter id="filter93" in="00:22:19.311" out="00:22:20.812">
    <property name="start">1</property>
    <property name="level">1</property>
    <property name="mlt_service">brightness</property>
    <property name="kdenlive_id">fade_to_black</property>
    <property name="alpha">0=1;-1=0</property>
    <property name="kdenlive:collapsed">0</property>
   </filter>
  </entry>
  <entry producer="chain5" in="00:02:17.226" out="00:20:10.594">
   <property name="kdenlive:id">5</property>
  </entry>
  <entry producer="chain5" in="00:20:17.059" out="00:20:58.267">
   <property name="kdenlive:id">5</property>
  </entry>
  <entry producer="producer26" in="00:19:58.392" out="00:20:01.919">
   <property name="kdenlive:id">5</property>
  </entry>
  <entry producer="producer27" in="00:14:01.418" out="00:14:04.671">
   <property name="kdenlive:id">5</property>
  </entry>
  <entry producer="chain5" in="00:21:07.090" out="00:23:36.954">
   <property name="kdenlive:id">5</property>
  </entry>
 </playlist>
 <playlist id="playlist7"/>
 <tractor id="tractor3" in="00:00:00.000" out="01:22:52.844">
  <property name="kdenlive:trackheight">67</property>
  <property name="kdenlive:timeline_active">1</property>
  <property name="kdenlive:collapsed">0</property>
  <property name="kdenlive:thumbs_format"/>
  <property name="kdenlive:audio_rec"/>
  <track hide="audio" producer="playlist6"/>
  <track hide="audio" producer="playlist7"/>
 </tractor>
 <chain id="chain6" out="00:24:09.509">
  <property name="length">34754</property>
  <property name="eof">pause</property>
  <property name="resource">/mnt/data1/Anime-Edits/Monster/Monster-Editing/Orig/Monster - Chapter 15 - Be My Baby.mkv</property>
  <property name="mlt_service">avformat-novalidate</property>
  <property name="audio_index">1</property>
  <property name="video_index">0</property>
  <property name="seekable">1</property>
  <property name="aspect_ratio">1</property>
  <property name="format">3</property>
  <property name="kdenlive:clipname"/>
  <property name="kdenlive:clip_type">0</property>
  <property name="kdenlive:folderid">-1</property>
  <property name="kdenlive:id">2</property>
  <property name="kdenlive:active_streams">1;2;3</property>
  <property name="kdenlive:file_size">494036232</property>
  <property name="kdenlive:file_hash">2ca6d30d65808083acf92eb29459b304</property>
  <property name="kdenlive:audio_max1">182</property>
  <property name="kdenlive:audio_max2">193</property>
  <property name="kdenlive:audio_max3">189</property>
  <property name="xml">was here</property>
  <property name="meta.media.nb_streams">24</property>
  <property name="meta.media.0.stream.type">video</property>
  <property name="meta.media.0.stream.frame_rate">23.976</property>
  <property name="meta.media.0.stream.sample_aspect_ratio">1</property>
  <property name="meta.media.0.codec.width">1440</property>
  <property name="meta.media.0.codec.height">1080</property>
  <property name="meta.media.0.codec.rotate">0</property>
  <property name="meta.media.0.codec.pix_fmt">yuv420p10le</property>
  <property name="meta.media.0.codec.sample_aspect_ratio">1</property>
  <property name="meta.media.0.codec.colorspace">709</property>
  <property name="meta.media.0.codec.color_trc">1</property>
  <property name="meta.media.0.codec.name">hevc</property>
  <property name="meta.media.0.codec.long_name">HEVC (High Efficiency Video Coding)</property>
  <property name="meta.media.0.codec.bit_rate">0</property>
  <property name="meta.attr.0.stream.BPS-eng.markup">1983526</property>
  <property name="meta.attr.0.stream.DURATION-eng.markup">00:24:09.532000000</property>
  <property name="meta.attr.0.stream.NUMBER_OF_FRAMES-eng.markup">34754</property>
  <property name="meta.attr.0.stream.NUMBER_OF_BYTES-eng.markup">359398070</property>
  <property name="meta.attr.0.stream._STATISTICS_WRITING_APP-eng.markup">mkvmerge v52.0.0 ('Secret For The Mad') 64-bit</property>
  <property name="meta.attr.0.stream._STATISTICS_WRITING_DATE_UTC-eng.markup">2022-11-08 22:23:44</property>
  <property name="meta.attr.0.stream._STATISTICS_TAGS-eng.markup">BPS DURATION NUMBER_OF_FRAMES NUMBER_OF_BYTES</property>
  <property name="meta.media.1.stream.type">audio</property>
  <property name="meta.media.1.codec.sample_fmt">fltp</property>
  <property name="meta.media.1.codec.sample_rate">48000</property>
  <property name="meta.media.1.codec.channels">2</property>
  <property name="meta.media.1.codec.name">ac3</property>
  <property name="meta.media.1.codec.long_name">ATSC A/52A (AC-3)</property>
  <property name="meta.media.1.codec.bit_rate">448000</property>
  <property name="meta.attr.1.stream.language.markup">jpn</property>
  <property name="meta.attr.1.stream.title.markup">Japanese DVD AC-3 DD_2.0</property>
  <property name="meta.attr.1.stream.BPS-eng.markup">448000</property>
  <property name="meta.attr.1.stream.DURATION-eng.markup">00:24:09.472000000</property>
  <property name="meta.attr.1.stream.NUMBER_OF_FRAMES-eng.markup">45296</property>
  <property name="meta.attr.1.stream.NUMBER_OF_BYTES-eng.markup">81170432</property>
  <property name="meta.attr.1.stream._STATISTICS_WRITING_APP-eng.markup">mkvmerge v52.0.0 ('Secret For The Mad') 64-bit</property>
  <property name="meta.attr.1.stream._STATISTICS_WRITING_DATE_UTC-eng.markup">2022-11-08 22:23:44</property>
  <property name="meta.attr.1.stream._STATISTICS_TAGS-eng.markup">BPS DURATION NUMBER_OF_FRAMES NUMBER_OF_BYTES</property>
  <property name="meta.media.2.stream.type">audio</property>
  <property name="meta.media.2.codec.sample_fmt">fltp</property>
  <property name="meta.media.2.codec.sample_rate">48000</property>
  <property name="meta.media.2.codec.channels">2</property>
  <property name="meta.media.2.codec.name">mp3float</property>
  <property name="meta.media.2.codec.long_name">MP3 (MPEG audio layer 3)</property>
  <property name="meta.media.2.codec.bit_rate">99999</property>
  <property name="meta.attr.2.stream.language.markup">jpn</property>
  <property name="meta.attr.2.stream.title.markup">Original Broadcast Audio</property>
  <property name="meta.attr.2.stream.BPS-eng.markup">124204</property>
  <property name="meta.attr.2.stream.DURATION-eng.markup">00:23:54.000000000</property>
  <property name="meta.attr.2.stream.NUMBER_OF_FRAMES-eng.markup">59750</property>
  <property name="meta.attr.2.stream.NUMBER_OF_BYTES-eng.markup">22263744</property>
  <property name="meta.attr.2.stream._STATISTICS_WRITING_APP-eng.markup">mkvmerge v52.0.0 ('Secret For The Mad') 64-bit</property>
  <property name="meta.attr.2.stream._STATISTICS_WRITING_DATE_UTC-eng.markup">2022-11-08 22:23:44</property>
  <property name="meta.attr.2.stream._STATISTICS_TAGS-eng.markup">BPS DURATION NUMBER_OF_FRAMES NUMBER_OF_BYTES</property>
  <property name="meta.media.3.stream.type">audio</property>
  <property name="meta.media.3.codec.sample_fmt">fltp</property>
  <property name="meta.media.3.codec.sample_rate">48000</property>
  <property name="meta.media.3.codec.channels">2</property>
  <property name="meta.media.3.codec.name">aac</property>
  <property name="meta.media.3.codec.long_name">AAC (Advanced Audio Coding)</property>
  <property name="meta.media.3.codec.bit_rate">0</property>
  <property name="meta.attr.3.stream.language.markup">eng</property>
  <property name="meta.attr.3.stream.title.markup">English AAC DD_2.0</property>
  <property name="meta.attr.3.stream.BPS-eng.markup">156906</property>
  <property name="meta.attr.3.stream.DURATION-eng.markup">00:23:54.688000000</property>
  <property name="meta.attr.3.stream.NUMBER_OF_FRAMES-eng.markup">67251</property>
  <property name="meta.attr.3.stream.NUMBER_OF_BYTES-eng.markup">28138979</property>
  <property name="meta.attr.3.stream._STATISTICS_WRITING_APP-eng.markup">mkvmerge v52.0.0 ('Secret For The Mad') 64-bit</property>
  <property name="meta.attr.3.stream._STATISTICS_WRITING_DATE_UTC-eng.markup">2022-11-08 22:23:44</property>
  <property name="meta.attr.3.stream._STATISTICS_TAGS-eng.markup">BPS DURATION NUMBER_OF_FRAMES NUMBER_OF_BYTES</property>
  <property name="meta.media.4.codec.name">ssa</property>
  <property name="meta.media.4.codec.long_name">ASS (Advanced SubStation Alpha) subtitle</property>
  <property name="meta.media.4.codec.bit_rate">0</property>
  <property name="meta.attr.4.stream.language.markup">eng</property>
  <property name="meta.attr.4.stream.title.markup">English (Full) ASS</property>
  <property name="meta.attr.4.stream.BPS-eng.markup">96</property>
  <property name="meta.attr.4.stream.DURATION-eng.markup">00:23:23.800000000</property>
  <property name="meta.attr.4.stream.NUMBER_OF_FRAMES-eng.markup">310</property>
  <property name="meta.attr.4.stream.NUMBER_OF_BYTES-eng.markup">16890</property>
  <property name="meta.attr.4.stream._STATISTICS_WRITING_APP-eng.markup">mkvmerge v52.0.0 ('Secret For The Mad') 64-bit</property>
  <property name="meta.attr.4.stream._STATISTICS_WRITING_DATE_UTC-eng.markup">2022-11-08 22:23:44</property>
  <property name="meta.attr.4.stream._STATISTICS_TAGS-eng.markup">BPS DURATION NUMBER_OF_FRAMES NUMBER_OF_BYTES</property>
  <property name="meta.media.5.codec.name">ssa</property>
  <property name="meta.media.5.codec.long_name">ASS (Advanced SubStation Alpha) subtitle</property>
  <property name="meta.media.5.codec.bit_rate">0</property>
  <property name="meta.attr.5.stream.language.markup">eng</property>
  <property name="meta.attr.5.stream.title.markup">English (Titles &amp; Signs) ASS</property>
  <property name="meta.attr.5.stream.BPS-eng.markup">1</property>
  <property name="meta.attr.5.stream.DURATION-eng.markup">00:21:26.490000000</property>
  <property name="meta.attr.5.stream.NUMBER_OF_FRAMES-eng.markup">3</property>
  <property name="meta.attr.5.stream.NUMBER_OF_BYTES-eng.markup">197</property>
  <property name="meta.attr.5.stream._STATISTICS_WRITING_APP-eng.markup">mkvmerge v52.0.0 ('Secret For The Mad') 64-bit</property>
  <property name="meta.attr.5.stream._STATISTICS_WRITING_DATE_UTC-eng.markup">2022-11-08 22:23:44</property>
  <property name="meta.attr.5.stream._STATISTICS_TAGS-eng.markup">BPS DURATION NUMBER_OF_FRAMES NUMBER_OF_BYTES</property>
  <property name="meta.media.6.codec.name">ssa</property>
  <property name="meta.media.6.codec.long_name">ASS (Advanced SubStation Alpha) subtitle</property>
  <property name="meta.media.6.codec.bit_rate">0</property>
  <property name="meta.attr.6.stream.language.markup">ara</property>
  <property name="meta.attr.6.stream.title.markup">Arabic</property>
  <property name="meta.attr.6.stream.BPS-eng.markup">119</property>
  <property name="meta.attr.6.stream.DURATION-eng.markup">00:21:55.700000000</property>
  <property name="meta.attr.6.stream.NUMBER_OF_FRAMES-eng.markup">328</property>
  <property name="meta.attr.6.stream.NUMBER_OF_BYTES-eng.markup">19720</property>
  <property name="meta.attr.6.stream._STATISTICS_WRITING_APP-eng.markup">mkvmerge v52.0.0 ('Secret For The Mad') 64-bit</property>
  <property name="meta.attr.6.stream._STATISTICS_WRITING_DATE_UTC-eng.markup">2022-11-08 22:23:44</property>
  <property name="meta.attr.6.stream._STATISTICS_TAGS-eng.markup">BPS DURATION NUMBER_OF_FRAMES NUMBER_OF_BYTES</property>
  <property name="meta.attr.title.markup">Monster : Chapter 15 : Be My Baby</property>
  <property name="meta.attr.encoder.markup">libebml v1.4.1 + libmatroska v1.6.2</property>
  <property name="meta.attr.creation_time.markup">2022-11-08T22:23:44.000000Z</property>
  <property name="meta.media.sample_aspect_num">1</property>
  <property name="meta.media.sample_aspect_den">1</property>
  <property name="meta.media.frame_rate_num">24000</property>
  <property name="meta.media.frame_rate_den">1001</property>
  <property name="meta.media.colorspace">709</property>
  <property name="meta.media.color_trc">1</property>
  <property name="meta.media.has_b_frames">2</property>
  <property name="meta.media.width">1440</property>
  <property name="meta.media.height">1080</property>
  <property name="meta.media.color_range">mpeg</property>
  <property name="meta.media.top_field_first">0</property>
  <property name="meta.media.progressive">1</property>
  <property name="set.test_audio">1</property>
  <property name="set.test_image">0</property>
  <property name="vstream">0</property>
  <property name="astream">0</property>
 </chain>
 <chain id="chain7" out="00:23:55.555">
  <property name="length">34419</property>
  <property name="eof">pause</property>
  <property name="resource">/mnt/data1/Anime-Edits/Monster/Monster-Editing/Orig/Monster - Chapter 16 - Wolf's Confession.mkv</property>
  <property name="mlt_service">avformat-novalidate</property>
  <property name="audio_index">1</property>
  <property name="video_index">0</property>
  <property name="seekable">1</property>
  <property name="aspect_ratio">1</property>
  <property name="format">3</property>
  <property name="kdenlive:clipname"/>
  <property name="kdenlive:clip_type">0</property>
  <property name="kdenlive:folderid">-1</property>
  <property name="kdenlive:id">3</property>
  <property name="kdenlive:active_streams">1;2</property>
  <property name="kdenlive:file_size">453347744</property>
  <property name="kdenlive:file_hash">e20faadd6aacbf2723f80ea021db38b5</property>
  <property name="kdenlive:audio_max1">184</property>
  <property name="kdenlive:audio_max2">193</property>
  <property name="xml">was here</property>
  <property name="meta.media.nb_streams">23</property>
  <property name="meta.media.0.stream.type">video</property>
  <property name="meta.media.0.stream.frame_rate">23.976</property>
  <property name="meta.media.0.stream.sample_aspect_ratio">1</property>
  <property name="meta.media.0.codec.width">1440</property>
  <property name="meta.media.0.codec.height">1080</property>
  <property name="meta.media.0.codec.rotate">0</property>
  <property name="meta.media.0.codec.pix_fmt">yuv420p10le</property>
  <property name="meta.media.0.codec.sample_aspect_ratio">1</property>
  <property name="meta.media.0.codec.colorspace">709</property>
  <property name="meta.media.0.codec.color_trc">1</property>
  <property name="meta.media.0.codec.name">hevc</property>
  <property name="meta.media.0.codec.long_name">HEVC (High Efficiency Video Coding)</property>
  <property name="meta.media.0.codec.bit_rate">0</property>
  <property name="meta.attr.0.stream.BPS-eng.markup">1927560</property>
  <property name="meta.attr.0.stream.DURATION-eng.markup">00:23:55.518000000</property>
  <property name="meta.attr.0.stream.NUMBER_OF_FRAMES-eng.markup">34418</property>
  <property name="meta.attr.0.stream.NUMBER_OF_BYTES-eng.markup">345881056</property>
  <property name="meta.attr.0.stream._STATISTICS_WRITING_APP-eng.markup">mkvmerge v52.0.0 ('Secret For The Mad') 64-bit</property>
  <property name="meta.attr.0.stream._STATISTICS_WRITING_DATE_UTC-eng.markup">2022-11-09 08:56:56</property>
  <property name="meta.attr.0.stream._STATISTICS_TAGS-eng.markup">BPS DURATION NUMBER_OF_FRAMES NUMBER_OF_BYTES</property>
  <property name="meta.media.1.stream.type">audio</property>
  <property name="meta.media.1.codec.sample_fmt">fltp</property>
  <property name="meta.media.1.codec.sample_rate">48000</property>
  <property name="meta.media.1.codec.channels">2</property>
  <property name="meta.media.1.codec.name">ac3</property>
  <property name="meta.media.1.codec.long_name">ATSC A/52A (AC-3)</property>
  <property name="meta.media.1.codec.bit_rate">448000</property>
  <property name="meta.attr.1.stream.language.markup">jpn</property>
  <property name="meta.attr.1.stream.title.markup">Japanese DVD AC-3 DD_2.0</property>
  <property name="meta.attr.1.stream.BPS-eng.markup">448000</property>
  <property name="meta.attr.1.stream.DURATION-eng.markup">00:23:55.552000000</property>
  <property name="meta.attr.1.stream.NUMBER_OF_FRAMES-eng.markup">44861</property>
  <property name="meta.attr.1.stream.NUMBER_OF_BYTES-eng.markup">80390912</property>
  <property name="meta.attr.1.stream._STATISTICS_WRITING_APP-eng.markup">mkvmerge v52.0.0 ('Secret For The Mad') 64-bit</property>
  <property name="meta.attr.1.stream._STATISTICS_WRITING_DATE_UTC-eng.markup">2022-11-09 08:56:56</property>
  <property name="meta.attr.1.stream._STATISTICS_TAGS-eng.markup">BPS DURATION NUMBER_OF_FRAMES NUMBER_OF_BYTES</property>
  <property name="meta.media.2.stream.type">audio</property>
  <property name="meta.media.2.codec.sample_fmt">fltp</property>
  <property name="meta.media.2.codec.sample_rate">44100</property>
  <property name="meta.media.2.codec.channels">2</property>
  <property name="meta.media.2.codec.name">aac</property>
  <property name="meta.media.2.codec.long_name">AAC (Advanced Audio Coding)</property>
  <property name="meta.media.2.codec.bit_rate">0</property>
  <property name="meta.attr.2.stream.language.markup">eng</property>
  <property name="meta.attr.2.stream.title.markup">English AAC DD_2.0</property>
  <property name="meta.attr.2.stream.BPS-eng.markup">134680</property>
  <property name="meta.attr.2.stream.DURATION-eng.markup">00:23:55.295000000</property>
  <property name="meta.attr.2.stream.NUMBER_OF_FRAMES-eng.markup">61813</property>
  <property name="meta.attr.2.stream.NUMBER_OF_BYTES-eng.markup">24163291</property>
  <property name="meta.attr.2.stream._STATISTICS_WRITING_APP-eng.markup">mkvmerge v52.0.0 ('Secret For The Mad') 64-bit</property>
  <property name="meta.attr.2.stream._STATISTICS_WRITING_DATE_UTC-eng.markup">2022-11-09 08:56:56</property>
  <property name="meta.attr.2.stream._STATISTICS_TAGS-eng.markup">BPS DURATION NUMBER_OF_FRAMES NUMBER_OF_BYTES</property>
  <property name="meta.media.3.codec.name">ssa</property>
  <property name="meta.media.3.codec.long_name">ASS (Advanced SubStation Alpha) subtitle</property>
  <property name="meta.media.3.codec.bit_rate">0</property>
  <property name="meta.attr.3.stream.language.markup">eng</property>
  <property name="meta.attr.3.stream.title.markup">English (Full) ASS</property>
  <property name="meta.attr.3.stream.BPS-eng.markup">79</property>
  <property name="meta.attr.3.stream.DURATION-eng.markup">00:23:51.650000000</property>
  <property name="meta.attr.3.stream.NUMBER_OF_FRAMES-eng.markup">246</property>
  <property name="meta.attr.3.stream.NUMBER_OF_BYTES-eng.markup">14158</property>
  <property name="meta.attr.3.stream._STATISTICS_WRITING_APP-eng.markup">mkvmerge v52.0.0 ('Secret For The Mad') 64-bit</property>
  <property name="meta.attr.3.stream._STATISTICS_WRITING_DATE_UTC-eng.markup">2022-11-09 08:56:56</property>
  <property name="meta.attr.3.stream._STATISTICS_TAGS-eng.markup">BPS DURATION NUMBER_OF_FRAMES NUMBER_OF_BYTES</property>
  <property name="meta.media.4.codec.name">ssa</property>
  <property name="meta.media.4.codec.long_name">ASS (Advanced SubStation Alpha) subtitle</property>
  <property name="meta.media.4.codec.bit_rate">0</property>
  <property name="meta.attr.4.stream.language.markup">eng</property>
  <property name="meta.attr.4.stream.title.markup">English (Titles &amp; Signs) ASS</property>
  <property name="meta.attr.4.stream.BPS-eng.markup">0</property>
  <property name="meta.attr.4.stream.DURATION-eng.markup">00:21:53.260000000</property>
  <property name="meta.attr.4.stream.NUMBER_OF_FRAMES-eng.markup">2</property>
  <property name="meta.attr.4.stream.NUMBER_OF_BYTES-eng.markup">120</property>
  <property name="meta.attr.4.stream._STATISTICS_WRITING_APP-eng.markup">mkvmerge v52.0.0 ('Secret For The Mad') 64-bit</property>
  <property name="meta.attr.4.stream._STATISTICS_WRITING_DATE_UTC-eng.markup">2022-11-09 08:56:56</property>
  <property name="meta.attr.4.stream._STATISTICS_TAGS-eng.markup">BPS DURATION NUMBER_OF_FRAMES NUMBER_OF_BYTES</property>
  <property name="meta.media.5.codec.name">ssa</property>
  <property name="meta.media.5.codec.long_name">ASS (Advanced SubStation Alpha) subtitle</property>
  <property name="meta.media.5.codec.bit_rate">0</property>
  <property name="meta.attr.5.stream.language.markup">ara</property>
  <property name="meta.attr.5.stream.title.markup">Arabic</property>
  <property name="meta.attr.5.stream.BPS-eng.markup">108</property>
  <property name="meta.attr.5.stream.DURATION-eng.markup">00:22:21.280000000</property>
  <property name="meta.attr.5.stream.NUMBER_OF_FRAMES-eng.markup">300</property>
  <property name="meta.attr.5.stream.NUMBER_OF_BYTES-eng.markup">18142</property>
  <property name="meta.attr.5.stream._STATISTICS_WRITING_APP-eng.markup">mkvmerge v52.0.0 ('Secret For The Mad') 64-bit</property>
  <property name="meta.attr.5.stream._STATISTICS_WRITING_DATE_UTC-eng.markup">2022-11-09 08:56:56</property>
  <property name="meta.attr.5.stream._STATISTICS_TAGS-eng.markup">BPS DURATION NUMBER_OF_FRAMES NUMBER_OF_BYTES</property>
  <property name="meta.attr.title.markup">Monster : Chapter 16 : Wolf's Confession</property>
  <property name="meta.attr.encoder.markup">libebml v1.4.1 + libmatroska v1.6.2</property>
  <property name="meta.attr.creation_time.markup">2022-11-09T08:56:56.000000Z</property>
  <property name="meta.media.sample_aspect_num">1</property>
  <property name="meta.media.sample_aspect_den">1</property>
  <property name="meta.media.frame_rate_num">24000</property>
  <property name="meta.media.frame_rate_den">1001</property>
  <property name="meta.media.colorspace">709</property>
  <property name="meta.media.color_trc">1</property>
  <property name="meta.media.has_b_frames">2</property>
  <property name="meta.media.width">1440</property>
  <property name="meta.media.height">1080</property>
  <property name="meta.media.color_range">mpeg</property>
  <property name="meta.media.top_field_first">0</property>
  <property name="meta.media.progressive">1</property>
  <property name="set.test_audio">1</property>
  <property name="set.test_image">0</property>
  <property name="vstream">0</property>
  <property name="astream">0</property>
 </chain>
 <chain id="producer28" out="00:23:55.514">
  <property name="length">34418</property>
  <property name="eof">pause</property>
  <property name="resource">/mnt/data1/Anime-Edits/Monster/Monster-Editing/Orig/Monster - Chapter 17 - Reunion.mkv</property>
  <property name="mlt_service">avformat-novalidate</property>
  <property name="audio_index">1</property>
  <property name="video_index">0</property>
  <property name="seekable">1</property>
  <property name="aspect_ratio">1</property>
  <property name="format">3</property>
  <property name="kdenlive:clipname"/>
  <property name="kdenlive:clip_type">0</property>
  <property name="kdenlive:folderid">-1</property>
  <property name="kdenlive:id">4</property>
  <property name="kdenlive:active_streams">1;2</property>
  <property name="kdenlive:file_size">434452861</property>
  <property name="kdenlive:file_hash">0f152e6813adc63a91f8c38e71ab3613</property>
  <property name="kdenlive:audio_max1">180</property>
  <property name="kdenlive:audio_max2">202</property>
  <property name="xml">was here</property>
  <property name="meta.media.nb_streams">23</property>
  <property name="meta.media.0.stream.type">video</property>
  <property name="meta.media.0.stream.frame_rate">23.976</property>
  <property name="meta.media.0.stream.sample_aspect_ratio">1</property>
  <property name="meta.media.0.codec.width">1440</property>
  <property name="meta.media.0.codec.height">1080</property>
  <property name="meta.media.0.codec.rotate">0</property>
  <property name="meta.media.0.codec.pix_fmt">yuv420p10le</property>
  <property name="meta.media.0.codec.sample_aspect_ratio">1</property>
  <property name="meta.media.0.codec.colorspace">709</property>
  <property name="meta.media.0.codec.color_trc">1</property>
  <property name="meta.media.0.codec.name">hevc</property>
  <property name="meta.media.0.codec.long_name">HEVC (High Efficiency Video Coding)</property>
  <property name="meta.media.0.codec.bit_rate">0</property>
  <property name="meta.attr.0.stream.BPS-eng.markup">1815816</property>
  <property name="meta.attr.0.stream.DURATION-eng.markup">00:23:55.518000000</property>
  <property name="meta.attr.0.stream.NUMBER_OF_FRAMES-eng.markup">34418</property>
  <property name="meta.attr.0.stream.NUMBER_OF_BYTES-eng.markup">325829715</property>
  <property name="meta.attr.0.stream._STATISTICS_WRITING_APP-eng.markup">mkvmerge v52.0.0 ('Secret For The Mad') 64-bit</property>
  <property name="meta.attr.0.stream._STATISTICS_WRITING_DATE_UTC-eng.markup">2022-11-09 08:57:37</property>
  <property name="meta.attr.0.stream._STATISTICS_TAGS-eng.markup">BPS DURATION NUMBER_OF_FRAMES NUMBER_OF_BYTES</property>
  <property name="meta.media.1.stream.type">audio</property>
  <property name="meta.media.1.codec.sample_fmt">fltp</property>
  <property name="meta.media.1.codec.sample_rate">48000</property>
  <property name="meta.media.1.codec.channels">2</property>
  <property name="meta.media.1.codec.name">ac3</property>
  <property name="meta.media.1.codec.long_name">ATSC A/52A (AC-3)</property>
  <property name="meta.media.1.codec.bit_rate">448000</property>
  <property name="meta.attr.1.stream.language.markup">jpn</property>
  <property name="meta.attr.1.stream.title.markup">Japanese DVD AC-3 DD_2.0</property>
  <property name="meta.attr.1.stream.BPS-eng.markup">448000</property>
  <property name="meta.attr.1.stream.DURATION-eng.markup">00:23:55.520000000</property>
  <property name="meta.attr.1.stream.NUMBER_OF_FRAMES-eng.markup">44860</property>
  <property name="meta.attr.1.stream.NUMBER_OF_BYTES-eng.markup">80389120</property>
  <property name="meta.attr.1.stream._STATISTICS_WRITING_APP-eng.markup">mkvmerge v52.0.0 ('Secret For The Mad') 64-bit</property>
  <property name="meta.attr.1.stream._STATISTICS_WRITING_DATE_UTC-eng.markup">2022-11-09 08:57:37</property>
  <property name="meta.attr.1.stream._STATISTICS_TAGS-eng.markup">BPS DURATION NUMBER_OF_FRAMES NUMBER_OF_BYTES</property>
  <property name="meta.media.2.stream.type">audio</property>
  <property name="meta.media.2.codec.sample_fmt">fltp</property>
  <property name="meta.media.2.codec.sample_rate">44100</property>
  <property name="meta.media.2.codec.channels">2</property>
  <property name="meta.media.2.codec.name">aac</property>
  <property name="meta.media.2.codec.long_name">AAC (Advanced Audio Coding)</property>
  <property name="meta.media.2.codec.bit_rate">0</property>
  <property name="meta.attr.2.stream.language.markup">eng</property>
  <property name="meta.attr.2.stream.title.markup">English AAC DD_2.0</property>
  <property name="meta.attr.2.stream.BPS-eng.markup">141066</property>
  <property name="meta.attr.2.stream.DURATION-eng.markup">00:23:55.435000000</property>
  <property name="meta.attr.2.stream.NUMBER_OF_FRAMES-eng.markup">61819</property>
  <property name="meta.attr.2.stream.NUMBER_OF_BYTES-eng.markup">25311493</property>
  <property name="meta.attr.2.stream._STATISTICS_WRITING_APP-eng.markup">mkvmerge v52.0.0 ('Secret For The Mad') 64-bit</property>
  <property name="meta.attr.2.stream._STATISTICS_WRITING_DATE_UTC-eng.markup">2022-11-09 08:57:37</property>
  <property name="meta.attr.2.stream._STATISTICS_TAGS-eng.markup">BPS DURATION NUMBER_OF_FRAMES NUMBER_OF_BYTES</property>
  <property name="meta.media.3.codec.name">ssa</property>
  <property name="meta.media.3.codec.long_name">ASS (Advanced SubStation Alpha) subtitle</property>
  <property name="meta.media.3.codec.bit_rate">0</property>
  <property name="meta.attr.3.stream.language.markup">eng</property>
  <property name="meta.attr.3.stream.title.markup">English (Full) ASS</property>
  <property name="meta.attr.3.stream.BPS-eng.markup">94</property>
  <property name="meta.attr.3.stream.DURATION-eng.markup">00:23:38.620000000</property>
  <property name="meta.attr.3.stream.NUMBER_OF_FRAMES-eng.markup">304</property>
  <property name="meta.attr.3.stream.NUMBER_OF_BYTES-eng.markup">16798</property>
  <property name="meta.attr.3.stream._STATISTICS_WRITING_APP-eng.markup">mkvmerge v52.0.0 ('Secret For The Mad') 64-bit</property>
  <property name="meta.attr.3.stream._STATISTICS_WRITING_DATE_UTC-eng.markup">2022-11-09 08:57:37</property>
  <property name="meta.attr.3.stream._STATISTICS_TAGS-eng.markup">BPS DURATION NUMBER_OF_FRAMES NUMBER_OF_BYTES</property>
  <property name="meta.media.4.codec.name">ssa</property>
  <property name="meta.media.4.codec.long_name">ASS (Advanced SubStation Alpha) subtitle</property>
  <property name="meta.media.4.codec.bit_rate">0</property>
  <property name="meta.attr.4.stream.language.markup">eng</property>
  <property name="meta.attr.4.stream.title.markup">English (Titles &amp; Signs) ASS</property>
  <property name="meta.attr.4.stream.BPS-eng.markup">0</property>
  <property name="meta.attr.4.stream.DURATION-eng.markup">00:21:21.740000000</property>
  <property name="meta.attr.4.stream.NUMBER_OF_FRAMES-eng.markup">2</property>
  <property name="meta.attr.4.stream.NUMBER_OF_BYTES-eng.markup">125</property>
  <property name="meta.attr.4.stream._STATISTICS_WRITING_APP-eng.markup">mkvmerge v52.0.0 ('Secret For The Mad') 64-bit</property>
  <property name="meta.attr.4.stream._STATISTICS_WRITING_DATE_UTC-eng.markup">2022-11-09 08:57:37</property>
  <property name="meta.attr.4.stream._STATISTICS_TAGS-eng.markup">BPS DURATION NUMBER_OF_FRAMES NUMBER_OF_BYTES</property>
  <property name="meta.media.5.codec.name">ssa</property>
  <property name="meta.media.5.codec.long_name">ASS (Advanced SubStation Alpha) subtitle</property>
  <property name="meta.media.5.codec.bit_rate">0</property>
  <property name="meta.attr.5.stream.language.markup">ara</property>
  <property name="meta.attr.5.stream.title.markup">Arabic</property>
  <property name="meta.attr.5.stream.BPS-eng.markup">125</property>
  <property name="meta.attr.5.stream.DURATION-eng.markup">00:22:11.080000000</property>
  <property name="meta.attr.5.stream.NUMBER_OF_FRAMES-eng.markup">362</property>
  <property name="meta.attr.5.stream.NUMBER_OF_BYTES-eng.markup">20869</property>
  <property name="meta.attr.5.stream._STATISTICS_WRITING_APP-eng.markup">mkvmerge v52.0.0 ('Secret For The Mad') 64-bit</property>
  <property name="meta.attr.5.stream._STATISTICS_WRITING_DATE_UTC-eng.markup">2022-11-09 08:57:37</property>
  <property name="meta.attr.5.stream._STATISTICS_TAGS-eng.markup">BPS DURATION NUMBER_OF_FRAMES NUMBER_OF_BYTES</property>
  <property name="meta.attr.title.markup">Monster : Chapter 17 : Reunion</property>
  <property name="meta.attr.encoder.markup">libebml v1.4.1 + libmatroska v1.6.2</property>
  <property name="meta.attr.creation_time.markup">2022-11-09T08:57:37.000000Z</property>
  <property name="meta.media.sample_aspect_num">1</property>
  <property name="meta.media.sample_aspect_den">1</property>
  <property name="meta.media.frame_rate_num">24000</property>
  <property name="meta.media.frame_rate_den">1001</property>
  <property name="meta.media.colorspace">709</property>
  <property name="meta.media.color_trc">1</property>
  <property name="meta.media.has_b_frames">2</property>
  <property name="meta.media.width">1440</property>
  <property name="meta.media.height">1080</property>
  <property name="meta.media.color_range">mpeg</property>
  <property name="meta.media.top_field_first">0</property>
  <property name="meta.media.progressive">1</property>
  <property name="set.test_audio">1</property>
  <property name="set.test_image">0</property>
 </chain>
 <playlist id="playlist8">
  <blank length="00:10:54.054"/>
  <entry producer="chain6" in="00:11:07.799" out="00:14:48.966">
   <property name="kdenlive:id">2</property>
  </entry>
  <entry producer="chain6" in="00:14:50.092" out="00:14:50.634">
   <property name="kdenlive:id">2</property>
  </entry>
  <entry producer="chain6" in="00:14:52.177" out="00:17:15.098">
   <property name="kdenlive:id">2</property>
  </entry>
  <blank length="00:04:51.343"/>
  <entry producer="chain7" in="00:01:58.183" out="00:05:31.281">
   <property name="kdenlive:id">3</property>
   <filter id="filter94" in="00:01:58.183" out="00:01:59.142">
    <property name="start">1</property>
    <property name="level">1</property>
    <property name="mlt_service">brightness</property>
    <property name="kdenlive_id">fade_from_black</property>
    <property name="alpha">00:00:00.000=0;00:00:00.959=1</property>
    <property name="kdenlive:collapsed">0</property>
   </filter>
  </entry>
  <entry producer="chain7" in="00:05:47.506" out="00:06:28.278">
   <property name="kdenlive:id">3</property>
  </entry>
  <entry producer="chain7" in="00:06:28.737" out="00:06:32.658">
   <property name="kdenlive:id">3</property>
  </entry>
  <entry producer="chain7" in="00:06:33.325" out="00:07:55.472">
   <property name="kdenlive:id">3</property>
  </entry>
  <blank length="00:03:52.469"/>
  <entry producer="chain7" in="00:12:00.083" out="00:13:07.674">
   <property name="kdenlive:id">3</property>
  </entry>
  <blank length="00:09:08.800"/>
  <entry producer="producer28" in="00:00:00.000" out="00:01:03.086">
   <property name="kdenlive:id">4</property>
  </entry>
 </playlist>
 <playlist id="playlist9"/>
 <tractor id="tractor4" in="00:00:00.000" out="00:42:42.167">
  <property name="kdenlive:trackheight">67</property>
  <property name="kdenlive:timeline_active">1</property>
  <property name="kdenlive:collapsed">0</property>
  <property name="kdenlive:thumbs_format"/>
  <property name="kdenlive:audio_rec"/>
  <track hide="audio" producer="playlist8"/>
  <track hide="audio" producer="playlist9"/>
 </tractor>
 <tractor id="{702b4ae2-0626-4f2a-bf9f-acc886bc01fd}" in="00:00:00.000" out="01:22:52.844">
  <property name="kdenlive:uuid">{702b4ae2-0626-4f2a-bf9f-acc886bc01fd}</property>
  <property name="kdenlive:clipname">Sequence 1</property>
  <property name="kdenlive:sequenceproperties.hasAudio">1</property>
  <property name="kdenlive:sequenceproperties.hasVideo">1</property>
  <property name="kdenlive:sequenceproperties.activeTrack">4</property>
  <property name="kdenlive:sequenceproperties.tracksCount">5</property>
  <property name="kdenlive:sequenceproperties.documentuuid">{702b4ae2-0626-4f2a-bf9f-acc886bc01fd}</property>
  <property name="kdenlive:duration">01:22:52:21</property>
  <property name="kdenlive:maxduration">119229</property>
  <property name="kdenlive:producer_type">17</property>
  <property name="kdenlive:id">12</property>
  <property name="kdenlive:clip_type">0</property>
  <property name="kdenlive:file_hash">5c0c156ea6c8dd06f10e89f08d464fba</property>
  <property name="kdenlive:folderid">11</property>
  <property name="kdenlive:sequenceproperties.audioTarget">-1</property>
  <property name="kdenlive:sequenceproperties.disablepreview">0</property>
  <property name="kdenlive:sequenceproperties.position">119228</property>
  <property name="kdenlive:sequenceproperties.scrollPos">244654</property>
  <property name="kdenlive:sequenceproperties.videoTarget">-1</property>
  <property name="kdenlive:sequenceproperties.zonein">0</property>
  <property name="kdenlive:sequenceproperties.zoneout">119229</property>
  <property name="kdenlive:sequenceproperties.zoom">5</property>
  <property name="kdenlive:sequenceproperties.groups">[
    {
        "children": [
            {
                "data": "1:7679",
                "leaf": "clip",
                "type": "Leaf"
            },
            {
                "data": "3:7706",
                "leaf": "clip",
                "type": "Leaf"
            }
        ],
        "type": "Normal"
    },
    {
        "children": [
            {
                "data": "2:20987",
                "leaf": "clip",
                "type": "Leaf"
            },
            {
                "data": "4:20998",
                "leaf": "clip",
                "type": "Leaf"
            }
        ],
        "type": "Normal"
    },
    {
        "children": [
            {
                "data": "3:26292",
                "leaf": "clip",
                "type": "Leaf"
            },
            {
                "data": "2:26292",
                "leaf": "clip",
                "type": "Leaf"
            }
        ],
        "type": "Normal"
    },
    {
        "children": [
            {
                "data": "4:37500",
                "leaf": "clip",
                "type": "Leaf"
            },
            {
                "data": "2:37518",
                "leaf": "clip",
                "type": "Leaf"
            }
        ],
        "type": "Normal"
    },
    {
        "children": [
            {
                "data": "1:20960",
                "leaf": "clip",
                "type": "Leaf"
            },
            {
                "data": "4:20984",
                "leaf": "clip",
                "type": "Leaf"
            }
        ],
        "type": "Normal"
    },
    {
        "children": [
            {
                "data": "3:62002",
                "leaf": "clip",
                "type": "Leaf"
            },
            {
                "data": "1:61996",
                "leaf": "clip",
                "type": "Leaf"
            }
        ],
        "type": "Normal"
    },
    {
        "children": [
            {
                "data": "1:37598",
                "leaf": "clip",
                "type": "Leaf"
            },
            {
                "data": "4:37595",
                "leaf": "clip",
                "type": "Leaf"
            }
        ],
        "type": "Normal"
    },
    {
        "children": [
            {
                "data": "2:6159",
                "leaf": "clip",
                "type": "Leaf"
            },
            {
                "data": "3:6185",
                "leaf": "clip",
                "type": "Leaf"
            }
        ],
        "type": "Normal"
    },
    {
        "children": [
            {
                "data": "2:13651",
                "leaf": "clip",
                "type": "Leaf"
            },
            {
                "data": "3:13205",
                "leaf": "clip",
                "type": "Leaf"
            },
            {
                "data": "1:13205",
                "leaf": "clip",
                "type": "Leaf"
            },
            {
                "data": "0:13215",
                "leaf": "clip",
                "type": "Leaf"
            }
        ],
        "type": "Normal"
    },
    {
        "children": [
            {
                "data": "1:42654",
                "leaf": "clip",
                "type": "Leaf"
            },
            {
                "data": "3:42677",
                "leaf": "clip",
                "type": "Leaf"
            }
        ],
        "type": "Normal"
    },
    {
        "children": [
            {
                "data": "3:42739",
                "leaf": "clip",
                "type": "Leaf"
            },
            {
                "data": "2:42720",
                "leaf": "clip",
                "type": "Leaf"
            }
        ],
        "type": "Normal"
    },
    {
        "children": [
            {
                "data": "3:13900",
                "leaf": "clip",
                "type": "Leaf"
            },
            {
                "data": "2:13900",
                "leaf": "clip",
                "type": "Leaf"
            },
            {
                "data": "1:14319",
                "leaf": "clip",
                "type": "Leaf"
            }
        ],
        "type": "Normal"
    },
    {
        "children": [
            {
                "data": "-2:31464",
                "leaf": "subtitle",
                "type": "Leaf"
            },
            {
                "children": [
                    {
                        "data": "2:31411",
                        "leaf": "clip",
                        "type": "Leaf"
                    },
                    {
                        "data": "4:31411",
                        "leaf": "clip",
                        "type": "Leaf"
                    }
                ],
                "type": "Normal"
            }
        ],
        "type": "Normal"
    },
    {
        "children": [
            {
                "data": "1:59918",
                "leaf": "clip",
                "type": "Leaf"
            },
            {
                "data": "4:59918",
                "leaf": "clip",
                "type": "Leaf"
            }
        ],
        "type": "Normal"
    },
    {
        "children": [
            {
                "data": "1:83777",
                "leaf": "clip",
                "type": "Leaf"
            },
            {
                "data": "3:83818",
                "leaf": "clip",
                "type": "Leaf"
            },
            {
                "data": "3:83801",
                "leaf": "clip",
                "type": "Leaf"
            }
        ],
        "type": "Normal"
    },
    {
        "children": [
            {
                "data": "1:30436",
                "leaf": "clip",
                "type": "Leaf"
            },
            {
                "data": "3:30437",
                "leaf": "clip",
                "type": "Leaf"
            }
        ],
        "type": "Normal"
    },
    {
        "children": [
            {
                "data": "3:65855",
                "leaf": "clip",
                "type": "Leaf"
            },
            {
                "data": "3:67635",
                "leaf": "clip",
                "type": "Leaf"
            },
            {
                "data": "2:65855",
                "leaf": "clip",
                "type": "Leaf"
            }
        ],
        "type": "Normal"
    },
    {
        "children": [
            {
                "data": "4:36521",
                "leaf": "clip",
                "type": "Leaf"
            },
            {
                "data": "1:36476",
                "leaf": "clip",
                "type": "Leaf"
            }
        ],
        "type": "Normal"
    },
    {
        "children": [
            {
                "data": "1:67643",
                "leaf": "clip",
                "type": "Leaf"
            },
            {
                "data": "3:67656",
                "leaf": "clip",
                "type": "Leaf"
            }
        ],
        "type": "Normal"
    },
    {
        "children": [
            {
                "data": "3:44307",
                "leaf": "clip",
                "type": "Leaf"
            },
            {
                "data": "2:44307",
                "leaf": "clip",
                "type": "Leaf"
            }
        ],
        "type": "Normal"
    },
    {
        "children": [
            {
                "data": "3:67858",
                "leaf": "clip",
                "type": "Leaf"
            },
            {
                "data": "2:67858",
                "leaf": "clip",
                "type": "Leaf"
            }
        ],
        "type": "Normal"
    },
    {
        "children": [
            {
                "data": "2:10948",
                "leaf": "clip",
                "type": "Leaf"
            },
            {
                "data": "3:10965",
                "leaf": "clip",
                "type": "Leaf"
            }
        ],
        "type": "Normal"
    },
    {
        "children": [
            {
                "data": "3:115556",
                "leaf": "clip",
                "type": "Leaf"
            },
            {
                "data": "3:115470",
                "leaf": "clip",
                "type": "Leaf"
            }
        ],
        "type": "Normal"
    },
    {
        "children": [
            {
                "data": "1:45138",
                "leaf": "clip",
                "type": "Leaf"
            },
            {
                "data": "4:45138",
                "leaf": "clip",
                "type": "Leaf"
            }
        ],
        "type": "Normal"
    },
    {
        "children": [
            {
                "data": "1:64775",
                "leaf": "clip",
                "type": "Leaf"
            },
            {
                "data": "3:64787",
                "leaf": "clip",
                "type": "Leaf"
            }
        ],
        "type": "Normal"
    },
    {
        "children": [
            {
                "data": "1:24426",
                "leaf": "clip",
                "type": "Leaf"
            },
            {
                "data": "3:24426",
                "leaf": "clip",
                "type": "Leaf"
            }
        ],
        "type": "Normal"
    },
    {
        "children": [
            {
                "data": "2:88745",
                "leaf": "clip",
                "type": "Leaf"
            },
            {
                "data": "3:88745",
                "leaf": "clip",
                "type": "Leaf"
            },
            {
                "data": "-2:88790",
                "leaf": "subtitle",
                "type": "Leaf"
            }
        ],
        "type": "Normal"
    },
    {
        "children": [
            {
                "data": "3:84035",
                "leaf": "clip",
                "type": "Leaf"
            },
            {
                "data": "0:84034",
                "leaf": "clip",
                "type": "Leaf"
            }
        ],
        "type": "Normal"
    },
    {
        "children": [
            {
                "data": "-2:61457",
                "leaf": "subtitle",
                "type": "Leaf"
            },
            {
                "children": [
                    {
                        "data": "3:61431",
                        "leaf": "clip",
                        "type": "Leaf"
                    },
                    {
                        "data": "2:61409",
                        "leaf": "clip",
                        "type": "Leaf"
                    }
                ],
                "type": "Normal"
            }
        ],
        "type": "Normal"
    },
    {
        "children": [
            {
                "data": "1:72075",
                "leaf": "clip",
                "type": "Leaf"
            },
            {
                "data": "3:72075",
                "leaf": "clip",
                "type": "Leaf"
            }
        ],
        "type": "Normal"
    },
    {
        "children": [
            {
                "data": "3:44284",
                "leaf": "clip",
                "type": "Leaf"
            },
            {
                "data": "1:44284",
                "leaf": "clip",
                "type": "Leaf"
            },
            {
                "data": "3:44295",
                "leaf": "clip",
                "type": "Leaf"
            }
        ],
        "type": "Normal"
    },
    {
        "children": [
            {
                "data": "3:46760",
                "leaf": "clip",
                "type": "Leaf"
            },
            {
                "data": "2:46749",
                "leaf": "clip",
                "type": "Leaf"
            }
        ],
        "type": "Normal"
    },
    {
        "children": [
            {
                "data": "3:114481",
                "leaf": "clip",
                "type": "Leaf"
            },
            {
                "data": "1:114481",
                "leaf": "clip",
                "type": "Leaf"
            }
        ],
        "type": "Normal"
    },
    {
        "children": [
            {
                "data": "3:83940",
                "leaf": "clip",
                "type": "Leaf"
            },
            {
                "data": "1:83927",
                "leaf": "clip",
                "type": "Leaf"
            }
        ],
        "type": "Normal"
    },
    {
        "children": [
            {
                "data": "1:42796",
                "leaf": "clip",
                "type": "Leaf"
            },
            {
                "data": "3:42775",
                "leaf": "clip",
                "type": "Leaf"
            }
        ],
        "type": "Normal"
    },
    {
        "children": [
            {
                "data": "3:39565",
                "leaf": "clip",
                "type": "Leaf"
            },
            {
                "data": "2:39565",
                "leaf": "clip",
                "type": "Leaf"
            }
        ],
        "type": "Normal"
    },
    {
        "children": [
            {
                "data": "3:115635",
                "leaf": "clip",
                "type": "Leaf"
            },
            {
                "data": "2:115545",
                "leaf": "clip",
                "type": "Leaf"
            }
        ],
        "type": "Normal"
    },
    {
        "children": [
            {
                "data": "-2:3528",
                "leaf": "subtitle",
                "type": "Leaf"
            },
            {
                "children": [
                    {
                        "data": "1:0",
                        "leaf": "clip",
                        "type": "Leaf"
                    },
                    {
                        "data": "3:0",
                        "leaf": "clip",
                        "type": "Leaf"
                    }
                ],
                "type": "Normal"
            }
        ],
        "type": "Normal"
    },
    {
        "children": [
            {
                "data": "2:83817",
                "leaf": "clip",
                "type": "Leaf"
            },
            {
                "data": "3:83823",
                "leaf": "clip",
                "type": "Leaf"
            }
        ],
        "type": "Normal"
    },
    {
        "children": [
            {
                "data": "3:63817",
                "leaf": "clip",
                "type": "Leaf"
            },
            {
                "data": "2:63797",
                "leaf": "clip",
                "type": "Leaf"
            }
        ],
        "type": "Normal"
    },
    {
        "children": [
            {
                "data": "3:82116",
                "leaf": "clip",
                "type": "Leaf"
            },
            {
                "data": "2:82114",
                "leaf": "clip",
                "type": "Leaf"
            },
            {
                "data": "0:80822",
                "leaf": "clip",
                "type": "Leaf"
            }
        ],
        "type": "Normal"
    },
    {
        "children": [
            {
                "data": "3:42942",
                "leaf": "clip",
                "type": "Leaf"
            },
            {
                "data": "2:42942",
                "leaf": "clip",
                "type": "Leaf"
            }
        ],
        "type": "Normal"
    },
    {
        "children": [
            {
                "data": "4:15681",
                "leaf": "clip",
                "type": "Leaf"
            },
            {
                "data": "2:17005",
                "leaf": "clip",
                "type": "Leaf"
            },
            {
                "data": "0:15677",
                "leaf": "clip",
                "type": "Leaf"
            }
        ],
        "type": "Normal"
    }
]
</property>
  <property name="kdenlive:sequenceproperties.guides">[
]
</property>
  <track producer="producer9"/>
  <track producer="tractor0"/>
  <track producer="tractor1"/>
  <track producer="tractor2"/>
  <track producer="tractor3"/>
  <track producer="tractor4"/>
  <transition id="transition0">
   <property name="a_track">0</property>
   <property name="b_track">1</property>
   <property name="mlt_service">mix</property>
   <property name="kdenlive_id">mix</property>
   <property name="internal_added">237</property>
   <property name="always_active">1</property>
   <property name="accepts_blanks">1</property>
   <property name="sum">1</property>
  </transition>
  <transition id="transition1">
   <property name="a_track">0</property>
   <property name="b_track">2</property>
   <property name="mlt_service">mix</property>
   <property name="kdenlive_id">mix</property>
   <property name="internal_added">237</property>
   <property name="always_active">1</property>
   <property name="accepts_blanks">1</property>
   <property name="sum">1</property>
  </transition>
  <transition id="transition2">
   <property name="a_track">0</property>
   <property name="b_track">3</property>
   <property name="mlt_service">mix</property>
   <property name="kdenlive_id">mix</property>
   <property name="internal_added">237</property>
   <property name="always_active">1</property>
   <property name="accepts_blanks">1</property>
   <property name="sum">1</property>
  </transition>
  <transition id="transition3">
   <property name="a_track">0</property>
   <property name="b_track">4</property>
   <property name="compositing">0</property>
   <property name="distort">0</property>
   <property name="rotate_center">0</property>
   <property name="mlt_service">qtblend</property>
   <property name="always_active">1</property>
   <property name="internal_added">237</property>
  </transition>
  <transition id="transition4">
   <property name="a_track">0</property>
   <property name="b_track">5</property>
   <property name="compositing">0</property>
   <property name="distort">0</property>
   <property name="rotate_center">0</property>
   <property name="mlt_service">qtblend</property>
   <property name="always_active">1</property>
   <property name="internal_added">237</property>
  </transition>
  <filter id="filter95">
   <property name="window">75</property>
   <property name="max_gain">20dB</property>
   <property name="mlt_service">volume</property>
   <property name="internal_added">237</property>
   <property name="disable">1</property>
  </filter>
  <filter id="filter96">
   <property name="channel">-1</property>
   <property name="mlt_service">panner</property>
   <property name="internal_added">237</property>
   <property name="start">0.5</property>
   <property name="disable">1</property>
  </filter>
  <filter id="filter97">
   <property name="window">75</property>
   <property name="max_gain">20dB</property>
   <property name="mlt_service">volume</property>
   <property name="internal_added">237</property>
   <property name="disable">1</property>
  </filter>
  <filter id="filter98">
   <property name="channel">-1</property>
   <property name="mlt_service">panner</property>
   <property name="internal_added">237</property>
   <property name="start">0.5</property>
   <property name="disable">1</property>
  </filter>
  <filter id="filter99">
   <property name="mlt_service">avfilter.subtitles</property>
   <property name="internal_added">237</property>
   <property name="av.filename">Monster_15-18_Reunion_1080p_24fps.kdenlive.srt</property>
   <property name="av.force_style">Outline=0,Shadow=1,</property>
  </filter>
 </tractor>
 <chain id="chain8" out="00:01:36.245">
  <property name="length">2308</property>
  <property name="eof">pause</property>
  <property name="resource">/mnt/data1/Anime-Edits/Monster/Monster-Editing/Monster [Ultimate Collection] By Kira [SEV]/Original Soundtracks [2004]/Monster - Original Soundtrack II [2004]/08 - RIGHT AND WRONG.flac</property>
  <property name="mlt_service">avformat-novalidate</property>
  <property name="meta.media.nb_streams">2</property>
  <property name="meta.media.0.stream.type">audio</property>
  <property name="meta.media.0.codec.sample_fmt">s16</property>
  <property name="meta.media.0.codec.sample_rate">44100</property>
  <property name="meta.media.0.codec.channels">2</property>
  <property name="meta.media.0.codec.name">flac</property>
  <property name="meta.media.0.codec.long_name">FLAC (Free Lossless Audio Codec)</property>
  <property name="meta.media.0.codec.bit_rate">0</property>
  <property name="meta.media.1.stream.type">video</property>
  <property name="meta.media.1.stream.frame_rate">90000</property>
  <property name="meta.media.1.stream.sample_aspect_ratio">0</property>
  <property name="meta.media.1.codec.width">1685</property>
  <property name="meta.media.1.codec.height">1475</property>
  <property name="meta.media.1.codec.rotate">0</property>
  <property name="meta.media.1.codec.pix_fmt">yuvj420p</property>
  <property name="meta.media.1.codec.sample_aspect_ratio">0</property>
  <property name="meta.media.1.codec.colorspace">601</property>
  <property name="meta.media.1.codec.name">mjpeg</property>
  <property name="meta.media.1.codec.long_name">MJPEG (Motion JPEG)</property>
  <property name="meta.media.1.codec.bit_rate">0</property>
  <property name="meta.attr.1.stream.comment.markup">Cover (front)</property>
  <property name="meta.attr.TITLE.markup">RIGHT AND WRONG</property>
  <property name="meta.attr.ARTIST.markup">Kuniaki Haishima</property>
  <property name="meta.attr.ALBUM.markup">Monster : Original Soundtrack II</property>
  <property name="meta.attr.DATE.markup">2004</property>
  <property name="meta.attr.GENRE.markup">Anime</property>
  <property name="meta.attr.COMPOSER.markup">Kuniaki Haishima</property>
  <property name="meta.attr.ORIGINALARTIST.markup">Kuniaki Haishima</property>
  <property name="meta.attr.ENCODEDBY.markup">Mr. J</property>
  <property name="meta.attr.track.markup">08/21</property>
  <property name="meta.attr.disc.markup">01/01</property>
  <property name="meta.attr.ORIGARTIST.markup">Kuniaki Haishima</property>
  <property name="meta.attr.ALBUM ARTIST.markup">Kuniaki Haishima</property>
  <property name="meta.attr.ARTISTSORT.markup">Kuniaki Haishima</property>
  <property name="meta.attr.ALBUMARTISTSORT.markup">Kuniaki Haishima</property>
  <property name="meta.attr.ALBUMSORT.markup">Monster : Original Soundtrack II</property>
  <property name="meta.attr.COMPOSERSORT.markup">Kuniaki Haishima</property>
  <property name="meta.attr.SHOWSORT.markup">Monster</property>
  <property name="seekable">1</property>
  <property name="meta.media.sample_aspect_num">1</property>
  <property name="meta.media.sample_aspect_den">1</property>
  <property name="format">3</property>
  <property name="audio_index">0</property>
  <property name="video_index">1</property>
  <property name="vstream">0</property>
  <property name="meta.media.frame_rate_num">90000</property>
  <property name="meta.media.frame_rate_den">1</property>
  <property name="meta.media.colorspace">601</property>
  <property name="meta.media.color_trc">2</property>
  <property name="meta.media.has_b_frames">0</property>
  <property name="meta.media.width">1685</property>
  <property name="meta.media.height">1475</property>
  <property name="meta.media.color_range">full</property>
  <property name="astream">0</property>
  <property name="meta.media.top_field_first">0</property>
  <property name="meta.media.progressive">1</property>
  <property name="kdenlive:folderid">-1</property>
  <property name="kdenlive:id">13</property>
  <property name="mute_on_pause">0</property>
  <property name="kdenlive:clip_type">0</property>
  <property name="kdenlive:file_size">11061155</property>
  <property name="kdenlive:file_hash">dbcd6658df6f24857452c760f084c946</property>
  <property name="kdenlive:audio_max0">237</property>
 </chain>
 <chain id="chain9" out="00:02:07.549">
  <property name="length">3059</property>
  <property name="eof">pause</property>
  <property name="resource">/mnt/data1/Anime-Edits/Monster/Monster-Editing/Monster [Ultimate Collection] By Kira [SEV]/Original Soundtracks [2004]/Monster - Original Soundtrack II [2004]/07 - OUR DESTINATIONS CALLS.flac</property>
  <property name="mlt_service">avformat-novalidate</property>
  <property name="meta.media.nb_streams">2</property>
  <property name="meta.media.0.stream.type">audio</property>
  <property name="meta.media.0.codec.sample_fmt">s16</property>
  <property name="meta.media.0.codec.sample_rate">44100</property>
  <property name="meta.media.0.codec.channels">2</property>
  <property name="meta.media.0.codec.name">flac</property>
  <property name="meta.media.0.codec.long_name">FLAC (Free Lossless Audio Codec)</property>
  <property name="meta.media.0.codec.bit_rate">0</property>
  <property name="meta.media.1.stream.type">video</property>
  <property name="meta.media.1.stream.frame_rate">90000</property>
  <property name="meta.media.1.stream.sample_aspect_ratio">0</property>
  <property name="meta.media.1.codec.width">1685</property>
  <property name="meta.media.1.codec.height">1475</property>
  <property name="meta.media.1.codec.rotate">0</property>
  <property name="meta.media.1.codec.pix_fmt">yuvj420p</property>
  <property name="meta.media.1.codec.sample_aspect_ratio">0</property>
  <property name="meta.media.1.codec.colorspace">601</property>
  <property name="meta.media.1.codec.name">mjpeg</property>
  <property name="meta.media.1.codec.long_name">MJPEG (Motion JPEG)</property>
  <property name="meta.media.1.codec.bit_rate">0</property>
  <property name="meta.attr.1.stream.comment.markup">Cover (front)</property>
  <property name="meta.attr.TITLE.markup">OUR DESTINATIONS CALLS</property>
  <property name="meta.attr.ARTIST.markup">Kuniaki Haishima</property>
  <property name="meta.attr.ALBUM.markup">Monster : Original Soundtrack II</property>
  <property name="meta.attr.DATE.markup">2004</property>
  <property name="meta.attr.GENRE.markup">Anime</property>
  <property name="meta.attr.COMPOSER.markup">Kuniaki Haishima</property>
  <property name="meta.attr.ORIGINALARTIST.markup">Kuniaki Haishima</property>
  <property name="meta.attr.ENCODEDBY.markup">Mr. J</property>
  <property name="meta.attr.track.markup">07/21</property>
  <property name="meta.attr.disc.markup">01/01</property>
  <property name="meta.attr.ORIGARTIST.markup">Kuniaki Haishima</property>
  <property name="meta.attr.ALBUM ARTIST.markup">Kuniaki Haishima</property>
  <property name="meta.attr.ARTISTSORT.markup">Kuniaki Haishima</property>
  <property name="meta.attr.ALBUMARTISTSORT.markup">Kuniaki Haishima</property>
  <property name="meta.attr.ALBUMSORT.markup">Monster : Original Soundtrack II</property>
  <property name="meta.attr.COMPOSERSORT.markup">Kuniaki Haishima</property>
  <property name="meta.attr.SHOWSORT.markup">Monster</property>
  <property name="seekable">1</property>
  <property name="meta.media.sample_aspect_num">1</property>
  <property name="meta.media.sample_aspect_den">1</property>
  <property name="format">3</property>
  <property name="audio_index">0</property>
  <property name="video_index">1</property>
  <property name="vstream">0</property>
  <property name="meta.media.frame_rate_num">90000</property>
  <property name="meta.media.frame_rate_den">1</property>
  <property name="meta.media.colorspace">601</property>
  <property name="meta.media.color_trc">2</property>
  <property name="meta.media.has_b_frames">0</property>
  <property name="meta.media.width">1685</property>
  <property name="meta.media.height">1475</property>
  <property name="meta.media.color_range">full</property>
  <property name="astream">0</property>
  <property name="meta.media.top_field_first">0</property>
  <property name="meta.media.progressive">1</property>
  <property name="kdenlive:folderid">-1</property>
  <property name="kdenlive:id">14</property>
  <property name="mute_on_pause">0</property>
  <property name="kdenlive:clip_type">0</property>
  <property name="kdenlive:file_size">13481643</property>
  <property name="kdenlive:file_hash">7afc9fcbbb84aa71c0974e1c8440db45</property>
  <property name="kdenlive:audio_max0">242</property>
 </chain>
 <playlist id="main_bin">
  <property name="kdenlive:folder.-1.11">Sequences</property>
  <property name="kdenlive:sequenceFolder">11</property>
  <property name="kdenlive:docproperties.audioChannels">2</property>
  <property name="kdenlive:docproperties.browserurl">/home/redxarch/Videos/</property>
  <property name="kdenlive:docproperties.compositing">1</property>
  <property name="kdenlive:docproperties.documentid">1668217499931</property>
  <property name="kdenlive:docproperties.enableTimelineZone">0</property>
  <property name="kdenlive:docproperties.enableexternalproxy">0</property>
  <property name="kdenlive:docproperties.enableproxy">0</property>
  <property name="kdenlive:docproperties.externalproxyparams"/>
  <property name="kdenlive:docproperties.generateimageproxy">0</property>
  <property name="kdenlive:docproperties.generateproxy">0</property>
  <property name="kdenlive:docproperties.guidesCategories">[
    {
        "color": "#9b59b6",
        "comment": "Category 1",
        "index": 0
    },
    {
        "color": "#3daee9",
        "comment": "Category 2",
        "index": 1
    },
    {
        "color": "#1abc9c",
        "comment": "Category 3",
        "index": 2
    },
    {
        "color": "#1cdc9a",
        "comment": "Category 4",
        "index": 3
    },
    {
        "color": "#c9ce3b",
        "comment": "Category 5",
        "index": 4
    },
    {
        "color": "#fdbc4b",
        "comment": "Category 6",
        "index": 5
    },
    {
        "color": "#f39c1f",
        "comment": "Category 7",
        "index": 6
    },
    {
        "color": "#f47750",
        "comment": "Category 8",
        "index": 7
    },
    {
        "color": "#da4453",
        "comment": "Category 9",
        "index": 8
    }
]
</property>
  <property name="kdenlive:docproperties.kdenliveversion">23.08.4</property>
  <property name="kdenlive:docproperties.previewextension"/>
  <property name="kdenlive:docproperties.previewparameters"/>
  <property name="kdenlive:docproperties.profile">/home/redxarch/.local/share/kdenlive/profiles/customprofile0</property>
  <property name="kdenlive:docproperties.proxyextension"/>
  <property name="kdenlive:docproperties.proxyimageminsize">2000</property>
  <property name="kdenlive:docproperties.proxyimagesize">800</property>
  <property name="kdenlive:docproperties.proxyminsize">1000</property>
  <property name="kdenlive:docproperties.proxyparams"/>
  <property name="kdenlive:docproperties.proxyresize">640</property>
  <property name="kdenlive:docproperties.rendercategory">Lossless/HQ</property>
  <property name="kdenlive:docproperties.rendercustomquality">100</property>
  <property name="kdenlive:docproperties.renderendguide">-1</property>
  <property name="kdenlive:docproperties.renderexportaudio">0</property>
  <property name="kdenlive:docproperties.rendermode">0</property>
  <property name="kdenlive:docproperties.renderplay">0</property>
  <property name="kdenlive:docproperties.renderpreview">0</property>
  <property name="kdenlive:docproperties.renderprofile">H.264 (libx264+aac)</property>
  <property name="kdenlive:docproperties.renderratio">0</property>
  <property name="kdenlive:docproperties.renderrescale">0</property>
  <property name="kdenlive:docproperties.renderrescaleheight">1</property>
  <property name="kdenlive:docproperties.renderrescalewidth">1</property>
  <property name="kdenlive:docproperties.renderspeed">1</property>
  <property name="kdenlive:docproperties.renderstartguide">-1</property>
  <property name="kdenlive:docproperties.rendertcoverlay">0</property>
  <property name="kdenlive:docproperties.rendertctype">-1</property>
  <property name="kdenlive:docproperties.rendertwopass">0</property>
  <property name="kdenlive:docproperties.renderurl">/mnt/data1/Anime-Edits/Monster/Monster-Editing/Output/Monster-Edit/Monster_15-18_Reunion_1080p_24fps.mp4</property>
  <property name="kdenlive:docproperties.seekOffset">30000</property>
  <property name="kdenlive:docproperties.uuid">{702b4ae2-0626-4f2a-bf9f-acc886bc01fd}</property>
  <property name="kdenlive:docproperties.version">1.1</property>
  <property name="kdenlive:docproperties.verticalzoom">1</property>
  <property name="kdenlive:docproperties.zoom">6</property>
  <property name="kdenlive:expandedFolders"/>
  <property name="kdenlive:binZoom">0</property>
  <property name="kdenlive:documentnotes">&lt;!DOCTYPE HTML PUBLIC "-//W3C//DTD HTML 4.0//EN" "http://www.w3.org/TR/REC-html40/strict.dtd">
&lt;html>&lt;head>&lt;meta name="qrichtext" content="1" />&lt;style type="text/css">
p, li { white-space: pre-wrap; }
&lt;/style>&lt;/head>&lt;body style=" font-family:'Noto Sans'; font-size:10pt; font-weight:400; font-style:normal;">
&lt;p style=" margin-top:0px; margin-bottom:0px; margin-left:0px; margin-right:0px; -qt-block-indent:0; text-indent:0px;">srt formatting: https://docs.fileformat.com/video/srt/&lt;/p>
&lt;p style=" margin-top:0px; margin-bottom:0px; margin-left:0px; margin-right:0px; -qt-block-indent:0; text-indent:0px;">adding empty char to raise subtitles by a line: https://emptycharacter.com/&lt;/p>&lt;/body>&lt;/html></property>
  <property name="kdenlive:docproperties.opensequences">{702b4ae2-0626-4f2a-bf9f-acc886bc01fd}</property>
  <property name="kdenlive:docproperties.activetimeline">{702b4ae2-0626-4f2a-bf9f-acc886bc01fd}</property>
  <property name="kdenlive:docproperties.renderfullcolorrange">0</property>
  <property name="xml_retain">1</property>
  <entry producer="producer0" in="00:00:00.000" out="00:24:09.509"/>
  <entry producer="producer1" in="00:00:00.000" out="00:23:55.555"/>
  <entry producer="producer2" in="00:00:00.000" out="00:23:55.514"/>
  <entry producer="producer3" in="00:00:00.000" out="00:23:55.472"/>
  <entry producer="producer7" in="00:00:00.000" out="00:23:54.680"/>
  <entry producer="producer4" in="00:00:00.000" out="00:23:55.305"/>
  <entry producer="producer5" in="00:00:00.000" out="00:23:55.430"/>
  <entry producer="producer6" in="00:00:00.000" out="00:23:55.180"/>
  <entry producer="producer8" in="00:00:00.000" out="00:02:41.959"/>
  <entry producer="{702b4ae2-0626-4f2a-bf9f-acc886bc01fd}" in="00:00:00.000" out="01:23:29.029"/>
  <entry producer="chain8" in="00:00:00.000" out="00:01:36.245"/>
  <entry producer="chain9" in="00:00:00.000" out="00:02:07.549"/>
 </playlist>
 <tractor id="tractor5" in="00:00:00.000" out="01:22:52.844">
  <property name="kdenlive:projectTractor">1</property>
  <track producer="{702b4ae2-0626-4f2a-bf9f-acc886bc01fd}" in="00:00:00.000" out="01:22:52.844"/>
 </tractor>
</mlt>
