<?xml version='1.0' encoding='utf-8'?>
<mlt LC_NUMERIC="C" producer="main_bin" root="/mnt/data1/Anime-Edits/Monster/Monster-Editing/Editing" version="7.28.0">
 <profile colorspace="709" description="1440x1080 23.98fps" display_aspect_den="3" display_aspect_num="4" frame_rate_den="1001" frame_rate_num="24000" height="1080" progressive="1" sample_aspect_den="1" sample_aspect_num="1" width="1440"/>
 <chain id="chain16" out="00:23:55.514">
  <property name="length">34418</property>
  <property name="eof">pause</property>
  <property name="resource">/mnt/data1/Anime-Edits/Monster/Monster-Editing/Orig/Monster - Chapter 47 - The Door To A Nightmare.mkv</property>
  <property name="mlt_service">avformat-novalidate</property>
  <property name="meta.media.nb_streams">29</property>
  <property name="meta.media.0.stream.type">video</property>
  <property name="meta.media.0.stream.frame_rate">23.976</property>
  <property name="meta.media.0.stream.sample_aspect_ratio">1</property>
  <property name="meta.media.0.codec.width">1440</property>
  <property name="meta.media.0.codec.height">1080</property>
  <property name="meta.media.0.codec.rotate">0</property>
  <property name="meta.media.0.codec.pix_fmt">yuv420p10le</property>
  <property name="meta.media.0.codec.sample_aspect_ratio">1</property>
  <property name="meta.media.0.codec.colorspace">709</property>
  <property name="meta.media.0.codec.color_trc">1</property>
  <property name="meta.media.0.codec.name">hevc</property>
  <property name="meta.media.0.codec.long_name">HEVC (High Efficiency Video Coding)</property>
  <property name="meta.media.0.codec.bit_rate">0</property>
  <property name="meta.attr.0.stream.BPS-eng.markup">2017639</property>
  <property name="meta.attr.0.stream.DURATION-eng.markup">00:23:55.518000000</property>
  <property name="meta.attr.0.stream.NUMBER_OF_FRAMES-eng.markup">34418</property>
  <property name="meta.attr.0.stream.NUMBER_OF_BYTES-eng.markup">362044719</property>
  <property name="meta.attr.0.stream._STATISTICS_WRITING_APP-eng.markup">mkvmerge v52.0.0 ('Secret For The Mad') 64-bit</property>
  <property name="meta.attr.0.stream._STATISTICS_WRITING_DATE_UTC-eng.markup">2023-01-09 17:56:12</property>
  <property name="meta.attr.0.stream._STATISTICS_TAGS-eng.markup">BPS DURATION NUMBER_OF_FRAMES NUMBER_OF_BYTES</property>
  <property name="meta.media.1.stream.type">audio</property>
  <property name="meta.media.1.codec.sample_fmt">fltp</property>
  <property name="meta.media.1.codec.sample_rate">48000</property>
  <property name="meta.media.1.codec.channels">2</property>
  <property name="meta.media.1.codec.layout">stereo</property>
  <property name="meta.media.1.codec.name">ac3</property>
  <property name="meta.media.1.codec.long_name">ATSC A/52A (AC-3)</property>
  <property name="meta.media.1.codec.bit_rate">448000</property>
  <property name="meta.attr.1.stream.language.markup">jpn</property>
  <property name="meta.attr.1.stream.title.markup">Japanese DVD AC-3 DD_2.0</property>
  <property name="meta.attr.1.stream.BPS-eng.markup">448000</property>
  <property name="meta.attr.1.stream.DURATION-eng.markup">00:23:55.520000000</property>
  <property name="meta.attr.1.stream.NUMBER_OF_FRAMES-eng.markup">44860</property>
  <property name="meta.attr.1.stream.NUMBER_OF_BYTES-eng.markup">80389120</property>
  <property name="meta.attr.1.stream._STATISTICS_WRITING_APP-eng.markup">mkvmerge v52.0.0 ('Secret For The Mad') 64-bit</property>
  <property name="meta.attr.1.stream._STATISTICS_WRITING_DATE_UTC-eng.markup">2023-01-09 17:56:12</property>
  <property name="meta.attr.1.stream._STATISTICS_TAGS-eng.markup">BPS DURATION NUMBER_OF_FRAMES NUMBER_OF_BYTES</property>
  <property name="meta.media.2.stream.type">audio</property>
  <property name="meta.media.2.codec.sample_fmt">fltp</property>
  <property name="meta.media.2.codec.sample_rate">44100</property>
  <property name="meta.media.2.codec.channels">2</property>
  <property name="meta.media.2.codec.layout">stereo</property>
  <property name="meta.media.2.codec.name">aac</property>
  <property name="meta.media.2.codec.long_name">AAC (Advanced Audio Coding)</property>
  <property name="meta.media.2.codec.bit_rate">0</property>
  <property name="meta.attr.2.stream.language.markup">eng</property>
  <property name="meta.attr.2.stream.title.markup">English AAC DD_2.0</property>
  <property name="meta.attr.2.stream.BPS-eng.markup">135765</property>
  <property name="meta.attr.2.stream.DURATION-eng.markup">00:23:55.434000000</property>
  <property name="meta.attr.2.stream.NUMBER_OF_FRAMES-eng.markup">61819</property>
  <property name="meta.attr.2.stream.NUMBER_OF_BYTES-eng.markup">24360273</property>
  <property name="meta.attr.2.stream._STATISTICS_WRITING_APP-eng.markup">mkvmerge v52.0.0 ('Secret For The Mad') 64-bit</property>
  <property name="meta.attr.2.stream._STATISTICS_WRITING_DATE_UTC-eng.markup">2023-01-09 17:56:12</property>
  <property name="meta.attr.2.stream._STATISTICS_TAGS-eng.markup">BPS DURATION NUMBER_OF_FRAMES NUMBER_OF_BYTES</property>
  <property name="meta.media.3.codec.name">ssa</property>
  <property name="meta.media.3.codec.long_name">ASS (Advanced SubStation Alpha) subtitle</property>
  <property name="meta.media.3.codec.bit_rate">0</property>
  <property name="meta.attr.3.stream.language.markup">eng</property>
  <property name="meta.attr.3.stream.title.markup">English (Full) ASS</property>
  <property name="meta.attr.3.stream.BPS-eng.markup">109</property>
  <property name="meta.attr.3.stream.DURATION-eng.markup">00:23:33.030000000</property>
  <property name="meta.attr.3.stream.NUMBER_OF_FRAMES-eng.markup">350</property>
  <property name="meta.attr.3.stream.NUMBER_OF_BYTES-eng.markup">19337</property>
  <property name="meta.attr.3.stream._STATISTICS_WRITING_APP-eng.markup">mkvmerge v52.0.0 ('Secret For The Mad') 64-bit</property>
  <property name="meta.attr.3.stream._STATISTICS_WRITING_DATE_UTC-eng.markup">2023-01-09 17:56:12</property>
  <property name="meta.attr.3.stream._STATISTICS_TAGS-eng.markup">BPS DURATION NUMBER_OF_FRAMES NUMBER_OF_BYTES</property>
  <property name="meta.media.4.codec.name">ssa</property>
  <property name="meta.media.4.codec.long_name">ASS (Advanced SubStation Alpha) subtitle</property>
  <property name="meta.media.4.codec.bit_rate">0</property>
  <property name="meta.attr.4.stream.language.markup">eng</property>
  <property name="meta.attr.4.stream.title.markup">English (Titles &amp; Signs) ASS</property>
  <property name="meta.attr.4.stream.BPS-eng.markup">0</property>
  <property name="meta.attr.4.stream.DURATION-eng.markup">00:20:48.120000000</property>
  <property name="meta.attr.4.stream.NUMBER_OF_FRAMES-eng.markup">2</property>
  <property name="meta.attr.4.stream.NUMBER_OF_BYTES-eng.markup">147</property>
  <property name="meta.attr.4.stream._STATISTICS_WRITING_APP-eng.markup">mkvmerge v52.0.0 ('Secret For The Mad') 64-bit</property>
  <property name="meta.attr.4.stream._STATISTICS_WRITING_DATE_UTC-eng.markup">2023-01-09 17:56:12</property>
  <property name="meta.attr.4.stream._STATISTICS_TAGS-eng.markup">BPS DURATION NUMBER_OF_FRAMES NUMBER_OF_BYTES</property>
  <property name="meta.media.5.codec.name">ssa</property>
  <property name="meta.media.5.codec.long_name">ASS (Advanced SubStation Alpha) subtitle</property>
  <property name="meta.media.5.codec.bit_rate">0</property>
  <property name="meta.attr.5.stream.language.markup">ara</property>
  <property name="meta.attr.5.stream.title.markup">Arabic</property>
  <property name="meta.attr.5.stream.BPS-eng.markup">123</property>
  <property name="meta.attr.5.stream.DURATION-eng.markup">00:22:06.340000000</property>
  <property name="meta.attr.5.stream.NUMBER_OF_FRAMES-eng.markup">337</property>
  <property name="meta.attr.5.stream.NUMBER_OF_BYTES-eng.markup">20546</property>
  <property name="meta.attr.5.stream._STATISTICS_WRITING_APP-eng.markup">mkvmerge v52.0.0 ('Secret For The Mad') 64-bit</property>
  <property name="meta.attr.5.stream._STATISTICS_WRITING_DATE_UTC-eng.markup">2023-01-09 17:56:12</property>
  <property name="meta.attr.5.stream._STATISTICS_TAGS-eng.markup">BPS DURATION NUMBER_OF_FRAMES NUMBER_OF_BYTES</property>
  <property name="meta.attr.title.markup">Monster : Chapter 47 : The Door To A Nightmare</property>
  <property name="meta.attr.encoder.markup">libebml v1.4.1 + libmatroska v1.6.2</property>
  <property name="meta.attr.creation_time.markup">2023-01-09T17:56:12.000000Z</property>
  <property name="seekable">1</property>
  <property name="meta.media.sample_aspect_num">1</property>
  <property name="meta.media.sample_aspect_den">1</property>
  <property name="format">3</property>
  <property name="audio_index">1</property>
  <property name="video_index">0</property>
  <property name="vstream">0</property>
  <property name="meta.media.frame_rate_num">24000</property>
  <property name="meta.media.frame_rate_den">1001</property>
  <property name="meta.media.colorspace">709</property>
  <property name="meta.media.color_trc">1</property>
  <property name="meta.media.has_b_frames">2</property>
  <property name="meta.media.width">1440</property>
  <property name="meta.media.height">1080</property>
  <property name="meta.media.aspect_ratio">1</property>
  <property name="meta.media.color_range">mpeg</property>
  <property name="astream">0</property>
  <property name="meta.media.top_field_first">0</property>
  <property name="meta.media.progressive">1</property>
  <property name="kdenlive:control_uuid">{e2f862f6-e57a-4bde-89b7-247ae4830858}</property>
  <property name="kdenlive:id">4</property>
  <property name="kdenlive:clip_type">0</property>
  <property name="kdenlive:file_size">470388560</property>
  <property name="kdenlive:file_hash">7f8f44fadf59a17a87b6819d7edeb574</property>
  <property name="kdenlive:folderid">-1</property>
  <property name="kdenlive:monitorPosition">0</property>
  <property name="kdenlive:audio_max1">192</property>
  <property name="kdenlive:audio_max2">194</property>
  <property name="mute_on_pause">0</property>
  <property name="kdenlive:active_streams">1;2</property>
 </chain>
 <chain id="chain14" out="00:23:55.555">
  <property name="length">34419</property>
  <property name="eof">pause</property>
  <property name="resource">/mnt/data1/Anime-Edits/Monster/Monster-Editing/Orig/Monster - Chapter 48 - The Most Frightening Thing.mkv</property>
  <property name="mlt_service">avformat-novalidate</property>
  <property name="meta.media.nb_streams">29</property>
  <property name="meta.media.0.stream.type">video</property>
  <property name="meta.media.0.stream.frame_rate">23.976</property>
  <property name="meta.media.0.stream.sample_aspect_ratio">1</property>
  <property name="meta.media.0.codec.width">1440</property>
  <property name="meta.media.0.codec.height">1080</property>
  <property name="meta.media.0.codec.rotate">0</property>
  <property name="meta.media.0.codec.pix_fmt">yuv420p10le</property>
  <property name="meta.media.0.codec.sample_aspect_ratio">1</property>
  <property name="meta.media.0.codec.colorspace">709</property>
  <property name="meta.media.0.codec.color_trc">1</property>
  <property name="meta.media.0.codec.name">hevc</property>
  <property name="meta.media.0.codec.long_name">HEVC (High Efficiency Video Coding)</property>
  <property name="meta.media.0.codec.bit_rate">0</property>
  <property name="meta.attr.0.stream.BPS-eng.markup">2092995</property>
  <property name="meta.attr.0.stream.DURATION-eng.markup">00:23:55.518000000</property>
  <property name="meta.attr.0.stream.NUMBER_OF_FRAMES-eng.markup">34418</property>
  <property name="meta.attr.0.stream.NUMBER_OF_BYTES-eng.markup">375566518</property>
  <property name="meta.attr.0.stream._STATISTICS_WRITING_APP-eng.markup">mkvmerge v52.0.0 ('Secret For The Mad') 64-bit</property>
  <property name="meta.attr.0.stream._STATISTICS_WRITING_DATE_UTC-eng.markup">2023-01-09 17:58:28</property>
  <property name="meta.attr.0.stream._STATISTICS_TAGS-eng.markup">BPS DURATION NUMBER_OF_FRAMES NUMBER_OF_BYTES</property>
  <property name="meta.media.1.stream.type">audio</property>
  <property name="meta.media.1.codec.sample_fmt">fltp</property>
  <property name="meta.media.1.codec.sample_rate">48000</property>
  <property name="meta.media.1.codec.channels">2</property>
  <property name="meta.media.1.codec.layout">stereo</property>
  <property name="meta.media.1.codec.name">ac3</property>
  <property name="meta.media.1.codec.long_name">ATSC A/52A (AC-3)</property>
  <property name="meta.media.1.codec.bit_rate">448000</property>
  <property name="meta.attr.1.stream.language.markup">jpn</property>
  <property name="meta.attr.1.stream.title.markup">Japanese DVD AC-3 DD_2.0</property>
  <property name="meta.attr.1.stream.BPS-eng.markup">448000</property>
  <property name="meta.attr.1.stream.DURATION-eng.markup">00:23:55.552000000</property>
  <property name="meta.attr.1.stream.NUMBER_OF_FRAMES-eng.markup">44861</property>
  <property name="meta.attr.1.stream.NUMBER_OF_BYTES-eng.markup">80390912</property>
  <property name="meta.attr.1.stream._STATISTICS_WRITING_APP-eng.markup">mkvmerge v52.0.0 ('Secret For The Mad') 64-bit</property>
  <property name="meta.attr.1.stream._STATISTICS_WRITING_DATE_UTC-eng.markup">2023-01-09 17:58:28</property>
  <property name="meta.attr.1.stream._STATISTICS_TAGS-eng.markup">BPS DURATION NUMBER_OF_FRAMES NUMBER_OF_BYTES</property>
  <property name="meta.media.2.stream.type">audio</property>
  <property name="meta.media.2.codec.sample_fmt">fltp</property>
  <property name="meta.media.2.codec.sample_rate">44100</property>
  <property name="meta.media.2.codec.channels">2</property>
  <property name="meta.media.2.codec.layout">stereo</property>
  <property name="meta.media.2.codec.name">aac</property>
  <property name="meta.media.2.codec.long_name">AAC (Advanced Audio Coding)</property>
  <property name="meta.media.2.codec.bit_rate">0</property>
  <property name="meta.attr.2.stream.language.markup">eng</property>
  <property name="meta.attr.2.stream.title.markup">English AAC DD_2.0</property>
  <property name="meta.attr.2.stream.BPS-eng.markup">139646</property>
  <property name="meta.attr.2.stream.DURATION-eng.markup">00:23:55.294000000</property>
  <property name="meta.attr.2.stream.NUMBER_OF_FRAMES-eng.markup">61813</property>
  <property name="meta.attr.2.stream.NUMBER_OF_BYTES-eng.markup">25054209</property>
  <property name="meta.attr.2.stream._STATISTICS_WRITING_APP-eng.markup">mkvmerge v52.0.0 ('Secret For The Mad') 64-bit</property>
  <property name="meta.attr.2.stream._STATISTICS_WRITING_DATE_UTC-eng.markup">2023-01-09 17:58:28</property>
  <property name="meta.attr.2.stream._STATISTICS_TAGS-eng.markup">BPS DURATION NUMBER_OF_FRAMES NUMBER_OF_BYTES</property>
  <property name="meta.media.3.codec.name">ssa</property>
  <property name="meta.media.3.codec.long_name">ASS (Advanced SubStation Alpha) subtitle</property>
  <property name="meta.media.3.codec.bit_rate">0</property>
  <property name="meta.attr.3.stream.language.markup">eng</property>
  <property name="meta.attr.3.stream.title.markup">English (Full) ASS</property>
  <property name="meta.attr.3.stream.BPS-eng.markup">108</property>
  <property name="meta.attr.3.stream.DURATION-eng.markup">00:23:49.450000000</property>
  <property name="meta.attr.3.stream.NUMBER_OF_FRAMES-eng.markup">346</property>
  <property name="meta.attr.3.stream.NUMBER_OF_BYTES-eng.markup">19405</property>
  <property name="meta.attr.3.stream._STATISTICS_WRITING_APP-eng.markup">mkvmerge v52.0.0 ('Secret For The Mad') 64-bit</property>
  <property name="meta.attr.3.stream._STATISTICS_WRITING_DATE_UTC-eng.markup">2023-01-09 17:58:28</property>
  <property name="meta.attr.3.stream._STATISTICS_TAGS-eng.markup">BPS DURATION NUMBER_OF_FRAMES NUMBER_OF_BYTES</property>
  <property name="meta.media.4.codec.name">ssa</property>
  <property name="meta.media.4.codec.long_name">ASS (Advanced SubStation Alpha) subtitle</property>
  <property name="meta.media.4.codec.bit_rate">0</property>
  <property name="meta.attr.4.stream.language.markup">eng</property>
  <property name="meta.attr.4.stream.title.markup">English (Titles &amp; Signs) ASS</property>
  <property name="meta.attr.4.stream.BPS-eng.markup">1</property>
  <property name="meta.attr.4.stream.DURATION-eng.markup">00:18:06.420000000</property>
  <property name="meta.attr.4.stream.NUMBER_OF_FRAMES-eng.markup">4</property>
  <property name="meta.attr.4.stream.NUMBER_OF_BYTES-eng.markup">268</property>
  <property name="meta.attr.4.stream._STATISTICS_WRITING_APP-eng.markup">mkvmerge v52.0.0 ('Secret For The Mad') 64-bit</property>
  <property name="meta.attr.4.stream._STATISTICS_WRITING_DATE_UTC-eng.markup">2023-01-09 17:58:28</property>
  <property name="meta.attr.4.stream._STATISTICS_TAGS-eng.markup">BPS DURATION NUMBER_OF_FRAMES NUMBER_OF_BYTES</property>
  <property name="meta.media.5.codec.name">ssa</property>
  <property name="meta.media.5.codec.long_name">ASS (Advanced SubStation Alpha) subtitle</property>
  <property name="meta.media.5.codec.bit_rate">0</property>
  <property name="meta.attr.5.stream.language.markup">ara</property>
  <property name="meta.attr.5.stream.title.markup">Arabic</property>
  <property name="meta.attr.5.stream.BPS-eng.markup">123</property>
  <property name="meta.attr.5.stream.DURATION-eng.markup">00:22:19.420000000</property>
  <property name="meta.attr.5.stream.NUMBER_OF_FRAMES-eng.markup">325</property>
  <property name="meta.attr.5.stream.NUMBER_OF_BYTES-eng.markup">20672</property>
  <property name="meta.attr.5.stream._STATISTICS_WRITING_APP-eng.markup">mkvmerge v52.0.0 ('Secret For The Mad') 64-bit</property>
  <property name="meta.attr.5.stream._STATISTICS_WRITING_DATE_UTC-eng.markup">2023-01-09 17:58:28</property>
  <property name="meta.attr.5.stream._STATISTICS_TAGS-eng.markup">BPS DURATION NUMBER_OF_FRAMES NUMBER_OF_BYTES</property>
  <property name="meta.attr.title.markup">Monster : Chapter 48 : The Most Frightening Thing</property>
  <property name="meta.attr.encoder.markup">libebml v1.4.1 + libmatroska v1.6.2</property>
  <property name="meta.attr.creation_time.markup">2023-01-09T17:58:28.000000Z</property>
  <property name="seekable">1</property>
  <property name="meta.media.sample_aspect_num">1</property>
  <property name="meta.media.sample_aspect_den">1</property>
  <property name="format">3</property>
  <property name="audio_index">1</property>
  <property name="video_index">0</property>
  <property name="vstream">0</property>
  <property name="meta.media.frame_rate_num">24000</property>
  <property name="meta.media.frame_rate_den">1001</property>
  <property name="meta.media.colorspace">709</property>
  <property name="meta.media.color_trc">1</property>
  <property name="meta.media.has_b_frames">2</property>
  <property name="meta.media.width">1440</property>
  <property name="meta.media.height">1080</property>
  <property name="meta.media.aspect_ratio">1</property>
  <property name="meta.media.color_range">mpeg</property>
  <property name="astream">0</property>
  <property name="meta.media.top_field_first">0</property>
  <property name="meta.media.progressive">1</property>
  <property name="kdenlive:control_uuid">{04d31486-686e-48ad-a98d-f7b32908f37a}</property>
  <property name="kdenlive:id">5</property>
  <property name="kdenlive:clip_type">0</property>
  <property name="kdenlive:file_size">484605456</property>
  <property name="kdenlive:file_hash">527f581f630d8ef3b462e0d24c5bd97e</property>
  <property name="kdenlive:folderid">-1</property>
  <property name="kdenlive:audio_max1">211</property>
  <property name="kdenlive:audio_max2">214</property>
  <property name="kdenlive:monitorPosition">0</property>
  <property name="mute_on_pause">0</property>
  <property name="kdenlive:active_streams">1;2</property>
 </chain>
 <chain id="chain17" out="00:24:09.593">
  <property name="length">34756</property>
  <property name="eof">pause</property>
  <property name="resource">/mnt/data1/Anime-Edits/Monster/Monster-Editing/Orig/Monster - Chapter 49 - The Cruelest Thing.mkv</property>
  <property name="mlt_service">avformat-novalidate</property>
  <property name="meta.media.nb_streams">29</property>
  <property name="meta.media.0.stream.type">video</property>
  <property name="meta.media.0.stream.frame_rate">23.976</property>
  <property name="meta.media.0.stream.sample_aspect_ratio">1</property>
  <property name="meta.media.0.codec.width">1440</property>
  <property name="meta.media.0.codec.height">1080</property>
  <property name="meta.media.0.codec.rotate">0</property>
  <property name="meta.media.0.codec.pix_fmt">yuv420p10le</property>
  <property name="meta.media.0.codec.sample_aspect_ratio">1</property>
  <property name="meta.media.0.codec.colorspace">709</property>
  <property name="meta.media.0.codec.color_trc">1</property>
  <property name="meta.media.0.codec.name">hevc</property>
  <property name="meta.media.0.codec.long_name">HEVC (High Efficiency Video Coding)</property>
  <property name="meta.media.0.codec.bit_rate">0</property>
  <property name="meta.attr.0.stream.BPS-eng.markup">1909238</property>
  <property name="meta.attr.0.stream.DURATION-eng.markup">00:24:09.615000000</property>
  <property name="meta.attr.0.stream.NUMBER_OF_FRAMES-eng.markup">34756</property>
  <property name="meta.attr.0.stream.NUMBER_OF_BYTES-eng.markup">345957539</property>
  <property name="meta.attr.0.stream._STATISTICS_WRITING_APP-eng.markup">mkvmerge v52.0.0 ('Secret For The Mad') 64-bit</property>
  <property name="meta.attr.0.stream._STATISTICS_WRITING_DATE_UTC-eng.markup">2023-01-09 18:00:40</property>
  <property name="meta.attr.0.stream._STATISTICS_TAGS-eng.markup">BPS DURATION NUMBER_OF_FRAMES NUMBER_OF_BYTES</property>
  <property name="meta.media.1.stream.type">audio</property>
  <property name="meta.media.1.codec.sample_fmt">fltp</property>
  <property name="meta.media.1.codec.sample_rate">48000</property>
  <property name="meta.media.1.codec.channels">2</property>
  <property name="meta.media.1.codec.layout">stereo</property>
  <property name="meta.media.1.codec.name">ac3</property>
  <property name="meta.media.1.codec.long_name">ATSC A/52A (AC-3)</property>
  <property name="meta.media.1.codec.bit_rate">448000</property>
  <property name="meta.attr.1.stream.language.markup">jpn</property>
  <property name="meta.attr.1.stream.title.markup">Japanese DVD AC-3 DD_2.0</property>
  <property name="meta.attr.1.stream.BPS-eng.markup">448000</property>
  <property name="meta.attr.1.stream.DURATION-eng.markup">00:24:09.504000000</property>
  <property name="meta.attr.1.stream.NUMBER_OF_FRAMES-eng.markup">45297</property>
  <property name="meta.attr.1.stream.NUMBER_OF_BYTES-eng.markup">81172224</property>
  <property name="meta.attr.1.stream._STATISTICS_WRITING_APP-eng.markup">mkvmerge v52.0.0 ('Secret For The Mad') 64-bit</property>
  <property name="meta.attr.1.stream._STATISTICS_WRITING_DATE_UTC-eng.markup">2023-01-09 18:00:40</property>
  <property name="meta.attr.1.stream._STATISTICS_TAGS-eng.markup">BPS DURATION NUMBER_OF_FRAMES NUMBER_OF_BYTES</property>
  <property name="meta.media.2.stream.type">audio</property>
  <property name="meta.media.2.codec.sample_fmt">fltp</property>
  <property name="meta.media.2.codec.sample_rate">44100</property>
  <property name="meta.media.2.codec.channels">2</property>
  <property name="meta.media.2.codec.layout">stereo</property>
  <property name="meta.media.2.codec.name">aac</property>
  <property name="meta.media.2.codec.long_name">AAC (Advanced Audio Coding)</property>
  <property name="meta.media.2.codec.bit_rate">0</property>
  <property name="meta.attr.2.stream.language.markup">eng</property>
  <property name="meta.attr.2.stream.title.markup">English AAC DD_2.0</property>
  <property name="meta.attr.2.stream.BPS-eng.markup">141899</property>
  <property name="meta.attr.2.stream.DURATION-eng.markup">00:23:54.830000000</property>
  <property name="meta.attr.2.stream.NUMBER_OF_FRAMES-eng.markup">61793</property>
  <property name="meta.attr.2.stream.NUMBER_OF_BYTES-eng.markup">25450280</property>
  <property name="meta.attr.2.stream._STATISTICS_WRITING_APP-eng.markup">mkvmerge v52.0.0 ('Secret For The Mad') 64-bit</property>
  <property name="meta.attr.2.stream._STATISTICS_WRITING_DATE_UTC-eng.markup">2023-01-09 18:00:40</property>
  <property name="meta.attr.2.stream._STATISTICS_TAGS-eng.markup">BPS DURATION NUMBER_OF_FRAMES NUMBER_OF_BYTES</property>
  <property name="meta.media.3.codec.name">ssa</property>
  <property name="meta.media.3.codec.long_name">ASS (Advanced SubStation Alpha) subtitle</property>
  <property name="meta.media.3.codec.bit_rate">0</property>
  <property name="meta.attr.3.stream.language.markup">eng</property>
  <property name="meta.attr.3.stream.title.markup">English (Full) ASS</property>
  <property name="meta.attr.3.stream.BPS-eng.markup">97</property>
  <property name="meta.attr.3.stream.DURATION-eng.markup">00:23:52.430000000</property>
  <property name="meta.attr.3.stream.NUMBER_OF_FRAMES-eng.markup">338</property>
  <property name="meta.attr.3.stream.NUMBER_OF_BYTES-eng.markup">17381</property>
  <property name="meta.attr.3.stream._STATISTICS_WRITING_APP-eng.markup">mkvmerge v52.0.0 ('Secret For The Mad') 64-bit</property>
  <property name="meta.attr.3.stream._STATISTICS_WRITING_DATE_UTC-eng.markup">2023-01-09 18:00:40</property>
  <property name="meta.attr.3.stream._STATISTICS_TAGS-eng.markup">BPS DURATION NUMBER_OF_FRAMES NUMBER_OF_BYTES</property>
  <property name="meta.media.4.codec.name">ssa</property>
  <property name="meta.media.4.codec.long_name">ASS (Advanced SubStation Alpha) subtitle</property>
  <property name="meta.media.4.codec.bit_rate">0</property>
  <property name="meta.attr.4.stream.language.markup">eng</property>
  <property name="meta.attr.4.stream.title.markup">English (Titles &amp; Signs) ASS</property>
  <property name="meta.attr.4.stream.BPS-eng.markup">2</property>
  <property name="meta.attr.4.stream.DURATION-eng.markup">00:23:52.430000000</property>
  <property name="meta.attr.4.stream.NUMBER_OF_FRAMES-eng.markup">7</property>
  <property name="meta.attr.4.stream.NUMBER_OF_BYTES-eng.markup">499</property>
  <property name="meta.attr.4.stream._STATISTICS_WRITING_APP-eng.markup">mkvmerge v52.0.0 ('Secret For The Mad') 64-bit</property>
  <property name="meta.attr.4.stream._STATISTICS_WRITING_DATE_UTC-eng.markup">2023-01-09 18:00:40</property>
  <property name="meta.attr.4.stream._STATISTICS_TAGS-eng.markup">BPS DURATION NUMBER_OF_FRAMES NUMBER_OF_BYTES</property>
  <property name="meta.media.5.codec.name">ssa</property>
  <property name="meta.media.5.codec.long_name">ASS (Advanced SubStation Alpha) subtitle</property>
  <property name="meta.media.5.codec.bit_rate">0</property>
  <property name="meta.attr.5.stream.language.markup">ara</property>
  <property name="meta.attr.5.stream.title.markup">Arabic</property>
  <property name="meta.attr.5.stream.BPS-eng.markup">109</property>
  <property name="meta.attr.5.stream.DURATION-eng.markup">00:22:18.930000000</property>
  <property name="meta.attr.5.stream.NUMBER_OF_FRAMES-eng.markup">320</property>
  <property name="meta.attr.5.stream.NUMBER_OF_BYTES-eng.markup">18334</property>
  <property name="meta.attr.5.stream._STATISTICS_WRITING_APP-eng.markup">mkvmerge v52.0.0 ('Secret For The Mad') 64-bit</property>
  <property name="meta.attr.5.stream._STATISTICS_WRITING_DATE_UTC-eng.markup">2023-01-09 18:00:40</property>
  <property name="meta.attr.5.stream._STATISTICS_TAGS-eng.markup">BPS DURATION NUMBER_OF_FRAMES NUMBER_OF_BYTES</property>
  <property name="meta.attr.title.markup">Monster : Chapter 49 : The Cruelest Thing</property>
  <property name="meta.attr.encoder.markup">libebml v1.4.1 + libmatroska v1.6.2</property>
  <property name="meta.attr.creation_time.markup">2023-01-09T18:00:40.000000Z</property>
  <property name="seekable">1</property>
  <property name="meta.media.sample_aspect_num">1</property>
  <property name="meta.media.sample_aspect_den">1</property>
  <property name="format">3</property>
  <property name="audio_index">1</property>
  <property name="video_index">0</property>
  <property name="vstream">0</property>
  <property name="meta.media.frame_rate_num">24000</property>
  <property name="meta.media.frame_rate_den">1001</property>
  <property name="meta.media.colorspace">709</property>
  <property name="meta.media.color_trc">1</property>
  <property name="meta.media.has_b_frames">2</property>
  <property name="meta.media.width">1440</property>
  <property name="meta.media.height">1080</property>
  <property name="meta.media.aspect_ratio">1</property>
  <property name="meta.media.color_range">mpeg</property>
  <property name="astream">0</property>
  <property name="meta.media.top_field_first">0</property>
  <property name="meta.media.progressive">1</property>
  <property name="kdenlive:control_uuid">{828a9f44-9650-4c27-b9fa-fe14d22ce6f9}</property>
  <property name="kdenlive:id">6</property>
  <property name="kdenlive:clip_type">0</property>
  <property name="kdenlive:file_size">456169693</property>
  <property name="kdenlive:file_hash">8f51c068e177037acf4549f45c6c67ab</property>
  <property name="kdenlive:folderid">-1</property>
  <property name="kdenlive:audio_max1">179</property>
  <property name="kdenlive:audio_max2">199</property>
  <property name="kdenlive:monitorPosition">0</property>
  <property name="mute_on_pause">0</property>
  <property name="kdenlive:active_streams">1;2</property>
 </chain>
 <chain id="chain15" out="00:23:55.555">
  <property name="length">34419</property>
  <property name="eof">pause</property>
  <property name="resource">/mnt/data1/Anime-Edits/Monster/Monster-Editing/Orig/Monster - Chapter 50 - The Rose Mansion.mkv</property>
  <property name="mlt_service">avformat-novalidate</property>
  <property name="meta.media.nb_streams">29</property>
  <property name="meta.media.0.stream.type">video</property>
  <property name="meta.media.0.stream.frame_rate">23.976</property>
  <property name="meta.media.0.stream.sample_aspect_ratio">1</property>
  <property name="meta.media.0.codec.width">1440</property>
  <property name="meta.media.0.codec.height">1080</property>
  <property name="meta.media.0.codec.rotate">0</property>
  <property name="meta.media.0.codec.pix_fmt">yuv420p10le</property>
  <property name="meta.media.0.codec.sample_aspect_ratio">1</property>
  <property name="meta.media.0.codec.colorspace">709</property>
  <property name="meta.media.0.codec.color_trc">1</property>
  <property name="meta.media.0.codec.name">hevc</property>
  <property name="meta.media.0.codec.long_name">HEVC (High Efficiency Video Coding)</property>
  <property name="meta.media.0.codec.bit_rate">0</property>
  <property name="meta.attr.0.stream.BPS-eng.markup">2052640</property>
  <property name="meta.attr.0.stream.DURATION-eng.markup">00:23:55.518000000</property>
  <property name="meta.attr.0.stream.NUMBER_OF_FRAMES-eng.markup">34418</property>
  <property name="meta.attr.0.stream.NUMBER_OF_BYTES-eng.markup">368325305</property>
  <property name="meta.attr.0.stream._STATISTICS_WRITING_APP-eng.markup">mkvmerge v52.0.0 ('Secret For The Mad') 64-bit</property>
  <property name="meta.attr.0.stream._STATISTICS_WRITING_DATE_UTC-eng.markup">2023-01-16 18:06:53</property>
  <property name="meta.attr.0.stream._STATISTICS_TAGS-eng.markup">BPS DURATION NUMBER_OF_FRAMES NUMBER_OF_BYTES</property>
  <property name="meta.media.1.stream.type">audio</property>
  <property name="meta.media.1.codec.sample_fmt">fltp</property>
  <property name="meta.media.1.codec.sample_rate">48000</property>
  <property name="meta.media.1.codec.channels">2</property>
  <property name="meta.media.1.codec.layout">stereo</property>
  <property name="meta.media.1.codec.name">ac3</property>
  <property name="meta.media.1.codec.long_name">ATSC A/52A (AC-3)</property>
  <property name="meta.media.1.codec.bit_rate">448000</property>
  <property name="meta.attr.1.stream.language.markup">jpn</property>
  <property name="meta.attr.1.stream.title.markup">Japanese DVD AC-3 DD 2.0 @ 448 Kbps</property>
  <property name="meta.attr.1.stream.BPS-eng.markup">448000</property>
  <property name="meta.attr.1.stream.DURATION-eng.markup">00:23:55.552000000</property>
  <property name="meta.attr.1.stream.NUMBER_OF_FRAMES-eng.markup">44861</property>
  <property name="meta.attr.1.stream.NUMBER_OF_BYTES-eng.markup">80390912</property>
  <property name="meta.attr.1.stream.SOURCE_ID-eng.markup">0180BD</property>
  <property name="meta.attr.1.stream._STATISTICS_WRITING_APP-eng.markup">mkvmerge v52.0.0 ('Secret For The Mad') 64-bit</property>
  <property name="meta.attr.1.stream._STATISTICS_WRITING_DATE_UTC-eng.markup">2023-01-16 18:06:53</property>
  <property name="meta.attr.1.stream._STATISTICS_TAGS-eng.markup">BPS DURATION NUMBER_OF_FRAMES NUMBER_OF_BYTES SOURCE_ID</property>
  <property name="meta.media.2.stream.type">audio</property>
  <property name="meta.media.2.codec.sample_fmt">fltp</property>
  <property name="meta.media.2.codec.sample_rate">48000</property>
  <property name="meta.media.2.codec.channels">2</property>
  <property name="meta.media.2.codec.layout">stereo</property>
  <property name="meta.media.2.codec.name">ac3</property>
  <property name="meta.media.2.codec.long_name">ATSC A/52A (AC-3)</property>
  <property name="meta.media.2.codec.bit_rate">192000</property>
  <property name="meta.attr.2.stream.language.markup">eng</property>
  <property name="meta.attr.2.stream.title.markup">English AUS DVD AC-3 DD 2.0 @ 192 Kbps</property>
  <property name="meta.attr.2.stream.BPS-eng.markup">192000</property>
  <property name="meta.attr.2.stream.DURATION-eng.markup">00:23:54.016000000</property>
  <property name="meta.attr.2.stream.NUMBER_OF_FRAMES-eng.markup">44813</property>
  <property name="meta.attr.2.stream.NUMBER_OF_BYTES-eng.markup">34416384</property>
  <property name="meta.attr.2.stream._STATISTICS_WRITING_APP-eng.markup">mkvmerge v52.0.0 ('Secret For The Mad') 64-bit</property>
  <property name="meta.attr.2.stream._STATISTICS_WRITING_DATE_UTC-eng.markup">2023-01-16 18:06:53</property>
  <property name="meta.attr.2.stream._STATISTICS_TAGS-eng.markup">BPS DURATION NUMBER_OF_FRAMES NUMBER_OF_BYTES</property>
  <property name="meta.media.3.codec.name">ssa</property>
  <property name="meta.media.3.codec.long_name">ASS (Advanced SubStation Alpha) subtitle</property>
  <property name="meta.media.3.codec.bit_rate">0</property>
  <property name="meta.attr.3.stream.language.markup">eng</property>
  <property name="meta.attr.3.stream.title.markup">[CBM] English (Full) ASS</property>
  <property name="meta.attr.3.stream.BPS-eng.markup">93</property>
  <property name="meta.attr.3.stream.DURATION-eng.markup">00:23:50.130000000</property>
  <property name="meta.attr.3.stream.NUMBER_OF_FRAMES-eng.markup">307</property>
  <property name="meta.attr.3.stream.NUMBER_OF_BYTES-eng.markup">16737</property>
  <property name="meta.attr.3.stream._STATISTICS_WRITING_APP-eng.markup">mkvmerge v52.0.0 ('Secret For The Mad') 64-bit</property>
  <property name="meta.attr.3.stream._STATISTICS_WRITING_DATE_UTC-eng.markup">2023-01-16 18:06:53</property>
  <property name="meta.attr.3.stream._STATISTICS_TAGS-eng.markup">BPS DURATION NUMBER_OF_FRAMES NUMBER_OF_BYTES</property>
  <property name="meta.media.4.codec.name">ssa</property>
  <property name="meta.media.4.codec.long_name">ASS (Advanced SubStation Alpha) subtitle</property>
  <property name="meta.media.4.codec.bit_rate">0</property>
  <property name="meta.attr.4.stream.language.markup">eng</property>
  <property name="meta.attr.4.stream.title.markup">English (Titles &amp; Signs) ASS</property>
  <property name="meta.attr.4.stream.BPS-eng.markup">4</property>
  <property name="meta.attr.4.stream.DURATION-eng.markup">00:18:22.100000000</property>
  <property name="meta.attr.4.stream.NUMBER_OF_FRAMES-eng.markup">4</property>
  <property name="meta.attr.4.stream.NUMBER_OF_BYTES-eng.markup">647</property>
  <property name="meta.attr.4.stream._STATISTICS_WRITING_APP-eng.markup">mkvmerge v52.0.0 ('Secret For The Mad') 64-bit</property>
  <property name="meta.attr.4.stream._STATISTICS_WRITING_DATE_UTC-eng.markup">2023-01-16 18:06:53</property>
  <property name="meta.attr.4.stream._STATISTICS_TAGS-eng.markup">BPS DURATION NUMBER_OF_FRAMES NUMBER_OF_BYTES</property>
  <property name="meta.media.5.codec.name">ssa</property>
  <property name="meta.media.5.codec.long_name">ASS (Advanced SubStation Alpha) subtitle</property>
  <property name="meta.media.5.codec.bit_rate">0</property>
  <property name="meta.attr.5.stream.language.markup">ara</property>
  <property name="meta.attr.5.stream.title.markup">Arabic</property>
  <property name="meta.attr.5.stream.BPS-eng.markup">107</property>
  <property name="meta.attr.5.stream.DURATION-eng.markup">00:22:16.390000000</property>
  <property name="meta.attr.5.stream.NUMBER_OF_FRAMES-eng.markup">281</property>
  <property name="meta.attr.5.stream.NUMBER_OF_BYTES-eng.markup">17959</property>
  <property name="meta.attr.5.stream._STATISTICS_WRITING_APP-eng.markup">mkvmerge v52.0.0 ('Secret For The Mad') 64-bit</property>
  <property name="meta.attr.5.stream._STATISTICS_WRITING_DATE_UTC-eng.markup">2023-01-16 18:06:53</property>
  <property name="meta.attr.5.stream._STATISTICS_TAGS-eng.markup">BPS DURATION NUMBER_OF_FRAMES NUMBER_OF_BYTES</property>
  <property name="meta.attr.title.markup">Monster : Chapter 50 : The Rose Mansion</property>
  <property name="meta.attr.encoder.markup">libebml v1.4.1 + libmatroska v1.6.2</property>
  <property name="meta.attr.creation_time.markup">2023-01-16T18:06:53.000000Z</property>
  <property name="seekable">1</property>
  <property name="meta.media.sample_aspect_num">1</property>
  <property name="meta.media.sample_aspect_den">1</property>
  <property name="format">3</property>
  <property name="audio_index">1</property>
  <property name="video_index">0</property>
  <property name="vstream">0</property>
  <property name="meta.media.frame_rate_num">24000</property>
  <property name="meta.media.frame_rate_den">1001</property>
  <property name="meta.media.colorspace">709</property>
  <property name="meta.media.color_trc">1</property>
  <property name="meta.media.has_b_frames">2</property>
  <property name="meta.media.width">1440</property>
  <property name="meta.media.height">1080</property>
  <property name="meta.media.aspect_ratio">1</property>
  <property name="meta.media.color_range">mpeg</property>
  <property name="astream">0</property>
  <property name="meta.media.top_field_first">0</property>
  <property name="meta.media.progressive">1</property>
  <property name="kdenlive:control_uuid">{e0c9d767-f46a-4445-9464-78a9ddc4d963}</property>
  <property name="kdenlive:id">7</property>
  <property name="kdenlive:clip_type">0</property>
  <property name="kdenlive:file_size">490101566</property>
  <property name="kdenlive:file_hash">8ae3f197ecb50c456667fe2817bc6f4f</property>
  <property name="kdenlive:folderid">-1</property>
  <property name="kdenlive:audio_max1">190</property>
  <property name="kdenlive:audio_max2">198</property>
  <property name="kdenlive:monitorPosition">0</property>
  <property name="mute_on_pause">0</property>
  <property name="kdenlive:active_streams">1;2</property>
 </chain>
 <chain id="chain18" out="00:23:54.012">
  <property name="length">34382</property>
  <property name="eof">pause</property>
  <property name="resource">/mnt/data1/Anime-Edits/Monster/Monster-Editing/Audio/eng/Ep47.wav</property>
  <property name="mlt_service">avformat</property>
  <property name="meta.media.nb_streams">1</property>
  <property name="meta.media.0.stream.type">audio</property>
  <property name="meta.media.0.codec.sample_fmt">s16</property>
  <property name="meta.media.0.codec.sample_rate">48000</property>
  <property name="meta.media.0.codec.channels">2</property>
  <property name="meta.media.0.codec.layout">independent</property>
  <property name="meta.media.0.codec.name">pcm_s16le</property>
  <property name="meta.media.0.codec.long_name">PCM signed 16-bit little-endian</property>
  <property name="meta.media.0.codec.bit_rate">1536000</property>
  <property name="meta.attr.title.markup">Monster : Chapter 47 : The Door To A Nightmare</property>
  <property name="meta.attr.encoder.markup">Lavf60.16.100</property>
  <property name="seekable">1</property>
  <property name="audio_index">0</property>
  <property name="video_index">-1</property>
  <property name="astream">0</property>
  <property name="kdenlive:folderid">-1</property>
  <property name="kdenlive:id">8</property>
  <property name="kdenlive:control_uuid">{e4651a5f-9eb7-46cb-9b81-872b2fff6da9}</property>
  <property name="kdenlive:clip_type">1</property>
  <property name="kdenlive:file_size">275331206</property>
  <property name="kdenlive:file_hash">e1aa11eeca98059e71e77ac4f7fff281</property>
  <property name="kdenlive:audio_max0">192</property>
  <property name="kdenlive:monitorPosition">0</property>
 </chain>
 <chain id="chain20" out="00:23:54.012">
  <property name="length">34382</property>
  <property name="eof">pause</property>
  <property name="resource">/mnt/data1/Anime-Edits/Monster/Monster-Editing/Audio/eng/Ep48.wav</property>
  <property name="mlt_service">avformat</property>
  <property name="meta.media.nb_streams">1</property>
  <property name="meta.media.0.stream.type">audio</property>
  <property name="meta.media.0.codec.sample_fmt">s16</property>
  <property name="meta.media.0.codec.sample_rate">48000</property>
  <property name="meta.media.0.codec.channels">2</property>
  <property name="meta.media.0.codec.layout">independent</property>
  <property name="meta.media.0.codec.name">pcm_s16le</property>
  <property name="meta.media.0.codec.long_name">PCM signed 16-bit little-endian</property>
  <property name="meta.media.0.codec.bit_rate">1536000</property>
  <property name="meta.attr.title.markup">Monster : Chapter 48 : The Most Frightening Thing</property>
  <property name="meta.attr.encoder.markup">Lavf60.16.100</property>
  <property name="seekable">1</property>
  <property name="audio_index">0</property>
  <property name="video_index">-1</property>
  <property name="astream">0</property>
  <property name="kdenlive:folderid">-1</property>
  <property name="kdenlive:id">9</property>
  <property name="kdenlive:control_uuid">{4efebfb9-6d25-4d40-a070-d49615c45284}</property>
  <property name="kdenlive:clip_type">1</property>
  <property name="kdenlive:file_size">275331208</property>
  <property name="kdenlive:file_hash">4695b1cacdefe36a23c42a815ab4b8b7</property>
  <property name="kdenlive:audio_max0">211</property>
  <property name="kdenlive:monitorPosition">0</property>
 </chain>
 <chain id="chain19" out="00:23:54.012">
  <property name="length">34382</property>
  <property name="eof">pause</property>
  <property name="resource">/mnt/data1/Anime-Edits/Monster/Monster-Editing/Audio/eng/Ep49.wav</property>
  <property name="mlt_service">avformat</property>
  <property name="meta.media.nb_streams">1</property>
  <property name="meta.media.0.stream.type">audio</property>
  <property name="meta.media.0.codec.sample_fmt">s16</property>
  <property name="meta.media.0.codec.sample_rate">48000</property>
  <property name="meta.media.0.codec.channels">2</property>
  <property name="meta.media.0.codec.layout">independent</property>
  <property name="meta.media.0.codec.name">pcm_s16le</property>
  <property name="meta.media.0.codec.long_name">PCM signed 16-bit little-endian</property>
  <property name="meta.media.0.codec.bit_rate">1536000</property>
  <property name="meta.attr.title.markup">Monster : Chapter 49 : The Cruelest Thing</property>
  <property name="meta.attr.encoder.markup">Lavf60.16.100</property>
  <property name="seekable">1</property>
  <property name="audio_index">0</property>
  <property name="video_index">-1</property>
  <property name="astream">0</property>
  <property name="kdenlive:folderid">-1</property>
  <property name="kdenlive:id">10</property>
  <property name="kdenlive:control_uuid">{63b63555-0d01-45d5-abd1-d8950bb4b864}</property>
  <property name="kdenlive:clip_type">1</property>
  <property name="kdenlive:file_size">275331200</property>
  <property name="kdenlive:file_hash">b62344fa0403703af9e771b47d3cd5d3</property>
  <property name="kdenlive:audio_max0">195</property>
  <property name="kdenlive:monitorPosition">0</property>
 </chain>
 <chain id="chain21" out="00:23:54.012">
  <property name="length">34382</property>
  <property name="eof">pause</property>
  <property name="resource">/mnt/data1/Anime-Edits/Monster/Monster-Editing/Audio/eng/Ep50.wav</property>
  <property name="mlt_service">avformat</property>
  <property name="meta.media.nb_streams">1</property>
  <property name="meta.media.0.stream.type">audio</property>
  <property name="meta.media.0.codec.sample_fmt">s16</property>
  <property name="meta.media.0.codec.sample_rate">48000</property>
  <property name="meta.media.0.codec.channels">2</property>
  <property name="meta.media.0.codec.layout">independent</property>
  <property name="meta.media.0.codec.name">pcm_s16le</property>
  <property name="meta.media.0.codec.long_name">PCM signed 16-bit little-endian</property>
  <property name="meta.media.0.codec.bit_rate">1536000</property>
  <property name="meta.attr.title.markup">Monster : Chapter 50 : The Rose Mansion</property>
  <property name="meta.attr.encoder.markup">Lavf60.16.100</property>
  <property name="seekable">1</property>
  <property name="audio_index">0</property>
  <property name="video_index">-1</property>
  <property name="astream">0</property>
  <property name="kdenlive:folderid">-1</property>
  <property name="kdenlive:id">11</property>
  <property name="kdenlive:control_uuid">{490c1976-ff86-4ef7-9e16-c0ecd7e414a9}</property>
  <property name="kdenlive:clip_type">1</property>
  <property name="kdenlive:file_size">275331198</property>
  <property name="kdenlive:file_hash">b88c54af95d1a1958c3b8bf09723b7a7</property>
  <property name="kdenlive:audio_max0">198</property>
  <property name="kdenlive:monitorPosition">0</property>
 </chain>
 <chain id="chain22" out="00:11:28.070">
  <property name="length">16498</property>
  <property name="eof">pause</property>
  <property name="resource">/mnt/data1/Anime-Edits/Monster/Monster-Editing/Audio/clips/Edvard SCHIFFAUER： TŘÍFLÉTNOVÉ PELEMELE PRO KRÁLÍKA FIALU pro tři flétny a bicí nástroje [-D0y2czUirY].wav</property>
  <property name="mlt_service">avformat</property>
  <property name="meta.media.nb_streams">1</property>
  <property name="meta.media.0.stream.type">audio</property>
  <property name="meta.media.0.codec.sample_fmt">s16</property>
  <property name="meta.media.0.codec.sample_rate">48000</property>
  <property name="meta.media.0.codec.channels">2</property>
  <property name="meta.media.0.codec.layout">independent</property>
  <property name="meta.media.0.codec.name">pcm_s16le</property>
  <property name="meta.media.0.codec.long_name">PCM signed 16-bit little-endian</property>
  <property name="meta.media.0.codec.bit_rate">1536000</property>
  <property name="meta.attr.encoder.markup">Lavf61.7.100</property>
  <property name="seekable">1</property>
  <property name="audio_index">0</property>
  <property name="video_index">-1</property>
  <property name="astream">0</property>
  <property name="kdenlive:folderid">-1</property>
  <property name="kdenlive:id">12</property>
  <property name="kdenlive:control_uuid">{3037bc34-9d6e-42af-ac54-947e763c4536}</property>
  <property name="kdenlive:clip_type">1</property>
  <property name="kdenlive:file_size">132113078</property>
  <property name="kdenlive:file_hash">88315f3d893e4579515e9ae7f76f89ba</property>
  <property name="kdenlive:audio_max0">249</property>
  <property name="kdenlive:monitorPosition">0</property>
 </chain>
 <chain id="chain23" out="00:14:32.908">
  <property name="length">20929</property>
  <property name="eof">pause</property>
  <property name="resource">/mnt/data1/Anime-Edits/Monster/Monster-Editing/Audio/clips/Jaroslav Krček： Koncert pro housle a orchestr ⧸ Violin Concerto (1979) [yQriTet3jws].wav</property>
  <property name="mlt_service">avformat</property>
  <property name="meta.media.nb_streams">1</property>
  <property name="meta.media.0.stream.type">audio</property>
  <property name="meta.media.0.codec.sample_fmt">s16</property>
  <property name="meta.media.0.codec.sample_rate">48000</property>
  <property name="meta.media.0.codec.channels">2</property>
  <property name="meta.media.0.codec.layout">independent</property>
  <property name="meta.media.0.codec.name">pcm_s16le</property>
  <property name="meta.media.0.codec.long_name">PCM signed 16-bit little-endian</property>
  <property name="meta.media.0.codec.bit_rate">1536000</property>
  <property name="meta.attr.encoder.markup">Lavf61.7.100</property>
  <property name="seekable">1</property>
  <property name="audio_index">0</property>
  <property name="video_index">-1</property>
  <property name="astream">0</property>
  <property name="kdenlive:folderid">-1</property>
  <property name="kdenlive:id">13</property>
  <property name="kdenlive:control_uuid">{d1c9c68a-ee4e-46c9-9af4-95eaee41fef6}</property>
  <property name="kdenlive:clip_type">1</property>
  <property name="kdenlive:file_size">167598370</property>
  <property name="kdenlive:file_hash">bacd5126b99347ada946b799a41700de</property>
  <property name="kdenlive:audio_max0">191</property>
 </chain>
 <producer id="producer0" in="00:00:00.000" out="01:27:58.809">
  <property name="length">2147483647</property>
  <property name="eof">continue</property>
  <property name="resource">black</property>
  <property name="aspect_ratio">1</property>
  <property name="mlt_service">color</property>
  <property name="kdenlive:playlistid">black_track</property>
  <property name="mlt_image_format">rgba</property>
  <property name="set.test_audio">0</property>
 </producer>
 <chain id="chain0" out="00:23:54.012">
  <property name="length">34382</property>
  <property name="eof">pause</property>
  <property name="resource">/mnt/data1/Anime-Edits/Monster/Monster-Editing/Audio/eng/Ep49.wav</property>
  <property name="mlt_service">avformat-novalidate</property>
  <property name="seekable">1</property>
  <property name="audio_index">0</property>
  <property name="video_index">-1</property>
  <property name="astream">0</property>
  <property name="kdenlive:folderid">-1</property>
  <property name="kdenlive:id">10</property>
  <property name="kdenlive:control_uuid">{63b63555-0d01-45d5-abd1-d8950bb4b864}</property>
  <property name="kdenlive:clip_type">1</property>
  <property name="kdenlive:file_size">275331200</property>
  <property name="kdenlive:file_hash">b62344fa0403703af9e771b47d3cd5d3</property>
  <property name="kdenlive:audio_max0">195</property>
  <property name="kdenlive:monitorPosition">0</property>
  <property name="meta.media.nb_streams">1</property>
  <property name="meta.media.0.stream.type">audio</property>
  <property name="meta.media.0.codec.sample_fmt">s16</property>
  <property name="meta.media.0.codec.sample_rate">48000</property>
  <property name="meta.media.0.codec.channels">2</property>
  <property name="meta.media.0.codec.layout">independent</property>
  <property name="meta.media.0.codec.name">pcm_s16le</property>
  <property name="meta.media.0.codec.long_name">PCM signed 16-bit little-endian</property>
  <property name="meta.media.0.codec.bit_rate">1536000</property>
  <property name="meta.attr.title.markup">Monster : Chapter 49 : The Cruelest Thing</property>
  <property name="meta.attr.encoder.markup">Lavf60.16.100</property>
  <property name="xml">was here</property>
  <property name="mute_on_pause">0</property>
  <property name="set.test_audio">0</property>
  <property name="set.test_image">1</property>
 </chain>
 <chain id="chain1" out="00:14:32.908">
  <property name="length">20929</property>
  <property name="eof">pause</property>
  <property name="resource">/mnt/data1/Anime-Edits/Monster/Monster-Editing/Audio/clips/Jaroslav Krček： Koncert pro housle a orchestr ⧸ Violin Concerto (1979) [yQriTet3jws].wav</property>
  <property name="mlt_service">avformat-novalidate</property>
  <property name="seekable">1</property>
  <property name="audio_index">0</property>
  <property name="video_index">-1</property>
  <property name="astream">0</property>
  <property name="kdenlive:folderid">-1</property>
  <property name="kdenlive:id">13</property>
  <property name="kdenlive:control_uuid">{d1c9c68a-ee4e-46c9-9af4-95eaee41fef6}</property>
  <property name="kdenlive:clip_type">1</property>
  <property name="kdenlive:file_size">167598370</property>
  <property name="kdenlive:file_hash">bacd5126b99347ada946b799a41700de</property>
  <property name="kdenlive:audio_max0">191</property>
  <property name="meta.media.nb_streams">1</property>
  <property name="meta.media.0.stream.type">audio</property>
  <property name="meta.media.0.codec.sample_fmt">s16</property>
  <property name="meta.media.0.codec.sample_rate">48000</property>
  <property name="meta.media.0.codec.channels">2</property>
  <property name="meta.media.0.codec.layout">independent</property>
  <property name="meta.media.0.codec.name">pcm_s16le</property>
  <property name="meta.media.0.codec.long_name">PCM signed 16-bit little-endian</property>
  <property name="meta.media.0.codec.bit_rate">1536000</property>
  <property name="meta.attr.encoder.markup">Lavf61.7.100</property>
  <property name="xml">was here</property>
  <property name="mute_on_pause">0</property>
  <property name="set.test_audio">0</property>
  <property name="set.test_image">1</property>
 </chain>
 <playlist id="playlist0">
  <property name="kdenlive:audio_track">1</property>
  <blank length="00:50:02.628"/>
  <entry in="00:11:20.145" out="00:19:22.648" producer="chain0">
   <property name="kdenlive:id">10</property>
   <filter id="filter0" in="00:19:21.021" out="00:19:22.648">
    <property name="window">75</property>
    <property name="max_gain">20dB</property>
    <property name="mlt_service">volume</property>
    <property name="kdenlive_id">fadeout</property>
    <property name="gain">1</property>
    <property name="end">0</property>
    <property name="kdenlive:collapsed">0</property>
   </filter>
  </entry>
  <blank length="00:13:15.682"/>
  <entry in="00:00:41.959" out="00:02:01.752" producer="chain1">
   <property name="kdenlive:id">13</property>
   <filter id="filter1" in="00:00:41.959" out="00:00:50.550">
    <property name="window">75</property>
    <property name="max_gain">20dB</property>
    <property name="mlt_service">volume</property>
    <property name="kdenlive_id">fadein</property>
    <property name="gain">0</property>
    <property name="end">1</property>
    <property name="kdenlive:collapsed">0</property>
   </filter>
   <filter id="filter2">
    <property name="window">75</property>
    <property name="max_gain">20dB</property>
    <property name="mlt_service">volume</property>
    <property name="kdenlive_id">gain</property>
    <property name="gain">0.1</property>
    <property name="kdenlive:collapsed">0</property>
   </filter>
   <filter id="filter3" in="00:01:58.558" out="00:02:01.752">
    <property name="window">75</property>
    <property name="max_gain">20dB</property>
    <property name="mlt_service">volume</property>
    <property name="kdenlive_id">fadeout</property>
    <property name="gain">1</property>
    <property name="end">0</property>
    <property name="kdenlive:collapsed">0</property>
   </filter>
  </entry>
 </playlist>
 <playlist id="playlist1">
  <property name="kdenlive:audio_track">1</property>
 </playlist>
 <tractor id="tractor0" in="00:00:00.000" out="01:12:40.666">
  <property name="kdenlive:audio_track">1</property>
  <property name="kdenlive:trackheight">62</property>
  <property name="kdenlive:timeline_active">1</property>
  <property name="kdenlive:collapsed">0</property>
  <property name="kdenlive:thumbs_format"/>
  <property name="kdenlive:audio_rec"/>
  <track hide="video" producer="playlist0"/>
  <track hide="video" producer="playlist1"/>
  <filter id="filter4">
   <property name="window">75</property>
   <property name="max_gain">20dB</property>
   <property name="mlt_service">volume</property>
   <property name="internal_added">237</property>
   <property name="disable">1</property>
  </filter>
  <filter id="filter5">
   <property name="channel">-1</property>
   <property name="mlt_service">panner</property>
   <property name="internal_added">237</property>
   <property name="start">0.5</property>
   <property name="disable">1</property>
  </filter>
  <filter id="filter6">
   <property name="iec_scale">0</property>
   <property name="mlt_service">audiolevel</property>
   <property name="dbpeak">1</property>
   <property name="disable">1</property>
  </filter>
 </tractor>
 <chain id="chain2" out="00:23:54.012">
  <property name="length">34382</property>
  <property name="eof">pause</property>
  <property name="resource">/mnt/data1/Anime-Edits/Monster/Monster-Editing/Audio/eng/Ep47.wav</property>
  <property name="mlt_service">avformat-novalidate</property>
  <property name="seekable">1</property>
  <property name="audio_index">0</property>
  <property name="video_index">-1</property>
  <property name="astream">0</property>
  <property name="kdenlive:folderid">-1</property>
  <property name="kdenlive:id">8</property>
  <property name="kdenlive:control_uuid">{e4651a5f-9eb7-46cb-9b81-872b2fff6da9}</property>
  <property name="kdenlive:clip_type">1</property>
  <property name="kdenlive:file_size">275331206</property>
  <property name="kdenlive:file_hash">e1aa11eeca98059e71e77ac4f7fff281</property>
  <property name="kdenlive:audio_max0">192</property>
  <property name="kdenlive:monitorPosition">0</property>
  <property name="meta.media.nb_streams">1</property>
  <property name="meta.media.0.stream.type">audio</property>
  <property name="meta.media.0.codec.sample_fmt">s16</property>
  <property name="meta.media.0.codec.sample_rate">48000</property>
  <property name="meta.media.0.codec.channels">2</property>
  <property name="meta.media.0.codec.layout">independent</property>
  <property name="meta.media.0.codec.name">pcm_s16le</property>
  <property name="meta.media.0.codec.long_name">PCM signed 16-bit little-endian</property>
  <property name="meta.media.0.codec.bit_rate">1536000</property>
  <property name="meta.attr.title.markup">Monster : Chapter 47 : The Door To A Nightmare</property>
  <property name="meta.attr.encoder.markup">Lavf60.16.100</property>
  <property name="xml">was here</property>
  <property name="mute_on_pause">0</property>
  <property name="set.test_audio">0</property>
  <property name="set.test_image">1</property>
 </chain>
 <chain id="chain3" out="00:23:54.012">
  <property name="length">34382</property>
  <property name="eof">pause</property>
  <property name="resource">/mnt/data1/Anime-Edits/Monster/Monster-Editing/Audio/eng/Ep48.wav</property>
  <property name="mlt_service">avformat-novalidate</property>
  <property name="seekable">1</property>
  <property name="audio_index">0</property>
  <property name="video_index">-1</property>
  <property name="astream">0</property>
  <property name="kdenlive:folderid">-1</property>
  <property name="kdenlive:id">9</property>
  <property name="kdenlive:control_uuid">{4efebfb9-6d25-4d40-a070-d49615c45284}</property>
  <property name="kdenlive:clip_type">1</property>
  <property name="kdenlive:file_size">275331208</property>
  <property name="kdenlive:file_hash">4695b1cacdefe36a23c42a815ab4b8b7</property>
  <property name="kdenlive:audio_max0">211</property>
  <property name="kdenlive:monitorPosition">0</property>
  <property name="meta.media.nb_streams">1</property>
  <property name="meta.media.0.stream.type">audio</property>
  <property name="meta.media.0.codec.sample_fmt">s16</property>
  <property name="meta.media.0.codec.sample_rate">48000</property>
  <property name="meta.media.0.codec.channels">2</property>
  <property name="meta.media.0.codec.layout">independent</property>
  <property name="meta.media.0.codec.name">pcm_s16le</property>
  <property name="meta.media.0.codec.long_name">PCM signed 16-bit little-endian</property>
  <property name="meta.media.0.codec.bit_rate">1536000</property>
  <property name="meta.attr.title.markup">Monster : Chapter 48 : The Most Frightening Thing</property>
  <property name="meta.attr.encoder.markup">Lavf60.16.100</property>
  <property name="xml">was here</property>
  <property name="mute_on_pause">0</property>
  <property name="set.test_audio">0</property>
  <property name="set.test_image">1</property>
 </chain>
 <chain id="chain4" out="00:23:54.012">
  <property name="length">34382</property>
  <property name="eof">pause</property>
  <property name="resource">/mnt/data1/Anime-Edits/Monster/Monster-Editing/Audio/eng/Ep49.wav</property>
  <property name="mlt_service">avformat-novalidate</property>
  <property name="seekable">1</property>
  <property name="audio_index">0</property>
  <property name="video_index">-1</property>
  <property name="astream">0</property>
  <property name="kdenlive:folderid">-1</property>
  <property name="kdenlive:id">10</property>
  <property name="kdenlive:control_uuid">{63b63555-0d01-45d5-abd1-d8950bb4b864}</property>
  <property name="kdenlive:clip_type">1</property>
  <property name="kdenlive:file_size">275331200</property>
  <property name="kdenlive:file_hash">b62344fa0403703af9e771b47d3cd5d3</property>
  <property name="kdenlive:audio_max0">195</property>
  <property name="kdenlive:monitorPosition">0</property>
  <property name="meta.media.nb_streams">1</property>
  <property name="meta.media.0.stream.type">audio</property>
  <property name="meta.media.0.codec.sample_fmt">s16</property>
  <property name="meta.media.0.codec.sample_rate">48000</property>
  <property name="meta.media.0.codec.channels">2</property>
  <property name="meta.media.0.codec.layout">independent</property>
  <property name="meta.media.0.codec.name">pcm_s16le</property>
  <property name="meta.media.0.codec.long_name">PCM signed 16-bit little-endian</property>
  <property name="meta.media.0.codec.bit_rate">1536000</property>
  <property name="meta.attr.title.markup">Monster : Chapter 49 : The Cruelest Thing</property>
  <property name="meta.attr.encoder.markup">Lavf60.16.100</property>
  <property name="xml">was here</property>
  <property name="mute_on_pause">0</property>
  <property name="set.test_audio">0</property>
  <property name="set.test_image">1</property>
 </chain>
 <chain id="chain5" out="00:23:54.012">
  <property name="length">34382</property>
  <property name="eof">pause</property>
  <property name="resource">/mnt/data1/Anime-Edits/Monster/Monster-Editing/Audio/eng/Ep50.wav</property>
  <property name="mlt_service">avformat-novalidate</property>
  <property name="seekable">1</property>
  <property name="audio_index">0</property>
  <property name="video_index">-1</property>
  <property name="astream">0</property>
  <property name="kdenlive:folderid">-1</property>
  <property name="kdenlive:id">11</property>
  <property name="kdenlive:control_uuid">{490c1976-ff86-4ef7-9e16-c0ecd7e414a9}</property>
  <property name="kdenlive:clip_type">1</property>
  <property name="kdenlive:file_size">275331198</property>
  <property name="kdenlive:file_hash">b88c54af95d1a1958c3b8bf09723b7a7</property>
  <property name="kdenlive:audio_max0">198</property>
  <property name="meta.media.nb_streams">1</property>
  <property name="meta.media.0.stream.type">audio</property>
  <property name="meta.media.0.codec.sample_fmt">s16</property>
  <property name="meta.media.0.codec.sample_rate">48000</property>
  <property name="meta.media.0.codec.channels">2</property>
  <property name="meta.media.0.codec.layout">independent</property>
  <property name="meta.media.0.codec.name">pcm_s16le</property>
  <property name="meta.media.0.codec.long_name">PCM signed 16-bit little-endian</property>
  <property name="meta.media.0.codec.bit_rate">1536000</property>
  <property name="meta.attr.title.markup">Monster : Chapter 50 : The Rose Mansion</property>
  <property name="meta.attr.encoder.markup">Lavf60.16.100</property>
  <property name="xml">was here</property>
  <property name="mute_on_pause">0</property>
  <property name="set.test_audio">0</property>
  <property name="set.test_image">1</property>
 </chain>
 <playlist id="playlist2">
  <property name="kdenlive:audio_track">1</property>
  <blank length="00:08:56.974"/>
  <entry in="00:08:58.350" out="00:09:01.126" producer="chain2">
   <property name="kdenlive:id">8</property>
   <filter id="filter7" in="00:09:00.292" out="00:09:01.126">
    <property name="window">75</property>
    <property name="max_gain">20dB</property>
    <property name="mlt_service">volume</property>
    <property name="kdenlive_id">fadeout</property>
    <property name="gain">1</property>
    <property name="end">0</property>
    <property name="kdenlive:collapsed">0</property>
   </filter>
   <filter id="filter8" in="00:08:58.350" out="00:08:59.059">
    <property name="window">75</property>
    <property name="max_gain">20dB</property>
    <property name="mlt_service">volume</property>
    <property name="kdenlive_id">fadein</property>
    <property name="gain">0</property>
    <property name="end">1</property>
    <property name="kdenlive:collapsed">0</property>
   </filter>
  </entry>
  <blank length="00:00:27.444"/>
  <entry in="00:09:31.156" out="00:14:21.355" producer="chain2">
   <property name="kdenlive:id">8</property>
   <filter id="filter9" in="00:09:31.156" out="00:09:31.823">
    <property name="window">75</property>
    <property name="max_gain">20dB</property>
    <property name="mlt_service">volume</property>
    <property name="kdenlive_id">fadein</property>
    <property name="gain">0</property>
    <property name="end">1</property>
    <property name="kdenlive:collapsed">0</property>
   </filter>
  </entry>
  <blank length="00:00:04.671"/>
  <entry in="00:15:06.798" out="00:16:57.266" producer="chain2">
   <property name="kdenlive:id">8</property>
   <filter id="filter10" in="00:15:06.798" out="00:15:07.090">
    <property name="window">75</property>
    <property name="max_gain">20dB</property>
    <property name="mlt_service">volume</property>
    <property name="kdenlive_id">fadein</property>
    <property name="gain">0</property>
    <property name="end">1</property>
    <property name="kdenlive:collapsed">0</property>
   </filter>
   <filter id="filter11" in="00:16:56.974" out="00:16:57.266">
    <property name="window">75</property>
    <property name="max_gain">20dB</property>
    <property name="mlt_service">volume</property>
    <property name="kdenlive_id">fadeout</property>
    <property name="gain">1</property>
    <property name="end">0</property>
    <property name="kdenlive:collapsed">0</property>
   </filter>
  </entry>
  <entry in="00:16:58.517" out="00:17:14.264" producer="chain2">
   <property name="kdenlive:id">8</property>
   <filter id="filter12" in="00:16:58.517" out="00:16:58.725">
    <property name="window">75</property>
    <property name="max_gain">20dB</property>
    <property name="mlt_service">volume</property>
    <property name="kdenlive_id">fadein</property>
    <property name="gain">0</property>
    <property name="end">1</property>
    <property name="kdenlive:collapsed">0</property>
   </filter>
   <filter id="filter13" in="00:17:13.764" out="00:17:14.264">
    <property name="window">75</property>
    <property name="max_gain">20dB</property>
    <property name="mlt_service">volume</property>
    <property name="kdenlive_id">fadeout</property>
    <property name="gain">1</property>
    <property name="end">0</property>
   </filter>
  </entry>
  <blank length="00:00:01.668"/>
  <entry in="00:17:18.393" out="00:18:19.061" producer="chain2">
   <property name="kdenlive:id">8</property>
  </entry>
  <blank length="00:03:58.183"/>
  <entry in="00:22:20.354" out="00:22:25.359" producer="chain2">
   <property name="kdenlive:id">8</property>
   <filter id="filter14" in="00:22:20.354" out="00:22:20.729">
    <property name="window">75</property>
    <property name="max_gain">20dB</property>
    <property name="mlt_service">volume</property>
    <property name="kdenlive_id">fadein</property>
    <property name="gain">0</property>
    <property name="end">1</property>
    <property name="kdenlive:collapsed">0</property>
   </filter>
   <filter id="filter15" in="00:22:23.232" out="00:22:25.359">
    <property name="window">75</property>
    <property name="max_gain">20dB</property>
    <property name="mlt_service">volume</property>
    <property name="kdenlive_id">fadeout</property>
    <property name="gain">1</property>
    <property name="end">0</property>
    <property name="kdenlive:collapsed">0</property>
   </filter>
  </entry>
  <blank length="00:02:24.191"/>
  <entry in="00:05:36.745" out="00:05:43.460" producer="chain3">
   <property name="kdenlive:id">9</property>
   <filter id="filter16" in="00:05:36.745" out="00:05:37.579">
    <property name="window">75</property>
    <property name="max_gain">20dB</property>
    <property name="mlt_service">volume</property>
    <property name="kdenlive_id">fadein</property>
    <property name="gain">0</property>
    <property name="end">1</property>
    <property name="kdenlive:collapsed">0</property>
   </filter>
   <filter id="filter17" in="00:05:41.500" out="00:05:43.460">
    <property name="window">75</property>
    <property name="max_gain">20dB</property>
    <property name="mlt_service">volume</property>
    <property name="kdenlive_id">fadeout</property>
    <property name="gain">1</property>
    <property name="end">0</property>
    <property name="kdenlive:collapsed">0</property>
   </filter>
  </entry>
  <blank length="00:00:15.515"/>
  <entry in="00:06:02.878" out="00:06:09.927" producer="chain3">
   <property name="kdenlive:id">9</property>
   <filter id="filter18" in="00:06:09.301" out="00:06:09.927">
    <property name="window">75</property>
    <property name="max_gain">20dB</property>
    <property name="mlt_service">volume</property>
    <property name="kdenlive_id">fadeout</property>
    <property name="gain">1</property>
    <property name="end">0</property>
    <property name="kdenlive:collapsed">0</property>
   </filter>
  </entry>
  <blank length="00:05:48.757"/>
  <entry in="00:12:08.008" out="00:14:27.402" producer="chain3">
   <property name="kdenlive:id">9</property>
   <filter id="filter19" in="00:14:27.361" out="00:14:27.402">
    <property name="window">75</property>
    <property name="max_gain">20dB</property>
    <property name="mlt_service">volume</property>
    <property name="kdenlive_id">fadeout</property>
    <property name="gain">1</property>
    <property name="end">0</property>
   </filter>
  </entry>
  <blank length="00:04:16.600"/>
  <entry in="00:18:50.133" out="00:19:47.673" producer="chain3">
   <property name="kdenlive:id">9</property>
   <filter id="filter20" in="00:18:50.133" out="00:18:53.595">
    <property name="window">75</property>
    <property name="max_gain">20dB</property>
    <property name="mlt_service">volume</property>
    <property name="kdenlive_id">fadein</property>
    <property name="gain">0</property>
    <property name="end">1</property>
    <property name="kdenlive:collapsed">0</property>
   </filter>
   <filter id="filter21" in="00:19:46.672" out="00:19:47.673">
    <property name="window">75</property>
    <property name="max_gain">20dB</property>
    <property name="mlt_service">volume</property>
    <property name="kdenlive_id">fadeout</property>
    <property name="gain">1</property>
    <property name="end">0</property>
    <property name="kdenlive:collapsed">0</property>
   </filter>
  </entry>
  <blank length="00:02:25.817"/>
  <entry in="00:00:00.000" out="00:00:55.138" producer="chain4">
   <property name="kdenlive:id">10</property>
   <filter id="filter22" in="00:00:54.888" out="00:00:55.138">
    <property name="window">75</property>
    <property name="max_gain">20dB</property>
    <property name="mlt_service">volume</property>
    <property name="kdenlive_id">fadeout</property>
    <property name="gain">1</property>
    <property name="end">0</property>
    <property name="kdenlive:collapsed">0</property>
   </filter>
  </entry>
  <blank length="00:16:52.135"/>
  <entry in="00:19:25.400" out="00:22:27.361" producer="chain4">
   <property name="kdenlive:id">10</property>
   <filter id="filter23" in="00:19:25.400" out="00:19:25.651">
    <property name="window">75</property>
    <property name="max_gain">20dB</property>
    <property name="mlt_service">volume</property>
    <property name="kdenlive_id">fadein</property>
    <property name="gain">0</property>
    <property name="end">1</property>
    <property name="kdenlive:collapsed">0</property>
   </filter>
  </entry>
  <blank length="00:00:44.044"/>
  <entry in="00:02:09.301" out="00:05:16.975" producer="chain5">
   <property name="kdenlive:id">11</property>
   <filter id="filter24" in="00:05:15.682" out="00:05:16.975">
    <property name="window">75</property>
    <property name="max_gain">20dB</property>
    <property name="mlt_service">volume</property>
    <property name="kdenlive_id">fadeout</property>
    <property name="gain">1</property>
    <property name="end">0</property>
   </filter>
  </entry>
  <blank length="00:05:33.867"/>
  <entry in="00:11:06.215" out="00:12:42.084" producer="chain5">
   <property name="kdenlive:id">11</property>
   <filter id="filter25" in="00:12:41.750" out="00:12:42.084">
    <property name="window">75</property>
    <property name="max_gain">20dB</property>
    <property name="mlt_service">volume</property>
    <property name="kdenlive_id">fadeout</property>
    <property name="gain">1</property>
    <property name="end">0</property>
    <property name="kdenlive:collapsed">0</property>
   </filter>
  </entry>
 </playlist>
 <playlist id="playlist3">
  <property name="kdenlive:audio_track">1</property>
 </playlist>
 <tractor id="tractor1" in="00:00:00.000" out="01:12:06.423">
  <property name="kdenlive:audio_track">1</property>
  <property name="kdenlive:trackheight">62</property>
  <property name="kdenlive:timeline_active">1</property>
  <property name="kdenlive:collapsed">0</property>
  <property name="kdenlive:thumbs_format"/>
  <property name="kdenlive:audio_rec"/>
  <track hide="video" producer="playlist2"/>
  <track hide="video" producer="playlist3"/>
  <filter id="filter26">
   <property name="window">75</property>
   <property name="max_gain">20dB</property>
   <property name="mlt_service">volume</property>
   <property name="internal_added">237</property>
   <property name="disable">1</property>
  </filter>
  <filter id="filter27">
   <property name="channel">-1</property>
   <property name="mlt_service">panner</property>
   <property name="internal_added">237</property>
   <property name="start">0.5</property>
   <property name="disable">1</property>
  </filter>
  <filter id="filter28">
   <property name="iec_scale">0</property>
   <property name="mlt_service">audiolevel</property>
   <property name="dbpeak">1</property>
   <property name="disable">1</property>
  </filter>
 </tractor>
 <chain id="chain6" out="00:23:54.012">
  <property name="length">34382</property>
  <property name="eof">pause</property>
  <property name="resource">/mnt/data1/Anime-Edits/Monster/Monster-Editing/Audio/eng/Ep47.wav</property>
  <property name="mlt_service">avformat-novalidate</property>
  <property name="seekable">1</property>
  <property name="audio_index">0</property>
  <property name="video_index">-1</property>
  <property name="astream">0</property>
  <property name="kdenlive:folderid">-1</property>
  <property name="kdenlive:id">8</property>
  <property name="kdenlive:control_uuid">{e4651a5f-9eb7-46cb-9b81-872b2fff6da9}</property>
  <property name="kdenlive:clip_type">1</property>
  <property name="kdenlive:file_size">275331206</property>
  <property name="kdenlive:file_hash">e1aa11eeca98059e71e77ac4f7fff281</property>
  <property name="kdenlive:audio_max0">192</property>
  <property name="kdenlive:monitorPosition">0</property>
  <property name="meta.media.nb_streams">1</property>
  <property name="meta.media.0.stream.type">audio</property>
  <property name="meta.media.0.codec.sample_fmt">s16</property>
  <property name="meta.media.0.codec.sample_rate">48000</property>
  <property name="meta.media.0.codec.channels">2</property>
  <property name="meta.media.0.codec.layout">independent</property>
  <property name="meta.media.0.codec.name">pcm_s16le</property>
  <property name="meta.media.0.codec.long_name">PCM signed 16-bit little-endian</property>
  <property name="meta.media.0.codec.bit_rate">1536000</property>
  <property name="meta.attr.title.markup">Monster : Chapter 47 : The Door To A Nightmare</property>
  <property name="meta.attr.encoder.markup">Lavf60.16.100</property>
  <property name="xml">was here</property>
  <property name="mute_on_pause">0</property>
  <property name="set.test_audio">0</property>
  <property name="set.test_image">1</property>
 </chain>
 <chain id="chain7" out="00:23:54.012">
  <property name="length">34382</property>
  <property name="eof">pause</property>
  <property name="resource">/mnt/data1/Anime-Edits/Monster/Monster-Editing/Audio/eng/Ep48.wav</property>
  <property name="mlt_service">avformat-novalidate</property>
  <property name="seekable">1</property>
  <property name="audio_index">0</property>
  <property name="video_index">-1</property>
  <property name="astream">0</property>
  <property name="kdenlive:folderid">-1</property>
  <property name="kdenlive:id">9</property>
  <property name="kdenlive:control_uuid">{4efebfb9-6d25-4d40-a070-d49615c45284}</property>
  <property name="kdenlive:clip_type">1</property>
  <property name="kdenlive:file_size">275331208</property>
  <property name="kdenlive:file_hash">4695b1cacdefe36a23c42a815ab4b8b7</property>
  <property name="kdenlive:audio_max0">211</property>
  <property name="meta.media.nb_streams">1</property>
  <property name="meta.media.0.stream.type">audio</property>
  <property name="meta.media.0.codec.sample_fmt">s16</property>
  <property name="meta.media.0.codec.sample_rate">48000</property>
  <property name="meta.media.0.codec.channels">2</property>
  <property name="meta.media.0.codec.layout">independent</property>
  <property name="meta.media.0.codec.name">pcm_s16le</property>
  <property name="meta.media.0.codec.long_name">PCM signed 16-bit little-endian</property>
  <property name="meta.media.0.codec.bit_rate">1536000</property>
  <property name="meta.attr.title.markup">Monster : Chapter 48 : The Most Frightening Thing</property>
  <property name="meta.attr.encoder.markup">Lavf60.16.100</property>
  <property name="xml">was here</property>
  <property name="mute_on_pause">0</property>
  <property name="set.test_audio">0</property>
  <property name="set.test_image">1</property>
 </chain>
 <chain id="chain8" out="00:23:54.012">
  <property name="length">34382</property>
  <property name="eof">pause</property>
  <property name="resource">/mnt/data1/Anime-Edits/Monster/Monster-Editing/Audio/eng/Ep49.wav</property>
  <property name="mlt_service">avformat-novalidate</property>
  <property name="seekable">1</property>
  <property name="audio_index">0</property>
  <property name="video_index">-1</property>
  <property name="astream">0</property>
  <property name="kdenlive:folderid">-1</property>
  <property name="kdenlive:id">10</property>
  <property name="kdenlive:control_uuid">{63b63555-0d01-45d5-abd1-d8950bb4b864}</property>
  <property name="kdenlive:clip_type">1</property>
  <property name="kdenlive:file_size">275331200</property>
  <property name="kdenlive:file_hash">b62344fa0403703af9e771b47d3cd5d3</property>
  <property name="kdenlive:audio_max0">195</property>
  <property name="meta.media.nb_streams">1</property>
  <property name="meta.media.0.stream.type">audio</property>
  <property name="meta.media.0.codec.sample_fmt">s16</property>
  <property name="meta.media.0.codec.sample_rate">48000</property>
  <property name="meta.media.0.codec.channels">2</property>
  <property name="meta.media.0.codec.layout">independent</property>
  <property name="meta.media.0.codec.name">pcm_s16le</property>
  <property name="meta.media.0.codec.long_name">PCM signed 16-bit little-endian</property>
  <property name="meta.media.0.codec.bit_rate">1536000</property>
  <property name="meta.attr.title.markup">Monster : Chapter 49 : The Cruelest Thing</property>
  <property name="meta.attr.encoder.markup">Lavf60.16.100</property>
  <property name="xml">was here</property>
  <property name="mute_on_pause">0</property>
  <property name="set.test_audio">0</property>
  <property name="set.test_image">1</property>
 </chain>
 <chain id="chain9" out="00:23:54.012">
  <property name="length">34382</property>
  <property name="eof">pause</property>
  <property name="resource">/mnt/data1/Anime-Edits/Monster/Monster-Editing/Audio/eng/Ep50.wav</property>
  <property name="mlt_service">avformat-novalidate</property>
  <property name="seekable">1</property>
  <property name="audio_index">0</property>
  <property name="video_index">-1</property>
  <property name="astream">0</property>
  <property name="kdenlive:folderid">-1</property>
  <property name="kdenlive:id">11</property>
  <property name="kdenlive:control_uuid">{490c1976-ff86-4ef7-9e16-c0ecd7e414a9}</property>
  <property name="kdenlive:clip_type">1</property>
  <property name="kdenlive:file_size">275331198</property>
  <property name="kdenlive:file_hash">b88c54af95d1a1958c3b8bf09723b7a7</property>
  <property name="kdenlive:audio_max0">198</property>
  <property name="meta.media.nb_streams">1</property>
  <property name="meta.media.0.stream.type">audio</property>
  <property name="meta.media.0.codec.sample_fmt">s16</property>
  <property name="meta.media.0.codec.sample_rate">48000</property>
  <property name="meta.media.0.codec.channels">2</property>
  <property name="meta.media.0.codec.layout">independent</property>
  <property name="meta.media.0.codec.name">pcm_s16le</property>
  <property name="meta.media.0.codec.long_name">PCM signed 16-bit little-endian</property>
  <property name="meta.media.0.codec.bit_rate">1536000</property>
  <property name="meta.attr.title.markup">Monster : Chapter 50 : The Rose Mansion</property>
  <property name="meta.attr.encoder.markup">Lavf60.16.100</property>
  <property name="xml">was here</property>
  <property name="mute_on_pause">0</property>
  <property name="set.test_audio">0</property>
  <property name="set.test_image">1</property>
 </chain>
 <playlist id="playlist4">
  <property name="kdenlive:audio_track">1</property>
  <entry in="00:00:00.000" out="00:08:58.308" producer="chain6">
   <property name="kdenlive:id">8</property>
   <filter id="filter29" in="00:08:57.766" out="00:08:58.308">
    <property name="window">75</property>
    <property name="max_gain">20dB</property>
    <property name="mlt_service">volume</property>
    <property name="kdenlive_id">fadeout</property>
    <property name="gain">1</property>
    <property name="end">0</property>
    <property name="kdenlive:collapsed">0</property>
   </filter>
  </entry>
  <entry in="00:09:01.168" out="00:09:31.949" producer="chain6">
   <property name="kdenlive:id">8</property>
   <filter id="filter30" in="00:09:01.168" out="00:09:02.127">
    <property name="window">75</property>
    <property name="max_gain">20dB</property>
    <property name="mlt_service">volume</property>
    <property name="kdenlive_id">fadein</property>
    <property name="gain">0</property>
    <property name="end">1</property>
    <property name="kdenlive:collapsed">0</property>
   </filter>
   <filter id="filter31" in="00:09:31.323" out="00:09:31.949">
    <property name="window">75</property>
    <property name="max_gain">20dB</property>
    <property name="mlt_service">volume</property>
    <property name="kdenlive_id">fadeout</property>
    <property name="gain">1</property>
    <property name="end">0</property>
   </filter>
  </entry>
  <blank length="00:04:44.169"/>
  <entry in="00:14:21.396" out="00:14:32.241" producer="chain6">
   <property name="kdenlive:id">8</property>
   <filter id="filter32" in="00:14:31.490" out="00:14:32.241">
    <property name="window">75</property>
    <property name="max_gain">20dB</property>
    <property name="mlt_service">volume</property>
    <property name="kdenlive_id">fadeout</property>
    <property name="gain">1</property>
    <property name="end">0</property>
    <property name="kdenlive:collapsed">0</property>
   </filter>
  </entry>
  <blank length="00:01:47.881"/>
  <entry in="00:16:57.307" out="00:16:58.475" producer="chain6">
   <property name="kdenlive:id">8</property>
   <filter id="filter33" in="00:16:57.307" out="00:16:57.557">
    <property name="window">75</property>
    <property name="max_gain">20dB</property>
    <property name="mlt_service">volume</property>
    <property name="kdenlive_id">fadein</property>
    <property name="gain">0</property>
    <property name="end">1</property>
   </filter>
   <filter id="filter34" in="00:16:58.141" out="00:16:58.475">
    <property name="window">75</property>
    <property name="max_gain">20dB</property>
    <property name="mlt_service">volume</property>
    <property name="kdenlive_id">fadeout</property>
    <property name="gain">1</property>
    <property name="end">0</property>
   </filter>
  </entry>
  <blank length="00:00:14.223"/>
  <entry in="00:17:14.139" out="00:17:17.392" producer="chain6">
   <property name="kdenlive:id">8</property>
   <filter id="filter35" in="00:17:14.139" out="00:17:14.264">
    <property name="window">75</property>
    <property name="max_gain">20dB</property>
    <property name="mlt_service">volume</property>
    <property name="kdenlive_id">fadein</property>
    <property name="gain">0</property>
    <property name="end">1</property>
    <property name="kdenlive:collapsed">0</property>
   </filter>
  </entry>
  <blank length="00:00:59.476"/>
  <entry in="00:18:21.647" out="00:22:20.729" producer="chain6">
   <property name="kdenlive:id">8</property>
   <filter id="filter36" in="00:22:20.520" out="00:22:20.729">
    <property name="window">75</property>
    <property name="max_gain">20dB</property>
    <property name="mlt_service">volume</property>
    <property name="kdenlive_id">fadeout</property>
    <property name="gain">1</property>
    <property name="end">0</property>
    <property name="kdenlive:collapsed">0</property>
   </filter>
  </entry>
  <blank length="00:00:01.710"/>
  <entry in="00:22:24.775" out="00:22:27.402" producer="chain6">
   <property name="kdenlive:id">8</property>
   <filter id="filter37" in="00:22:24.775" out="00:22:25.442">
    <property name="window">75</property>
    <property name="max_gain">20dB</property>
    <property name="mlt_service">volume</property>
    <property name="kdenlive_id">fadein</property>
    <property name="gain">0</property>
    <property name="end">1</property>
    <property name="kdenlive:collapsed">0</property>
   </filter>
  </entry>
  <entry in="00:03:10.719" out="00:05:38.163" producer="chain7">
   <property name="kdenlive:id">9</property>
   <filter id="filter38" in="00:05:36.078" out="00:05:38.163">
    <property name="window">75</property>
    <property name="max_gain">20dB</property>
    <property name="mlt_service">volume</property>
    <property name="kdenlive_id">fadeout</property>
    <property name="gain">1</property>
    <property name="end">0</property>
    <property name="kdenlive:collapsed">0</property>
   </filter>
  </entry>
  <blank length="00:00:01.919"/>
  <entry in="00:05:43.502" out="00:06:02.502" producer="chain7">
   <property name="kdenlive:id">9</property>
   <filter id="filter39" in="00:05:43.502" out="00:05:44.628">
    <property name="window">75</property>
    <property name="max_gain">20dB</property>
    <property name="mlt_service">volume</property>
    <property name="kdenlive_id">fadein</property>
    <property name="gain">0</property>
    <property name="end">1</property>
    <property name="kdenlive:collapsed">0</property>
   </filter>
  </entry>
  <blank length="00:00:04.504"/>
  <entry in="00:06:13.680" out="00:12:08.050" producer="chain7">
   <property name="kdenlive:id">9</property>
   <filter id="filter40" in="00:06:13.680" out="00:06:14.181">
    <property name="window">75</property>
    <property name="max_gain">20dB</property>
    <property name="mlt_service">volume</property>
    <property name="kdenlive_id">fadein</property>
    <property name="gain">0</property>
    <property name="end">1</property>
    <property name="kdenlive:collapsed">0</property>
   </filter>
  </entry>
  <blank length="00:02:14.514"/>
  <entry in="00:14:30.530" out="00:18:50.175" producer="chain7">
   <property name="kdenlive:id">9</property>
   <filter id="filter41" in="00:14:30.530" out="00:14:30.572">
    <property name="window">75</property>
    <property name="max_gain">20dB</property>
    <property name="mlt_service">volume</property>
    <property name="kdenlive_id">fadein</property>
    <property name="gain">0</property>
    <property name="end">1</property>
    <property name="kdenlive:collapsed">0</property>
   </filter>
   <filter id="filter42" in="00:18:50.008" out="00:18:50.175">
    <property name="window">75</property>
    <property name="max_gain">20dB</property>
    <property name="mlt_service">volume</property>
    <property name="kdenlive_id">fadeout</property>
    <property name="gain">1</property>
    <property name="end">0</property>
   </filter>
  </entry>
  <blank length="00:00:54.012"/>
  <entry in="00:19:57.266" out="00:22:26.944" producer="chain7">
   <property name="kdenlive:id">9</property>
   <filter id="filter43" in="00:19:57.266" out="00:19:57.849">
    <property name="window">75</property>
    <property name="max_gain">20dB</property>
    <property name="mlt_service">volume</property>
    <property name="kdenlive_id">fadein</property>
    <property name="gain">0</property>
    <property name="end">1</property>
    <property name="kdenlive:collapsed">0</property>
   </filter>
  </entry>
  <blank length="00:00:50.926"/>
  <entry in="00:00:55.847" out="00:01:05.839" producer="chain8">
   <property name="kdenlive:id">10</property>
   <filter id="filter44" in="00:01:05.672" out="00:01:05.839">
    <property name="window">75</property>
    <property name="max_gain">20dB</property>
    <property name="mlt_service">volume</property>
    <property name="kdenlive_id">fadeout</property>
    <property name="gain">1</property>
    <property name="end">0</property>
    <property name="kdenlive:collapsed">0</property>
   </filter>
   <filter id="filter45" in="00:00:55.847" out="00:00:56.348">
    <property name="window">75</property>
    <property name="max_gain">20dB</property>
    <property name="mlt_service">volume</property>
    <property name="kdenlive_id">fadein</property>
    <property name="gain">0</property>
    <property name="end">1</property>
    <property name="kdenlive:collapsed">0</property>
   </filter>
  </entry>
  <entry in="00:02:32.074" out="00:11:20.103" producer="chain8">
   <property name="kdenlive:id">10</property>
   <filter id="filter46" in="00:02:32.074" out="00:02:32.241">
    <property name="window">75</property>
    <property name="max_gain">20dB</property>
    <property name="mlt_service">volume</property>
    <property name="kdenlive_id">fadein</property>
    <property name="gain">0</property>
    <property name="end">1</property>
    <property name="kdenlive:collapsed">0</property>
   </filter>
  </entry>
  <blank length="00:10:56.890"/>
  <entry in="00:00:00.000" out="00:00:44.002" producer="chain9">
   <property name="kdenlive:id">11</property>
  </entry>
  <blank length="00:03:05.547"/>
  <entry in="00:05:17.267" out="00:11:03.337" producer="chain9">
   <property name="kdenlive:id">11</property>
   <filter id="filter47" in="00:05:17.267" out="00:05:18.101">
    <property name="window">75</property>
    <property name="max_gain">20dB</property>
    <property name="mlt_service">volume</property>
    <property name="kdenlive_id">fadein</property>
    <property name="gain">0</property>
    <property name="end">1</property>
    <property name="kdenlive:collapsed">0</property>
   </filter>
   <filter id="filter48" in="00:10:52.803" out="00:11:03.337">
    <property name="window">75</property>
    <property name="max_gain">20dB</property>
    <property name="mlt_service">volume</property>
    <property name="kdenlive_id">fadeout</property>
    <property name="gain">1</property>
    <property name="end">0</property>
   </filter>
  </entry>
  <blank length="00:01:23.232"/>
  <entry in="00:12:42.084" out="00:23:36.954" producer="chain9">
   <property name="kdenlive:id">11</property>
   <filter id="filter49" in="00:12:42.084" out="00:12:42.334">
    <property name="window">75</property>
    <property name="max_gain">20dB</property>
    <property name="mlt_service">volume</property>
    <property name="kdenlive_id">fadein</property>
    <property name="gain">0</property>
    <property name="end">1</property>
    <property name="kdenlive:collapsed">0</property>
   </filter>
  </entry>
 </playlist>
 <playlist id="playlist5">
  <property name="kdenlive:audio_track">1</property>
 </playlist>
 <tractor id="tractor2" in="00:00:00.000" out="01:22:58.767">
  <property name="kdenlive:audio_track">1</property>
  <property name="kdenlive:trackheight">62</property>
  <property name="kdenlive:timeline_active">1</property>
  <property name="kdenlive:collapsed">0</property>
  <property name="kdenlive:thumbs_format"/>
  <property name="kdenlive:audio_rec"/>
  <track hide="video" producer="playlist4"/>
  <track hide="video" producer="playlist5"/>
  <filter id="filter50">
   <property name="window">75</property>
   <property name="max_gain">20dB</property>
   <property name="mlt_service">volume</property>
   <property name="internal_added">237</property>
   <property name="disable">1</property>
  </filter>
  <filter id="filter51">
   <property name="channel">-1</property>
   <property name="mlt_service">panner</property>
   <property name="internal_added">237</property>
   <property name="start">0.5</property>
   <property name="disable">1</property>
  </filter>
  <filter id="filter52">
   <property name="iec_scale">0</property>
   <property name="mlt_service">audiolevel</property>
   <property name="dbpeak">1</property>
   <property name="disable">1</property>
  </filter>
 </tractor>
 <chain id="chain10" out="00:23:55.514">
  <property name="length">34418</property>
  <property name="eof">pause</property>
  <property name="resource">/mnt/data1/Anime-Edits/Monster/Monster-Editing/Orig/Monster - Chapter 47 - The Door To A Nightmare.mkv</property>
  <property name="mlt_service">avformat-novalidate</property>
  <property name="seekable">1</property>
  <property name="format">3</property>
  <property name="audio_index">1</property>
  <property name="video_index">0</property>
  <property name="vstream">0</property>
  <property name="astream">0</property>
  <property name="kdenlive:control_uuid">{e2f862f6-e57a-4bde-89b7-247ae4830858}</property>
  <property name="kdenlive:id">4</property>
  <property name="kdenlive:clip_type">0</property>
  <property name="kdenlive:file_size">470388560</property>
  <property name="kdenlive:file_hash">7f8f44fadf59a17a87b6819d7edeb574</property>
  <property name="kdenlive:folderid">-1</property>
  <property name="kdenlive:monitorPosition">0</property>
  <property name="kdenlive:audio_max1">192</property>
  <property name="kdenlive:audio_max2">194</property>
  <property name="meta.media.nb_streams">29</property>
  <property name="meta.media.0.stream.type">video</property>
  <property name="meta.media.0.stream.frame_rate">23.976</property>
  <property name="meta.media.0.stream.sample_aspect_ratio">1</property>
  <property name="meta.media.0.codec.width">1440</property>
  <property name="meta.media.0.codec.height">1080</property>
  <property name="meta.media.0.codec.rotate">0</property>
  <property name="meta.media.0.codec.pix_fmt">yuv420p10le</property>
  <property name="meta.media.0.codec.sample_aspect_ratio">1</property>
  <property name="meta.media.0.codec.colorspace">709</property>
  <property name="meta.media.0.codec.color_trc">1</property>
  <property name="meta.media.0.codec.name">hevc</property>
  <property name="meta.media.0.codec.long_name">HEVC (High Efficiency Video Coding)</property>
  <property name="meta.media.0.codec.bit_rate">0</property>
  <property name="meta.attr.0.stream.BPS-eng.markup">2017639</property>
  <property name="meta.attr.0.stream.DURATION-eng.markup">00:23:55.518000000</property>
  <property name="meta.attr.0.stream.NUMBER_OF_FRAMES-eng.markup">34418</property>
  <property name="meta.attr.0.stream.NUMBER_OF_BYTES-eng.markup">362044719</property>
  <property name="meta.attr.0.stream._STATISTICS_WRITING_APP-eng.markup">mkvmerge v52.0.0 ('Secret For The Mad') 64-bit</property>
  <property name="meta.attr.0.stream._STATISTICS_WRITING_DATE_UTC-eng.markup">2023-01-09 17:56:12</property>
  <property name="meta.attr.0.stream._STATISTICS_TAGS-eng.markup">BPS DURATION NUMBER_OF_FRAMES NUMBER_OF_BYTES</property>
  <property name="meta.media.1.stream.type">audio</property>
  <property name="meta.media.1.codec.sample_fmt">fltp</property>
  <property name="meta.media.1.codec.sample_rate">48000</property>
  <property name="meta.media.1.codec.channels">2</property>
  <property name="meta.media.1.codec.layout">stereo</property>
  <property name="meta.media.1.codec.name">ac3</property>
  <property name="meta.media.1.codec.long_name">ATSC A/52A (AC-3)</property>
  <property name="meta.media.1.codec.bit_rate">448000</property>
  <property name="meta.attr.1.stream.language.markup">jpn</property>
  <property name="meta.attr.1.stream.title.markup">Japanese DVD AC-3 DD_2.0</property>
  <property name="meta.attr.1.stream.BPS-eng.markup">448000</property>
  <property name="meta.attr.1.stream.DURATION-eng.markup">00:23:55.520000000</property>
  <property name="meta.attr.1.stream.NUMBER_OF_FRAMES-eng.markup">44860</property>
  <property name="meta.attr.1.stream.NUMBER_OF_BYTES-eng.markup">80389120</property>
  <property name="meta.attr.1.stream._STATISTICS_WRITING_APP-eng.markup">mkvmerge v52.0.0 ('Secret For The Mad') 64-bit</property>
  <property name="meta.attr.1.stream._STATISTICS_WRITING_DATE_UTC-eng.markup">2023-01-09 17:56:12</property>
  <property name="meta.attr.1.stream._STATISTICS_TAGS-eng.markup">BPS DURATION NUMBER_OF_FRAMES NUMBER_OF_BYTES</property>
  <property name="meta.media.2.stream.type">audio</property>
  <property name="meta.media.2.codec.sample_fmt">fltp</property>
  <property name="meta.media.2.codec.sample_rate">44100</property>
  <property name="meta.media.2.codec.channels">2</property>
  <property name="meta.media.2.codec.layout">stereo</property>
  <property name="meta.media.2.codec.name">aac</property>
  <property name="meta.media.2.codec.long_name">AAC (Advanced Audio Coding)</property>
  <property name="meta.media.2.codec.bit_rate">0</property>
  <property name="meta.attr.2.stream.language.markup">eng</property>
  <property name="meta.attr.2.stream.title.markup">English AAC DD_2.0</property>
  <property name="meta.attr.2.stream.BPS-eng.markup">135765</property>
  <property name="meta.attr.2.stream.DURATION-eng.markup">00:23:55.434000000</property>
  <property name="meta.attr.2.stream.NUMBER_OF_FRAMES-eng.markup">61819</property>
  <property name="meta.attr.2.stream.NUMBER_OF_BYTES-eng.markup">24360273</property>
  <property name="meta.attr.2.stream._STATISTICS_WRITING_APP-eng.markup">mkvmerge v52.0.0 ('Secret For The Mad') 64-bit</property>
  <property name="meta.attr.2.stream._STATISTICS_WRITING_DATE_UTC-eng.markup">2023-01-09 17:56:12</property>
  <property name="meta.attr.2.stream._STATISTICS_TAGS-eng.markup">BPS DURATION NUMBER_OF_FRAMES NUMBER_OF_BYTES</property>
  <property name="meta.media.3.codec.name">ssa</property>
  <property name="meta.media.3.codec.long_name">ASS (Advanced SubStation Alpha) subtitle</property>
  <property name="meta.media.3.codec.bit_rate">0</property>
  <property name="meta.attr.3.stream.language.markup">eng</property>
  <property name="meta.attr.3.stream.title.markup">English (Full) ASS</property>
  <property name="meta.attr.3.stream.BPS-eng.markup">109</property>
  <property name="meta.attr.3.stream.DURATION-eng.markup">00:23:33.030000000</property>
  <property name="meta.attr.3.stream.NUMBER_OF_FRAMES-eng.markup">350</property>
  <property name="meta.attr.3.stream.NUMBER_OF_BYTES-eng.markup">19337</property>
  <property name="meta.attr.3.stream._STATISTICS_WRITING_APP-eng.markup">mkvmerge v52.0.0 ('Secret For The Mad') 64-bit</property>
  <property name="meta.attr.3.stream._STATISTICS_WRITING_DATE_UTC-eng.markup">2023-01-09 17:56:12</property>
  <property name="meta.attr.3.stream._STATISTICS_TAGS-eng.markup">BPS DURATION NUMBER_OF_FRAMES NUMBER_OF_BYTES</property>
  <property name="meta.media.4.codec.name">ssa</property>
  <property name="meta.media.4.codec.long_name">ASS (Advanced SubStation Alpha) subtitle</property>
  <property name="meta.media.4.codec.bit_rate">0</property>
  <property name="meta.attr.4.stream.language.markup">eng</property>
  <property name="meta.attr.4.stream.title.markup">English (Titles &amp; Signs) ASS</property>
  <property name="meta.attr.4.stream.BPS-eng.markup">0</property>
  <property name="meta.attr.4.stream.DURATION-eng.markup">00:20:48.120000000</property>
  <property name="meta.attr.4.stream.NUMBER_OF_FRAMES-eng.markup">2</property>
  <property name="meta.attr.4.stream.NUMBER_OF_BYTES-eng.markup">147</property>
  <property name="meta.attr.4.stream._STATISTICS_WRITING_APP-eng.markup">mkvmerge v52.0.0 ('Secret For The Mad') 64-bit</property>
  <property name="meta.attr.4.stream._STATISTICS_WRITING_DATE_UTC-eng.markup">2023-01-09 17:56:12</property>
  <property name="meta.attr.4.stream._STATISTICS_TAGS-eng.markup">BPS DURATION NUMBER_OF_FRAMES NUMBER_OF_BYTES</property>
  <property name="meta.media.5.codec.name">ssa</property>
  <property name="meta.media.5.codec.long_name">ASS (Advanced SubStation Alpha) subtitle</property>
  <property name="meta.media.5.codec.bit_rate">0</property>
  <property name="meta.attr.5.stream.language.markup">ara</property>
  <property name="meta.attr.5.stream.title.markup">Arabic</property>
  <property name="meta.attr.5.stream.BPS-eng.markup">123</property>
  <property name="meta.attr.5.stream.DURATION-eng.markup">00:22:06.340000000</property>
  <property name="meta.attr.5.stream.NUMBER_OF_FRAMES-eng.markup">337</property>
  <property name="meta.attr.5.stream.NUMBER_OF_BYTES-eng.markup">20546</property>
  <property name="meta.attr.5.stream._STATISTICS_WRITING_APP-eng.markup">mkvmerge v52.0.0 ('Secret For The Mad') 64-bit</property>
  <property name="meta.attr.5.stream._STATISTICS_WRITING_DATE_UTC-eng.markup">2023-01-09 17:56:12</property>
  <property name="meta.attr.5.stream._STATISTICS_TAGS-eng.markup">BPS DURATION NUMBER_OF_FRAMES NUMBER_OF_BYTES</property>
  <property name="meta.attr.title.markup">Monster : Chapter 47 : The Door To A Nightmare</property>
  <property name="meta.attr.encoder.markup">libebml v1.4.1 + libmatroska v1.6.2</property>
  <property name="meta.attr.creation_time.markup">2023-01-09T17:56:12.000000Z</property>
  <property name="meta.media.sample_aspect_num">1</property>
  <property name="meta.media.sample_aspect_den">1</property>
  <property name="meta.media.frame_rate_num">24000</property>
  <property name="meta.media.frame_rate_den">1001</property>
  <property name="meta.media.colorspace">709</property>
  <property name="meta.media.color_trc">1</property>
  <property name="meta.media.has_b_frames">2</property>
  <property name="meta.media.width">1440</property>
  <property name="meta.media.height">1080</property>
  <property name="meta.media.aspect_ratio">1</property>
  <property name="meta.media.color_range">mpeg</property>
  <property name="xml">was here</property>
  <property name="mute_on_pause">0</property>
  <property name="meta.media.top_field_first">0</property>
  <property name="meta.media.progressive">1</property>
  <property name="set.test_audio">1</property>
  <property name="set.test_image">0</property>
 </chain>
 <producer id="producer1" in="00:00:00.000" out="00:07:58.517">
  <property name="length">11473</property>
  <property name="eof">pause</property>
  <property name="resource">3.000000:/mnt/data1/Anime-Edits/Monster/Monster-Editing/Orig/Monster - Chapter 47 - The Door To A Nightmare.mkv</property>
  <property name="aspect_ratio">1</property>
  <property name="meta.media.nb_streams">29</property>
  <property name="meta.media.0.stream.type">video</property>
  <property name="meta.media.0.stream.frame_rate">23.976</property>
  <property name="meta.media.0.stream.sample_aspect_ratio">1</property>
  <property name="meta.media.0.codec.width">1440</property>
  <property name="meta.media.0.codec.height">1080</property>
  <property name="meta.media.0.codec.rotate">0</property>
  <property name="meta.media.0.codec.pix_fmt">yuv420p10le</property>
  <property name="meta.media.0.codec.sample_aspect_ratio">1</property>
  <property name="meta.media.0.codec.colorspace">709</property>
  <property name="meta.media.0.codec.color_trc">1</property>
  <property name="meta.media.0.codec.name">hevc</property>
  <property name="meta.media.0.codec.long_name">HEVC (High Efficiency Video Coding)</property>
  <property name="meta.media.0.codec.bit_rate">0</property>
  <property name="meta.attr.0.stream.BPS-eng.markup">2017639</property>
  <property name="meta.attr.0.stream.DURATION-eng.markup">00:23:55.518000000</property>
  <property name="meta.attr.0.stream.NUMBER_OF_FRAMES-eng.markup">34418</property>
  <property name="meta.attr.0.stream.NUMBER_OF_BYTES-eng.markup">362044719</property>
  <property name="meta.attr.0.stream._STATISTICS_WRITING_APP-eng.markup">mkvmerge v52.0.0 ('Secret For The Mad') 64-bit</property>
  <property name="meta.attr.0.stream._STATISTICS_WRITING_DATE_UTC-eng.markup">2023-01-09 17:56:12</property>
  <property name="meta.attr.0.stream._STATISTICS_TAGS-eng.markup">BPS DURATION NUMBER_OF_FRAMES NUMBER_OF_BYTES</property>
  <property name="meta.media.1.stream.type">audio</property>
  <property name="meta.media.1.codec.sample_fmt">fltp</property>
  <property name="meta.media.1.codec.sample_rate">48000</property>
  <property name="meta.media.1.codec.channels">2</property>
  <property name="meta.media.1.codec.layout">stereo</property>
  <property name="meta.media.1.codec.name">ac3</property>
  <property name="meta.media.1.codec.long_name">ATSC A/52A (AC-3)</property>
  <property name="meta.media.1.codec.bit_rate">448000</property>
  <property name="meta.attr.1.stream.language.markup">jpn</property>
  <property name="meta.attr.1.stream.title.markup">Japanese DVD AC-3 DD_2.0</property>
  <property name="meta.attr.1.stream.BPS-eng.markup">448000</property>
  <property name="meta.attr.1.stream.DURATION-eng.markup">00:23:55.520000000</property>
  <property name="meta.attr.1.stream.NUMBER_OF_FRAMES-eng.markup">44860</property>
  <property name="meta.attr.1.stream.NUMBER_OF_BYTES-eng.markup">80389120</property>
  <property name="meta.attr.1.stream._STATISTICS_WRITING_APP-eng.markup">mkvmerge v52.0.0 ('Secret For The Mad') 64-bit</property>
  <property name="meta.attr.1.stream._STATISTICS_WRITING_DATE_UTC-eng.markup">2023-01-09 17:56:12</property>
  <property name="meta.attr.1.stream._STATISTICS_TAGS-eng.markup">BPS DURATION NUMBER_OF_FRAMES NUMBER_OF_BYTES</property>
  <property name="meta.media.2.stream.type">audio</property>
  <property name="meta.media.2.codec.sample_fmt">fltp</property>
  <property name="meta.media.2.codec.sample_rate">44100</property>
  <property name="meta.media.2.codec.channels">2</property>
  <property name="meta.media.2.codec.layout">stereo</property>
  <property name="meta.media.2.codec.name">aac</property>
  <property name="meta.media.2.codec.long_name">AAC (Advanced Audio Coding)</property>
  <property name="meta.media.2.codec.bit_rate">0</property>
  <property name="meta.attr.2.stream.language.markup">eng</property>
  <property name="meta.attr.2.stream.title.markup">English AAC DD_2.0</property>
  <property name="meta.attr.2.stream.BPS-eng.markup">135765</property>
  <property name="meta.attr.2.stream.DURATION-eng.markup">00:23:55.434000000</property>
  <property name="meta.attr.2.stream.NUMBER_OF_FRAMES-eng.markup">61819</property>
  <property name="meta.attr.2.stream.NUMBER_OF_BYTES-eng.markup">24360273</property>
  <property name="meta.attr.2.stream._STATISTICS_WRITING_APP-eng.markup">mkvmerge v52.0.0 ('Secret For The Mad') 64-bit</property>
  <property name="meta.attr.2.stream._STATISTICS_WRITING_DATE_UTC-eng.markup">2023-01-09 17:56:12</property>
  <property name="meta.attr.2.stream._STATISTICS_TAGS-eng.markup">BPS DURATION NUMBER_OF_FRAMES NUMBER_OF_BYTES</property>
  <property name="meta.media.3.codec.name">ssa</property>
  <property name="meta.media.3.codec.long_name">ASS (Advanced SubStation Alpha) subtitle</property>
  <property name="meta.media.3.codec.bit_rate">0</property>
  <property name="meta.attr.3.stream.language.markup">eng</property>
  <property name="meta.attr.3.stream.title.markup">English (Full) ASS</property>
  <property name="meta.attr.3.stream.BPS-eng.markup">109</property>
  <property name="meta.attr.3.stream.DURATION-eng.markup">00:23:33.030000000</property>
  <property name="meta.attr.3.stream.NUMBER_OF_FRAMES-eng.markup">350</property>
  <property name="meta.attr.3.stream.NUMBER_OF_BYTES-eng.markup">19337</property>
  <property name="meta.attr.3.stream._STATISTICS_WRITING_APP-eng.markup">mkvmerge v52.0.0 ('Secret For The Mad') 64-bit</property>
  <property name="meta.attr.3.stream._STATISTICS_WRITING_DATE_UTC-eng.markup">2023-01-09 17:56:12</property>
  <property name="meta.attr.3.stream._STATISTICS_TAGS-eng.markup">BPS DURATION NUMBER_OF_FRAMES NUMBER_OF_BYTES</property>
  <property name="meta.media.4.codec.name">ssa</property>
  <property name="meta.media.4.codec.long_name">ASS (Advanced SubStation Alpha) subtitle</property>
  <property name="meta.media.4.codec.bit_rate">0</property>
  <property name="meta.attr.4.stream.language.markup">eng</property>
  <property name="meta.attr.4.stream.title.markup">English (Titles &amp; Signs) ASS</property>
  <property name="meta.attr.4.stream.BPS-eng.markup">0</property>
  <property name="meta.attr.4.stream.DURATION-eng.markup">00:20:48.120000000</property>
  <property name="meta.attr.4.stream.NUMBER_OF_FRAMES-eng.markup">2</property>
  <property name="meta.attr.4.stream.NUMBER_OF_BYTES-eng.markup">147</property>
  <property name="meta.attr.4.stream._STATISTICS_WRITING_APP-eng.markup">mkvmerge v52.0.0 ('Secret For The Mad') 64-bit</property>
  <property name="meta.attr.4.stream._STATISTICS_WRITING_DATE_UTC-eng.markup">2023-01-09 17:56:12</property>
  <property name="meta.attr.4.stream._STATISTICS_TAGS-eng.markup">BPS DURATION NUMBER_OF_FRAMES NUMBER_OF_BYTES</property>
  <property name="meta.media.5.codec.name">ssa</property>
  <property name="meta.media.5.codec.long_name">ASS (Advanced SubStation Alpha) subtitle</property>
  <property name="meta.media.5.codec.bit_rate">0</property>
  <property name="meta.attr.5.stream.language.markup">ara</property>
  <property name="meta.attr.5.stream.title.markup">Arabic</property>
  <property name="meta.attr.5.stream.BPS-eng.markup">123</property>
  <property name="meta.attr.5.stream.DURATION-eng.markup">00:22:06.340000000</property>
  <property name="meta.attr.5.stream.NUMBER_OF_FRAMES-eng.markup">337</property>
  <property name="meta.attr.5.stream.NUMBER_OF_BYTES-eng.markup">20546</property>
  <property name="meta.attr.5.stream._STATISTICS_WRITING_APP-eng.markup">mkvmerge v52.0.0 ('Secret For The Mad') 64-bit</property>
  <property name="meta.attr.5.stream._STATISTICS_WRITING_DATE_UTC-eng.markup">2023-01-09 17:56:12</property>
  <property name="meta.attr.5.stream._STATISTICS_TAGS-eng.markup">BPS DURATION NUMBER_OF_FRAMES NUMBER_OF_BYTES</property>
  <property name="meta.attr.title.markup">Monster : Chapter 47 : The Door To A Nightmare</property>
  <property name="meta.attr.encoder.markup">libebml v1.4.1 + libmatroska v1.6.2</property>
  <property name="meta.attr.creation_time.markup">2023-01-09T17:56:12.000000Z</property>
  <property name="seekable">1</property>
  <property name="meta.media.sample_aspect_num">1</property>
  <property name="meta.media.sample_aspect_den">1</property>
  <property name="format">3</property>
  <property name="audio_index">1</property>
  <property name="video_index">0</property>
  <property name="warp_speed">3</property>
  <property name="warp_resource">/mnt/data1/Anime-Edits/Monster/Monster-Editing/Orig/Monster - Chapter 47 - The Door To A Nightmare.mkv</property>
  <property name="mlt_service">timewarp</property>
  <property name="kdenlive:control_uuid">{e2f862f6-e57a-4bde-89b7-247ae4830858}</property>
  <property name="vstream">0</property>
  <property name="astream">0</property>
  <property name="set.test_audio">1</property>
  <property name="set.test_image">0</property>
  <property name="kdenlive:id">4</property>
  <property name="warp_pitch">0</property>
  <property name="meta.media.frame_rate_num">24000</property>
  <property name="meta.media.frame_rate_den">1001</property>
  <property name="meta.media.colorspace">709</property>
  <property name="meta.media.color_trc">1</property>
  <property name="meta.media.has_b_frames">2</property>
  <property name="meta.media.width">1440</property>
  <property name="meta.media.height">1080</property>
  <property name="meta.media.aspect_ratio">1</property>
  <property name="meta.media.color_range">mpeg</property>
  <property name="meta.media.top_field_first">0</property>
  <property name="meta.media.progressive">1</property>
 </producer>
 <producer id="producer2" in="00:00:00.000" out="00:11:57.724">
  <property name="length">17209</property>
  <property name="eof">pause</property>
  <property name="resource">2.000000:/mnt/data1/Anime-Edits/Monster/Monster-Editing/Orig/Monster - Chapter 47 - The Door To A Nightmare.mkv</property>
  <property name="aspect_ratio">1</property>
  <property name="meta.media.nb_streams">29</property>
  <property name="meta.media.0.stream.type">video</property>
  <property name="meta.media.0.stream.frame_rate">23.976</property>
  <property name="meta.media.0.stream.sample_aspect_ratio">1</property>
  <property name="meta.media.0.codec.width">1440</property>
  <property name="meta.media.0.codec.height">1080</property>
  <property name="meta.media.0.codec.rotate">0</property>
  <property name="meta.media.0.codec.pix_fmt">yuv420p10le</property>
  <property name="meta.media.0.codec.sample_aspect_ratio">1</property>
  <property name="meta.media.0.codec.colorspace">709</property>
  <property name="meta.media.0.codec.color_trc">1</property>
  <property name="meta.media.0.codec.name">hevc</property>
  <property name="meta.media.0.codec.long_name">HEVC (High Efficiency Video Coding)</property>
  <property name="meta.media.0.codec.bit_rate">0</property>
  <property name="meta.attr.0.stream.BPS-eng.markup">2017639</property>
  <property name="meta.attr.0.stream.DURATION-eng.markup">00:23:55.518000000</property>
  <property name="meta.attr.0.stream.NUMBER_OF_FRAMES-eng.markup">34418</property>
  <property name="meta.attr.0.stream.NUMBER_OF_BYTES-eng.markup">362044719</property>
  <property name="meta.attr.0.stream._STATISTICS_WRITING_APP-eng.markup">mkvmerge v52.0.0 ('Secret For The Mad') 64-bit</property>
  <property name="meta.attr.0.stream._STATISTICS_WRITING_DATE_UTC-eng.markup">2023-01-09 17:56:12</property>
  <property name="meta.attr.0.stream._STATISTICS_TAGS-eng.markup">BPS DURATION NUMBER_OF_FRAMES NUMBER_OF_BYTES</property>
  <property name="meta.media.1.stream.type">audio</property>
  <property name="meta.media.1.codec.sample_fmt">fltp</property>
  <property name="meta.media.1.codec.sample_rate">48000</property>
  <property name="meta.media.1.codec.channels">2</property>
  <property name="meta.media.1.codec.layout">stereo</property>
  <property name="meta.media.1.codec.name">ac3</property>
  <property name="meta.media.1.codec.long_name">ATSC A/52A (AC-3)</property>
  <property name="meta.media.1.codec.bit_rate">448000</property>
  <property name="meta.attr.1.stream.language.markup">jpn</property>
  <property name="meta.attr.1.stream.title.markup">Japanese DVD AC-3 DD_2.0</property>
  <property name="meta.attr.1.stream.BPS-eng.markup">448000</property>
  <property name="meta.attr.1.stream.DURATION-eng.markup">00:23:55.520000000</property>
  <property name="meta.attr.1.stream.NUMBER_OF_FRAMES-eng.markup">44860</property>
  <property name="meta.attr.1.stream.NUMBER_OF_BYTES-eng.markup">80389120</property>
  <property name="meta.attr.1.stream._STATISTICS_WRITING_APP-eng.markup">mkvmerge v52.0.0 ('Secret For The Mad') 64-bit</property>
  <property name="meta.attr.1.stream._STATISTICS_WRITING_DATE_UTC-eng.markup">2023-01-09 17:56:12</property>
  <property name="meta.attr.1.stream._STATISTICS_TAGS-eng.markup">BPS DURATION NUMBER_OF_FRAMES NUMBER_OF_BYTES</property>
  <property name="meta.media.2.stream.type">audio</property>
  <property name="meta.media.2.codec.sample_fmt">fltp</property>
  <property name="meta.media.2.codec.sample_rate">44100</property>
  <property name="meta.media.2.codec.channels">2</property>
  <property name="meta.media.2.codec.layout">stereo</property>
  <property name="meta.media.2.codec.name">aac</property>
  <property name="meta.media.2.codec.long_name">AAC (Advanced Audio Coding)</property>
  <property name="meta.media.2.codec.bit_rate">0</property>
  <property name="meta.attr.2.stream.language.markup">eng</property>
  <property name="meta.attr.2.stream.title.markup">English AAC DD_2.0</property>
  <property name="meta.attr.2.stream.BPS-eng.markup">135765</property>
  <property name="meta.attr.2.stream.DURATION-eng.markup">00:23:55.434000000</property>
  <property name="meta.attr.2.stream.NUMBER_OF_FRAMES-eng.markup">61819</property>
  <property name="meta.attr.2.stream.NUMBER_OF_BYTES-eng.markup">24360273</property>
  <property name="meta.attr.2.stream._STATISTICS_WRITING_APP-eng.markup">mkvmerge v52.0.0 ('Secret For The Mad') 64-bit</property>
  <property name="meta.attr.2.stream._STATISTICS_WRITING_DATE_UTC-eng.markup">2023-01-09 17:56:12</property>
  <property name="meta.attr.2.stream._STATISTICS_TAGS-eng.markup">BPS DURATION NUMBER_OF_FRAMES NUMBER_OF_BYTES</property>
  <property name="meta.media.3.codec.name">ssa</property>
  <property name="meta.media.3.codec.long_name">ASS (Advanced SubStation Alpha) subtitle</property>
  <property name="meta.media.3.codec.bit_rate">0</property>
  <property name="meta.attr.3.stream.language.markup">eng</property>
  <property name="meta.attr.3.stream.title.markup">English (Full) ASS</property>
  <property name="meta.attr.3.stream.BPS-eng.markup">109</property>
  <property name="meta.attr.3.stream.DURATION-eng.markup">00:23:33.030000000</property>
  <property name="meta.attr.3.stream.NUMBER_OF_FRAMES-eng.markup">350</property>
  <property name="meta.attr.3.stream.NUMBER_OF_BYTES-eng.markup">19337</property>
  <property name="meta.attr.3.stream._STATISTICS_WRITING_APP-eng.markup">mkvmerge v52.0.0 ('Secret For The Mad') 64-bit</property>
  <property name="meta.attr.3.stream._STATISTICS_WRITING_DATE_UTC-eng.markup">2023-01-09 17:56:12</property>
  <property name="meta.attr.3.stream._STATISTICS_TAGS-eng.markup">BPS DURATION NUMBER_OF_FRAMES NUMBER_OF_BYTES</property>
  <property name="meta.media.4.codec.name">ssa</property>
  <property name="meta.media.4.codec.long_name">ASS (Advanced SubStation Alpha) subtitle</property>
  <property name="meta.media.4.codec.bit_rate">0</property>
  <property name="meta.attr.4.stream.language.markup">eng</property>
  <property name="meta.attr.4.stream.title.markup">English (Titles &amp; Signs) ASS</property>
  <property name="meta.attr.4.stream.BPS-eng.markup">0</property>
  <property name="meta.attr.4.stream.DURATION-eng.markup">00:20:48.120000000</property>
  <property name="meta.attr.4.stream.NUMBER_OF_FRAMES-eng.markup">2</property>
  <property name="meta.attr.4.stream.NUMBER_OF_BYTES-eng.markup">147</property>
  <property name="meta.attr.4.stream._STATISTICS_WRITING_APP-eng.markup">mkvmerge v52.0.0 ('Secret For The Mad') 64-bit</property>
  <property name="meta.attr.4.stream._STATISTICS_WRITING_DATE_UTC-eng.markup">2023-01-09 17:56:12</property>
  <property name="meta.attr.4.stream._STATISTICS_TAGS-eng.markup">BPS DURATION NUMBER_OF_FRAMES NUMBER_OF_BYTES</property>
  <property name="meta.media.5.codec.name">ssa</property>
  <property name="meta.media.5.codec.long_name">ASS (Advanced SubStation Alpha) subtitle</property>
  <property name="meta.media.5.codec.bit_rate">0</property>
  <property name="meta.attr.5.stream.language.markup">ara</property>
  <property name="meta.attr.5.stream.title.markup">Arabic</property>
  <property name="meta.attr.5.stream.BPS-eng.markup">123</property>
  <property name="meta.attr.5.stream.DURATION-eng.markup">00:22:06.340000000</property>
  <property name="meta.attr.5.stream.NUMBER_OF_FRAMES-eng.markup">337</property>
  <property name="meta.attr.5.stream.NUMBER_OF_BYTES-eng.markup">20546</property>
  <property name="meta.attr.5.stream._STATISTICS_WRITING_APP-eng.markup">mkvmerge v52.0.0 ('Secret For The Mad') 64-bit</property>
  <property name="meta.attr.5.stream._STATISTICS_WRITING_DATE_UTC-eng.markup">2023-01-09 17:56:12</property>
  <property name="meta.attr.5.stream._STATISTICS_TAGS-eng.markup">BPS DURATION NUMBER_OF_FRAMES NUMBER_OF_BYTES</property>
  <property name="meta.attr.title.markup">Monster : Chapter 47 : The Door To A Nightmare</property>
  <property name="meta.attr.encoder.markup">libebml v1.4.1 + libmatroska v1.6.2</property>
  <property name="meta.attr.creation_time.markup">2023-01-09T17:56:12.000000Z</property>
  <property name="seekable">1</property>
  <property name="meta.media.sample_aspect_num">1</property>
  <property name="meta.media.sample_aspect_den">1</property>
  <property name="format">3</property>
  <property name="audio_index">1</property>
  <property name="video_index">0</property>
  <property name="warp_speed">2</property>
  <property name="warp_resource">/mnt/data1/Anime-Edits/Monster/Monster-Editing/Orig/Monster - Chapter 47 - The Door To A Nightmare.mkv</property>
  <property name="mlt_service">timewarp</property>
  <property name="kdenlive:control_uuid">{e2f862f6-e57a-4bde-89b7-247ae4830858}</property>
  <property name="vstream">0</property>
  <property name="astream">0</property>
  <property name="set.test_audio">1</property>
  <property name="set.test_image">0</property>
  <property name="kdenlive:id">4</property>
  <property name="warp_pitch">0</property>
  <property name="meta.media.frame_rate_num">24000</property>
  <property name="meta.media.frame_rate_den">1001</property>
  <property name="meta.media.colorspace">709</property>
  <property name="meta.media.color_trc">1</property>
  <property name="meta.media.has_b_frames">2</property>
  <property name="meta.media.width">1440</property>
  <property name="meta.media.height">1080</property>
  <property name="meta.media.aspect_ratio">1</property>
  <property name="meta.media.color_range">mpeg</property>
  <property name="meta.media.top_field_first">0</property>
  <property name="meta.media.progressive">1</property>
 </producer>
 <chain id="chain11" out="00:23:55.555">
  <property name="length">34419</property>
  <property name="eof">pause</property>
  <property name="resource">/mnt/data1/Anime-Edits/Monster/Monster-Editing/Orig/Monster - Chapter 48 - The Most Frightening Thing.mkv</property>
  <property name="mlt_service">avformat-novalidate</property>
  <property name="seekable">1</property>
  <property name="format">3</property>
  <property name="audio_index">1</property>
  <property name="video_index">0</property>
  <property name="vstream">0</property>
  <property name="astream">0</property>
  <property name="kdenlive:control_uuid">{04d31486-686e-48ad-a98d-f7b32908f37a}</property>
  <property name="kdenlive:id">5</property>
  <property name="kdenlive:clip_type">0</property>
  <property name="kdenlive:file_size">484605456</property>
  <property name="kdenlive:file_hash">527f581f630d8ef3b462e0d24c5bd97e</property>
  <property name="kdenlive:folderid">-1</property>
  <property name="kdenlive:audio_max1">211</property>
  <property name="kdenlive:audio_max2">214</property>
  <property name="meta.media.nb_streams">29</property>
  <property name="meta.media.0.stream.type">video</property>
  <property name="meta.media.0.stream.frame_rate">23.976</property>
  <property name="meta.media.0.stream.sample_aspect_ratio">1</property>
  <property name="meta.media.0.codec.width">1440</property>
  <property name="meta.media.0.codec.height">1080</property>
  <property name="meta.media.0.codec.rotate">0</property>
  <property name="meta.media.0.codec.pix_fmt">yuv420p10le</property>
  <property name="meta.media.0.codec.sample_aspect_ratio">1</property>
  <property name="meta.media.0.codec.colorspace">709</property>
  <property name="meta.media.0.codec.color_trc">1</property>
  <property name="meta.media.0.codec.name">hevc</property>
  <property name="meta.media.0.codec.long_name">HEVC (High Efficiency Video Coding)</property>
  <property name="meta.media.0.codec.bit_rate">0</property>
  <property name="meta.attr.0.stream.BPS-eng.markup">2092995</property>
  <property name="meta.attr.0.stream.DURATION-eng.markup">00:23:55.518000000</property>
  <property name="meta.attr.0.stream.NUMBER_OF_FRAMES-eng.markup">34418</property>
  <property name="meta.attr.0.stream.NUMBER_OF_BYTES-eng.markup">375566518</property>
  <property name="meta.attr.0.stream._STATISTICS_WRITING_APP-eng.markup">mkvmerge v52.0.0 ('Secret For The Mad') 64-bit</property>
  <property name="meta.attr.0.stream._STATISTICS_WRITING_DATE_UTC-eng.markup">2023-01-09 17:58:28</property>
  <property name="meta.attr.0.stream._STATISTICS_TAGS-eng.markup">BPS DURATION NUMBER_OF_FRAMES NUMBER_OF_BYTES</property>
  <property name="meta.media.1.stream.type">audio</property>
  <property name="meta.media.1.codec.sample_fmt">fltp</property>
  <property name="meta.media.1.codec.sample_rate">48000</property>
  <property name="meta.media.1.codec.channels">2</property>
  <property name="meta.media.1.codec.layout">stereo</property>
  <property name="meta.media.1.codec.name">ac3</property>
  <property name="meta.media.1.codec.long_name">ATSC A/52A (AC-3)</property>
  <property name="meta.media.1.codec.bit_rate">448000</property>
  <property name="meta.attr.1.stream.language.markup">jpn</property>
  <property name="meta.attr.1.stream.title.markup">Japanese DVD AC-3 DD_2.0</property>
  <property name="meta.attr.1.stream.BPS-eng.markup">448000</property>
  <property name="meta.attr.1.stream.DURATION-eng.markup">00:23:55.552000000</property>
  <property name="meta.attr.1.stream.NUMBER_OF_FRAMES-eng.markup">44861</property>
  <property name="meta.attr.1.stream.NUMBER_OF_BYTES-eng.markup">80390912</property>
  <property name="meta.attr.1.stream._STATISTICS_WRITING_APP-eng.markup">mkvmerge v52.0.0 ('Secret For The Mad') 64-bit</property>
  <property name="meta.attr.1.stream._STATISTICS_WRITING_DATE_UTC-eng.markup">2023-01-09 17:58:28</property>
  <property name="meta.attr.1.stream._STATISTICS_TAGS-eng.markup">BPS DURATION NUMBER_OF_FRAMES NUMBER_OF_BYTES</property>
  <property name="meta.media.2.stream.type">audio</property>
  <property name="meta.media.2.codec.sample_fmt">fltp</property>
  <property name="meta.media.2.codec.sample_rate">44100</property>
  <property name="meta.media.2.codec.channels">2</property>
  <property name="meta.media.2.codec.layout">stereo</property>
  <property name="meta.media.2.codec.name">aac</property>
  <property name="meta.media.2.codec.long_name">AAC (Advanced Audio Coding)</property>
  <property name="meta.media.2.codec.bit_rate">0</property>
  <property name="meta.attr.2.stream.language.markup">eng</property>
  <property name="meta.attr.2.stream.title.markup">English AAC DD_2.0</property>
  <property name="meta.attr.2.stream.BPS-eng.markup">139646</property>
  <property name="meta.attr.2.stream.DURATION-eng.markup">00:23:55.294000000</property>
  <property name="meta.attr.2.stream.NUMBER_OF_FRAMES-eng.markup">61813</property>
  <property name="meta.attr.2.stream.NUMBER_OF_BYTES-eng.markup">25054209</property>
  <property name="meta.attr.2.stream._STATISTICS_WRITING_APP-eng.markup">mkvmerge v52.0.0 ('Secret For The Mad') 64-bit</property>
  <property name="meta.attr.2.stream._STATISTICS_WRITING_DATE_UTC-eng.markup">2023-01-09 17:58:28</property>
  <property name="meta.attr.2.stream._STATISTICS_TAGS-eng.markup">BPS DURATION NUMBER_OF_FRAMES NUMBER_OF_BYTES</property>
  <property name="meta.media.3.codec.name">ssa</property>
  <property name="meta.media.3.codec.long_name">ASS (Advanced SubStation Alpha) subtitle</property>
  <property name="meta.media.3.codec.bit_rate">0</property>
  <property name="meta.attr.3.stream.language.markup">eng</property>
  <property name="meta.attr.3.stream.title.markup">English (Full) ASS</property>
  <property name="meta.attr.3.stream.BPS-eng.markup">108</property>
  <property name="meta.attr.3.stream.DURATION-eng.markup">00:23:49.450000000</property>
  <property name="meta.attr.3.stream.NUMBER_OF_FRAMES-eng.markup">346</property>
  <property name="meta.attr.3.stream.NUMBER_OF_BYTES-eng.markup">19405</property>
  <property name="meta.attr.3.stream._STATISTICS_WRITING_APP-eng.markup">mkvmerge v52.0.0 ('Secret For The Mad') 64-bit</property>
  <property name="meta.attr.3.stream._STATISTICS_WRITING_DATE_UTC-eng.markup">2023-01-09 17:58:28</property>
  <property name="meta.attr.3.stream._STATISTICS_TAGS-eng.markup">BPS DURATION NUMBER_OF_FRAMES NUMBER_OF_BYTES</property>
  <property name="meta.media.4.codec.name">ssa</property>
  <property name="meta.media.4.codec.long_name">ASS (Advanced SubStation Alpha) subtitle</property>
  <property name="meta.media.4.codec.bit_rate">0</property>
  <property name="meta.attr.4.stream.language.markup">eng</property>
  <property name="meta.attr.4.stream.title.markup">English (Titles &amp; Signs) ASS</property>
  <property name="meta.attr.4.stream.BPS-eng.markup">1</property>
  <property name="meta.attr.4.stream.DURATION-eng.markup">00:18:06.420000000</property>
  <property name="meta.attr.4.stream.NUMBER_OF_FRAMES-eng.markup">4</property>
  <property name="meta.attr.4.stream.NUMBER_OF_BYTES-eng.markup">268</property>
  <property name="meta.attr.4.stream._STATISTICS_WRITING_APP-eng.markup">mkvmerge v52.0.0 ('Secret For The Mad') 64-bit</property>
  <property name="meta.attr.4.stream._STATISTICS_WRITING_DATE_UTC-eng.markup">2023-01-09 17:58:28</property>
  <property name="meta.attr.4.stream._STATISTICS_TAGS-eng.markup">BPS DURATION NUMBER_OF_FRAMES NUMBER_OF_BYTES</property>
  <property name="meta.media.5.codec.name">ssa</property>
  <property name="meta.media.5.codec.long_name">ASS (Advanced SubStation Alpha) subtitle</property>
  <property name="meta.media.5.codec.bit_rate">0</property>
  <property name="meta.attr.5.stream.language.markup">ara</property>
  <property name="meta.attr.5.stream.title.markup">Arabic</property>
  <property name="meta.attr.5.stream.BPS-eng.markup">123</property>
  <property name="meta.attr.5.stream.DURATION-eng.markup">00:22:19.420000000</property>
  <property name="meta.attr.5.stream.NUMBER_OF_FRAMES-eng.markup">325</property>
  <property name="meta.attr.5.stream.NUMBER_OF_BYTES-eng.markup">20672</property>
  <property name="meta.attr.5.stream._STATISTICS_WRITING_APP-eng.markup">mkvmerge v52.0.0 ('Secret For The Mad') 64-bit</property>
  <property name="meta.attr.5.stream._STATISTICS_WRITING_DATE_UTC-eng.markup">2023-01-09 17:58:28</property>
  <property name="meta.attr.5.stream._STATISTICS_TAGS-eng.markup">BPS DURATION NUMBER_OF_FRAMES NUMBER_OF_BYTES</property>
  <property name="meta.attr.title.markup">Monster : Chapter 48 : The Most Frightening Thing</property>
  <property name="meta.attr.encoder.markup">libebml v1.4.1 + libmatroska v1.6.2</property>
  <property name="meta.attr.creation_time.markup">2023-01-09T17:58:28.000000Z</property>
  <property name="meta.media.sample_aspect_num">1</property>
  <property name="meta.media.sample_aspect_den">1</property>
  <property name="meta.media.frame_rate_num">24000</property>
  <property name="meta.media.frame_rate_den">1001</property>
  <property name="meta.media.colorspace">709</property>
  <property name="meta.media.color_trc">1</property>
  <property name="meta.media.has_b_frames">2</property>
  <property name="meta.media.width">1440</property>
  <property name="meta.media.height">1080</property>
  <property name="meta.media.aspect_ratio">1</property>
  <property name="meta.media.color_range">mpeg</property>
  <property name="xml">was here</property>
  <property name="mute_on_pause">0</property>
  <property name="meta.media.top_field_first">0</property>
  <property name="meta.media.progressive">1</property>
  <property name="set.test_audio">1</property>
  <property name="set.test_image">0</property>
 </chain>
 <producer id="producer3" in="00:00:00.000" out="00:11:57.724">
  <property name="length">17210</property>
  <property name="eof">pause</property>
  <property name="resource">2.000000:/mnt/data1/Anime-Edits/Monster/Monster-Editing/Orig/Monster - Chapter 48 - The Most Frightening Thing.mkv</property>
  <property name="aspect_ratio">1</property>
  <property name="meta.media.nb_streams">29</property>
  <property name="meta.media.0.stream.type">video</property>
  <property name="meta.media.0.stream.frame_rate">23.976</property>
  <property name="meta.media.0.stream.sample_aspect_ratio">1</property>
  <property name="meta.media.0.codec.width">1440</property>
  <property name="meta.media.0.codec.height">1080</property>
  <property name="meta.media.0.codec.rotate">0</property>
  <property name="meta.media.0.codec.pix_fmt">yuv420p10le</property>
  <property name="meta.media.0.codec.sample_aspect_ratio">1</property>
  <property name="meta.media.0.codec.colorspace">709</property>
  <property name="meta.media.0.codec.color_trc">1</property>
  <property name="meta.media.0.codec.name">hevc</property>
  <property name="meta.media.0.codec.long_name">HEVC (High Efficiency Video Coding)</property>
  <property name="meta.media.0.codec.bit_rate">0</property>
  <property name="meta.attr.0.stream.BPS-eng.markup">2092995</property>
  <property name="meta.attr.0.stream.DURATION-eng.markup">00:23:55.518000000</property>
  <property name="meta.attr.0.stream.NUMBER_OF_FRAMES-eng.markup">34418</property>
  <property name="meta.attr.0.stream.NUMBER_OF_BYTES-eng.markup">375566518</property>
  <property name="meta.attr.0.stream._STATISTICS_WRITING_APP-eng.markup">mkvmerge v52.0.0 ('Secret For The Mad') 64-bit</property>
  <property name="meta.attr.0.stream._STATISTICS_WRITING_DATE_UTC-eng.markup">2023-01-09 17:58:28</property>
  <property name="meta.attr.0.stream._STATISTICS_TAGS-eng.markup">BPS DURATION NUMBER_OF_FRAMES NUMBER_OF_BYTES</property>
  <property name="meta.media.1.stream.type">audio</property>
  <property name="meta.media.1.codec.sample_fmt">fltp</property>
  <property name="meta.media.1.codec.sample_rate">48000</property>
  <property name="meta.media.1.codec.channels">2</property>
  <property name="meta.media.1.codec.layout">stereo</property>
  <property name="meta.media.1.codec.name">ac3</property>
  <property name="meta.media.1.codec.long_name">ATSC A/52A (AC-3)</property>
  <property name="meta.media.1.codec.bit_rate">448000</property>
  <property name="meta.attr.1.stream.language.markup">jpn</property>
  <property name="meta.attr.1.stream.title.markup">Japanese DVD AC-3 DD_2.0</property>
  <property name="meta.attr.1.stream.BPS-eng.markup">448000</property>
  <property name="meta.attr.1.stream.DURATION-eng.markup">00:23:55.552000000</property>
  <property name="meta.attr.1.stream.NUMBER_OF_FRAMES-eng.markup">44861</property>
  <property name="meta.attr.1.stream.NUMBER_OF_BYTES-eng.markup">80390912</property>
  <property name="meta.attr.1.stream._STATISTICS_WRITING_APP-eng.markup">mkvmerge v52.0.0 ('Secret For The Mad') 64-bit</property>
  <property name="meta.attr.1.stream._STATISTICS_WRITING_DATE_UTC-eng.markup">2023-01-09 17:58:28</property>
  <property name="meta.attr.1.stream._STATISTICS_TAGS-eng.markup">BPS DURATION NUMBER_OF_FRAMES NUMBER_OF_BYTES</property>
  <property name="meta.media.2.stream.type">audio</property>
  <property name="meta.media.2.codec.sample_fmt">fltp</property>
  <property name="meta.media.2.codec.sample_rate">44100</property>
  <property name="meta.media.2.codec.channels">2</property>
  <property name="meta.media.2.codec.layout">stereo</property>
  <property name="meta.media.2.codec.name">aac</property>
  <property name="meta.media.2.codec.long_name">AAC (Advanced Audio Coding)</property>
  <property name="meta.media.2.codec.bit_rate">0</property>
  <property name="meta.attr.2.stream.language.markup">eng</property>
  <property name="meta.attr.2.stream.title.markup">English AAC DD_2.0</property>
  <property name="meta.attr.2.stream.BPS-eng.markup">139646</property>
  <property name="meta.attr.2.stream.DURATION-eng.markup">00:23:55.294000000</property>
  <property name="meta.attr.2.stream.NUMBER_OF_FRAMES-eng.markup">61813</property>
  <property name="meta.attr.2.stream.NUMBER_OF_BYTES-eng.markup">25054209</property>
  <property name="meta.attr.2.stream._STATISTICS_WRITING_APP-eng.markup">mkvmerge v52.0.0 ('Secret For The Mad') 64-bit</property>
  <property name="meta.attr.2.stream._STATISTICS_WRITING_DATE_UTC-eng.markup">2023-01-09 17:58:28</property>
  <property name="meta.attr.2.stream._STATISTICS_TAGS-eng.markup">BPS DURATION NUMBER_OF_FRAMES NUMBER_OF_BYTES</property>
  <property name="meta.media.3.codec.name">ssa</property>
  <property name="meta.media.3.codec.long_name">ASS (Advanced SubStation Alpha) subtitle</property>
  <property name="meta.media.3.codec.bit_rate">0</property>
  <property name="meta.attr.3.stream.language.markup">eng</property>
  <property name="meta.attr.3.stream.title.markup">English (Full) ASS</property>
  <property name="meta.attr.3.stream.BPS-eng.markup">108</property>
  <property name="meta.attr.3.stream.DURATION-eng.markup">00:23:49.450000000</property>
  <property name="meta.attr.3.stream.NUMBER_OF_FRAMES-eng.markup">346</property>
  <property name="meta.attr.3.stream.NUMBER_OF_BYTES-eng.markup">19405</property>
  <property name="meta.attr.3.stream._STATISTICS_WRITING_APP-eng.markup">mkvmerge v52.0.0 ('Secret For The Mad') 64-bit</property>
  <property name="meta.attr.3.stream._STATISTICS_WRITING_DATE_UTC-eng.markup">2023-01-09 17:58:28</property>
  <property name="meta.attr.3.stream._STATISTICS_TAGS-eng.markup">BPS DURATION NUMBER_OF_FRAMES NUMBER_OF_BYTES</property>
  <property name="meta.media.4.codec.name">ssa</property>
  <property name="meta.media.4.codec.long_name">ASS (Advanced SubStation Alpha) subtitle</property>
  <property name="meta.media.4.codec.bit_rate">0</property>
  <property name="meta.attr.4.stream.language.markup">eng</property>
  <property name="meta.attr.4.stream.title.markup">English (Titles &amp; Signs) ASS</property>
  <property name="meta.attr.4.stream.BPS-eng.markup">1</property>
  <property name="meta.attr.4.stream.DURATION-eng.markup">00:18:06.420000000</property>
  <property name="meta.attr.4.stream.NUMBER_OF_FRAMES-eng.markup">4</property>
  <property name="meta.attr.4.stream.NUMBER_OF_BYTES-eng.markup">268</property>
  <property name="meta.attr.4.stream._STATISTICS_WRITING_APP-eng.markup">mkvmerge v52.0.0 ('Secret For The Mad') 64-bit</property>
  <property name="meta.attr.4.stream._STATISTICS_WRITING_DATE_UTC-eng.markup">2023-01-09 17:58:28</property>
  <property name="meta.attr.4.stream._STATISTICS_TAGS-eng.markup">BPS DURATION NUMBER_OF_FRAMES NUMBER_OF_BYTES</property>
  <property name="meta.media.5.codec.name">ssa</property>
  <property name="meta.media.5.codec.long_name">ASS (Advanced SubStation Alpha) subtitle</property>
  <property name="meta.media.5.codec.bit_rate">0</property>
  <property name="meta.attr.5.stream.language.markup">ara</property>
  <property name="meta.attr.5.stream.title.markup">Arabic</property>
  <property name="meta.attr.5.stream.BPS-eng.markup">123</property>
  <property name="meta.attr.5.stream.DURATION-eng.markup">00:22:19.420000000</property>
  <property name="meta.attr.5.stream.NUMBER_OF_FRAMES-eng.markup">325</property>
  <property name="meta.attr.5.stream.NUMBER_OF_BYTES-eng.markup">20672</property>
  <property name="meta.attr.5.stream._STATISTICS_WRITING_APP-eng.markup">mkvmerge v52.0.0 ('Secret For The Mad') 64-bit</property>
  <property name="meta.attr.5.stream._STATISTICS_WRITING_DATE_UTC-eng.markup">2023-01-09 17:58:28</property>
  <property name="meta.attr.5.stream._STATISTICS_TAGS-eng.markup">BPS DURATION NUMBER_OF_FRAMES NUMBER_OF_BYTES</property>
  <property name="meta.attr.title.markup">Monster : Chapter 48 : The Most Frightening Thing</property>
  <property name="meta.attr.encoder.markup">libebml v1.4.1 + libmatroska v1.6.2</property>
  <property name="meta.attr.creation_time.markup">2023-01-09T17:58:28.000000Z</property>
  <property name="seekable">1</property>
  <property name="meta.media.sample_aspect_num">1</property>
  <property name="meta.media.sample_aspect_den">1</property>
  <property name="format">3</property>
  <property name="audio_index">1</property>
  <property name="video_index">0</property>
  <property name="warp_speed">2</property>
  <property name="warp_resource">/mnt/data1/Anime-Edits/Monster/Monster-Editing/Orig/Monster - Chapter 48 - The Most Frightening Thing.mkv</property>
  <property name="mlt_service">timewarp</property>
  <property name="kdenlive:control_uuid">{04d31486-686e-48ad-a98d-f7b32908f37a}</property>
  <property name="vstream">0</property>
  <property name="astream">0</property>
  <property name="set.test_audio">1</property>
  <property name="set.test_image">0</property>
  <property name="kdenlive:id">5</property>
  <property name="warp_pitch">0</property>
  <property name="meta.media.frame_rate_num">24000</property>
  <property name="meta.media.frame_rate_den">1001</property>
  <property name="meta.media.colorspace">709</property>
  <property name="meta.media.color_trc">1</property>
  <property name="meta.media.has_b_frames">2</property>
  <property name="meta.media.width">1440</property>
  <property name="meta.media.height">1080</property>
  <property name="meta.media.aspect_ratio">1</property>
  <property name="meta.media.color_range">mpeg</property>
  <property name="meta.media.top_field_first">0</property>
  <property name="meta.media.progressive">1</property>
 </producer>
 <producer id="producer4" in="00:00:00.000" out="00:11:57.724">
  <property name="length">17210</property>
  <property name="eof">pause</property>
  <property name="resource">2.000000:/mnt/data1/Anime-Edits/Monster/Monster-Editing/Orig/Monster - Chapter 48 - The Most Frightening Thing.mkv</property>
  <property name="aspect_ratio">1</property>
  <property name="meta.media.nb_streams">29</property>
  <property name="meta.media.0.stream.type">video</property>
  <property name="meta.media.0.stream.frame_rate">23.976</property>
  <property name="meta.media.0.stream.sample_aspect_ratio">1</property>
  <property name="meta.media.0.codec.width">1440</property>
  <property name="meta.media.0.codec.height">1080</property>
  <property name="meta.media.0.codec.rotate">0</property>
  <property name="meta.media.0.codec.pix_fmt">yuv420p10le</property>
  <property name="meta.media.0.codec.sample_aspect_ratio">1</property>
  <property name="meta.media.0.codec.colorspace">709</property>
  <property name="meta.media.0.codec.color_trc">1</property>
  <property name="meta.media.0.codec.name">hevc</property>
  <property name="meta.media.0.codec.long_name">HEVC (High Efficiency Video Coding)</property>
  <property name="meta.media.0.codec.bit_rate">0</property>
  <property name="meta.attr.0.stream.BPS-eng.markup">2092995</property>
  <property name="meta.attr.0.stream.DURATION-eng.markup">00:23:55.518000000</property>
  <property name="meta.attr.0.stream.NUMBER_OF_FRAMES-eng.markup">34418</property>
  <property name="meta.attr.0.stream.NUMBER_OF_BYTES-eng.markup">375566518</property>
  <property name="meta.attr.0.stream._STATISTICS_WRITING_APP-eng.markup">mkvmerge v52.0.0 ('Secret For The Mad') 64-bit</property>
  <property name="meta.attr.0.stream._STATISTICS_WRITING_DATE_UTC-eng.markup">2023-01-09 17:58:28</property>
  <property name="meta.attr.0.stream._STATISTICS_TAGS-eng.markup">BPS DURATION NUMBER_OF_FRAMES NUMBER_OF_BYTES</property>
  <property name="meta.media.1.stream.type">audio</property>
  <property name="meta.media.1.codec.sample_fmt">fltp</property>
  <property name="meta.media.1.codec.sample_rate">48000</property>
  <property name="meta.media.1.codec.channels">2</property>
  <property name="meta.media.1.codec.layout">stereo</property>
  <property name="meta.media.1.codec.name">ac3</property>
  <property name="meta.media.1.codec.long_name">ATSC A/52A (AC-3)</property>
  <property name="meta.media.1.codec.bit_rate">448000</property>
  <property name="meta.attr.1.stream.language.markup">jpn</property>
  <property name="meta.attr.1.stream.title.markup">Japanese DVD AC-3 DD_2.0</property>
  <property name="meta.attr.1.stream.BPS-eng.markup">448000</property>
  <property name="meta.attr.1.stream.DURATION-eng.markup">00:23:55.552000000</property>
  <property name="meta.attr.1.stream.NUMBER_OF_FRAMES-eng.markup">44861</property>
  <property name="meta.attr.1.stream.NUMBER_OF_BYTES-eng.markup">80390912</property>
  <property name="meta.attr.1.stream._STATISTICS_WRITING_APP-eng.markup">mkvmerge v52.0.0 ('Secret For The Mad') 64-bit</property>
  <property name="meta.attr.1.stream._STATISTICS_WRITING_DATE_UTC-eng.markup">2023-01-09 17:58:28</property>
  <property name="meta.attr.1.stream._STATISTICS_TAGS-eng.markup">BPS DURATION NUMBER_OF_FRAMES NUMBER_OF_BYTES</property>
  <property name="meta.media.2.stream.type">audio</property>
  <property name="meta.media.2.codec.sample_fmt">fltp</property>
  <property name="meta.media.2.codec.sample_rate">44100</property>
  <property name="meta.media.2.codec.channels">2</property>
  <property name="meta.media.2.codec.layout">stereo</property>
  <property name="meta.media.2.codec.name">aac</property>
  <property name="meta.media.2.codec.long_name">AAC (Advanced Audio Coding)</property>
  <property name="meta.media.2.codec.bit_rate">0</property>
  <property name="meta.attr.2.stream.language.markup">eng</property>
  <property name="meta.attr.2.stream.title.markup">English AAC DD_2.0</property>
  <property name="meta.attr.2.stream.BPS-eng.markup">139646</property>
  <property name="meta.attr.2.stream.DURATION-eng.markup">00:23:55.294000000</property>
  <property name="meta.attr.2.stream.NUMBER_OF_FRAMES-eng.markup">61813</property>
  <property name="meta.attr.2.stream.NUMBER_OF_BYTES-eng.markup">25054209</property>
  <property name="meta.attr.2.stream._STATISTICS_WRITING_APP-eng.markup">mkvmerge v52.0.0 ('Secret For The Mad') 64-bit</property>
  <property name="meta.attr.2.stream._STATISTICS_WRITING_DATE_UTC-eng.markup">2023-01-09 17:58:28</property>
  <property name="meta.attr.2.stream._STATISTICS_TAGS-eng.markup">BPS DURATION NUMBER_OF_FRAMES NUMBER_OF_BYTES</property>
  <property name="meta.media.3.codec.name">ssa</property>
  <property name="meta.media.3.codec.long_name">ASS (Advanced SubStation Alpha) subtitle</property>
  <property name="meta.media.3.codec.bit_rate">0</property>
  <property name="meta.attr.3.stream.language.markup">eng</property>
  <property name="meta.attr.3.stream.title.markup">English (Full) ASS</property>
  <property name="meta.attr.3.stream.BPS-eng.markup">108</property>
  <property name="meta.attr.3.stream.DURATION-eng.markup">00:23:49.450000000</property>
  <property name="meta.attr.3.stream.NUMBER_OF_FRAMES-eng.markup">346</property>
  <property name="meta.attr.3.stream.NUMBER_OF_BYTES-eng.markup">19405</property>
  <property name="meta.attr.3.stream._STATISTICS_WRITING_APP-eng.markup">mkvmerge v52.0.0 ('Secret For The Mad') 64-bit</property>
  <property name="meta.attr.3.stream._STATISTICS_WRITING_DATE_UTC-eng.markup">2023-01-09 17:58:28</property>
  <property name="meta.attr.3.stream._STATISTICS_TAGS-eng.markup">BPS DURATION NUMBER_OF_FRAMES NUMBER_OF_BYTES</property>
  <property name="meta.media.4.codec.name">ssa</property>
  <property name="meta.media.4.codec.long_name">ASS (Advanced SubStation Alpha) subtitle</property>
  <property name="meta.media.4.codec.bit_rate">0</property>
  <property name="meta.attr.4.stream.language.markup">eng</property>
  <property name="meta.attr.4.stream.title.markup">English (Titles &amp; Signs) ASS</property>
  <property name="meta.attr.4.stream.BPS-eng.markup">1</property>
  <property name="meta.attr.4.stream.DURATION-eng.markup">00:18:06.420000000</property>
  <property name="meta.attr.4.stream.NUMBER_OF_FRAMES-eng.markup">4</property>
  <property name="meta.attr.4.stream.NUMBER_OF_BYTES-eng.markup">268</property>
  <property name="meta.attr.4.stream._STATISTICS_WRITING_APP-eng.markup">mkvmerge v52.0.0 ('Secret For The Mad') 64-bit</property>
  <property name="meta.attr.4.stream._STATISTICS_WRITING_DATE_UTC-eng.markup">2023-01-09 17:58:28</property>
  <property name="meta.attr.4.stream._STATISTICS_TAGS-eng.markup">BPS DURATION NUMBER_OF_FRAMES NUMBER_OF_BYTES</property>
  <property name="meta.media.5.codec.name">ssa</property>
  <property name="meta.media.5.codec.long_name">ASS (Advanced SubStation Alpha) subtitle</property>
  <property name="meta.media.5.codec.bit_rate">0</property>
  <property name="meta.attr.5.stream.language.markup">ara</property>
  <property name="meta.attr.5.stream.title.markup">Arabic</property>
  <property name="meta.attr.5.stream.BPS-eng.markup">123</property>
  <property name="meta.attr.5.stream.DURATION-eng.markup">00:22:19.420000000</property>
  <property name="meta.attr.5.stream.NUMBER_OF_FRAMES-eng.markup">325</property>
  <property name="meta.attr.5.stream.NUMBER_OF_BYTES-eng.markup">20672</property>
  <property name="meta.attr.5.stream._STATISTICS_WRITING_APP-eng.markup">mkvmerge v52.0.0 ('Secret For The Mad') 64-bit</property>
  <property name="meta.attr.5.stream._STATISTICS_WRITING_DATE_UTC-eng.markup">2023-01-09 17:58:28</property>
  <property name="meta.attr.5.stream._STATISTICS_TAGS-eng.markup">BPS DURATION NUMBER_OF_FRAMES NUMBER_OF_BYTES</property>
  <property name="meta.attr.title.markup">Monster : Chapter 48 : The Most Frightening Thing</property>
  <property name="meta.attr.encoder.markup">libebml v1.4.1 + libmatroska v1.6.2</property>
  <property name="meta.attr.creation_time.markup">2023-01-09T17:58:28.000000Z</property>
  <property name="seekable">1</property>
  <property name="meta.media.sample_aspect_num">1</property>
  <property name="meta.media.sample_aspect_den">1</property>
  <property name="format">3</property>
  <property name="audio_index">1</property>
  <property name="video_index">0</property>
  <property name="warp_speed">2</property>
  <property name="warp_resource">/mnt/data1/Anime-Edits/Monster/Monster-Editing/Orig/Monster - Chapter 48 - The Most Frightening Thing.mkv</property>
  <property name="mlt_service">timewarp</property>
  <property name="kdenlive:control_uuid">{04d31486-686e-48ad-a98d-f7b32908f37a}</property>
  <property name="vstream">0</property>
  <property name="astream">0</property>
  <property name="set.test_audio">1</property>
  <property name="set.test_image">0</property>
  <property name="kdenlive:id">5</property>
  <property name="warp_pitch">0</property>
  <property name="meta.media.frame_rate_num">24000</property>
  <property name="meta.media.frame_rate_den">1001</property>
  <property name="meta.media.colorspace">709</property>
  <property name="meta.media.color_trc">1</property>
  <property name="meta.media.has_b_frames">2</property>
  <property name="meta.media.width">1440</property>
  <property name="meta.media.height">1080</property>
  <property name="meta.media.aspect_ratio">1</property>
  <property name="meta.media.color_range">mpeg</property>
  <property name="meta.media.top_field_first">0</property>
  <property name="meta.media.progressive">1</property>
 </producer>
 <producer id="producer5" in="00:00:00.000" out="00:17:59.351">
  <property name="length">25879</property>
  <property name="eof">pause</property>
  <property name="resource">1.330000:/mnt/data1/Anime-Edits/Monster/Monster-Editing/Orig/Monster - Chapter 48 - The Most Frightening Thing.mkv</property>
  <property name="aspect_ratio">1</property>
  <property name="meta.media.nb_streams">29</property>
  <property name="meta.media.0.stream.type">video</property>
  <property name="meta.media.0.stream.frame_rate">23.976</property>
  <property name="meta.media.0.stream.sample_aspect_ratio">1</property>
  <property name="meta.media.0.codec.width">1440</property>
  <property name="meta.media.0.codec.height">1080</property>
  <property name="meta.media.0.codec.rotate">0</property>
  <property name="meta.media.0.codec.pix_fmt">yuv420p10le</property>
  <property name="meta.media.0.codec.sample_aspect_ratio">1</property>
  <property name="meta.media.0.codec.colorspace">709</property>
  <property name="meta.media.0.codec.color_trc">1</property>
  <property name="meta.media.0.codec.name">hevc</property>
  <property name="meta.media.0.codec.long_name">HEVC (High Efficiency Video Coding)</property>
  <property name="meta.media.0.codec.bit_rate">0</property>
  <property name="meta.attr.0.stream.BPS-eng.markup">2092995</property>
  <property name="meta.attr.0.stream.DURATION-eng.markup">00:23:55.518000000</property>
  <property name="meta.attr.0.stream.NUMBER_OF_FRAMES-eng.markup">34418</property>
  <property name="meta.attr.0.stream.NUMBER_OF_BYTES-eng.markup">375566518</property>
  <property name="meta.attr.0.stream._STATISTICS_WRITING_APP-eng.markup">mkvmerge v52.0.0 ('Secret For The Mad') 64-bit</property>
  <property name="meta.attr.0.stream._STATISTICS_WRITING_DATE_UTC-eng.markup">2023-01-09 17:58:28</property>
  <property name="meta.attr.0.stream._STATISTICS_TAGS-eng.markup">BPS DURATION NUMBER_OF_FRAMES NUMBER_OF_BYTES</property>
  <property name="meta.media.1.stream.type">audio</property>
  <property name="meta.media.1.codec.sample_fmt">fltp</property>
  <property name="meta.media.1.codec.sample_rate">48000</property>
  <property name="meta.media.1.codec.channels">2</property>
  <property name="meta.media.1.codec.layout">stereo</property>
  <property name="meta.media.1.codec.name">ac3</property>
  <property name="meta.media.1.codec.long_name">ATSC A/52A (AC-3)</property>
  <property name="meta.media.1.codec.bit_rate">448000</property>
  <property name="meta.attr.1.stream.language.markup">jpn</property>
  <property name="meta.attr.1.stream.title.markup">Japanese DVD AC-3 DD_2.0</property>
  <property name="meta.attr.1.stream.BPS-eng.markup">448000</property>
  <property name="meta.attr.1.stream.DURATION-eng.markup">00:23:55.552000000</property>
  <property name="meta.attr.1.stream.NUMBER_OF_FRAMES-eng.markup">44861</property>
  <property name="meta.attr.1.stream.NUMBER_OF_BYTES-eng.markup">80390912</property>
  <property name="meta.attr.1.stream._STATISTICS_WRITING_APP-eng.markup">mkvmerge v52.0.0 ('Secret For The Mad') 64-bit</property>
  <property name="meta.attr.1.stream._STATISTICS_WRITING_DATE_UTC-eng.markup">2023-01-09 17:58:28</property>
  <property name="meta.attr.1.stream._STATISTICS_TAGS-eng.markup">BPS DURATION NUMBER_OF_FRAMES NUMBER_OF_BYTES</property>
  <property name="meta.media.2.stream.type">audio</property>
  <property name="meta.media.2.codec.sample_fmt">fltp</property>
  <property name="meta.media.2.codec.sample_rate">44100</property>
  <property name="meta.media.2.codec.channels">2</property>
  <property name="meta.media.2.codec.layout">stereo</property>
  <property name="meta.media.2.codec.name">aac</property>
  <property name="meta.media.2.codec.long_name">AAC (Advanced Audio Coding)</property>
  <property name="meta.media.2.codec.bit_rate">0</property>
  <property name="meta.attr.2.stream.language.markup">eng</property>
  <property name="meta.attr.2.stream.title.markup">English AAC DD_2.0</property>
  <property name="meta.attr.2.stream.BPS-eng.markup">139646</property>
  <property name="meta.attr.2.stream.DURATION-eng.markup">00:23:55.294000000</property>
  <property name="meta.attr.2.stream.NUMBER_OF_FRAMES-eng.markup">61813</property>
  <property name="meta.attr.2.stream.NUMBER_OF_BYTES-eng.markup">25054209</property>
  <property name="meta.attr.2.stream._STATISTICS_WRITING_APP-eng.markup">mkvmerge v52.0.0 ('Secret For The Mad') 64-bit</property>
  <property name="meta.attr.2.stream._STATISTICS_WRITING_DATE_UTC-eng.markup">2023-01-09 17:58:28</property>
  <property name="meta.attr.2.stream._STATISTICS_TAGS-eng.markup">BPS DURATION NUMBER_OF_FRAMES NUMBER_OF_BYTES</property>
  <property name="meta.media.3.codec.name">ssa</property>
  <property name="meta.media.3.codec.long_name">ASS (Advanced SubStation Alpha) subtitle</property>
  <property name="meta.media.3.codec.bit_rate">0</property>
  <property name="meta.attr.3.stream.language.markup">eng</property>
  <property name="meta.attr.3.stream.title.markup">English (Full) ASS</property>
  <property name="meta.attr.3.stream.BPS-eng.markup">108</property>
  <property name="meta.attr.3.stream.DURATION-eng.markup">00:23:49.450000000</property>
  <property name="meta.attr.3.stream.NUMBER_OF_FRAMES-eng.markup">346</property>
  <property name="meta.attr.3.stream.NUMBER_OF_BYTES-eng.markup">19405</property>
  <property name="meta.attr.3.stream._STATISTICS_WRITING_APP-eng.markup">mkvmerge v52.0.0 ('Secret For The Mad') 64-bit</property>
  <property name="meta.attr.3.stream._STATISTICS_WRITING_DATE_UTC-eng.markup">2023-01-09 17:58:28</property>
  <property name="meta.attr.3.stream._STATISTICS_TAGS-eng.markup">BPS DURATION NUMBER_OF_FRAMES NUMBER_OF_BYTES</property>
  <property name="meta.media.4.codec.name">ssa</property>
  <property name="meta.media.4.codec.long_name">ASS (Advanced SubStation Alpha) subtitle</property>
  <property name="meta.media.4.codec.bit_rate">0</property>
  <property name="meta.attr.4.stream.language.markup">eng</property>
  <property name="meta.attr.4.stream.title.markup">English (Titles &amp; Signs) ASS</property>
  <property name="meta.attr.4.stream.BPS-eng.markup">1</property>
  <property name="meta.attr.4.stream.DURATION-eng.markup">00:18:06.420000000</property>
  <property name="meta.attr.4.stream.NUMBER_OF_FRAMES-eng.markup">4</property>
  <property name="meta.attr.4.stream.NUMBER_OF_BYTES-eng.markup">268</property>
  <property name="meta.attr.4.stream._STATISTICS_WRITING_APP-eng.markup">mkvmerge v52.0.0 ('Secret For The Mad') 64-bit</property>
  <property name="meta.attr.4.stream._STATISTICS_WRITING_DATE_UTC-eng.markup">2023-01-09 17:58:28</property>
  <property name="meta.attr.4.stream._STATISTICS_TAGS-eng.markup">BPS DURATION NUMBER_OF_FRAMES NUMBER_OF_BYTES</property>
  <property name="meta.media.5.codec.name">ssa</property>
  <property name="meta.media.5.codec.long_name">ASS (Advanced SubStation Alpha) subtitle</property>
  <property name="meta.media.5.codec.bit_rate">0</property>
  <property name="meta.attr.5.stream.language.markup">ara</property>
  <property name="meta.attr.5.stream.title.markup">Arabic</property>
  <property name="meta.attr.5.stream.BPS-eng.markup">123</property>
  <property name="meta.attr.5.stream.DURATION-eng.markup">00:22:19.420000000</property>
  <property name="meta.attr.5.stream.NUMBER_OF_FRAMES-eng.markup">325</property>
  <property name="meta.attr.5.stream.NUMBER_OF_BYTES-eng.markup">20672</property>
  <property name="meta.attr.5.stream._STATISTICS_WRITING_APP-eng.markup">mkvmerge v52.0.0 ('Secret For The Mad') 64-bit</property>
  <property name="meta.attr.5.stream._STATISTICS_WRITING_DATE_UTC-eng.markup">2023-01-09 17:58:28</property>
  <property name="meta.attr.5.stream._STATISTICS_TAGS-eng.markup">BPS DURATION NUMBER_OF_FRAMES NUMBER_OF_BYTES</property>
  <property name="meta.attr.title.markup">Monster : Chapter 48 : The Most Frightening Thing</property>
  <property name="meta.attr.encoder.markup">libebml v1.4.1 + libmatroska v1.6.2</property>
  <property name="meta.attr.creation_time.markup">2023-01-09T17:58:28.000000Z</property>
  <property name="seekable">1</property>
  <property name="meta.media.sample_aspect_num">1</property>
  <property name="meta.media.sample_aspect_den">1</property>
  <property name="format">3</property>
  <property name="audio_index">1</property>
  <property name="video_index">0</property>
  <property name="warp_speed">1.33</property>
  <property name="warp_resource">/mnt/data1/Anime-Edits/Monster/Monster-Editing/Orig/Monster - Chapter 48 - The Most Frightening Thing.mkv</property>
  <property name="mlt_service">timewarp</property>
  <property name="kdenlive:control_uuid">{04d31486-686e-48ad-a98d-f7b32908f37a}</property>
  <property name="vstream">0</property>
  <property name="astream">0</property>
  <property name="set.test_audio">1</property>
  <property name="set.test_image">0</property>
  <property name="kdenlive:id">5</property>
  <property name="warp_pitch">0</property>
  <property name="meta.media.frame_rate_num">24000</property>
  <property name="meta.media.frame_rate_den">1001</property>
  <property name="meta.media.colorspace">709</property>
  <property name="meta.media.color_trc">1</property>
  <property name="meta.media.has_b_frames">2</property>
  <property name="meta.media.width">1440</property>
  <property name="meta.media.height">1080</property>
  <property name="meta.media.aspect_ratio">1</property>
  <property name="meta.media.color_range">mpeg</property>
  <property name="meta.media.top_field_first">0</property>
  <property name="meta.media.progressive">1</property>
 </producer>
 <chain id="chain12" out="00:24:09.593">
  <property name="length">34756</property>
  <property name="eof">pause</property>
  <property name="resource">/mnt/data1/Anime-Edits/Monster/Monster-Editing/Orig/Monster - Chapter 49 - The Cruelest Thing.mkv</property>
  <property name="mlt_service">avformat-novalidate</property>
  <property name="seekable">1</property>
  <property name="format">3</property>
  <property name="audio_index">1</property>
  <property name="video_index">0</property>
  <property name="vstream">0</property>
  <property name="astream">0</property>
  <property name="kdenlive:control_uuid">{828a9f44-9650-4c27-b9fa-fe14d22ce6f9}</property>
  <property name="kdenlive:id">6</property>
  <property name="kdenlive:clip_type">0</property>
  <property name="kdenlive:file_size">456169693</property>
  <property name="kdenlive:file_hash">8f51c068e177037acf4549f45c6c67ab</property>
  <property name="kdenlive:folderid">-1</property>
  <property name="kdenlive:audio_max1">179</property>
  <property name="kdenlive:audio_max2">199</property>
  <property name="meta.media.nb_streams">29</property>
  <property name="meta.media.0.stream.type">video</property>
  <property name="meta.media.0.stream.frame_rate">23.976</property>
  <property name="meta.media.0.stream.sample_aspect_ratio">1</property>
  <property name="meta.media.0.codec.width">1440</property>
  <property name="meta.media.0.codec.height">1080</property>
  <property name="meta.media.0.codec.rotate">0</property>
  <property name="meta.media.0.codec.pix_fmt">yuv420p10le</property>
  <property name="meta.media.0.codec.sample_aspect_ratio">1</property>
  <property name="meta.media.0.codec.colorspace">709</property>
  <property name="meta.media.0.codec.color_trc">1</property>
  <property name="meta.media.0.codec.name">hevc</property>
  <property name="meta.media.0.codec.long_name">HEVC (High Efficiency Video Coding)</property>
  <property name="meta.media.0.codec.bit_rate">0</property>
  <property name="meta.attr.0.stream.BPS-eng.markup">1909238</property>
  <property name="meta.attr.0.stream.DURATION-eng.markup">00:24:09.615000000</property>
  <property name="meta.attr.0.stream.NUMBER_OF_FRAMES-eng.markup">34756</property>
  <property name="meta.attr.0.stream.NUMBER_OF_BYTES-eng.markup">345957539</property>
  <property name="meta.attr.0.stream._STATISTICS_WRITING_APP-eng.markup">mkvmerge v52.0.0 ('Secret For The Mad') 64-bit</property>
  <property name="meta.attr.0.stream._STATISTICS_WRITING_DATE_UTC-eng.markup">2023-01-09 18:00:40</property>
  <property name="meta.attr.0.stream._STATISTICS_TAGS-eng.markup">BPS DURATION NUMBER_OF_FRAMES NUMBER_OF_BYTES</property>
  <property name="meta.media.1.stream.type">audio</property>
  <property name="meta.media.1.codec.sample_fmt">fltp</property>
  <property name="meta.media.1.codec.sample_rate">48000</property>
  <property name="meta.media.1.codec.channels">2</property>
  <property name="meta.media.1.codec.layout">stereo</property>
  <property name="meta.media.1.codec.name">ac3</property>
  <property name="meta.media.1.codec.long_name">ATSC A/52A (AC-3)</property>
  <property name="meta.media.1.codec.bit_rate">448000</property>
  <property name="meta.attr.1.stream.language.markup">jpn</property>
  <property name="meta.attr.1.stream.title.markup">Japanese DVD AC-3 DD_2.0</property>
  <property name="meta.attr.1.stream.BPS-eng.markup">448000</property>
  <property name="meta.attr.1.stream.DURATION-eng.markup">00:24:09.504000000</property>
  <property name="meta.attr.1.stream.NUMBER_OF_FRAMES-eng.markup">45297</property>
  <property name="meta.attr.1.stream.NUMBER_OF_BYTES-eng.markup">81172224</property>
  <property name="meta.attr.1.stream._STATISTICS_WRITING_APP-eng.markup">mkvmerge v52.0.0 ('Secret For The Mad') 64-bit</property>
  <property name="meta.attr.1.stream._STATISTICS_WRITING_DATE_UTC-eng.markup">2023-01-09 18:00:40</property>
  <property name="meta.attr.1.stream._STATISTICS_TAGS-eng.markup">BPS DURATION NUMBER_OF_FRAMES NUMBER_OF_BYTES</property>
  <property name="meta.media.2.stream.type">audio</property>
  <property name="meta.media.2.codec.sample_fmt">fltp</property>
  <property name="meta.media.2.codec.sample_rate">44100</property>
  <property name="meta.media.2.codec.channels">2</property>
  <property name="meta.media.2.codec.layout">stereo</property>
  <property name="meta.media.2.codec.name">aac</property>
  <property name="meta.media.2.codec.long_name">AAC (Advanced Audio Coding)</property>
  <property name="meta.media.2.codec.bit_rate">0</property>
  <property name="meta.attr.2.stream.language.markup">eng</property>
  <property name="meta.attr.2.stream.title.markup">English AAC DD_2.0</property>
  <property name="meta.attr.2.stream.BPS-eng.markup">141899</property>
  <property name="meta.attr.2.stream.DURATION-eng.markup">00:23:54.830000000</property>
  <property name="meta.attr.2.stream.NUMBER_OF_FRAMES-eng.markup">61793</property>
  <property name="meta.attr.2.stream.NUMBER_OF_BYTES-eng.markup">25450280</property>
  <property name="meta.attr.2.stream._STATISTICS_WRITING_APP-eng.markup">mkvmerge v52.0.0 ('Secret For The Mad') 64-bit</property>
  <property name="meta.attr.2.stream._STATISTICS_WRITING_DATE_UTC-eng.markup">2023-01-09 18:00:40</property>
  <property name="meta.attr.2.stream._STATISTICS_TAGS-eng.markup">BPS DURATION NUMBER_OF_FRAMES NUMBER_OF_BYTES</property>
  <property name="meta.media.3.codec.name">ssa</property>
  <property name="meta.media.3.codec.long_name">ASS (Advanced SubStation Alpha) subtitle</property>
  <property name="meta.media.3.codec.bit_rate">0</property>
  <property name="meta.attr.3.stream.language.markup">eng</property>
  <property name="meta.attr.3.stream.title.markup">English (Full) ASS</property>
  <property name="meta.attr.3.stream.BPS-eng.markup">97</property>
  <property name="meta.attr.3.stream.DURATION-eng.markup">00:23:52.430000000</property>
  <property name="meta.attr.3.stream.NUMBER_OF_FRAMES-eng.markup">338</property>
  <property name="meta.attr.3.stream.NUMBER_OF_BYTES-eng.markup">17381</property>
  <property name="meta.attr.3.stream._STATISTICS_WRITING_APP-eng.markup">mkvmerge v52.0.0 ('Secret For The Mad') 64-bit</property>
  <property name="meta.attr.3.stream._STATISTICS_WRITING_DATE_UTC-eng.markup">2023-01-09 18:00:40</property>
  <property name="meta.attr.3.stream._STATISTICS_TAGS-eng.markup">BPS DURATION NUMBER_OF_FRAMES NUMBER_OF_BYTES</property>
  <property name="meta.media.4.codec.name">ssa</property>
  <property name="meta.media.4.codec.long_name">ASS (Advanced SubStation Alpha) subtitle</property>
  <property name="meta.media.4.codec.bit_rate">0</property>
  <property name="meta.attr.4.stream.language.markup">eng</property>
  <property name="meta.attr.4.stream.title.markup">English (Titles &amp; Signs) ASS</property>
  <property name="meta.attr.4.stream.BPS-eng.markup">2</property>
  <property name="meta.attr.4.stream.DURATION-eng.markup">00:23:52.430000000</property>
  <property name="meta.attr.4.stream.NUMBER_OF_FRAMES-eng.markup">7</property>
  <property name="meta.attr.4.stream.NUMBER_OF_BYTES-eng.markup">499</property>
  <property name="meta.attr.4.stream._STATISTICS_WRITING_APP-eng.markup">mkvmerge v52.0.0 ('Secret For The Mad') 64-bit</property>
  <property name="meta.attr.4.stream._STATISTICS_WRITING_DATE_UTC-eng.markup">2023-01-09 18:00:40</property>
  <property name="meta.attr.4.stream._STATISTICS_TAGS-eng.markup">BPS DURATION NUMBER_OF_FRAMES NUMBER_OF_BYTES</property>
  <property name="meta.media.5.codec.name">ssa</property>
  <property name="meta.media.5.codec.long_name">ASS (Advanced SubStation Alpha) subtitle</property>
  <property name="meta.media.5.codec.bit_rate">0</property>
  <property name="meta.attr.5.stream.language.markup">ara</property>
  <property name="meta.attr.5.stream.title.markup">Arabic</property>
  <property name="meta.attr.5.stream.BPS-eng.markup">109</property>
  <property name="meta.attr.5.stream.DURATION-eng.markup">00:22:18.930000000</property>
  <property name="meta.attr.5.stream.NUMBER_OF_FRAMES-eng.markup">320</property>
  <property name="meta.attr.5.stream.NUMBER_OF_BYTES-eng.markup">18334</property>
  <property name="meta.attr.5.stream._STATISTICS_WRITING_APP-eng.markup">mkvmerge v52.0.0 ('Secret For The Mad') 64-bit</property>
  <property name="meta.attr.5.stream._STATISTICS_WRITING_DATE_UTC-eng.markup">2023-01-09 18:00:40</property>
  <property name="meta.attr.5.stream._STATISTICS_TAGS-eng.markup">BPS DURATION NUMBER_OF_FRAMES NUMBER_OF_BYTES</property>
  <property name="meta.attr.title.markup">Monster : Chapter 49 : The Cruelest Thing</property>
  <property name="meta.attr.encoder.markup">libebml v1.4.1 + libmatroska v1.6.2</property>
  <property name="meta.attr.creation_time.markup">2023-01-09T18:00:40.000000Z</property>
  <property name="meta.media.sample_aspect_num">1</property>
  <property name="meta.media.sample_aspect_den">1</property>
  <property name="meta.media.frame_rate_num">24000</property>
  <property name="meta.media.frame_rate_den">1001</property>
  <property name="meta.media.colorspace">709</property>
  <property name="meta.media.color_trc">1</property>
  <property name="meta.media.has_b_frames">2</property>
  <property name="meta.media.width">1440</property>
  <property name="meta.media.height">1080</property>
  <property name="meta.media.aspect_ratio">1</property>
  <property name="meta.media.color_range">mpeg</property>
  <property name="xml">was here</property>
  <property name="mute_on_pause">0</property>
  <property name="meta.media.top_field_first">0</property>
  <property name="meta.media.progressive">1</property>
  <property name="set.test_audio">1</property>
  <property name="set.test_image">0</property>
 </chain>
 <producer id="producer6" in="00:00:00.000" out="02:00:48.048">
  <property name="length">173780</property>
  <property name="eof">pause</property>
  <property name="resource">0.200000:/mnt/data1/Anime-Edits/Monster/Monster-Editing/Orig/Monster - Chapter 49 - The Cruelest Thing.mkv</property>
  <property name="aspect_ratio">1</property>
  <property name="meta.media.nb_streams">29</property>
  <property name="meta.media.0.stream.type">video</property>
  <property name="meta.media.0.stream.frame_rate">23.976</property>
  <property name="meta.media.0.stream.sample_aspect_ratio">1</property>
  <property name="meta.media.0.codec.width">1440</property>
  <property name="meta.media.0.codec.height">1080</property>
  <property name="meta.media.0.codec.rotate">0</property>
  <property name="meta.media.0.codec.pix_fmt">yuv420p10le</property>
  <property name="meta.media.0.codec.sample_aspect_ratio">1</property>
  <property name="meta.media.0.codec.colorspace">709</property>
  <property name="meta.media.0.codec.color_trc">1</property>
  <property name="meta.media.0.codec.name">hevc</property>
  <property name="meta.media.0.codec.long_name">HEVC (High Efficiency Video Coding)</property>
  <property name="meta.media.0.codec.bit_rate">0</property>
  <property name="meta.attr.0.stream.BPS-eng.markup">1909238</property>
  <property name="meta.attr.0.stream.DURATION-eng.markup">00:24:09.615000000</property>
  <property name="meta.attr.0.stream.NUMBER_OF_FRAMES-eng.markup">34756</property>
  <property name="meta.attr.0.stream.NUMBER_OF_BYTES-eng.markup">345957539</property>
  <property name="meta.attr.0.stream._STATISTICS_WRITING_APP-eng.markup">mkvmerge v52.0.0 ('Secret For The Mad') 64-bit</property>
  <property name="meta.attr.0.stream._STATISTICS_WRITING_DATE_UTC-eng.markup">2023-01-09 18:00:40</property>
  <property name="meta.attr.0.stream._STATISTICS_TAGS-eng.markup">BPS DURATION NUMBER_OF_FRAMES NUMBER_OF_BYTES</property>
  <property name="meta.media.1.stream.type">audio</property>
  <property name="meta.media.1.codec.sample_fmt">fltp</property>
  <property name="meta.media.1.codec.sample_rate">48000</property>
  <property name="meta.media.1.codec.channels">2</property>
  <property name="meta.media.1.codec.layout">stereo</property>
  <property name="meta.media.1.codec.name">ac3</property>
  <property name="meta.media.1.codec.long_name">ATSC A/52A (AC-3)</property>
  <property name="meta.media.1.codec.bit_rate">448000</property>
  <property name="meta.attr.1.stream.language.markup">jpn</property>
  <property name="meta.attr.1.stream.title.markup">Japanese DVD AC-3 DD_2.0</property>
  <property name="meta.attr.1.stream.BPS-eng.markup">448000</property>
  <property name="meta.attr.1.stream.DURATION-eng.markup">00:24:09.504000000</property>
  <property name="meta.attr.1.stream.NUMBER_OF_FRAMES-eng.markup">45297</property>
  <property name="meta.attr.1.stream.NUMBER_OF_BYTES-eng.markup">81172224</property>
  <property name="meta.attr.1.stream._STATISTICS_WRITING_APP-eng.markup">mkvmerge v52.0.0 ('Secret For The Mad') 64-bit</property>
  <property name="meta.attr.1.stream._STATISTICS_WRITING_DATE_UTC-eng.markup">2023-01-09 18:00:40</property>
  <property name="meta.attr.1.stream._STATISTICS_TAGS-eng.markup">BPS DURATION NUMBER_OF_FRAMES NUMBER_OF_BYTES</property>
  <property name="meta.media.2.stream.type">audio</property>
  <property name="meta.media.2.codec.sample_fmt">fltp</property>
  <property name="meta.media.2.codec.sample_rate">44100</property>
  <property name="meta.media.2.codec.channels">2</property>
  <property name="meta.media.2.codec.layout">stereo</property>
  <property name="meta.media.2.codec.name">aac</property>
  <property name="meta.media.2.codec.long_name">AAC (Advanced Audio Coding)</property>
  <property name="meta.media.2.codec.bit_rate">0</property>
  <property name="meta.attr.2.stream.language.markup">eng</property>
  <property name="meta.attr.2.stream.title.markup">English AAC DD_2.0</property>
  <property name="meta.attr.2.stream.BPS-eng.markup">141899</property>
  <property name="meta.attr.2.stream.DURATION-eng.markup">00:23:54.830000000</property>
  <property name="meta.attr.2.stream.NUMBER_OF_FRAMES-eng.markup">61793</property>
  <property name="meta.attr.2.stream.NUMBER_OF_BYTES-eng.markup">25450280</property>
  <property name="meta.attr.2.stream._STATISTICS_WRITING_APP-eng.markup">mkvmerge v52.0.0 ('Secret For The Mad') 64-bit</property>
  <property name="meta.attr.2.stream._STATISTICS_WRITING_DATE_UTC-eng.markup">2023-01-09 18:00:40</property>
  <property name="meta.attr.2.stream._STATISTICS_TAGS-eng.markup">BPS DURATION NUMBER_OF_FRAMES NUMBER_OF_BYTES</property>
  <property name="meta.media.3.codec.name">ssa</property>
  <property name="meta.media.3.codec.long_name">ASS (Advanced SubStation Alpha) subtitle</property>
  <property name="meta.media.3.codec.bit_rate">0</property>
  <property name="meta.attr.3.stream.language.markup">eng</property>
  <property name="meta.attr.3.stream.title.markup">English (Full) ASS</property>
  <property name="meta.attr.3.stream.BPS-eng.markup">97</property>
  <property name="meta.attr.3.stream.DURATION-eng.markup">00:23:52.430000000</property>
  <property name="meta.attr.3.stream.NUMBER_OF_FRAMES-eng.markup">338</property>
  <property name="meta.attr.3.stream.NUMBER_OF_BYTES-eng.markup">17381</property>
  <property name="meta.attr.3.stream._STATISTICS_WRITING_APP-eng.markup">mkvmerge v52.0.0 ('Secret For The Mad') 64-bit</property>
  <property name="meta.attr.3.stream._STATISTICS_WRITING_DATE_UTC-eng.markup">2023-01-09 18:00:40</property>
  <property name="meta.attr.3.stream._STATISTICS_TAGS-eng.markup">BPS DURATION NUMBER_OF_FRAMES NUMBER_OF_BYTES</property>
  <property name="meta.media.4.codec.name">ssa</property>
  <property name="meta.media.4.codec.long_name">ASS (Advanced SubStation Alpha) subtitle</property>
  <property name="meta.media.4.codec.bit_rate">0</property>
  <property name="meta.attr.4.stream.language.markup">eng</property>
  <property name="meta.attr.4.stream.title.markup">English (Titles &amp; Signs) ASS</property>
  <property name="meta.attr.4.stream.BPS-eng.markup">2</property>
  <property name="meta.attr.4.stream.DURATION-eng.markup">00:23:52.430000000</property>
  <property name="meta.attr.4.stream.NUMBER_OF_FRAMES-eng.markup">7</property>
  <property name="meta.attr.4.stream.NUMBER_OF_BYTES-eng.markup">499</property>
  <property name="meta.attr.4.stream._STATISTICS_WRITING_APP-eng.markup">mkvmerge v52.0.0 ('Secret For The Mad') 64-bit</property>
  <property name="meta.attr.4.stream._STATISTICS_WRITING_DATE_UTC-eng.markup">2023-01-09 18:00:40</property>
  <property name="meta.attr.4.stream._STATISTICS_TAGS-eng.markup">BPS DURATION NUMBER_OF_FRAMES NUMBER_OF_BYTES</property>
  <property name="meta.media.5.codec.name">ssa</property>
  <property name="meta.media.5.codec.long_name">ASS (Advanced SubStation Alpha) subtitle</property>
  <property name="meta.media.5.codec.bit_rate">0</property>
  <property name="meta.attr.5.stream.language.markup">ara</property>
  <property name="meta.attr.5.stream.title.markup">Arabic</property>
  <property name="meta.attr.5.stream.BPS-eng.markup">109</property>
  <property name="meta.attr.5.stream.DURATION-eng.markup">00:22:18.930000000</property>
  <property name="meta.attr.5.stream.NUMBER_OF_FRAMES-eng.markup">320</property>
  <property name="meta.attr.5.stream.NUMBER_OF_BYTES-eng.markup">18334</property>
  <property name="meta.attr.5.stream._STATISTICS_WRITING_APP-eng.markup">mkvmerge v52.0.0 ('Secret For The Mad') 64-bit</property>
  <property name="meta.attr.5.stream._STATISTICS_WRITING_DATE_UTC-eng.markup">2023-01-09 18:00:40</property>
  <property name="meta.attr.5.stream._STATISTICS_TAGS-eng.markup">BPS DURATION NUMBER_OF_FRAMES NUMBER_OF_BYTES</property>
  <property name="meta.attr.title.markup">Monster : Chapter 49 : The Cruelest Thing</property>
  <property name="meta.attr.encoder.markup">libebml v1.4.1 + libmatroska v1.6.2</property>
  <property name="meta.attr.creation_time.markup">2023-01-09T18:00:40.000000Z</property>
  <property name="seekable">1</property>
  <property name="meta.media.sample_aspect_num">1</property>
  <property name="meta.media.sample_aspect_den">1</property>
  <property name="format">3</property>
  <property name="audio_index">1</property>
  <property name="video_index">0</property>
  <property name="warp_speed">0.2</property>
  <property name="warp_resource">/mnt/data1/Anime-Edits/Monster/Monster-Editing/Orig/Monster - Chapter 49 - The Cruelest Thing.mkv</property>
  <property name="mlt_service">timewarp</property>
  <property name="kdenlive:control_uuid">{828a9f44-9650-4c27-b9fa-fe14d22ce6f9}</property>
  <property name="vstream">0</property>
  <property name="astream">0</property>
  <property name="set.test_audio">1</property>
  <property name="set.test_image">0</property>
  <property name="kdenlive:id">6</property>
  <property name="warp_pitch">0</property>
  <property name="meta.media.frame_rate_num">24000</property>
  <property name="meta.media.frame_rate_den">1001</property>
  <property name="meta.media.colorspace">709</property>
  <property name="meta.media.color_trc">1</property>
  <property name="meta.media.has_b_frames">2</property>
  <property name="meta.media.width">1440</property>
  <property name="meta.media.height">1080</property>
  <property name="meta.media.aspect_ratio">1</property>
  <property name="meta.media.color_range">mpeg</property>
  <property name="meta.media.top_field_first">0</property>
  <property name="meta.media.progressive">1</property>
 </producer>
 <chain id="chain13" out="00:23:55.555">
  <property name="length">34419</property>
  <property name="eof">pause</property>
  <property name="resource">/mnt/data1/Anime-Edits/Monster/Monster-Editing/Orig/Monster - Chapter 50 - The Rose Mansion.mkv</property>
  <property name="mlt_service">avformat-novalidate</property>
  <property name="seekable">1</property>
  <property name="format">3</property>
  <property name="audio_index">1</property>
  <property name="video_index">0</property>
  <property name="vstream">0</property>
  <property name="astream">0</property>
  <property name="kdenlive:control_uuid">{e0c9d767-f46a-4445-9464-78a9ddc4d963}</property>
  <property name="kdenlive:id">7</property>
  <property name="kdenlive:clip_type">0</property>
  <property name="kdenlive:file_size">490101566</property>
  <property name="kdenlive:file_hash">8ae3f197ecb50c456667fe2817bc6f4f</property>
  <property name="kdenlive:folderid">-1</property>
  <property name="kdenlive:audio_max1">190</property>
  <property name="kdenlive:audio_max2">198</property>
  <property name="meta.media.nb_streams">29</property>
  <property name="meta.media.0.stream.type">video</property>
  <property name="meta.media.0.stream.frame_rate">23.976</property>
  <property name="meta.media.0.stream.sample_aspect_ratio">1</property>
  <property name="meta.media.0.codec.width">1440</property>
  <property name="meta.media.0.codec.height">1080</property>
  <property name="meta.media.0.codec.rotate">0</property>
  <property name="meta.media.0.codec.pix_fmt">yuv420p10le</property>
  <property name="meta.media.0.codec.sample_aspect_ratio">1</property>
  <property name="meta.media.0.codec.colorspace">709</property>
  <property name="meta.media.0.codec.color_trc">1</property>
  <property name="meta.media.0.codec.name">hevc</property>
  <property name="meta.media.0.codec.long_name">HEVC (High Efficiency Video Coding)</property>
  <property name="meta.media.0.codec.bit_rate">0</property>
  <property name="meta.attr.0.stream.BPS-eng.markup">2052640</property>
  <property name="meta.attr.0.stream.DURATION-eng.markup">00:23:55.518000000</property>
  <property name="meta.attr.0.stream.NUMBER_OF_FRAMES-eng.markup">34418</property>
  <property name="meta.attr.0.stream.NUMBER_OF_BYTES-eng.markup">368325305</property>
  <property name="meta.attr.0.stream._STATISTICS_WRITING_APP-eng.markup">mkvmerge v52.0.0 ('Secret For The Mad') 64-bit</property>
  <property name="meta.attr.0.stream._STATISTICS_WRITING_DATE_UTC-eng.markup">2023-01-16 18:06:53</property>
  <property name="meta.attr.0.stream._STATISTICS_TAGS-eng.markup">BPS DURATION NUMBER_OF_FRAMES NUMBER_OF_BYTES</property>
  <property name="meta.media.1.stream.type">audio</property>
  <property name="meta.media.1.codec.sample_fmt">fltp</property>
  <property name="meta.media.1.codec.sample_rate">48000</property>
  <property name="meta.media.1.codec.channels">2</property>
  <property name="meta.media.1.codec.layout">stereo</property>
  <property name="meta.media.1.codec.name">ac3</property>
  <property name="meta.media.1.codec.long_name">ATSC A/52A (AC-3)</property>
  <property name="meta.media.1.codec.bit_rate">448000</property>
  <property name="meta.attr.1.stream.language.markup">jpn</property>
  <property name="meta.attr.1.stream.title.markup">Japanese DVD AC-3 DD 2.0 @ 448 Kbps</property>
  <property name="meta.attr.1.stream.BPS-eng.markup">448000</property>
  <property name="meta.attr.1.stream.DURATION-eng.markup">00:23:55.552000000</property>
  <property name="meta.attr.1.stream.NUMBER_OF_FRAMES-eng.markup">44861</property>
  <property name="meta.attr.1.stream.NUMBER_OF_BYTES-eng.markup">80390912</property>
  <property name="meta.attr.1.stream.SOURCE_ID-eng.markup">0180BD</property>
  <property name="meta.attr.1.stream._STATISTICS_WRITING_APP-eng.markup">mkvmerge v52.0.0 ('Secret For The Mad') 64-bit</property>
  <property name="meta.attr.1.stream._STATISTICS_WRITING_DATE_UTC-eng.markup">2023-01-16 18:06:53</property>
  <property name="meta.attr.1.stream._STATISTICS_TAGS-eng.markup">BPS DURATION NUMBER_OF_FRAMES NUMBER_OF_BYTES SOURCE_ID</property>
  <property name="meta.media.2.stream.type">audio</property>
  <property name="meta.media.2.codec.sample_fmt">fltp</property>
  <property name="meta.media.2.codec.sample_rate">48000</property>
  <property name="meta.media.2.codec.channels">2</property>
  <property name="meta.media.2.codec.layout">stereo</property>
  <property name="meta.media.2.codec.name">ac3</property>
  <property name="meta.media.2.codec.long_name">ATSC A/52A (AC-3)</property>
  <property name="meta.media.2.codec.bit_rate">192000</property>
  <property name="meta.attr.2.stream.language.markup">eng</property>
  <property name="meta.attr.2.stream.title.markup">English AUS DVD AC-3 DD 2.0 @ 192 Kbps</property>
  <property name="meta.attr.2.stream.BPS-eng.markup">192000</property>
  <property name="meta.attr.2.stream.DURATION-eng.markup">00:23:54.016000000</property>
  <property name="meta.attr.2.stream.NUMBER_OF_FRAMES-eng.markup">44813</property>
  <property name="meta.attr.2.stream.NUMBER_OF_BYTES-eng.markup">34416384</property>
  <property name="meta.attr.2.stream._STATISTICS_WRITING_APP-eng.markup">mkvmerge v52.0.0 ('Secret For The Mad') 64-bit</property>
  <property name="meta.attr.2.stream._STATISTICS_WRITING_DATE_UTC-eng.markup">2023-01-16 18:06:53</property>
  <property name="meta.attr.2.stream._STATISTICS_TAGS-eng.markup">BPS DURATION NUMBER_OF_FRAMES NUMBER_OF_BYTES</property>
  <property name="meta.media.3.codec.name">ssa</property>
  <property name="meta.media.3.codec.long_name">ASS (Advanced SubStation Alpha) subtitle</property>
  <property name="meta.media.3.codec.bit_rate">0</property>
  <property name="meta.attr.3.stream.language.markup">eng</property>
  <property name="meta.attr.3.stream.title.markup">[CBM] English (Full) ASS</property>
  <property name="meta.attr.3.stream.BPS-eng.markup">93</property>
  <property name="meta.attr.3.stream.DURATION-eng.markup">00:23:50.130000000</property>
  <property name="meta.attr.3.stream.NUMBER_OF_FRAMES-eng.markup">307</property>
  <property name="meta.attr.3.stream.NUMBER_OF_BYTES-eng.markup">16737</property>
  <property name="meta.attr.3.stream._STATISTICS_WRITING_APP-eng.markup">mkvmerge v52.0.0 ('Secret For The Mad') 64-bit</property>
  <property name="meta.attr.3.stream._STATISTICS_WRITING_DATE_UTC-eng.markup">2023-01-16 18:06:53</property>
  <property name="meta.attr.3.stream._STATISTICS_TAGS-eng.markup">BPS DURATION NUMBER_OF_FRAMES NUMBER_OF_BYTES</property>
  <property name="meta.media.4.codec.name">ssa</property>
  <property name="meta.media.4.codec.long_name">ASS (Advanced SubStation Alpha) subtitle</property>
  <property name="meta.media.4.codec.bit_rate">0</property>
  <property name="meta.attr.4.stream.language.markup">eng</property>
  <property name="meta.attr.4.stream.title.markup">English (Titles &amp; Signs) ASS</property>
  <property name="meta.attr.4.stream.BPS-eng.markup">4</property>
  <property name="meta.attr.4.stream.DURATION-eng.markup">00:18:22.100000000</property>
  <property name="meta.attr.4.stream.NUMBER_OF_FRAMES-eng.markup">4</property>
  <property name="meta.attr.4.stream.NUMBER_OF_BYTES-eng.markup">647</property>
  <property name="meta.attr.4.stream._STATISTICS_WRITING_APP-eng.markup">mkvmerge v52.0.0 ('Secret For The Mad') 64-bit</property>
  <property name="meta.attr.4.stream._STATISTICS_WRITING_DATE_UTC-eng.markup">2023-01-16 18:06:53</property>
  <property name="meta.attr.4.stream._STATISTICS_TAGS-eng.markup">BPS DURATION NUMBER_OF_FRAMES NUMBER_OF_BYTES</property>
  <property name="meta.media.5.codec.name">ssa</property>
  <property name="meta.media.5.codec.long_name">ASS (Advanced SubStation Alpha) subtitle</property>
  <property name="meta.media.5.codec.bit_rate">0</property>
  <property name="meta.attr.5.stream.language.markup">ara</property>
  <property name="meta.attr.5.stream.title.markup">Arabic</property>
  <property name="meta.attr.5.stream.BPS-eng.markup">107</property>
  <property name="meta.attr.5.stream.DURATION-eng.markup">00:22:16.390000000</property>
  <property name="meta.attr.5.stream.NUMBER_OF_FRAMES-eng.markup">281</property>
  <property name="meta.attr.5.stream.NUMBER_OF_BYTES-eng.markup">17959</property>
  <property name="meta.attr.5.stream._STATISTICS_WRITING_APP-eng.markup">mkvmerge v52.0.0 ('Secret For The Mad') 64-bit</property>
  <property name="meta.attr.5.stream._STATISTICS_WRITING_DATE_UTC-eng.markup">2023-01-16 18:06:53</property>
  <property name="meta.attr.5.stream._STATISTICS_TAGS-eng.markup">BPS DURATION NUMBER_OF_FRAMES NUMBER_OF_BYTES</property>
  <property name="meta.attr.title.markup">Monster : Chapter 50 : The Rose Mansion</property>
  <property name="meta.attr.encoder.markup">libebml v1.4.1 + libmatroska v1.6.2</property>
  <property name="meta.attr.creation_time.markup">2023-01-16T18:06:53.000000Z</property>
  <property name="meta.media.sample_aspect_num">1</property>
  <property name="meta.media.sample_aspect_den">1</property>
  <property name="meta.media.frame_rate_num">24000</property>
  <property name="meta.media.frame_rate_den">1001</property>
  <property name="meta.media.colorspace">709</property>
  <property name="meta.media.color_trc">1</property>
  <property name="meta.media.has_b_frames">2</property>
  <property name="meta.media.width">1440</property>
  <property name="meta.media.height">1080</property>
  <property name="meta.media.aspect_ratio">1</property>
  <property name="meta.media.color_range">mpeg</property>
  <property name="xml">was here</property>
  <property name="mute_on_pause">0</property>
  <property name="meta.media.top_field_first">0</property>
  <property name="meta.media.progressive">1</property>
  <property name="set.test_audio">1</property>
  <property name="set.test_image">0</property>
 </chain>
 <producer id="producer7" in="00:00:00.000" out="00:07:58.517">
  <property name="length">11473</property>
  <property name="eof">pause</property>
  <property name="resource">3.000000:/mnt/data1/Anime-Edits/Monster/Monster-Editing/Orig/Monster - Chapter 50 - The Rose Mansion.mkv</property>
  <property name="aspect_ratio">1</property>
  <property name="meta.media.nb_streams">29</property>
  <property name="meta.media.0.stream.type">video</property>
  <property name="meta.media.0.stream.frame_rate">23.976</property>
  <property name="meta.media.0.stream.sample_aspect_ratio">1</property>
  <property name="meta.media.0.codec.width">1440</property>
  <property name="meta.media.0.codec.height">1080</property>
  <property name="meta.media.0.codec.rotate">0</property>
  <property name="meta.media.0.codec.pix_fmt">yuv420p10le</property>
  <property name="meta.media.0.codec.sample_aspect_ratio">1</property>
  <property name="meta.media.0.codec.colorspace">709</property>
  <property name="meta.media.0.codec.color_trc">1</property>
  <property name="meta.media.0.codec.name">hevc</property>
  <property name="meta.media.0.codec.long_name">HEVC (High Efficiency Video Coding)</property>
  <property name="meta.media.0.codec.bit_rate">0</property>
  <property name="meta.attr.0.stream.BPS-eng.markup">2052640</property>
  <property name="meta.attr.0.stream.DURATION-eng.markup">00:23:55.518000000</property>
  <property name="meta.attr.0.stream.NUMBER_OF_FRAMES-eng.markup">34418</property>
  <property name="meta.attr.0.stream.NUMBER_OF_BYTES-eng.markup">368325305</property>
  <property name="meta.attr.0.stream._STATISTICS_WRITING_APP-eng.markup">mkvmerge v52.0.0 ('Secret For The Mad') 64-bit</property>
  <property name="meta.attr.0.stream._STATISTICS_WRITING_DATE_UTC-eng.markup">2023-01-16 18:06:53</property>
  <property name="meta.attr.0.stream._STATISTICS_TAGS-eng.markup">BPS DURATION NUMBER_OF_FRAMES NUMBER_OF_BYTES</property>
  <property name="meta.media.1.stream.type">audio</property>
  <property name="meta.media.1.codec.sample_fmt">fltp</property>
  <property name="meta.media.1.codec.sample_rate">48000</property>
  <property name="meta.media.1.codec.channels">2</property>
  <property name="meta.media.1.codec.layout">stereo</property>
  <property name="meta.media.1.codec.name">ac3</property>
  <property name="meta.media.1.codec.long_name">ATSC A/52A (AC-3)</property>
  <property name="meta.media.1.codec.bit_rate">448000</property>
  <property name="meta.attr.1.stream.language.markup">jpn</property>
  <property name="meta.attr.1.stream.title.markup">Japanese DVD AC-3 DD 2.0 @ 448 Kbps</property>
  <property name="meta.attr.1.stream.BPS-eng.markup">448000</property>
  <property name="meta.attr.1.stream.DURATION-eng.markup">00:23:55.552000000</property>
  <property name="meta.attr.1.stream.NUMBER_OF_FRAMES-eng.markup">44861</property>
  <property name="meta.attr.1.stream.NUMBER_OF_BYTES-eng.markup">80390912</property>
  <property name="meta.attr.1.stream.SOURCE_ID-eng.markup">0180BD</property>
  <property name="meta.attr.1.stream._STATISTICS_WRITING_APP-eng.markup">mkvmerge v52.0.0 ('Secret For The Mad') 64-bit</property>
  <property name="meta.attr.1.stream._STATISTICS_WRITING_DATE_UTC-eng.markup">2023-01-16 18:06:53</property>
  <property name="meta.attr.1.stream._STATISTICS_TAGS-eng.markup">BPS DURATION NUMBER_OF_FRAMES NUMBER_OF_BYTES SOURCE_ID</property>
  <property name="meta.media.2.stream.type">audio</property>
  <property name="meta.media.2.codec.sample_fmt">fltp</property>
  <property name="meta.media.2.codec.sample_rate">48000</property>
  <property name="meta.media.2.codec.channels">2</property>
  <property name="meta.media.2.codec.layout">stereo</property>
  <property name="meta.media.2.codec.name">ac3</property>
  <property name="meta.media.2.codec.long_name">ATSC A/52A (AC-3)</property>
  <property name="meta.media.2.codec.bit_rate">192000</property>
  <property name="meta.attr.2.stream.language.markup">eng</property>
  <property name="meta.attr.2.stream.title.markup">English AUS DVD AC-3 DD 2.0 @ 192 Kbps</property>
  <property name="meta.attr.2.stream.BPS-eng.markup">192000</property>
  <property name="meta.attr.2.stream.DURATION-eng.markup">00:23:54.016000000</property>
  <property name="meta.attr.2.stream.NUMBER_OF_FRAMES-eng.markup">44813</property>
  <property name="meta.attr.2.stream.NUMBER_OF_BYTES-eng.markup">34416384</property>
  <property name="meta.attr.2.stream._STATISTICS_WRITING_APP-eng.markup">mkvmerge v52.0.0 ('Secret For The Mad') 64-bit</property>
  <property name="meta.attr.2.stream._STATISTICS_WRITING_DATE_UTC-eng.markup">2023-01-16 18:06:53</property>
  <property name="meta.attr.2.stream._STATISTICS_TAGS-eng.markup">BPS DURATION NUMBER_OF_FRAMES NUMBER_OF_BYTES</property>
  <property name="meta.media.3.codec.name">ssa</property>
  <property name="meta.media.3.codec.long_name">ASS (Advanced SubStation Alpha) subtitle</property>
  <property name="meta.media.3.codec.bit_rate">0</property>
  <property name="meta.attr.3.stream.language.markup">eng</property>
  <property name="meta.attr.3.stream.title.markup">[CBM] English (Full) ASS</property>
  <property name="meta.attr.3.stream.BPS-eng.markup">93</property>
  <property name="meta.attr.3.stream.DURATION-eng.markup">00:23:50.130000000</property>
  <property name="meta.attr.3.stream.NUMBER_OF_FRAMES-eng.markup">307</property>
  <property name="meta.attr.3.stream.NUMBER_OF_BYTES-eng.markup">16737</property>
  <property name="meta.attr.3.stream._STATISTICS_WRITING_APP-eng.markup">mkvmerge v52.0.0 ('Secret For The Mad') 64-bit</property>
  <property name="meta.attr.3.stream._STATISTICS_WRITING_DATE_UTC-eng.markup">2023-01-16 18:06:53</property>
  <property name="meta.attr.3.stream._STATISTICS_TAGS-eng.markup">BPS DURATION NUMBER_OF_FRAMES NUMBER_OF_BYTES</property>
  <property name="meta.media.4.codec.name">ssa</property>
  <property name="meta.media.4.codec.long_name">ASS (Advanced SubStation Alpha) subtitle</property>
  <property name="meta.media.4.codec.bit_rate">0</property>
  <property name="meta.attr.4.stream.language.markup">eng</property>
  <property name="meta.attr.4.stream.title.markup">English (Titles &amp; Signs) ASS</property>
  <property name="meta.attr.4.stream.BPS-eng.markup">4</property>
  <property name="meta.attr.4.stream.DURATION-eng.markup">00:18:22.100000000</property>
  <property name="meta.attr.4.stream.NUMBER_OF_FRAMES-eng.markup">4</property>
  <property name="meta.attr.4.stream.NUMBER_OF_BYTES-eng.markup">647</property>
  <property name="meta.attr.4.stream._STATISTICS_WRITING_APP-eng.markup">mkvmerge v52.0.0 ('Secret For The Mad') 64-bit</property>
  <property name="meta.attr.4.stream._STATISTICS_WRITING_DATE_UTC-eng.markup">2023-01-16 18:06:53</property>
  <property name="meta.attr.4.stream._STATISTICS_TAGS-eng.markup">BPS DURATION NUMBER_OF_FRAMES NUMBER_OF_BYTES</property>
  <property name="meta.media.5.codec.name">ssa</property>
  <property name="meta.media.5.codec.long_name">ASS (Advanced SubStation Alpha) subtitle</property>
  <property name="meta.media.5.codec.bit_rate">0</property>
  <property name="meta.attr.5.stream.language.markup">ara</property>
  <property name="meta.attr.5.stream.title.markup">Arabic</property>
  <property name="meta.attr.5.stream.BPS-eng.markup">107</property>
  <property name="meta.attr.5.stream.DURATION-eng.markup">00:22:16.390000000</property>
  <property name="meta.attr.5.stream.NUMBER_OF_FRAMES-eng.markup">281</property>
  <property name="meta.attr.5.stream.NUMBER_OF_BYTES-eng.markup">17959</property>
  <property name="meta.attr.5.stream._STATISTICS_WRITING_APP-eng.markup">mkvmerge v52.0.0 ('Secret For The Mad') 64-bit</property>
  <property name="meta.attr.5.stream._STATISTICS_WRITING_DATE_UTC-eng.markup">2023-01-16 18:06:53</property>
  <property name="meta.attr.5.stream._STATISTICS_TAGS-eng.markup">BPS DURATION NUMBER_OF_FRAMES NUMBER_OF_BYTES</property>
  <property name="meta.attr.title.markup">Monster : Chapter 50 : The Rose Mansion</property>
  <property name="meta.attr.encoder.markup">libebml v1.4.1 + libmatroska v1.6.2</property>
  <property name="meta.attr.creation_time.markup">2023-01-16T18:06:53.000000Z</property>
  <property name="seekable">1</property>
  <property name="meta.media.sample_aspect_num">1</property>
  <property name="meta.media.sample_aspect_den">1</property>
  <property name="format">3</property>
  <property name="audio_index">1</property>
  <property name="video_index">0</property>
  <property name="warp_speed">3</property>
  <property name="warp_resource">/mnt/data1/Anime-Edits/Monster/Monster-Editing/Orig/Monster - Chapter 50 - The Rose Mansion.mkv</property>
  <property name="mlt_service">timewarp</property>
  <property name="kdenlive:control_uuid">{e0c9d767-f46a-4445-9464-78a9ddc4d963}</property>
  <property name="vstream">0</property>
  <property name="astream">0</property>
  <property name="set.test_audio">1</property>
  <property name="set.test_image">0</property>
  <property name="kdenlive:id">7</property>
  <property name="warp_pitch">0</property>
  <property name="meta.media.frame_rate_num">24000</property>
  <property name="meta.media.frame_rate_den">1001</property>
  <property name="meta.media.colorspace">709</property>
  <property name="meta.media.color_trc">1</property>
  <property name="meta.media.has_b_frames">2</property>
  <property name="meta.media.width">1440</property>
  <property name="meta.media.height">1080</property>
  <property name="meta.media.aspect_ratio">1</property>
  <property name="meta.media.color_range">mpeg</property>
  <property name="meta.media.top_field_first">0</property>
  <property name="meta.media.progressive">1</property>
 </producer>
 <playlist id="playlist6">
  <entry in="00:00:00.000" out="00:08:58.308" producer="chain10">
   <property name="kdenlive:id">4</property>
  </entry>
  <entry in="00:09:01.168" out="00:09:30.864" producer="chain10">
   <property name="kdenlive:id">4</property>
  </entry>
  <entry in="00:09:31.990" out="00:14:17.226" producer="chain10">
   <property name="kdenlive:id">4</property>
   <filter id="filter53" in="00:14:14.389" out="00:14:17.226">
    <property name="start">1</property>
    <property name="level">1</property>
    <property name="mlt_service">brightness</property>
    <property name="kdenlive_id">fade_to_black</property>
    <property name="alpha">00:00:00.000=1;00:00:02.836=0</property>
    <property name="kdenlive:collapsed">0</property>
   </filter>
  </entry>
  <entry in="00:14:21.396" out="00:14:29.613" producer="chain10">
   <property name="kdenlive:id">4</property>
  </entry>
  <entry in="00:04:49.883" out="00:04:50.342" producer="producer1">
   <property name="kdenlive:id">4</property>
  </entry>
  <entry in="00:15:06.757" out="00:16:57.266" producer="chain10">
   <property name="kdenlive:id">4</property>
  </entry>
  <entry in="00:16:58.517" out="00:17:13.513" producer="chain10">
   <property name="kdenlive:id">4</property>
  </entry>
  <entry in="00:17:14.306" out="00:17:16.141" producer="chain10">
   <property name="kdenlive:id">4</property>
  </entry>
  <entry in="00:17:17.100" out="00:17:18.310" producer="chain10">
   <property name="kdenlive:id">4</property>
  </entry>
  <entry in="00:17:19.102" out="00:18:18.727" producer="chain10">
   <property name="kdenlive:id">4</property>
  </entry>
  <entry in="00:18:21.855" out="00:22:20.729" producer="chain10">
   <property name="kdenlive:id">4</property>
  </entry>
  <entry in="00:11:10.385" out="00:11:12.679" producer="producer2">
   <property name="kdenlive:id">4</property>
  </entry>
  <entry in="00:22:25.400" out="00:22:27.402" producer="chain10">
   <property name="kdenlive:id">4</property>
  </entry>
  <entry in="00:03:10.719" out="00:05:36.703" producer="chain11">
   <property name="kdenlive:id">5</property>
  </entry>
  <entry in="00:02:48.382" out="00:02:49.800" producer="producer3">
   <property name="kdenlive:id">5</property>
  </entry>
  <entry in="00:02:49.841" out="00:02:51.718" producer="producer4">
   <property name="kdenlive:id">5</property>
  </entry>
  <entry in="00:05:43.502" out="00:06:00.751" producer="chain11">
   <property name="kdenlive:id">5</property>
  </entry>
  <entry in="00:06:02.878" out="00:06:09.801" producer="chain11">
   <property name="kdenlive:id">5</property>
  </entry>
  <entry in="00:06:14.389" out="00:12:00.959" producer="chain11">
   <property name="kdenlive:id">5</property>
  </entry>
  <entry in="00:09:02.085" out="00:09:04.296" producer="producer5">
   <property name="kdenlive:id">5</property>
  </entry>
  <entry in="00:12:08.008" out="00:14:27.402" producer="chain11">
   <property name="kdenlive:id">5</property>
  </entry>
  <entry in="00:14:30.614" out="00:18:50.175" producer="chain11">
   <property name="kdenlive:id">5</property>
  </entry>
  <entry in="00:18:53.178" out="00:19:47.547" producer="chain11">
   <property name="kdenlive:id">5</property>
  </entry>
  <entry in="00:19:57.641" out="00:22:23.523" producer="chain11">
   <property name="kdenlive:id">5</property>
  </entry>
  <entry in="00:00:00.000" out="00:00:54.721" producer="chain12">
   <property name="kdenlive:id">6</property>
  </entry>
  <entry in="00:00:56.265" out="00:01:05.839" producer="chain12">
   <property name="kdenlive:id">6</property>
   <filter id="filter54" in="00:01:04.171" out="00:01:05.839">
    <property name="start">1</property>
    <property name="level">1</property>
    <property name="mlt_service">brightness</property>
    <property name="kdenlive_id">fade_to_black</property>
    <property name="alpha">00:00:00.000=1;00:00:01.668=0</property>
    <property name="kdenlive:collapsed">0</property>
   </filter>
  </entry>
  <entry in="00:02:32.074" out="00:11:15.098" producer="chain12">
   <property name="kdenlive:id">6</property>
  </entry>
  <entry in="00:56:45.504" out="00:56:46.088" producer="producer6">
   <property name="kdenlive:id">6</property>
  </entry>
  <entry in="00:11:21.230" out="00:19:20.729" producer="chain12">
   <property name="kdenlive:id">6</property>
  </entry>
  <entry in="00:19:25.692" out="00:22:27.361" producer="chain12">
   <property name="kdenlive:id">6</property>
  </entry>
  <entry in="00:00:00.000" out="00:00:44.002" producer="chain13">
   <property name="kdenlive:id">7</property>
  </entry>
  <entry in="00:02:09.301" out="00:05:15.432" producer="chain13">
   <property name="kdenlive:id">7</property>
  </entry>
  <entry in="00:01:45.170" out="00:01:46.296" producer="producer7">
   <property name="kdenlive:id">7</property>
  </entry>
  <entry in="00:05:19.061" out="00:10:51.677" producer="chain13">
   <property name="kdenlive:id">7</property>
  </entry>
  <entry in="00:10:52.511" out="00:10:59.810" producer="chain13">
   <property name="kdenlive:id">7</property>
  </entry>
  <entry in="00:11:12.012" out="00:12:39.122" producer="chain13">
   <property name="kdenlive:id">7</property>
  </entry>
  <entry in="00:12:40.624" out="00:12:42.084" producer="chain13">
   <property name="kdenlive:id">7</property>
  </entry>
  <entry in="00:12:43.168" out="00:23:36.954" producer="chain13">
   <property name="kdenlive:id">7</property>
  </entry>
 </playlist>
 <playlist id="playlist7"/>
 <tractor id="tractor3" in="00:00:00.000" out="01:22:58.767">
  <property name="kdenlive:trackheight">62</property>
  <property name="kdenlive:timeline_active">1</property>
  <property name="kdenlive:collapsed">0</property>
  <property name="kdenlive:thumbs_format"/>
  <property name="kdenlive:audio_rec"/>
  <track hide="audio" producer="playlist6"/>
  <track hide="audio" producer="playlist7"/>
 </tractor>
 <playlist id="playlist8"/>
 <playlist id="playlist9"/>
 <tractor id="tractor4" in="00:00:00.000">
  <property name="kdenlive:trackheight">62</property>
  <property name="kdenlive:timeline_active">1</property>
  <property name="kdenlive:collapsed">0</property>
  <property name="kdenlive:thumbs_format"/>
  <property name="kdenlive:audio_rec"/>
  <track hide="audio" producer="playlist8"/>
  <track hide="audio" producer="playlist9"/>
 </tractor>
 <tractor id="tractor5" in="00:00:00.000" out="01:22:58.767">
  <property name="kdenlive:duration">01:22:58.809</property>
  <property name="kdenlive:maxduration">119371</property>
  <property name="kdenlive:clipname">Sequence 1</property>
  <property name="kdenlive:description"/>
  <property name="kdenlive:uuid">{ae036d2a-cf89-443a-8132-d25876d1455e}</property>
  <property name="kdenlive:producer_type">17</property>
  <property name="kdenlive:control_uuid">{ae036d2a-cf89-443a-8132-d25876d1455e}</property>
  <property name="kdenlive:id">3</property>
  <property name="kdenlive:clip_type">0</property>
  <property name="kdenlive:file_hash">16df5ed146429b5265b58685162d5f36</property>
  <property name="kdenlive:folderid">2</property>
  <property name="kdenlive:sequenceproperties.activeTrack">3</property>
  <property name="kdenlive:sequenceproperties.audioTarget">1</property>
  <property name="kdenlive:sequenceproperties.disablepreview">0</property>
  <property name="kdenlive:sequenceproperties.documentuuid">{ae036d2a-cf89-443a-8132-d25876d1455e}</property>
  <property name="kdenlive:sequenceproperties.globalSubtitleStyles">[
]
</property>
  <property name="kdenlive:sequenceproperties.hasAudio">1</property>
  <property name="kdenlive:sequenceproperties.hasVideo">1</property>
  <property name="kdenlive:sequenceproperties.hidesubtitle">0</property>
  <property name="kdenlive:sequenceproperties.position">45891</property>
  <property name="kdenlive:sequenceproperties.scrollPos">13017</property>
  <property name="kdenlive:sequenceproperties.subtitlesList">[
    {
        "file": "/tmp/1735318902018-{ebef4270-c598-4d99-b35c-7f0ff24073fc}.ass",
        "id": 0,
        "name": "Subtitles"
    }
]
</property>
  <property name="kdenlive:sequenceproperties.tracks">4</property>
  <property name="kdenlive:sequenceproperties.tracksCount">5</property>
  <property name="kdenlive:sequenceproperties.verticalzoom">1</property>
  <property name="kdenlive:sequenceproperties.videoTarget">2</property>
  <property name="kdenlive:sequenceproperties.zonein">0</property>
  <property name="kdenlive:sequenceproperties.zoneout">119371</property>
  <property name="kdenlive:sequenceproperties.zoom">10</property>
  <property name="kdenlive:sequenceproperties.groups">[
    {
        "children": [
            {
                "data": "3:23319:-1",
                "leaf": "clip",
                "type": "Leaf"
            },
            {
                "data": "1:23319:-1",
                "leaf": "clip",
                "type": "Leaf"
            }
        ],
        "type": "Normal"
    },
    {
        "children": [
            {
                "data": "3:20459:-1",
                "leaf": "clip",
                "type": "Leaf"
            },
            {
                "data": "3:20657:-1",
                "leaf": "clip",
                "type": "Leaf"
            },
            {
                "data": "2:20459:-1",
                "leaf": "clip",
                "type": "Leaf"
            }
        ],
        "type": "Normal"
    },
    {
        "children": [
            {
                "data": "3:23680:-1",
                "leaf": "clip",
                "type": "Leaf"
            },
            {
                "data": "3:23725:-1",
                "leaf": "clip",
                "type": "Leaf"
            },
            {
                "data": "2:23676:-1",
                "leaf": "clip",
                "type": "Leaf"
            }
        ],
        "type": "Normal"
    },
    {
        "children": [
            {
                "data": "3:25186:-1",
                "leaf": "clip",
                "type": "Leaf"
            },
            {
                "data": "2:25181:-1",
                "leaf": "clip",
                "type": "Leaf"
            }
        ],
        "type": "Normal"
    },
    {
        "children": [
            {
                "data": "3:12907:-1",
                "leaf": "clip",
                "type": "Leaf"
            },
            {
                "data": "2:12907:-1",
                "leaf": "clip",
                "type": "Leaf"
            },
            {
                "data": "1:12874:-1",
                "leaf": "clip",
                "type": "Leaf"
            }
        ],
        "type": "Normal"
    },
    {
        "children": [
            {
                "data": "3:23755:-1",
                "leaf": "clip",
                "type": "Leaf"
            },
            {
                "data": "1:23738:-1",
                "leaf": "clip",
                "type": "Leaf"
            }
        ],
        "type": "Normal"
    },
    {
        "children": [
            {
                "data": "1:34482:-1",
                "leaf": "clip",
                "type": "Leaf"
            },
            {
                "data": "3:34555:-1",
                "leaf": "clip",
                "type": "Leaf"
            },
            {
                "data": "3:34520:-1",
                "leaf": "clip",
                "type": "Leaf"
            }
        ],
        "type": "Normal"
    },
    {
        "children": [
            {
                "data": "1:20670:-1",
                "leaf": "clip",
                "type": "Leaf"
            },
            {
                "data": "2:23306:-1",
                "leaf": "clip",
                "type": "Leaf"
            },
            {
                "data": "3:20669:-1",
                "leaf": "clip",
                "type": "Leaf"
            }
        ],
        "type": "Normal"
    },
    {
        "children": [
            {
                "data": "3:30914:-1",
                "leaf": "clip",
                "type": "Leaf"
            },
            {
                "data": "1:30904:-1",
                "leaf": "clip",
                "type": "Leaf"
            }
        ],
        "type": "Normal"
    },
    {
        "children": [
            {
                "data": "0:102637:-1",
                "leaf": "clip",
                "type": "Leaf"
            },
            {
                "data": "2:103669:-1",
                "leaf": "clip",
                "type": "Leaf"
            },
            {
                "data": "3:103695:-1",
                "leaf": "clip",
                "type": "Leaf"
            }
        ],
        "type": "Normal"
    },
    {
        "children": [
            {
                "data": "3:35016:-1",
                "leaf": "clip",
                "type": "Leaf"
            },
            {
                "data": "1:35016:-1",
                "leaf": "clip",
                "type": "Leaf"
            }
        ],
        "type": "Normal"
    },
    {
        "children": [
            {
                "data": "3:53115:-1",
                "leaf": "clip",
                "type": "Leaf"
            },
            {
                "data": "1:53042:-1",
                "leaf": "clip",
                "type": "Leaf"
            }
        ],
        "type": "Normal"
    },
    {
        "children": [
            {
                "data": "3:35183:-1",
                "leaf": "clip",
                "type": "Leaf"
            },
            {
                "data": "3:43493:-1",
                "leaf": "clip",
                "type": "Leaf"
            },
            {
                "data": "2:35166:-1",
                "leaf": "clip",
                "type": "Leaf"
            }
        ],
        "type": "Normal"
    },
    {
        "children": [
            {
                "data": "3:43547:-1",
                "leaf": "clip",
                "type": "Leaf"
            },
            {
                "data": "1:43547:-1",
                "leaf": "clip",
                "type": "Leaf"
            },
            {
                "data": "-2:44362:0",
                "leaf": "subtitle",
                "type": "Leaf"
            }
        ],
        "type": "Normal"
    },
    {
        "children": [
            {
                "data": "1:88927:-1",
                "leaf": "clip",
                "type": "Leaf"
            },
            {
                "data": "3:88927:-1",
                "leaf": "clip",
                "type": "Leaf"
            }
        ],
        "type": "Normal"
    },
    {
        "children": [
            {
                "data": "2:87871:-1",
                "leaf": "clip",
                "type": "Leaf"
            },
            {
                "data": "3:87871:-1",
                "leaf": "clip",
                "type": "Leaf"
            }
        ],
        "type": "Normal"
    },
    {
        "children": [
            {
                "data": "3:83514:-1",
                "leaf": "clip",
                "type": "Leaf"
            },
            {
                "data": "1:83507:-1",
                "leaf": "clip",
                "type": "Leaf"
            }
        ],
        "type": "Normal"
    },
    {
        "children": [
            {
                "data": "3:103659:-1",
                "leaf": "clip",
                "type": "Leaf"
            },
            {
                "data": "3:101570:-1",
                "leaf": "clip",
                "type": "Leaf"
            },
            {
                "data": "1:101431:-1",
                "leaf": "clip",
                "type": "Leaf"
            }
        ],
        "type": "Normal"
    },
    {
        "children": [
            {
                "data": "3:13620:-1",
                "leaf": "clip",
                "type": "Leaf"
            },
            {
                "data": "1:13600:-1",
                "leaf": "clip",
                "type": "Leaf"
            }
        ],
        "type": "Normal"
    },
    {
        "children": [
            {
                "data": "2:59221:-1",
                "leaf": "clip",
                "type": "Leaf"
            },
            {
                "data": "3:59231:-1",
                "leaf": "clip",
                "type": "Leaf"
            }
        ],
        "type": "Normal"
    },
    {
        "children": [
            {
                "data": "3:72017:-1",
                "leaf": "clip",
                "type": "Leaf"
            },
            {
                "data": "0:71991:-1",
                "leaf": "clip",
                "type": "Leaf"
            }
        ],
        "type": "Normal"
    },
    {
        "children": [
            {
                "data": "3:31019:-1",
                "leaf": "clip",
                "type": "Leaf"
            },
            {
                "data": "2:31019:-1",
                "leaf": "clip",
                "type": "Leaf"
            }
        ],
        "type": "Normal"
    },
    {
        "children": [
            {
                "data": "3:54419:-1",
                "leaf": "clip",
                "type": "Leaf"
            },
            {
                "data": "2:54410:-1",
                "leaf": "clip",
                "type": "Leaf"
            }
        ],
        "type": "Normal"
    },
    {
        "children": [
            {
                "data": "2:46888:-1",
                "leaf": "clip",
                "type": "Leaf"
            },
            {
                "data": "3:46890:-1",
                "leaf": "clip",
                "type": "Leaf"
            }
        ],
        "type": "Normal"
    },
    {
        "children": [
            {
                "data": "3:30970:-1",
                "leaf": "clip",
                "type": "Leaf"
            },
            {
                "data": "2:30955:-1",
                "leaf": "clip",
                "type": "Leaf"
            }
        ],
        "type": "Normal"
    },
    {
        "children": [
            {
                "data": "3:34601:-1",
                "leaf": "clip",
                "type": "Leaf"
            },
            {
                "data": "2:34601:-1",
                "leaf": "clip",
                "type": "Leaf"
            }
        ],
        "type": "Normal"
    }
]
</property>
  <property name="kdenlive:sequenceproperties.guides">[
]
</property>
  <track producer="producer0"/>
  <track producer="tractor0"/>
  <track producer="tractor1"/>
  <track producer="tractor2"/>
  <track producer="tractor3"/>
  <track producer="tractor4"/>
  <transition id="transition0">
   <property name="a_track">0</property>
   <property name="b_track">1</property>
   <property name="mlt_service">mix</property>
   <property name="kdenlive_id">mix</property>
   <property name="internal_added">237</property>
   <property name="always_active">1</property>
   <property name="accepts_blanks">1</property>
   <property name="sum">1</property>
  </transition>
  <transition id="transition1">
   <property name="a_track">0</property>
   <property name="b_track">2</property>
   <property name="mlt_service">mix</property>
   <property name="kdenlive_id">mix</property>
   <property name="internal_added">237</property>
   <property name="always_active">1</property>
   <property name="accepts_blanks">1</property>
   <property name="sum">1</property>
  </transition>
  <transition id="transition2">
   <property name="a_track">0</property>
   <property name="b_track">3</property>
   <property name="mlt_service">mix</property>
   <property name="kdenlive_id">mix</property>
   <property name="internal_added">237</property>
   <property name="always_active">1</property>
   <property name="accepts_blanks">1</property>
   <property name="sum">1</property>
  </transition>
  <transition id="transition3">
   <property name="a_track">0</property>
   <property name="b_track">4</property>
   <property name="compositing">0</property>
   <property name="distort">0</property>
   <property name="rotate_center">0</property>
   <property name="mlt_service">qtblend</property>
   <property name="kdenlive_id">qtblend</property>
   <property name="internal_added">237</property>
   <property name="always_active">1</property>
  </transition>
  <transition id="transition4">
   <property name="a_track">0</property>
   <property name="b_track">5</property>
   <property name="compositing">0</property>
   <property name="distort">0</property>
   <property name="rotate_center">0</property>
   <property name="mlt_service">qtblend</property>
   <property name="kdenlive_id">qtblend</property>
   <property name="internal_added">237</property>
   <property name="always_active">1</property>
  </transition>
  <filter id="filter55">
   <property name="window">75</property>
   <property name="max_gain">20dB</property>
   <property name="mlt_service">volume</property>
   <property name="internal_added">237</property>
   <property name="disable">1</property>
  </filter>
  <filter id="filter56">
   <property name="channel">-1</property>
   <property name="mlt_service">panner</property>
   <property name="internal_added">237</property>
   <property name="start">0.5</property>
   <property name="disable">1</property>
  </filter>
  <filter id="filter57">
   <property name="mlt_service">avfilter.subtitles</property>
   <property name="av.alpha">1</property>
   <property name="internal_added">237</property>
   <property name="av.filename">Monster_47-50_The_Door_to_Nightmares_1080p_24fps.kdenlive.ass</property>
  </filter>
 </tractor>
 <playlist id="main_bin">
  <property name="kdenlive:folder.-1.2">Sequences</property>
  <property name="kdenlive:sequenceFolder">2</property>
  <property name="kdenlive:docproperties.activetimeline">{ae036d2a-cf89-443a-8132-d25876d1455e}</property>
  <property name="kdenlive:docproperties.audioChannels">2</property>
  <property name="kdenlive:docproperties.binsort">0</property>
  <property name="kdenlive:docproperties.browserurl">/mnt/data1/Anime-Edits/Monster/Monster-Editing/Monster [Ultimate Collection] By Kira [SEV]/Original Soundtracks [2004]/Various Artists - Monster Remix -Octopus- [2004]/</property>
  <property name="kdenlive:docproperties.documentid">1735318902018</property>
  <property name="kdenlive:docproperties.enableTimelineZone">0</property>
  <property name="kdenlive:docproperties.enableexternalproxy">0</property>
  <property name="kdenlive:docproperties.enableproxy">0</property>
  <property name="kdenlive:docproperties.externalproxyparams"/>
  <property name="kdenlive:docproperties.generateimageproxy">0</property>
  <property name="kdenlive:docproperties.generateproxy">0</property>
  <property name="kdenlive:docproperties.guidesCategories">[
    {
        "color": "#9b59b6",
        "comment": "Category 1",
        "index": 0
    },
    {
        "color": "#3daee9",
        "comment": "Category 2",
        "index": 1
    },
    {
        "color": "#1abc9c",
        "comment": "Category 3",
        "index": 2
    },
    {
        "color": "#1cdc9a",
        "comment": "Category 4",
        "index": 3
    },
    {
        "color": "#c9ce3b",
        "comment": "Category 5",
        "index": 4
    },
    {
        "color": "#fdbc4b",
        "comment": "Category 6",
        "index": 5
    },
    {
        "color": "#f39c1f",
        "comment": "Category 7",
        "index": 6
    },
    {
        "color": "#f47750",
        "comment": "Category 8",
        "index": 7
    },
    {
        "color": "#da4453",
        "comment": "Category 9",
        "index": 8
    }
]
</property>
  <property name="kdenlive:docproperties.kdenliveversion">24.12.0</property>
  <property name="kdenlive:docproperties.opensequences">{ae036d2a-cf89-443a-8132-d25876d1455e}</property>
  <property name="kdenlive:docproperties.previewextension"/>
  <property name="kdenlive:docproperties.previewparameters"/>
  <property name="kdenlive:docproperties.profile">/home/redxarch/.local/share/kdenlive/profiles/customprofile0</property>
  <property name="kdenlive:docproperties.proxyextension"/>
  <property name="kdenlive:docproperties.proxyimageminsize">2000</property>
  <property name="kdenlive:docproperties.proxyimagesize">800</property>
  <property name="kdenlive:docproperties.proxyminsize">1000</property>
  <property name="kdenlive:docproperties.proxyparams"/>
  <property name="kdenlive:docproperties.proxyresize">640</property>
  <property name="kdenlive:docproperties.rendercategory">Ultra-High Definition (4K)</property>
  <property name="kdenlive:docproperties.rendercustomquality">-1</property>
  <property name="kdenlive:docproperties.renderendguide">-1</property>
  <property name="kdenlive:docproperties.renderexportaudio">0</property>
  <property name="kdenlive:docproperties.renderfullcolorrange">0</property>
  <property name="kdenlive:docproperties.rendermode">0</property>
  <property name="kdenlive:docproperties.renderplay">0</property>
  <property name="kdenlive:docproperties.renderpreview">0</property>
  <property name="kdenlive:docproperties.renderprofile">SVT-AV1</property>
  <property name="kdenlive:docproperties.renderrescale">0</property>
  <property name="kdenlive:docproperties.renderrescaleheight">540</property>
  <property name="kdenlive:docproperties.renderrescalewidth">960</property>
  <property name="kdenlive:docproperties.renderspeed">1</property>
  <property name="kdenlive:docproperties.renderstartguide">-1</property>
  <property name="kdenlive:docproperties.rendertcoverlay">0</property>
  <property name="kdenlive:docproperties.rendertctype">-1</property>
  <property name="kdenlive:docproperties.rendertwopass">0</property>
  <property name="kdenlive:docproperties.renderurl">/mnt/data1/Anime-Edits/Monster/Monster-Editing/Output/Monster-Edit/Monster_47-50_The_Door_to_Nightmares_1080p_24fps.webm</property>
  <property name="kdenlive:docproperties.seekOffset">7193</property>
  <property name="kdenlive:docproperties.sessionid">{12ba8d55-97b0-49bb-bfe3-60d71bf0f437}</property>
  <property name="kdenlive:docproperties.uuid">{ae036d2a-cf89-443a-8132-d25876d1455e}</property>
  <property name="kdenlive:docproperties.version">1.1</property>
  <property name="kdenlive:expandedFolders"/>
  <property name="kdenlive:binZoom">4</property>
  <property name="kdenlive:extraBins">project_bin:-1:0</property>
  <property name="kdenlive:documentnotes"/>
  <property name="kdenlive:documentnotesversion">2</property>
  <property name="xml_retain">1</property>
  <entry in="00:00:00.000" out="00:23:55.514" producer="chain16"/>
  <entry in="00:00:00.000" out="00:23:55.555" producer="chain14"/>
  <entry in="00:00:00.000" out="00:24:09.593" producer="chain17"/>
  <entry in="00:00:00.000" out="00:23:55.555" producer="chain15"/>
  <entry in="00:00:00.000" out="00:23:54.012" producer="chain18"/>
  <entry in="00:00:00.000" out="00:23:54.012" producer="chain20"/>
  <entry in="00:00:00.000" out="00:23:54.012" producer="chain19"/>
  <entry in="00:00:00.000" out="00:23:54.012" producer="chain21"/>
  <entry in="00:00:00.000" out="00:11:28.070" producer="chain22"/>
  <entry in="00:00:00.000" out="00:14:32.908" producer="chain23"/>
  <entry in="00:00:00.000" out="01:22:58.767" producer="tractor5"/>
 </playlist>
 <tractor id="tractor6" in="00:00:00.000" out="01:22:58.767">
  <property name="kdenlive:projectTractor">1</property>
  <track in="00:00:00.000" out="01:22:58.767" producer="tractor5"/>
 </tractor>
</mlt>
