<?xml version='1.0' encoding='utf-8'?>
<mlt LC_NUMERIC="C" producer="main_bin" version="7.12.0" root="/home/redxherring/Videos/Monster/Monster-Editing/Editing">
 <profile frame_rate_num="24000" sample_aspect_num="1" display_aspect_den="3" colorspace="709" progressive="1" description="1440x1080 23.98fps" display_aspect_num="4" frame_rate_den="1001" width="1440" height="1080" sample_aspect_den="1"/>
 <producer id="producer0" in="00:00:00.000" out="00:23:55.555">
  <property name="length">34419</property>
  <property name="eof">pause</property>
  <property name="resource">/home/redxherring/Videos/Monster/Monster-Editing/Orig/Monster - Chapter 24 - The Men's Dining Table.mkv</property>
  <property name="meta.media.nb_streams">23</property>
  <property name="meta.media.0.stream.type">video</property>
  <property name="meta.media.0.stream.frame_rate">23.976</property>
  <property name="meta.media.0.stream.sample_aspect_ratio">1</property>
  <property name="meta.media.0.codec.width">1440</property>
  <property name="meta.media.0.codec.height">1080</property>
  <property name="meta.media.0.codec.rotate">0</property>
  <property name="meta.media.0.codec.pix_fmt">yuv420p10le</property>
  <property name="meta.media.0.codec.sample_aspect_ratio">1</property>
  <property name="meta.media.0.codec.colorspace">709</property>
  <property name="meta.media.0.codec.color_trc">1</property>
  <property name="meta.media.0.codec.name">hevc</property>
  <property name="meta.media.0.codec.long_name">HEVC (High Efficiency Video Coding)</property>
  <property name="meta.media.0.codec.bit_rate">0</property>
  <property name="meta.attr.0.stream.BPS-eng.markup">2264264</property>
  <property name="meta.attr.0.stream.DURATION-eng.markup">00:23:55.518000000</property>
  <property name="meta.attr.0.stream.NUMBER_OF_FRAMES-eng.markup">34418</property>
  <property name="meta.attr.0.stream.NUMBER_OF_BYTES-eng.markup">406298969</property>
  <property name="meta.attr.0.stream._STATISTICS_WRITING_APP-eng.markup">mkvmerge v52.0.0 ('Secret For The Mad') 64-bit</property>
  <property name="meta.attr.0.stream._STATISTICS_WRITING_DATE_UTC-eng.markup">2022-11-15 18:38:51</property>
  <property name="meta.attr.0.stream._STATISTICS_TAGS-eng.markup">BPS DURATION NUMBER_OF_FRAMES NUMBER_OF_BYTES</property>
  <property name="meta.media.1.stream.type">audio</property>
  <property name="meta.media.1.codec.sample_fmt">fltp</property>
  <property name="meta.media.1.codec.sample_rate">48000</property>
  <property name="meta.media.1.codec.channels">2</property>
  <property name="meta.media.1.codec.name">ac3</property>
  <property name="meta.media.1.codec.long_name">ATSC A/52A (AC-3)</property>
  <property name="meta.media.1.codec.bit_rate">448000</property>
  <property name="meta.attr.1.stream.language.markup">jpn</property>
  <property name="meta.attr.1.stream.title.markup">Japanese DVD AC-3 DD_2.0</property>
  <property name="meta.attr.1.stream.BPS-eng.markup">448000</property>
  <property name="meta.attr.1.stream.DURATION-eng.markup">00:23:55.552000000</property>
  <property name="meta.attr.1.stream.NUMBER_OF_FRAMES-eng.markup">44861</property>
  <property name="meta.attr.1.stream.NUMBER_OF_BYTES-eng.markup">80390912</property>
  <property name="meta.attr.1.stream._STATISTICS_WRITING_APP-eng.markup">mkvmerge v52.0.0 ('Secret For The Mad') 64-bit</property>
  <property name="meta.attr.1.stream._STATISTICS_WRITING_DATE_UTC-eng.markup">2022-11-15 18:38:51</property>
  <property name="meta.attr.1.stream._STATISTICS_TAGS-eng.markup">BPS DURATION NUMBER_OF_FRAMES NUMBER_OF_BYTES</property>
  <property name="meta.media.2.stream.type">audio</property>
  <property name="meta.media.2.codec.sample_fmt">fltp</property>
  <property name="meta.media.2.codec.sample_rate">44100</property>
  <property name="meta.media.2.codec.channels">2</property>
  <property name="meta.media.2.codec.name">aac</property>
  <property name="meta.media.2.codec.long_name">AAC (Advanced Audio Coding)</property>
  <property name="meta.media.2.codec.bit_rate">0</property>
  <property name="meta.attr.2.stream.language.markup">eng</property>
  <property name="meta.attr.2.stream.title.markup">English AAC DD_2.0</property>
  <property name="meta.attr.2.stream.BPS-eng.markup">143361</property>
  <property name="meta.attr.2.stream.DURATION-eng.markup">00:23:55.295000000</property>
  <property name="meta.attr.2.stream.NUMBER_OF_FRAMES-eng.markup">61813</property>
  <property name="meta.attr.2.stream.NUMBER_OF_BYTES-eng.markup">25720725</property>
  <property name="meta.attr.2.stream._STATISTICS_WRITING_APP-eng.markup">mkvmerge v52.0.0 ('Secret For The Mad') 64-bit</property>
  <property name="meta.attr.2.stream._STATISTICS_WRITING_DATE_UTC-eng.markup">2022-11-15 18:38:51</property>
  <property name="meta.attr.2.stream._STATISTICS_TAGS-eng.markup">BPS DURATION NUMBER_OF_FRAMES NUMBER_OF_BYTES</property>
  <property name="meta.media.3.codec.name">ssa</property>
  <property name="meta.media.3.codec.long_name">ASS (Advanced SubStation Alpha) subtitle</property>
  <property name="meta.media.3.codec.bit_rate">0</property>
  <property name="meta.attr.3.stream.language.markup">eng</property>
  <property name="meta.attr.3.stream.title.markup">English (Full) ASS</property>
  <property name="meta.attr.3.stream.BPS-eng.markup">82</property>
  <property name="meta.attr.3.stream.DURATION-eng.markup">00:23:29.030000000</property>
  <property name="meta.attr.3.stream.NUMBER_OF_FRAMES-eng.markup">255</property>
  <property name="meta.attr.3.stream.NUMBER_OF_BYTES-eng.markup">14474</property>
  <property name="meta.attr.3.stream._STATISTICS_WRITING_APP-eng.markup">mkvmerge v52.0.0 ('Secret For The Mad') 64-bit</property>
  <property name="meta.attr.3.stream._STATISTICS_WRITING_DATE_UTC-eng.markup">2022-11-15 18:38:51</property>
  <property name="meta.attr.3.stream._STATISTICS_TAGS-eng.markup">BPS DURATION NUMBER_OF_FRAMES NUMBER_OF_BYTES</property>
  <property name="meta.media.4.codec.name">ssa</property>
  <property name="meta.media.4.codec.long_name">ASS (Advanced SubStation Alpha) subtitle</property>
  <property name="meta.media.4.codec.bit_rate">0</property>
  <property name="meta.attr.4.stream.language.markup">eng</property>
  <property name="meta.attr.4.stream.title.markup">English (Titles &amp; Signs) ASS</property>
  <property name="meta.attr.4.stream.BPS-eng.markup">0</property>
  <property name="meta.attr.4.stream.DURATION-eng.markup">00:19:16.680000000</property>
  <property name="meta.attr.4.stream.NUMBER_OF_FRAMES-eng.markup">2</property>
  <property name="meta.attr.4.stream.NUMBER_OF_BYTES-eng.markup">138</property>
  <property name="meta.attr.4.stream._STATISTICS_WRITING_APP-eng.markup">mkvmerge v52.0.0 ('Secret For The Mad') 64-bit</property>
  <property name="meta.attr.4.stream._STATISTICS_WRITING_DATE_UTC-eng.markup">2022-11-15 18:38:51</property>
  <property name="meta.attr.4.stream._STATISTICS_TAGS-eng.markup">BPS DURATION NUMBER_OF_FRAMES NUMBER_OF_BYTES</property>
  <property name="meta.media.5.codec.name">ssa</property>
  <property name="meta.media.5.codec.long_name">ASS (Advanced SubStation Alpha) subtitle</property>
  <property name="meta.media.5.codec.bit_rate">0</property>
  <property name="meta.attr.5.stream.language.markup">ara</property>
  <property name="meta.attr.5.stream.title.markup">Arabic</property>
  <property name="meta.attr.5.stream.BPS-eng.markup">103</property>
  <property name="meta.attr.5.stream.DURATION-eng.markup">00:21:29.040000000</property>
  <property name="meta.attr.5.stream.NUMBER_OF_FRAMES-eng.markup">261</property>
  <property name="meta.attr.5.stream.NUMBER_OF_BYTES-eng.markup">16691</property>
  <property name="meta.attr.5.stream._STATISTICS_WRITING_APP-eng.markup">mkvmerge v52.0.0 ('Secret For The Mad') 64-bit</property>
  <property name="meta.attr.5.stream._STATISTICS_WRITING_DATE_UTC-eng.markup">2022-11-15 18:38:51</property>
  <property name="meta.attr.5.stream._STATISTICS_TAGS-eng.markup">BPS DURATION NUMBER_OF_FRAMES NUMBER_OF_BYTES</property>
  <property name="meta.attr.title.markup">Monster : Chapter 24 : The Men's Dining Table</property>
  <property name="meta.attr.encoder.markup">libebml v1.4.1 + libmatroska v1.6.2</property>
  <property name="meta.attr.creation_time.markup">2022-11-15T18:38:51.000000Z</property>
  <property name="seekable">1</property>
  <property name="meta.media.sample_aspect_num">1</property>
  <property name="meta.media.sample_aspect_den">1</property>
  <property name="aspect_ratio">1</property>
  <property name="format">3</property>
  <property name="audio_index">1</property>
  <property name="video_index">0</property>
  <property name="mute_on_pause">0</property>
  <property name="mlt_service">avformat</property>
  <property name="kdenlive:clipname"/>
  <property name="kdenlive:clip_type">0</property>
  <property name="kdenlive:folderid">-1</property>
  <property name="kdenlive:id">3</property>
  <property name="kdenlive:active_streams">1;2</property>
  <property name="kdenlive:file_size">515321586</property>
  <property name="kdenlive:file_hash">8851cb19fb2267bf036c67668831149c</property>
  <property name="kdenlive:audio_max1">189</property>
  <property name="meta.media.frame_rate_num">24000</property>
  <property name="meta.media.frame_rate_den">1001</property>
  <property name="meta.media.colorspace">709</property>
  <property name="meta.media.color_trc">1</property>
  <property name="meta.media.has_b_frames">2</property>
  <property name="meta.media.width">1440</property>
  <property name="meta.media.height">1080</property>
  <property name="meta.media.color_range">mpeg</property>
  <property name="meta.media.top_field_first">0</property>
  <property name="meta.media.progressive">1</property>
 </producer>
 <producer id="producer1" in="00:00:00.000" out="00:24:09.593">
  <property name="length">34756</property>
  <property name="eof">pause</property>
  <property name="resource">/home/redxherring/Videos/Monster/Monster-Editing/Orig/Monster - Chapter 23 - Eva's Confession.mkv</property>
  <property name="meta.media.nb_streams">44</property>
  <property name="meta.media.0.stream.type">video</property>
  <property name="meta.media.0.stream.frame_rate">23.976</property>
  <property name="meta.media.0.stream.sample_aspect_ratio">1</property>
  <property name="meta.media.0.codec.width">1440</property>
  <property name="meta.media.0.codec.height">1080</property>
  <property name="meta.media.0.codec.rotate">0</property>
  <property name="meta.media.0.codec.pix_fmt">yuv420p10le</property>
  <property name="meta.media.0.codec.sample_aspect_ratio">1</property>
  <property name="meta.media.0.codec.colorspace">709</property>
  <property name="meta.media.0.codec.color_trc">1</property>
  <property name="meta.media.0.codec.name">hevc</property>
  <property name="meta.media.0.codec.long_name">HEVC (High Efficiency Video Coding)</property>
  <property name="meta.media.0.codec.bit_rate">0</property>
  <property name="meta.attr.0.stream.BPS-eng.markup">2108560</property>
  <property name="meta.attr.0.stream.DURATION-eng.markup">00:24:09.615000000</property>
  <property name="meta.attr.0.stream.NUMBER_OF_FRAMES-eng.markup">34756</property>
  <property name="meta.attr.0.stream.NUMBER_OF_BYTES-eng.markup">382075037</property>
  <property name="meta.attr.0.stream._STATISTICS_WRITING_APP-eng.markup">mkvmerge v52.0.0 ('Secret For The Mad') 64-bit</property>
  <property name="meta.attr.0.stream._STATISTICS_WRITING_DATE_UTC-eng.markup">2022-11-10 08:26:59</property>
  <property name="meta.attr.0.stream._STATISTICS_TAGS-eng.markup">BPS DURATION NUMBER_OF_FRAMES NUMBER_OF_BYTES</property>
  <property name="meta.media.1.stream.type">audio</property>
  <property name="meta.media.1.codec.sample_fmt">fltp</property>
  <property name="meta.media.1.codec.sample_rate">48000</property>
  <property name="meta.media.1.codec.channels">2</property>
  <property name="meta.media.1.codec.name">ac3</property>
  <property name="meta.media.1.codec.long_name">ATSC A/52A (AC-3)</property>
  <property name="meta.media.1.codec.bit_rate">448000</property>
  <property name="meta.attr.1.stream.language.markup">jpn</property>
  <property name="meta.attr.1.stream.title.markup">Japanese DVD AC-3 DD_2.0</property>
  <property name="meta.attr.1.stream.BPS-eng.markup">448000</property>
  <property name="meta.attr.1.stream.DURATION-eng.markup">00:24:09.536000000</property>
  <property name="meta.attr.1.stream.NUMBER_OF_FRAMES-eng.markup">45298</property>
  <property name="meta.attr.1.stream.NUMBER_OF_BYTES-eng.markup">81174016</property>
  <property name="meta.attr.1.stream._STATISTICS_WRITING_APP-eng.markup">mkvmerge v52.0.0 ('Secret For The Mad') 64-bit</property>
  <property name="meta.attr.1.stream._STATISTICS_WRITING_DATE_UTC-eng.markup">2022-11-10 08:26:59</property>
  <property name="meta.attr.1.stream._STATISTICS_TAGS-eng.markup">BPS DURATION NUMBER_OF_FRAMES NUMBER_OF_BYTES</property>
  <property name="meta.media.2.stream.type">audio</property>
  <property name="meta.media.2.codec.sample_fmt">fltp</property>
  <property name="meta.media.2.codec.sample_rate">44100</property>
  <property name="meta.media.2.codec.channels">2</property>
  <property name="meta.media.2.codec.name">aac</property>
  <property name="meta.media.2.codec.long_name">AAC (Advanced Audio Coding)</property>
  <property name="meta.media.2.codec.bit_rate">0</property>
  <property name="meta.attr.2.stream.language.markup">eng</property>
  <property name="meta.attr.2.stream.title.markup">English AAC DD_2.0</property>
  <property name="meta.attr.2.stream.BPS-eng.markup">146545</property>
  <property name="meta.attr.2.stream.DURATION-eng.markup">00:23:54.831000000</property>
  <property name="meta.attr.2.stream.NUMBER_OF_FRAMES-eng.markup">61793</property>
  <property name="meta.attr.2.stream.NUMBER_OF_BYTES-eng.markup">26283445</property>
  <property name="meta.attr.2.stream._STATISTICS_WRITING_APP-eng.markup">mkvmerge v52.0.0 ('Secret For The Mad') 64-bit</property>
  <property name="meta.attr.2.stream._STATISTICS_WRITING_DATE_UTC-eng.markup">2022-11-10 08:26:59</property>
  <property name="meta.attr.2.stream._STATISTICS_TAGS-eng.markup">BPS DURATION NUMBER_OF_FRAMES NUMBER_OF_BYTES</property>
  <property name="meta.media.3.codec.name">ssa</property>
  <property name="meta.media.3.codec.long_name">ASS (Advanced SubStation Alpha) subtitle</property>
  <property name="meta.media.3.codec.bit_rate">0</property>
  <property name="meta.attr.3.stream.language.markup">eng</property>
  <property name="meta.attr.3.stream.title.markup">English (Full) ASS</property>
  <property name="meta.attr.3.stream.BPS-eng.markup">74</property>
  <property name="meta.attr.3.stream.DURATION-eng.markup">00:23:48.320000000</property>
  <property name="meta.attr.3.stream.NUMBER_OF_FRAMES-eng.markup">257</property>
  <property name="meta.attr.3.stream.NUMBER_OF_BYTES-eng.markup">13298</property>
  <property name="meta.attr.3.stream._STATISTICS_WRITING_APP-eng.markup">mkvmerge v52.0.0 ('Secret For The Mad') 64-bit</property>
  <property name="meta.attr.3.stream._STATISTICS_WRITING_DATE_UTC-eng.markup">2022-11-10 08:26:59</property>
  <property name="meta.attr.3.stream._STATISTICS_TAGS-eng.markup">BPS DURATION NUMBER_OF_FRAMES NUMBER_OF_BYTES</property>
  <property name="meta.media.4.codec.name">ssa</property>
  <property name="meta.media.4.codec.long_name">ASS (Advanced SubStation Alpha) subtitle</property>
  <property name="meta.media.4.codec.bit_rate">0</property>
  <property name="meta.attr.4.stream.language.markup">eng</property>
  <property name="meta.attr.4.stream.title.markup">English (Titles &amp; Signs) ASS</property>
  <property name="meta.attr.4.stream.BPS-eng.markup">1</property>
  <property name="meta.attr.4.stream.DURATION-eng.markup">00:21:23.490000000</property>
  <property name="meta.attr.4.stream.NUMBER_OF_FRAMES-eng.markup">3</property>
  <property name="meta.attr.4.stream.NUMBER_OF_BYTES-eng.markup">190</property>
  <property name="meta.attr.4.stream._STATISTICS_WRITING_APP-eng.markup">mkvmerge v52.0.0 ('Secret For The Mad') 64-bit</property>
  <property name="meta.attr.4.stream._STATISTICS_WRITING_DATE_UTC-eng.markup">2022-11-10 08:26:59</property>
  <property name="meta.attr.4.stream._STATISTICS_TAGS-eng.markup">BPS DURATION NUMBER_OF_FRAMES NUMBER_OF_BYTES</property>
  <property name="meta.media.5.codec.name">ssa</property>
  <property name="meta.media.5.codec.long_name">ASS (Advanced SubStation Alpha) subtitle</property>
  <property name="meta.media.5.codec.bit_rate">0</property>
  <property name="meta.attr.5.stream.language.markup">ara</property>
  <property name="meta.attr.5.stream.title.markup">Arabic</property>
  <property name="meta.attr.5.stream.BPS-eng.markup">101</property>
  <property name="meta.attr.5.stream.DURATION-eng.markup">00:22:09.320000000</property>
  <property name="meta.attr.5.stream.NUMBER_OF_FRAMES-eng.markup">280</property>
  <property name="meta.attr.5.stream.NUMBER_OF_BYTES-eng.markup">16903</property>
  <property name="meta.attr.5.stream._STATISTICS_WRITING_APP-eng.markup">mkvmerge v52.0.0 ('Secret For The Mad') 64-bit</property>
  <property name="meta.attr.5.stream._STATISTICS_WRITING_DATE_UTC-eng.markup">2022-11-10 08:26:59</property>
  <property name="meta.attr.5.stream._STATISTICS_TAGS-eng.markup">BPS DURATION NUMBER_OF_FRAMES NUMBER_OF_BYTES</property>
  <property name="meta.media.6.stream.type">video</property>
  <property name="meta.media.6.stream.frame_rate">23.976</property>
  <property name="meta.media.6.stream.sample_aspect_ratio">1</property>
  <property name="meta.media.6.codec.width">1440</property>
  <property name="meta.media.6.codec.height">1080</property>
  <property name="meta.media.6.codec.rotate">0</property>
  <property name="meta.media.6.codec.pix_fmt">yuv420p10le</property>
  <property name="meta.media.6.codec.sample_aspect_ratio">1</property>
  <property name="meta.media.6.codec.colorspace">709</property>
  <property name="meta.media.6.codec.color_trc">1</property>
  <property name="meta.media.6.codec.name">hevc</property>
  <property name="meta.media.6.codec.long_name">HEVC (High Efficiency Video Coding)</property>
  <property name="meta.media.6.codec.bit_rate">0</property>
  <property name="meta.attr.6.stream.BPS-eng.markup">2108560</property>
  <property name="meta.attr.6.stream.DURATION-eng.markup">00:24:09.615000000</property>
  <property name="meta.attr.6.stream.NUMBER_OF_FRAMES-eng.markup">34756</property>
  <property name="meta.attr.6.stream.NUMBER_OF_BYTES-eng.markup">382075037</property>
  <property name="meta.attr.6.stream._STATISTICS_WRITING_APP-eng.markup">mkvmerge v52.0.0 ('Secret For The Mad') 64-bit</property>
  <property name="meta.attr.6.stream._STATISTICS_WRITING_DATE_UTC-eng.markup">2022-11-10 08:26:59</property>
  <property name="meta.attr.6.stream._STATISTICS_TAGS-eng.markup">BPS DURATION NUMBER_OF_FRAMES NUMBER_OF_BYTES</property>
  <property name="meta.media.7.stream.type">audio</property>
  <property name="meta.media.7.codec.sample_fmt">fltp</property>
  <property name="meta.media.7.codec.sample_rate">48000</property>
  <property name="meta.media.7.codec.channels">2</property>
  <property name="meta.media.7.codec.name">ac3</property>
  <property name="meta.media.7.codec.long_name">ATSC A/52A (AC-3)</property>
  <property name="meta.media.7.codec.bit_rate">0</property>
  <property name="meta.attr.7.stream.language.markup">jpn</property>
  <property name="meta.attr.7.stream.title.markup">Japanese DVD AC-3 DD_2.0</property>
  <property name="meta.attr.7.stream.BPS-eng.markup">448000</property>
  <property name="meta.attr.7.stream.DURATION-eng.markup">00:24:09.536000000</property>
  <property name="meta.attr.7.stream.NUMBER_OF_FRAMES-eng.markup">45298</property>
  <property name="meta.attr.7.stream.NUMBER_OF_BYTES-eng.markup">81174016</property>
  <property name="meta.attr.7.stream._STATISTICS_WRITING_APP-eng.markup">mkvmerge v52.0.0 ('Secret For The Mad') 64-bit</property>
  <property name="meta.attr.7.stream._STATISTICS_WRITING_DATE_UTC-eng.markup">2022-11-10 08:26:59</property>
  <property name="meta.attr.7.stream._STATISTICS_TAGS-eng.markup">BPS DURATION NUMBER_OF_FRAMES NUMBER_OF_BYTES</property>
  <property name="meta.media.8.stream.type">audio</property>
  <property name="meta.media.8.codec.sample_fmt">fltp</property>
  <property name="meta.media.8.codec.sample_rate">44100</property>
  <property name="meta.media.8.codec.channels">2</property>
  <property name="meta.media.8.codec.name">aac</property>
  <property name="meta.media.8.codec.long_name">AAC (Advanced Audio Coding)</property>
  <property name="meta.media.8.codec.bit_rate">0</property>
  <property name="meta.attr.8.stream.language.markup">eng</property>
  <property name="meta.attr.8.stream.title.markup">English AAC DD_2.0</property>
  <property name="meta.attr.8.stream.BPS-eng.markup">146545</property>
  <property name="meta.attr.8.stream.DURATION-eng.markup">00:23:54.831000000</property>
  <property name="meta.attr.8.stream.NUMBER_OF_FRAMES-eng.markup">61793</property>
  <property name="meta.attr.8.stream.NUMBER_OF_BYTES-eng.markup">26283445</property>
  <property name="meta.attr.8.stream._STATISTICS_WRITING_APP-eng.markup">mkvmerge v52.0.0 ('Secret For The Mad') 64-bit</property>
  <property name="meta.attr.8.stream._STATISTICS_WRITING_DATE_UTC-eng.markup">2022-11-10 08:26:59</property>
  <property name="meta.attr.8.stream._STATISTICS_TAGS-eng.markup">BPS DURATION NUMBER_OF_FRAMES NUMBER_OF_BYTES</property>
  <property name="meta.media.9.codec.name">ssa</property>
  <property name="meta.media.9.codec.long_name">ASS (Advanced SubStation Alpha) subtitle</property>
  <property name="meta.media.9.codec.bit_rate">0</property>
  <property name="meta.attr.9.stream.language.markup">eng</property>
  <property name="meta.attr.9.stream.title.markup">English (Full) ASS</property>
  <property name="meta.attr.9.stream.BPS-eng.markup">74</property>
  <property name="meta.attr.9.stream.DURATION-eng.markup">00:23:48.320000000</property>
  <property name="meta.attr.9.stream.NUMBER_OF_FRAMES-eng.markup">257</property>
  <property name="meta.attr.9.stream.NUMBER_OF_BYTES-eng.markup">13298</property>
  <property name="meta.attr.9.stream._STATISTICS_WRITING_APP-eng.markup">mkvmerge v52.0.0 ('Secret For The Mad') 64-bit</property>
  <property name="meta.attr.9.stream._STATISTICS_WRITING_DATE_UTC-eng.markup">2022-11-10 08:26:59</property>
  <property name="meta.attr.9.stream._STATISTICS_TAGS-eng.markup">BPS DURATION NUMBER_OF_FRAMES NUMBER_OF_BYTES</property>
  <property name="meta.media.10.codec.name">ssa</property>
  <property name="meta.media.10.codec.long_name">ASS (Advanced SubStation Alpha) subtitle</property>
  <property name="meta.media.10.codec.bit_rate">0</property>
  <property name="meta.attr.10.stream.language.markup">eng</property>
  <property name="meta.attr.10.stream.title.markup">English (Titles &amp; Signs) ASS</property>
  <property name="meta.attr.10.stream.BPS-eng.markup">1</property>
  <property name="meta.attr.10.stream.DURATION-eng.markup">00:21:23.490000000</property>
  <property name="meta.attr.10.stream.NUMBER_OF_FRAMES-eng.markup">3</property>
  <property name="meta.attr.10.stream.NUMBER_OF_BYTES-eng.markup">190</property>
  <property name="meta.attr.10.stream._STATISTICS_WRITING_APP-eng.markup">mkvmerge v52.0.0 ('Secret For The Mad') 64-bit</property>
  <property name="meta.attr.10.stream._STATISTICS_WRITING_DATE_UTC-eng.markup">2022-11-10 08:26:59</property>
  <property name="meta.attr.10.stream._STATISTICS_TAGS-eng.markup">BPS DURATION NUMBER_OF_FRAMES NUMBER_OF_BYTES</property>
  <property name="meta.media.11.codec.name">ssa</property>
  <property name="meta.media.11.codec.long_name">ASS (Advanced SubStation Alpha) subtitle</property>
  <property name="meta.media.11.codec.bit_rate">0</property>
  <property name="meta.attr.11.stream.language.markup">ara</property>
  <property name="meta.attr.11.stream.title.markup">Arabic</property>
  <property name="meta.attr.11.stream.BPS-eng.markup">101</property>
  <property name="meta.attr.11.stream.DURATION-eng.markup">00:22:09.320000000</property>
  <property name="meta.attr.11.stream.NUMBER_OF_FRAMES-eng.markup">280</property>
  <property name="meta.attr.11.stream.NUMBER_OF_BYTES-eng.markup">16903</property>
  <property name="meta.attr.11.stream._STATISTICS_WRITING_APP-eng.markup">mkvmerge v52.0.0 ('Secret For The Mad') 64-bit</property>
  <property name="meta.attr.11.stream._STATISTICS_WRITING_DATE_UTC-eng.markup">2022-11-10 08:26:59</property>
  <property name="meta.attr.11.stream._STATISTICS_TAGS-eng.markup">BPS DURATION NUMBER_OF_FRAMES NUMBER_OF_BYTES</property>
  <property name="meta.attr.title.markup">Monster : Chapter 23 : Eva's Confession</property>
  <property name="meta.attr.encoder.markup">libebml v1.4.1 + libmatroska v1.6.2</property>
  <property name="meta.attr.creation_time.markup">2022-11-10T08:26:59.000000Z</property>
  <property name="seekable">1</property>
  <property name="meta.media.sample_aspect_num">1</property>
  <property name="meta.media.sample_aspect_den">1</property>
  <property name="aspect_ratio">1</property>
  <property name="format">3</property>
  <property name="audio_index">1</property>
  <property name="video_index">0</property>
  <property name="mute_on_pause">0</property>
  <property name="mlt_service">avformat-novalidate</property>
  <property name="kdenlive:clipname"/>
  <property name="meta.media.frame_rate_num">24000</property>
  <property name="meta.media.frame_rate_den">1001</property>
  <property name="meta.media.colorspace">709</property>
  <property name="meta.media.color_trc">1</property>
  <property name="meta.media.has_b_frames">2</property>
  <property name="meta.media.width">1440</property>
  <property name="meta.media.height">1080</property>
  <property name="meta.media.color_range">mpeg</property>
  <property name="meta.media.top_field_first">0</property>
  <property name="meta.media.progressive">1</property>
  <property name="kdenlive:clip_type">0</property>
  <property name="kdenlive:folderid">-1</property>
  <property name="kdenlive:id">2</property>
  <property name="kdenlive:active_streams">1;2;7;8</property>
  <property name="kdenlive:multistreams">1</property>
  <property name="kdenlive:file_size">894702572</property>
  <property name="kdenlive:file_hash">2e2c2aa2be08a3a2e1464704d5b35a7c</property>
  <property name="kdenlive:audio_max1">173</property>
  <property name="kdenlive:audio_max2">208</property>
  <property name="kdenlive:audio_max7">1</property>
  <property name="kdenlive:audio_max8">1</property>
 </producer>
 <producer id="producer2" in="00:00:00.000" out="00:23:54.846">
  <property name="length">34402</property>
  <property name="eof">pause</property>
  <property name="resource">/home/redxherring/Videos/Monster/Monster-Editing/WAV/Monster - Chapter 23 - Eva's ConfessionLR.wav</property>
  <property name="meta.media.nb_streams">1</property>
  <property name="meta.media.0.stream.type">audio</property>
  <property name="meta.media.0.codec.sample_fmt">s16</property>
  <property name="meta.media.0.codec.sample_rate">44100</property>
  <property name="meta.media.0.codec.channels">2</property>
  <property name="meta.media.0.codec.name">pcm_s16le</property>
  <property name="meta.media.0.codec.long_name">PCM signed 16-bit little-endian</property>
  <property name="meta.media.0.codec.bit_rate">1411200</property>
  <property name="meta.attr.title.markup">Monster : Chapter 23 : Eva's Confession</property>
  <property name="meta.attr.encoder.markup">Lavf59.27.100</property>
  <property name="seekable">1</property>
  <property name="audio_index">0</property>
  <property name="video_index">-1</property>
  <property name="mute_on_pause">1</property>
  <property name="mlt_service">avformat</property>
  <property name="kdenlive:clipname"/>
  <property name="kdenlive:clip_type">1</property>
  <property name="kdenlive:folderid">-1</property>
  <property name="kdenlive:id">4</property>
  <property name="kdenlive:file_size">253104254</property>
  <property name="kdenlive:file_hash">47988474c2d795924980a7ae31fe769e</property>
  <property name="kdenlive:audio_max0">189</property>
 </producer>
 <producer id="producer3" in="00:00:00.000" out="00:23:55.305">
  <property name="length">34413</property>
  <property name="eof">pause</property>
  <property name="resource">/home/redxherring/Videos/Monster/Monster-Editing/WAV/Monster - Chapter 24 - The Men's Dining TableLR.wav</property>
  <property name="meta.media.nb_streams">1</property>
  <property name="meta.media.0.stream.type">audio</property>
  <property name="meta.media.0.codec.sample_fmt">s16</property>
  <property name="meta.media.0.codec.sample_rate">44100</property>
  <property name="meta.media.0.codec.channels">2</property>
  <property name="meta.media.0.codec.name">pcm_s16le</property>
  <property name="meta.media.0.codec.long_name">PCM signed 16-bit little-endian</property>
  <property name="meta.media.0.codec.bit_rate">1411200</property>
  <property name="meta.attr.title.markup">Monster : Chapter 24 : The Men's Dining Table</property>
  <property name="meta.attr.encoder.markup">Lavf59.27.100</property>
  <property name="seekable">1</property>
  <property name="audio_index">0</property>
  <property name="video_index">-1</property>
  <property name="mute_on_pause">1</property>
  <property name="mlt_service">avformat</property>
  <property name="kdenlive:clipname"/>
  <property name="kdenlive:clip_type">1</property>
  <property name="kdenlive:folderid">-1</property>
  <property name="kdenlive:id">5</property>
  <property name="kdenlive:file_size">253186180</property>
  <property name="kdenlive:file_hash">e16923bf82be650a002dc2a3796f9362</property>
  <property name="kdenlive:audio_max0">179</property>
 </producer>
 <playlist id="main_bin">
  <property name="kdenlive:docproperties.activeTrack">3</property>
  <property name="kdenlive:docproperties.audioChannels">2</property>
  <property name="kdenlive:docproperties.audioTarget">1</property>
  <property name="kdenlive:docproperties.compositing">1</property>
  <property name="kdenlive:docproperties.disablepreview">0</property>
  <property name="kdenlive:docproperties.documentid">1668918559082</property>
  <property name="kdenlive:docproperties.enableTimelineZone">0</property>
  <property name="kdenlive:docproperties.enableexternalproxy">0</property>
  <property name="kdenlive:docproperties.enableproxy">0</property>
  <property name="kdenlive:docproperties.externalproxyparams"/>
  <property name="kdenlive:docproperties.generateimageproxy">0</property>
  <property name="kdenlive:docproperties.generateproxy">0</property>
  <property name="kdenlive:docproperties.groups">[
    {
        "children": [
            {
                "data": "1:45203",
                "leaf": "clip",
                "type": "Leaf"
            },
            {
                "data": "2:45203",
                "leaf": "clip",
                "type": "Leaf"
            }
        ],
        "type": "Normal"
    },
    {
        "children": [
            {
                "data": "-2:3599",
                "leaf": "subtitle",
                "type": "Leaf"
            },
            {
                "children": [
                    {
                        "data": "1:0",
                        "leaf": "clip",
                        "type": "Leaf"
                    },
                    {
                        "data": "2:0",
                        "leaf": "clip",
                        "type": "Leaf"
                    }
                ],
                "type": "Normal"
            }
        ],
        "type": "Normal"
    },
    {
        "children": [
            {
                "data": "3:31226",
                "leaf": "clip",
                "type": "Leaf"
            },
            {
                "data": "1:31045",
                "leaf": "clip",
                "type": "Leaf"
            },
            {
                "data": "1:30820",
                "leaf": "clip",
                "type": "Leaf"
            },
            {
                "data": "1:30595",
                "leaf": "clip",
                "type": "Leaf"
            }
        ],
        "type": "Normal"
    },
    {
        "children": [
            {
                "data": "2:45165",
                "leaf": "clip",
                "type": "Leaf"
            },
            {
                "data": "0:45156",
                "leaf": "clip",
                "type": "Leaf"
            }
        ],
        "type": "Normal"
    },
    {
        "children": [
            {
                "data": "-2:18033",
                "leaf": "subtitle",
                "type": "Leaf"
            },
            {
                "children": [
                    {
                        "data": "3:17994",
                        "leaf": "clip",
                        "type": "Leaf"
                    },
                    {
                        "data": "0:17994",
                        "leaf": "clip",
                        "type": "Leaf"
                    }
                ],
                "type": "Normal"
            }
        ],
        "type": "Normal"
    },
    {
        "children": [
            {
                "data": "0:48240",
                "leaf": "clip",
                "type": "Leaf"
            },
            {
                "data": "2:48242",
                "leaf": "clip",
                "type": "Leaf"
            }
        ],
        "type": "Normal"
    },
    {
        "children": [
            {
                "data": "1:48270",
                "leaf": "clip",
                "type": "Leaf"
            },
            {
                "data": "2:48272",
                "leaf": "clip",
                "type": "Leaf"
            }
        ],
        "type": "Normal"
    },
    {
        "children": [
            {
                "data": "-2:34768",
                "leaf": "subtitle",
                "type": "Leaf"
            },
            {
                "children": [
                    {
                        "data": "1:31270",
                        "leaf": "clip",
                        "type": "Leaf"
                    },
                    {
                        "data": "2:31358",
                        "leaf": "clip",
                        "type": "Leaf"
                    }
                ],
                "type": "Normal"
            }
        ],
        "type": "Normal"
    }
]
</property>
  <property name="kdenlive:docproperties.kdenliveversion">22.08.3</property>
  <property name="kdenlive:docproperties.position">45256</property>
  <property name="kdenlive:docproperties.previewextension"/>
  <property name="kdenlive:docproperties.previewparameters"/>
  <property name="kdenlive:docproperties.profile">/home/redxherring/.local/share/kdenlive/profiles/customprofile2</property>
  <property name="kdenlive:docproperties.proxyextension"/>
  <property name="kdenlive:docproperties.proxyimageminsize">2000</property>
  <property name="kdenlive:docproperties.proxyimagesize">800</property>
  <property name="kdenlive:docproperties.proxyminsize">1000</property>
  <property name="kdenlive:docproperties.proxyparams"/>
  <property name="kdenlive:docproperties.proxyresize">640</property>
  <property name="kdenlive:docproperties.rendercategory">Ultra-High Definition (4K)</property>
  <property name="kdenlive:docproperties.rendercustomquality">100</property>
  <property name="kdenlive:docproperties.renderendguide">-1</property>
  <property name="kdenlive:docproperties.renderexportaudio">0</property>
  <property name="kdenlive:docproperties.rendermode">0</property>
  <property name="kdenlive:docproperties.renderplay">0</property>
  <property name="kdenlive:docproperties.renderpreview">0</property>
  <property name="kdenlive:docproperties.renderprofile">MP4-H265 (HEVC)</property>
  <property name="kdenlive:docproperties.renderratio">0</property>
  <property name="kdenlive:docproperties.renderrescale">0</property>
  <property name="kdenlive:docproperties.renderrescaleheight">1</property>
  <property name="kdenlive:docproperties.renderrescalewidth">720</property>
  <property name="kdenlive:docproperties.renderspeed">6</property>
  <property name="kdenlive:docproperties.renderstartguide">-1</property>
  <property name="kdenlive:docproperties.rendertcoverlay">0</property>
  <property name="kdenlive:docproperties.rendertctype">-1</property>
  <property name="kdenlive:docproperties.rendertwopass">0</property>
  <property name="kdenlive:docproperties.renderurl">/home/redxherring/Videos/Monster/Monster-Editing/Output/Monster_23-24_Eva's_Confession_1080p_24fps.mp4</property>
  <property name="kdenlive:docproperties.scrollPos">3140</property>
  <property name="kdenlive:docproperties.seekOffset">30000</property>
  <property name="kdenlive:docproperties.version">1.04</property>
  <property name="kdenlive:docproperties.verticalzoom">1</property>
  <property name="kdenlive:docproperties.videoTarget">-1</property>
  <property name="kdenlive:docproperties.zonein">0</property>
  <property name="kdenlive:docproperties.zoneout">75</property>
  <property name="kdenlive:docproperties.zoom">13</property>
  <property name="kdenlive:expandedFolders"/>
  <property name="kdenlive:documentnotes">&lt;!DOCTYPE HTML PUBLIC "-//W3C//DTD HTML 4.0//EN" "http://www.w3.org/TR/REC-html40/strict.dtd">
&lt;html>&lt;head>&lt;meta name="qrichtext" content="1" />&lt;style type="text/css">
p, li { white-space: pre-wrap; }
&lt;/style>&lt;/head>&lt;body style=" font-family:'Noto Sans'; font-size:10pt; font-weight:400; font-style:normal;">
&lt;p style=" margin-top:0px; margin-bottom:0px; margin-left:0px; margin-right:0px; -qt-block-indent:0; text-indent:0px;">srt formatting: https://docs.fileformat.com/video/srt/&lt;/p>
&lt;p style=" margin-top:0px; margin-bottom:0px; margin-left:0px; margin-right:0px; -qt-block-indent:0; text-indent:0px;">adding empty char to raise subtitles by a line: &lt;/p>
&lt;p style=" margin-top:0px; margin-bottom:0px; margin-left:0px; margin-right:0px; -qt-block-indent:0; text-indent:0px;">https://emptycharacter.com/&lt;/p>&lt;/body>&lt;/html></property>
  <property name="xml_retain">1</property>
  <entry producer="producer0" in="00:00:00.000" out="00:23:55.555"/>
  <entry producer="producer1" in="00:00:00.000" out="00:24:09.593"/>
  <entry producer="producer2" in="00:00:00.000" out="00:23:54.846"/>
  <entry producer="producer3" in="00:00:00.000" out="00:23:55.305"/>
 </playlist>
 <producer id="black_track" in="00:00:00.000" out="01:03:57.307">
  <property name="length">2147483647</property>
  <property name="eof">continue</property>
  <property name="resource">black</property>
  <property name="aspect_ratio">1</property>
  <property name="mlt_service">color</property>
  <property name="mlt_image_format">rgba</property>
  <property name="set.test_audio">0</property>
 </producer>
 <producer id="producer4" in="00:00:00.000" out="00:23:54.846">
  <property name="length">34402</property>
  <property name="eof">pause</property>
  <property name="resource">/home/redxherring/Videos/Monster/Monster-Editing/WAV/Monster - Chapter 23 - Eva's ConfessionLR.wav</property>
  <property name="meta.media.nb_streams">1</property>
  <property name="meta.media.0.stream.type">audio</property>
  <property name="meta.media.0.codec.sample_fmt">s16</property>
  <property name="meta.media.0.codec.sample_rate">44100</property>
  <property name="meta.media.0.codec.channels">2</property>
  <property name="meta.media.0.codec.name">pcm_s16le</property>
  <property name="meta.media.0.codec.long_name">PCM signed 16-bit little-endian</property>
  <property name="meta.media.0.codec.bit_rate">1411200</property>
  <property name="meta.attr.title.markup">Monster : Chapter 23 : Eva's Confession</property>
  <property name="meta.attr.encoder.markup">Lavf59.27.100</property>
  <property name="seekable">1</property>
  <property name="audio_index">0</property>
  <property name="video_index">-1</property>
  <property name="mute_on_pause">0</property>
  <property name="mlt_service">avformat-novalidate</property>
  <property name="kdenlive:clipname"/>
  <property name="kdenlive:clip_type">1</property>
  <property name="kdenlive:folderid">-1</property>
  <property name="kdenlive:id">4</property>
  <property name="kdenlive:file_size">253104254</property>
  <property name="kdenlive:file_hash">47988474c2d795924980a7ae31fe769e</property>
  <property name="kdenlive:audio_max0">189</property>
  <property name="xml">was here</property>
  <property name="set.test_audio">0</property>
  <property name="set.test_image">1</property>
 </producer>
 <producer id="producer5" in="00:00:00.000" out="00:23:55.305">
  <property name="length">34413</property>
  <property name="eof">pause</property>
  <property name="resource">/home/redxherring/Videos/Monster/Monster-Editing/WAV/Monster - Chapter 24 - The Men's Dining TableLR.wav</property>
  <property name="meta.media.nb_streams">1</property>
  <property name="meta.media.0.stream.type">audio</property>
  <property name="meta.media.0.codec.sample_fmt">s16</property>
  <property name="meta.media.0.codec.sample_rate">44100</property>
  <property name="meta.media.0.codec.channels">2</property>
  <property name="meta.media.0.codec.name">pcm_s16le</property>
  <property name="meta.media.0.codec.long_name">PCM signed 16-bit little-endian</property>
  <property name="meta.media.0.codec.bit_rate">1411200</property>
  <property name="meta.attr.title.markup">Monster : Chapter 24 : The Men's Dining Table</property>
  <property name="meta.attr.encoder.markup">Lavf59.27.100</property>
  <property name="seekable">1</property>
  <property name="audio_index">0</property>
  <property name="video_index">-1</property>
  <property name="mute_on_pause">0</property>
  <property name="mlt_service">avformat-novalidate</property>
  <property name="kdenlive:clipname"/>
  <property name="kdenlive:clip_type">1</property>
  <property name="kdenlive:folderid">-1</property>
  <property name="kdenlive:id">5</property>
  <property name="kdenlive:file_size">253186180</property>
  <property name="kdenlive:file_hash">e16923bf82be650a002dc2a3796f9362</property>
  <property name="kdenlive:audio_max0">179</property>
  <property name="xml">was here</property>
  <property name="set.test_audio">0</property>
  <property name="set.test_image">1</property>
 </producer>
 <playlist id="playlist0">
  <property name="kdenlive:audio_track">1</property>
  <blank length="00:12:30.530"/>
  <entry producer="producer4" in="00:13:02.878" out="00:22:27.736">
   <property name="kdenlive:id">4</property>
   <filter id="filter0" in="00:13:02.878" out="00:13:03.879">
    <property name="window">75</property>
    <property name="max_gain">20dB</property>
    <property name="mlt_service">volume</property>
    <property name="kdenlive_id">fadein</property>
    <property name="gain">0</property>
    <property name="end">1</property>
    <property name="kdenlive:collapsed">0</property>
   </filter>
  </entry>
  <blank length="00:09:27.986"/>
  <entry producer="producer5" in="00:11:54.304" out="00:11:56.348">
   <property name="kdenlive:id">5</property>
   <filter id="filter1">
    <property name="window">75</property>
    <property name="max_gain">20dB</property>
    <property name="level">00:11:54.304=0.00716096;00:11:54.930~=0.0501267;00:11:55.013=28.538;00:11:55.138~=0.732857;00:11:55.264=-0.0501267</property>
    <property name="mlt_service">volume</property>
    <property name="kdenlive_id">volume</property>
    <property name="kdenlive:collapsed">0</property>
   </filter>
   <filter id="filter2" in="00:11:54.304" out="00:11:54.680">
    <property name="window">75</property>
    <property name="max_gain">20dB</property>
    <property name="mlt_service">volume</property>
    <property name="kdenlive_id">fadein</property>
    <property name="gain">0</property>
    <property name="end">1</property>
    <property name="kdenlive:collapsed">0</property>
   </filter>
   <filter id="filter3" in="00:11:56.223" out="00:11:56.348">
    <property name="window">75</property>
    <property name="max_gain">20dB</property>
    <property name="mlt_service">volume</property>
    <property name="kdenlive_id">fadeout</property>
    <property name="gain">1</property>
    <property name="end">0</property>
   </filter>
  </entry>
  <blank length="00:02:06.548"/>
  <entry producer="producer5" in="00:14:03.003" out="00:14:04.213">
   <property name="kdenlive:id">5</property>
   <filter id="filter4">
    <property name="window">75</property>
    <property name="max_gain">20dB</property>
    <property name="level">00:14:03.003=0;00:14:03.295~=-0.732857;00:14:03.462~=12.1808;00:14:03.712~=-0.312803;00:14:03.962~=15.3346;00:14:04.129~=0.0501267</property>
    <property name="mlt_service">volume</property>
    <property name="kdenlive_id">volume</property>
    <property name="kdenlive:collapsed">0</property>
   </filter>
   <filter id="filter5" in="00:14:03.003" out="00:14:03.212">
    <property name="window">75</property>
    <property name="max_gain">20dB</property>
    <property name="mlt_service">volume</property>
    <property name="kdenlive_id">fadein</property>
    <property name="gain">0</property>
    <property name="end">1</property>
    <property name="kdenlive:collapsed">0</property>
   </filter>
  </entry>
 </playlist>
 <playlist id="playlist1">
  <property name="kdenlive:audio_track">1</property>
 </playlist>
 <tractor id="tractor0" in="00:00:00.000" out="00:33:33.242">
  <property name="kdenlive:audio_track">1</property>
  <property name="kdenlive:trackheight">67</property>
  <property name="kdenlive:timeline_active">1</property>
  <property name="kdenlive:collapsed">0</property>
  <property name="kdenlive:thumbs_format"/>
  <property name="kdenlive:audio_rec"/>
  <track hide="video" producer="playlist0"/>
  <track hide="video" producer="playlist1"/>
  <filter id="filter6">
   <property name="window">75</property>
   <property name="max_gain">20dB</property>
   <property name="mlt_service">volume</property>
   <property name="internal_added">237</property>
   <property name="disable">1</property>
  </filter>
  <filter id="filter7">
   <property name="channel">-1</property>
   <property name="mlt_service">panner</property>
   <property name="internal_added">237</property>
   <property name="start">0.5</property>
   <property name="disable">1</property>
  </filter>
  <filter id="filter8">
   <property name="iec_scale">0</property>
   <property name="mlt_service">audiolevel</property>
   <property name="dbpeak">1</property>
   <property name="disable">1</property>
  </filter>
 </tractor>
 <producer id="producer6" in="00:00:00.000" out="00:23:54.846">
  <property name="length">34402</property>
  <property name="eof">pause</property>
  <property name="resource">/home/redxherring/Videos/Monster/Monster-Editing/WAV/Monster - Chapter 23 - Eva's ConfessionLR.wav</property>
  <property name="meta.media.nb_streams">1</property>
  <property name="meta.media.0.stream.type">audio</property>
  <property name="meta.media.0.codec.sample_fmt">s16</property>
  <property name="meta.media.0.codec.sample_rate">44100</property>
  <property name="meta.media.0.codec.channels">2</property>
  <property name="meta.media.0.codec.name">pcm_s16le</property>
  <property name="meta.media.0.codec.long_name">PCM signed 16-bit little-endian</property>
  <property name="meta.media.0.codec.bit_rate">1411200</property>
  <property name="meta.attr.title.markup">Monster : Chapter 23 : Eva's Confession</property>
  <property name="meta.attr.encoder.markup">Lavf59.27.100</property>
  <property name="seekable">1</property>
  <property name="audio_index">0</property>
  <property name="video_index">-1</property>
  <property name="mute_on_pause">0</property>
  <property name="mlt_service">avformat-novalidate</property>
  <property name="kdenlive:clipname"/>
  <property name="kdenlive:clip_type">1</property>
  <property name="kdenlive:folderid">-1</property>
  <property name="kdenlive:id">4</property>
  <property name="kdenlive:file_size">253104254</property>
  <property name="kdenlive:file_hash">47988474c2d795924980a7ae31fe769e</property>
  <property name="kdenlive:audio_max0">189</property>
  <property name="xml">was here</property>
  <property name="set.test_audio">0</property>
  <property name="set.test_image">1</property>
 </producer>
 <producer id="producer7" in="00:00:00.000" out="00:23:55.305">
  <property name="length">34413</property>
  <property name="eof">pause</property>
  <property name="resource">/home/redxherring/Videos/Monster/Monster-Editing/WAV/Monster - Chapter 24 - The Men's Dining TableLR.wav</property>
  <property name="meta.media.nb_streams">1</property>
  <property name="meta.media.0.stream.type">audio</property>
  <property name="meta.media.0.codec.sample_fmt">s16</property>
  <property name="meta.media.0.codec.sample_rate">44100</property>
  <property name="meta.media.0.codec.channels">2</property>
  <property name="meta.media.0.codec.name">pcm_s16le</property>
  <property name="meta.media.0.codec.long_name">PCM signed 16-bit little-endian</property>
  <property name="meta.media.0.codec.bit_rate">1411200</property>
  <property name="meta.attr.title.markup">Monster : Chapter 24 : The Men's Dining Table</property>
  <property name="meta.attr.encoder.markup">Lavf59.27.100</property>
  <property name="seekable">1</property>
  <property name="audio_index">0</property>
  <property name="video_index">-1</property>
  <property name="mute_on_pause">0</property>
  <property name="mlt_service">avformat-novalidate</property>
  <property name="kdenlive:clipname"/>
  <property name="kdenlive:clip_type">1</property>
  <property name="kdenlive:folderid">-1</property>
  <property name="kdenlive:id">5</property>
  <property name="kdenlive:file_size">253186180</property>
  <property name="kdenlive:file_hash">e16923bf82be650a002dc2a3796f9362</property>
  <property name="kdenlive:audio_max0">179</property>
  <property name="xml">was here</property>
  <property name="set.test_audio">0</property>
  <property name="set.test_image">1</property>
 </producer>
 <playlist id="playlist2">
  <property name="kdenlive:audio_track">1</property>
  <entry producer="producer6" in="00:00:00.000" out="00:12:31.490">
   <property name="kdenlive:id">4</property>
   <property name="kdenlive:activeeffect">-1</property>
  </entry>
  <blank length="00:08:44.586"/>
  <entry producer="producer7" in="00:02:11.094" out="00:02:20.437">
   <property name="kdenlive:id">5</property>
   <filter id="filter9">
    <property name="window">75</property>
    <property name="max_gain">20dB</property>
    <property name="mlt_service">volume</property>
    <property name="kdenlive_id">gain</property>
    <property name="gain">0.5</property>
    <property name="kdenlive:collapsed">0</property>
   </filter>
  </entry>
  <entry producer="producer7" in="00:02:11.094" out="00:02:20.437">
   <property name="kdenlive:id">5</property>
   <filter id="filter10">
    <property name="window">75</property>
    <property name="max_gain">20dB</property>
    <property name="mlt_service">volume</property>
    <property name="kdenlive_id">gain</property>
    <property name="gain">0.5</property>
    <property name="kdenlive:collapsed">0</property>
   </filter>
   <filter id="filter11" in="00:02:11.094" out="00:02:20.437">
    <property name="window">75</property>
    <property name="max_gain">20dB</property>
    <property name="mlt_service">volume</property>
    <property name="kdenlive_id">fadein</property>
    <property name="gain">0</property>
    <property name="end">1</property>
   </filter>
   <filter id="filter12" in="00:02:11.053" out="00:02:20.437">
    <property name="window">75</property>
    <property name="max_gain">20dB</property>
    <property name="mlt_service">volume</property>
    <property name="kdenlive_id">fadeout</property>
    <property name="gain">1</property>
    <property name="end">0</property>
   </filter>
  </entry>
  <entry producer="producer7" in="00:02:11.094" out="00:02:20.437">
   <property name="kdenlive:id">5</property>
   <filter id="filter13">
    <property name="window">75</property>
    <property name="max_gain">20dB</property>
    <property name="mlt_service">volume</property>
    <property name="kdenlive_id">gain</property>
    <property name="gain">0.5</property>
    <property name="kdenlive:collapsed">0</property>
   </filter>
  </entry>
  <entry producer="producer7" in="00:02:11.094" out="00:11:50.592">
   <property name="kdenlive:id">5</property>
   <filter id="filter14" in="00:02:11.094" out="00:02:20.437">
    <property name="window">75</property>
    <property name="max_gain">20dB</property>
    <property name="mlt_service">volume</property>
    <property name="kdenlive_id">fadein</property>
    <property name="gain">0</property>
    <property name="end">1</property>
    <property name="kdenlive:collapsed">0</property>
   </filter>
   <filter id="filter15" in="00:11:50.384" out="00:11:50.592">
    <property name="window">75</property>
    <property name="max_gain">20dB</property>
    <property name="mlt_service">volume</property>
    <property name="kdenlive_id">fadeout</property>
    <property name="gain">1</property>
    <property name="end">0</property>
   </filter>
  </entry>
  <blank length="00:00:01.585"/>
  <entry producer="producer7" in="00:11:56.223" out="00:14:03.253">
   <property name="kdenlive:id">5</property>
   <filter id="filter16" in="00:11:56.223" out="00:11:56.265">
    <property name="window">75</property>
    <property name="max_gain">20dB</property>
    <property name="mlt_service">volume</property>
    <property name="kdenlive_id">fadein</property>
    <property name="gain">0</property>
    <property name="end">1</property>
    <property name="kdenlive:collapsed">0</property>
   </filter>
   <filter id="filter17" in="00:14:02.920" out="00:14:03.253">
    <property name="window">75</property>
    <property name="max_gain">20dB</property>
    <property name="mlt_service">volume</property>
    <property name="kdenlive_id">fadeout</property>
    <property name="gain">1</property>
    <property name="end">0</property>
    <property name="kdenlive:collapsed">0</property>
   </filter>
  </entry>
  <blank length="00:00:00.876"/>
  <entry producer="producer7" in="00:14:04.254" out="00:23:36.954">
   <property name="kdenlive:id">5</property>
  </entry>
 </playlist>
 <playlist id="playlist3">
  <property name="kdenlive:audio_track">1</property>
 </playlist>
 <tractor id="tractor1" in="00:00:00.000" out="00:43:05.964">
  <property name="kdenlive:audio_track">1</property>
  <property name="kdenlive:trackheight">67</property>
  <property name="kdenlive:timeline_active">1</property>
  <property name="kdenlive:collapsed">0</property>
  <property name="kdenlive:thumbs_format"/>
  <property name="kdenlive:audio_rec"/>
  <track hide="video" producer="playlist2"/>
  <track hide="video" producer="playlist3"/>
  <filter id="filter18">
   <property name="window">75</property>
   <property name="max_gain">20dB</property>
   <property name="mlt_service">volume</property>
   <property name="internal_added">237</property>
   <property name="disable">1</property>
  </filter>
  <filter id="filter19">
   <property name="channel">-1</property>
   <property name="mlt_service">panner</property>
   <property name="internal_added">237</property>
   <property name="start">0.5</property>
   <property name="disable">1</property>
  </filter>
  <filter id="filter20">
   <property name="iec_scale">0</property>
   <property name="mlt_service">audiolevel</property>
   <property name="dbpeak">1</property>
   <property name="disable">1</property>
  </filter>
 </tractor>
 <producer id="producer8" in="00:00:00.000" out="00:24:09.593">
  <property name="length">34756</property>
  <property name="eof">pause</property>
  <property name="resource">/home/redxherring/Videos/Monster/Monster-Editing/Orig/Monster - Chapter 23 - Eva's Confession.mkv</property>
  <property name="audio_index">1</property>
  <property name="video_index">0</property>
  <property name="mute_on_pause">0</property>
  <property name="mlt_service">avformat-novalidate</property>
  <property name="seekable">1</property>
  <property name="aspect_ratio">1</property>
  <property name="format">3</property>
  <property name="kdenlive:clipname"/>
  <property name="kdenlive:clip_type">0</property>
  <property name="kdenlive:folderid">-1</property>
  <property name="kdenlive:id">2</property>
  <property name="kdenlive:active_streams">1;2;7;8</property>
  <property name="kdenlive:multistreams">1</property>
  <property name="kdenlive:file_size">894702572</property>
  <property name="kdenlive:file_hash">2e2c2aa2be08a3a2e1464704d5b35a7c</property>
  <property name="kdenlive:audio_max1">173</property>
  <property name="kdenlive:audio_max2">208</property>
  <property name="kdenlive:audio_max7">1</property>
  <property name="kdenlive:audio_max8">1</property>
  <property name="xml">was here</property>
  <property name="meta.media.nb_streams">44</property>
  <property name="meta.media.0.stream.type">video</property>
  <property name="meta.media.0.stream.frame_rate">23.976</property>
  <property name="meta.media.0.stream.sample_aspect_ratio">1</property>
  <property name="meta.media.0.codec.width">1440</property>
  <property name="meta.media.0.codec.height">1080</property>
  <property name="meta.media.0.codec.rotate">0</property>
  <property name="meta.media.0.codec.pix_fmt">yuv420p10le</property>
  <property name="meta.media.0.codec.sample_aspect_ratio">1</property>
  <property name="meta.media.0.codec.colorspace">709</property>
  <property name="meta.media.0.codec.color_trc">1</property>
  <property name="meta.media.0.codec.name">hevc</property>
  <property name="meta.media.0.codec.long_name">HEVC (High Efficiency Video Coding)</property>
  <property name="meta.media.0.codec.bit_rate">0</property>
  <property name="meta.attr.0.stream.BPS-eng.markup">2108560</property>
  <property name="meta.attr.0.stream.DURATION-eng.markup">00:24:09.615000000</property>
  <property name="meta.attr.0.stream.NUMBER_OF_FRAMES-eng.markup">34756</property>
  <property name="meta.attr.0.stream.NUMBER_OF_BYTES-eng.markup">382075037</property>
  <property name="meta.attr.0.stream._STATISTICS_WRITING_APP-eng.markup">mkvmerge v52.0.0 ('Secret For The Mad') 64-bit</property>
  <property name="meta.attr.0.stream._STATISTICS_WRITING_DATE_UTC-eng.markup">2022-11-10 08:26:59</property>
  <property name="meta.attr.0.stream._STATISTICS_TAGS-eng.markup">BPS DURATION NUMBER_OF_FRAMES NUMBER_OF_BYTES</property>
  <property name="meta.media.1.stream.type">audio</property>
  <property name="meta.media.1.codec.sample_fmt">fltp</property>
  <property name="meta.media.1.codec.sample_rate">48000</property>
  <property name="meta.media.1.codec.channels">2</property>
  <property name="meta.media.1.codec.name">ac3</property>
  <property name="meta.media.1.codec.long_name">ATSC A/52A (AC-3)</property>
  <property name="meta.media.1.codec.bit_rate">448000</property>
  <property name="meta.attr.1.stream.language.markup">jpn</property>
  <property name="meta.attr.1.stream.title.markup">Japanese DVD AC-3 DD_2.0</property>
  <property name="meta.attr.1.stream.BPS-eng.markup">448000</property>
  <property name="meta.attr.1.stream.DURATION-eng.markup">00:24:09.536000000</property>
  <property name="meta.attr.1.stream.NUMBER_OF_FRAMES-eng.markup">45298</property>
  <property name="meta.attr.1.stream.NUMBER_OF_BYTES-eng.markup">81174016</property>
  <property name="meta.attr.1.stream._STATISTICS_WRITING_APP-eng.markup">mkvmerge v52.0.0 ('Secret For The Mad') 64-bit</property>
  <property name="meta.attr.1.stream._STATISTICS_WRITING_DATE_UTC-eng.markup">2022-11-10 08:26:59</property>
  <property name="meta.attr.1.stream._STATISTICS_TAGS-eng.markup">BPS DURATION NUMBER_OF_FRAMES NUMBER_OF_BYTES</property>
  <property name="meta.media.2.stream.type">audio</property>
  <property name="meta.media.2.codec.sample_fmt">fltp</property>
  <property name="meta.media.2.codec.sample_rate">44100</property>
  <property name="meta.media.2.codec.channels">2</property>
  <property name="meta.media.2.codec.name">aac</property>
  <property name="meta.media.2.codec.long_name">AAC (Advanced Audio Coding)</property>
  <property name="meta.media.2.codec.bit_rate">0</property>
  <property name="meta.attr.2.stream.language.markup">eng</property>
  <property name="meta.attr.2.stream.title.markup">English AAC DD_2.0</property>
  <property name="meta.attr.2.stream.BPS-eng.markup">146545</property>
  <property name="meta.attr.2.stream.DURATION-eng.markup">00:23:54.831000000</property>
  <property name="meta.attr.2.stream.NUMBER_OF_FRAMES-eng.markup">61793</property>
  <property name="meta.attr.2.stream.NUMBER_OF_BYTES-eng.markup">26283445</property>
  <property name="meta.attr.2.stream._STATISTICS_WRITING_APP-eng.markup">mkvmerge v52.0.0 ('Secret For The Mad') 64-bit</property>
  <property name="meta.attr.2.stream._STATISTICS_WRITING_DATE_UTC-eng.markup">2022-11-10 08:26:59</property>
  <property name="meta.attr.2.stream._STATISTICS_TAGS-eng.markup">BPS DURATION NUMBER_OF_FRAMES NUMBER_OF_BYTES</property>
  <property name="meta.media.3.codec.name">ssa</property>
  <property name="meta.media.3.codec.long_name">ASS (Advanced SubStation Alpha) subtitle</property>
  <property name="meta.media.3.codec.bit_rate">0</property>
  <property name="meta.attr.3.stream.language.markup">eng</property>
  <property name="meta.attr.3.stream.title.markup">English (Full) ASS</property>
  <property name="meta.attr.3.stream.BPS-eng.markup">74</property>
  <property name="meta.attr.3.stream.DURATION-eng.markup">00:23:48.320000000</property>
  <property name="meta.attr.3.stream.NUMBER_OF_FRAMES-eng.markup">257</property>
  <property name="meta.attr.3.stream.NUMBER_OF_BYTES-eng.markup">13298</property>
  <property name="meta.attr.3.stream._STATISTICS_WRITING_APP-eng.markup">mkvmerge v52.0.0 ('Secret For The Mad') 64-bit</property>
  <property name="meta.attr.3.stream._STATISTICS_WRITING_DATE_UTC-eng.markup">2022-11-10 08:26:59</property>
  <property name="meta.attr.3.stream._STATISTICS_TAGS-eng.markup">BPS DURATION NUMBER_OF_FRAMES NUMBER_OF_BYTES</property>
  <property name="meta.media.4.codec.name">ssa</property>
  <property name="meta.media.4.codec.long_name">ASS (Advanced SubStation Alpha) subtitle</property>
  <property name="meta.media.4.codec.bit_rate">0</property>
  <property name="meta.attr.4.stream.language.markup">eng</property>
  <property name="meta.attr.4.stream.title.markup">English (Titles &amp; Signs) ASS</property>
  <property name="meta.attr.4.stream.BPS-eng.markup">1</property>
  <property name="meta.attr.4.stream.DURATION-eng.markup">00:21:23.490000000</property>
  <property name="meta.attr.4.stream.NUMBER_OF_FRAMES-eng.markup">3</property>
  <property name="meta.attr.4.stream.NUMBER_OF_BYTES-eng.markup">190</property>
  <property name="meta.attr.4.stream._STATISTICS_WRITING_APP-eng.markup">mkvmerge v52.0.0 ('Secret For The Mad') 64-bit</property>
  <property name="meta.attr.4.stream._STATISTICS_WRITING_DATE_UTC-eng.markup">2022-11-10 08:26:59</property>
  <property name="meta.attr.4.stream._STATISTICS_TAGS-eng.markup">BPS DURATION NUMBER_OF_FRAMES NUMBER_OF_BYTES</property>
  <property name="meta.media.5.codec.name">ssa</property>
  <property name="meta.media.5.codec.long_name">ASS (Advanced SubStation Alpha) subtitle</property>
  <property name="meta.media.5.codec.bit_rate">0</property>
  <property name="meta.attr.5.stream.language.markup">ara</property>
  <property name="meta.attr.5.stream.title.markup">Arabic</property>
  <property name="meta.attr.5.stream.BPS-eng.markup">101</property>
  <property name="meta.attr.5.stream.DURATION-eng.markup">00:22:09.320000000</property>
  <property name="meta.attr.5.stream.NUMBER_OF_FRAMES-eng.markup">280</property>
  <property name="meta.attr.5.stream.NUMBER_OF_BYTES-eng.markup">16903</property>
  <property name="meta.attr.5.stream._STATISTICS_WRITING_APP-eng.markup">mkvmerge v52.0.0 ('Secret For The Mad') 64-bit</property>
  <property name="meta.attr.5.stream._STATISTICS_WRITING_DATE_UTC-eng.markup">2022-11-10 08:26:59</property>
  <property name="meta.attr.5.stream._STATISTICS_TAGS-eng.markup">BPS DURATION NUMBER_OF_FRAMES NUMBER_OF_BYTES</property>
  <property name="meta.media.6.stream.type">video</property>
  <property name="meta.media.6.stream.frame_rate">23.976</property>
  <property name="meta.media.6.stream.sample_aspect_ratio">1</property>
  <property name="meta.media.6.codec.width">1440</property>
  <property name="meta.media.6.codec.height">1080</property>
  <property name="meta.media.6.codec.rotate">0</property>
  <property name="meta.media.6.codec.pix_fmt">yuv420p10le</property>
  <property name="meta.media.6.codec.sample_aspect_ratio">1</property>
  <property name="meta.media.6.codec.colorspace">709</property>
  <property name="meta.media.6.codec.color_trc">1</property>
  <property name="meta.media.6.codec.name">hevc</property>
  <property name="meta.media.6.codec.long_name">HEVC (High Efficiency Video Coding)</property>
  <property name="meta.media.6.codec.bit_rate">0</property>
  <property name="meta.attr.6.stream.BPS-eng.markup">2108560</property>
  <property name="meta.attr.6.stream.DURATION-eng.markup">00:24:09.615000000</property>
  <property name="meta.attr.6.stream.NUMBER_OF_FRAMES-eng.markup">34756</property>
  <property name="meta.attr.6.stream.NUMBER_OF_BYTES-eng.markup">382075037</property>
  <property name="meta.attr.6.stream._STATISTICS_WRITING_APP-eng.markup">mkvmerge v52.0.0 ('Secret For The Mad') 64-bit</property>
  <property name="meta.attr.6.stream._STATISTICS_WRITING_DATE_UTC-eng.markup">2022-11-10 08:26:59</property>
  <property name="meta.attr.6.stream._STATISTICS_TAGS-eng.markup">BPS DURATION NUMBER_OF_FRAMES NUMBER_OF_BYTES</property>
  <property name="meta.media.7.stream.type">audio</property>
  <property name="meta.media.7.codec.sample_fmt">fltp</property>
  <property name="meta.media.7.codec.sample_rate">48000</property>
  <property name="meta.media.7.codec.channels">2</property>
  <property name="meta.media.7.codec.name">ac3</property>
  <property name="meta.media.7.codec.long_name">ATSC A/52A (AC-3)</property>
  <property name="meta.media.7.codec.bit_rate">0</property>
  <property name="meta.attr.7.stream.language.markup">jpn</property>
  <property name="meta.attr.7.stream.title.markup">Japanese DVD AC-3 DD_2.0</property>
  <property name="meta.attr.7.stream.BPS-eng.markup">448000</property>
  <property name="meta.attr.7.stream.DURATION-eng.markup">00:24:09.536000000</property>
  <property name="meta.attr.7.stream.NUMBER_OF_FRAMES-eng.markup">45298</property>
  <property name="meta.attr.7.stream.NUMBER_OF_BYTES-eng.markup">81174016</property>
  <property name="meta.attr.7.stream._STATISTICS_WRITING_APP-eng.markup">mkvmerge v52.0.0 ('Secret For The Mad') 64-bit</property>
  <property name="meta.attr.7.stream._STATISTICS_WRITING_DATE_UTC-eng.markup">2022-11-10 08:26:59</property>
  <property name="meta.attr.7.stream._STATISTICS_TAGS-eng.markup">BPS DURATION NUMBER_OF_FRAMES NUMBER_OF_BYTES</property>
  <property name="meta.media.8.stream.type">audio</property>
  <property name="meta.media.8.codec.sample_fmt">fltp</property>
  <property name="meta.media.8.codec.sample_rate">44100</property>
  <property name="meta.media.8.codec.channels">2</property>
  <property name="meta.media.8.codec.name">aac</property>
  <property name="meta.media.8.codec.long_name">AAC (Advanced Audio Coding)</property>
  <property name="meta.media.8.codec.bit_rate">0</property>
  <property name="meta.attr.8.stream.language.markup">eng</property>
  <property name="meta.attr.8.stream.title.markup">English AAC DD_2.0</property>
  <property name="meta.attr.8.stream.BPS-eng.markup">146545</property>
  <property name="meta.attr.8.stream.DURATION-eng.markup">00:23:54.831000000</property>
  <property name="meta.attr.8.stream.NUMBER_OF_FRAMES-eng.markup">61793</property>
  <property name="meta.attr.8.stream.NUMBER_OF_BYTES-eng.markup">26283445</property>
  <property name="meta.attr.8.stream._STATISTICS_WRITING_APP-eng.markup">mkvmerge v52.0.0 ('Secret For The Mad') 64-bit</property>
  <property name="meta.attr.8.stream._STATISTICS_WRITING_DATE_UTC-eng.markup">2022-11-10 08:26:59</property>
  <property name="meta.attr.8.stream._STATISTICS_TAGS-eng.markup">BPS DURATION NUMBER_OF_FRAMES NUMBER_OF_BYTES</property>
  <property name="meta.media.9.codec.name">ssa</property>
  <property name="meta.media.9.codec.long_name">ASS (Advanced SubStation Alpha) subtitle</property>
  <property name="meta.media.9.codec.bit_rate">0</property>
  <property name="meta.attr.9.stream.language.markup">eng</property>
  <property name="meta.attr.9.stream.title.markup">English (Full) ASS</property>
  <property name="meta.attr.9.stream.BPS-eng.markup">74</property>
  <property name="meta.attr.9.stream.DURATION-eng.markup">00:23:48.320000000</property>
  <property name="meta.attr.9.stream.NUMBER_OF_FRAMES-eng.markup">257</property>
  <property name="meta.attr.9.stream.NUMBER_OF_BYTES-eng.markup">13298</property>
  <property name="meta.attr.9.stream._STATISTICS_WRITING_APP-eng.markup">mkvmerge v52.0.0 ('Secret For The Mad') 64-bit</property>
  <property name="meta.attr.9.stream._STATISTICS_WRITING_DATE_UTC-eng.markup">2022-11-10 08:26:59</property>
  <property name="meta.attr.9.stream._STATISTICS_TAGS-eng.markup">BPS DURATION NUMBER_OF_FRAMES NUMBER_OF_BYTES</property>
  <property name="meta.media.10.codec.name">ssa</property>
  <property name="meta.media.10.codec.long_name">ASS (Advanced SubStation Alpha) subtitle</property>
  <property name="meta.media.10.codec.bit_rate">0</property>
  <property name="meta.attr.10.stream.language.markup">eng</property>
  <property name="meta.attr.10.stream.title.markup">English (Titles &amp; Signs) ASS</property>
  <property name="meta.attr.10.stream.BPS-eng.markup">1</property>
  <property name="meta.attr.10.stream.DURATION-eng.markup">00:21:23.490000000</property>
  <property name="meta.attr.10.stream.NUMBER_OF_FRAMES-eng.markup">3</property>
  <property name="meta.attr.10.stream.NUMBER_OF_BYTES-eng.markup">190</property>
  <property name="meta.attr.10.stream._STATISTICS_WRITING_APP-eng.markup">mkvmerge v52.0.0 ('Secret For The Mad') 64-bit</property>
  <property name="meta.attr.10.stream._STATISTICS_WRITING_DATE_UTC-eng.markup">2022-11-10 08:26:59</property>
  <property name="meta.attr.10.stream._STATISTICS_TAGS-eng.markup">BPS DURATION NUMBER_OF_FRAMES NUMBER_OF_BYTES</property>
  <property name="meta.media.11.codec.name">ssa</property>
  <property name="meta.media.11.codec.long_name">ASS (Advanced SubStation Alpha) subtitle</property>
  <property name="meta.media.11.codec.bit_rate">0</property>
  <property name="meta.attr.11.stream.language.markup">ara</property>
  <property name="meta.attr.11.stream.title.markup">Arabic</property>
  <property name="meta.attr.11.stream.BPS-eng.markup">101</property>
  <property name="meta.attr.11.stream.DURATION-eng.markup">00:22:09.320000000</property>
  <property name="meta.attr.11.stream.NUMBER_OF_FRAMES-eng.markup">280</property>
  <property name="meta.attr.11.stream.NUMBER_OF_BYTES-eng.markup">16903</property>
  <property name="meta.attr.11.stream._STATISTICS_WRITING_APP-eng.markup">mkvmerge v52.0.0 ('Secret For The Mad') 64-bit</property>
  <property name="meta.attr.11.stream._STATISTICS_WRITING_DATE_UTC-eng.markup">2022-11-10 08:26:59</property>
  <property name="meta.attr.11.stream._STATISTICS_TAGS-eng.markup">BPS DURATION NUMBER_OF_FRAMES NUMBER_OF_BYTES</property>
  <property name="meta.attr.title.markup">Monster : Chapter 23 : Eva's Confession</property>
  <property name="meta.attr.encoder.markup">libebml v1.4.1 + libmatroska v1.6.2</property>
  <property name="meta.attr.creation_time.markup">2022-11-10T08:26:59.000000Z</property>
  <property name="meta.media.sample_aspect_num">1</property>
  <property name="meta.media.sample_aspect_den">1</property>
  <property name="meta.media.frame_rate_num">24000</property>
  <property name="meta.media.frame_rate_den">1001</property>
  <property name="meta.media.colorspace">709</property>
  <property name="meta.media.color_trc">1</property>
  <property name="meta.media.has_b_frames">2</property>
  <property name="meta.media.width">1440</property>
  <property name="meta.media.height">1080</property>
  <property name="meta.media.color_range">mpeg</property>
  <property name="meta.media.top_field_first">0</property>
  <property name="meta.media.progressive">1</property>
  <property name="set.test_audio">1</property>
  <property name="set.test_image">0</property>
 </producer>
 <producer id="producer9" in="00:00:00.000" out="00:23:55.555">
  <property name="length">34419</property>
  <property name="eof">pause</property>
  <property name="resource">/home/redxherring/Videos/Monster/Monster-Editing/Orig/Monster - Chapter 24 - The Men's Dining Table.mkv</property>
  <property name="meta.media.nb_streams">23</property>
  <property name="meta.media.0.stream.type">video</property>
  <property name="meta.media.0.stream.frame_rate">23.976</property>
  <property name="meta.media.0.stream.sample_aspect_ratio">1</property>
  <property name="meta.media.0.codec.width">1440</property>
  <property name="meta.media.0.codec.height">1080</property>
  <property name="meta.media.0.codec.rotate">0</property>
  <property name="meta.media.0.codec.pix_fmt">yuv420p10le</property>
  <property name="meta.media.0.codec.sample_aspect_ratio">1</property>
  <property name="meta.media.0.codec.colorspace">709</property>
  <property name="meta.media.0.codec.color_trc">1</property>
  <property name="meta.media.0.codec.name">hevc</property>
  <property name="meta.media.0.codec.long_name">HEVC (High Efficiency Video Coding)</property>
  <property name="meta.media.0.codec.bit_rate">0</property>
  <property name="meta.attr.0.stream.BPS-eng.markup">2264264</property>
  <property name="meta.attr.0.stream.DURATION-eng.markup">00:23:55.518000000</property>
  <property name="meta.attr.0.stream.NUMBER_OF_FRAMES-eng.markup">34418</property>
  <property name="meta.attr.0.stream.NUMBER_OF_BYTES-eng.markup">406298969</property>
  <property name="meta.attr.0.stream._STATISTICS_WRITING_APP-eng.markup">mkvmerge v52.0.0 ('Secret For The Mad') 64-bit</property>
  <property name="meta.attr.0.stream._STATISTICS_WRITING_DATE_UTC-eng.markup">2022-11-15 18:38:51</property>
  <property name="meta.attr.0.stream._STATISTICS_TAGS-eng.markup">BPS DURATION NUMBER_OF_FRAMES NUMBER_OF_BYTES</property>
  <property name="meta.media.1.stream.type">audio</property>
  <property name="meta.media.1.codec.sample_fmt">fltp</property>
  <property name="meta.media.1.codec.sample_rate">48000</property>
  <property name="meta.media.1.codec.channels">2</property>
  <property name="meta.media.1.codec.name">ac3</property>
  <property name="meta.media.1.codec.long_name">ATSC A/52A (AC-3)</property>
  <property name="meta.media.1.codec.bit_rate">448000</property>
  <property name="meta.attr.1.stream.language.markup">jpn</property>
  <property name="meta.attr.1.stream.title.markup">Japanese DVD AC-3 DD_2.0</property>
  <property name="meta.attr.1.stream.BPS-eng.markup">448000</property>
  <property name="meta.attr.1.stream.DURATION-eng.markup">00:23:55.552000000</property>
  <property name="meta.attr.1.stream.NUMBER_OF_FRAMES-eng.markup">44861</property>
  <property name="meta.attr.1.stream.NUMBER_OF_BYTES-eng.markup">80390912</property>
  <property name="meta.attr.1.stream._STATISTICS_WRITING_APP-eng.markup">mkvmerge v52.0.0 ('Secret For The Mad') 64-bit</property>
  <property name="meta.attr.1.stream._STATISTICS_WRITING_DATE_UTC-eng.markup">2022-11-15 18:38:51</property>
  <property name="meta.attr.1.stream._STATISTICS_TAGS-eng.markup">BPS DURATION NUMBER_OF_FRAMES NUMBER_OF_BYTES</property>
  <property name="meta.media.2.stream.type">audio</property>
  <property name="meta.media.2.codec.sample_fmt">fltp</property>
  <property name="meta.media.2.codec.sample_rate">44100</property>
  <property name="meta.media.2.codec.channels">2</property>
  <property name="meta.media.2.codec.name">aac</property>
  <property name="meta.media.2.codec.long_name">AAC (Advanced Audio Coding)</property>
  <property name="meta.media.2.codec.bit_rate">0</property>
  <property name="meta.attr.2.stream.language.markup">eng</property>
  <property name="meta.attr.2.stream.title.markup">English AAC DD_2.0</property>
  <property name="meta.attr.2.stream.BPS-eng.markup">143361</property>
  <property name="meta.attr.2.stream.DURATION-eng.markup">00:23:55.295000000</property>
  <property name="meta.attr.2.stream.NUMBER_OF_FRAMES-eng.markup">61813</property>
  <property name="meta.attr.2.stream.NUMBER_OF_BYTES-eng.markup">25720725</property>
  <property name="meta.attr.2.stream._STATISTICS_WRITING_APP-eng.markup">mkvmerge v52.0.0 ('Secret For The Mad') 64-bit</property>
  <property name="meta.attr.2.stream._STATISTICS_WRITING_DATE_UTC-eng.markup">2022-11-15 18:38:51</property>
  <property name="meta.attr.2.stream._STATISTICS_TAGS-eng.markup">BPS DURATION NUMBER_OF_FRAMES NUMBER_OF_BYTES</property>
  <property name="meta.media.3.codec.name">ssa</property>
  <property name="meta.media.3.codec.long_name">ASS (Advanced SubStation Alpha) subtitle</property>
  <property name="meta.media.3.codec.bit_rate">0</property>
  <property name="meta.attr.3.stream.language.markup">eng</property>
  <property name="meta.attr.3.stream.title.markup">English (Full) ASS</property>
  <property name="meta.attr.3.stream.BPS-eng.markup">82</property>
  <property name="meta.attr.3.stream.DURATION-eng.markup">00:23:29.030000000</property>
  <property name="meta.attr.3.stream.NUMBER_OF_FRAMES-eng.markup">255</property>
  <property name="meta.attr.3.stream.NUMBER_OF_BYTES-eng.markup">14474</property>
  <property name="meta.attr.3.stream._STATISTICS_WRITING_APP-eng.markup">mkvmerge v52.0.0 ('Secret For The Mad') 64-bit</property>
  <property name="meta.attr.3.stream._STATISTICS_WRITING_DATE_UTC-eng.markup">2022-11-15 18:38:51</property>
  <property name="meta.attr.3.stream._STATISTICS_TAGS-eng.markup">BPS DURATION NUMBER_OF_FRAMES NUMBER_OF_BYTES</property>
  <property name="meta.media.4.codec.name">ssa</property>
  <property name="meta.media.4.codec.long_name">ASS (Advanced SubStation Alpha) subtitle</property>
  <property name="meta.media.4.codec.bit_rate">0</property>
  <property name="meta.attr.4.stream.language.markup">eng</property>
  <property name="meta.attr.4.stream.title.markup">English (Titles &amp; Signs) ASS</property>
  <property name="meta.attr.4.stream.BPS-eng.markup">0</property>
  <property name="meta.attr.4.stream.DURATION-eng.markup">00:19:16.680000000</property>
  <property name="meta.attr.4.stream.NUMBER_OF_FRAMES-eng.markup">2</property>
  <property name="meta.attr.4.stream.NUMBER_OF_BYTES-eng.markup">138</property>
  <property name="meta.attr.4.stream._STATISTICS_WRITING_APP-eng.markup">mkvmerge v52.0.0 ('Secret For The Mad') 64-bit</property>
  <property name="meta.attr.4.stream._STATISTICS_WRITING_DATE_UTC-eng.markup">2022-11-15 18:38:51</property>
  <property name="meta.attr.4.stream._STATISTICS_TAGS-eng.markup">BPS DURATION NUMBER_OF_FRAMES NUMBER_OF_BYTES</property>
  <property name="meta.media.5.codec.name">ssa</property>
  <property name="meta.media.5.codec.long_name">ASS (Advanced SubStation Alpha) subtitle</property>
  <property name="meta.media.5.codec.bit_rate">0</property>
  <property name="meta.attr.5.stream.language.markup">ara</property>
  <property name="meta.attr.5.stream.title.markup">Arabic</property>
  <property name="meta.attr.5.stream.BPS-eng.markup">103</property>
  <property name="meta.attr.5.stream.DURATION-eng.markup">00:21:29.040000000</property>
  <property name="meta.attr.5.stream.NUMBER_OF_FRAMES-eng.markup">261</property>
  <property name="meta.attr.5.stream.NUMBER_OF_BYTES-eng.markup">16691</property>
  <property name="meta.attr.5.stream._STATISTICS_WRITING_APP-eng.markup">mkvmerge v52.0.0 ('Secret For The Mad') 64-bit</property>
  <property name="meta.attr.5.stream._STATISTICS_WRITING_DATE_UTC-eng.markup">2022-11-15 18:38:51</property>
  <property name="meta.attr.5.stream._STATISTICS_TAGS-eng.markup">BPS DURATION NUMBER_OF_FRAMES NUMBER_OF_BYTES</property>
  <property name="meta.attr.title.markup">Monster : Chapter 24 : The Men's Dining Table</property>
  <property name="meta.attr.encoder.markup">libebml v1.4.1 + libmatroska v1.6.2</property>
  <property name="meta.attr.creation_time.markup">2022-11-15T18:38:51.000000Z</property>
  <property name="seekable">1</property>
  <property name="meta.media.sample_aspect_num">1</property>
  <property name="meta.media.sample_aspect_den">1</property>
  <property name="aspect_ratio">1</property>
  <property name="format">3</property>
  <property name="audio_index">1</property>
  <property name="video_index">0</property>
  <property name="mute_on_pause">0</property>
  <property name="mlt_service">avformat-novalidate</property>
  <property name="kdenlive:clipname"/>
  <property name="kdenlive:clip_type">0</property>
  <property name="kdenlive:folderid">-1</property>
  <property name="kdenlive:id">3</property>
  <property name="kdenlive:active_streams">1;2</property>
  <property name="kdenlive:file_size">515321586</property>
  <property name="kdenlive:file_hash">8851cb19fb2267bf036c67668831149c</property>
  <property name="kdenlive:audio_max1">189</property>
  <property name="xml">was here</property>
  <property name="meta.media.frame_rate_num">24000</property>
  <property name="meta.media.frame_rate_den">1001</property>
  <property name="meta.media.colorspace">709</property>
  <property name="meta.media.color_trc">1</property>
  <property name="meta.media.has_b_frames">2</property>
  <property name="meta.media.width">1440</property>
  <property name="meta.media.height">1080</property>
  <property name="meta.media.color_range">mpeg</property>
  <property name="meta.media.top_field_first">0</property>
  <property name="meta.media.progressive">1</property>
  <property name="set.test_audio">1</property>
  <property name="set.test_image">0</property>
 </producer>
 <playlist id="playlist4">
  <entry producer="producer8" in="00:00:00.000" out="00:12:30.489">
   <property name="kdenlive:id">2</property>
  </entry>
  <blank length="00:09:17.392"/>
  <entry producer="producer9" in="00:02:14.765" out="00:11:50.592">
   <property name="kdenlive:id">3</property>
  </entry>
  <entry producer="producer9" in="00:11:54.638" out="00:11:56.181">
   <property name="kdenlive:id">3</property>
  </entry>
  <entry producer="producer9" in="00:11:56.223" out="00:14:02.961">
   <property name="kdenlive:id">3</property>
  </entry>
  <entry producer="producer9" in="00:14:03.003" out="00:14:04.213">
   <property name="kdenlive:id">3</property>
  </entry>
  <entry producer="producer9" in="00:14:04.338" out="00:23:36.954">
   <property name="kdenlive:id">3</property>
  </entry>
 </playlist>
 <playlist id="playlist5"/>
 <tractor id="tractor2" in="00:00:00.000" out="00:43:05.964">
  <property name="kdenlive:trackheight">67</property>
  <property name="kdenlive:timeline_active">1</property>
  <property name="kdenlive:collapsed">0</property>
  <property name="kdenlive:thumbs_format"/>
  <property name="kdenlive:audio_rec"/>
  <track hide="audio" producer="playlist4"/>
  <track hide="audio" producer="playlist5"/>
 </tractor>
 <producer id="producer10" in="00:00:00.000" out="00:24:09.593">
  <property name="length">34756</property>
  <property name="eof">pause</property>
  <property name="resource">/home/redxherring/Videos/Monster/Monster-Editing/Orig/Monster - Chapter 23 - Eva's Confession.mkv</property>
  <property name="audio_index">1</property>
  <property name="video_index">0</property>
  <property name="mute_on_pause">0</property>
  <property name="mlt_service">avformat-novalidate</property>
  <property name="seekable">1</property>
  <property name="aspect_ratio">1</property>
  <property name="format">3</property>
  <property name="kdenlive:clipname"/>
  <property name="kdenlive:clip_type">0</property>
  <property name="kdenlive:folderid">-1</property>
  <property name="kdenlive:id">2</property>
  <property name="kdenlive:active_streams">1;2;7;8</property>
  <property name="kdenlive:multistreams">1</property>
  <property name="kdenlive:file_size">894702572</property>
  <property name="kdenlive:file_hash">2e2c2aa2be08a3a2e1464704d5b35a7c</property>
  <property name="kdenlive:audio_max1">173</property>
  <property name="kdenlive:audio_max2">208</property>
  <property name="kdenlive:audio_max7">1</property>
  <property name="kdenlive:audio_max8">1</property>
  <property name="xml">was here</property>
  <property name="meta.media.nb_streams">44</property>
  <property name="meta.media.0.stream.type">video</property>
  <property name="meta.media.0.stream.frame_rate">23.976</property>
  <property name="meta.media.0.stream.sample_aspect_ratio">1</property>
  <property name="meta.media.0.codec.width">1440</property>
  <property name="meta.media.0.codec.height">1080</property>
  <property name="meta.media.0.codec.rotate">0</property>
  <property name="meta.media.0.codec.pix_fmt">yuv420p10le</property>
  <property name="meta.media.0.codec.sample_aspect_ratio">1</property>
  <property name="meta.media.0.codec.colorspace">709</property>
  <property name="meta.media.0.codec.color_trc">1</property>
  <property name="meta.media.0.codec.name">hevc</property>
  <property name="meta.media.0.codec.long_name">HEVC (High Efficiency Video Coding)</property>
  <property name="meta.media.0.codec.bit_rate">0</property>
  <property name="meta.attr.0.stream.BPS-eng.markup">2108560</property>
  <property name="meta.attr.0.stream.DURATION-eng.markup">00:24:09.615000000</property>
  <property name="meta.attr.0.stream.NUMBER_OF_FRAMES-eng.markup">34756</property>
  <property name="meta.attr.0.stream.NUMBER_OF_BYTES-eng.markup">382075037</property>
  <property name="meta.attr.0.stream._STATISTICS_WRITING_APP-eng.markup">mkvmerge v52.0.0 ('Secret For The Mad') 64-bit</property>
  <property name="meta.attr.0.stream._STATISTICS_WRITING_DATE_UTC-eng.markup">2022-11-10 08:26:59</property>
  <property name="meta.attr.0.stream._STATISTICS_TAGS-eng.markup">BPS DURATION NUMBER_OF_FRAMES NUMBER_OF_BYTES</property>
  <property name="meta.media.1.stream.type">audio</property>
  <property name="meta.media.1.codec.sample_fmt">fltp</property>
  <property name="meta.media.1.codec.sample_rate">48000</property>
  <property name="meta.media.1.codec.channels">2</property>
  <property name="meta.media.1.codec.name">ac3</property>
  <property name="meta.media.1.codec.long_name">ATSC A/52A (AC-3)</property>
  <property name="meta.media.1.codec.bit_rate">448000</property>
  <property name="meta.attr.1.stream.language.markup">jpn</property>
  <property name="meta.attr.1.stream.title.markup">Japanese DVD AC-3 DD_2.0</property>
  <property name="meta.attr.1.stream.BPS-eng.markup">448000</property>
  <property name="meta.attr.1.stream.DURATION-eng.markup">00:24:09.536000000</property>
  <property name="meta.attr.1.stream.NUMBER_OF_FRAMES-eng.markup">45298</property>
  <property name="meta.attr.1.stream.NUMBER_OF_BYTES-eng.markup">81174016</property>
  <property name="meta.attr.1.stream._STATISTICS_WRITING_APP-eng.markup">mkvmerge v52.0.0 ('Secret For The Mad') 64-bit</property>
  <property name="meta.attr.1.stream._STATISTICS_WRITING_DATE_UTC-eng.markup">2022-11-10 08:26:59</property>
  <property name="meta.attr.1.stream._STATISTICS_TAGS-eng.markup">BPS DURATION NUMBER_OF_FRAMES NUMBER_OF_BYTES</property>
  <property name="meta.media.2.stream.type">audio</property>
  <property name="meta.media.2.codec.sample_fmt">fltp</property>
  <property name="meta.media.2.codec.sample_rate">44100</property>
  <property name="meta.media.2.codec.channels">2</property>
  <property name="meta.media.2.codec.name">aac</property>
  <property name="meta.media.2.codec.long_name">AAC (Advanced Audio Coding)</property>
  <property name="meta.media.2.codec.bit_rate">0</property>
  <property name="meta.attr.2.stream.language.markup">eng</property>
  <property name="meta.attr.2.stream.title.markup">English AAC DD_2.0</property>
  <property name="meta.attr.2.stream.BPS-eng.markup">146545</property>
  <property name="meta.attr.2.stream.DURATION-eng.markup">00:23:54.831000000</property>
  <property name="meta.attr.2.stream.NUMBER_OF_FRAMES-eng.markup">61793</property>
  <property name="meta.attr.2.stream.NUMBER_OF_BYTES-eng.markup">26283445</property>
  <property name="meta.attr.2.stream._STATISTICS_WRITING_APP-eng.markup">mkvmerge v52.0.0 ('Secret For The Mad') 64-bit</property>
  <property name="meta.attr.2.stream._STATISTICS_WRITING_DATE_UTC-eng.markup">2022-11-10 08:26:59</property>
  <property name="meta.attr.2.stream._STATISTICS_TAGS-eng.markup">BPS DURATION NUMBER_OF_FRAMES NUMBER_OF_BYTES</property>
  <property name="meta.media.3.codec.name">ssa</property>
  <property name="meta.media.3.codec.long_name">ASS (Advanced SubStation Alpha) subtitle</property>
  <property name="meta.media.3.codec.bit_rate">0</property>
  <property name="meta.attr.3.stream.language.markup">eng</property>
  <property name="meta.attr.3.stream.title.markup">English (Full) ASS</property>
  <property name="meta.attr.3.stream.BPS-eng.markup">74</property>
  <property name="meta.attr.3.stream.DURATION-eng.markup">00:23:48.320000000</property>
  <property name="meta.attr.3.stream.NUMBER_OF_FRAMES-eng.markup">257</property>
  <property name="meta.attr.3.stream.NUMBER_OF_BYTES-eng.markup">13298</property>
  <property name="meta.attr.3.stream._STATISTICS_WRITING_APP-eng.markup">mkvmerge v52.0.0 ('Secret For The Mad') 64-bit</property>
  <property name="meta.attr.3.stream._STATISTICS_WRITING_DATE_UTC-eng.markup">2022-11-10 08:26:59</property>
  <property name="meta.attr.3.stream._STATISTICS_TAGS-eng.markup">BPS DURATION NUMBER_OF_FRAMES NUMBER_OF_BYTES</property>
  <property name="meta.media.4.codec.name">ssa</property>
  <property name="meta.media.4.codec.long_name">ASS (Advanced SubStation Alpha) subtitle</property>
  <property name="meta.media.4.codec.bit_rate">0</property>
  <property name="meta.attr.4.stream.language.markup">eng</property>
  <property name="meta.attr.4.stream.title.markup">English (Titles &amp; Signs) ASS</property>
  <property name="meta.attr.4.stream.BPS-eng.markup">1</property>
  <property name="meta.attr.4.stream.DURATION-eng.markup">00:21:23.490000000</property>
  <property name="meta.attr.4.stream.NUMBER_OF_FRAMES-eng.markup">3</property>
  <property name="meta.attr.4.stream.NUMBER_OF_BYTES-eng.markup">190</property>
  <property name="meta.attr.4.stream._STATISTICS_WRITING_APP-eng.markup">mkvmerge v52.0.0 ('Secret For The Mad') 64-bit</property>
  <property name="meta.attr.4.stream._STATISTICS_WRITING_DATE_UTC-eng.markup">2022-11-10 08:26:59</property>
  <property name="meta.attr.4.stream._STATISTICS_TAGS-eng.markup">BPS DURATION NUMBER_OF_FRAMES NUMBER_OF_BYTES</property>
  <property name="meta.media.5.codec.name">ssa</property>
  <property name="meta.media.5.codec.long_name">ASS (Advanced SubStation Alpha) subtitle</property>
  <property name="meta.media.5.codec.bit_rate">0</property>
  <property name="meta.attr.5.stream.language.markup">ara</property>
  <property name="meta.attr.5.stream.title.markup">Arabic</property>
  <property name="meta.attr.5.stream.BPS-eng.markup">101</property>
  <property name="meta.attr.5.stream.DURATION-eng.markup">00:22:09.320000000</property>
  <property name="meta.attr.5.stream.NUMBER_OF_FRAMES-eng.markup">280</property>
  <property name="meta.attr.5.stream.NUMBER_OF_BYTES-eng.markup">16903</property>
  <property name="meta.attr.5.stream._STATISTICS_WRITING_APP-eng.markup">mkvmerge v52.0.0 ('Secret For The Mad') 64-bit</property>
  <property name="meta.attr.5.stream._STATISTICS_WRITING_DATE_UTC-eng.markup">2022-11-10 08:26:59</property>
  <property name="meta.attr.5.stream._STATISTICS_TAGS-eng.markup">BPS DURATION NUMBER_OF_FRAMES NUMBER_OF_BYTES</property>
  <property name="meta.media.6.stream.type">video</property>
  <property name="meta.media.6.stream.frame_rate">23.976</property>
  <property name="meta.media.6.stream.sample_aspect_ratio">1</property>
  <property name="meta.media.6.codec.width">1440</property>
  <property name="meta.media.6.codec.height">1080</property>
  <property name="meta.media.6.codec.rotate">0</property>
  <property name="meta.media.6.codec.pix_fmt">yuv420p10le</property>
  <property name="meta.media.6.codec.sample_aspect_ratio">1</property>
  <property name="meta.media.6.codec.colorspace">709</property>
  <property name="meta.media.6.codec.color_trc">1</property>
  <property name="meta.media.6.codec.name">hevc</property>
  <property name="meta.media.6.codec.long_name">HEVC (High Efficiency Video Coding)</property>
  <property name="meta.media.6.codec.bit_rate">0</property>
  <property name="meta.attr.6.stream.BPS-eng.markup">2108560</property>
  <property name="meta.attr.6.stream.DURATION-eng.markup">00:24:09.615000000</property>
  <property name="meta.attr.6.stream.NUMBER_OF_FRAMES-eng.markup">34756</property>
  <property name="meta.attr.6.stream.NUMBER_OF_BYTES-eng.markup">382075037</property>
  <property name="meta.attr.6.stream._STATISTICS_WRITING_APP-eng.markup">mkvmerge v52.0.0 ('Secret For The Mad') 64-bit</property>
  <property name="meta.attr.6.stream._STATISTICS_WRITING_DATE_UTC-eng.markup">2022-11-10 08:26:59</property>
  <property name="meta.attr.6.stream._STATISTICS_TAGS-eng.markup">BPS DURATION NUMBER_OF_FRAMES NUMBER_OF_BYTES</property>
  <property name="meta.media.7.stream.type">audio</property>
  <property name="meta.media.7.codec.sample_fmt">fltp</property>
  <property name="meta.media.7.codec.sample_rate">48000</property>
  <property name="meta.media.7.codec.channels">2</property>
  <property name="meta.media.7.codec.name">ac3</property>
  <property name="meta.media.7.codec.long_name">ATSC A/52A (AC-3)</property>
  <property name="meta.media.7.codec.bit_rate">0</property>
  <property name="meta.attr.7.stream.language.markup">jpn</property>
  <property name="meta.attr.7.stream.title.markup">Japanese DVD AC-3 DD_2.0</property>
  <property name="meta.attr.7.stream.BPS-eng.markup">448000</property>
  <property name="meta.attr.7.stream.DURATION-eng.markup">00:24:09.536000000</property>
  <property name="meta.attr.7.stream.NUMBER_OF_FRAMES-eng.markup">45298</property>
  <property name="meta.attr.7.stream.NUMBER_OF_BYTES-eng.markup">81174016</property>
  <property name="meta.attr.7.stream._STATISTICS_WRITING_APP-eng.markup">mkvmerge v52.0.0 ('Secret For The Mad') 64-bit</property>
  <property name="meta.attr.7.stream._STATISTICS_WRITING_DATE_UTC-eng.markup">2022-11-10 08:26:59</property>
  <property name="meta.attr.7.stream._STATISTICS_TAGS-eng.markup">BPS DURATION NUMBER_OF_FRAMES NUMBER_OF_BYTES</property>
  <property name="meta.media.8.stream.type">audio</property>
  <property name="meta.media.8.codec.sample_fmt">fltp</property>
  <property name="meta.media.8.codec.sample_rate">44100</property>
  <property name="meta.media.8.codec.channels">2</property>
  <property name="meta.media.8.codec.name">aac</property>
  <property name="meta.media.8.codec.long_name">AAC (Advanced Audio Coding)</property>
  <property name="meta.media.8.codec.bit_rate">0</property>
  <property name="meta.attr.8.stream.language.markup">eng</property>
  <property name="meta.attr.8.stream.title.markup">English AAC DD_2.0</property>
  <property name="meta.attr.8.stream.BPS-eng.markup">146545</property>
  <property name="meta.attr.8.stream.DURATION-eng.markup">00:23:54.831000000</property>
  <property name="meta.attr.8.stream.NUMBER_OF_FRAMES-eng.markup">61793</property>
  <property name="meta.attr.8.stream.NUMBER_OF_BYTES-eng.markup">26283445</property>
  <property name="meta.attr.8.stream._STATISTICS_WRITING_APP-eng.markup">mkvmerge v52.0.0 ('Secret For The Mad') 64-bit</property>
  <property name="meta.attr.8.stream._STATISTICS_WRITING_DATE_UTC-eng.markup">2022-11-10 08:26:59</property>
  <property name="meta.attr.8.stream._STATISTICS_TAGS-eng.markup">BPS DURATION NUMBER_OF_FRAMES NUMBER_OF_BYTES</property>
  <property name="meta.media.9.codec.name">ssa</property>
  <property name="meta.media.9.codec.long_name">ASS (Advanced SubStation Alpha) subtitle</property>
  <property name="meta.media.9.codec.bit_rate">0</property>
  <property name="meta.attr.9.stream.language.markup">eng</property>
  <property name="meta.attr.9.stream.title.markup">English (Full) ASS</property>
  <property name="meta.attr.9.stream.BPS-eng.markup">74</property>
  <property name="meta.attr.9.stream.DURATION-eng.markup">00:23:48.320000000</property>
  <property name="meta.attr.9.stream.NUMBER_OF_FRAMES-eng.markup">257</property>
  <property name="meta.attr.9.stream.NUMBER_OF_BYTES-eng.markup">13298</property>
  <property name="meta.attr.9.stream._STATISTICS_WRITING_APP-eng.markup">mkvmerge v52.0.0 ('Secret For The Mad') 64-bit</property>
  <property name="meta.attr.9.stream._STATISTICS_WRITING_DATE_UTC-eng.markup">2022-11-10 08:26:59</property>
  <property name="meta.attr.9.stream._STATISTICS_TAGS-eng.markup">BPS DURATION NUMBER_OF_FRAMES NUMBER_OF_BYTES</property>
  <property name="meta.media.10.codec.name">ssa</property>
  <property name="meta.media.10.codec.long_name">ASS (Advanced SubStation Alpha) subtitle</property>
  <property name="meta.media.10.codec.bit_rate">0</property>
  <property name="meta.attr.10.stream.language.markup">eng</property>
  <property name="meta.attr.10.stream.title.markup">English (Titles &amp; Signs) ASS</property>
  <property name="meta.attr.10.stream.BPS-eng.markup">1</property>
  <property name="meta.attr.10.stream.DURATION-eng.markup">00:21:23.490000000</property>
  <property name="meta.attr.10.stream.NUMBER_OF_FRAMES-eng.markup">3</property>
  <property name="meta.attr.10.stream.NUMBER_OF_BYTES-eng.markup">190</property>
  <property name="meta.attr.10.stream._STATISTICS_WRITING_APP-eng.markup">mkvmerge v52.0.0 ('Secret For The Mad') 64-bit</property>
  <property name="meta.attr.10.stream._STATISTICS_WRITING_DATE_UTC-eng.markup">2022-11-10 08:26:59</property>
  <property name="meta.attr.10.stream._STATISTICS_TAGS-eng.markup">BPS DURATION NUMBER_OF_FRAMES NUMBER_OF_BYTES</property>
  <property name="meta.media.11.codec.name">ssa</property>
  <property name="meta.media.11.codec.long_name">ASS (Advanced SubStation Alpha) subtitle</property>
  <property name="meta.media.11.codec.bit_rate">0</property>
  <property name="meta.attr.11.stream.language.markup">ara</property>
  <property name="meta.attr.11.stream.title.markup">Arabic</property>
  <property name="meta.attr.11.stream.BPS-eng.markup">101</property>
  <property name="meta.attr.11.stream.DURATION-eng.markup">00:22:09.320000000</property>
  <property name="meta.attr.11.stream.NUMBER_OF_FRAMES-eng.markup">280</property>
  <property name="meta.attr.11.stream.NUMBER_OF_BYTES-eng.markup">16903</property>
  <property name="meta.attr.11.stream._STATISTICS_WRITING_APP-eng.markup">mkvmerge v52.0.0 ('Secret For The Mad') 64-bit</property>
  <property name="meta.attr.11.stream._STATISTICS_WRITING_DATE_UTC-eng.markup">2022-11-10 08:26:59</property>
  <property name="meta.attr.11.stream._STATISTICS_TAGS-eng.markup">BPS DURATION NUMBER_OF_FRAMES NUMBER_OF_BYTES</property>
  <property name="meta.attr.title.markup">Monster : Chapter 23 : Eva's Confession</property>
  <property name="meta.attr.encoder.markup">libebml v1.4.1 + libmatroska v1.6.2</property>
  <property name="meta.attr.creation_time.markup">2022-11-10T08:26:59.000000Z</property>
  <property name="meta.media.sample_aspect_num">1</property>
  <property name="meta.media.sample_aspect_den">1</property>
  <property name="meta.media.frame_rate_num">24000</property>
  <property name="meta.media.frame_rate_den">1001</property>
  <property name="meta.media.colorspace">709</property>
  <property name="meta.media.color_trc">1</property>
  <property name="meta.media.has_b_frames">2</property>
  <property name="meta.media.width">1440</property>
  <property name="meta.media.height">1080</property>
  <property name="meta.media.color_range">mpeg</property>
  <property name="meta.media.top_field_first">0</property>
  <property name="meta.media.progressive">1</property>
  <property name="set.test_audio">1</property>
  <property name="set.test_image">0</property>
 </producer>
 <producer id="producer11" in="00:00:00.000" out="00:16:06.423">
  <property name="length">23171</property>
  <property name="eof">pause</property>
  <property name="resource">1.500000:/home/redxherring/Videos/Monster/Monster-Editing/Orig/Monster - Chapter 23 - Eva's Confession.mkv</property>
  <property name="aspect_ratio">1</property>
  <property name="meta.media.nb_streams">44</property>
  <property name="meta.media.0.stream.type">video</property>
  <property name="meta.media.0.stream.frame_rate">23.976</property>
  <property name="meta.media.0.stream.sample_aspect_ratio">1</property>
  <property name="meta.media.0.codec.width">1440</property>
  <property name="meta.media.0.codec.height">1080</property>
  <property name="meta.media.0.codec.rotate">0</property>
  <property name="meta.media.0.codec.pix_fmt">yuv420p10le</property>
  <property name="meta.media.0.codec.sample_aspect_ratio">1</property>
  <property name="meta.media.0.codec.colorspace">709</property>
  <property name="meta.media.0.codec.color_trc">1</property>
  <property name="meta.media.0.codec.name">hevc</property>
  <property name="meta.media.0.codec.long_name">HEVC (High Efficiency Video Coding)</property>
  <property name="meta.media.0.codec.bit_rate">0</property>
  <property name="meta.attr.0.stream.BPS-eng.markup">2108560</property>
  <property name="meta.attr.0.stream.DURATION-eng.markup">00:24:09.615000000</property>
  <property name="meta.attr.0.stream.NUMBER_OF_FRAMES-eng.markup">34756</property>
  <property name="meta.attr.0.stream.NUMBER_OF_BYTES-eng.markup">382075037</property>
  <property name="meta.attr.0.stream._STATISTICS_WRITING_APP-eng.markup">mkvmerge v52.0.0 ('Secret For The Mad') 64-bit</property>
  <property name="meta.attr.0.stream._STATISTICS_WRITING_DATE_UTC-eng.markup">2022-11-10 08:26:59</property>
  <property name="meta.attr.0.stream._STATISTICS_TAGS-eng.markup">BPS DURATION NUMBER_OF_FRAMES NUMBER_OF_BYTES</property>
  <property name="meta.media.1.stream.type">audio</property>
  <property name="meta.media.1.codec.sample_fmt">fltp</property>
  <property name="meta.media.1.codec.sample_rate">48000</property>
  <property name="meta.media.1.codec.channels">2</property>
  <property name="meta.media.1.codec.name">ac3</property>
  <property name="meta.media.1.codec.long_name">ATSC A/52A (AC-3)</property>
  <property name="meta.media.1.codec.bit_rate">448000</property>
  <property name="meta.attr.1.stream.language.markup">jpn</property>
  <property name="meta.attr.1.stream.title.markup">Japanese DVD AC-3 DD_2.0</property>
  <property name="meta.attr.1.stream.BPS-eng.markup">448000</property>
  <property name="meta.attr.1.stream.DURATION-eng.markup">00:24:09.536000000</property>
  <property name="meta.attr.1.stream.NUMBER_OF_FRAMES-eng.markup">45298</property>
  <property name="meta.attr.1.stream.NUMBER_OF_BYTES-eng.markup">81174016</property>
  <property name="meta.attr.1.stream._STATISTICS_WRITING_APP-eng.markup">mkvmerge v52.0.0 ('Secret For The Mad') 64-bit</property>
  <property name="meta.attr.1.stream._STATISTICS_WRITING_DATE_UTC-eng.markup">2022-11-10 08:26:59</property>
  <property name="meta.attr.1.stream._STATISTICS_TAGS-eng.markup">BPS DURATION NUMBER_OF_FRAMES NUMBER_OF_BYTES</property>
  <property name="meta.media.2.stream.type">audio</property>
  <property name="meta.media.2.codec.sample_fmt">fltp</property>
  <property name="meta.media.2.codec.sample_rate">44100</property>
  <property name="meta.media.2.codec.channels">2</property>
  <property name="meta.media.2.codec.name">aac</property>
  <property name="meta.media.2.codec.long_name">AAC (Advanced Audio Coding)</property>
  <property name="meta.media.2.codec.bit_rate">0</property>
  <property name="meta.attr.2.stream.language.markup">eng</property>
  <property name="meta.attr.2.stream.title.markup">English AAC DD_2.0</property>
  <property name="meta.attr.2.stream.BPS-eng.markup">146545</property>
  <property name="meta.attr.2.stream.DURATION-eng.markup">00:23:54.831000000</property>
  <property name="meta.attr.2.stream.NUMBER_OF_FRAMES-eng.markup">61793</property>
  <property name="meta.attr.2.stream.NUMBER_OF_BYTES-eng.markup">26283445</property>
  <property name="meta.attr.2.stream._STATISTICS_WRITING_APP-eng.markup">mkvmerge v52.0.0 ('Secret For The Mad') 64-bit</property>
  <property name="meta.attr.2.stream._STATISTICS_WRITING_DATE_UTC-eng.markup">2022-11-10 08:26:59</property>
  <property name="meta.attr.2.stream._STATISTICS_TAGS-eng.markup">BPS DURATION NUMBER_OF_FRAMES NUMBER_OF_BYTES</property>
  <property name="meta.media.3.codec.name">ssa</property>
  <property name="meta.media.3.codec.long_name">ASS (Advanced SubStation Alpha) subtitle</property>
  <property name="meta.media.3.codec.bit_rate">0</property>
  <property name="meta.attr.3.stream.language.markup">eng</property>
  <property name="meta.attr.3.stream.title.markup">English (Full) ASS</property>
  <property name="meta.attr.3.stream.BPS-eng.markup">74</property>
  <property name="meta.attr.3.stream.DURATION-eng.markup">00:23:48.320000000</property>
  <property name="meta.attr.3.stream.NUMBER_OF_FRAMES-eng.markup">257</property>
  <property name="meta.attr.3.stream.NUMBER_OF_BYTES-eng.markup">13298</property>
  <property name="meta.attr.3.stream._STATISTICS_WRITING_APP-eng.markup">mkvmerge v52.0.0 ('Secret For The Mad') 64-bit</property>
  <property name="meta.attr.3.stream._STATISTICS_WRITING_DATE_UTC-eng.markup">2022-11-10 08:26:59</property>
  <property name="meta.attr.3.stream._STATISTICS_TAGS-eng.markup">BPS DURATION NUMBER_OF_FRAMES NUMBER_OF_BYTES</property>
  <property name="meta.media.4.codec.name">ssa</property>
  <property name="meta.media.4.codec.long_name">ASS (Advanced SubStation Alpha) subtitle</property>
  <property name="meta.media.4.codec.bit_rate">0</property>
  <property name="meta.attr.4.stream.language.markup">eng</property>
  <property name="meta.attr.4.stream.title.markup">English (Titles &amp; Signs) ASS</property>
  <property name="meta.attr.4.stream.BPS-eng.markup">1</property>
  <property name="meta.attr.4.stream.DURATION-eng.markup">00:21:23.490000000</property>
  <property name="meta.attr.4.stream.NUMBER_OF_FRAMES-eng.markup">3</property>
  <property name="meta.attr.4.stream.NUMBER_OF_BYTES-eng.markup">190</property>
  <property name="meta.attr.4.stream._STATISTICS_WRITING_APP-eng.markup">mkvmerge v52.0.0 ('Secret For The Mad') 64-bit</property>
  <property name="meta.attr.4.stream._STATISTICS_WRITING_DATE_UTC-eng.markup">2022-11-10 08:26:59</property>
  <property name="meta.attr.4.stream._STATISTICS_TAGS-eng.markup">BPS DURATION NUMBER_OF_FRAMES NUMBER_OF_BYTES</property>
  <property name="meta.media.5.codec.name">ssa</property>
  <property name="meta.media.5.codec.long_name">ASS (Advanced SubStation Alpha) subtitle</property>
  <property name="meta.media.5.codec.bit_rate">0</property>
  <property name="meta.attr.5.stream.language.markup">ara</property>
  <property name="meta.attr.5.stream.title.markup">Arabic</property>
  <property name="meta.attr.5.stream.BPS-eng.markup">101</property>
  <property name="meta.attr.5.stream.DURATION-eng.markup">00:22:09.320000000</property>
  <property name="meta.attr.5.stream.NUMBER_OF_FRAMES-eng.markup">280</property>
  <property name="meta.attr.5.stream.NUMBER_OF_BYTES-eng.markup">16903</property>
  <property name="meta.attr.5.stream._STATISTICS_WRITING_APP-eng.markup">mkvmerge v52.0.0 ('Secret For The Mad') 64-bit</property>
  <property name="meta.attr.5.stream._STATISTICS_WRITING_DATE_UTC-eng.markup">2022-11-10 08:26:59</property>
  <property name="meta.attr.5.stream._STATISTICS_TAGS-eng.markup">BPS DURATION NUMBER_OF_FRAMES NUMBER_OF_BYTES</property>
  <property name="meta.media.6.stream.type">video</property>
  <property name="meta.media.6.stream.frame_rate">23.976</property>
  <property name="meta.media.6.stream.sample_aspect_ratio">1</property>
  <property name="meta.media.6.codec.width">1440</property>
  <property name="meta.media.6.codec.height">1080</property>
  <property name="meta.media.6.codec.rotate">0</property>
  <property name="meta.media.6.codec.pix_fmt">yuv420p10le</property>
  <property name="meta.media.6.codec.sample_aspect_ratio">1</property>
  <property name="meta.media.6.codec.colorspace">709</property>
  <property name="meta.media.6.codec.color_trc">1</property>
  <property name="meta.media.6.codec.name">hevc</property>
  <property name="meta.media.6.codec.long_name">HEVC (High Efficiency Video Coding)</property>
  <property name="meta.media.6.codec.bit_rate">0</property>
  <property name="meta.attr.6.stream.BPS-eng.markup">2108560</property>
  <property name="meta.attr.6.stream.DURATION-eng.markup">00:24:09.615000000</property>
  <property name="meta.attr.6.stream.NUMBER_OF_FRAMES-eng.markup">34756</property>
  <property name="meta.attr.6.stream.NUMBER_OF_BYTES-eng.markup">382075037</property>
  <property name="meta.attr.6.stream._STATISTICS_WRITING_APP-eng.markup">mkvmerge v52.0.0 ('Secret For The Mad') 64-bit</property>
  <property name="meta.attr.6.stream._STATISTICS_WRITING_DATE_UTC-eng.markup">2022-11-10 08:26:59</property>
  <property name="meta.attr.6.stream._STATISTICS_TAGS-eng.markup">BPS DURATION NUMBER_OF_FRAMES NUMBER_OF_BYTES</property>
  <property name="meta.media.7.stream.type">audio</property>
  <property name="meta.media.7.codec.sample_fmt">fltp</property>
  <property name="meta.media.7.codec.sample_rate">48000</property>
  <property name="meta.media.7.codec.channels">2</property>
  <property name="meta.media.7.codec.name">ac3</property>
  <property name="meta.media.7.codec.long_name">ATSC A/52A (AC-3)</property>
  <property name="meta.media.7.codec.bit_rate">0</property>
  <property name="meta.attr.7.stream.language.markup">jpn</property>
  <property name="meta.attr.7.stream.title.markup">Japanese DVD AC-3 DD_2.0</property>
  <property name="meta.attr.7.stream.BPS-eng.markup">448000</property>
  <property name="meta.attr.7.stream.DURATION-eng.markup">00:24:09.536000000</property>
  <property name="meta.attr.7.stream.NUMBER_OF_FRAMES-eng.markup">45298</property>
  <property name="meta.attr.7.stream.NUMBER_OF_BYTES-eng.markup">81174016</property>
  <property name="meta.attr.7.stream._STATISTICS_WRITING_APP-eng.markup">mkvmerge v52.0.0 ('Secret For The Mad') 64-bit</property>
  <property name="meta.attr.7.stream._STATISTICS_WRITING_DATE_UTC-eng.markup">2022-11-10 08:26:59</property>
  <property name="meta.attr.7.stream._STATISTICS_TAGS-eng.markup">BPS DURATION NUMBER_OF_FRAMES NUMBER_OF_BYTES</property>
  <property name="meta.media.8.stream.type">audio</property>
  <property name="meta.media.8.codec.sample_fmt">fltp</property>
  <property name="meta.media.8.codec.sample_rate">44100</property>
  <property name="meta.media.8.codec.channels">2</property>
  <property name="meta.media.8.codec.name">aac</property>
  <property name="meta.media.8.codec.long_name">AAC (Advanced Audio Coding)</property>
  <property name="meta.media.8.codec.bit_rate">0</property>
  <property name="meta.attr.8.stream.language.markup">eng</property>
  <property name="meta.attr.8.stream.title.markup">English AAC DD_2.0</property>
  <property name="meta.attr.8.stream.BPS-eng.markup">146545</property>
  <property name="meta.attr.8.stream.DURATION-eng.markup">00:23:54.831000000</property>
  <property name="meta.attr.8.stream.NUMBER_OF_FRAMES-eng.markup">61793</property>
  <property name="meta.attr.8.stream.NUMBER_OF_BYTES-eng.markup">26283445</property>
  <property name="meta.attr.8.stream._STATISTICS_WRITING_APP-eng.markup">mkvmerge v52.0.0 ('Secret For The Mad') 64-bit</property>
  <property name="meta.attr.8.stream._STATISTICS_WRITING_DATE_UTC-eng.markup">2022-11-10 08:26:59</property>
  <property name="meta.attr.8.stream._STATISTICS_TAGS-eng.markup">BPS DURATION NUMBER_OF_FRAMES NUMBER_OF_BYTES</property>
  <property name="meta.media.9.codec.name">ssa</property>
  <property name="meta.media.9.codec.long_name">ASS (Advanced SubStation Alpha) subtitle</property>
  <property name="meta.media.9.codec.bit_rate">0</property>
  <property name="meta.attr.9.stream.language.markup">eng</property>
  <property name="meta.attr.9.stream.title.markup">English (Full) ASS</property>
  <property name="meta.attr.9.stream.BPS-eng.markup">74</property>
  <property name="meta.attr.9.stream.DURATION-eng.markup">00:23:48.320000000</property>
  <property name="meta.attr.9.stream.NUMBER_OF_FRAMES-eng.markup">257</property>
  <property name="meta.attr.9.stream.NUMBER_OF_BYTES-eng.markup">13298</property>
  <property name="meta.attr.9.stream._STATISTICS_WRITING_APP-eng.markup">mkvmerge v52.0.0 ('Secret For The Mad') 64-bit</property>
  <property name="meta.attr.9.stream._STATISTICS_WRITING_DATE_UTC-eng.markup">2022-11-10 08:26:59</property>
  <property name="meta.attr.9.stream._STATISTICS_TAGS-eng.markup">BPS DURATION NUMBER_OF_FRAMES NUMBER_OF_BYTES</property>
  <property name="meta.media.10.codec.name">ssa</property>
  <property name="meta.media.10.codec.long_name">ASS (Advanced SubStation Alpha) subtitle</property>
  <property name="meta.media.10.codec.bit_rate">0</property>
  <property name="meta.attr.10.stream.language.markup">eng</property>
  <property name="meta.attr.10.stream.title.markup">English (Titles &amp; Signs) ASS</property>
  <property name="meta.attr.10.stream.BPS-eng.markup">1</property>
  <property name="meta.attr.10.stream.DURATION-eng.markup">00:21:23.490000000</property>
  <property name="meta.attr.10.stream.NUMBER_OF_FRAMES-eng.markup">3</property>
  <property name="meta.attr.10.stream.NUMBER_OF_BYTES-eng.markup">190</property>
  <property name="meta.attr.10.stream._STATISTICS_WRITING_APP-eng.markup">mkvmerge v52.0.0 ('Secret For The Mad') 64-bit</property>
  <property name="meta.attr.10.stream._STATISTICS_WRITING_DATE_UTC-eng.markup">2022-11-10 08:26:59</property>
  <property name="meta.attr.10.stream._STATISTICS_TAGS-eng.markup">BPS DURATION NUMBER_OF_FRAMES NUMBER_OF_BYTES</property>
  <property name="meta.media.11.codec.name">ssa</property>
  <property name="meta.media.11.codec.long_name">ASS (Advanced SubStation Alpha) subtitle</property>
  <property name="meta.media.11.codec.bit_rate">0</property>
  <property name="meta.attr.11.stream.language.markup">ara</property>
  <property name="meta.attr.11.stream.title.markup">Arabic</property>
  <property name="meta.attr.11.stream.BPS-eng.markup">101</property>
  <property name="meta.attr.11.stream.DURATION-eng.markup">00:22:09.320000000</property>
  <property name="meta.attr.11.stream.NUMBER_OF_FRAMES-eng.markup">280</property>
  <property name="meta.attr.11.stream.NUMBER_OF_BYTES-eng.markup">16903</property>
  <property name="meta.attr.11.stream._STATISTICS_WRITING_APP-eng.markup">mkvmerge v52.0.0 ('Secret For The Mad') 64-bit</property>
  <property name="meta.attr.11.stream._STATISTICS_WRITING_DATE_UTC-eng.markup">2022-11-10 08:26:59</property>
  <property name="meta.attr.11.stream._STATISTICS_TAGS-eng.markup">BPS DURATION NUMBER_OF_FRAMES NUMBER_OF_BYTES</property>
  <property name="meta.attr.title.markup">Monster : Chapter 23 : Eva's Confession</property>
  <property name="meta.attr.encoder.markup">libebml v1.4.1 + libmatroska v1.6.2</property>
  <property name="meta.attr.creation_time.markup">2022-11-10T08:26:59.000000Z</property>
  <property name="seekable">1</property>
  <property name="meta.media.sample_aspect_num">1</property>
  <property name="meta.media.sample_aspect_den">1</property>
  <property name="format">3</property>
  <property name="audio_index">1</property>
  <property name="video_index">0</property>
  <property name="mute_on_pause">1</property>
  <property name="warp_speed">1.5</property>
  <property name="warp_resource">/home/redxherring/Videos/Monster/Monster-Editing/Orig/Monster - Chapter 23 - Eva's Confession.mkv</property>
  <property name="mlt_service">timewarp</property>
  <property name="kdenlive:multistreams">1</property>
  <property name="set.test_audio">1</property>
  <property name="set.test_image">0</property>
  <property name="kdenlive:id">2</property>
  <property name="warp_pitch">0</property>
  <property name="meta.media.frame_rate_num">24000</property>
  <property name="meta.media.frame_rate_den">1001</property>
  <property name="meta.media.colorspace">709</property>
  <property name="meta.media.color_trc">1</property>
  <property name="meta.media.has_b_frames">2</property>
  <property name="meta.media.width">1440</property>
  <property name="meta.media.height">1080</property>
  <property name="meta.media.color_range">mpeg</property>
  <property name="meta.media.top_field_first">0</property>
  <property name="meta.media.progressive">1</property>
 </producer>
 <playlist id="playlist6">
  <blank length="00:12:30.530"/>
  <entry producer="producer10" in="00:13:02.878" out="00:22:14.723">
   <property name="kdenlive:id">2</property>
  </entry>
  <entry producer="producer11" in="00:14:49.883" out="00:14:55.347">
   <property name="kdenlive:id">2</property>
  </entry>
 </playlist>
 <playlist id="playlist7"/>
 <tractor id="tractor3" in="00:00:00.000" out="00:21:47.881">
  <property name="kdenlive:trackheight">67</property>
  <property name="kdenlive:timeline_active">1</property>
  <property name="kdenlive:collapsed">0</property>
  <property name="kdenlive:thumbs_format"/>
  <property name="kdenlive:audio_rec"/>
  <track hide="audio" producer="playlist6"/>
  <track hide="audio" producer="playlist7"/>
 </tractor>
 <tractor id="tractor4" in="00:00:00.000" out="01:03:57.307">
  <track producer="black_track"/>
  <track producer="tractor0"/>
  <track producer="tractor1"/>
  <track producer="tractor2"/>
  <track producer="tractor3"/>
  <transition id="transition0">
   <property name="a_track">0</property>
   <property name="b_track">1</property>
   <property name="mlt_service">mix</property>
   <property name="kdenlive_id">mix</property>
   <property name="internal_added">237</property>
   <property name="always_active">1</property>
   <property name="accepts_blanks">1</property>
   <property name="sum">1</property>
  </transition>
  <transition id="transition1">
   <property name="a_track">0</property>
   <property name="b_track">2</property>
   <property name="mlt_service">mix</property>
   <property name="kdenlive_id">mix</property>
   <property name="internal_added">237</property>
   <property name="always_active">1</property>
   <property name="accepts_blanks">1</property>
   <property name="sum">1</property>
  </transition>
  <transition id="transition2">
   <property name="a_track">0</property>
   <property name="b_track">3</property>
   <property name="version">0.1</property>
   <property name="mlt_service">frei0r.cairoblend</property>
   <property name="kdenlive_id">frei0r.cairoblend</property>
   <property name="internal_added">237</property>
   <property name="always_active">1</property>
  </transition>
  <transition id="transition3">
   <property name="a_track">0</property>
   <property name="b_track">4</property>
   <property name="version">0.1</property>
   <property name="mlt_service">frei0r.cairoblend</property>
   <property name="kdenlive_id">frei0r.cairoblend</property>
   <property name="internal_added">237</property>
   <property name="always_active">1</property>
  </transition>
  <filter id="filter21">
   <property name="window">75</property>
   <property name="max_gain">20dB</property>
   <property name="mlt_service">volume</property>
   <property name="internal_added">237</property>
   <property name="disable">1</property>
  </filter>
  <filter id="filter22">
   <property name="channel">-1</property>
   <property name="mlt_service">panner</property>
   <property name="internal_added">237</property>
   <property name="start">0.5</property>
   <property name="disable">1</property>
  </filter>
  <filter id="filter23">
   <property name="mlt_service">avfilter.subtitles</property>
   <property name="internal_added">237</property>
   <property name="av.filename">/tmp/1668918559082.srt</property>
   <property name="av.force_style">Outline=0,Shadow=1,</property>
  </filter>
 </tractor>
</mlt>
