<?xml version='1.0' encoding='utf-8'?>
<mlt LC_NUMERIC="C" producer="main_bin" root="/mnt/data1/Anime-Edits/Monster/Monster-Editing/Editing" version="7.28.0">
 <profile colorspace="709" description="960x720 29.97fps" display_aspect_den="3" display_aspect_num="4" frame_rate_den="1001" frame_rate_num="30000" height="720" progressive="1" sample_aspect_den="1" sample_aspect_num="1" width="960"/>
 <chain id="producer22" out="00:23:55.522">
  <property name="length">43023</property>
  <property name="eof">pause</property>
  <property name="resource">/mnt/data1/Anime-Edits/Monster/Monster-Editing/Orig720p/MP4/Ep47.mp4</property>
  <property name="mlt_service">avformat-novalidate</property>
  <property name="audio_index">-1</property>
  <property name="video_index">0</property>
  <property name="meta.media.nb_streams">1</property>
  <property name="meta.media.0.stream.type">video</property>
  <property name="meta.media.0.stream.frame_rate">29.97</property>
  <property name="meta.media.0.stream.sample_aspect_ratio">1</property>
  <property name="meta.media.0.codec.width">960</property>
  <property name="meta.media.0.codec.height">720</property>
  <property name="meta.media.0.codec.rotate">0</property>
  <property name="meta.media.0.codec.pix_fmt">yuv420p</property>
  <property name="meta.media.0.codec.sample_aspect_ratio">1</property>
  <property name="meta.media.0.codec.colorspace">709</property>
  <property name="meta.media.0.codec.color_trc">1</property>
  <property name="meta.media.0.codec.name">h264</property>
  <property name="meta.media.0.codec.long_name">H.264 / AVC / MPEG-4 AVC / MPEG-4 part 10</property>
  <property name="meta.media.0.codec.bit_rate">893630</property>
  <property name="meta.attr.0.stream.handler_name.markup">ISO Media file produced by Google Inc.</property>
  <property name="meta.attr.0.stream.vendor_id.markup">[0][0][0][0]</property>
  <property name="meta.attr.major_brand.markup">isom</property>
  <property name="meta.attr.minor_version.markup">512</property>
  <property name="meta.attr.compatible_brands.markup">isomiso2avc1mp41</property>
  <property name="meta.attr.encoder.markup">Lavf58.76.100</property>
  <property name="seekable">1</property>
  <property name="meta.media.sample_aspect_num">1</property>
  <property name="meta.media.sample_aspect_den">1</property>
  <property name="aspect_ratio">1</property>
  <property name="kdenlive:clipname"/>
  <property name="kdenlive:folderid">-1</property>
  <property name="meta.media.frame_rate_num">114728000</property>
  <property name="meta.media.frame_rate_den">3828089</property>
  <property name="meta.media.colorspace">709</property>
  <property name="meta.media.color_trc">1</property>
  <property name="meta.media.has_b_frames">1</property>
  <property name="meta.media.width">960</property>
  <property name="meta.media.height">720</property>
  <property name="meta.media.color_range">mpeg</property>
  <property name="kdenlive:id">3</property>
  <property name="kdenlive:file_size">161055483</property>
  <property name="kdenlive:file_hash">099095342c8e78f9caf8debf36481086</property>
  <property name="meta.media.top_field_first">0</property>
  <property name="meta.media.progressive">1</property>
  <property name="kdenlive:clip_type">2</property>
  <property name="kdenlive:control_uuid">{d444a73a-e19a-4be8-b7fd-59dbbabfeacf}</property>
 </chain>
 <chain id="producer23" out="00:23:55.522">
  <property name="length">43023</property>
  <property name="eof">pause</property>
  <property name="resource">/mnt/data1/Anime-Edits/Monster/Monster-Editing/Orig720p/MP4/Ep48.mp4</property>
  <property name="mlt_service">avformat-novalidate</property>
  <property name="audio_index">-1</property>
  <property name="video_index">0</property>
  <property name="meta.media.nb_streams">1</property>
  <property name="meta.media.0.stream.type">video</property>
  <property name="meta.media.0.stream.frame_rate">29.97</property>
  <property name="meta.media.0.stream.sample_aspect_ratio">1</property>
  <property name="meta.media.0.codec.width">960</property>
  <property name="meta.media.0.codec.height">720</property>
  <property name="meta.media.0.codec.rotate">0</property>
  <property name="meta.media.0.codec.pix_fmt">yuv420p</property>
  <property name="meta.media.0.codec.sample_aspect_ratio">1</property>
  <property name="meta.media.0.codec.colorspace">709</property>
  <property name="meta.media.0.codec.color_trc">1</property>
  <property name="meta.media.0.codec.name">h264</property>
  <property name="meta.media.0.codec.long_name">H.264 / AVC / MPEG-4 AVC / MPEG-4 part 10</property>
  <property name="meta.media.0.codec.bit_rate">896089</property>
  <property name="meta.attr.0.stream.handler_name.markup">ISO Media file produced by Google Inc.</property>
  <property name="meta.attr.0.stream.vendor_id.markup">[0][0][0][0]</property>
  <property name="meta.attr.major_brand.markup">isom</property>
  <property name="meta.attr.minor_version.markup">512</property>
  <property name="meta.attr.compatible_brands.markup">isomiso2avc1mp41</property>
  <property name="meta.attr.encoder.markup">Lavf58.76.100</property>
  <property name="seekable">1</property>
  <property name="meta.media.sample_aspect_num">1</property>
  <property name="meta.media.sample_aspect_den">1</property>
  <property name="aspect_ratio">1</property>
  <property name="kdenlive:clipname"/>
  <property name="kdenlive:folderid">-1</property>
  <property name="meta.media.frame_rate_num">114728000</property>
  <property name="meta.media.frame_rate_den">3828089</property>
  <property name="meta.media.colorspace">709</property>
  <property name="meta.media.color_trc">1</property>
  <property name="meta.media.has_b_frames">1</property>
  <property name="meta.media.width">960</property>
  <property name="meta.media.height">720</property>
  <property name="meta.media.color_range">mpeg</property>
  <property name="kdenlive:id">4</property>
  <property name="kdenlive:file_size">161501108</property>
  <property name="kdenlive:file_hash">2f35a51f40a7f682820d866bd3069d01</property>
  <property name="meta.media.top_field_first">0</property>
  <property name="meta.media.progressive">1</property>
  <property name="kdenlive:clip_type">2</property>
  <property name="kdenlive:control_uuid">{a9293549-d142-4848-9631-0a3d4a367941}</property>
 </chain>
 <chain id="producer24" out="00:23:55.589">
  <property name="length">43025</property>
  <property name="eof">pause</property>
  <property name="resource">/mnt/data1/Anime-Edits/Monster/Monster-Editing/Orig720p/MP4/Ep49.mp4</property>
  <property name="mlt_service">avformat-novalidate</property>
  <property name="audio_index">-1</property>
  <property name="video_index">0</property>
  <property name="meta.media.nb_streams">1</property>
  <property name="meta.media.0.stream.type">video</property>
  <property name="meta.media.0.stream.frame_rate">29.97</property>
  <property name="meta.media.0.stream.sample_aspect_ratio">1</property>
  <property name="meta.media.0.codec.width">960</property>
  <property name="meta.media.0.codec.height">720</property>
  <property name="meta.media.0.codec.rotate">0</property>
  <property name="meta.media.0.codec.pix_fmt">yuv420p</property>
  <property name="meta.media.0.codec.sample_aspect_ratio">1</property>
  <property name="meta.media.0.codec.colorspace">709</property>
  <property name="meta.media.0.codec.color_trc">1</property>
  <property name="meta.media.0.codec.name">h264</property>
  <property name="meta.media.0.codec.long_name">H.264 / AVC / MPEG-4 AVC / MPEG-4 part 10</property>
  <property name="meta.media.0.codec.bit_rate">846434</property>
  <property name="meta.attr.0.stream.handler_name.markup">ISO Media file produced by Google Inc.</property>
  <property name="meta.attr.0.stream.vendor_id.markup">[0][0][0][0]</property>
  <property name="meta.attr.major_brand.markup">isom</property>
  <property name="meta.attr.minor_version.markup">512</property>
  <property name="meta.attr.compatible_brands.markup">isomiso2avc1mp41</property>
  <property name="meta.attr.encoder.markup">Lavf58.76.100</property>
  <property name="seekable">1</property>
  <property name="meta.media.sample_aspect_num">1</property>
  <property name="meta.media.sample_aspect_den">1</property>
  <property name="aspect_ratio">1</property>
  <property name="kdenlive:clipname"/>
  <property name="kdenlive:folderid">-1</property>
  <property name="meta.media.frame_rate_num">344200000</property>
  <property name="meta.media.frame_rate_den">11484803</property>
  <property name="meta.media.colorspace">709</property>
  <property name="meta.media.color_trc">1</property>
  <property name="meta.media.has_b_frames">1</property>
  <property name="meta.media.width">960</property>
  <property name="meta.media.height">720</property>
  <property name="meta.media.color_range">mpeg</property>
  <property name="kdenlive:id">5</property>
  <property name="kdenlive:file_size">152593613</property>
  <property name="kdenlive:file_hash">d7026c63678c08dd5e5a636ba645c955</property>
  <property name="meta.media.top_field_first">0</property>
  <property name="meta.media.progressive">1</property>
  <property name="kdenlive:clip_type">2</property>
  <property name="kdenlive:control_uuid">{3669b690-d6bc-4db4-a058-e2c30f120bb2}</property>
 </chain>
 <chain id="producer25" out="00:23:55.522">
  <property name="length">43023</property>
  <property name="eof">pause</property>
  <property name="resource">/mnt/data1/Anime-Edits/Monster/Monster-Editing/Orig720p/MP4/Ep50.mp4</property>
  <property name="mlt_service">avformat-novalidate</property>
  <property name="audio_index">-1</property>
  <property name="video_index">0</property>
  <property name="meta.media.nb_streams">1</property>
  <property name="meta.media.0.stream.type">video</property>
  <property name="meta.media.0.stream.frame_rate">29.97</property>
  <property name="meta.media.0.stream.sample_aspect_ratio">1</property>
  <property name="meta.media.0.codec.width">960</property>
  <property name="meta.media.0.codec.height">720</property>
  <property name="meta.media.0.codec.rotate">0</property>
  <property name="meta.media.0.codec.pix_fmt">yuv420p</property>
  <property name="meta.media.0.codec.sample_aspect_ratio">1</property>
  <property name="meta.media.0.codec.colorspace">709</property>
  <property name="meta.media.0.codec.color_trc">1</property>
  <property name="meta.media.0.codec.name">h264</property>
  <property name="meta.media.0.codec.long_name">H.264 / AVC / MPEG-4 AVC / MPEG-4 part 10</property>
  <property name="meta.media.0.codec.bit_rate">841159</property>
  <property name="meta.attr.0.stream.handler_name.markup">ISO Media file produced by Google Inc.</property>
  <property name="meta.attr.0.stream.vendor_id.markup">[0][0][0][0]</property>
  <property name="meta.attr.major_brand.markup">isom</property>
  <property name="meta.attr.minor_version.markup">512</property>
  <property name="meta.attr.compatible_brands.markup">isomiso2avc1mp41</property>
  <property name="meta.attr.encoder.markup">Lavf58.76.100</property>
  <property name="seekable">1</property>
  <property name="meta.media.sample_aspect_num">1</property>
  <property name="meta.media.sample_aspect_den">1</property>
  <property name="aspect_ratio">1</property>
  <property name="kdenlive:clipname"/>
  <property name="kdenlive:folderid">-1</property>
  <property name="meta.media.frame_rate_num">114728000</property>
  <property name="meta.media.frame_rate_den">3828089</property>
  <property name="meta.media.colorspace">709</property>
  <property name="meta.media.color_trc">1</property>
  <property name="meta.media.has_b_frames">1</property>
  <property name="meta.media.width">960</property>
  <property name="meta.media.height">720</property>
  <property name="meta.media.color_range">mpeg</property>
  <property name="kdenlive:id">6</property>
  <property name="kdenlive:file_size">151627835</property>
  <property name="kdenlive:file_hash">e6d22b75c5fd25ec9e71a2e8e74a502b</property>
  <property name="meta.media.top_field_first">0</property>
  <property name="meta.media.progressive">1</property>
  <property name="kdenlive:clip_type">2</property>
  <property name="kdenlive:control_uuid">{7ec1f8d2-a5d1-45a1-94ba-3f8865eac321}</property>
 </chain>
 <chain id="producer9" out="00:23:55.556">
  <property name="length">43024</property>
  <property name="eof">pause</property>
  <property name="resource">/mnt/data1/Anime-Edits/Monster/Monster-Editing/Audio/eng/Ep47.wav</property>
  <property name="mlt_service">avformat</property>
  <property name="meta.media.nb_streams">1</property>
  <property name="meta.media.0.stream.type">audio</property>
  <property name="meta.media.0.codec.sample_fmt">s16</property>
  <property name="meta.media.0.codec.sample_rate">48000</property>
  <property name="meta.media.0.codec.channels">2</property>
  <property name="meta.media.0.codec.name">pcm_s16le</property>
  <property name="meta.media.0.codec.long_name">PCM signed 16-bit little-endian</property>
  <property name="meta.media.0.codec.bit_rate">1536000</property>
  <property name="meta.attr.encoder.markup">Lavf60.16.100</property>
  <property name="seekable">1</property>
  <property name="audio_index">0</property>
  <property name="video_index">-1</property>
  <property name="kdenlive:clipname"/>
  <property name="kdenlive:folderid">-1</property>
  <property name="kdenlive:id">7</property>
  <property name="kdenlive:file_size">137815154</property>
  <property name="kdenlive:file_hash">c869ba9c09ab613d6a0364dcb96d30e9</property>
  <property name="kdenlive:audio_max0">187</property>
  <property name="kdenlive:clip_type">1</property>
  <property name="kdenlive:control_uuid">{ba43f6eb-b24a-46ac-89e2-c2f58bdc6f87}</property>
  <property name="meta.media.0.codec.layout">independent</property>
  <property name="meta.attr.title.markup">Monster : Chapter 47 : The Door To A Nightmare</property>
  <property name="astream">0</property>
 </chain>
 <chain id="producer1" out="00:23:55.522">
  <property name="length">43023</property>
  <property name="eof">pause</property>
  <property name="resource">/mnt/data1/Anime-Edits/Monster/Monster-Editing/Audio/eng/Ep48.wav</property>
  <property name="mlt_service">avformat</property>
  <property name="meta.media.nb_streams">1</property>
  <property name="meta.media.0.stream.type">audio</property>
  <property name="meta.media.0.codec.sample_fmt">s16</property>
  <property name="meta.media.0.codec.sample_rate">48000</property>
  <property name="meta.media.0.codec.channels">2</property>
  <property name="meta.media.0.codec.name">pcm_s16le</property>
  <property name="meta.media.0.codec.long_name">PCM signed 16-bit little-endian</property>
  <property name="meta.media.0.codec.bit_rate">1536000</property>
  <property name="meta.attr.encoder.markup">Lavf60.16.100</property>
  <property name="seekable">1</property>
  <property name="audio_index">0</property>
  <property name="video_index">-1</property>
  <property name="kdenlive:clipname"/>
  <property name="kdenlive:folderid">-1</property>
  <property name="kdenlive:id">8</property>
  <property name="kdenlive:file_size">137811810</property>
  <property name="kdenlive:file_hash">ac09b93b5f4e8d3c270e50195bb12701</property>
  <property name="kdenlive:audio_max0">202</property>
  <property name="kdenlive:clip_type">1</property>
  <property name="kdenlive:control_uuid">{e3690386-3de7-49ec-83ad-e12265daebef}</property>
  <property name="meta.media.0.codec.layout">independent</property>
  <property name="meta.attr.title.markup">Monster : Chapter 48 : The Most Frightening Thing</property>
  <property name="astream">0</property>
 </chain>
 <chain id="producer3" out="00:23:55.589">
  <property name="length">43025</property>
  <property name="eof">pause</property>
  <property name="resource">/mnt/data1/Anime-Edits/Monster/Monster-Editing/Audio/eng/Ep49.wav</property>
  <property name="mlt_service">avformat</property>
  <property name="meta.media.nb_streams">1</property>
  <property name="meta.media.0.stream.type">audio</property>
  <property name="meta.media.0.codec.sample_fmt">s16</property>
  <property name="meta.media.0.codec.sample_rate">48000</property>
  <property name="meta.media.0.codec.channels">2</property>
  <property name="meta.media.0.codec.name">pcm_s16le</property>
  <property name="meta.media.0.codec.long_name">PCM signed 16-bit little-endian</property>
  <property name="meta.media.0.codec.bit_rate">1536000</property>
  <property name="meta.attr.encoder.markup">Lavf60.16.100</property>
  <property name="seekable">1</property>
  <property name="audio_index">0</property>
  <property name="video_index">-1</property>
  <property name="kdenlive:clipname"/>
  <property name="kdenlive:folderid">-1</property>
  <property name="kdenlive:id">9</property>
  <property name="kdenlive:file_size">137818498</property>
  <property name="kdenlive:file_hash">2fb1fa8485ac15b8cc555e54572d1eca</property>
  <property name="kdenlive:audio_max0">191</property>
  <property name="kdenlive:clip_type">1</property>
  <property name="kdenlive:control_uuid">{ab1695b3-e140-4eac-b64c-2bc952b7066b}</property>
  <property name="meta.media.0.codec.layout">independent</property>
  <property name="meta.attr.title.markup">Monster : Chapter 49 : The Cruelest Thing</property>
  <property name="astream">0</property>
 </chain>
 <chain id="producer5" out="00:23:55.522">
  <property name="length">43023</property>
  <property name="eof">pause</property>
  <property name="resource">/mnt/data1/Anime-Edits/Monster/Monster-Editing/Audio/eng/Ep50.wav</property>
  <property name="mlt_service">avformat</property>
  <property name="meta.media.nb_streams">1</property>
  <property name="meta.media.0.stream.type">audio</property>
  <property name="meta.media.0.codec.sample_fmt">s16</property>
  <property name="meta.media.0.codec.sample_rate">48000</property>
  <property name="meta.media.0.codec.channels">2</property>
  <property name="meta.media.0.codec.name">pcm_s16le</property>
  <property name="meta.media.0.codec.long_name">PCM signed 16-bit little-endian</property>
  <property name="meta.media.0.codec.bit_rate">1536000</property>
  <property name="meta.attr.encoder.markup">Lavf60.16.100</property>
  <property name="seekable">1</property>
  <property name="audio_index">0</property>
  <property name="video_index">-1</property>
  <property name="kdenlive:clipname"/>
  <property name="kdenlive:folderid">-1</property>
  <property name="kdenlive:id">10</property>
  <property name="kdenlive:file_size">137811810</property>
  <property name="kdenlive:file_hash">376094a5e76cd14f8d701edf430b32d9</property>
  <property name="kdenlive:audio_max0">190</property>
  <property name="kdenlive:clip_type">1</property>
  <property name="kdenlive:control_uuid">{8f938493-e06a-498b-8877-a20754361cb9}</property>
  <property name="meta.media.0.codec.layout">independent</property>
  <property name="meta.attr.title.markup">Monster : Chapter 50 : The Rose Mansion</property>
  <property name="astream">0</property>
 </chain>
 <producer id="producer0" in="00:00:00.000" out="01:27:53.720">
  <property name="length">2147483647</property>
  <property name="eof">continue</property>
  <property name="resource">black</property>
  <property name="aspect_ratio">1</property>
  <property name="mlt_service">color</property>
  <property name="kdenlive:playlistid">black_track</property>
  <property name="mlt_image_format">rgba</property>
  <property name="set.test_audio">0</property>
 </producer>
 <chain id="producer14" out="00:23:55.556">
  <property name="length">43024</property>
  <property name="eof">pause</property>
  <property name="resource">/mnt/data1/Anime-Edits/Monster/Monster-Editing/Audio/eng/Ep47.wav</property>
  <property name="mlt_service">avformat-novalidate</property>
  <property name="audio_index">0</property>
  <property name="video_index">-1</property>
  <property name="meta.media.nb_streams">1</property>
  <property name="meta.media.0.stream.type">audio</property>
  <property name="meta.media.0.codec.sample_fmt">s16</property>
  <property name="meta.media.0.codec.sample_rate">48000</property>
  <property name="meta.media.0.codec.channels">2</property>
  <property name="meta.media.0.codec.name">pcm_s16le</property>
  <property name="meta.media.0.codec.long_name">PCM signed 16-bit little-endian</property>
  <property name="meta.media.0.codec.bit_rate">1536000</property>
  <property name="meta.attr.encoder.markup">Lavf60.16.100</property>
  <property name="seekable">1</property>
  <property name="kdenlive:clipname"/>
  <property name="kdenlive:folderid">-1</property>
  <property name="kdenlive:id">7</property>
  <property name="kdenlive:file_size">137815154</property>
  <property name="kdenlive:file_hash">c869ba9c09ab613d6a0364dcb96d30e9</property>
  <property name="kdenlive:audio_max0">219</property>
  <property name="kdenlive:clip_type">1</property>
  <property name="xml">was here</property>
  <property name="set.test_audio">0</property>
  <property name="set.test_image">1</property>
  <property name="kdenlive:control_uuid">{ba43f6eb-b24a-46ac-89e2-c2f58bdc6f87}</property>
  <property name="meta.media.0.codec.layout">independent</property>
  <property name="meta.attr.title.markup">Monster : Chapter 47 : The Door To A Nightmare</property>
  <property name="astream">0</property>
 </chain>
 <chain id="producer15" out="00:23:55.522">
  <property name="length">43023</property>
  <property name="eof">pause</property>
  <property name="resource">/mnt/data1/Anime-Edits/Monster/Monster-Editing/Audio/eng/Ep48.wav</property>
  <property name="mlt_service">avformat-novalidate</property>
  <property name="audio_index">0</property>
  <property name="video_index">-1</property>
  <property name="meta.media.nb_streams">1</property>
  <property name="meta.media.0.stream.type">audio</property>
  <property name="meta.media.0.codec.sample_fmt">s16</property>
  <property name="meta.media.0.codec.sample_rate">48000</property>
  <property name="meta.media.0.codec.channels">2</property>
  <property name="meta.media.0.codec.name">pcm_s16le</property>
  <property name="meta.media.0.codec.long_name">PCM signed 16-bit little-endian</property>
  <property name="meta.media.0.codec.bit_rate">1536000</property>
  <property name="meta.attr.encoder.markup">Lavf60.16.100</property>
  <property name="seekable">1</property>
  <property name="kdenlive:clipname"/>
  <property name="kdenlive:folderid">-1</property>
  <property name="kdenlive:id">8</property>
  <property name="kdenlive:file_size">137811810</property>
  <property name="kdenlive:file_hash">ac09b93b5f4e8d3c270e50195bb12701</property>
  <property name="kdenlive:audio_max0">230</property>
  <property name="kdenlive:clip_type">1</property>
  <property name="xml">was here</property>
  <property name="set.test_audio">0</property>
  <property name="set.test_image">1</property>
  <property name="kdenlive:control_uuid">{e3690386-3de7-49ec-83ad-e12265daebef}</property>
  <property name="meta.media.0.codec.layout">independent</property>
  <property name="meta.attr.title.markup">Monster : Chapter 48 : The Most Frightening Thing</property>
  <property name="astream">0</property>
 </chain>
 <chain id="producer16" out="00:23:55.589">
  <property name="length">43025</property>
  <property name="eof">pause</property>
  <property name="resource">/mnt/data1/Anime-Edits/Monster/Monster-Editing/Audio/eng/Ep49.wav</property>
  <property name="mlt_service">avformat-novalidate</property>
  <property name="audio_index">0</property>
  <property name="video_index">-1</property>
  <property name="meta.media.nb_streams">1</property>
  <property name="meta.media.0.stream.type">audio</property>
  <property name="meta.media.0.codec.sample_fmt">s16</property>
  <property name="meta.media.0.codec.sample_rate">48000</property>
  <property name="meta.media.0.codec.channels">2</property>
  <property name="meta.media.0.codec.name">pcm_s16le</property>
  <property name="meta.media.0.codec.long_name">PCM signed 16-bit little-endian</property>
  <property name="meta.media.0.codec.bit_rate">1536000</property>
  <property name="meta.attr.encoder.markup">Lavf60.16.100</property>
  <property name="seekable">1</property>
  <property name="kdenlive:clipname"/>
  <property name="kdenlive:folderid">-1</property>
  <property name="kdenlive:id">9</property>
  <property name="kdenlive:file_size">137818498</property>
  <property name="kdenlive:file_hash">2fb1fa8485ac15b8cc555e54572d1eca</property>
  <property name="kdenlive:audio_max0">241</property>
  <property name="kdenlive:clip_type">1</property>
  <property name="xml">was here</property>
  <property name="set.test_audio">0</property>
  <property name="set.test_image">1</property>
  <property name="kdenlive:control_uuid">{ab1695b3-e140-4eac-b64c-2bc952b7066b}</property>
  <property name="meta.media.0.codec.layout">independent</property>
  <property name="meta.attr.title.markup">Monster : Chapter 49 : The Cruelest Thing</property>
  <property name="astream">0</property>
 </chain>
 <chain id="producer17" out="00:23:55.522">
  <property name="length">43023</property>
  <property name="eof">pause</property>
  <property name="resource">/mnt/data1/Anime-Edits/Monster/Monster-Editing/Audio/eng/Ep50.wav</property>
  <property name="mlt_service">avformat-novalidate</property>
  <property name="audio_index">0</property>
  <property name="video_index">-1</property>
  <property name="meta.media.nb_streams">1</property>
  <property name="meta.media.0.stream.type">audio</property>
  <property name="meta.media.0.codec.sample_fmt">s16</property>
  <property name="meta.media.0.codec.sample_rate">48000</property>
  <property name="meta.media.0.codec.channels">2</property>
  <property name="meta.media.0.codec.name">pcm_s16le</property>
  <property name="meta.media.0.codec.long_name">PCM signed 16-bit little-endian</property>
  <property name="meta.media.0.codec.bit_rate">1536000</property>
  <property name="meta.attr.encoder.markup">Lavf60.16.100</property>
  <property name="seekable">1</property>
  <property name="kdenlive:clipname"/>
  <property name="kdenlive:folderid">-1</property>
  <property name="kdenlive:id">10</property>
  <property name="kdenlive:file_size">137811810</property>
  <property name="kdenlive:file_hash">376094a5e76cd14f8d701edf430b32d9</property>
  <property name="kdenlive:audio_max0">231</property>
  <property name="kdenlive:clip_type">1</property>
  <property name="xml">was here</property>
  <property name="set.test_audio">0</property>
  <property name="set.test_image">1</property>
  <property name="kdenlive:control_uuid">{8f938493-e06a-498b-8877-a20754361cb9}</property>
  <property name="meta.media.0.codec.layout">independent</property>
  <property name="meta.attr.title.markup">Monster : Chapter 50 : The Rose Mansion</property>
  <property name="astream">0</property>
 </chain>
 <playlist id="playlist0">
  <property name="kdenlive:audio_track">1</property>
  <blank length="00:08:57.257"/>
  <entry in="00:08:57.257" out="00:08:59.092" producer="producer14">
   <property name="kdenlive:id">7</property>
   <filter id="filter40" in="00:08:57.257" out="00:08:57.691">
    <property name="window">75</property>
    <property name="max_gain">20dB</property>
    <property name="mlt_service">volume</property>
    <property name="kdenlive_id">fadein</property>
    <property name="gain">0</property>
    <property name="end">1</property>
    <property name="kdenlive:collapsed">0</property>
   </filter>
   <filter id="filter41" in="00:08:58.559" out="00:08:59.092">
    <property name="window">75</property>
    <property name="max_gain">20dB</property>
    <property name="mlt_service">volume</property>
    <property name="kdenlive_id">fadeout</property>
    <property name="gain">1</property>
    <property name="end">0</property>
    <property name="kdenlive:collapsed">0</property>
   </filter>
  </entry>
  <blank length="00:00:29.563"/>
  <entry in="00:09:31.598" out="00:09:33.667" producer="producer14">
   <property name="kdenlive:id">7</property>
   <filter id="filter42" in="00:09:31.598" out="00:09:32.065">
    <property name="window">75</property>
    <property name="max_gain">20dB</property>
    <property name="mlt_service">volume</property>
    <property name="kdenlive_id">fadein</property>
    <property name="gain">0</property>
    <property name="end">1</property>
    <property name="kdenlive:collapsed">0</property>
   </filter>
   <filter id="filter43" in="00:09:32.933" out="00:09:33.667">
    <property name="window">75</property>
    <property name="max_gain">20dB</property>
    <property name="mlt_service">volume</property>
    <property name="kdenlive_id">fadeout</property>
    <property name="gain">1</property>
    <property name="end">0</property>
    <property name="kdenlive:collapsed">0</property>
   </filter>
  </entry>
  <blank length="00:04:47.347"/>
  <entry in="00:14:26.326" out="00:14:32.466" producer="producer14">
   <property name="kdenlive:id">7</property>
   <filter id="filter44" in="00:14:26.326" out="00:14:29.029">
    <property name="window">75</property>
    <property name="max_gain">20dB</property>
    <property name="mlt_service">volume</property>
    <property name="kdenlive_id">fadein</property>
    <property name="gain">0</property>
    <property name="end">1</property>
    <property name="kdenlive:collapsed">0</property>
   </filter>
   <filter id="filter45" in="00:14:31.164" out="00:14:32.466">
    <property name="window">75</property>
    <property name="max_gain">20dB</property>
    <property name="mlt_service">volume</property>
    <property name="kdenlive_id">fadeout</property>
    <property name="gain">1</property>
    <property name="end">0</property>
   </filter>
  </entry>
  <blank length="00:01:47.514"/>
  <entry in="00:16:57.891" out="00:16:59.860" producer="producer14">
   <property name="kdenlive:id">7</property>
   <filter id="filter46" in="00:16:57.891" out="00:16:58.492">
    <property name="window">75</property>
    <property name="max_gain">20dB</property>
    <property name="mlt_service">volume</property>
    <property name="kdenlive_id">fadein</property>
    <property name="gain">0</property>
    <property name="end">1</property>
    <property name="kdenlive:collapsed">0</property>
   </filter>
   <filter id="filter47" in="00:16:59.426" out="00:16:59.860">
    <property name="window">75</property>
    <property name="max_gain">20dB</property>
    <property name="mlt_service">volume</property>
    <property name="kdenlive_id">fadeout</property>
    <property name="gain">1</property>
    <property name="end">0</property>
    <property name="kdenlive:collapsed">0</property>
   </filter>
  </entry>
  <blank length="00:00:13.413"/>
  <entry in="00:17:13.547" out="00:17:13.947" producer="producer14">
   <property name="kdenlive:id">7</property>
   <filter id="filter48" in="00:17:13.547" out="00:17:13.780">
    <property name="window">75</property>
    <property name="max_gain">20dB</property>
    <property name="mlt_service">volume</property>
    <property name="kdenlive_id">fadein</property>
    <property name="gain">0</property>
    <property name="end">1</property>
   </filter>
   <filter id="filter49" in="00:17:13.747" out="00:17:13.947">
    <property name="window">75</property>
    <property name="max_gain">20dB</property>
    <property name="mlt_service">volume</property>
    <property name="kdenlive_id">fadeout</property>
    <property name="gain">1</property>
    <property name="end">0</property>
   </filter>
  </entry>
  <blank length="00:00:01.969"/>
  <entry in="00:17:17.050" out="00:17:19.019" producer="producer14">
   <property name="kdenlive:id">7</property>
   <filter id="filter50" in="00:17:17.050" out="00:17:17.951">
    <property name="window">75</property>
    <property name="max_gain">20dB</property>
    <property name="mlt_service">volume</property>
    <property name="kdenlive_id">fadein</property>
    <property name="gain">0</property>
    <property name="end">1</property>
    <property name="kdenlive:collapsed">0</property>
   </filter>
   <filter id="filter51" in="00:17:17.951" out="00:17:19.019">
    <property name="window">75</property>
    <property name="max_gain">20dB</property>
    <property name="mlt_service">volume</property>
    <property name="kdenlive_id">fadeout</property>
    <property name="gain">1</property>
    <property name="end">0</property>
    <property name="kdenlive:collapsed">0</property>
   </filter>
  </entry>
  <blank length="00:00:48.715"/>
  <entry in="00:18:13.780" out="00:18:20.053" producer="producer14">
   <property name="kdenlive:id">7</property>
   <filter id="filter52" in="00:18:19.353" out="00:18:20.053">
    <property name="window">75</property>
    <property name="max_gain">20dB</property>
    <property name="mlt_service">volume</property>
    <property name="kdenlive_id">fadeout</property>
    <property name="gain">1</property>
    <property name="end">0</property>
    <property name="kdenlive:collapsed">0</property>
   </filter>
   <filter id="filter53" in="00:18:13.780" out="00:18:14.047">
    <property name="window">75</property>
    <property name="max_gain">20dB</property>
    <property name="mlt_service">volume</property>
    <property name="kdenlive_id">fadein</property>
    <property name="gain">0</property>
    <property name="end">1</property>
   </filter>
  </entry>
  <blank length="00:04:00.200"/>
  <entry in="00:22:21.922" out="00:22:27.427" producer="producer14">
   <property name="kdenlive:id">7</property>
   <filter id="filter54" in="00:22:21.922" out="00:22:22.055">
    <property name="window">75</property>
    <property name="max_gain">20dB</property>
    <property name="mlt_service">volume</property>
    <property name="kdenlive_id">fadein</property>
    <property name="gain">0</property>
    <property name="end">1</property>
    <property name="kdenlive:collapsed">0</property>
   </filter>
   <filter id="filter55" in="00:22:26.994" out="00:22:27.427">
    <property name="window">75</property>
    <property name="max_gain">20dB</property>
    <property name="mlt_service">volume</property>
    <property name="kdenlive_id">fadeout</property>
    <property name="gain">1</property>
    <property name="end">0</property>
    <property name="kdenlive:collapsed">0</property>
   </filter>
  </entry>
  <blank length="00:02:25.292"/>
  <entry in="00:05:40.641" out="00:05:52.986" producer="producer15">
   <property name="kdenlive:id">8</property>
   <filter id="filter56" in="00:05:40.641" out="00:05:42.109">
    <property name="window">75</property>
    <property name="max_gain">20dB</property>
    <property name="mlt_service">volume</property>
    <property name="kdenlive_id">fadein</property>
    <property name="gain">0</property>
    <property name="end">1</property>
    <property name="kdenlive:collapsed">0</property>
   </filter>
   <filter id="filter57" in="00:05:52.753" out="00:05:52.986">
    <property name="window">75</property>
    <property name="max_gain">20dB</property>
    <property name="mlt_service">volume</property>
    <property name="kdenlive_id">fadeout</property>
    <property name="gain">1</property>
    <property name="end">0</property>
    <property name="kdenlive:collapsed">0</property>
   </filter>
  </entry>
  <blank length="00:00:09.543"/>
  <entry in="00:06:03.036" out="00:06:03.937" producer="producer15">
   <property name="kdenlive:id">8</property>
   <filter id="filter58" in="00:06:03.036" out="00:06:03.403">
    <property name="window">75</property>
    <property name="max_gain">20dB</property>
    <property name="mlt_service">volume</property>
    <property name="kdenlive_id">fadein</property>
    <property name="gain">0</property>
    <property name="end">1</property>
    <property name="kdenlive:collapsed">0</property>
   </filter>
   <filter id="filter59" in="00:06:03.504" out="00:06:03.937">
    <property name="window">75</property>
    <property name="max_gain">20dB</property>
    <property name="mlt_service">volume</property>
    <property name="kdenlive_id">fadeout</property>
    <property name="gain">1</property>
    <property name="end">0</property>
    <property name="kdenlive:collapsed">0</property>
   </filter>
  </entry>
  <blank length="00:00:06.340"/>
  <entry in="00:06:14.081" out="00:06:14.781" producer="producer15">
   <property name="kdenlive:id">8</property>
   <filter id="filter60" in="00:06:14.081" out="00:06:14.248">
    <property name="window">75</property>
    <property name="max_gain">20dB</property>
    <property name="mlt_service">volume</property>
    <property name="kdenlive_id">fadein</property>
    <property name="gain">0</property>
    <property name="end">1</property>
    <property name="kdenlive:collapsed">0</property>
   </filter>
   <filter id="filter61" in="00:06:14.648" out="00:06:14.781">
    <property name="window">75</property>
    <property name="max_gain">20dB</property>
    <property name="mlt_service">volume</property>
    <property name="kdenlive_id">fadeout</property>
    <property name="gain">1</property>
    <property name="end">0</property>
    <property name="kdenlive:collapsed">0</property>
   </filter>
  </entry>
  <blank length="00:05:28.529"/>
  <entry in="00:11:56.523" out="00:12:09.009" producer="producer15">
   <property name="kdenlive:id">8</property>
   <filter id="filter62" in="00:12:08.208" out="00:12:09.009">
    <property name="window">75</property>
    <property name="max_gain">20dB</property>
    <property name="mlt_service">volume</property>
    <property name="kdenlive_id">fadeout</property>
    <property name="gain">1</property>
    <property name="end">0</property>
    <property name="kdenlive:collapsed">0</property>
   </filter>
   <filter id="filter63" in="00:11:56.523" out="00:11:57.491">
    <property name="window">75</property>
    <property name="max_gain">20dB</property>
    <property name="mlt_service">volume</property>
    <property name="kdenlive_id">fadein</property>
    <property name="gain">0</property>
    <property name="end">1</property>
   </filter>
  </entry>
  <blank length="00:06:37.938"/>
  <entry in="00:18:52.819" out="00:18:55.889" producer="producer15">
   <property name="kdenlive:id">8</property>
   <filter id="filter64" in="00:18:52.819" out="00:18:53.387">
    <property name="window">75</property>
    <property name="max_gain">20dB</property>
    <property name="mlt_service">volume</property>
    <property name="kdenlive_id">fadein</property>
    <property name="gain">0</property>
    <property name="end">1</property>
   </filter>
   <filter id="filter65" in="00:18:55.455" out="00:18:55.889">
    <property name="window">75</property>
    <property name="max_gain">20dB</property>
    <property name="mlt_service">volume</property>
    <property name="kdenlive_id">fadeout</property>
    <property name="gain">1</property>
    <property name="end">0</property>
   </filter>
  </entry>
  <blank length="00:00:49.850"/>
  <entry in="00:19:57.324" out="00:20:01.768" producer="producer15">
   <property name="kdenlive:id">8</property>
   <filter id="filter66" in="00:20:00.968" out="00:20:01.768">
    <property name="window">75</property>
    <property name="max_gain">20dB</property>
    <property name="mlt_service">volume</property>
    <property name="kdenlive_id">fadeout</property>
    <property name="gain">1</property>
    <property name="end">0</property>
    <property name="kdenlive:collapsed">0</property>
   </filter>
   <filter id="filter67" in="00:19:57.324" out="00:19:59.559">
    <property name="window">75</property>
    <property name="max_gain">20dB</property>
    <property name="mlt_service">volume</property>
    <property name="kdenlive_id">fadein</property>
    <property name="gain">0</property>
    <property name="end">1</property>
    <property name="kdenlive:collapsed">0</property>
   </filter>
  </entry>
  <blank length="00:03:27.527"/>
  <entry in="00:02:31.965" out="00:02:32.633" producer="producer16">
   <property name="kdenlive:id">9</property>
   <filter id="filter68" in="00:02:31.965" out="00:02:32.165">
    <property name="window">75</property>
    <property name="max_gain">20dB</property>
    <property name="mlt_service">volume</property>
    <property name="kdenlive_id">fadein</property>
    <property name="gain">0</property>
    <property name="end">1</property>
    <property name="kdenlive:collapsed">0</property>
   </filter>
   <filter id="filter69" in="00:02:32.399" out="00:02:32.633">
    <property name="window">75</property>
    <property name="max_gain">20dB</property>
    <property name="mlt_service">volume</property>
    <property name="kdenlive_id">fadeout</property>
    <property name="gain">1</property>
    <property name="end">0</property>
    <property name="kdenlive:collapsed">0</property>
   </filter>
  </entry>
  <blank length="00:16:46.413"/>
  <entry in="00:19:21.455" out="00:19:30.731" producer="producer16">
   <property name="kdenlive:id">9</property>
   <filter id="filter70" in="00:19:21.455" out="00:19:23.156">
    <property name="window">75</property>
    <property name="max_gain">20dB</property>
    <property name="mlt_service">volume</property>
    <property name="kdenlive_id">fadein</property>
    <property name="gain">0</property>
    <property name="end">1</property>
    <property name="kdenlive:collapsed">0</property>
   </filter>
  </entry>
  <blank length="00:01:07.474"/>
  <entry in="00:20:39.640" out="00:20:44.978" producer="producer16">
   <property name="kdenlive:id">9</property>
   <filter id="filter71" in="00:20:39.640" out="00:20:42.109">
    <property name="window">75</property>
    <property name="max_gain">20dB</property>
    <property name="mlt_service">volume</property>
    <property name="kdenlive_id">fadein</property>
    <property name="gain">0</property>
    <property name="end">1</property>
    <property name="kdenlive:collapsed">0</property>
   </filter>
   <filter id="filter72" in="00:20:42.843" out="00:20:44.978">
    <property name="window">75</property>
    <property name="max_gain">20dB</property>
    <property name="mlt_service">volume</property>
    <property name="kdenlive_id">fadeout</property>
    <property name="gain">1</property>
    <property name="end">0</property>
    <property name="kdenlive:collapsed">0</property>
   </filter>
  </entry>
  <blank length="00:05:27.961"/>
  <entry in="00:05:15.449" out="00:05:19.019" producer="producer17">
   <property name="kdenlive:id">10</property>
   <filter id="filter73" in="00:05:15.449" out="00:05:17.584">
    <property name="window">75</property>
    <property name="max_gain">20dB</property>
    <property name="mlt_service">volume</property>
    <property name="kdenlive_id">fadein</property>
    <property name="gain">0</property>
    <property name="end">1</property>
    <property name="kdenlive:collapsed">0</property>
   </filter>
   <filter id="filter74" in="00:05:18.785" out="00:05:19.019">
    <property name="window">75</property>
    <property name="max_gain">20dB</property>
    <property name="mlt_service">volume</property>
    <property name="kdenlive_id">fadeout</property>
    <property name="gain">1</property>
    <property name="end">0</property>
   </filter>
  </entry>
  <blank length="00:05:28.228"/>
  <entry in="00:10:47.547" out="00:10:52.886" producer="producer17">
   <property name="kdenlive:id">10</property>
   <filter id="filter75" in="00:10:47.547" out="00:10:48.048">
    <property name="window">75</property>
    <property name="max_gain">20dB</property>
    <property name="mlt_service">volume</property>
    <property name="kdenlive_id">fadein</property>
    <property name="gain">0</property>
    <property name="end">1</property>
    <property name="kdenlive:collapsed">0</property>
   </filter>
   <filter id="filter76" in="00:10:52.452" out="00:10:52.886">
    <property name="window">75</property>
    <property name="max_gain">20dB</property>
    <property name="mlt_service">volume</property>
    <property name="kdenlive_id">fadeout</property>
    <property name="gain">1</property>
    <property name="end">0</property>
   </filter>
  </entry>
 </playlist>
 <playlist id="playlist1">
  <property name="kdenlive:audio_track">1</property>
 </playlist>
 <tractor id="tractor0" in="00:00:00.000" out="01:10:25.859">
  <property name="kdenlive:audio_track">1</property>
  <property name="kdenlive:trackheight">69</property>
  <property name="kdenlive:timeline_active">1</property>
  <property name="kdenlive:collapsed">0</property>
  <property name="kdenlive:thumbs_format"/>
  <property name="kdenlive:audio_rec"/>
  <track hide="video" producer="playlist0"/>
  <track hide="video" producer="playlist1"/>
  <filter id="filter77">
   <property name="window">75</property>
   <property name="max_gain">20dB</property>
   <property name="mlt_service">volume</property>
   <property name="internal_added">237</property>
   <property name="disable">1</property>
  </filter>
  <filter id="filter78">
   <property name="channel">-1</property>
   <property name="mlt_service">panner</property>
   <property name="internal_added">237</property>
   <property name="start">0.5</property>
   <property name="disable">1</property>
  </filter>
  <filter id="filter0">
   <property name="iec_scale">0</property>
   <property name="mlt_service">audiolevel</property>
   <property name="dbpeak">1</property>
   <property name="disable">1</property>
  </filter>
 </tractor>
 <chain id="producer27" out="00:23:55.556">
  <property name="length">43024</property>
  <property name="eof">pause</property>
  <property name="resource">/mnt/data1/Anime-Edits/Monster/Monster-Editing/Audio/eng/Ep47.wav</property>
  <property name="mlt_service">avformat-novalidate</property>
  <property name="audio_index">0</property>
  <property name="video_index">-1</property>
  <property name="meta.media.nb_streams">1</property>
  <property name="meta.media.0.stream.type">audio</property>
  <property name="meta.media.0.codec.sample_fmt">s16</property>
  <property name="meta.media.0.codec.sample_rate">48000</property>
  <property name="meta.media.0.codec.channels">2</property>
  <property name="meta.media.0.codec.name">pcm_s16le</property>
  <property name="meta.media.0.codec.long_name">PCM signed 16-bit little-endian</property>
  <property name="meta.media.0.codec.bit_rate">1536000</property>
  <property name="meta.attr.encoder.markup">Lavf60.16.100</property>
  <property name="seekable">1</property>
  <property name="kdenlive:clipname"/>
  <property name="kdenlive:folderid">-1</property>
  <property name="kdenlive:id">7</property>
  <property name="kdenlive:file_size">137815154</property>
  <property name="kdenlive:file_hash">c869ba9c09ab613d6a0364dcb96d30e9</property>
  <property name="kdenlive:audio_max0">219</property>
  <property name="kdenlive:clip_type">1</property>
  <property name="xml">was here</property>
  <property name="set.test_audio">0</property>
  <property name="set.test_image">1</property>
  <property name="kdenlive:control_uuid">{ba43f6eb-b24a-46ac-89e2-c2f58bdc6f87}</property>
  <property name="meta.media.0.codec.layout">independent</property>
  <property name="meta.attr.title.markup">Monster : Chapter 47 : The Door To A Nightmare</property>
  <property name="astream">0</property>
 </chain>
 <chain id="producer28" out="00:23:55.522">
  <property name="length">43023</property>
  <property name="eof">pause</property>
  <property name="resource">/mnt/data1/Anime-Edits/Monster/Monster-Editing/Audio/eng/Ep48.wav</property>
  <property name="mlt_service">avformat-novalidate</property>
  <property name="audio_index">0</property>
  <property name="video_index">-1</property>
  <property name="meta.media.nb_streams">1</property>
  <property name="meta.media.0.stream.type">audio</property>
  <property name="meta.media.0.codec.sample_fmt">s16</property>
  <property name="meta.media.0.codec.sample_rate">48000</property>
  <property name="meta.media.0.codec.channels">2</property>
  <property name="meta.media.0.codec.name">pcm_s16le</property>
  <property name="meta.media.0.codec.long_name">PCM signed 16-bit little-endian</property>
  <property name="meta.media.0.codec.bit_rate">1536000</property>
  <property name="meta.attr.encoder.markup">Lavf60.16.100</property>
  <property name="seekable">1</property>
  <property name="kdenlive:clipname"/>
  <property name="kdenlive:folderid">-1</property>
  <property name="kdenlive:id">8</property>
  <property name="kdenlive:file_size">137811810</property>
  <property name="kdenlive:file_hash">ac09b93b5f4e8d3c270e50195bb12701</property>
  <property name="kdenlive:audio_max0">230</property>
  <property name="kdenlive:clip_type">1</property>
  <property name="xml">was here</property>
  <property name="set.test_audio">0</property>
  <property name="set.test_image">1</property>
  <property name="kdenlive:control_uuid">{e3690386-3de7-49ec-83ad-e12265daebef}</property>
  <property name="meta.media.0.codec.layout">independent</property>
  <property name="meta.attr.title.markup">Monster : Chapter 48 : The Most Frightening Thing</property>
  <property name="astream">0</property>
 </chain>
 <chain id="producer29" out="00:23:55.589">
  <property name="length">43025</property>
  <property name="eof">pause</property>
  <property name="resource">/mnt/data1/Anime-Edits/Monster/Monster-Editing/Audio/eng/Ep49.wav</property>
  <property name="mlt_service">avformat-novalidate</property>
  <property name="audio_index">0</property>
  <property name="video_index">-1</property>
  <property name="meta.media.nb_streams">1</property>
  <property name="meta.media.0.stream.type">audio</property>
  <property name="meta.media.0.codec.sample_fmt">s16</property>
  <property name="meta.media.0.codec.sample_rate">48000</property>
  <property name="meta.media.0.codec.channels">2</property>
  <property name="meta.media.0.codec.name">pcm_s16le</property>
  <property name="meta.media.0.codec.long_name">PCM signed 16-bit little-endian</property>
  <property name="meta.media.0.codec.bit_rate">1536000</property>
  <property name="meta.attr.encoder.markup">Lavf60.16.100</property>
  <property name="seekable">1</property>
  <property name="kdenlive:clipname"/>
  <property name="kdenlive:folderid">-1</property>
  <property name="kdenlive:id">9</property>
  <property name="kdenlive:file_size">137818498</property>
  <property name="kdenlive:file_hash">2fb1fa8485ac15b8cc555e54572d1eca</property>
  <property name="kdenlive:audio_max0">241</property>
  <property name="kdenlive:clip_type">1</property>
  <property name="xml">was here</property>
  <property name="set.test_audio">0</property>
  <property name="set.test_image">1</property>
  <property name="kdenlive:control_uuid">{ab1695b3-e140-4eac-b64c-2bc952b7066b}</property>
  <property name="meta.media.0.codec.layout">independent</property>
  <property name="meta.attr.title.markup">Monster : Chapter 49 : The Cruelest Thing</property>
  <property name="astream">0</property>
 </chain>
 <chain id="producer30" out="00:23:55.522">
  <property name="length">43023</property>
  <property name="eof">pause</property>
  <property name="resource">/mnt/data1/Anime-Edits/Monster/Monster-Editing/Audio/eng/Ep50.wav</property>
  <property name="mlt_service">avformat-novalidate</property>
  <property name="audio_index">0</property>
  <property name="video_index">-1</property>
  <property name="meta.media.nb_streams">1</property>
  <property name="meta.media.0.stream.type">audio</property>
  <property name="meta.media.0.codec.sample_fmt">s16</property>
  <property name="meta.media.0.codec.sample_rate">48000</property>
  <property name="meta.media.0.codec.channels">2</property>
  <property name="meta.media.0.codec.name">pcm_s16le</property>
  <property name="meta.media.0.codec.long_name">PCM signed 16-bit little-endian</property>
  <property name="meta.media.0.codec.bit_rate">1536000</property>
  <property name="meta.attr.encoder.markup">Lavf60.16.100</property>
  <property name="seekable">1</property>
  <property name="kdenlive:clipname"/>
  <property name="kdenlive:folderid">-1</property>
  <property name="kdenlive:id">10</property>
  <property name="kdenlive:file_size">137811810</property>
  <property name="kdenlive:file_hash">376094a5e76cd14f8d701edf430b32d9</property>
  <property name="kdenlive:audio_max0">231</property>
  <property name="kdenlive:clip_type">1</property>
  <property name="xml">was here</property>
  <property name="set.test_audio">0</property>
  <property name="set.test_image">1</property>
  <property name="kdenlive:control_uuid">{8f938493-e06a-498b-8877-a20754361cb9}</property>
  <property name="meta.media.0.codec.layout">independent</property>
  <property name="meta.attr.title.markup">Monster : Chapter 50 : The Rose Mansion</property>
  <property name="astream">0</property>
 </chain>
 <playlist id="playlist2">
  <property name="kdenlive:audio_track">1</property>
  <entry in="00:00:00.000" out="00:08:57.658" producer="producer27">
   <property name="kdenlive:id">7</property>
   <filter id="filter113" in="00:08:57.224" out="00:08:57.658">
    <property name="window">75</property>
    <property name="max_gain">20dB</property>
    <property name="mlt_service">volume</property>
    <property name="kdenlive_id">fadeout</property>
    <property name="gain">1</property>
    <property name="end">0</property>
   </filter>
  </entry>
  <blank length="00:00:00.901"/>
  <entry in="00:09:00.968" out="00:09:03.871" producer="producer27">
   <property name="kdenlive:id">7</property>
   <filter id="filter114" in="00:09:00.968" out="00:09:01.502">
    <property name="window">75</property>
    <property name="max_gain">20dB</property>
    <property name="mlt_service">volume</property>
    <property name="kdenlive_id">fadein</property>
    <property name="gain">0</property>
    <property name="end">1</property>
    <property name="kdenlive:collapsed">0</property>
   </filter>
  </entry>
  <entry in="00:09:03.904" out="00:09:31.498" producer="producer27">
   <property name="kdenlive:id">7</property>
   <filter id="filter115" in="00:09:31.031" out="00:09:31.498">
    <property name="window">75</property>
    <property name="max_gain">20dB</property>
    <property name="mlt_service">volume</property>
    <property name="kdenlive_id">fadeout</property>
    <property name="gain">1</property>
    <property name="end">0</property>
   </filter>
  </entry>
  <blank length="00:00:00.901"/>
  <entry in="00:09:32.966" out="00:14:20.988" producer="producer27">
   <property name="kdenlive:id">7</property>
   <filter id="filter116" in="00:09:32.966" out="00:09:33.700">
    <property name="window">75</property>
    <property name="max_gain">20dB</property>
    <property name="mlt_service">volume</property>
    <property name="kdenlive_id">fadein</property>
    <property name="gain">0</property>
    <property name="end">1</property>
   </filter>
  </entry>
  <blank length="00:00:04.137"/>
  <entry in="00:15:07.107" out="00:15:10.010" producer="producer27">
   <property name="kdenlive:id">7</property>
  </entry>
  <entry in="00:15:10.043" out="00:16:57.224" producer="producer27">
   <property name="kdenlive:id">7</property>
   <filter id="filter117" in="00:16:56.623" out="00:16:57.224">
    <property name="window">75</property>
    <property name="max_gain">20dB</property>
    <property name="mlt_service">volume</property>
    <property name="kdenlive_id">fadeout</property>
    <property name="gain">1</property>
    <property name="end">0</property>
   </filter>
  </entry>
  <blank length="00:00:00.968"/>
  <entry in="00:16:59.459" out="00:17:13.514" producer="producer27">
   <property name="kdenlive:id">7</property>
   <filter id="filter118" in="00:16:59.459" out="00:16:59.893">
    <property name="window">75</property>
    <property name="max_gain">20dB</property>
    <property name="mlt_service">volume</property>
    <property name="kdenlive_id">fadein</property>
    <property name="gain">0</property>
    <property name="end">1</property>
   </filter>
  </entry>
  <entry in="00:17:13.981" out="00:17:17.017" producer="producer27">
   <property name="kdenlive:id">7</property>
  </entry>
  <entry in="00:17:19.052" out="00:17:19.520" producer="producer27">
   <property name="kdenlive:id">7</property>
  </entry>
  <entry in="00:17:19.553" out="00:18:09.276" producer="producer27">
   <property name="kdenlive:id">7</property>
   <filter id="filter119" in="00:18:09.009" out="00:18:09.276">
    <property name="window">75</property>
    <property name="max_gain">20dB</property>
    <property name="mlt_service">volume</property>
    <property name="kdenlive_id">fadeout</property>
    <property name="gain">1</property>
    <property name="end">0</property>
   </filter>
  </entry>
  <blank length="00:00:05.172"/>
  <entry in="00:18:19.386" out="00:22:20.721" producer="producer27">
   <property name="kdenlive:id">7</property>
   <filter id="filter120" in="00:18:19.386" out="00:18:20.087">
    <property name="window">75</property>
    <property name="max_gain">20dB</property>
    <property name="mlt_service">volume</property>
    <property name="kdenlive_id">fadein</property>
    <property name="gain">0</property>
    <property name="end">1</property>
    <property name="kdenlive:collapsed">0</property>
   </filter>
   <filter id="filter121" in="00:22:20.354" out="00:22:20.721">
    <property name="window">75</property>
    <property name="max_gain">20dB</property>
    <property name="mlt_service">volume</property>
    <property name="kdenlive_id">fadeout</property>
    <property name="gain">1</property>
    <property name="end">0</property>
    <property name="kdenlive:collapsed">0</property>
   </filter>
  </entry>
  <blank length="00:00:04.605"/>
  <entry in="00:03:11.044" out="00:05:37.938" producer="producer28">
   <property name="kdenlive:id">8</property>
   <filter id="filter122" in="00:03:11.044" out="00:03:11.445">
    <property name="window">75</property>
    <property name="max_gain">20dB</property>
    <property name="mlt_service">volume</property>
    <property name="kdenlive_id">fadein</property>
    <property name="gain">0</property>
    <property name="end">1</property>
   </filter>
   <filter id="filter123" in="00:05:36.670" out="00:05:37.938">
    <property name="window">75</property>
    <property name="max_gain">20dB</property>
    <property name="mlt_service">volume</property>
    <property name="kdenlive_id">fadeout</property>
    <property name="gain">1</property>
    <property name="end">0</property>
   </filter>
  </entry>
  <blank length="00:00:10.911"/>
  <entry in="00:05:52.786" out="00:06:03.003" producer="producer28">
   <property name="kdenlive:id">8</property>
   <filter id="filter124" in="00:05:52.786" out="00:05:53.020">
    <property name="window">75</property>
    <property name="max_gain">20dB</property>
    <property name="mlt_service">volume</property>
    <property name="kdenlive_id">fadein</property>
    <property name="gain">0</property>
    <property name="end">1</property>
   </filter>
   <filter id="filter125" in="00:06:02.669" out="00:06:03.003">
    <property name="window">75</property>
    <property name="max_gain">20dB</property>
    <property name="mlt_service">volume</property>
    <property name="kdenlive_id">fadeout</property>
    <property name="gain">1</property>
    <property name="end">0</property>
   </filter>
  </entry>
  <entry in="00:06:04.171" out="00:06:11.111" producer="producer28">
   <property name="kdenlive:id">8</property>
   <filter id="filter126" in="00:06:04.171" out="00:06:04.538">
    <property name="window">75</property>
    <property name="max_gain">20dB</property>
    <property name="mlt_service">volume</property>
    <property name="kdenlive_id">fadein</property>
    <property name="gain">0</property>
    <property name="end">1</property>
   </filter>
   <filter id="filter127" in="00:06:11.044" out="00:06:11.111">
    <property name="window">75</property>
    <property name="max_gain">20dB</property>
    <property name="mlt_service">volume</property>
    <property name="kdenlive_id">fadeout</property>
    <property name="gain">1</property>
    <property name="end">0</property>
   </filter>
  </entry>
  <blank length="00:00:00.434"/>
  <entry in="00:06:14.681" out="00:11:44.278" producer="producer28">
   <property name="kdenlive:id">8</property>
   <filter id="filter128" in="00:06:14.681" out="00:06:14.815">
    <property name="window">75</property>
    <property name="max_gain">20dB</property>
    <property name="mlt_service">volume</property>
    <property name="kdenlive_id">fadein</property>
    <property name="gain">0</property>
    <property name="end">1</property>
   </filter>
   <filter id="filter129" in="00:11:43.877" out="00:11:44.278">
    <property name="window">75</property>
    <property name="max_gain">20dB</property>
    <property name="mlt_service">volume</property>
    <property name="kdenlive_id">fadeout</property>
    <property name="gain">1</property>
    <property name="end">0</property>
   </filter>
  </entry>
  <blank length="00:00:10.744"/>
  <entry in="00:12:08.242" out="00:14:27.461" producer="producer28">
   <property name="kdenlive:id">8</property>
   <filter id="filter130" in="00:12:08.242" out="00:12:09.042">
    <property name="window">75</property>
    <property name="max_gain">20dB</property>
    <property name="mlt_service">volume</property>
    <property name="kdenlive_id">fadein</property>
    <property name="gain">0</property>
    <property name="end">1</property>
   </filter>
  </entry>
  <entry in="00:14:30.731" out="00:18:50.317" producer="producer28">
   <property name="kdenlive:id">8</property>
   <filter id="filter131" in="00:18:50.183" out="00:18:50.317">
    <property name="window">75</property>
    <property name="max_gain">20dB</property>
    <property name="mlt_service">volume</property>
    <property name="kdenlive_id">fadeout</property>
    <property name="gain">1</property>
    <property name="end">0</property>
   </filter>
  </entry>
  <blank length="00:00:02.536"/>
  <entry in="00:18:55.489" out="00:19:47.080" producer="producer28">
   <property name="kdenlive:id">8</property>
   <filter id="filter132" in="00:18:55.489" out="00:18:55.923">
    <property name="window">75</property>
    <property name="max_gain">20dB</property>
    <property name="mlt_service">volume</property>
    <property name="kdenlive_id">fadein</property>
    <property name="gain">0</property>
    <property name="end">1</property>
    <property name="kdenlive:collapsed">0</property>
   </filter>
   <filter id="filter133" in="00:19:45.712" out="00:19:47.080">
    <property name="window">75</property>
    <property name="max_gain">20dB</property>
    <property name="mlt_service">volume</property>
    <property name="kdenlive_id">fadeout</property>
    <property name="gain">1</property>
    <property name="end">0</property>
   </filter>
  </entry>
  <blank length="00:00:02.369"/>
  <entry in="00:20:01.001" out="00:22:26.760" producer="producer28">
   <property name="kdenlive:id">8</property>
   <filter id="filter134" in="00:20:01.001" out="00:20:01.768">
    <property name="window">75</property>
    <property name="max_gain">20dB</property>
    <property name="mlt_service">volume</property>
    <property name="kdenlive_id">fadein</property>
    <property name="gain">0</property>
    <property name="end">1</property>
    <property name="kdenlive:collapsed">0</property>
   </filter>
  </entry>
  <entry in="00:00:00.033" out="00:00:55.789" producer="producer29">
   <property name="kdenlive:id">9</property>
  </entry>
  <entry in="00:00:55.822" out="00:01:02.736" producer="producer29">
   <property name="kdenlive:id">9</property>
   <filter id="filter135" in="00:01:00.734" out="00:01:02.736">
    <property name="window">75</property>
    <property name="max_gain">20dB</property>
    <property name="mlt_service">volume</property>
    <property name="kdenlive_id">fadeout</property>
    <property name="gain">1</property>
    <property name="end">0</property>
    <property name="kdenlive:collapsed">0</property>
   </filter>
  </entry>
  <blank length="00:00:00.267"/>
  <entry in="00:02:32.432" out="00:19:20.754" producer="producer29">
   <property name="kdenlive:id">9</property>
   <filter id="filter136" in="00:02:32.432" out="00:02:32.666">
    <property name="window">75</property>
    <property name="max_gain">20dB</property>
    <property name="mlt_service">volume</property>
    <property name="kdenlive_id">fadein</property>
    <property name="gain">0</property>
    <property name="end">1</property>
   </filter>
   <filter id="filter137" in="00:19:20.254" out="00:19:20.754">
    <property name="window">75</property>
    <property name="max_gain">20dB</property>
    <property name="mlt_service">volume</property>
    <property name="kdenlive_id">fadeout</property>
    <property name="gain">1</property>
    <property name="end">0</property>
   </filter>
  </entry>
  <blank length="00:00:07.608"/>
  <entry in="00:19:30.764" out="00:20:37.638" producer="producer29">
   <property name="kdenlive:id">9</property>
  </entry>
  <entry in="00:20:37.671" out="00:20:41.008" producer="producer29">
   <property name="kdenlive:id">9</property>
   <filter id="filter138" in="00:20:39.606" out="00:20:41.008">
    <property name="window">75</property>
    <property name="max_gain">20dB</property>
    <property name="mlt_service">volume</property>
    <property name="kdenlive_id">fadeout</property>
    <property name="gain">1</property>
    <property name="end">0</property>
   </filter>
  </entry>
  <entry in="00:20:43.710" out="00:20:46.647" producer="producer29">
   <property name="kdenlive:id">9</property>
   <filter id="filter139" in="00:20:43.710" out="00:20:45.012">
    <property name="window">75</property>
    <property name="max_gain">20dB</property>
    <property name="mlt_service">volume</property>
    <property name="kdenlive_id">fadein</property>
    <property name="gain">0</property>
    <property name="end">1</property>
    <property name="kdenlive:collapsed">0</property>
   </filter>
  </entry>
  <entry in="00:20:46.680" out="00:22:26.827" producer="producer29">
   <property name="kdenlive:id">9</property>
  </entry>
  <entry in="00:00:00.033" out="00:00:44.011" producer="producer30">
   <property name="kdenlive:id">10</property>
  </entry>
  <entry in="00:02:09.977" out="00:05:15.415" producer="producer30">
   <property name="kdenlive:id">10</property>
   <filter id="filter140" in="00:05:14.715" out="00:05:15.415">
    <property name="window">75</property>
    <property name="max_gain">20dB</property>
    <property name="mlt_service">volume</property>
    <property name="kdenlive_id">fadeout</property>
    <property name="gain">1</property>
    <property name="end">0</property>
   </filter>
  </entry>
  <blank length="00:00:01.201"/>
  <entry in="00:05:19.052" out="00:10:48.015" producer="producer30">
   <property name="kdenlive:id">10</property>
   <filter id="filter141" in="00:10:47.514" out="00:10:48.015">
    <property name="window">75</property>
    <property name="max_gain">20dB</property>
    <property name="mlt_service">volume</property>
    <property name="kdenlive_id">fadeout</property>
    <property name="gain">1</property>
    <property name="end">0</property>
   </filter>
  </entry>
  <blank length="00:00:02.903"/>
  <entry in="00:11:07.174" out="00:11:10.677" producer="producer30">
   <property name="kdenlive:id">10</property>
   <filter id="filter142" in="00:11:07.174" out="00:11:07.841">
    <property name="window">75</property>
    <property name="max_gain">20dB</property>
    <property name="mlt_service">volume</property>
    <property name="kdenlive_id">fadein</property>
    <property name="gain">0</property>
    <property name="end">1</property>
    <property name="kdenlive:collapsed">0</property>
   </filter>
  </entry>
  <entry in="00:11:10.711" out="00:23:36.937" producer="producer30">
   <property name="kdenlive:id">10</property>
  </entry>
 </playlist>
 <playlist id="playlist3">
  <property name="kdenlive:audio_track">1</property>
 </playlist>
 <tractor id="tractor1" in="00:00:00.000" out="01:22:53.687">
  <property name="kdenlive:audio_track">1</property>
  <property name="kdenlive:trackheight">69</property>
  <property name="kdenlive:timeline_active">1</property>
  <property name="kdenlive:collapsed">0</property>
  <property name="kdenlive:thumbs_format"/>
  <property name="kdenlive:audio_rec"/>
  <track hide="video" producer="playlist2"/>
  <track hide="video" producer="playlist3"/>
  <filter id="filter143">
   <property name="window">75</property>
   <property name="max_gain">20dB</property>
   <property name="mlt_service">volume</property>
   <property name="internal_added">237</property>
   <property name="disable">1</property>
  </filter>
  <filter id="filter144">
   <property name="channel">-1</property>
   <property name="mlt_service">panner</property>
   <property name="internal_added">237</property>
   <property name="start">0.5</property>
   <property name="disable">1</property>
  </filter>
  <filter id="filter1">
   <property name="iec_scale">0</property>
   <property name="mlt_service">audiolevel</property>
   <property name="dbpeak">1</property>
   <property name="disable">1</property>
  </filter>
 </tractor>
 <chain id="producer69" out="00:23:55.522">
  <property name="length">43023</property>
  <property name="eof">pause</property>
  <property name="resource">/mnt/data1/Anime-Edits/Monster/Monster-Editing/Orig720p/MP4/Ep47.mp4</property>
  <property name="mlt_service">avformat-novalidate</property>
  <property name="audio_index">-1</property>
  <property name="video_index">0</property>
  <property name="seekable">1</property>
  <property name="aspect_ratio">1</property>
  <property name="kdenlive:clipname"/>
  <property name="kdenlive:folderid">-1</property>
  <property name="kdenlive:id">3</property>
  <property name="kdenlive:file_size">161055483</property>
  <property name="kdenlive:file_hash">099095342c8e78f9caf8debf36481086</property>
  <property name="xml">was here</property>
  <property name="meta.media.nb_streams">1</property>
  <property name="meta.media.0.stream.type">video</property>
  <property name="meta.media.0.stream.frame_rate">29.97</property>
  <property name="meta.media.0.stream.sample_aspect_ratio">1</property>
  <property name="meta.media.0.codec.width">960</property>
  <property name="meta.media.0.codec.height">720</property>
  <property name="meta.media.0.codec.rotate">0</property>
  <property name="meta.media.0.codec.pix_fmt">yuv420p</property>
  <property name="meta.media.0.codec.sample_aspect_ratio">1</property>
  <property name="meta.media.0.codec.colorspace">709</property>
  <property name="meta.media.0.codec.color_trc">1</property>
  <property name="meta.media.0.codec.name">h264</property>
  <property name="meta.media.0.codec.long_name">H.264 / AVC / MPEG-4 AVC / MPEG-4 part 10</property>
  <property name="meta.media.0.codec.bit_rate">604682</property>
  <property name="meta.attr.0.stream.handler_name.markup">ISO Media file produced by Google Inc.</property>
  <property name="meta.attr.0.stream.vendor_id.markup">[0][0][0][0]</property>
  <property name="meta.attr.major_brand.markup">isom</property>
  <property name="meta.attr.minor_version.markup">512</property>
  <property name="meta.attr.compatible_brands.markup">isomiso2avc1mp41</property>
  <property name="meta.attr.encoder.markup">Lavf60.16.100</property>
  <property name="meta.media.sample_aspect_num">1</property>
  <property name="meta.media.sample_aspect_den">1</property>
  <property name="meta.media.frame_rate_num">30000</property>
  <property name="meta.media.frame_rate_den">1001</property>
  <property name="meta.media.colorspace">709</property>
  <property name="meta.media.color_trc">1</property>
  <property name="meta.media.has_b_frames">2</property>
  <property name="meta.media.width">960</property>
  <property name="meta.media.height">720</property>
  <property name="meta.media.color_range">mpeg</property>
  <property name="meta.media.top_field_first">0</property>
  <property name="meta.media.progressive">1</property>
  <property name="set.test_audio">1</property>
  <property name="set.test_image">0</property>
  <property name="kdenlive:control_uuid">{d444a73a-e19a-4be8-b7fd-59dbbabfeacf}</property>
  <property name="meta.attr.0.stream.encoder.markup">Lavc60.31.102 libx264</property>
  <property name="format">3</property>
  <property name="vstream">0</property>
  <property name="meta.media.aspect_ratio">1</property>
 </chain>
 <chain id="producer70" out="00:23:55.522">
  <property name="length">43023</property>
  <property name="eof">pause</property>
  <property name="resource">/mnt/data1/Anime-Edits/Monster/Monster-Editing/Orig720p/MP4/Ep48.mp4</property>
  <property name="mlt_service">avformat-novalidate</property>
  <property name="audio_index">-1</property>
  <property name="video_index">0</property>
  <property name="seekable">1</property>
  <property name="aspect_ratio">1</property>
  <property name="kdenlive:clipname"/>
  <property name="kdenlive:folderid">-1</property>
  <property name="kdenlive:id">4</property>
  <property name="kdenlive:file_size">161501108</property>
  <property name="kdenlive:file_hash">2f35a51f40a7f682820d866bd3069d01</property>
  <property name="xml">was here</property>
  <property name="meta.media.nb_streams">1</property>
  <property name="meta.media.0.stream.type">video</property>
  <property name="meta.media.0.stream.frame_rate">29.97</property>
  <property name="meta.media.0.stream.sample_aspect_ratio">1</property>
  <property name="meta.media.0.codec.width">960</property>
  <property name="meta.media.0.codec.height">720</property>
  <property name="meta.media.0.codec.rotate">0</property>
  <property name="meta.media.0.codec.pix_fmt">yuv420p</property>
  <property name="meta.media.0.codec.sample_aspect_ratio">1</property>
  <property name="meta.media.0.codec.colorspace">709</property>
  <property name="meta.media.0.codec.color_trc">1</property>
  <property name="meta.media.0.codec.name">h264</property>
  <property name="meta.media.0.codec.long_name">H.264 / AVC / MPEG-4 AVC / MPEG-4 part 10</property>
  <property name="meta.media.0.codec.bit_rate">896089</property>
  <property name="meta.attr.0.stream.handler_name.markup">ISO Media file produced by Google Inc.</property>
  <property name="meta.attr.0.stream.vendor_id.markup">[0][0][0][0]</property>
  <property name="meta.attr.major_brand.markup">isom</property>
  <property name="meta.attr.minor_version.markup">512</property>
  <property name="meta.attr.compatible_brands.markup">isomiso2avc1mp41</property>
  <property name="meta.attr.encoder.markup">Lavf58.76.100</property>
  <property name="meta.media.sample_aspect_num">1</property>
  <property name="meta.media.sample_aspect_den">1</property>
  <property name="meta.media.frame_rate_num">114728000</property>
  <property name="meta.media.frame_rate_den">3828089</property>
  <property name="meta.media.colorspace">709</property>
  <property name="meta.media.color_trc">1</property>
  <property name="meta.media.has_b_frames">1</property>
  <property name="meta.media.width">960</property>
  <property name="meta.media.height">720</property>
  <property name="meta.media.color_range">mpeg</property>
  <property name="meta.media.top_field_first">0</property>
  <property name="meta.media.progressive">1</property>
  <property name="set.test_audio">1</property>
  <property name="set.test_image">0</property>
  <property name="kdenlive:control_uuid">{a9293549-d142-4848-9631-0a3d4a367941}</property>
 </chain>
 <chain id="producer71" out="00:23:55.589">
  <property name="length">43025</property>
  <property name="eof">pause</property>
  <property name="resource">/mnt/data1/Anime-Edits/Monster/Monster-Editing/Orig720p/MP4/Ep49.mp4</property>
  <property name="mlt_service">avformat-novalidate</property>
  <property name="audio_index">-1</property>
  <property name="video_index">0</property>
  <property name="seekable">1</property>
  <property name="aspect_ratio">1</property>
  <property name="kdenlive:clipname"/>
  <property name="kdenlive:folderid">-1</property>
  <property name="kdenlive:id">5</property>
  <property name="kdenlive:file_size">152593613</property>
  <property name="kdenlive:file_hash">d7026c63678c08dd5e5a636ba645c955</property>
  <property name="xml">was here</property>
  <property name="meta.media.nb_streams">1</property>
  <property name="meta.media.0.stream.type">video</property>
  <property name="meta.media.0.stream.frame_rate">29.97</property>
  <property name="meta.media.0.stream.sample_aspect_ratio">1</property>
  <property name="meta.media.0.codec.width">960</property>
  <property name="meta.media.0.codec.height">720</property>
  <property name="meta.media.0.codec.rotate">0</property>
  <property name="meta.media.0.codec.pix_fmt">yuv420p</property>
  <property name="meta.media.0.codec.sample_aspect_ratio">1</property>
  <property name="meta.media.0.codec.colorspace">709</property>
  <property name="meta.media.0.codec.color_trc">1</property>
  <property name="meta.media.0.codec.name">h264</property>
  <property name="meta.media.0.codec.long_name">H.264 / AVC / MPEG-4 AVC / MPEG-4 part 10</property>
  <property name="meta.media.0.codec.bit_rate">579953</property>
  <property name="meta.attr.0.stream.handler_name.markup">ISO Media file produced by Google Inc.</property>
  <property name="meta.attr.0.stream.vendor_id.markup">[0][0][0][0]</property>
  <property name="meta.attr.major_brand.markup">isom</property>
  <property name="meta.attr.minor_version.markup">512</property>
  <property name="meta.attr.compatible_brands.markup">isomiso2avc1mp41</property>
  <property name="meta.attr.encoder.markup">Lavf60.16.100</property>
  <property name="meta.media.sample_aspect_num">1</property>
  <property name="meta.media.sample_aspect_den">1</property>
  <property name="meta.media.frame_rate_num">30000</property>
  <property name="meta.media.frame_rate_den">1001</property>
  <property name="meta.media.colorspace">709</property>
  <property name="meta.media.color_trc">1</property>
  <property name="meta.media.has_b_frames">2</property>
  <property name="meta.media.width">960</property>
  <property name="meta.media.height">720</property>
  <property name="meta.media.color_range">mpeg</property>
  <property name="meta.media.top_field_first">0</property>
  <property name="meta.media.progressive">1</property>
  <property name="set.test_audio">1</property>
  <property name="set.test_image">0</property>
  <property name="kdenlive:control_uuid">{3669b690-d6bc-4db4-a058-e2c30f120bb2}</property>
  <property name="meta.attr.0.stream.encoder.markup">Lavc60.31.102 libx264</property>
  <property name="format">3</property>
  <property name="vstream">0</property>
  <property name="meta.media.aspect_ratio">1</property>
 </chain>
 <producer id="producer31" in="00:00:00.000" out="00:11:57.791">
  <property name="length">21513</property>
  <property name="eof">pause</property>
  <property name="resource">2:/mnt/data1/Anime-Edits/Monster/Monster-Editing/Orig720p/MP4/Ep49.mp4</property>
  <property name="aspect_ratio">1</property>
  <property name="meta.media.nb_streams">1</property>
  <property name="meta.media.0.stream.type">video</property>
  <property name="meta.media.0.stream.frame_rate">29.97</property>
  <property name="meta.media.0.stream.sample_aspect_ratio">1</property>
  <property name="meta.media.0.codec.width">960</property>
  <property name="meta.media.0.codec.height">720</property>
  <property name="meta.media.0.codec.rotate">0</property>
  <property name="meta.media.0.codec.pix_fmt">yuv420p</property>
  <property name="meta.media.0.codec.sample_aspect_ratio">1</property>
  <property name="meta.media.0.codec.colorspace">709</property>
  <property name="meta.media.0.codec.color_trc">1</property>
  <property name="meta.media.0.codec.name">h264</property>
  <property name="meta.media.0.codec.long_name">H.264 / AVC / MPEG-4 AVC / MPEG-4 part 10</property>
  <property name="meta.media.0.codec.bit_rate">846434</property>
  <property name="meta.attr.0.stream.handler_name.markup">ISO Media file produced by Google Inc.</property>
  <property name="meta.attr.0.stream.vendor_id.markup">[0][0][0][0]</property>
  <property name="meta.attr.0.stream.encoder.markup">Lavc60.31.102 libx264</property>
  <property name="meta.attr.major_brand.markup">isom</property>
  <property name="meta.attr.minor_version.markup">512</property>
  <property name="meta.attr.compatible_brands.markup">isomiso2avc1mp41</property>
  <property name="meta.attr.encoder.markup">Lavf58.76.100</property>
  <property name="seekable">1</property>
  <property name="meta.media.sample_aspect_num">1</property>
  <property name="meta.media.sample_aspect_den">1</property>
  <property name="format">3</property>
  <property name="audio_index">-1</property>
  <property name="video_index">0</property>
  <property name="warp_speed">2</property>
  <property name="warp_resource">/mnt/data1/Anime-Edits/Monster/Monster-Editing/Orig720p/MP4/Ep49.mp4</property>
  <property name="mlt_service">timewarp</property>
  <property name="set.test_audio">1</property>
  <property name="set.test_image">0</property>
  <property name="kdenlive:id">5</property>
  <property name="warp_pitch">0</property>
  <property name="meta.media.frame_rate_num">344200000</property>
  <property name="meta.media.frame_rate_den">11484803</property>
  <property name="meta.media.colorspace">709</property>
  <property name="meta.media.color_trc">1</property>
  <property name="meta.media.has_b_frames">1</property>
  <property name="meta.media.width">960</property>
  <property name="meta.media.height">720</property>
  <property name="meta.media.color_range">mpeg</property>
  <property name="meta.media.top_field_first">0</property>
  <property name="meta.media.progressive">1</property>
  <property name="kdenlive:control_uuid">{3669b690-d6bc-4db4-a058-e2c30f120bb2}</property>
 </producer>
 <chain id="producer72" out="00:23:55.522">
  <property name="length">43023</property>
  <property name="eof">pause</property>
  <property name="resource">/mnt/data1/Anime-Edits/Monster/Monster-Editing/Orig720p/MP4/Ep50.mp4</property>
  <property name="mlt_service">avformat-novalidate</property>
  <property name="audio_index">-1</property>
  <property name="video_index">0</property>
  <property name="seekable">1</property>
  <property name="aspect_ratio">1</property>
  <property name="kdenlive:clipname"/>
  <property name="kdenlive:folderid">-1</property>
  <property name="kdenlive:id">6</property>
  <property name="kdenlive:file_size">151627835</property>
  <property name="kdenlive:file_hash">e6d22b75c5fd25ec9e71a2e8e74a502b</property>
  <property name="xml">was here</property>
  <property name="meta.media.nb_streams">1</property>
  <property name="meta.media.0.stream.type">video</property>
  <property name="meta.media.0.stream.frame_rate">29.97</property>
  <property name="meta.media.0.stream.sample_aspect_ratio">1</property>
  <property name="meta.media.0.codec.width">960</property>
  <property name="meta.media.0.codec.height">720</property>
  <property name="meta.media.0.codec.rotate">0</property>
  <property name="meta.media.0.codec.pix_fmt">yuv420p</property>
  <property name="meta.media.0.codec.sample_aspect_ratio">1</property>
  <property name="meta.media.0.codec.colorspace">709</property>
  <property name="meta.media.0.codec.color_trc">1</property>
  <property name="meta.media.0.codec.name">h264</property>
  <property name="meta.media.0.codec.long_name">H.264 / AVC / MPEG-4 AVC / MPEG-4 part 10</property>
  <property name="meta.media.0.codec.bit_rate">561977</property>
  <property name="meta.attr.0.stream.handler_name.markup">ISO Media file produced by Google Inc.</property>
  <property name="meta.attr.0.stream.vendor_id.markup">[0][0][0][0]</property>
  <property name="meta.attr.major_brand.markup">isom</property>
  <property name="meta.attr.minor_version.markup">512</property>
  <property name="meta.attr.compatible_brands.markup">isomiso2avc1mp41</property>
  <property name="meta.attr.encoder.markup">Lavf60.16.100</property>
  <property name="meta.media.sample_aspect_num">1</property>
  <property name="meta.media.sample_aspect_den">1</property>
  <property name="meta.media.frame_rate_num">30000</property>
  <property name="meta.media.frame_rate_den">1001</property>
  <property name="meta.media.colorspace">709</property>
  <property name="meta.media.color_trc">1</property>
  <property name="meta.media.has_b_frames">2</property>
  <property name="meta.media.width">960</property>
  <property name="meta.media.height">720</property>
  <property name="meta.media.color_range">mpeg</property>
  <property name="meta.media.top_field_first">0</property>
  <property name="meta.media.progressive">1</property>
  <property name="set.test_audio">1</property>
  <property name="set.test_image">0</property>
  <property name="kdenlive:control_uuid">{7ec1f8d2-a5d1-45a1-94ba-3f8865eac321}</property>
  <property name="meta.attr.0.stream.encoder.markup">Lavc60.31.102 libx264</property>
  <property name="format">3</property>
  <property name="vstream">0</property>
  <property name="meta.media.aspect_ratio">1</property>
 </chain>
 <producer id="producer32" in="00:00:00.000" out="00:07:58.492">
  <property name="length">14341</property>
  <property name="eof">pause</property>
  <property name="resource">3:/mnt/data1/Anime-Edits/Monster/Monster-Editing/Orig720p/MP4/Ep50.mp4</property>
  <property name="aspect_ratio">1</property>
  <property name="meta.media.nb_streams">1</property>
  <property name="meta.media.0.stream.type">video</property>
  <property name="meta.media.0.stream.frame_rate">29.97</property>
  <property name="meta.media.0.stream.sample_aspect_ratio">1</property>
  <property name="meta.media.0.codec.width">960</property>
  <property name="meta.media.0.codec.height">720</property>
  <property name="meta.media.0.codec.rotate">0</property>
  <property name="meta.media.0.codec.pix_fmt">yuv420p</property>
  <property name="meta.media.0.codec.sample_aspect_ratio">1</property>
  <property name="meta.media.0.codec.colorspace">709</property>
  <property name="meta.media.0.codec.color_trc">1</property>
  <property name="meta.media.0.codec.name">h264</property>
  <property name="meta.media.0.codec.long_name">H.264 / AVC / MPEG-4 AVC / MPEG-4 part 10</property>
  <property name="meta.media.0.codec.bit_rate">841159</property>
  <property name="meta.attr.0.stream.handler_name.markup">ISO Media file produced by Google Inc.</property>
  <property name="meta.attr.0.stream.vendor_id.markup">[0][0][0][0]</property>
  <property name="meta.attr.0.stream.encoder.markup">Lavc60.31.102 libx264</property>
  <property name="meta.attr.major_brand.markup">isom</property>
  <property name="meta.attr.minor_version.markup">512</property>
  <property name="meta.attr.compatible_brands.markup">isomiso2avc1mp41</property>
  <property name="meta.attr.encoder.markup">Lavf58.76.100</property>
  <property name="seekable">1</property>
  <property name="meta.media.sample_aspect_num">1</property>
  <property name="meta.media.sample_aspect_den">1</property>
  <property name="format">3</property>
  <property name="audio_index">-1</property>
  <property name="video_index">0</property>
  <property name="warp_speed">3</property>
  <property name="warp_resource">/mnt/data1/Anime-Edits/Monster/Monster-Editing/Orig720p/MP4/Ep50.mp4</property>
  <property name="mlt_service">timewarp</property>
  <property name="set.test_audio">1</property>
  <property name="set.test_image">0</property>
  <property name="kdenlive:id">6</property>
  <property name="warp_pitch">0</property>
  <property name="meta.media.frame_rate_num">114728000</property>
  <property name="meta.media.frame_rate_den">3828089</property>
  <property name="meta.media.colorspace">709</property>
  <property name="meta.media.color_trc">1</property>
  <property name="meta.media.has_b_frames">1</property>
  <property name="meta.media.width">960</property>
  <property name="meta.media.height">720</property>
  <property name="meta.media.color_range">mpeg</property>
  <property name="meta.media.top_field_first">0</property>
  <property name="meta.media.progressive">1</property>
  <property name="kdenlive:control_uuid">{7ec1f8d2-a5d1-45a1-94ba-3f8865eac321}</property>
 </producer>
 <playlist id="playlist4">
  <entry in="00:00:00.000" out="00:08:57.658" producer="producer69">
   <property name="kdenlive:id">3</property>
  </entry>
  <entry in="00:08:57.691" out="00:09:00.133" producer="producer69">
   <property name="kdenlive:id">3</property>
  </entry>
  <entry in="00:09:02.536" out="00:09:03.871" producer="producer69">
   <property name="kdenlive:id">3</property>
  </entry>
  <entry in="00:09:03.904" out="00:09:31.498" producer="producer69">
   <property name="kdenlive:id">3</property>
  </entry>
  <entry in="00:09:32.065" out="00:09:32.933" producer="producer69">
   <property name="kdenlive:id">3</property>
  </entry>
  <entry in="00:09:32.966" out="00:14:20.988" producer="producer69">
   <property name="kdenlive:id">3</property>
   <filter id="filter146" in="00:14:19.453" out="00:14:20.988">
    <property name="start">1</property>
    <property name="level">1</property>
    <property name="mlt_service">brightness</property>
    <property name="kdenlive_id">fade_to_black</property>
    <property name="alpha">00:00:00.000=1;00:00:01.535=0</property>
   </filter>
  </entry>
  <entry in="00:14:26.326" out="00:14:30.564" producer="producer69">
   <property name="kdenlive:id">3</property>
   <filter id="filter147" in="00:14:26.326" out="00:14:29.029">
    <property name="start">1</property>
    <property name="level">1</property>
    <property name="mlt_service">brightness</property>
    <property name="kdenlive_id">fade_from_black</property>
    <property name="alpha">00:00:00.000=0;00:00:02.703=1</property>
    <property name="kdenlive:collapsed">0</property>
   </filter>
  </entry>
  <entry in="00:15:07.241" out="00:15:10.010" producer="producer69">
   <property name="kdenlive:id">3</property>
  </entry>
  <entry in="00:15:10.043" out="00:16:57.224" producer="producer69">
   <property name="kdenlive:id">3</property>
  </entry>
  <entry in="00:16:58.492" out="00:16:59.426" producer="producer69">
   <property name="kdenlive:id">3</property>
  </entry>
  <entry in="00:16:59.459" out="00:17:13.514" producer="producer69">
   <property name="kdenlive:id">3</property>
  </entry>
  <entry in="00:17:13.981" out="00:17:16.950" producer="producer69">
   <property name="kdenlive:id">3</property>
  </entry>
  <entry in="00:17:18.986" out="00:17:19.520" producer="producer69">
   <property name="kdenlive:id">3</property>
  </entry>
  <entry in="00:17:19.553" out="00:18:09.176" producer="producer69">
   <property name="kdenlive:id">3</property>
  </entry>
  <entry in="00:18:14.114" out="00:18:19.353" producer="producer69">
   <property name="kdenlive:id">3</property>
  </entry>
  <entry in="00:18:19.386" out="00:22:20.721" producer="producer69">
   <property name="kdenlive:id">3</property>
  </entry>
  <entry in="00:22:20.754" out="00:22:23.757" producer="producer69">
   <property name="kdenlive:id">3</property>
  </entry>
  <entry in="00:22:25.459" out="00:22:26.994" producer="producer69">
   <property name="kdenlive:id">3</property>
  </entry>
  <entry in="00:03:11.044" out="00:05:37.938" producer="producer70">
   <property name="kdenlive:id">4</property>
  </entry>
  <entry in="00:05:41.875" out="00:05:52.753" producer="producer70">
   <property name="kdenlive:id">4</property>
  </entry>
  <entry in="00:05:52.786" out="00:06:03.003" producer="producer70">
   <property name="kdenlive:id">4</property>
  </entry>
  <entry in="00:06:04.171" out="00:06:11.111" producer="producer70">
   <property name="kdenlive:id">4</property>
  </entry>
  <entry in="00:06:14.248" out="00:06:14.648" producer="producer70">
   <property name="kdenlive:id">4</property>
  </entry>
  <entry in="00:06:14.681" out="00:11:44.278" producer="producer70">
   <property name="kdenlive:id">4</property>
  </entry>
  <entry in="00:11:57.491" out="00:12:08.208" producer="producer70">
   <property name="kdenlive:id">4</property>
  </entry>
  <entry in="00:12:08.242" out="00:14:27.461" producer="producer70">
   <property name="kdenlive:id">4</property>
  </entry>
  <entry in="00:14:30.731" out="00:18:50.183" producer="producer70">
   <property name="kdenlive:id">4</property>
  </entry>
  <entry in="00:18:52.819" out="00:18:55.455" producer="producer70">
   <property name="kdenlive:id">4</property>
  </entry>
  <entry in="00:18:55.489" out="00:19:47.080" producer="producer70">
   <property name="kdenlive:id">4</property>
   <filter id="filter148" in="00:19:45.679" out="00:19:47.080">
    <property name="start">1</property>
    <property name="level">1</property>
    <property name="mlt_service">brightness</property>
    <property name="kdenlive_id">fade_to_black</property>
    <property name="alpha">00:00:00.000=1;00:00:01.401=0</property>
   </filter>
  </entry>
  <entry in="00:19:58.659" out="00:20:00.968" producer="producer70">
   <property name="kdenlive:id">4</property>
  </entry>
  <entry in="00:20:01.001" out="00:22:26.760" producer="producer70">
   <property name="kdenlive:id">4</property>
  </entry>
  <entry in="00:00:00.033" out="00:00:55.789" producer="producer71">
   <property name="kdenlive:id">5</property>
  </entry>
  <entry in="00:00:55.822" out="00:01:02.636" producer="producer71">
   <property name="kdenlive:id">5</property>
   <filter id="filter149" in="00:01:00.734" out="00:01:02.636">
    <property name="start">1</property>
    <property name="level">1</property>
    <property name="mlt_service">brightness</property>
    <property name="kdenlive_id">fade_to_black</property>
    <property name="alpha">00:00:00.000=1;00:00:01.902=0</property>
   </filter>
  </entry>
  <entry in="00:02:32.065" out="00:02:32.399" producer="producer71">
   <property name="kdenlive:id">5</property>
  </entry>
  <entry in="00:02:32.432" out="00:19:20.754" producer="producer71">
   <property name="kdenlive:id">5</property>
  </entry>
  <blank length="00:00:07.608"/>
  <entry in="00:19:30.764" out="00:20:37.638" producer="producer71">
   <property name="kdenlive:id">5</property>
  </entry>
  <entry in="00:20:37.671" out="00:20:39.606" producer="producer71">
   <property name="kdenlive:id">5</property>
  </entry>
  <entry in="00:10:19.820" out="00:10:22.489" producer="producer31">
   <property name="kdenlive:id">5</property>
  </entry>
  <entry in="00:20:45.012" out="00:20:46.647" producer="producer71">
   <property name="kdenlive:id">5</property>
  </entry>
  <entry in="00:20:46.680" out="00:22:26.827" producer="producer71">
   <property name="kdenlive:id">5</property>
  </entry>
  <entry in="00:00:00.033" out="00:00:44.011" producer="producer72">
   <property name="kdenlive:id">6</property>
  </entry>
  <entry in="00:02:09.977" out="00:05:15.415" producer="producer72">
   <property name="kdenlive:id">6</property>
  </entry>
  <entry in="00:01:45.145" out="00:01:46.313" producer="producer32">
   <property name="kdenlive:id">6</property>
  </entry>
  <entry in="00:05:19.052" out="00:10:48.015" producer="producer72">
   <property name="kdenlive:id">6</property>
  </entry>
  <entry in="00:10:48.048" out="00:10:52.452" producer="producer72">
   <property name="kdenlive:id">6</property>
  </entry>
  <entry in="00:11:08.709" out="00:11:10.677" producer="producer72">
   <property name="kdenlive:id">6</property>
  </entry>
  <entry in="00:11:10.711" out="00:23:36.937" producer="producer72">
   <property name="kdenlive:id">6</property>
  </entry>
 </playlist>
 <playlist id="playlist5"/>
 <tractor id="tractor2" in="00:00:00.000" out="01:22:53.687">
  <property name="kdenlive:trackheight">69</property>
  <property name="kdenlive:timeline_active">1</property>
  <property name="kdenlive:collapsed">0</property>
  <property name="kdenlive:thumbs_format"/>
  <property name="kdenlive:audio_rec"/>
  <track hide="audio" producer="playlist4"/>
  <track hide="audio" producer="playlist5"/>
 </tractor>
 <chain id="producer33" out="00:23:55.589">
  <property name="length">43025</property>
  <property name="eof">pause</property>
  <property name="resource">/mnt/data1/Anime-Edits/Monster/Monster-Editing/Orig720p/MP4/Ep49.mp4</property>
  <property name="mlt_service">avformat-novalidate</property>
  <property name="audio_index">-1</property>
  <property name="video_index">0</property>
  <property name="seekable">1</property>
  <property name="aspect_ratio">1</property>
  <property name="kdenlive:clipname"/>
  <property name="kdenlive:folderid">-1</property>
  <property name="kdenlive:id">5</property>
  <property name="kdenlive:file_size">152593613</property>
  <property name="kdenlive:file_hash">d7026c63678c08dd5e5a636ba645c955</property>
  <property name="kdenlive:clip_type">2</property>
  <property name="xml">was here</property>
  <property name="meta.media.nb_streams">1</property>
  <property name="meta.media.0.stream.type">video</property>
  <property name="meta.media.0.stream.frame_rate">29.97</property>
  <property name="meta.media.0.stream.sample_aspect_ratio">1</property>
  <property name="meta.media.0.codec.width">960</property>
  <property name="meta.media.0.codec.height">720</property>
  <property name="meta.media.0.codec.rotate">0</property>
  <property name="meta.media.0.codec.pix_fmt">yuv420p</property>
  <property name="meta.media.0.codec.sample_aspect_ratio">1</property>
  <property name="meta.media.0.codec.colorspace">709</property>
  <property name="meta.media.0.codec.color_trc">1</property>
  <property name="meta.media.0.codec.name">h264</property>
  <property name="meta.media.0.codec.long_name">H.264 / AVC / MPEG-4 AVC / MPEG-4 part 10</property>
  <property name="meta.media.0.codec.bit_rate">846434</property>
  <property name="meta.attr.0.stream.handler_name.markup">ISO Media file produced by Google Inc.</property>
  <property name="meta.attr.0.stream.vendor_id.markup">[0][0][0][0]</property>
  <property name="meta.attr.major_brand.markup">isom</property>
  <property name="meta.attr.minor_version.markup">512</property>
  <property name="meta.attr.compatible_brands.markup">isomiso2avc1mp41</property>
  <property name="meta.attr.encoder.markup">Lavf58.76.100</property>
  <property name="meta.media.sample_aspect_num">1</property>
  <property name="meta.media.sample_aspect_den">1</property>
  <property name="meta.media.frame_rate_num">344200000</property>
  <property name="meta.media.frame_rate_den">11484803</property>
  <property name="meta.media.colorspace">709</property>
  <property name="meta.media.color_trc">1</property>
  <property name="meta.media.has_b_frames">1</property>
  <property name="meta.media.width">960</property>
  <property name="meta.media.height">720</property>
  <property name="meta.media.color_range">mpeg</property>
  <property name="meta.media.top_field_first">0</property>
  <property name="meta.media.progressive">1</property>
  <property name="set.test_audio">1</property>
  <property name="set.test_image">0</property>
  <property name="kdenlive:control_uuid">{3669b690-d6bc-4db4-a058-e2c30f120bb2}</property>
 </chain>
 <playlist id="playlist6">
  <blank length="00:58:00.300"/>
  <entry in="00:19:23.156" out="00:19:30.731" producer="producer33">
   <property name="kdenlive:id">5</property>
  </entry>
 </playlist>
 <playlist id="playlist7"/>
 <tractor id="tractor3" in="00:00:00.000" out="00:58:07.875">
  <property name="kdenlive:trackheight">69</property>
  <property name="kdenlive:timeline_active">1</property>
  <property name="kdenlive:collapsed">0</property>
  <property name="kdenlive:thumbs_format"/>
  <property name="kdenlive:audio_rec"/>
  <track hide="audio" producer="playlist6"/>
  <track hide="audio" producer="playlist7"/>
 </tractor>
 <tractor id="{b44307ff-a5c9-43cd-8ee1-86a9c91dc00e}" in="00:00:00.000" out="01:22:53.687">
  <property name="kdenlive:uuid">{b44307ff-a5c9-43cd-8ee1-86a9c91dc00e}</property>
  <property name="kdenlive:clipname">Sequence 1</property>
  <property name="kdenlive:sequenceproperties.hasAudio">1</property>
  <property name="kdenlive:sequenceproperties.hasVideo">1</property>
  <property name="kdenlive:sequenceproperties.activeTrack">3</property>
  <property name="kdenlive:sequenceproperties.tracksCount">4</property>
  <property name="kdenlive:sequenceproperties.documentuuid">{b44307ff-a5c9-43cd-8ee1-86a9c91dc00e}</property>
  <property name="kdenlive:control_uuid">{b44307ff-a5c9-43cd-8ee1-86a9c91dc00e}</property>
  <property name="kdenlive:duration">01:22:53.720</property>
  <property name="kdenlive:maxduration">149062</property>
  <property name="kdenlive:producer_type">17</property>
  <property name="kdenlive:id">13</property>
  <property name="kdenlive:clip_type">0</property>
  <property name="kdenlive:file_size">0</property>
  <property name="kdenlive:folderid">12</property>
  <property name="kdenlive:sequenceproperties.audioTarget">-1</property>
  <property name="kdenlive:sequenceproperties.disablepreview">0</property>
  <property name="kdenlive:sequenceproperties.position">149061</property>
  <property name="kdenlive:sequenceproperties.scrollPos">0</property>
  <property name="kdenlive:sequenceproperties.videoTarget">-1</property>
  <property name="kdenlive:sequenceproperties.zonein">0</property>
  <property name="kdenlive:sequenceproperties.zoneout">149062</property>
  <property name="kdenlive:sequenceproperties.zoom">18</property>
  <property name="kdenlive:sequenceproperties.groups">[
]
</property>
  <property name="kdenlive:sequenceproperties.guides">[
]
</property>
  <track producer="producer0"/>
  <track producer="tractor0"/>
  <track producer="tractor1"/>
  <track producer="tractor2"/>
  <track producer="tractor3"/>
  <transition id="transition0">
   <property name="a_track">0</property>
   <property name="b_track">1</property>
   <property name="mlt_service">mix</property>
   <property name="kdenlive_id">mix</property>
   <property name="internal_added">237</property>
   <property name="always_active">1</property>
   <property name="accepts_blanks">1</property>
   <property name="sum">1</property>
  </transition>
  <transition id="transition1">
   <property name="a_track">0</property>
   <property name="b_track">2</property>
   <property name="mlt_service">mix</property>
   <property name="kdenlive_id">mix</property>
   <property name="internal_added">237</property>
   <property name="always_active">1</property>
   <property name="accepts_blanks">1</property>
   <property name="sum">1</property>
  </transition>
  <transition id="transition2">
   <property name="a_track">0</property>
   <property name="b_track">3</property>
   <property name="compositing">0</property>
   <property name="distort">0</property>
   <property name="rotate_center">0</property>
   <property name="mlt_service">qtblend</property>
   <property name="kdenlive_id">qtblend</property>
   <property name="internal_added">237</property>
   <property name="always_active">1</property>
  </transition>
  <transition id="transition3">
   <property name="a_track">0</property>
   <property name="b_track">4</property>
   <property name="compositing">0</property>
   <property name="distort">0</property>
   <property name="rotate_center">0</property>
   <property name="mlt_service">qtblend</property>
   <property name="kdenlive_id">qtblend</property>
   <property name="internal_added">237</property>
   <property name="always_active">1</property>
  </transition>
  <filter id="filter2">
   <property name="window">75</property>
   <property name="max_gain">20dB</property>
   <property name="mlt_service">volume</property>
   <property name="internal_added">237</property>
   <property name="disable">1</property>
  </filter>
  <filter id="filter3">
   <property name="channel">-1</property>
   <property name="mlt_service">panner</property>
   <property name="internal_added">237</property>
   <property name="start">0.5</property>
   <property name="disable">1</property>
  </filter>
  <filter id="filter150">
   <property name="window">75</property>
   <property name="max_gain">20dB</property>
   <property name="mlt_service">volume</property>
   <property name="internal_added">237</property>
   <property name="disable">1</property>
  </filter>
  <filter id="filter151">
   <property name="channel">-1</property>
   <property name="mlt_service">panner</property>
   <property name="internal_added">237</property>
   <property name="start">0.5</property>
   <property name="disable">1</property>
  </filter>
 </tractor>
 <playlist id="main_bin">
  <property name="kdenlive:folder.-1.12">Sequences</property>
  <property name="kdenlive:sequenceFolder">12</property>
  <property name="kdenlive:docproperties.audioChannels">2</property>
  <property name="kdenlive:docproperties.binsort">0</property>
  <property name="kdenlive:docproperties.browserurl">/mnt/data1/Anime-Edits/Monster/Monster-Editing/Audio/eng/</property>
  <property name="kdenlive:docproperties.compositing">1</property>
  <property name="kdenlive:docproperties.documentid">1640709907372</property>
  <property name="kdenlive:docproperties.enableTimelineZone">0</property>
  <property name="kdenlive:docproperties.enableexternalproxy">0</property>
  <property name="kdenlive:docproperties.enableproxy">0</property>
  <property name="kdenlive:docproperties.externalproxyparams"/>
  <property name="kdenlive:docproperties.generateimageproxy">0</property>
  <property name="kdenlive:docproperties.generateproxy">0</property>
  <property name="kdenlive:docproperties.guidesCategories">[
    {
        "color": "#9b59b6",
        "comment": "Category 1",
        "index": 0
    },
    {
        "color": "#3daee9",
        "comment": "Category 2",
        "index": 1
    },
    {
        "color": "#1abc9c",
        "comment": "Category 3",
        "index": 2
    },
    {
        "color": "#1cdc9a",
        "comment": "Category 4",
        "index": 3
    },
    {
        "color": "#c9ce3b",
        "comment": "Category 5",
        "index": 4
    },
    {
        "color": "#fdbc4b",
        "comment": "Category 6",
        "index": 5
    },
    {
        "color": "#f39c1f",
        "comment": "Category 7",
        "index": 6
    },
    {
        "color": "#f47750",
        "comment": "Category 8",
        "index": 7
    },
    {
        "color": "#da4453",
        "comment": "Category 9",
        "index": 8
    }
]
</property>
  <property name="kdenlive:docproperties.kdenliveversion">24.12.0</property>
  <property name="kdenlive:docproperties.previewextension"/>
  <property name="kdenlive:docproperties.previewparameters"/>
  <property name="kdenlive:docproperties.profile">/home/redxarch/.local/share/kdenlive/profiles/customprofile1</property>
  <property name="kdenlive:docproperties.proxyextension"/>
  <property name="kdenlive:docproperties.proxyimageminsize">2000</property>
  <property name="kdenlive:docproperties.proxyimagesize">800</property>
  <property name="kdenlive:docproperties.proxyminsize">1000</property>
  <property name="kdenlive:docproperties.proxyparams"/>
  <property name="kdenlive:docproperties.proxyresize">640</property>
  <property name="kdenlive:docproperties.renderaudioquality">80</property>
  <property name="kdenlive:docproperties.rendercategory">Generic (HD for web, mobile devices...)</property>
  <property name="kdenlive:docproperties.rendercustomquality">100</property>
  <property name="kdenlive:docproperties.renderendguide">-1</property>
  <property name="kdenlive:docproperties.renderexportaudio">0</property>
  <property name="kdenlive:docproperties.renderfield">0</property>
  <property name="kdenlive:docproperties.renderguide">0</property>
  <property name="kdenlive:docproperties.rendermode">0</property>
  <property name="kdenlive:docproperties.renderplay">0</property>
  <property name="kdenlive:docproperties.renderpreview">0</property>
  <property name="kdenlive:docproperties.renderprofile">MP4-H264/AAC</property>
  <property name="kdenlive:docproperties.renderquality">24</property>
  <property name="kdenlive:docproperties.renderratio">1</property>
  <property name="kdenlive:docproperties.renderrescale">0</property>
  <property name="kdenlive:docproperties.renderrescaleheight">360</property>
  <property name="kdenlive:docproperties.renderrescalewidth">480</property>
  <property name="kdenlive:docproperties.renderscanning">0</property>
  <property name="kdenlive:docproperties.renderspeed">3</property>
  <property name="kdenlive:docproperties.renderstartguide">-1</property>
  <property name="kdenlive:docproperties.rendertcoverlay">0</property>
  <property name="kdenlive:docproperties.rendertctype">-1</property>
  <property name="kdenlive:docproperties.rendertwopass">0</property>
  <property name="kdenlive:docproperties.renderurl">/home/redxherring/Videos/Monster/Output/ep47-50.mp4</property>
  <property name="kdenlive:docproperties.renderzone">0</property>
  <property name="kdenlive:docproperties.seekOffset">30000</property>
  <property name="kdenlive:docproperties.sessionid">{b9fa8c1f-9998-4a14-bace-4acde758aca8}</property>
  <property name="kdenlive:docproperties.uuid">{b44307ff-a5c9-43cd-8ee1-86a9c91dc00e}</property>
  <property name="kdenlive:docproperties.version">1.1</property>
  <property name="kdenlive:docproperties.verticalzoom">1</property>
  <property name="kdenlive:docproperties.zoom">11</property>
  <property name="kdenlive:expandedFolders"/>
  <property name="kdenlive:binZoom">1</property>
  <property name="kdenlive:extraBins">project_bin:-1:0</property>
  <property name="kdenlive:documentnotes"/>
  <property name="kdenlive:documentnotesversion">2</property>
  <property name="kdenlive:docproperties.opensequences">{b44307ff-a5c9-43cd-8ee1-86a9c91dc00e}</property>
  <property name="kdenlive:docproperties.activetimeline">{b44307ff-a5c9-43cd-8ee1-86a9c91dc00e}</property>
  <property name="xml_retain">1</property>
  <entry in="00:00:00.000" out="00:23:55.522" producer="producer22"/>
  <entry in="00:00:00.000" out="00:23:55.522" producer="producer23"/>
  <entry in="00:00:00.000" out="00:23:55.589" producer="producer24"/>
  <entry in="00:00:00.000" out="00:23:55.522" producer="producer25"/>
  <entry in="00:00:00.000" out="00:23:55.556" producer="producer9"/>
  <entry in="00:00:00.000" out="00:23:55.522" producer="producer1"/>
  <entry in="00:00:00.000" out="00:23:55.589" producer="producer3"/>
  <entry in="00:00:00.000" out="00:23:55.522" producer="producer5"/>
  <entry in="00:00:00.000" out="01:22:53.720" producer="{b44307ff-a5c9-43cd-8ee1-86a9c91dc00e}"/>
 </playlist>
 <tractor id="tractor4" in="00:00:00.000" out="01:22:53.687">
  <property name="kdenlive:projectTractor">1</property>
  <track in="00:00:00.000" out="01:22:53.687" producer="{b44307ff-a5c9-43cd-8ee1-86a9c91dc00e}"/>
 </tractor>
</mlt>
