<?xml version='1.0' encoding='utf-8'?>
<mlt LC_NUMERIC="C" producer="main_bin" version="7.8.0" root="/home/redxherring/Videos/Monster/Monster-Editing/Editing">
 <profile frame_rate_num="344168000" sample_aspect_num="1" display_aspect_den="720" colorspace="709" progressive="1" description="960x720 29.97fps" display_aspect_num="960" frame_rate_den="11483739" width="960" height="720" sample_aspect_den="1"/>
 <producer id="producer0" in="00:00:00.000" out="00:23:55.455">
  <property name="length">43021</property>
  <property name="eof">pause</property>
  <property name="resource">/home/redxherring/Videos/Monster/MP4/Monster 01 - Herr Dr. Tenma [Eng Dub &amp; HD] - YouTube.mp4</property>
  <property name="audio_index">-1</property>
  <property name="video_index">0</property>
  <property name="mute_on_pause">0</property>
  <property name="mlt_service">avformat-novalidate</property>
  <property name="seekable">1</property>
  <property name="aspect_ratio">1</property>
  <property name="kdenlive:clipname"/>
  <property name="kdenlive:folderid">-1</property>
  <property name="kdenlive:id">2</property>
  <property name="kdenlive:file_size">164299745</property>
  <property name="kdenlive:file_hash">8a379c0f3f53e9f53e45b408e73eb9f3</property>
  <property name="global_feed">1</property>
  <property name="meta.media.nb_streams">1</property>
  <property name="meta.media.0.stream.type">video</property>
  <property name="meta.media.0.stream.frame_rate">29.97</property>
  <property name="meta.media.0.stream.sample_aspect_ratio">1</property>
  <property name="meta.media.0.codec.width">960</property>
  <property name="meta.media.0.codec.height">720</property>
  <property name="meta.media.0.codec.rotate">0</property>
  <property name="meta.media.0.codec.frame_rate">29.97</property>
  <property name="meta.media.0.codec.pix_fmt">yuv420p</property>
  <property name="meta.media.0.codec.sample_aspect_ratio">1</property>
  <property name="meta.media.0.codec.colorspace">709</property>
  <property name="meta.media.0.codec.color_trc">1</property>
  <property name="meta.media.0.codec.name">h264</property>
  <property name="meta.media.0.codec.long_name">H.264 / AVC / MPEG-4 AVC / MPEG-4 part 10</property>
  <property name="meta.media.0.codec.bit_rate">911741</property>
  <property name="meta.attr.0.stream.handler_name.markup">ISO Media file produced by Google Inc.</property>
  <property name="meta.attr.0.stream.vendor_id.markup">[0][0][0][0]</property>
  <property name="meta.attr.major_brand.markup">isom</property>
  <property name="meta.attr.minor_version.markup">512</property>
  <property name="meta.attr.compatible_brands.markup">isomiso2avc1mp41</property>
  <property name="meta.attr.encoder.markup">Lavf58.76.100</property>
  <property name="meta.media.sample_aspect_num">1</property>
  <property name="meta.media.sample_aspect_den">1</property>
  <property name="meta.media.frame_rate_num">344168000</property>
  <property name="meta.media.frame_rate_den">11483739</property>
  <property name="meta.media.colorspace">709</property>
  <property name="meta.media.color_trc">1</property>
  <property name="meta.media.width">960</property>
  <property name="meta.media.height">720</property>
  <property name="meta.media.color_range">mpeg</property>
  <property name="meta.media.top_field_first">0</property>
  <property name="meta.media.progressive">1</property>
  <property name="meta.media.has_b_frames">1</property>
  <property name="kdenlive:clip_type">2</property>
 </producer>
 <producer id="producer1" in="00:00:00.000" out="00:01:00.033">
  <property name="length">1800</property>
  <property name="eof">pause</property>
  <property name="resource">/home/redxherring/Videos/clips/audio-only/Dooropen1.wav</property>
  <property name="meta.media.nb_streams">1</property>
  <property name="meta.media.0.stream.type">audio</property>
  <property name="meta.media.0.codec.sample_fmt">s16</property>
  <property name="meta.media.0.codec.sample_rate">48000</property>
  <property name="meta.media.0.codec.channels">2</property>
  <property name="meta.media.0.codec.name">pcm_s16le</property>
  <property name="meta.media.0.codec.long_name">PCM signed 16-bit little-endian</property>
  <property name="meta.media.0.codec.bit_rate">1536000</property>
  <property name="meta.attr.encoder.markup">Lavf59.16.100</property>
  <property name="seekable">1</property>
  <property name="audio_index">0</property>
  <property name="video_index">-1</property>
  <property name="mute_on_pause">1</property>
  <property name="mlt_service">avformat</property>
  <property name="kdenlive:clipname">Dooropen1.wav</property>
  <property name="kdenlive:clip_type">1</property>
  <property name="kdenlive:proxy">-</property>
  <property name="kdenlive:originalurl">/home/redxherring/Videos/clips/audio-only/Dooropen1.wav</property>
  <property name="kdenlive:id">5</property>
  <property name="kdenlive:file_size">11533526</property>
  <property name="kdenlive:file_hash">7b169e9f97ee5bb6ce93005e96e3aee7</property>
  <property name="kdenlive:folderid">-1</property>
  <property name="kdenlive:audio_max0">183</property>
 </producer>
 <producer id="producer5" in="00:00:00.000" out="00:23:55.522">
  <property name="length">43023</property>
  <property name="eof">pause</property>
  <property name="resource">/home/redxherring/Videos/Monster/MP4/Monster 02 - Downfall [Eng Dub &amp; HD] - YouTube.mp4</property>
  <property name="audio_index">-1</property>
  <property name="video_index">0</property>
  <property name="mute_on_pause">0</property>
  <property name="mlt_service">avformat-novalidate</property>
  <property name="meta.media.nb_streams">1</property>
  <property name="meta.media.0.stream.type">video</property>
  <property name="meta.media.0.stream.frame_rate">29.97</property>
  <property name="meta.media.0.stream.sample_aspect_ratio">1</property>
  <property name="meta.media.0.codec.width">960</property>
  <property name="meta.media.0.codec.height">720</property>
  <property name="meta.media.0.codec.rotate">0</property>
  <property name="meta.media.0.codec.frame_rate">29.97</property>
  <property name="meta.media.0.codec.pix_fmt">yuv420p</property>
  <property name="meta.media.0.codec.sample_aspect_ratio">1</property>
  <property name="meta.media.0.codec.colorspace">709</property>
  <property name="meta.media.0.codec.color_trc">1</property>
  <property name="meta.media.0.codec.name">h264</property>
  <property name="meta.media.0.codec.long_name">H.264 / AVC / MPEG-4 AVC / MPEG-4 part 10</property>
  <property name="meta.media.0.codec.bit_rate">875993</property>
  <property name="meta.attr.0.stream.handler_name.markup">ISO Media file produced by Google Inc.</property>
  <property name="meta.attr.0.stream.vendor_id.markup">[0][0][0][0]</property>
  <property name="meta.attr.major_brand.markup">isom</property>
  <property name="meta.attr.minor_version.markup">512</property>
  <property name="meta.attr.compatible_brands.markup">isomiso2avc1mp41</property>
  <property name="meta.attr.encoder.markup">Lavf58.76.100</property>
  <property name="seekable">1</property>
  <property name="meta.media.sample_aspect_num">1</property>
  <property name="meta.media.sample_aspect_den">1</property>
  <property name="aspect_ratio">1</property>
  <property name="kdenlive:clipname"/>
  <property name="kdenlive:folderid">-1</property>
  <property name="meta.media.frame_rate_num">114728000</property>
  <property name="meta.media.frame_rate_den">3828089</property>
  <property name="meta.media.colorspace">709</property>
  <property name="meta.media.color_trc">1</property>
  <property name="meta.media.width">960</property>
  <property name="meta.media.height">720</property>
  <property name="meta.media.color_range">mpeg</property>
  <property name="kdenlive:id">6</property>
  <property name="kdenlive:file_size">157897575</property>
  <property name="kdenlive:file_hash">3ac9237e9de2e76f2e7e851f681b4dbe</property>
  <property name="meta.media.top_field_first">0</property>
  <property name="meta.media.progressive">1</property>
  <property name="global_feed">1</property>
  <property name="meta.media.has_b_frames">1</property>
  <property name="kdenlive:clip_type">2</property>
 </producer>
 <producer id="producer8" in="00:00:00.000" out="00:23:55.522">
  <property name="length">43023</property>
  <property name="eof">pause</property>
  <property name="resource">/home/redxherring/Videos/Monster/MP4/Monster 03 - A Murder [Eng Dub &amp; HD] - YouTube.mp4</property>
  <property name="audio_index">-1</property>
  <property name="video_index">0</property>
  <property name="mute_on_pause">0</property>
  <property name="mlt_service">avformat-novalidate</property>
  <property name="meta.media.nb_streams">1</property>
  <property name="meta.media.0.stream.type">video</property>
  <property name="meta.media.0.stream.frame_rate">29.97</property>
  <property name="meta.media.0.stream.sample_aspect_ratio">1</property>
  <property name="meta.media.0.codec.width">960</property>
  <property name="meta.media.0.codec.height">720</property>
  <property name="meta.media.0.codec.rotate">0</property>
  <property name="meta.media.0.codec.frame_rate">29.97</property>
  <property name="meta.media.0.codec.pix_fmt">yuv420p</property>
  <property name="meta.media.0.codec.sample_aspect_ratio">1</property>
  <property name="meta.media.0.codec.colorspace">709</property>
  <property name="meta.media.0.codec.color_trc">1</property>
  <property name="meta.media.0.codec.name">h264</property>
  <property name="meta.media.0.codec.long_name">H.264 / AVC / MPEG-4 AVC / MPEG-4 part 10</property>
  <property name="meta.media.0.codec.bit_rate">912508</property>
  <property name="meta.attr.0.stream.handler_name.markup">ISO Media file produced by Google Inc.</property>
  <property name="meta.attr.0.stream.vendor_id.markup">[0][0][0][0]</property>
  <property name="meta.attr.major_brand.markup">isom</property>
  <property name="meta.attr.minor_version.markup">512</property>
  <property name="meta.attr.compatible_brands.markup">isomiso2avc1mp41</property>
  <property name="meta.attr.encoder.markup">Lavf58.76.100</property>
  <property name="seekable">1</property>
  <property name="meta.media.sample_aspect_num">1</property>
  <property name="meta.media.sample_aspect_den">1</property>
  <property name="aspect_ratio">1</property>
  <property name="kdenlive:clipname"/>
  <property name="kdenlive:folderid">-1</property>
  <property name="meta.media.frame_rate_num">114728000</property>
  <property name="meta.media.frame_rate_den">3828089</property>
  <property name="meta.media.colorspace">709</property>
  <property name="meta.media.color_trc">1</property>
  <property name="meta.media.width">960</property>
  <property name="meta.media.height">720</property>
  <property name="meta.media.color_range">mpeg</property>
  <property name="kdenlive:id">9</property>
  <property name="kdenlive:file_size">164451811</property>
  <property name="kdenlive:file_hash">a0749fa611d82589353d299c58b882b5</property>
  <property name="meta.media.top_field_first">0</property>
  <property name="meta.media.progressive">1</property>
  <property name="global_feed">1</property>
  <property name="meta.media.has_b_frames">1</property>
  <property name="kdenlive:clip_type">2</property>
 </producer>
 <producer id="producer9" in="00:00:00.000" out="00:23:55.455">
  <property name="length">43021</property>
  <property name="eof">pause</property>
  <property name="resource">/home/redxherring/Videos/Monster/MP4/Monster 04 - Night of the Execution [Eng Dub &amp; HD] - YouTube.mp4</property>
  <property name="audio_index">-1</property>
  <property name="video_index">0</property>
  <property name="mute_on_pause">0</property>
  <property name="mlt_service">avformat-novalidate</property>
  <property name="meta.media.nb_streams">1</property>
  <property name="meta.media.0.stream.type">video</property>
  <property name="meta.media.0.stream.frame_rate">29.97</property>
  <property name="meta.media.0.stream.sample_aspect_ratio">1</property>
  <property name="meta.media.0.codec.width">960</property>
  <property name="meta.media.0.codec.height">720</property>
  <property name="meta.media.0.codec.rotate">0</property>
  <property name="meta.media.0.codec.frame_rate">29.97</property>
  <property name="meta.media.0.codec.pix_fmt">yuv420p</property>
  <property name="meta.media.0.codec.sample_aspect_ratio">1</property>
  <property name="meta.media.0.codec.colorspace">709</property>
  <property name="meta.media.0.codec.color_trc">1</property>
  <property name="meta.media.0.codec.name">h264</property>
  <property name="meta.media.0.codec.long_name">H.264 / AVC / MPEG-4 AVC / MPEG-4 part 10</property>
  <property name="meta.media.0.codec.bit_rate">845415</property>
  <property name="meta.attr.0.stream.handler_name.markup">ISO Media file produced by Google Inc.</property>
  <property name="meta.attr.0.stream.vendor_id.markup">[0][0][0][0]</property>
  <property name="meta.attr.major_brand.markup">isom</property>
  <property name="meta.attr.minor_version.markup">512</property>
  <property name="meta.attr.compatible_brands.markup">isomiso2avc1mp41</property>
  <property name="meta.attr.encoder.markup">Lavf58.76.100</property>
  <property name="seekable">1</property>
  <property name="meta.media.sample_aspect_num">1</property>
  <property name="meta.media.sample_aspect_den">1</property>
  <property name="aspect_ratio">1</property>
  <property name="kdenlive:clipname"/>
  <property name="kdenlive:folderid">-1</property>
  <property name="meta.media.frame_rate_num">344168000</property>
  <property name="meta.media.frame_rate_den">11483739</property>
  <property name="meta.media.colorspace">709</property>
  <property name="meta.media.color_trc">1</property>
  <property name="meta.media.width">960</property>
  <property name="meta.media.height">720</property>
  <property name="meta.media.color_range">mpeg</property>
  <property name="kdenlive:id">10</property>
  <property name="kdenlive:file_size">152396189</property>
  <property name="kdenlive:file_hash">dea826dc8d1afc00b5a44bf6bbb2c8a1</property>
  <property name="meta.media.top_field_first">0</property>
  <property name="meta.media.progressive">1</property>
  <property name="global_feed">1</property>
  <property name="meta.media.has_b_frames">1</property>
  <property name="kdenlive:clip_type">2</property>
 </producer>
 <producer id="producer14" in="00:00:00.000" out="00:23:55.589">
  <property name="length">43025</property>
  <property name="eof">pause</property>
  <property name="resource">/home/redxherring/Videos/Monster/MP4/Monster 23 - Eva's Confession [Eng Dub &amp; HD] - YouTube.mp4</property>
  <property name="audio_index">0</property>
  <property name="video_index">0</property>
  <property name="mute_on_pause">0</property>
  <property name="mlt_service">avformat-novalidate</property>
  <property name="seekable">1</property>
  <property name="aspect_ratio">1</property>
  <property name="kdenlive:clipname"/>
  <property name="kdenlive:id">15</property>
  <property name="kdenlive:file_size">169016183</property>
  <property name="kdenlive:file_hash">d092b039d210e8a79bf6df4335802032</property>
  <property name="kdenlive:folderid">16</property>
  <property name="global_feed">1</property>
  <property name="meta.media.nb_streams">1</property>
  <property name="meta.media.0.stream.type">video</property>
  <property name="meta.media.0.stream.frame_rate">29.97</property>
  <property name="meta.media.0.stream.sample_aspect_ratio">1</property>
  <property name="meta.media.0.codec.width">960</property>
  <property name="meta.media.0.codec.height">720</property>
  <property name="meta.media.0.codec.rotate">0</property>
  <property name="meta.media.0.codec.frame_rate">29.97</property>
  <property name="meta.media.0.codec.pix_fmt">yuv420p</property>
  <property name="meta.media.0.codec.sample_aspect_ratio">1</property>
  <property name="meta.media.0.codec.colorspace">709</property>
  <property name="meta.media.0.codec.color_trc">1</property>
  <property name="meta.media.0.codec.name">h264</property>
  <property name="meta.media.0.codec.long_name">H.264 / AVC / MPEG-4 AVC / MPEG-4 part 10</property>
  <property name="meta.media.0.codec.bit_rate">937960</property>
  <property name="meta.attr.0.stream.handler_name.markup">ISO Media file produced by Google Inc.</property>
  <property name="meta.attr.0.stream.vendor_id.markup">[0][0][0][0]</property>
  <property name="meta.attr.major_brand.markup">isom</property>
  <property name="meta.attr.minor_version.markup">512</property>
  <property name="meta.attr.compatible_brands.markup">isomiso2avc1mp41</property>
  <property name="meta.attr.encoder.markup">Lavf58.76.100</property>
  <property name="meta.media.sample_aspect_num">1</property>
  <property name="meta.media.sample_aspect_den">1</property>
  <property name="meta.media.frame_rate_num">344200000</property>
  <property name="meta.media.frame_rate_den">11484803</property>
  <property name="meta.media.colorspace">709</property>
  <property name="meta.media.color_trc">1</property>
  <property name="meta.media.width">960</property>
  <property name="meta.media.height">720</property>
  <property name="meta.media.color_range">mpeg</property>
  <property name="meta.media.has_b_frames">1</property>
  <property name="kdenlive:clip_type">2</property>
 </producer>
 <producer id="producer15" in="00:00:00.000" out="00:23:55.589">
  <property name="length">43025</property>
  <property name="eof">pause</property>
  <property name="resource">/home/redxherring/Videos/Monster/WAV/Monster 23 - Eva's Confession [Eng Dub &amp; HD] - YouTubeR.wav</property>
  <property name="meta.media.nb_streams">1</property>
  <property name="meta.media.0.stream.type">audio</property>
  <property name="meta.media.0.codec.sample_fmt">s16</property>
  <property name="meta.media.0.codec.sample_rate">48000</property>
  <property name="meta.media.0.codec.channels">1</property>
  <property name="meta.media.0.codec.name">pcm_s16le</property>
  <property name="meta.media.0.codec.long_name">PCM signed 16-bit little-endian</property>
  <property name="meta.media.0.codec.bit_rate">768000</property>
  <property name="meta.attr.encoder.markup">Lavf58.76.100</property>
  <property name="seekable">1</property>
  <property name="audio_index">0</property>
  <property name="video_index">-1</property>
  <property name="mute_on_pause">1</property>
  <property name="mlt_service">avformat</property>
  <property name="kdenlive:clipname"/>
  <property name="kdenlive:folderid">16</property>
  <property name="kdenlive:id">17</property>
  <property name="kdenlive:file_size">137818498</property>
  <property name="kdenlive:file_hash">b9286e8d57e730520941b9e14b599e62</property>
  <property name="kdenlive:audio_max">1</property>
  <property name="global_feed">1</property>
  <property name="kdenlive:clip_type">1</property>
  <property name="kdenlive:audio_max0">224</property>
 </producer>
 <producer id="producer16" in="00:00:00.000" out="00:23:55.589">
  <property name="length">43025</property>
  <property name="eof">pause</property>
  <property name="resource">/home/redxherring/Videos/Monster/WAV/Monster 23 - Eva's Confession [Eng Dub &amp; HD] - YouTubeL.wav</property>
  <property name="meta.media.nb_streams">1</property>
  <property name="meta.media.0.stream.type">audio</property>
  <property name="meta.media.0.codec.sample_fmt">s16</property>
  <property name="meta.media.0.codec.sample_rate">48000</property>
  <property name="meta.media.0.codec.channels">1</property>
  <property name="meta.media.0.codec.name">pcm_s16le</property>
  <property name="meta.media.0.codec.long_name">PCM signed 16-bit little-endian</property>
  <property name="meta.media.0.codec.bit_rate">768000</property>
  <property name="meta.attr.encoder.markup">Lavf58.76.100</property>
  <property name="seekable">1</property>
  <property name="audio_index">0</property>
  <property name="video_index">-1</property>
  <property name="mute_on_pause">1</property>
  <property name="mlt_service">avformat</property>
  <property name="kdenlive:clipname"/>
  <property name="kdenlive:folderid">16</property>
  <property name="kdenlive:id">18</property>
  <property name="kdenlive:file_size">137818498</property>
  <property name="kdenlive:file_hash">14e595e6d3332cff6660e29daa075a27</property>
  <property name="kdenlive:audio_max">1</property>
  <property name="global_feed">1</property>
  <property name="kdenlive:clip_type">1</property>
  <property name="kdenlive:audio_max0">231</property>
 </producer>
 <producer id="producer2" in="00:00:00.000" out="00:23:55.455">
  <property name="length">43021</property>
  <property name="eof">pause</property>
  <property name="resource">/home/redxherring/Videos/Monster/WAV/Monster 01 - Herr Dr. Tenma [Eng Dub &amp; HD] - YouTubeLR.wav</property>
  <property name="meta.media.nb_streams">1</property>
  <property name="meta.media.0.stream.type">audio</property>
  <property name="meta.media.0.codec.sample_fmt">s16</property>
  <property name="meta.media.0.codec.sample_rate">48000</property>
  <property name="meta.media.0.codec.channels">2</property>
  <property name="meta.media.0.codec.name">pcm_s16le</property>
  <property name="meta.media.0.codec.long_name">PCM signed 16-bit little-endian</property>
  <property name="meta.media.0.codec.bit_rate">1536000</property>
  <property name="meta.attr.encoder.markup">Lavf59.27.100</property>
  <property name="seekable">1</property>
  <property name="audio_index">0</property>
  <property name="video_index">-1</property>
  <property name="mute_on_pause">1</property>
  <property name="mlt_service">avformat</property>
  <property name="kdenlive:clipname">Monster 01 - Herr Dr. Tenma [Eng Dub &amp; HD] - YouTubeLR.wav</property>
  <property name="kdenlive:clip_type">1</property>
  <property name="kdenlive:proxy">-</property>
  <property name="kdenlive:originalurl">/home/redxherring/Videos/Monster/WAV/Monster 01 - Herr Dr. Tenma [Eng Dub &amp; HD] - YouTubeLR.wav</property>
  <property name="kdenlive:id">3</property>
  <property name="kdenlive:file_size">275610166</property>
  <property name="kdenlive:file_hash">0940175b75d7b5187ecfd78c5e4427fe</property>
  <property name="kdenlive:folderid">-1</property>
  <property name="kdenlive:audio_max0">190</property>
 </producer>
 <producer id="producer3" in="00:00:00.000" out="00:23:55.622">
  <property name="length">43026</property>
  <property name="eof">pause</property>
  <property name="resource">/home/redxherring/Videos/Monster/WAV/Monster 02 - Downfall [Eng Dub &amp; HD] - YouTubeLR.wav</property>
  <property name="meta.media.nb_streams">1</property>
  <property name="meta.media.0.stream.type">audio</property>
  <property name="meta.media.0.codec.sample_fmt">s16</property>
  <property name="meta.media.0.codec.sample_rate">48000</property>
  <property name="meta.media.0.codec.channels">2</property>
  <property name="meta.media.0.codec.name">pcm_s16le</property>
  <property name="meta.media.0.codec.long_name">PCM signed 16-bit little-endian</property>
  <property name="meta.media.0.codec.bit_rate">1536000</property>
  <property name="meta.attr.encoder.markup">Lavf59.27.100</property>
  <property name="seekable">1</property>
  <property name="audio_index">0</property>
  <property name="video_index">-1</property>
  <property name="mute_on_pause">1</property>
  <property name="mlt_service">avformat</property>
  <property name="kdenlive:clipname">Monster 02 - Downfall [Eng Dub &amp; HD] - YouTubeLR.wav</property>
  <property name="kdenlive:clip_type">1</property>
  <property name="kdenlive:proxy">-</property>
  <property name="kdenlive:originalurl">/home/redxherring/Videos/Monster/WAV/Monster 02 - Downfall [Eng Dub &amp; HD] - YouTubeLR.wav</property>
  <property name="kdenlive:id">7</property>
  <property name="kdenlive:file_size">275639146</property>
  <property name="kdenlive:file_hash">3ada7942dfc52f6418a5867f2e7e973d</property>
  <property name="kdenlive:folderid">-1</property>
  <property name="kdenlive:audio_max0">200</property>
 </producer>
 <producer id="producer4" in="00:00:00.000" out="00:23:55.522">
  <property name="length">43023</property>
  <property name="eof">pause</property>
  <property name="resource">/home/redxherring/Videos/Monster/WAV/Monster 03 - A Murder [Eng Dub &amp; HD] - YouTubeLR.wav</property>
  <property name="meta.media.nb_streams">1</property>
  <property name="meta.media.0.stream.type">audio</property>
  <property name="meta.media.0.codec.sample_fmt">s16</property>
  <property name="meta.media.0.codec.sample_rate">48000</property>
  <property name="meta.media.0.codec.channels">2</property>
  <property name="meta.media.0.codec.name">pcm_s16le</property>
  <property name="meta.media.0.codec.long_name">PCM signed 16-bit little-endian</property>
  <property name="meta.media.0.codec.bit_rate">1536000</property>
  <property name="meta.attr.encoder.markup">Lavf59.27.100</property>
  <property name="seekable">1</property>
  <property name="audio_index">0</property>
  <property name="video_index">-1</property>
  <property name="mute_on_pause">1</property>
  <property name="mlt_service">avformat</property>
  <property name="kdenlive:clipname">Monster 03 - A Murder [Eng Dub &amp; HD] - YouTubeLR.wav</property>
  <property name="kdenlive:clip_type">1</property>
  <property name="kdenlive:proxy">-</property>
  <property name="kdenlive:originalurl">/home/redxherring/Videos/Monster/WAV/Monster 03 - A Murder [Eng Dub &amp; HD] - YouTubeLR.wav</property>
  <property name="kdenlive:id">11</property>
  <property name="kdenlive:file_size">275623542</property>
  <property name="kdenlive:file_hash">63483de3c521ac65a84c0d4d2c4e861a</property>
  <property name="kdenlive:folderid">-1</property>
  <property name="kdenlive:audio_max0">193</property>
 </producer>
 <producer id="producer6" in="00:00:00.000" out="00:23:55.455">
  <property name="length">43021</property>
  <property name="eof">pause</property>
  <property name="resource">/home/redxherring/Videos/Monster/WAV/Monster 04 - Night of the Execution [Eng Dub &amp; HD] - YouTubeLR.wav</property>
  <property name="meta.media.nb_streams">1</property>
  <property name="meta.media.0.stream.type">audio</property>
  <property name="meta.media.0.codec.sample_fmt">s16</property>
  <property name="meta.media.0.codec.sample_rate">48000</property>
  <property name="meta.media.0.codec.channels">2</property>
  <property name="meta.media.0.codec.name">pcm_s16le</property>
  <property name="meta.media.0.codec.long_name">PCM signed 16-bit little-endian</property>
  <property name="meta.media.0.codec.bit_rate">1536000</property>
  <property name="meta.attr.encoder.markup">Lavf59.27.100</property>
  <property name="seekable">1</property>
  <property name="audio_index">0</property>
  <property name="video_index">-1</property>
  <property name="mute_on_pause">1</property>
  <property name="mlt_service">avformat</property>
  <property name="kdenlive:clipname">Monster 04 - Night of the Execution [Eng Dub &amp; HD] - YouTubeLR.wav</property>
  <property name="kdenlive:clip_type">1</property>
  <property name="kdenlive:proxy">-</property>
  <property name="kdenlive:originalurl">/home/redxherring/Videos/Monster/WAV/Monster 04 - Night of the Execution [Eng Dub &amp; HD] - YouTubeLR.wav</property>
  <property name="kdenlive:id">13</property>
  <property name="kdenlive:file_size">275610166</property>
  <property name="kdenlive:file_hash">bf307fd8a7fa3fe0bddbee5d591c16f7</property>
  <property name="kdenlive:folderid">-1</property>
  <property name="kdenlive:audio_max0">191</property>
 </producer>
 <playlist id="main_bin">
  <property name="kdenlive:folder.-1.16">Pasted clips</property>
  <property name="kdenlive:docproperties.activeTrack">4</property>
  <property name="kdenlive:docproperties.audioChannels">2</property>
  <property name="kdenlive:docproperties.audioTarget">2</property>
  <property name="kdenlive:docproperties.compositing">1</property>
  <property name="kdenlive:docproperties.dirtypreviewchunks">0,100,1000,10000,100000-100225,10025,100250-100475,10050,100500-100725,10075,100750-100975,10100,101000-101225,10125,101250-101475,10150,101500-101725,10175,101750-101975,10200,102000-102225,10225,102250-102475,1025,10250,102500-102725,10275,102750-102975,10300,103000-103225,10325,103250-103475,10350,103500-103725,10375,103750-103975,10400,104000-104225,10425,104250-104475,10450,104500-104725,10475,104750-104975,1050,10500,105000-105225,10525,105250-105475,10550,105500-105725,10575,105750-105975,10600,106000-106225,10625,106250-106475,10650,106500-106725,10675,106750-106975,10700,107000-107225,10725,107250-107475,1075,10750,107500-107725,10775,107750-107975,10800,108000-108225,10825,108250-108475,10850,108500-108725,10875,108750-108975,10900,109000-109225,10925,109250-109475,10950,109500-109725,10975,109750-109975,1100,11000,110000-110225,11025,110250-110475,11050,110500-110725,11075,110750-110975,11100,111000-111225,11125,111250-111475,11150,111500-111725,11175,111750-111975,11200,112000-112225,11225,112250-112475,1125,11250,112500-112725,11275,112750-112975,11300,113000-113225,11325,113250-113475,11350,113500-113725,11375,113750-113975,11400,114000-114225,11425,114250-114475,11450,114500-114725,11475,114750-114975,1150,11500,115000-115225,11525,115250-115475,11550,115500-115725,11575,115750-115975,11600,116000-116225,11625,116250-116475,11650,116500-116725,11675,116750-116975,11700,117000-117225,11725,117250-117475,1175,11750,117500-117725,11775,117750-117975,11800,118000-118225,11825,118250-118475,11850,118500-118725,11875,118750-118975,11900,119000-119225,11925,119250-119475,11950,119500-119725,11975,119750-119975,1200,12000,120000-120225,12025,120250-120475,12050,120500-120725,12075,120750-120975,12100,121000-121225,12125,121250-121475,12150,121500-121725,12175,121750-121975,12200,122000-122225,12225,122250-122475,1225,12250,122500-122725,12275,122750-122975,12300,123000-123225,12325,123250-123475,12350,123500-123725,12375,123750-123975,12400,124000-124225,12425,124250-124475,12450,124500-124725,12475,124750-124975,125,1250,12500,125000-125225,12525,125250-125475,12550,125500-125725,12575,125750-125975,12600,126000-126225,12625,126250-126475,12650,126500-126725,12675,126750-126975,12700,127000-127225,12725,127250-127475,1275,12750,127500-127725,12775,127750-127975,12800,128000-128225,12825,128250-128475,12850,128500-128725,12875,128750-128975,12900,129000-129225,12925,129250-129475,12950,129500-129725,12975,129750-129975,1300,13000,130000-130225,13025,130250-130475,13050,130500-130725,13075,130750-130975,13100,131000-131225,13125,131250-131475,13150,131500-131725,13175,131750-131975,13200,132000-132225,13225,132250-132475,1325,13250,132500-132725,13275,132750-132975,13300,133000-133225,13325,133250-133475,13350,133500-133725,13375,133750-133975,13400,134000-134225,13425,134250-134475,13450,134500-134725,13475,134750-134975,1350,13500,135000-135225,13525,135250-135475,13550,135500-135725,13575,135750-135975,13600,136000-136225,13625,136250-136475,13650,136500-136725,13675,136750-136975,13700,137000-137225,13725,137250-137475,1375,13750,137500-137725,13775,137750-137975,13800,138000-138225,13825,138250-138475,13850,138500-138725,13875,138750-138975,13900,139000-139225,13925,139250-139475,13950,139500-139725,13975,139750-139975,1400,14000,140000-140225,14025,140250-140475,14050,140500-140725,14075,140750-140975,14100,141000-141225,14125,141250-141475,14150,141500-141725,14175,141750-141975,14200,142000-142225,14225,142250-142475,1425,14250,142500-142725,14275,142750-142975,14300,143000-143225,14325,143250-143475,14350,143500-143725,14375,143750-143975,14400,144000-144225,14425,144250-144475,14450,144500-144725,14475,144750-144975,1450,14500,145000-145225,14525,145250-145475,14550,145500-145725,14575,145750-145975,14600,146000-146225,14625,146250-146475,14650,146500-146725,14675,146750-146975,14700,147000-147225,14725,147250-147475,1475,14750,147500-147725,14775,147750-147975,14800,148000-148225,14825,148250-148475,14850,148500-148725,14875,148750-148975,14900,149000-149225,14925,149250-149475,14950,149500-149725,14975,149750-149975,150,1500,15000,150000-150225,15025,150250-150475,15050,150500-150725,15075,150750-150975,15100,151000-151225,15125,151250-151475,15150,151500-151725,15175,151750-151975,15200,152000-152225,15225,152250-152475,1525,15250,152500-152725,15275,152750-152975,15300,153000-153225,15325,153250-153425,15350-15475,1550,15500-15725,1575,15750-15975,1600,16000-16225,1625,16250-16475,1650,16500-16725,1675,16750-16975,1700,17000-17225,1725,17250-17475,175,1750,17500-17725,1775,17750-17975,1800,18000-18225,1825,18250-18475,1850,18500-18725,1875,18750-18975,1900,19000-19225,1925,19250-19475,1950,19500-19725,1975,19750-19975,200,2000,20000-20225,2025,20250-20475,2050,20500-20725,2075,20750-20975,2100,21000-21225,2125,21250-21475,2150,21500-21725,2175,21750-21975,2200,22000-22225,2225,22250-22475,225,2250,22500-22725,2275,22750-22975,2300,23000-23225,2325,23250-23475,2350,23500-23725,2375,23750-23975,2400,24000-24225,2425,24250-24475,2450,24500-24725,2475,24750-24975,25,250,2500,25000-25225,2525,25250-25475,2550,25500-25725,2575,25750-25975,2600,26000-26225,2625,26250-26475,2650,26500-26725,2675,26750-26975,2700,27000-27225,2725,27250-27475,275,2750,27500-27725,2775,27750-27975,2800,28000-28225,2825,28250-28475,2850,28500-28725,2875,28750-28975,2900,29000-29225,2925,29250-29475,2950,29500-29725,2975,29750-29975,300,3000,30000-30225,3025,30250-30475,3050,30500-30725,3075,30750-30975,3100,31000-31225,3125,31250-31475,3150,31500-31725,3175,31750-31975,3200,32000-32225,3225,32250-32475,325,3250,32500-32725,3275,32750-32975,3300,33000-33225,3325,33250-33475,3350,33500-33725,3375,33750-33975,3400,34000-34225,3425,34250-34475,3450,34500-34725,3475,34750-34975,350,3500,35000-35225,3525,35250-35475,3550,35500-35725,3575,35750-35975,3600,36000-36225,3625,36250-36475,3650,36500-36725,3675,36750-36975,3700,37000-37225,3725,37250-37475,375,3750,37500-37725,3775,37750-37975,3800,38000-38225,3825,38250-38475,3850,38500-38725,3875,38750-38975,3900,39000-39225,3925,39250-39475,3950,39500-39725,3975,39750-39975,400,4000,40000-40225,4025,40250-40475,4050,40500-40725,4075,40750-40975,4100,41000-41225,4125,41250-41475,4150,41500-41725,4175,41750-41975,4200,42000-42225,4225,42250-42475,425,4250,42500-42725,4275,42750-42975,4300,43000-43225,4325,43250-43475,4350,43500-43725,4375,43750-43975,4400,44000-44225,4425,44250-44475,4450,44500-44725,4475,44750-44975,450,4500,45000-45225,4525,45250-45475,4550,45500-45725,4575,45750-45975,4600,46000-46225,4625,46250-46475,4650,46500-46725,4675,46750-46975,4700,47000-47225,4725,47250-47475,475,4750,47500-47725,4775,47750-47975,4800,48000-48225,4825,48250-48475,4850,48500-48725,4875,48750-48975,4900,49000-49225,4925,49250-49475,4950,49500-49725,4975,49750-49975,50,500,5000,50000-50225,5025,50250-50475,5050,50500-50725,5075,50750-50975,5100,51000-51225,5125,51250-51475,5150,51500-51725,5175,51750-51975,5200,52000-52225,5225,52250-52475,525,5250,52500-52725,5275,52750-52975,5300,53000-53225,5325,53250-53475,5350,53500-53725,5375,53750-53975,5400,54000-54225,5425,54250-54475,5450,54500-54725,5475,54750-54975,550,5500,55000-55225,5525,55250-55475,5550,55500-55725,5575,55750-55975,5600,56000-56225,5625,56250-56475,5650,56500-56725,5675,56750-56975,5700,57000-57225,5725,57250-57475,575,5750,57500-57725,5775,57750-57975,5800,58000-58225,5825,58250-58475,5850,58500-58725,5875,58750-58975,5900,59000-59225,5925,59250-59475,5950,59500-59725,5975,59750-59975,600,6000,60000-60225,6025,60250-60475,6050,60500-60725,6075,60750-60975,6100,61000-61225,6125,61250-61475,6150,61500-61725,6175,61750-61975,6200,62000-62225,6225,62250-62475,625,6250,62500-62725,6275,62750-62975,6300,63000-63225,6325,63250-63475,6350,63500-63725,6375,63750-63975,6400,64000-64225,6425,64250-64475,6450,64500-64725,6475,64750-64975,650,6500,65000-65225,6525,65250-65475,6550,65500-65725,6575,65750-65975,6600,66000-66225,6625,66250-66475,6650,66500-66725,6675,66750-66975,6700,67000-67225,6725,67250-67475,675,6750,67500-67725,6775,67750-67975,6800,68000-68225,6825,68250-68475,6850,68500-68725,6875,68750-68975,6900,69000-69225,6925,69250-69475,6950,69500-69725,6975,69750-69975,700,7000,70000-70225,7025,70250-70475,7050,70500-70725,7075,70750-70975,7100,71000-71225,7125,71250-71475,7150,71500-71725,7175,71750-71975,7200,72000-72225,7225,72250-72475,725,7250,72500-72725,7275,72750-72975,7300,73000-73225,7325,73250-73475,7350,73500-73725,7375,73750-73975,7400,74000-74225,7425,74250-74475,7450,74500-74725,7475,74750-74975,75,750,7500,75000-75225,7525,75250-75475,7550,75500-75725,7575,75750-75975,7600,76000-76225,7625,76250-76475,7650,76500-76725,7675,76750-76975,7700,77000-77225,7725,77250-77475,775,7750,77500-77725,7775,77750-77975,7800,78000-78225,7825,78250-78475,7850,78500-78725,7875,78750-78975,7900,79000-79225,7925,79250-79475,7950,79500-79725,7975,79750-79975,800,8000,80000-80225,8025,80250-80475,8050,80500-80725,8075,80750-80975,8100,81000-81225,8125,81250-81475,8150,81500-81725,8175,81750-81975,8200,82000-82225,8225,82250-82475,825,8250,82500-82725,8275,82750-82975,8300,83000-83225,8325,83250-83475,8350,83500-83725,8375,83750-83975,8400,84000-84225,8425,84250-84475,8450,84500-84725,8475,84750-84975,850,8500,85000-85225,8525,85250-85475,8550,85500-85725,8575,85750-85975,8600,86000-86225,8625,86250-86475,8650,86500-86725,8675,86750-86975,8700,87000-87225,8725,87250-87475,875,8750,87500-87725,8775,87750-87975,8800,88000-88225,8825,88250-88475,8850,88500-88725,8875,88750-88975,8900,89000-89225,8925,89250-89475,8950,89500-89725,8975,89750-89975,900,9000,90000-90225,9025,90250-90475,9050,90500-90725,9075,90750-90975,9100,91000-91225,9125,91250-91475,9150,91500-91725,9175,91750-91975,9200,92000-92225,9225,92250-92475,925,9250,92500-92725,9275,92750-92975,9300,93000-93225,9325,93250-93475,9350,93500-93725,9375,93750-93975,9400,94000-94225,9425,94250-94475,9450,94500-94725,9475,94750-94975,950,9500,95000-95225,9525,95250-95475,9550,95500-95725,9575,95750-95975,9600,96000-96225,9625,96250-96475,9650,96500-96725,9675,96750-96975,9700,97000-97225,9725,97250-97475,975,9750,97500-97725,9775,97750-97975,9800,98000-98225,9825,98250-98475,9850,98500-98725,9875,98750-98975,9900,99000-99225,9925,99250-99475,9950,99500-99725,9975,99750-99975</property>
  <property name="kdenlive:docproperties.disablepreview">0</property>
  <property name="kdenlive:docproperties.documentid">1639972585482</property>
  <property name="kdenlive:docproperties.enableTimelineZone">0</property>
  <property name="kdenlive:docproperties.enableexternalproxy">0</property>
  <property name="kdenlive:docproperties.enableproxy">0</property>
  <property name="kdenlive:docproperties.externalproxyparams"/>
  <property name="kdenlive:docproperties.generateimageproxy">0</property>
  <property name="kdenlive:docproperties.generateproxy">0</property>
  <property name="kdenlive:docproperties.groups">[
    {
        "children": [
            {
                "data": "1:0",
                "leaf": "clip",
                "type": "Leaf"
            },
            {
                "data": "4:0",
                "leaf": "clip",
                "type": "Leaf"
            }
        ],
        "type": "Normal"
    },
    {
        "children": [
            {
                "data": "2:3229",
                "leaf": "clip",
                "type": "Leaf"
            },
            {
                "data": "3:3229",
                "leaf": "clip",
                "type": "Leaf"
            }
        ],
        "type": "Normal"
    },
    {
        "children": [
            {
                "data": "1:5043",
                "leaf": "clip",
                "type": "Leaf"
            },
            {
                "data": "3:4932",
                "leaf": "clip",
                "type": "Leaf"
            }
        ],
        "type": "Normal"
    },
    {
        "children": [
            {
                "data": "3:5071",
                "leaf": "clip",
                "type": "Leaf"
            },
            {
                "data": "2:5066",
                "leaf": "clip",
                "type": "Leaf"
            }
        ],
        "type": "Normal"
    },
    {
        "children": [
            {
                "data": "3:5230",
                "leaf": "clip",
                "type": "Leaf"
            },
            {
                "data": "2:5230",
                "leaf": "clip",
                "type": "Leaf"
            }
        ],
        "type": "Normal"
    },
    {
        "children": [
            {
                "data": "1:5475",
                "leaf": "clip",
                "type": "Leaf"
            },
            {
                "data": "2:5477",
                "leaf": "clip",
                "type": "Leaf"
            },
            {
                "data": "1:5548",
                "leaf": "clip",
                "type": "Leaf"
            },
            {
                "data": "3:5477",
                "leaf": "clip",
                "type": "Leaf"
            }
        ],
        "type": "Normal"
    },
    {
        "children": [
            {
                "data": "3:76983",
                "leaf": "clip",
                "type": "Leaf"
            },
            {
                "data": "2:76958",
                "leaf": "clip",
                "type": "Leaf"
            }
        ],
        "type": "Normal"
    },
    {
        "children": [
            {
                "data": "3:80783",
                "leaf": "clip",
                "type": "Leaf"
            },
            {
                "data": "1:80783",
                "leaf": "clip",
                "type": "Leaf"
            }
        ],
        "type": "Normal"
    },
    {
        "children": [
            {
                "data": "3:80589",
                "leaf": "clip",
                "type": "Leaf"
            },
            {
                "data": "2:80589",
                "leaf": "clip",
                "type": "Leaf"
            }
        ],
        "type": "Normal"
    },
    {
        "children": [
            {
                "data": "3:88289",
                "leaf": "clip",
                "type": "Leaf"
            },
            {
                "data": "2:88421",
                "leaf": "clip",
                "type": "Leaf"
            },
            {
                "data": "0:88284",
                "leaf": "clip",
                "type": "Leaf"
            }
        ],
        "type": "Normal"
    },
    {
        "children": [
            {
                "data": "3:88518",
                "leaf": "clip",
                "type": "Leaf"
            },
            {
                "data": "1:88518",
                "leaf": "clip",
                "type": "Leaf"
            }
        ],
        "type": "Normal"
    },
    {
        "children": [
            {
                "data": "3:130782",
                "leaf": "clip",
                "type": "Leaf"
            },
            {
                "data": "3:130812",
                "leaf": "clip",
                "type": "Leaf"
            },
            {
                "data": "3:130850",
                "leaf": "clip",
                "type": "Leaf"
            },
            {
                "data": "3:130880",
                "leaf": "clip",
                "type": "Leaf"
            },
            {
                "data": "2:130863",
                "leaf": "clip",
                "type": "Leaf"
            },
            {
                "data": "1:130771",
                "leaf": "clip",
                "type": "Leaf"
            }
        ],
        "type": "Normal"
    },
    {
        "children": [
            {
                "data": "3:99272",
                "leaf": "clip",
                "type": "Leaf"
            },
            {
                "data": "2:99249",
                "leaf": "clip",
                "type": "Leaf"
            }
        ],
        "type": "Normal"
    },
    {
        "children": [
            {
                "data": "3:130917",
                "leaf": "clip",
                "type": "Leaf"
            },
            {
                "data": "2:130917",
                "leaf": "clip",
                "type": "Leaf"
            }
        ],
        "type": "Normal"
    },
    {
        "children": [
            {
                "data": "3:99321",
                "leaf": "clip",
                "type": "Leaf"
            },
            {
                "data": "1:99321",
                "leaf": "clip",
                "type": "Leaf"
            }
        ],
        "type": "Normal"
    },
    {
        "children": [
            {
                "data": "3:132034",
                "leaf": "clip",
                "type": "Leaf"
            },
            {
                "data": "1:132055",
                "leaf": "clip",
                "type": "Leaf"
            }
        ],
        "type": "Normal"
    },
    {
        "children": [
            {
                "data": "3:99676",
                "leaf": "clip",
                "type": "Leaf"
            },
            {
                "data": "1:99676",
                "leaf": "clip",
                "type": "Leaf"
            }
        ],
        "type": "Normal"
    },
    {
        "children": [
            {
                "data": "3:29786",
                "leaf": "clip",
                "type": "Leaf"
            },
            {
                "data": "1:29786",
                "leaf": "clip",
                "type": "Leaf"
            },
            {
                "data": "0:29774",
                "leaf": "clip",
                "type": "Leaf"
            }
        ],
        "type": "Normal"
    },
    {
        "children": [
            {
                "data": "3:100127",
                "leaf": "clip",
                "type": "Leaf"
            },
            {
                "data": "0:100084",
                "leaf": "clip",
                "type": "Leaf"
            }
        ],
        "type": "Normal"
    },
    {
        "children": [
            {
                "data": "2:36100",
                "leaf": "clip",
                "type": "Leaf"
            },
            {
                "data": "3:36100",
                "leaf": "clip",
                "type": "Leaf"
            }
        ],
        "type": "Normal"
    },
    {
        "children": [
            {
                "data": "3:109138",
                "leaf": "clip",
                "type": "Leaf"
            },
            {
                "data": "2:109139",
                "leaf": "clip",
                "type": "Leaf"
            }
        ],
        "type": "Normal"
    },
    {
        "children": [
            {
                "data": "3:136951",
                "leaf": "clip",
                "type": "Leaf"
            },
            {
                "data": "0:136973",
                "leaf": "clip",
                "type": "Leaf"
            },
            {
                "data": "2:136951",
                "leaf": "clip",
                "type": "Leaf"
            },
            {
                "data": "1:137017",
                "leaf": "clip",
                "type": "Leaf"
            },
            {
                "data": "3:137017",
                "leaf": "clip",
                "type": "Leaf"
            }
        ],
        "type": "Normal"
    },
    {
        "children": [
            {
                "data": "3:52398",
                "leaf": "clip",
                "type": "Leaf"
            },
            {
                "data": "0:52391",
                "leaf": "clip",
                "type": "Leaf"
            }
        ],
        "type": "Normal"
    },
    {
        "children": [
            {
                "data": "3:117870",
                "leaf": "clip",
                "type": "Leaf"
            },
            {
                "data": "1:117870",
                "leaf": "clip",
                "type": "Leaf"
            }
        ],
        "type": "Normal"
    },
    {
        "children": [
            {
                "data": "3:117934",
                "leaf": "clip",
                "type": "Leaf"
            },
            {
                "data": "2:117930",
                "leaf": "clip",
                "type": "Leaf"
            }
        ],
        "type": "Normal"
    },
    {
        "children": [
            {
                "data": "3:122118",
                "leaf": "clip",
                "type": "Leaf"
            },
            {
                "data": "0:122826",
                "leaf": "clip",
                "type": "Leaf"
            },
            {
                "data": "2:122118",
                "leaf": "clip",
                "type": "Leaf"
            },
            {
                "data": "1:122113",
                "leaf": "clip",
                "type": "Leaf"
            },
            {
                "data": "0:122349",
                "leaf": "clip",
                "type": "Leaf"
            },
            {
                "data": "1:122588",
                "leaf": "clip",
                "type": "Leaf"
            },
            {
                "data": "1:123064",
                "leaf": "clip",
                "type": "Leaf"
            }
        ],
        "type": "Normal"
    },
    {
        "children": [
            {
                "data": "3:10337",
                "leaf": "clip",
                "type": "Leaf"
            },
            {
                "data": "2:10337",
                "leaf": "clip",
                "type": "Leaf"
            }
        ],
        "type": "Normal"
    },
    {
        "children": [
            {
                "data": "3:15098",
                "leaf": "clip",
                "type": "Leaf"
            },
            {
                "data": "2:15098",
                "leaf": "clip",
                "type": "Leaf"
            },
            {
                "data": "2:15137",
                "leaf": "clip",
                "type": "Leaf"
            }
        ],
        "type": "Normal"
    },
    {
        "children": [
            {
                "data": "3:100153",
                "leaf": "clip",
                "type": "Leaf"
            },
            {
                "data": "1:100153",
                "leaf": "clip",
                "type": "Leaf"
            }
        ],
        "type": "Normal"
    },
    {
        "children": [
            {
                "data": "3:142176",
                "leaf": "clip",
                "type": "Leaf"
            },
            {
                "data": "1:142176",
                "leaf": "clip",
                "type": "Leaf"
            },
            {
                "data": "0:142171",
                "leaf": "clip",
                "type": "Leaf"
            }
        ],
        "type": "Normal"
    },
    {
        "children": [
            {
                "data": "3:37685",
                "leaf": "clip",
                "type": "Leaf"
            },
            {
                "data": "2:37685",
                "leaf": "clip",
                "type": "Leaf"
            }
        ],
        "type": "Normal"
    },
    {
        "children": [
            {
                "data": "3:5570",
                "leaf": "clip",
                "type": "Leaf"
            },
            {
                "data": "2:5570",
                "leaf": "clip",
                "type": "Leaf"
            }
        ],
        "type": "Normal"
    },
    {
        "children": [
            {
                "data": "3:123330",
                "leaf": "clip",
                "type": "Leaf"
            },
            {
                "data": "0:123326",
                "leaf": "clip",
                "type": "Leaf"
            },
            {
                "data": "3:123545",
                "leaf": "clip",
                "type": "Leaf"
            }
        ],
        "type": "Normal"
    },
    {
        "children": [
            {
                "data": "3:72278",
                "leaf": "clip",
                "type": "Leaf"
            },
            {
                "data": "1:72263",
                "leaf": "clip",
                "type": "Leaf"
            }
        ],
        "type": "Normal"
    },
    {
        "children": [
            {
                "data": "3:132528",
                "leaf": "clip",
                "type": "Leaf"
            },
            {
                "data": "2:132528",
                "leaf": "clip",
                "type": "Leaf"
            },
            {
                "data": "1:132514",
                "leaf": "clip",
                "type": "Leaf"
            }
        ],
        "type": "Normal"
    },
    {
        "children": [
            {
                "data": "3:110131",
                "leaf": "clip",
                "type": "Leaf"
            },
            {
                "data": "2:110131",
                "leaf": "clip",
                "type": "Leaf"
            }
        ],
        "type": "Normal"
    },
    {
        "children": [
            {
                "data": "3:137053",
                "leaf": "clip",
                "type": "Leaf"
            },
            {
                "data": "1:137053",
                "leaf": "clip",
                "type": "Leaf"
            }
        ],
        "type": "Normal"
    },
    {
        "children": [
            {
                "data": "3:52432",
                "leaf": "clip",
                "type": "Leaf"
            },
            {
                "data": "2:52416",
                "leaf": "clip",
                "type": "Leaf"
            }
        ],
        "type": "Normal"
    },
    {
        "children": [
            {
                "data": "3:130300",
                "leaf": "clip",
                "type": "Leaf"
            },
            {
                "data": "2:130300",
                "leaf": "clip",
                "type": "Leaf"
            }
        ],
        "type": "Normal"
    },
    {
        "children": [
            {
                "data": "3:76519",
                "leaf": "clip",
                "type": "Leaf"
            },
            {
                "data": "3:76532",
                "leaf": "clip",
                "type": "Leaf"
            },
            {
                "data": "1:76454",
                "leaf": "clip",
                "type": "Leaf"
            }
        ],
        "type": "Normal"
    },
    {
        "children": [
            {
                "data": "3:15004",
                "leaf": "clip",
                "type": "Leaf"
            },
            {
                "data": "2:15004",
                "leaf": "clip",
                "type": "Leaf"
            }
        ],
        "type": "Normal"
    },
    {
        "children": [
            {
                "data": "3:130153",
                "leaf": "clip",
                "type": "Leaf"
            },
            {
                "data": "2:130153",
                "leaf": "clip",
                "type": "Leaf"
            },
            {
                "data": "1:130153",
                "leaf": "clip",
                "type": "Leaf"
            }
        ],
        "type": "Normal"
    },
    {
        "children": [
            {
                "data": "3:13328",
                "leaf": "clip",
                "type": "Leaf"
            },
            {
                "data": "2:13328",
                "leaf": "clip",
                "type": "Leaf"
            }
        ],
        "type": "Normal"
    },
    {
        "children": [
            {
                "data": "3:105233",
                "leaf": "clip",
                "type": "Leaf"
            },
            {
                "data": "2:105230",
                "leaf": "clip",
                "type": "Leaf"
            }
        ],
        "type": "Normal"
    },
    {
        "children": [
            {
                "data": "3:51470",
                "leaf": "clip",
                "type": "Leaf"
            },
            {
                "data": "1:51470",
                "leaf": "clip",
                "type": "Leaf"
            }
        ],
        "type": "Normal"
    },
    {
        "children": [
            {
                "data": "3:5906",
                "leaf": "clip",
                "type": "Leaf"
            },
            {
                "data": "1:5891",
                "leaf": "clip",
                "type": "Leaf"
            }
        ],
        "type": "Normal"
    },
    {
        "children": [
            {
                "data": "3:123630",
                "leaf": "clip",
                "type": "Leaf"
            },
            {
                "data": "2:123630",
                "leaf": "clip",
                "type": "Leaf"
            }
        ],
        "type": "Normal"
    },
    {
        "children": [
            {
                "data": "3:72733",
                "leaf": "clip",
                "type": "Leaf"
            },
            {
                "data": "0:72733",
                "leaf": "clip",
                "type": "Leaf"
            }
        ],
        "type": "Normal"
    },
    {
        "children": [
            {
                "data": "3:74337",
                "leaf": "clip",
                "type": "Leaf"
            },
            {
                "data": "2:74337",
                "leaf": "clip",
                "type": "Leaf"
            }
        ],
        "type": "Normal"
    },
    {
        "children": [
            {
                "data": "3:72153",
                "leaf": "clip",
                "type": "Leaf"
            },
            {
                "data": "2:72136",
                "leaf": "clip",
                "type": "Leaf"
            }
        ],
        "type": "Normal"
    },
    {
        "children": [
            {
                "data": "3:71833",
                "leaf": "clip",
                "type": "Leaf"
            },
            {
                "data": "1:71833",
                "leaf": "clip",
                "type": "Leaf"
            }
        ],
        "type": "Normal"
    },
    {
        "children": [
            {
                "data": "3:69330",
                "leaf": "clip",
                "type": "Leaf"
            },
            {
                "data": "2:69330",
                "leaf": "clip",
                "type": "Leaf"
            },
            {
                "data": "1:69301",
                "leaf": "clip",
                "type": "Leaf"
            }
        ],
        "type": "Normal"
    },
    {
        "children": [
            {
                "data": "3:58888",
                "leaf": "clip",
                "type": "Leaf"
            },
            {
                "data": "2:58888",
                "leaf": "clip",
                "type": "Leaf"
            }
        ],
        "type": "Normal"
    },
    {
        "children": [
            {
                "data": "4:54648",
                "leaf": "clip",
                "type": "Leaf"
            },
            {
                "data": "0:54648",
                "leaf": "clip",
                "type": "Leaf"
            },
            {
                "data": "1:58818",
                "leaf": "clip",
                "type": "Leaf"
            }
        ],
        "type": "Normal"
    },
    {
        "children": [
            {
                "data": "3:54628",
                "leaf": "clip",
                "type": "Leaf"
            },
            {
                "data": "2:54633",
                "leaf": "clip",
                "type": "Leaf"
            },
            {
                "data": "1:54618",
                "leaf": "clip",
                "type": "Leaf"
            }
        ],
        "type": "Normal"
    },
    {
        "children": [
            {
                "data": "3:54522",
                "leaf": "clip",
                "type": "Leaf"
            },
            {
                "data": "2:54517",
                "leaf": "clip",
                "type": "Leaf"
            }
        ],
        "type": "Normal"
    },
    {
        "children": [
            {
                "data": "3:53458",
                "leaf": "clip",
                "type": "Leaf"
            },
            {
                "data": "1:53458",
                "leaf": "clip",
                "type": "Leaf"
            }
        ],
        "type": "Normal"
    },
    {
        "children": [
            {
                "data": "3:18677",
                "leaf": "clip",
                "type": "Leaf"
            },
            {
                "data": "1:18677",
                "leaf": "clip",
                "type": "Leaf"
            }
        ],
        "type": "Normal"
    },
    {
        "children": [
            {
                "data": "3:15331",
                "leaf": "clip",
                "type": "Leaf"
            },
            {
                "data": "1:15331",
                "leaf": "clip",
                "type": "Leaf"
            }
        ],
        "type": "Normal"
    },
    {
        "children": [
            {
                "data": "1:15258",
                "leaf": "clip",
                "type": "Leaf"
            },
            {
                "data": "3:15319",
                "leaf": "clip",
                "type": "Leaf"
            }
        ],
        "type": "Normal"
    },
    {
        "children": [
            {
                "data": "3:132193",
                "leaf": "clip",
                "type": "Leaf"
            },
            {
                "data": "2:132183",
                "leaf": "clip",
                "type": "Leaf"
            }
        ],
        "type": "Normal"
    },
    {
        "children": [
            {
                "data": "3:15145",
                "leaf": "clip",
                "type": "Leaf"
            },
            {
                "data": "1:15138",
                "leaf": "clip",
                "type": "Leaf"
            },
            {
                "data": "2:15236",
                "leaf": "clip",
                "type": "Leaf"
            }
        ],
        "type": "Normal"
    },
    {
        "children": [
            {
                "data": "3:12648",
                "leaf": "clip",
                "type": "Leaf"
            },
            {
                "data": "1:12648",
                "leaf": "clip",
                "type": "Leaf"
            }
        ],
        "type": "Normal"
    },
    {
        "children": [
            {
                "data": "3:130436",
                "leaf": "clip",
                "type": "Leaf"
            },
            {
                "data": "2:130436",
                "leaf": "clip",
                "type": "Leaf"
            },
            {
                "data": "1:130423",
                "leaf": "clip",
                "type": "Leaf"
            }
        ],
        "type": "Normal"
    },
    {
        "children": [
            {
                "data": "3:12604",
                "leaf": "clip",
                "type": "Leaf"
            },
            {
                "data": "1:12601",
                "leaf": "clip",
                "type": "Leaf"
            }
        ],
        "type": "Normal"
    },
    {
        "children": [
            {
                "data": "3:11233",
                "leaf": "clip",
                "type": "Leaf"
            },
            {
                "data": "2:11233",
                "leaf": "clip",
                "type": "Leaf"
            }
        ],
        "type": "Normal"
    },
    {
        "children": [
            {
                "data": "3:6145",
                "leaf": "clip",
                "type": "Leaf"
            },
            {
                "data": "2:6145",
                "leaf": "clip",
                "type": "Leaf"
            }
        ],
        "type": "Normal"
    }
]
</property>
  <property name="kdenlive:docproperties.guides">[
]
</property>
  <property name="kdenlive:docproperties.kdenliveversion">22.08.2</property>
  <property name="kdenlive:docproperties.position">3454</property>
  <property name="kdenlive:docproperties.previewchunks"/>
  <property name="kdenlive:docproperties.previewextension">avi</property>
  <property name="kdenlive:docproperties.previewparameters">f=avi vcodec=mjpeg progressive=1 qscale=1</property>
  <property name="kdenlive:docproperties.profile">/home/redxherring/.local/share/kdenlive/profiles/customprofile0</property>
  <property name="kdenlive:docproperties.proxyextension"/>
  <property name="kdenlive:docproperties.proxyimageminsize">2000</property>
  <property name="kdenlive:docproperties.proxyimagesize">800</property>
  <property name="kdenlive:docproperties.proxyminsize">1000</property>
  <property name="kdenlive:docproperties.proxyparams"/>
  <property name="kdenlive:docproperties.proxyresize">640</property>
  <property name="kdenlive:docproperties.renderaudioquality">81</property>
  <property name="kdenlive:docproperties.rendercategory">Generic (HD for web, mobile devices...)</property>
  <property name="kdenlive:docproperties.rendercustomquality">100</property>
  <property name="kdenlive:docproperties.renderendguide">-1</property>
  <property name="kdenlive:docproperties.renderexportaudio">0</property>
  <property name="kdenlive:docproperties.renderfield">0</property>
  <property name="kdenlive:docproperties.renderguide">0</property>
  <property name="kdenlive:docproperties.rendermode">0</property>
  <property name="kdenlive:docproperties.renderplay">0</property>
  <property name="kdenlive:docproperties.renderpreview">0</property>
  <property name="kdenlive:docproperties.renderprofile">MP4-H264/AAC</property>
  <property name="kdenlive:docproperties.renderquality">24</property>
  <property name="kdenlive:docproperties.renderratio">1</property>
  <property name="kdenlive:docproperties.renderrescale">0</property>
  <property name="kdenlive:docproperties.renderrescaleheight">360</property>
  <property name="kdenlive:docproperties.renderrescalewidth">480</property>
  <property name="kdenlive:docproperties.renderscanning">0</property>
  <property name="kdenlive:docproperties.renderspeed">8</property>
  <property name="kdenlive:docproperties.renderstartguide">-1</property>
  <property name="kdenlive:docproperties.rendertcoverlay">0</property>
  <property name="kdenlive:docproperties.rendertctype">-1</property>
  <property name="kdenlive:docproperties.rendertwopass">0</property>
  <property name="kdenlive:docproperties.renderzone">1</property>
  <property name="kdenlive:docproperties.scrollPos">3613</property>
  <property name="kdenlive:docproperties.seekOffset">30000</property>
  <property name="kdenlive:docproperties.version">1.04</property>
  <property name="kdenlive:docproperties.verticalzoom">1</property>
  <property name="kdenlive:docproperties.videoTarget">-1</property>
  <property name="kdenlive:docproperties.zonein">0</property>
  <property name="kdenlive:docproperties.zoneout">146760</property>
  <property name="kdenlive:docproperties.zoom">6</property>
  <property name="kdenlive:expandedFolders"/>
  <property name="kdenlive:documentnotes"/>
  <property name="xml_retain">1</property>
  <entry producer="producer0" in="00:00:00.000" out="00:23:55.455"/>
  <entry producer="producer1" in="00:00:00.000" out="00:01:00.033"/>
  <entry producer="producer5" in="00:00:00.000" out="00:23:55.522"/>
  <entry producer="producer8" in="00:00:00.000" out="00:23:55.522"/>
  <entry producer="producer9" in="00:00:00.000" out="00:23:55.455"/>
  <entry producer="producer14" in="00:00:00.000" out="00:23:55.589"/>
  <entry producer="producer15" in="00:00:00.000" out="00:23:55.589"/>
  <entry producer="producer16" in="00:00:00.000" out="00:23:55.589"/>
  <entry producer="producer2" in="00:00:00.000" out="00:23:55.455"/>
  <entry producer="producer3" in="00:00:00.000" out="00:23:55.622"/>
  <entry producer="producer4" in="00:00:00.000" out="00:23:55.522"/>
  <entry producer="producer6" in="00:00:00.000" out="00:23:55.455"/>
 </playlist>
 <producer id="black_track" in="00:00:00.000" out="01:38:17.918">
  <property name="length">2147483647</property>
  <property name="eof">continue</property>
  <property name="resource">black</property>
  <property name="aspect_ratio">1</property>
  <property name="mlt_service">color</property>
  <property name="mlt_image_format">rgba</property>
  <property name="set.test_audio">0</property>
 </producer>
 <producer id="producer7" in="00:00:00.000" out="00:23:55.455">
  <property name="length">43021</property>
  <property name="eof">pause</property>
  <property name="resource">/home/redxherring/Videos/Monster/WAV/Monster 01 - Herr Dr. Tenma [Eng Dub &amp; HD] - YouTubeLR.wav</property>
  <property name="meta.media.nb_streams">1</property>
  <property name="meta.media.0.stream.type">audio</property>
  <property name="meta.media.0.codec.sample_fmt">s16</property>
  <property name="meta.media.0.codec.sample_rate">48000</property>
  <property name="meta.media.0.codec.channels">2</property>
  <property name="meta.media.0.codec.name">pcm_s16le</property>
  <property name="meta.media.0.codec.long_name">PCM signed 16-bit little-endian</property>
  <property name="meta.media.0.codec.bit_rate">1536000</property>
  <property name="meta.attr.encoder.markup">Lavf59.27.100</property>
  <property name="seekable">1</property>
  <property name="audio_index">0</property>
  <property name="video_index">-1</property>
  <property name="mute_on_pause">0</property>
  <property name="mlt_service">avformat-novalidate</property>
  <property name="kdenlive:clipname">Monster 01 - Herr Dr. Tenma [Eng Dub &amp; HD] - YouTubeLR.wav</property>
  <property name="kdenlive:clip_type">1</property>
  <property name="kdenlive:proxy">-</property>
  <property name="kdenlive:originalurl">/home/redxherring/Videos/Monster/WAV/Monster 01 - Herr Dr. Tenma [Eng Dub &amp; HD] - YouTubeLR.wav</property>
  <property name="kdenlive:id">3</property>
  <property name="kdenlive:file_size">275610166</property>
  <property name="kdenlive:file_hash">0940175b75d7b5187ecfd78c5e4427fe</property>
  <property name="kdenlive:folderid">-1</property>
  <property name="kdenlive:audio_max0">190</property>
  <property name="xml">was here</property>
  <property name="set.test_audio">0</property>
  <property name="set.test_image">1</property>
 </producer>
 <producer id="producer10" in="00:00:00.000" out="00:23:55.622">
  <property name="length">43026</property>
  <property name="eof">pause</property>
  <property name="resource">/home/redxherring/Videos/Monster/WAV/Monster 02 - Downfall [Eng Dub &amp; HD] - YouTubeLR.wav</property>
  <property name="meta.media.nb_streams">1</property>
  <property name="meta.media.0.stream.type">audio</property>
  <property name="meta.media.0.codec.sample_fmt">s16</property>
  <property name="meta.media.0.codec.sample_rate">48000</property>
  <property name="meta.media.0.codec.channels">2</property>
  <property name="meta.media.0.codec.name">pcm_s16le</property>
  <property name="meta.media.0.codec.long_name">PCM signed 16-bit little-endian</property>
  <property name="meta.media.0.codec.bit_rate">1536000</property>
  <property name="meta.attr.encoder.markup">Lavf59.27.100</property>
  <property name="seekable">1</property>
  <property name="audio_index">0</property>
  <property name="video_index">-1</property>
  <property name="mute_on_pause">0</property>
  <property name="mlt_service">avformat-novalidate</property>
  <property name="kdenlive:clipname">Monster 02 - Downfall [Eng Dub &amp; HD] - YouTubeLR.wav</property>
  <property name="kdenlive:clip_type">1</property>
  <property name="kdenlive:proxy">-</property>
  <property name="kdenlive:originalurl">/home/redxherring/Videos/Monster/WAV/Monster 02 - Downfall [Eng Dub &amp; HD] - YouTubeLR.wav</property>
  <property name="kdenlive:id">7</property>
  <property name="kdenlive:file_size">275639146</property>
  <property name="kdenlive:file_hash">3ada7942dfc52f6418a5867f2e7e973d</property>
  <property name="kdenlive:folderid">-1</property>
  <property name="kdenlive:audio_max0">200</property>
  <property name="xml">was here</property>
  <property name="set.test_audio">0</property>
  <property name="set.test_image">1</property>
 </producer>
 <producer id="producer11" in="00:00:00.000" out="00:23:55.522">
  <property name="length">43023</property>
  <property name="eof">pause</property>
  <property name="resource">/home/redxherring/Videos/Monster/WAV/Monster 03 - A Murder [Eng Dub &amp; HD] - YouTubeLR.wav</property>
  <property name="meta.media.nb_streams">1</property>
  <property name="meta.media.0.stream.type">audio</property>
  <property name="meta.media.0.codec.sample_fmt">s16</property>
  <property name="meta.media.0.codec.sample_rate">48000</property>
  <property name="meta.media.0.codec.channels">2</property>
  <property name="meta.media.0.codec.name">pcm_s16le</property>
  <property name="meta.media.0.codec.long_name">PCM signed 16-bit little-endian</property>
  <property name="meta.media.0.codec.bit_rate">1536000</property>
  <property name="meta.attr.encoder.markup">Lavf59.27.100</property>
  <property name="seekable">1</property>
  <property name="audio_index">0</property>
  <property name="video_index">-1</property>
  <property name="mute_on_pause">0</property>
  <property name="mlt_service">avformat-novalidate</property>
  <property name="kdenlive:clipname">Monster 03 - A Murder [Eng Dub &amp; HD] - YouTubeLR.wav</property>
  <property name="kdenlive:clip_type">1</property>
  <property name="kdenlive:proxy">-</property>
  <property name="kdenlive:originalurl">/home/redxherring/Videos/Monster/WAV/Monster 03 - A Murder [Eng Dub &amp; HD] - YouTubeLR.wav</property>
  <property name="kdenlive:id">11</property>
  <property name="kdenlive:file_size">275623542</property>
  <property name="kdenlive:file_hash">63483de3c521ac65a84c0d4d2c4e861a</property>
  <property name="kdenlive:folderid">-1</property>
  <property name="kdenlive:audio_max0">193</property>
  <property name="xml">was here</property>
  <property name="set.test_audio">0</property>
  <property name="set.test_image">1</property>
 </producer>
 <producer id="producer12" in="00:00:00.000" out="00:23:55.455">
  <property name="length">43021</property>
  <property name="eof">pause</property>
  <property name="resource">/home/redxherring/Videos/Monster/WAV/Monster 04 - Night of the Execution [Eng Dub &amp; HD] - YouTubeLR.wav</property>
  <property name="meta.media.nb_streams">1</property>
  <property name="meta.media.0.stream.type">audio</property>
  <property name="meta.media.0.codec.sample_fmt">s16</property>
  <property name="meta.media.0.codec.sample_rate">48000</property>
  <property name="meta.media.0.codec.channels">2</property>
  <property name="meta.media.0.codec.name">pcm_s16le</property>
  <property name="meta.media.0.codec.long_name">PCM signed 16-bit little-endian</property>
  <property name="meta.media.0.codec.bit_rate">1536000</property>
  <property name="meta.attr.encoder.markup">Lavf59.27.100</property>
  <property name="seekable">1</property>
  <property name="audio_index">0</property>
  <property name="video_index">-1</property>
  <property name="mute_on_pause">0</property>
  <property name="mlt_service">avformat-novalidate</property>
  <property name="kdenlive:clipname">Monster 04 - Night of the Execution [Eng Dub &amp; HD] - YouTubeLR.wav</property>
  <property name="kdenlive:clip_type">1</property>
  <property name="kdenlive:proxy">-</property>
  <property name="kdenlive:originalurl">/home/redxherring/Videos/Monster/WAV/Monster 04 - Night of the Execution [Eng Dub &amp; HD] - YouTubeLR.wav</property>
  <property name="kdenlive:id">13</property>
  <property name="kdenlive:file_size">275610166</property>
  <property name="kdenlive:file_hash">bf307fd8a7fa3fe0bddbee5d591c16f7</property>
  <property name="kdenlive:folderid">-1</property>
  <property name="kdenlive:audio_max0">191</property>
  <property name="xml">was here</property>
  <property name="set.test_audio">0</property>
  <property name="set.test_image">1</property>
 </producer>
 <playlist id="playlist0">
  <property name="kdenlive:audio_track">1</property>
  <blank length="00:16:33.467"/>
  <entry producer="producer7" in="00:18:54.755" out="00:18:55.489">
   <property name="kdenlive:id">3</property>
   <filter id="filter18" in="00:18:54.755" out="00:18:55.489">
    <property name="window">75</property>
    <property name="max_gain">20dB</property>
    <property name="mlt_service">volume</property>
    <property name="kdenlive_id">fadein</property>
    <property name="gain">0</property>
    <property name="end">1</property>
    <property name="kdenlive:collapsed">0</property>
   </filter>
  </entry>
  <blank length="00:12:33.901"/>
  <entry producer="producer10" in="00:10:32.633" out="00:10:34.268">
   <property name="kdenlive:id">7</property>
   <filter id="filter19" in="00:10:32.633" out="00:10:33.433">
    <property name="window">75</property>
    <property name="max_gain">20dB</property>
    <property name="mlt_service">volume</property>
    <property name="kdenlive_id">fadein</property>
    <property name="gain">0</property>
    <property name="end">1</property>
    <property name="kdenlive:collapsed">0</property>
   </filter>
   <filter id="filter20" in="00:10:33.967" out="00:10:34.268">
    <property name="window">75</property>
    <property name="max_gain">20dB</property>
    <property name="mlt_service">volume</property>
    <property name="kdenlive_id">fadeout</property>
    <property name="gain">1</property>
    <property name="end">0</property>
    <property name="kdenlive:collapsed">0</property>
   </filter>
  </entry>
  <blank length="00:01:13.647"/>
  <entry producer="producer10" in="00:11:56.156" out="00:14:17.618">
   <property name="kdenlive:id">7</property>
   <filter id="filter23" in="00:14:14.014" out="00:14:17.618">
    <property name="window">75</property>
    <property name="max_gain">20dB</property>
    <property name="mlt_service">volume</property>
    <property name="kdenlive_id">fadeout</property>
    <property name="gain">1</property>
    <property name="end">0</property>
    <property name="kdenlive:collapsed">0</property>
   </filter>
  </entry>
  <blank length="00:07:41.975"/>
  <entry producer="producer11" in="00:00:00.000" out="00:00:54.421">
   <property name="kdenlive:id">11</property>
   <filter id="filter165" out="00:00:00.467">
    <property name="window">75</property>
    <property name="max_gain">20dB</property>
    <property name="mlt_service">volume</property>
    <property name="kdenlive_id">fadein</property>
    <property name="gain">0</property>
    <property name="end">1</property>
    <property name="kdenlive:collapsed">0</property>
   </filter>
  </entry>
  <blank length="00:07:44.444"/>
  <entry producer="producer11" in="00:10:21.688" out="00:10:31.431">
   <property name="kdenlive:id">11</property>
   <filter id="filter24" in="00:10:21.688" out="00:10:21.855">
    <property name="window">75</property>
    <property name="max_gain">20dB</property>
    <property name="mlt_service">volume</property>
    <property name="kdenlive_id">fadein</property>
    <property name="gain">0</property>
    <property name="end">1</property>
    <property name="kdenlive:collapsed">0</property>
   </filter>
   <filter id="filter27" in="00:10:29.463" out="00:10:31.431">
    <property name="window">75</property>
    <property name="max_gain">20dB</property>
    <property name="mlt_service">volume</property>
    <property name="kdenlive_id">fadeout</property>
    <property name="gain">1</property>
    <property name="end">0</property>
    <property name="kdenlive:collapsed">0</property>
   </filter>
  </entry>
  <blank length="00:06:23.957"/>
  <entry producer="producer11" in="00:17:23.924" out="00:17:26.360">
   <property name="kdenlive:id">11</property>
   <filter id="filter28" in="00:17:23.924" out="00:17:24.625">
    <property name="window">75</property>
    <property name="max_gain">20dB</property>
    <property name="mlt_service">volume</property>
    <property name="kdenlive_id">fadein</property>
    <property name="gain">0</property>
    <property name="end">1</property>
    <property name="kdenlive:collapsed">0</property>
   </filter>
   <filter id="filter29" in="00:17:26.193" out="00:17:26.360">
    <property name="window">75</property>
    <property name="max_gain">20dB</property>
    <property name="mlt_service">volume</property>
    <property name="kdenlive_id">fadeout</property>
    <property name="gain">1</property>
    <property name="end">0</property>
    <property name="kdenlive:collapsed">0</property>
   </filter>
  </entry>
  <blank length="00:12:20.454"/>
  <entry producer="producer12" in="00:09:46.413" out="00:09:54.555">
   <property name="kdenlive:id">13</property>
   <filter id="filter46">
    <property name="window">75</property>
    <property name="max_gain">20dB</property>
    <property name="mlt_service">volume</property>
    <property name="kdenlive_id">gain</property>
    <property name="gain">0.25</property>
    <property name="kdenlive:collapsed">0</property>
   </filter>
   <filter id="filter47" in="00:09:54.321" out="00:09:54.555">
    <property name="window">75</property>
    <property name="max_gain">20dB</property>
    <property name="mlt_service">volume</property>
    <property name="kdenlive_id">fadeout</property>
    <property name="gain">1</property>
    <property name="end">0</property>
    <property name="kdenlive:collapsed">0</property>
   </filter>
   <filter id="filter30" in="00:09:46.413" out="00:09:46.647">
    <property name="window">75</property>
    <property name="max_gain">20dB</property>
    <property name="mlt_service">volume</property>
    <property name="kdenlive_id">fadein</property>
    <property name="gain">0</property>
    <property name="end">1</property>
   </filter>
  </entry>
  <blank length="00:00:07.741"/>
  <entry producer="producer12" in="00:09:46.446" out="00:09:54.555">
   <property name="kdenlive:id">13</property>
   <filter id="filter50">
    <property name="window">75</property>
    <property name="max_gain">20dB</property>
    <property name="mlt_service">volume</property>
    <property name="kdenlive_id">gain</property>
    <property name="gain">0.25</property>
    <property name="kdenlive:collapsed">0</property>
   </filter>
   <filter id="filter51" in="00:09:54.321" out="00:09:54.555">
    <property name="window">75</property>
    <property name="max_gain">20dB</property>
    <property name="mlt_service">volume</property>
    <property name="kdenlive_id">fadeout</property>
    <property name="gain">1</property>
    <property name="end">0</property>
    <property name="kdenlive:collapsed">0</property>
   </filter>
   <filter id="filter31" in="00:09:46.446" out="00:09:46.647">
    <property name="window">75</property>
    <property name="max_gain">20dB</property>
    <property name="mlt_service">volume</property>
    <property name="kdenlive_id">fadein</property>
    <property name="gain">0</property>
    <property name="end">1</property>
    <property name="kdenlive:collapsed">0</property>
   </filter>
  </entry>
  <blank length="00:00:08.542"/>
  <entry producer="producer12" in="00:09:46.547" out="00:09:56.857">
   <property name="kdenlive:id">13</property>
   <filter id="filter84" in="00:09:46.547" out="00:09:46.747">
    <property name="window">75</property>
    <property name="max_gain">20dB</property>
    <property name="mlt_service">volume</property>
    <property name="kdenlive_id">fadein</property>
    <property name="gain">0</property>
    <property name="end">1</property>
    <property name="kdenlive:collapsed">0</property>
   </filter>
   <filter id="filter32" in="00:09:56.657" out="00:09:56.857">
    <property name="window">75</property>
    <property name="max_gain">20dB</property>
    <property name="mlt_service">volume</property>
    <property name="kdenlive_id">fadeout</property>
    <property name="gain">1</property>
    <property name="end">0</property>
    <property name="kdenlive:collapsed">0</property>
   </filter>
  </entry>
  <blank length="00:07:25.025"/>
  <entry producer="producer12" in="00:18:08.876" out="00:18:11.512">
   <property name="kdenlive:id">13</property>
   <filter id="filter33" in="00:18:08.876" out="00:18:11.078">
    <property name="window">75</property>
    <property name="max_gain">20dB</property>
    <property name="mlt_service">volume</property>
    <property name="kdenlive_id">fadein</property>
    <property name="gain">0</property>
    <property name="end">1</property>
    <property name="kdenlive:collapsed">0</property>
   </filter>
   <filter id="filter34" in="00:18:10.310" out="00:18:11.512">
    <property name="window">75</property>
    <property name="max_gain">20dB</property>
    <property name="mlt_service">volume</property>
    <property name="kdenlive_id">fadeout</property>
    <property name="gain">1</property>
    <property name="end">0</property>
   </filter>
  </entry>
  <blank length="00:02:50.784"/>
  <entry producer="producer12" in="00:21:03.637" out="00:21:03.971">
   <property name="kdenlive:id">13</property>
   <filter id="filter35" in="00:21:03.704" out="00:21:03.971">
    <property name="window">75</property>
    <property name="max_gain">20dB</property>
    <property name="mlt_service">volume</property>
    <property name="kdenlive_id">fadeout</property>
    <property name="gain">1</property>
    <property name="end">0</property>
    <property name="kdenlive:collapsed">0</property>
   </filter>
   <filter id="filter36" in="00:21:03.637" out="00:21:03.871">
    <property name="window">75</property>
    <property name="max_gain">20dB</property>
    <property name="mlt_service">volume</property>
    <property name="kdenlive_id">fadein</property>
    <property name="gain">0</property>
    <property name="end">1</property>
    <property name="kdenlive:collapsed">0</property>
   </filter>
  </entry>
 </playlist>
 <playlist id="playlist1">
  <property name="kdenlive:audio_track">1</property>
 </playlist>
 <tractor id="tractor0" in="00:00:00.000" out="01:19:04.137">
  <property name="kdenlive:audio_track">1</property>
  <property name="kdenlive:trackheight">67</property>
  <property name="kdenlive:timeline_active">1</property>
  <property name="kdenlive:collapsed">0</property>
  <property name="kdenlive:thumbs_format"/>
  <property name="kdenlive:audio_rec"/>
  <track hide="video" producer="playlist0"/>
  <track hide="video" producer="playlist1"/>
  <filter id="filter37">
   <property name="window">75</property>
   <property name="max_gain">20dB</property>
   <property name="mlt_service">volume</property>
   <property name="internal_added">237</property>
   <property name="disable">1</property>
  </filter>
  <filter id="filter38">
   <property name="channel">-1</property>
   <property name="mlt_service">panner</property>
   <property name="internal_added">237</property>
   <property name="start">0.5</property>
   <property name="disable">1</property>
  </filter>
  <filter id="filter0">
   <property name="iec_scale">0</property>
   <property name="mlt_service">audiolevel</property>
   <property name="disable">1</property>
  </filter>
 </tractor>
 <producer id="producer13" in="00:00:00.000" out="00:23:55.455">
  <property name="length">43021</property>
  <property name="eof">pause</property>
  <property name="resource">/home/redxherring/Videos/Monster/WAV/Monster 01 - Herr Dr. Tenma [Eng Dub &amp; HD] - YouTubeLR.wav</property>
  <property name="meta.media.nb_streams">1</property>
  <property name="meta.media.0.stream.type">audio</property>
  <property name="meta.media.0.codec.sample_fmt">s16</property>
  <property name="meta.media.0.codec.sample_rate">48000</property>
  <property name="meta.media.0.codec.channels">2</property>
  <property name="meta.media.0.codec.name">pcm_s16le</property>
  <property name="meta.media.0.codec.long_name">PCM signed 16-bit little-endian</property>
  <property name="meta.media.0.codec.bit_rate">1536000</property>
  <property name="meta.attr.encoder.markup">Lavf59.27.100</property>
  <property name="seekable">1</property>
  <property name="audio_index">0</property>
  <property name="video_index">-1</property>
  <property name="mute_on_pause">0</property>
  <property name="mlt_service">avformat-novalidate</property>
  <property name="kdenlive:clipname">Monster 01 - Herr Dr. Tenma [Eng Dub &amp; HD] - YouTubeLR.wav</property>
  <property name="kdenlive:clip_type">1</property>
  <property name="kdenlive:proxy">-</property>
  <property name="kdenlive:originalurl">/home/redxherring/Videos/Monster/WAV/Monster 01 - Herr Dr. Tenma [Eng Dub &amp; HD] - YouTubeLR.wav</property>
  <property name="kdenlive:id">3</property>
  <property name="kdenlive:file_size">275610166</property>
  <property name="kdenlive:file_hash">0940175b75d7b5187ecfd78c5e4427fe</property>
  <property name="kdenlive:folderid">-1</property>
  <property name="kdenlive:audio_max0">190</property>
  <property name="xml">was here</property>
  <property name="set.test_audio">0</property>
  <property name="set.test_image">1</property>
 </producer>
 <producer id="producer17" in="00:00:00.000" out="00:11:57.724">
  <property name="length">21511</property>
  <property name="eof">pause</property>
  <property name="resource">2.000000:/home/redxherring/Videos/Monster/WAV/Monster 01 - Herr Dr. Tenma [Eng Dub &amp; HD] - YouTubeLR.wav</property>
  <property name="aspect_ratio">1</property>
  <property name="meta.media.nb_streams">1</property>
  <property name="meta.media.0.stream.type">audio</property>
  <property name="meta.media.0.codec.sample_fmt">s16</property>
  <property name="meta.media.0.codec.sample_rate">48000</property>
  <property name="meta.media.0.codec.channels">2</property>
  <property name="meta.media.0.codec.name">pcm_s16le</property>
  <property name="meta.media.0.codec.long_name">PCM signed 16-bit little-endian</property>
  <property name="meta.media.0.codec.bit_rate">1536000</property>
  <property name="meta.attr.encoder.markup">Lavf59.27.100</property>
  <property name="seekable">1</property>
  <property name="audio_index">0</property>
  <property name="video_index">-1</property>
  <property name="mute_on_pause">1</property>
  <property name="warp_speed">2</property>
  <property name="warp_resource">/home/redxherring/Videos/Monster/WAV/Monster 01 - Herr Dr. Tenma [Eng Dub &amp; HD] - YouTubeLR.wav</property>
  <property name="mlt_service">timewarp</property>
  <property name="kdenlive:proxy">-</property>
  <property name="kdenlive:originalurl">/home/redxherring/Videos/Monster/WAV/Monster 01 - Herr Dr. Tenma [Eng Dub &amp; HD] - YouTubeLR.wav</property>
  <property name="set.test_audio">0</property>
  <property name="set.test_image">1</property>
  <property name="kdenlive:id">3</property>
  <property name="warp_pitch">0</property>
 </producer>
 <producer id="producer18" in="00:00:00.000" out="00:23:55.622">
  <property name="length">43026</property>
  <property name="eof">pause</property>
  <property name="resource">/home/redxherring/Videos/Monster/WAV/Monster 02 - Downfall [Eng Dub &amp; HD] - YouTubeLR.wav</property>
  <property name="meta.media.nb_streams">1</property>
  <property name="meta.media.0.stream.type">audio</property>
  <property name="meta.media.0.codec.sample_fmt">s16</property>
  <property name="meta.media.0.codec.sample_rate">48000</property>
  <property name="meta.media.0.codec.channels">2</property>
  <property name="meta.media.0.codec.name">pcm_s16le</property>
  <property name="meta.media.0.codec.long_name">PCM signed 16-bit little-endian</property>
  <property name="meta.media.0.codec.bit_rate">1536000</property>
  <property name="meta.attr.encoder.markup">Lavf59.27.100</property>
  <property name="seekable">1</property>
  <property name="audio_index">0</property>
  <property name="video_index">-1</property>
  <property name="mute_on_pause">0</property>
  <property name="mlt_service">avformat-novalidate</property>
  <property name="kdenlive:clipname">Monster 02 - Downfall [Eng Dub &amp; HD] - YouTubeLR.wav</property>
  <property name="kdenlive:clip_type">1</property>
  <property name="kdenlive:proxy">-</property>
  <property name="kdenlive:originalurl">/home/redxherring/Videos/Monster/WAV/Monster 02 - Downfall [Eng Dub &amp; HD] - YouTubeLR.wav</property>
  <property name="kdenlive:id">7</property>
  <property name="kdenlive:file_size">275639146</property>
  <property name="kdenlive:file_hash">3ada7942dfc52f6418a5867f2e7e973d</property>
  <property name="kdenlive:folderid">-1</property>
  <property name="kdenlive:audio_max0">200</property>
  <property name="xml">was here</property>
  <property name="set.test_audio">0</property>
  <property name="set.test_image">1</property>
 </producer>
 <producer id="producer19" in="00:00:00.000" out="00:23:55.522">
  <property name="length">43023</property>
  <property name="eof">pause</property>
  <property name="resource">/home/redxherring/Videos/Monster/WAV/Monster 03 - A Murder [Eng Dub &amp; HD] - YouTubeLR.wav</property>
  <property name="meta.media.nb_streams">1</property>
  <property name="meta.media.0.stream.type">audio</property>
  <property name="meta.media.0.codec.sample_fmt">s16</property>
  <property name="meta.media.0.codec.sample_rate">48000</property>
  <property name="meta.media.0.codec.channels">2</property>
  <property name="meta.media.0.codec.name">pcm_s16le</property>
  <property name="meta.media.0.codec.long_name">PCM signed 16-bit little-endian</property>
  <property name="meta.media.0.codec.bit_rate">1536000</property>
  <property name="meta.attr.encoder.markup">Lavf59.27.100</property>
  <property name="seekable">1</property>
  <property name="audio_index">0</property>
  <property name="video_index">-1</property>
  <property name="mute_on_pause">0</property>
  <property name="mlt_service">avformat-novalidate</property>
  <property name="kdenlive:clipname">Monster 03 - A Murder [Eng Dub &amp; HD] - YouTubeLR.wav</property>
  <property name="kdenlive:clip_type">1</property>
  <property name="kdenlive:proxy">-</property>
  <property name="kdenlive:originalurl">/home/redxherring/Videos/Monster/WAV/Monster 03 - A Murder [Eng Dub &amp; HD] - YouTubeLR.wav</property>
  <property name="kdenlive:id">11</property>
  <property name="kdenlive:file_size">275623542</property>
  <property name="kdenlive:file_hash">63483de3c521ac65a84c0d4d2c4e861a</property>
  <property name="kdenlive:folderid">-1</property>
  <property name="kdenlive:audio_max0">193</property>
  <property name="xml">was here</property>
  <property name="set.test_audio">0</property>
  <property name="set.test_image">1</property>
 </producer>
 <producer id="producer20" in="00:00:00.000" out="00:23:55.455">
  <property name="length">43021</property>
  <property name="eof">pause</property>
  <property name="resource">/home/redxherring/Videos/Monster/WAV/Monster 04 - Night of the Execution [Eng Dub &amp; HD] - YouTubeLR.wav</property>
  <property name="meta.media.nb_streams">1</property>
  <property name="meta.media.0.stream.type">audio</property>
  <property name="meta.media.0.codec.sample_fmt">s16</property>
  <property name="meta.media.0.codec.sample_rate">48000</property>
  <property name="meta.media.0.codec.channels">2</property>
  <property name="meta.media.0.codec.name">pcm_s16le</property>
  <property name="meta.media.0.codec.long_name">PCM signed 16-bit little-endian</property>
  <property name="meta.media.0.codec.bit_rate">1536000</property>
  <property name="meta.attr.encoder.markup">Lavf59.27.100</property>
  <property name="seekable">1</property>
  <property name="audio_index">0</property>
  <property name="video_index">-1</property>
  <property name="mute_on_pause">0</property>
  <property name="mlt_service">avformat-novalidate</property>
  <property name="kdenlive:clipname">Monster 04 - Night of the Execution [Eng Dub &amp; HD] - YouTubeLR.wav</property>
  <property name="kdenlive:clip_type">1</property>
  <property name="kdenlive:proxy">-</property>
  <property name="kdenlive:originalurl">/home/redxherring/Videos/Monster/WAV/Monster 04 - Night of the Execution [Eng Dub &amp; HD] - YouTubeLR.wav</property>
  <property name="kdenlive:id">13</property>
  <property name="kdenlive:file_size">275610166</property>
  <property name="kdenlive:file_hash">bf307fd8a7fa3fe0bddbee5d591c16f7</property>
  <property name="kdenlive:folderid">-1</property>
  <property name="kdenlive:audio_max0">191</property>
  <property name="xml">was here</property>
  <property name="set.test_audio">0</property>
  <property name="set.test_image">1</property>
 </producer>
 <playlist id="playlist2">
  <property name="kdenlive:audio_track">1</property>
  <entry producer="producer13" in="00:00:00.000" out="00:01:52.252">
   <property name="kdenlive:id">3</property>
  </entry>
  <blank length="00:00:55.989"/>
  <entry producer="producer13" in="00:04:23.257" out="00:04:24.591">
   <property name="kdenlive:id">3</property>
   <filter id="filter106" in="00:04:23.257" out="00:04:24.591">
    <property name="window">75</property>
    <property name="max_gain">20dB</property>
    <property name="mlt_service">volume</property>
    <property name="kdenlive_id">fadein</property>
    <property name="gain">0</property>
    <property name="end">1</property>
    <property name="kdenlive:collapsed">0</property>
   </filter>
   <filter id="filter107" in="00:04:23.223" out="00:04:24.591">
    <property name="window">75</property>
    <property name="max_gain">20dB</property>
    <property name="mlt_service">volume</property>
    <property name="kdenlive_id">fadeout</property>
    <property name="gain">1</property>
    <property name="end">0</property>
    <property name="kdenlive:collapsed">0</property>
   </filter>
  </entry>
  <blank length="00:00:04.538"/>
  <entry producer="producer13" in="00:04:30.097" out="00:04:30.697">
   <property name="kdenlive:id">3</property>
   <filter id="filter108" in="00:04:30.097" out="00:04:30.697">
    <property name="window">75</property>
    <property name="max_gain">20dB</property>
    <property name="mlt_service">volume</property>
    <property name="kdenlive_id">fadein</property>
    <property name="gain">0</property>
    <property name="end">1</property>
    <property name="kdenlive:collapsed">0</property>
   </filter>
   <filter id="filter109" in="00:04:30.063" out="00:04:30.697">
    <property name="window">75</property>
    <property name="max_gain">20dB</property>
    <property name="mlt_service">volume</property>
    <property name="kdenlive_id">fadeout</property>
    <property name="gain">1</property>
    <property name="end">0</property>
    <property name="kdenlive:collapsed">0</property>
   </filter>
  </entry>
  <blank length="00:00:07.875"/>
  <entry producer="producer13" in="00:04:38.972" out="00:04:39.072">
   <property name="kdenlive:id">3</property>
   <filter id="filter110" in="00:04:38.972" out="00:04:39.072">
    <property name="window">75</property>
    <property name="max_gain">20dB</property>
    <property name="mlt_service">volume</property>
    <property name="kdenlive_id">fadein</property>
    <property name="gain">0</property>
    <property name="end">1</property>
    <property name="kdenlive:collapsed">0</property>
   </filter>
   <filter id="filter111" in="00:04:38.939" out="00:04:39.072">
    <property name="window">75</property>
    <property name="max_gain">20dB</property>
    <property name="mlt_service">volume</property>
    <property name="kdenlive_id">fadeout</property>
    <property name="gain">1</property>
    <property name="end">0</property>
    <property name="kdenlive:collapsed">0</property>
   </filter>
  </entry>
  <blank length="00:00:02.302"/>
  <entry producer="producer13" in="00:04:42.209" out="00:04:43.577">
   <property name="kdenlive:id">3</property>
   <filter id="filter112" in="00:04:42.209" out="00:04:43.577">
    <property name="window">75</property>
    <property name="max_gain">20dB</property>
    <property name="mlt_service">volume</property>
    <property name="kdenlive_id">fadein</property>
    <property name="gain">0</property>
    <property name="end">1</property>
    <property name="kdenlive:collapsed">0</property>
   </filter>
   <filter id="filter113" in="00:04:42.175" out="00:04:43.577">
    <property name="window">75</property>
    <property name="max_gain">20dB</property>
    <property name="mlt_service">volume</property>
    <property name="kdenlive_id">fadeout</property>
    <property name="gain">1</property>
    <property name="end">0</property>
    <property name="kdenlive:collapsed">0</property>
   </filter>
  </entry>
  <blank length="00:00:10.043"/>
  <entry producer="producer13" in="00:04:55.956" out="00:05:04.371">
   <property name="kdenlive:id">3</property>
   <filter id="filter114" in="00:04:55.956" out="00:04:57.024">
    <property name="window">75</property>
    <property name="max_gain">20dB</property>
    <property name="mlt_service">volume</property>
    <property name="kdenlive_id">fadein</property>
    <property name="gain">0</property>
    <property name="end">1</property>
    <property name="kdenlive:collapsed">0</property>
   </filter>
  </entry>
  <blank length="00:03:35.435"/>
  <entry producer="producer13" in="00:08:59.760" out="00:09:01.301">
   <property name="kdenlive:id">3</property>
   <filter id="filter115" in="00:08:59.760" out="00:08:59.860">
    <property name="window">75</property>
    <property name="max_gain">20dB</property>
    <property name="mlt_service">volume</property>
    <property name="kdenlive_id">fadein</property>
    <property name="gain">0</property>
    <property name="end">1</property>
    <property name="kdenlive:collapsed">0</property>
   </filter>
  </entry>
  <entry producer="producer13" in="00:09:01.335" out="00:09:25.259">
   <property name="kdenlive:id">3</property>
   <filter id="filter116" in="00:09:23.991" out="00:09:25.259">
    <property name="window">75</property>
    <property name="max_gain">20dB</property>
    <property name="mlt_service">volume</property>
    <property name="kdenlive_id">fadeout</property>
    <property name="gain">1</property>
    <property name="end">0</property>
    <property name="kdenlive:collapsed">0</property>
   </filter>
  </entry>
  <blank length="00:00:59.126"/>
  <entry producer="producer17" in="00:05:15.148" out="00:05:19.119">
   <property name="kdenlive:id">3</property>
   <filter id="filter117">
    <property name="window">75</property>
    <property name="max_gain">20dB</property>
    <property name="mlt_service">volume</property>
    <property name="kdenlive_id">gain</property>
    <property name="gain">0.25</property>
    <property name="kdenlive:collapsed">0</property>
   </filter>
   <filter id="filter118" in="00:05:18.385" out="00:05:19.119">
    <property name="window">75</property>
    <property name="max_gain">20dB</property>
    <property name="mlt_service">volume</property>
    <property name="kdenlive_id">fadeout</property>
    <property name="gain">1</property>
    <property name="end">0</property>
    <property name="kdenlive:collapsed">0</property>
   </filter>
   <filter id="filter119" in="00:05:15.148" out="00:05:16.016">
    <property name="window">75</property>
    <property name="max_gain">20dB</property>
    <property name="mlt_service">volume</property>
    <property name="kdenlive_id">fadein</property>
    <property name="gain">0</property>
    <property name="end">1</property>
    <property name="kdenlive:collapsed">0</property>
   </filter>
  </entry>
  <entry producer="producer13" in="00:10:47.481" out="00:10:49.883">
   <property name="kdenlive:id">3</property>
   <filter id="filter120" in="00:10:47.481" out="00:10:49.516">
    <property name="window">75</property>
    <property name="max_gain">20dB</property>
    <property name="mlt_service">volume</property>
    <property name="kdenlive_id">fadein</property>
    <property name="gain">0</property>
    <property name="end">1</property>
    <property name="kdenlive:collapsed">0</property>
   </filter>
  </entry>
  <entry producer="producer13" in="00:10:49.917" out="00:12:41.542">
   <property name="kdenlive:id">3</property>
  </entry>
  <entry producer="producer13" in="00:12:44.077" out="00:18:54.721">
   <property name="kdenlive:id">3</property>
  </entry>
  <entry producer="producer13" in="00:18:55.522" out="00:22:26.159">
   <property name="kdenlive:id">3</property>
   <filter id="filter121" in="00:18:55.522" out="00:18:55.856">
    <property name="window">75</property>
    <property name="max_gain">20dB</property>
    <property name="mlt_service">volume</property>
    <property name="kdenlive_id">fadein</property>
    <property name="gain">0</property>
    <property name="end">1</property>
    <property name="kdenlive:collapsed">0</property>
   </filter>
  </entry>
  <blank length="00:08:32.866"/>
  <entry producer="producer18" in="00:09:59.426" out="00:10:32.366">
   <property name="kdenlive:id">7</property>
   <filter id="filter122" in="00:10:31.765" out="00:10:32.366">
    <property name="window">75</property>
    <property name="max_gain">20dB</property>
    <property name="mlt_service">volume</property>
    <property name="kdenlive_id">fadeout</property>
    <property name="gain">1</property>
    <property name="end">0</property>
    <property name="kdenlive:collapsed">0</property>
   </filter>
  </entry>
  <blank length="00:00:33.333"/>
  <entry producer="producer18" in="00:11:08.942" out="00:11:45.412">
   <property name="kdenlive:id">7</property>
   <filter id="filter123" in="00:11:44.511" out="00:11:45.412">
    <property name="window">75</property>
    <property name="max_gain">20dB</property>
    <property name="mlt_service">volume</property>
    <property name="kdenlive_id">fadeout</property>
    <property name="gain">1</property>
    <property name="end">0</property>
    <property name="kdenlive:collapsed">0</property>
   </filter>
  </entry>
  <blank length="00:00:02.202"/>
  <entry producer="producer18" in="00:11:53.954" out="00:11:55.155">
   <property name="kdenlive:id">7</property>
   <filter id="filter124" in="00:11:54.421" out="00:11:55.155">
    <property name="window">75</property>
    <property name="max_gain">20dB</property>
    <property name="mlt_service">volume</property>
    <property name="kdenlive_id">fadeout</property>
    <property name="gain">1</property>
    <property name="end">0</property>
    <property name="kdenlive:collapsed">0</property>
   </filter>
   <filter id="filter125" in="00:11:53.954" out="00:11:54.454">
    <property name="window">75</property>
    <property name="max_gain">20dB</property>
    <property name="mlt_service">volume</property>
    <property name="kdenlive_id">fadein</property>
    <property name="gain">0</property>
    <property name="end">1</property>
    <property name="kdenlive:collapsed">0</property>
   </filter>
  </entry>
  <blank length="00:02:18.919"/>
  <entry producer="producer18" in="00:14:21.221" out="00:14:24.157">
   <property name="kdenlive:id">7</property>
   <filter id="filter126" in="00:14:22.055" out="00:14:24.157">
    <property name="window">75</property>
    <property name="max_gain">20dB</property>
    <property name="mlt_service">volume</property>
    <property name="kdenlive_id">fadeout</property>
    <property name="gain">1</property>
    <property name="end">0</property>
    <property name="kdenlive:collapsed">0</property>
   </filter>
   <filter id="filter127" in="00:14:21.221" out="00:14:23.323">
    <property name="window">75</property>
    <property name="max_gain">20dB</property>
    <property name="mlt_service">volume</property>
    <property name="kdenlive_id">fadein</property>
    <property name="gain">0</property>
    <property name="end">1</property>
    <property name="kdenlive:collapsed">0</property>
   </filter>
  </entry>
  <blank length="00:05:46.813"/>
  <entry producer="producer18" in="00:20:22.089" out="00:20:24.224">
   <property name="kdenlive:id">7</property>
   <filter id="filter128" in="00:20:22.089" out="00:20:22.723">
    <property name="window">75</property>
    <property name="max_gain">20dB</property>
    <property name="mlt_service">volume</property>
    <property name="kdenlive_id">fadein</property>
    <property name="gain">0</property>
    <property name="end">1</property>
    <property name="kdenlive:collapsed">0</property>
   </filter>
   <filter id="filter129" in="00:20:23.357" out="00:20:24.224">
    <property name="window">75</property>
    <property name="max_gain">20dB</property>
    <property name="mlt_service">volume</property>
    <property name="kdenlive_id">fadeout</property>
    <property name="gain">1</property>
    <property name="end">0</property>
    <property name="kdenlive:collapsed">0</property>
   </filter>
  </entry>
  <blank length="00:01:22.322"/>
  <entry producer="producer18" in="00:21:50.317" out="00:22:01.502">
   <property name="kdenlive:id">7</property>
   <filter id="filter130" in="00:22:00.400" out="00:22:01.502">
    <property name="window">75</property>
    <property name="max_gain">20dB</property>
    <property name="mlt_service">volume</property>
    <property name="kdenlive_id">fadeout</property>
    <property name="gain">1</property>
    <property name="end">0</property>
    <property name="kdenlive:collapsed">0</property>
   </filter>
   <filter id="filter131" in="00:21:50.317" out="00:21:50.551">
    <property name="window">75</property>
    <property name="max_gain">20dB</property>
    <property name="mlt_service">volume</property>
    <property name="kdenlive_id">fadein</property>
    <property name="gain">0</property>
    <property name="end">1</property>
    <property name="kdenlive:collapsed">0</property>
   </filter>
  </entry>
  <blank length="00:00:03.136"/>
  <entry producer="producer18" in="00:22:11.011" out="00:22:27.127">
   <property name="kdenlive:id">7</property>
   <filter id="filter132" in="00:22:11.011" out="00:22:11.812">
    <property name="window">75</property>
    <property name="max_gain">20dB</property>
    <property name="mlt_service">volume</property>
    <property name="kdenlive_id">fadein</property>
    <property name="gain">0</property>
    <property name="end">1</property>
    <property name="kdenlive:collapsed">0</property>
   </filter>
   <filter id="filter134" in="00:22:26.693" out="00:22:27.127">
    <property name="window">75</property>
    <property name="max_gain">20dB</property>
    <property name="mlt_service">volume</property>
    <property name="kdenlive_id">fadeout</property>
    <property name="gain">1</property>
    <property name="end">0</property>
    <property name="kdenlive:collapsed">0</property>
   </filter>
  </entry>
  <blank length="00:02:03.704"/>
  <entry producer="producer19" in="00:03:37.604" out="00:03:55.222">
   <property name="kdenlive:id">11</property>
   <filter id="filter135" in="00:03:37.604" out="00:03:40.274">
    <property name="window">75</property>
    <property name="max_gain">20dB</property>
    <property name="mlt_service">volume</property>
    <property name="kdenlive_id">fadein</property>
    <property name="gain">0</property>
    <property name="end">1</property>
    <property name="kdenlive:collapsed">0</property>
   </filter>
   <filter id="filter136" in="00:03:55.155" out="00:03:55.222">
    <property name="window">75</property>
    <property name="max_gain">20dB</property>
    <property name="mlt_service">volume</property>
    <property name="kdenlive_id">fadeout</property>
    <property name="gain">1</property>
    <property name="end">0</property>
    <property name="kdenlive:collapsed">0</property>
   </filter>
  </entry>
  <blank length="00:02:06.807"/>
  <entry producer="producer19" in="00:06:11.411" out="00:10:21.822">
   <property name="kdenlive:id">11</property>
   <filter id="filter137" in="00:10:21.655" out="00:10:21.822">
    <property name="window">75</property>
    <property name="max_gain">20dB</property>
    <property name="mlt_service">volume</property>
    <property name="kdenlive_id">fadeout</property>
    <property name="gain">1</property>
    <property name="end">0</property>
    <property name="kdenlive:collapsed">0</property>
   </filter>
   <filter id="filter138" in="00:06:11.411" out="00:06:11.445">
    <property name="window">75</property>
    <property name="max_gain">20dB</property>
    <property name="mlt_service">volume</property>
    <property name="kdenlive_id">fadein</property>
    <property name="gain">0</property>
    <property name="end">1</property>
    <property name="kdenlive:collapsed">0</property>
   </filter>
  </entry>
  <blank length="00:00:07.641"/>
  <entry producer="producer19" in="00:10:46.647" out="00:16:45.445">
   <property name="kdenlive:id">11</property>
   <filter id="filter139" in="00:10:46.647" out="00:10:48.148">
    <property name="window">75</property>
    <property name="max_gain">20dB</property>
    <property name="mlt_service">volume</property>
    <property name="kdenlive_id">fadein</property>
    <property name="gain">0</property>
    <property name="end">1</property>
    <property name="kdenlive:collapsed">0</property>
   </filter>
  </entry>
  <blank length="00:00:01.635"/>
  <entry producer="producer19" in="00:16:48.649" out="00:17:00.467">
   <property name="kdenlive:id">11</property>
  </entry>
  <entry producer="producer19" in="00:17:02.769" out="00:17:18.652">
   <property name="kdenlive:id">11</property>
   <filter id="filter140" in="00:17:17.751" out="00:17:18.652">
    <property name="window">75</property>
    <property name="max_gain">20dB</property>
    <property name="mlt_service">volume</property>
    <property name="kdenlive_id">fadeout</property>
    <property name="gain">1</property>
    <property name="end">0</property>
    <property name="kdenlive:collapsed">0</property>
   </filter>
  </entry>
  <entry producer="producer19" in="00:17:26.226" out="00:20:15.682">
   <property name="kdenlive:id">11</property>
   <filter id="filter141" in="00:17:26.226" out="00:17:26.393">
    <property name="window">75</property>
    <property name="max_gain">20dB</property>
    <property name="mlt_service">volume</property>
    <property name="kdenlive_id">fadein</property>
    <property name="gain">0</property>
    <property name="end">1</property>
    <property name="kdenlive:collapsed">0</property>
   </filter>
  </entry>
  <blank length="00:02:32.799"/>
  <entry producer="producer20" in="00:02:45.379" out="00:02:56.223">
   <property name="kdenlive:id">13</property>
   <filter id="filter142" in="00:02:45.379" out="00:02:45.546">
    <property name="window">75</property>
    <property name="max_gain">20dB</property>
    <property name="mlt_service">volume</property>
    <property name="kdenlive_id">fadein</property>
    <property name="gain">0</property>
    <property name="end">1</property>
    <property name="kdenlive:collapsed">0</property>
   </filter>
   <filter id="filter143" in="00:02:55.989" out="00:02:56.223">
    <property name="window">75</property>
    <property name="max_gain">20dB</property>
    <property name="mlt_service">volume</property>
    <property name="kdenlive_id">fadeout</property>
    <property name="gain">1</property>
    <property name="end">0</property>
    <property name="kdenlive:collapsed">0</property>
   </filter>
  </entry>
  <blank length="00:04:18.018"/>
  <entry producer="producer20" in="00:07:18.252" out="00:07:20.287">
   <property name="kdenlive:id">13</property>
   <filter id="filter144" in="00:07:20.220" out="00:07:20.287">
    <property name="window">75</property>
    <property name="max_gain">20dB</property>
    <property name="mlt_service">volume</property>
    <property name="kdenlive_id">fadeout</property>
    <property name="gain">1</property>
    <property name="end">0</property>
    <property name="kdenlive:collapsed">0</property>
   </filter>
  </entry>
  <blank length="00:02:19.520"/>
  <entry producer="producer20" in="00:09:46.480" out="00:09:54.555">
   <property name="kdenlive:id">13</property>
   <filter id="filter145">
    <property name="window">75</property>
    <property name="max_gain">20dB</property>
    <property name="mlt_service">volume</property>
    <property name="kdenlive_id">gain</property>
    <property name="gain">0.5</property>
    <property name="kdenlive:collapsed">0</property>
   </filter>
   <filter id="filter146" in="00:09:54.321" out="00:09:54.555">
    <property name="window">75</property>
    <property name="max_gain">20dB</property>
    <property name="mlt_service">volume</property>
    <property name="kdenlive_id">fadeout</property>
    <property name="gain">1</property>
    <property name="end">0</property>
    <property name="kdenlive:collapsed">0</property>
   </filter>
   <filter id="filter147" in="00:09:46.480" out="00:09:46.647">
    <property name="window">75</property>
    <property name="max_gain">20dB</property>
    <property name="mlt_service">volume</property>
    <property name="kdenlive_id">fadein</property>
    <property name="gain">0</property>
    <property name="end">1</property>
    <property name="kdenlive:collapsed">0</property>
   </filter>
  </entry>
  <blank length="00:00:07.741"/>
  <entry producer="producer20" in="00:09:46.446" out="00:09:54.555">
   <property name="kdenlive:id">13</property>
   <filter id="filter148">
    <property name="window">75</property>
    <property name="max_gain">20dB</property>
    <property name="mlt_service">volume</property>
    <property name="kdenlive_id">gain</property>
    <property name="gain">0.25</property>
    <property name="kdenlive:collapsed">0</property>
   </filter>
   <filter id="filter149" in="00:09:54.321" out="00:09:54.555">
    <property name="window">75</property>
    <property name="max_gain">20dB</property>
    <property name="mlt_service">volume</property>
    <property name="kdenlive_id">fadeout</property>
    <property name="gain">1</property>
    <property name="end">0</property>
    <property name="kdenlive:collapsed">0</property>
   </filter>
   <filter id="filter150" in="00:09:46.446" out="00:09:46.647">
    <property name="window">75</property>
    <property name="max_gain">20dB</property>
    <property name="mlt_service">volume</property>
    <property name="kdenlive_id">fadein</property>
    <property name="gain">0</property>
    <property name="end">1</property>
    <property name="kdenlive:collapsed">0</property>
   </filter>
  </entry>
  <blank length="00:00:07.741"/>
  <entry producer="producer20" in="00:09:46.446" out="00:09:55.556">
   <property name="kdenlive:id">13</property>
   <filter id="filter151">
    <property name="window">75</property>
    <property name="max_gain">20dB</property>
    <property name="mlt_service">volume</property>
    <property name="kdenlive_id">gain</property>
    <property name="gain">0.25</property>
    <property name="kdenlive:collapsed">0</property>
   </filter>
   <filter id="filter152" in="00:09:55.389" out="00:09:55.556">
    <property name="window">75</property>
    <property name="max_gain">20dB</property>
    <property name="mlt_service">volume</property>
    <property name="kdenlive_id">fadeout</property>
    <property name="gain">1</property>
    <property name="end">0</property>
    <property name="kdenlive:collapsed">0</property>
   </filter>
   <filter id="filter153" in="00:09:46.446" out="00:09:46.647">
    <property name="window">75</property>
    <property name="max_gain">20dB</property>
    <property name="mlt_service">volume</property>
    <property name="kdenlive_id">fadein</property>
    <property name="gain">0</property>
    <property name="end">1</property>
    <property name="kdenlive:collapsed">0</property>
   </filter>
  </entry>
  <blank length="00:03:47.414"/>
  <entry producer="producer20" in="00:13:47.281" out="00:13:52.486">
   <property name="kdenlive:id">13</property>
   <filter id="filter154" in="00:13:52.152" out="00:13:52.486">
    <property name="window">75</property>
    <property name="max_gain">20dB</property>
    <property name="mlt_service">volume</property>
    <property name="kdenlive_id">fadeout</property>
    <property name="gain">1</property>
    <property name="end">0</property>
    <property name="kdenlive:collapsed">0</property>
   </filter>
  </entry>
  <blank length="00:00:03.770"/>
  <entry producer="producer20" in="00:14:02.903" out="00:14:03.837">
   <property name="kdenlive:id">13</property>
   <filter id="filter155" in="00:14:02.903" out="00:14:03.837">
    <property name="window">75</property>
    <property name="max_gain">20dB</property>
    <property name="mlt_service">volume</property>
    <property name="kdenlive_id">fadein</property>
    <property name="gain">0</property>
    <property name="end">1</property>
    <property name="kdenlive:collapsed">0</property>
   </filter>
   <filter id="filter156" in="00:14:02.870" out="00:14:03.837">
    <property name="window">75</property>
    <property name="max_gain">20dB</property>
    <property name="mlt_service">volume</property>
    <property name="kdenlive_id">fadeout</property>
    <property name="gain">1</property>
    <property name="end">0</property>
    <property name="kdenlive:collapsed">0</property>
   </filter>
  </entry>
  <blank length="00:00:10.644"/>
  <entry producer="producer20" in="00:14:15.682" out="00:14:20.521">
   <property name="kdenlive:id">13</property>
   <filter id="filter157" in="00:14:15.682" out="00:14:15.849">
    <property name="window">75</property>
    <property name="max_gain">20dB</property>
    <property name="mlt_service">volume</property>
    <property name="kdenlive_id">fadein</property>
    <property name="gain">0</property>
    <property name="end">1</property>
    <property name="kdenlive:collapsed">0</property>
   </filter>
   <filter id="filter158" in="00:14:18.685" out="00:14:20.521">
    <property name="window">75</property>
    <property name="max_gain">20dB</property>
    <property name="mlt_service">volume</property>
    <property name="kdenlive_id">fadeout</property>
    <property name="gain">1</property>
    <property name="end">0</property>
    <property name="kdenlive:collapsed">0</property>
   </filter>
  </entry>
  <blank length="00:00:37.971"/>
  <entry producer="producer20" in="00:15:09.176" out="00:15:14.147">
   <property name="kdenlive:id">13</property>
   <filter id="filter159" in="00:15:09.176" out="00:15:09.743">
    <property name="window">75</property>
    <property name="max_gain">20dB</property>
    <property name="mlt_service">volume</property>
    <property name="kdenlive_id">fadein</property>
    <property name="gain">0</property>
    <property name="end">1</property>
    <property name="kdenlive:collapsed">0</property>
   </filter>
  </entry>
  <blank length="00:00:10.310"/>
  <entry producer="producer20" in="00:15:29.263" out="00:15:30.097">
   <property name="kdenlive:id">13</property>
   <filter id="filter160" in="00:15:29.263" out="00:15:30.097">
    <property name="window">75</property>
    <property name="max_gain">20dB</property>
    <property name="mlt_service">volume</property>
    <property name="kdenlive_id">fadein</property>
    <property name="gain">0</property>
    <property name="end">1</property>
    <property name="kdenlive:collapsed">0</property>
   </filter>
   <filter id="filter161" in="00:15:29.229" out="00:15:30.097">
    <property name="window">75</property>
    <property name="max_gain">20dB</property>
    <property name="mlt_service">volume</property>
    <property name="kdenlive_id">fadeout</property>
    <property name="gain">1</property>
    <property name="end">0</property>
    <property name="kdenlive:collapsed">0</property>
   </filter>
  </entry>
  <blank length="00:02:29.396"/>
  <entry producer="producer20" in="00:18:11.512" out="00:18:12.679">
   <property name="kdenlive:id">13</property>
   <filter id="filter162" in="00:18:11.512" out="00:18:12.312">
    <property name="window">75</property>
    <property name="max_gain">20dB</property>
    <property name="mlt_service">volume</property>
    <property name="kdenlive_id">fadein</property>
    <property name="gain">0</property>
    <property name="end">1</property>
   </filter>
  </entry>
  <entry producer="producer20" in="00:18:12.713" out="00:21:03.604">
   <property name="kdenlive:id">13</property>
  </entry>
  <entry producer="producer20" in="00:21:04.004" out="00:23:36.937">
   <property name="kdenlive:id">13</property>
  </entry>
 </playlist>
 <playlist id="playlist3">
  <property name="kdenlive:audio_track">1</property>
 </playlist>
 <tractor id="tractor1" in="00:00:00.000" out="01:21:36.870">
  <property name="kdenlive:audio_track">1</property>
  <property name="kdenlive:trackheight">69</property>
  <property name="kdenlive:timeline_active">1</property>
  <property name="kdenlive:collapsed">0</property>
  <property name="kdenlive:thumbs_format"/>
  <property name="kdenlive:audio_rec"/>
  <track hide="video" producer="playlist2"/>
  <track hide="video" producer="playlist3"/>
  <filter id="filter163">
   <property name="window">75</property>
   <property name="max_gain">20dB</property>
   <property name="mlt_service">volume</property>
   <property name="internal_added">237</property>
   <property name="disable">1</property>
  </filter>
  <filter id="filter164">
   <property name="channel">-1</property>
   <property name="mlt_service">panner</property>
   <property name="internal_added">237</property>
   <property name="start">0.5</property>
   <property name="disable">1</property>
  </filter>
  <filter id="filter1">
   <property name="iec_scale">0</property>
   <property name="mlt_service">audiolevel</property>
   <property name="disable">1</property>
  </filter>
 </tractor>
 <producer id="producer21" in="00:00:00.000" out="00:23:55.455">
  <property name="length">43021</property>
  <property name="eof">pause</property>
  <property name="resource">/home/redxherring/Videos/Monster/WAV/Monster 01 - Herr Dr. Tenma [Eng Dub &amp; HD] - YouTubeLR.wav</property>
  <property name="meta.media.nb_streams">1</property>
  <property name="meta.media.0.stream.type">audio</property>
  <property name="meta.media.0.codec.sample_fmt">s16</property>
  <property name="meta.media.0.codec.sample_rate">48000</property>
  <property name="meta.media.0.codec.channels">2</property>
  <property name="meta.media.0.codec.name">pcm_s16le</property>
  <property name="meta.media.0.codec.long_name">PCM signed 16-bit little-endian</property>
  <property name="meta.media.0.codec.bit_rate">1536000</property>
  <property name="meta.attr.encoder.markup">Lavf59.27.100</property>
  <property name="seekable">1</property>
  <property name="audio_index">0</property>
  <property name="video_index">-1</property>
  <property name="mute_on_pause">0</property>
  <property name="mlt_service">avformat-novalidate</property>
  <property name="kdenlive:clipname">Monster 01 - Herr Dr. Tenma [Eng Dub &amp; HD] - YouTubeLR.wav</property>
  <property name="kdenlive:clip_type">1</property>
  <property name="kdenlive:proxy">-</property>
  <property name="kdenlive:originalurl">/home/redxherring/Videos/Monster/WAV/Monster 01 - Herr Dr. Tenma [Eng Dub &amp; HD] - YouTubeLR.wav</property>
  <property name="kdenlive:id">3</property>
  <property name="kdenlive:file_size">275610166</property>
  <property name="kdenlive:file_hash">0940175b75d7b5187ecfd78c5e4427fe</property>
  <property name="kdenlive:folderid">-1</property>
  <property name="kdenlive:audio_max0">190</property>
  <property name="xml">was here</property>
  <property name="set.test_audio">0</property>
  <property name="set.test_image">1</property>
 </producer>
 <producer id="producer22" in="00:00:00.000" out="00:11:57.724">
  <property name="length">21511</property>
  <property name="eof">pause</property>
  <property name="resource">2.000000:/home/redxherring/Videos/Monster/WAV/Monster 01 - Herr Dr. Tenma [Eng Dub &amp; HD] - YouTubeLR.wav</property>
  <property name="aspect_ratio">1</property>
  <property name="meta.media.nb_streams">1</property>
  <property name="meta.media.0.stream.type">audio</property>
  <property name="meta.media.0.codec.sample_fmt">s16</property>
  <property name="meta.media.0.codec.sample_rate">48000</property>
  <property name="meta.media.0.codec.channels">2</property>
  <property name="meta.media.0.codec.name">pcm_s16le</property>
  <property name="meta.media.0.codec.long_name">PCM signed 16-bit little-endian</property>
  <property name="meta.media.0.codec.bit_rate">1536000</property>
  <property name="meta.attr.encoder.markup">Lavf59.27.100</property>
  <property name="seekable">1</property>
  <property name="audio_index">0</property>
  <property name="video_index">-1</property>
  <property name="mute_on_pause">1</property>
  <property name="warp_speed">2</property>
  <property name="warp_resource">/home/redxherring/Videos/Monster/WAV/Monster 01 - Herr Dr. Tenma [Eng Dub &amp; HD] - YouTubeLR.wav</property>
  <property name="mlt_service">timewarp</property>
  <property name="kdenlive:proxy">-</property>
  <property name="kdenlive:originalurl">/home/redxherring/Videos/Monster/WAV/Monster 01 - Herr Dr. Tenma [Eng Dub &amp; HD] - YouTubeLR.wav</property>
  <property name="set.test_audio">0</property>
  <property name="set.test_image">1</property>
  <property name="kdenlive:id">3</property>
  <property name="warp_pitch">0</property>
 </producer>
 <producer id="producer23" in="00:00:00.000" out="00:23:55.622">
  <property name="length">43026</property>
  <property name="eof">pause</property>
  <property name="resource">/home/redxherring/Videos/Monster/WAV/Monster 02 - Downfall [Eng Dub &amp; HD] - YouTubeLR.wav</property>
  <property name="meta.media.nb_streams">1</property>
  <property name="meta.media.0.stream.type">audio</property>
  <property name="meta.media.0.codec.sample_fmt">s16</property>
  <property name="meta.media.0.codec.sample_rate">48000</property>
  <property name="meta.media.0.codec.channels">2</property>
  <property name="meta.media.0.codec.name">pcm_s16le</property>
  <property name="meta.media.0.codec.long_name">PCM signed 16-bit little-endian</property>
  <property name="meta.media.0.codec.bit_rate">1536000</property>
  <property name="meta.attr.encoder.markup">Lavf59.27.100</property>
  <property name="seekable">1</property>
  <property name="audio_index">0</property>
  <property name="video_index">-1</property>
  <property name="mute_on_pause">0</property>
  <property name="mlt_service">avformat-novalidate</property>
  <property name="kdenlive:clipname">Monster 02 - Downfall [Eng Dub &amp; HD] - YouTubeLR.wav</property>
  <property name="kdenlive:clip_type">1</property>
  <property name="kdenlive:proxy">-</property>
  <property name="kdenlive:originalurl">/home/redxherring/Videos/Monster/WAV/Monster 02 - Downfall [Eng Dub &amp; HD] - YouTubeLR.wav</property>
  <property name="kdenlive:id">7</property>
  <property name="kdenlive:file_size">275639146</property>
  <property name="kdenlive:file_hash">3ada7942dfc52f6418a5867f2e7e973d</property>
  <property name="kdenlive:folderid">-1</property>
  <property name="kdenlive:audio_max0">200</property>
  <property name="xml">was here</property>
  <property name="set.test_audio">0</property>
  <property name="set.test_image">1</property>
 </producer>
 <producer id="producer24" in="00:00:00.000" out="00:23:55.522">
  <property name="length">43023</property>
  <property name="eof">pause</property>
  <property name="resource">/home/redxherring/Videos/Monster/WAV/Monster 03 - A Murder [Eng Dub &amp; HD] - YouTubeLR.wav</property>
  <property name="meta.media.nb_streams">1</property>
  <property name="meta.media.0.stream.type">audio</property>
  <property name="meta.media.0.codec.sample_fmt">s16</property>
  <property name="meta.media.0.codec.sample_rate">48000</property>
  <property name="meta.media.0.codec.channels">2</property>
  <property name="meta.media.0.codec.name">pcm_s16le</property>
  <property name="meta.media.0.codec.long_name">PCM signed 16-bit little-endian</property>
  <property name="meta.media.0.codec.bit_rate">1536000</property>
  <property name="meta.attr.encoder.markup">Lavf59.27.100</property>
  <property name="seekable">1</property>
  <property name="audio_index">0</property>
  <property name="video_index">-1</property>
  <property name="mute_on_pause">0</property>
  <property name="mlt_service">avformat-novalidate</property>
  <property name="kdenlive:clipname">Monster 03 - A Murder [Eng Dub &amp; HD] - YouTubeLR.wav</property>
  <property name="kdenlive:clip_type">1</property>
  <property name="kdenlive:proxy">-</property>
  <property name="kdenlive:originalurl">/home/redxherring/Videos/Monster/WAV/Monster 03 - A Murder [Eng Dub &amp; HD] - YouTubeLR.wav</property>
  <property name="kdenlive:id">11</property>
  <property name="kdenlive:file_size">275623542</property>
  <property name="kdenlive:file_hash">63483de3c521ac65a84c0d4d2c4e861a</property>
  <property name="kdenlive:folderid">-1</property>
  <property name="kdenlive:audio_max0">193</property>
  <property name="xml">was here</property>
  <property name="set.test_audio">0</property>
  <property name="set.test_image">1</property>
 </producer>
 <producer id="producer25" in="00:00:00.000" out="00:23:55.455">
  <property name="length">43021</property>
  <property name="eof">pause</property>
  <property name="resource">/home/redxherring/Videos/Monster/WAV/Monster 04 - Night of the Execution [Eng Dub &amp; HD] - YouTubeLR.wav</property>
  <property name="meta.media.nb_streams">1</property>
  <property name="meta.media.0.stream.type">audio</property>
  <property name="meta.media.0.codec.sample_fmt">s16</property>
  <property name="meta.media.0.codec.sample_rate">48000</property>
  <property name="meta.media.0.codec.channels">2</property>
  <property name="meta.media.0.codec.name">pcm_s16le</property>
  <property name="meta.media.0.codec.long_name">PCM signed 16-bit little-endian</property>
  <property name="meta.media.0.codec.bit_rate">1536000</property>
  <property name="meta.attr.encoder.markup">Lavf59.27.100</property>
  <property name="seekable">1</property>
  <property name="audio_index">0</property>
  <property name="video_index">-1</property>
  <property name="mute_on_pause">0</property>
  <property name="mlt_service">avformat-novalidate</property>
  <property name="kdenlive:clipname">Monster 04 - Night of the Execution [Eng Dub &amp; HD] - YouTubeLR.wav</property>
  <property name="kdenlive:clip_type">1</property>
  <property name="kdenlive:proxy">-</property>
  <property name="kdenlive:originalurl">/home/redxherring/Videos/Monster/WAV/Monster 04 - Night of the Execution [Eng Dub &amp; HD] - YouTubeLR.wav</property>
  <property name="kdenlive:id">13</property>
  <property name="kdenlive:file_size">275610166</property>
  <property name="kdenlive:file_hash">bf307fd8a7fa3fe0bddbee5d591c16f7</property>
  <property name="kdenlive:folderid">-1</property>
  <property name="kdenlive:audio_max0">191</property>
  <property name="xml">was here</property>
  <property name="set.test_audio">0</property>
  <property name="set.test_image">1</property>
 </producer>
 <producer id="producer46" in="00:00:00.000" out="00:23:55.589">
  <property name="length">43025</property>
  <property name="eof">pause</property>
  <property name="resource">/home/redxherring/Videos/Monster/WAV/Monster 23 - Eva's Confession [Eng Dub &amp; HD] - YouTubeL.wav</property>
  <property name="audio_index">0</property>
  <property name="video_index">-1</property>
  <property name="mute_on_pause">0</property>
  <property name="mlt_service">avformat-novalidate</property>
  <property name="meta.media.nb_streams">1</property>
  <property name="meta.media.0.stream.type">audio</property>
  <property name="meta.media.0.codec.sample_fmt">s16</property>
  <property name="meta.media.0.codec.sample_rate">48000</property>
  <property name="meta.media.0.codec.channels">1</property>
  <property name="meta.media.0.codec.name">pcm_s16le</property>
  <property name="meta.media.0.codec.long_name">PCM signed 16-bit little-endian</property>
  <property name="meta.media.0.codec.bit_rate">768000</property>
  <property name="meta.attr.encoder.markup">Lavf58.76.100</property>
  <property name="seekable">1</property>
  <property name="kdenlive:clipname"/>
  <property name="kdenlive:folderid">16</property>
  <property name="kdenlive:id">18</property>
  <property name="kdenlive:file_size">137818498</property>
  <property name="kdenlive:file_hash">14e595e6d3332cff6660e29daa075a27</property>
  <property name="kdenlive:audio_max">1</property>
  <property name="global_feed">1</property>
  <property name="xml">was here</property>
  <property name="set.test_audio">0</property>
  <property name="set.test_image">1</property>
 </producer>
 <playlist id="playlist4">
  <property name="kdenlive:audio_track">1</property>
  <blank length="00:01:47.748"/>
  <entry producer="producer21" in="00:03:21.955" out="00:04:23.223">
   <property name="kdenlive:id">3</property>
   <filter id="filter205" in="00:03:21.955" out="00:03:26.493">
    <property name="window">75</property>
    <property name="max_gain">20dB</property>
    <property name="mlt_service">volume</property>
    <property name="kdenlive_id">fadein</property>
    <property name="gain">0</property>
    <property name="end">1</property>
    <property name="kdenlive:collapsed">0</property>
   </filter>
  </entry>
  <entry producer="producer21" in="00:04:24.625" out="00:04:30.063">
   <property name="kdenlive:id">3</property>
  </entry>
  <entry producer="producer21" in="00:04:30.731" out="00:04:38.939">
   <property name="kdenlive:id">3</property>
  </entry>
  <entry producer="producer21" in="00:04:39.106" out="00:04:42.175">
   <property name="kdenlive:id">3</property>
  </entry>
  <entry producer="producer21" in="00:04:43.610" out="00:04:55.923">
   <property name="kdenlive:id">3</property>
   <filter id="filter206" in="00:04:54.955" out="00:04:55.923">
    <property name="window">75</property>
    <property name="max_gain">20dB</property>
    <property name="mlt_service">volume</property>
    <property name="kdenlive_id">fadeout</property>
    <property name="gain">1</property>
    <property name="end">0</property>
    <property name="kdenlive:collapsed">0</property>
   </filter>
  </entry>
  <blank length="00:00:06.840"/>
  <entry producer="producer21" in="00:05:04.404" out="00:07:24.258">
   <property name="kdenlive:id">3</property>
  </entry>
  <entry producer="producer21" in="00:07:37.905" out="00:08:07.774">
   <property name="kdenlive:id">3</property>
  </entry>
  <entry producer="producer21" in="00:08:09.343" out="00:08:55.322">
   <property name="kdenlive:id">3</property>
   <filter id="filter207" in="00:08:55.055" out="00:08:55.322">
    <property name="window">75</property>
    <property name="max_gain">20dB</property>
    <property name="mlt_service">volume</property>
    <property name="kdenlive_id">fadeout</property>
    <property name="gain">1</property>
    <property name="end">0</property>
    <property name="kdenlive:collapsed">0</property>
   </filter>
  </entry>
  <blank length="00:00:23.891"/>
  <entry producer="producer21" in="00:09:25.325" out="00:10:21.188">
   <property name="kdenlive:id">3</property>
   <filter id="filter208" in="00:09:25.325" out="00:09:26.460">
    <property name="window">75</property>
    <property name="max_gain">20dB</property>
    <property name="mlt_service">volume</property>
    <property name="kdenlive_id">fadein</property>
    <property name="gain">0</property>
    <property name="end">1</property>
    <property name="kdenlive:collapsed">0</property>
   </filter>
  </entry>
  <entry producer="producer21" in="00:10:21.755" out="00:10:24.858">
   <property name="kdenlive:id">3</property>
  </entry>
  <entry producer="producer21" in="00:10:25.158" out="00:10:26.426">
   <property name="kdenlive:id">3</property>
  </entry>
  <entry producer="producer21" in="00:10:26.460" out="00:10:27.060">
   <property name="kdenlive:id">3</property>
   <filter id="filter209" in="00:10:26.560" out="00:10:27.060">
    <property name="window">75</property>
    <property name="max_gain">20dB</property>
    <property name="mlt_service">volume</property>
    <property name="kdenlive_id">fadeout</property>
    <property name="gain">1</property>
    <property name="end">0</property>
    <property name="kdenlive:collapsed">0</property>
   </filter>
  </entry>
  <blank length="00:00:02.669"/>
  <entry producer="producer22" in="00:05:18.418" out="00:05:21.154">
   <property name="kdenlive:id">3</property>
   <filter id="filter210">
    <property name="window">75</property>
    <property name="max_gain">20dB</property>
    <property name="mlt_service">volume</property>
    <property name="kdenlive_id">gain</property>
    <property name="gain">0.25</property>
    <property name="kdenlive:collapsed">0</property>
   </filter>
   <filter id="filter211" in="00:05:18.418" out="00:05:19.152">
    <property name="window">75</property>
    <property name="max_gain">20dB</property>
    <property name="mlt_service">volume</property>
    <property name="kdenlive_id">fadein</property>
    <property name="gain">0</property>
    <property name="end">1</property>
    <property name="kdenlive:collapsed">0</property>
   </filter>
  </entry>
  <blank length="00:11:33.400"/>
  <entry producer="producer23" in="00:00:00.000" out="00:00:52.853">
   <property name="kdenlive:id">7</property>
  </entry>
  <entry producer="producer23" in="00:02:19.086" out="00:09:59.026">
   <property name="kdenlive:id">7</property>
  </entry>
  <blank length="00:00:31.565"/>
  <entry producer="producer23" in="00:10:33.467" out="00:11:08.208">
   <property name="kdenlive:id">7</property>
   <filter id="filter212" in="00:10:33.467" out="00:10:34.001">
    <property name="window">75</property>
    <property name="max_gain">20dB</property>
    <property name="mlt_service">volume</property>
    <property name="kdenlive_id">fadein</property>
    <property name="gain">0</property>
    <property name="end">1</property>
    <property name="kdenlive:collapsed">0</property>
   </filter>
  </entry>
  <blank length="00:00:35.335"/>
  <entry producer="producer23" in="00:11:48.448" out="00:11:52.286">
   <property name="kdenlive:id">7</property>
   <filter id="filter213" in="00:11:52.152" out="00:11:52.286">
    <property name="window">75</property>
    <property name="max_gain">20dB</property>
    <property name="mlt_service">volume</property>
    <property name="kdenlive_id">fadeout</property>
    <property name="gain">1</property>
    <property name="end">0</property>
    <property name="kdenlive:collapsed">0</property>
   </filter>
   <filter id="filter214" in="00:11:48.448" out="00:11:48.615">
    <property name="window">75</property>
    <property name="max_gain">20dB</property>
    <property name="mlt_service">volume</property>
    <property name="kdenlive_id">fadein</property>
    <property name="gain">0</property>
    <property name="end">1</property>
    <property name="kdenlive:collapsed">0</property>
   </filter>
  </entry>
  <entry producer="producer23" in="00:11:55.656" out="00:11:56.123">
   <property name="kdenlive:id">7</property>
   <filter id="filter215" in="00:11:55.656" out="00:11:56.156">
    <property name="window">75</property>
    <property name="max_gain">20dB</property>
    <property name="mlt_service">volume</property>
    <property name="kdenlive_id">fadein</property>
    <property name="gain">0</property>
    <property name="end">1</property>
    <property name="kdenlive:collapsed">0</property>
   </filter>
  </entry>
  <blank length="00:02:21.488"/>
  <entry producer="producer23" in="00:14:33.700" out="00:20:22.055">
   <property name="kdenlive:id">7</property>
   <filter id="filter216" in="00:14:33.700" out="00:14:35.235">
    <property name="window">75</property>
    <property name="max_gain">20dB</property>
    <property name="mlt_service">volume</property>
    <property name="kdenlive_id">fadein</property>
    <property name="gain">0</property>
    <property name="end">1</property>
    <property name="kdenlive:collapsed">0</property>
   </filter>
  </entry>
  <entry producer="producer23" in="00:20:24.258" out="00:21:48.215">
   <property name="kdenlive:id">7</property>
   <filter id="filter217" in="00:21:47.748" out="00:21:48.215">
    <property name="window">75</property>
    <property name="max_gain">20dB</property>
    <property name="mlt_service">volume</property>
    <property name="kdenlive_id">fadeout</property>
    <property name="gain">1</property>
    <property name="end">0</property>
    <property name="kdenlive:collapsed">0</property>
   </filter>
  </entry>
  <blank length="00:00:09.643"/>
  <entry producer="producer23" in="00:22:02.603" out="00:22:08.041">
   <property name="kdenlive:id">7</property>
   <filter id="filter218" in="00:22:02.603" out="00:22:03.770">
    <property name="window">75</property>
    <property name="max_gain">20dB</property>
    <property name="mlt_service">volume</property>
    <property name="kdenlive_id">fadein</property>
    <property name="gain">0</property>
    <property name="end">1</property>
    <property name="kdenlive:collapsed">0</property>
   </filter>
   <filter id="filter219" in="00:22:07.307" out="00:22:08.041">
    <property name="window">75</property>
    <property name="max_gain">20dB</property>
    <property name="mlt_service">volume</property>
    <property name="kdenlive_id">fadeout</property>
    <property name="gain">1</property>
    <property name="end">0</property>
    <property name="kdenlive:collapsed">0</property>
   </filter>
  </entry>
  <blank length="00:01:07.975"/>
  <entry producer="producer24" in="00:02:20.220" out="00:03:33.066">
   <property name="kdenlive:id">11</property>
   <filter id="filter220" in="00:03:32.900" out="00:03:33.066">
    <property name="window">75</property>
    <property name="max_gain">20dB</property>
    <property name="mlt_service">volume</property>
    <property name="kdenlive_id">fadeout</property>
    <property name="gain">1</property>
    <property name="end">0</property>
    <property name="kdenlive:collapsed">0</property>
   </filter>
   <filter id="filter221" in="00:02:20.220" out="00:02:20.454">
    <property name="window">75</property>
    <property name="max_gain">20dB</property>
    <property name="mlt_service">volume</property>
    <property name="kdenlive_id">fadein</property>
    <property name="gain">0</property>
    <property name="end">1</property>
    <property name="kdenlive:collapsed">0</property>
   </filter>
  </entry>
  <blank length="00:00:14.581"/>
  <entry producer="producer24" in="00:04:01.602" out="00:06:02.703">
   <property name="kdenlive:id">11</property>
   <filter id="filter222" in="00:04:01.602" out="00:04:02.269">
    <property name="window">75</property>
    <property name="max_gain">20dB</property>
    <property name="mlt_service">volume</property>
    <property name="kdenlive_id">fadein</property>
    <property name="gain">0</property>
    <property name="end">1</property>
    <property name="kdenlive:collapsed">0</property>
   </filter>
  </entry>
  <entry producer="producer24" in="00:06:04.738" out="00:06:11.378">
   <property name="kdenlive:id">11</property>
  </entry>
  <blank length="00:04:14.681"/>
  <entry producer="producer24" in="00:10:29.630" out="00:10:33.467">
   <property name="kdenlive:id">11</property>
   <filter id="filter223" in="00:10:32.332" out="00:10:33.467">
    <property name="window">75</property>
    <property name="max_gain">20dB</property>
    <property name="mlt_service">volume</property>
    <property name="kdenlive_id">fadeout</property>
    <property name="gain">1</property>
    <property name="end">0</property>
    <property name="kdenlive:collapsed">0</property>
   </filter>
   <filter id="filter224" in="00:10:29.630" out="00:10:31.431">
    <property name="window">75</property>
    <property name="max_gain">20dB</property>
    <property name="mlt_service">volume</property>
    <property name="kdenlive_id">fadein</property>
    <property name="gain">0</property>
    <property name="end">1</property>
    <property name="kdenlive:collapsed">0</property>
   </filter>
  </entry>
  <blank length="00:05:57.424"/>
  <entry producer="producer24" in="00:16:59.826" out="00:17:02.736">
   <property name="kdenlive:id">11</property>
   <filter id="filter225" in="00:17:02.169" out="00:17:02.736">
    <property name="window">75</property>
    <property name="max_gain">20dB</property>
    <property name="mlt_service">volume</property>
    <property name="kdenlive_id">fadeout</property>
    <property name="gain">1</property>
    <property name="end">0</property>
    <property name="kdenlive:collapsed">0</property>
   </filter>
   <filter id="filter226" in="00:16:59.826" out="00:17:00.601">
    <property name="window">75</property>
    <property name="max_gain">20dB</property>
    <property name="mlt_service">volume</property>
    <property name="kdenlive_id">fadein</property>
    <property name="gain">0</property>
    <property name="end">1</property>
    <property name="kdenlive:collapsed">0</property>
   </filter>
  </entry>
  <blank length="00:03:16.650"/>
  <entry producer="producer24" in="00:20:16.116" out="00:22:26.527">
   <property name="kdenlive:id">11</property>
   <filter id="filter227" in="00:20:16.116" out="00:20:16.216">
    <property name="window">75</property>
    <property name="max_gain">20dB</property>
    <property name="mlt_service">volume</property>
    <property name="kdenlive_id">fadein</property>
    <property name="gain">0</property>
    <property name="end">1</property>
    <property name="kdenlive:collapsed">0</property>
   </filter>
  </entry>
  <entry producer="producer25" in="00:02:21.188" out="00:02:43.777">
   <property name="kdenlive:id">13</property>
   <filter id="filter228" in="00:02:43.644" out="00:02:43.777">
    <property name="window">75</property>
    <property name="max_gain">20dB</property>
    <property name="mlt_service">volume</property>
    <property name="kdenlive_id">fadeout</property>
    <property name="gain">1</property>
    <property name="end">0</property>
    <property name="kdenlive:collapsed">0</property>
   </filter>
  </entry>
  <blank length="00:00:10.477"/>
  <entry producer="producer25" in="00:03:00.033" out="00:07:18.218">
   <property name="kdenlive:id">13</property>
   <filter id="filter229" in="00:03:00.033" out="00:03:00.267">
    <property name="window">75</property>
    <property name="max_gain">20dB</property>
    <property name="mlt_service">volume</property>
    <property name="kdenlive_id">fadein</property>
    <property name="gain">0</property>
    <property name="end">1</property>
    <property name="kdenlive:collapsed">0</property>
   </filter>
  </entry>
  <blank length="00:00:02.002"/>
  <entry producer="producer25" in="00:07:26.894" out="00:09:46.613">
   <property name="kdenlive:id">13</property>
   <filter id="filter230" in="00:07:26.894" out="00:07:26.960">
    <property name="window">75</property>
    <property name="max_gain">20dB</property>
    <property name="mlt_service">volume</property>
    <property name="kdenlive_id">fadein</property>
    <property name="gain">0</property>
    <property name="end">1</property>
    <property name="kdenlive:collapsed">0</property>
   </filter>
  </entry>
  <entry producer="producer46" in="00:17:40.440" out="00:18:20.854">
   <property name="kdenlive:id">18</property>
   <filter id="filter231" in="00:17:40.440" out="00:17:40.474">
    <property name="window">75</property>
    <property name="max_gain">20dB</property>
    <property name="mlt_service">volume</property>
    <property name="kdenlive_id">fadein</property>
    <property name="gain">0</property>
    <property name="end">1</property>
    <property name="kdenlive:collapsed">0</property>
   </filter>
   <filter id="filter232" in="00:18:20.821" out="00:18:20.854">
    <property name="window">75</property>
    <property name="max_gain">20dB</property>
    <property name="mlt_service">volume</property>
    <property name="kdenlive_id">fadeout</property>
    <property name="gain">1</property>
    <property name="end">0</property>
    <property name="kdenlive:collapsed">0</property>
   </filter>
  </entry>
  <blank length="00:00:10.010"/>
  <entry producer="producer25" in="00:10:02.135" out="00:13:39.773">
   <property name="kdenlive:id">13</property>
   <filter id="filter233" in="00:10:02.135" out="00:10:02.336">
    <property name="window">75</property>
    <property name="max_gain">20dB</property>
    <property name="mlt_service">volume</property>
    <property name="kdenlive_id">fadein</property>
    <property name="gain">0</property>
    <property name="end">1</property>
    <property name="kdenlive:collapsed">0</property>
   </filter>
  </entry>
  <entry producer="producer25" in="00:13:39.806" out="00:13:40.340">
   <property name="kdenlive:id">13</property>
   <filter id="filter234" in="00:13:39.773" out="00:13:40.340">
    <property name="window">75</property>
    <property name="max_gain">20dB</property>
    <property name="mlt_service">volume</property>
    <property name="kdenlive_id">fadeout</property>
    <property name="gain">1</property>
    <property name="end">0</property>
    <property name="kdenlive:collapsed">0</property>
   </filter>
  </entry>
  <blank length="00:00:04.338"/>
  <entry producer="producer25" in="00:13:58.358" out="00:14:02.870">
   <property name="kdenlive:id">13</property>
   <filter id="filter235" in="00:13:58.358" out="00:13:58.559">
    <property name="window">75</property>
    <property name="max_gain">20dB</property>
    <property name="mlt_service">volume</property>
    <property name="kdenlive_id">fadein</property>
    <property name="gain">0</property>
    <property name="end">1</property>
    <property name="kdenlive:collapsed">0</property>
   </filter>
  </entry>
  <entry producer="producer25" in="00:14:03.871" out="00:14:15.382">
   <property name="kdenlive:id">13</property>
  </entry>
  <blank length="00:00:02.703"/>
  <entry producer="producer25" in="00:14:20.988" out="00:14:22.756">
   <property name="kdenlive:id">13</property>
   <filter id="filter236" in="00:14:20.988" out="00:14:22.756">
    <property name="window">75</property>
    <property name="max_gain">20dB</property>
    <property name="mlt_service">volume</property>
    <property name="kdenlive_id">fadein</property>
    <property name="gain">0</property>
    <property name="end">1</property>
    <property name="kdenlive:collapsed">0</property>
   </filter>
  </entry>
  <entry producer="producer25" in="00:14:22.789" out="00:15:01.401">
   <property name="kdenlive:id">13</property>
   <filter id="filter237" in="00:15:00.801" out="00:15:01.401">
    <property name="window">75</property>
    <property name="max_gain">20dB</property>
    <property name="mlt_service">volume</property>
    <property name="kdenlive_id">fadeout</property>
    <property name="gain">1</property>
    <property name="end">0</property>
    <property name="kdenlive:collapsed">0</property>
   </filter>
  </entry>
  <blank length="00:00:03.570"/>
  <entry producer="producer25" in="00:15:17.751" out="00:15:29.229">
   <property name="kdenlive:id">13</property>
   <filter id="filter238" in="00:15:17.751" out="00:15:18.252">
    <property name="window">75</property>
    <property name="max_gain">20dB</property>
    <property name="mlt_service">volume</property>
    <property name="kdenlive_id">fadein</property>
    <property name="gain">0</property>
    <property name="end">1</property>
    <property name="kdenlive:collapsed">0</property>
   </filter>
  </entry>
  <entry producer="producer25" in="00:15:30.130" out="00:17:57.691">
   <property name="kdenlive:id">13</property>
  </entry>
  <entry producer="producer25" in="00:17:57.724" out="00:18:00.200">
   <property name="kdenlive:id">13</property>
   <filter id="filter239" in="00:17:59.259" out="00:18:00.200">
    <property name="window">75</property>
    <property name="max_gain">20dB</property>
    <property name="mlt_service">volume</property>
    <property name="kdenlive_id">fadeout</property>
    <property name="gain">1</property>
    <property name="end">0</property>
    <property name="kdenlive:collapsed">0</property>
   </filter>
  </entry>
 </playlist>
 <playlist id="playlist5">
  <property name="kdenlive:audio_track">1</property>
 </playlist>
 <tractor id="tractor2" in="00:00:00.000" out="01:16:12.079">
  <property name="kdenlive:audio_track">1</property>
  <property name="kdenlive:trackheight">69</property>
  <property name="kdenlive:timeline_active">1</property>
  <property name="kdenlive:collapsed">0</property>
  <property name="kdenlive:thumbs_format"/>
  <property name="kdenlive:audio_rec"/>
  <track hide="video" producer="playlist4"/>
  <track hide="video" producer="playlist5"/>
  <filter id="filter240">
   <property name="window">75</property>
   <property name="max_gain">20dB</property>
   <property name="mlt_service">volume</property>
   <property name="internal_added">237</property>
   <property name="disable">1</property>
  </filter>
  <filter id="filter241">
   <property name="channel">-1</property>
   <property name="mlt_service">panner</property>
   <property name="internal_added">237</property>
   <property name="start">0.5</property>
   <property name="disable">1</property>
  </filter>
  <filter id="filter2">
   <property name="iec_scale">0</property>
   <property name="mlt_service">audiolevel</property>
   <property name="disable">1</property>
  </filter>
 </tractor>
 <producer id="producer47" in="00:00:00.000" out="00:23:55.455">
  <property name="length">43021</property>
  <property name="eof">pause</property>
  <property name="resource">/home/redxherring/Videos/Monster/MP4/Monster 01 - Herr Dr. Tenma [Eng Dub &amp; HD] - YouTube.mp4</property>
  <property name="audio_index">-1</property>
  <property name="video_index">0</property>
  <property name="mute_on_pause">0</property>
  <property name="mlt_service">avformat-novalidate</property>
  <property name="seekable">1</property>
  <property name="aspect_ratio">1</property>
  <property name="kdenlive:clipname"/>
  <property name="kdenlive:folderid">-1</property>
  <property name="kdenlive:id">2</property>
  <property name="kdenlive:file_size">164299745</property>
  <property name="kdenlive:file_hash">8a379c0f3f53e9f53e45b408e73eb9f3</property>
  <property name="global_feed">1</property>
  <property name="xml">was here</property>
  <property name="meta.media.nb_streams">1</property>
  <property name="meta.media.0.stream.type">video</property>
  <property name="meta.media.0.stream.frame_rate">29.97</property>
  <property name="meta.media.0.stream.sample_aspect_ratio">1</property>
  <property name="meta.media.0.codec.width">960</property>
  <property name="meta.media.0.codec.height">720</property>
  <property name="meta.media.0.codec.rotate">0</property>
  <property name="meta.media.0.codec.frame_rate">29.97</property>
  <property name="meta.media.0.codec.pix_fmt">yuv420p</property>
  <property name="meta.media.0.codec.sample_aspect_ratio">1</property>
  <property name="meta.media.0.codec.colorspace">709</property>
  <property name="meta.media.0.codec.color_trc">1</property>
  <property name="meta.media.0.codec.name">h264</property>
  <property name="meta.media.0.codec.long_name">H.264 / AVC / MPEG-4 AVC / MPEG-4 part 10</property>
  <property name="meta.media.0.codec.bit_rate">911741</property>
  <property name="meta.attr.0.stream.handler_name.markup">ISO Media file produced by Google Inc.</property>
  <property name="meta.attr.0.stream.vendor_id.markup">[0][0][0][0]</property>
  <property name="meta.attr.major_brand.markup">isom</property>
  <property name="meta.attr.minor_version.markup">512</property>
  <property name="meta.attr.compatible_brands.markup">isomiso2avc1mp41</property>
  <property name="meta.attr.encoder.markup">Lavf58.76.100</property>
  <property name="meta.media.sample_aspect_num">1</property>
  <property name="meta.media.sample_aspect_den">1</property>
  <property name="meta.media.frame_rate_num">344168000</property>
  <property name="meta.media.frame_rate_den">11483739</property>
  <property name="meta.media.colorspace">709</property>
  <property name="meta.media.color_trc">1</property>
  <property name="meta.media.width">960</property>
  <property name="meta.media.height">720</property>
  <property name="meta.media.color_range">mpeg</property>
  <property name="meta.media.top_field_first">0</property>
  <property name="meta.media.progressive">1</property>
  <property name="set.test_audio">1</property>
  <property name="set.test_image">0</property>
  <property name="meta.media.has_b_frames">1</property>
 </producer>
 <producer id="producer48" in="00:00:00.000" out="00:19:09.843">
  <property name="length">34461</property>
  <property name="eof">pause</property>
  <property name="resource">1.248400:/home/redxherring/Videos/Monster/MP4/Monster 01 - Herr Dr. Tenma [Eng Dub &amp; HD] - YouTube.mp4</property>
  <property name="aspect_ratio">1</property>
  <property name="meta.media.nb_streams">1</property>
  <property name="meta.media.0.stream.type">video</property>
  <property name="meta.media.0.stream.frame_rate">29.97</property>
  <property name="meta.media.0.stream.sample_aspect_ratio">1</property>
  <property name="meta.media.0.codec.width">960</property>
  <property name="meta.media.0.codec.height">720</property>
  <property name="meta.media.0.codec.rotate">0</property>
  <property name="meta.media.0.codec.pix_fmt">yuv420p</property>
  <property name="meta.media.0.codec.sample_aspect_ratio">1</property>
  <property name="meta.media.0.codec.colorspace">709</property>
  <property name="meta.media.0.codec.color_trc">1</property>
  <property name="meta.media.0.codec.name">h264</property>
  <property name="meta.media.0.codec.long_name">H.264 / AVC / MPEG-4 AVC / MPEG-4 part 10</property>
  <property name="meta.media.0.codec.bit_rate">911741</property>
  <property name="meta.attr.0.stream.handler_name.markup">ISO Media file produced by Google Inc.</property>
  <property name="meta.attr.0.stream.vendor_id.markup">[0][0][0][0]</property>
  <property name="meta.attr.major_brand.markup">isom</property>
  <property name="meta.attr.minor_version.markup">512</property>
  <property name="meta.attr.compatible_brands.markup">isomiso2avc1mp41</property>
  <property name="meta.attr.encoder.markup">Lavf58.76.100</property>
  <property name="seekable">1</property>
  <property name="meta.media.sample_aspect_num">1</property>
  <property name="meta.media.sample_aspect_den">1</property>
  <property name="audio_index">-1</property>
  <property name="video_index">0</property>
  <property name="mute_on_pause">1</property>
  <property name="warp_speed">1.2484</property>
  <property name="warp_resource">/home/redxherring/Videos/Monster/MP4/Monster 01 - Herr Dr. Tenma [Eng Dub &amp; HD] - YouTube.mp4</property>
  <property name="mlt_service">timewarp</property>
  <property name="set.test_audio">1</property>
  <property name="set.test_image">0</property>
  <property name="kdenlive:id">2</property>
  <property name="warp_pitch">0</property>
  <property name="meta.media.frame_rate_num">344168000</property>
  <property name="meta.media.frame_rate_den">11483739</property>
  <property name="meta.media.colorspace">709</property>
  <property name="meta.media.color_trc">1</property>
  <property name="meta.media.has_b_frames">1</property>
  <property name="meta.media.width">960</property>
  <property name="meta.media.height">720</property>
  <property name="meta.media.color_range">mpeg</property>
  <property name="meta.media.top_field_first">0</property>
  <property name="meta.media.progressive">1</property>
 </producer>
 <producer id="producer49" in="00:00:00.000" out="00:11:57.724">
  <property name="length">21511</property>
  <property name="eof">pause</property>
  <property name="resource">2.000000:/home/redxherring/Videos/Monster/MP4/Monster 01 - Herr Dr. Tenma [Eng Dub &amp; HD] - YouTube.mp4</property>
  <property name="aspect_ratio">1</property>
  <property name="meta.media.nb_streams">1</property>
  <property name="meta.media.0.stream.type">video</property>
  <property name="meta.media.0.stream.frame_rate">29.97</property>
  <property name="meta.media.0.stream.sample_aspect_ratio">1</property>
  <property name="meta.media.0.codec.width">960</property>
  <property name="meta.media.0.codec.height">720</property>
  <property name="meta.media.0.codec.rotate">0</property>
  <property name="meta.media.0.codec.pix_fmt">yuv420p</property>
  <property name="meta.media.0.codec.sample_aspect_ratio">1</property>
  <property name="meta.media.0.codec.colorspace">709</property>
  <property name="meta.media.0.codec.color_trc">1</property>
  <property name="meta.media.0.codec.name">h264</property>
  <property name="meta.media.0.codec.long_name">H.264 / AVC / MPEG-4 AVC / MPEG-4 part 10</property>
  <property name="meta.media.0.codec.bit_rate">911741</property>
  <property name="meta.attr.0.stream.handler_name.markup">ISO Media file produced by Google Inc.</property>
  <property name="meta.attr.0.stream.vendor_id.markup">[0][0][0][0]</property>
  <property name="meta.attr.major_brand.markup">isom</property>
  <property name="meta.attr.minor_version.markup">512</property>
  <property name="meta.attr.compatible_brands.markup">isomiso2avc1mp41</property>
  <property name="meta.attr.encoder.markup">Lavf58.76.100</property>
  <property name="seekable">1</property>
  <property name="meta.media.sample_aspect_num">1</property>
  <property name="meta.media.sample_aspect_den">1</property>
  <property name="audio_index">-1</property>
  <property name="video_index">0</property>
  <property name="mute_on_pause">1</property>
  <property name="warp_speed">2</property>
  <property name="warp_resource">/home/redxherring/Videos/Monster/MP4/Monster 01 - Herr Dr. Tenma [Eng Dub &amp; HD] - YouTube.mp4</property>
  <property name="mlt_service">timewarp</property>
  <property name="set.test_audio">1</property>
  <property name="set.test_image">0</property>
  <property name="kdenlive:id">2</property>
  <property name="warp_pitch">0</property>
  <property name="meta.media.frame_rate_num">344168000</property>
  <property name="meta.media.frame_rate_den">11483739</property>
  <property name="meta.media.colorspace">709</property>
  <property name="meta.media.color_trc">1</property>
  <property name="meta.media.has_b_frames">1</property>
  <property name="meta.media.width">960</property>
  <property name="meta.media.height">720</property>
  <property name="meta.media.color_range">mpeg</property>
  <property name="meta.media.top_field_first">0</property>
  <property name="meta.media.progressive">1</property>
 </producer>
 <producer id="producer50" in="00:00:00.000" out="00:23:55.522">
  <property name="length">43023</property>
  <property name="eof">pause</property>
  <property name="resource">/home/redxherring/Videos/Monster/MP4/Monster 02 - Downfall [Eng Dub &amp; HD] - YouTube.mp4</property>
  <property name="audio_index">-1</property>
  <property name="video_index">0</property>
  <property name="mute_on_pause">0</property>
  <property name="mlt_service">avformat-novalidate</property>
  <property name="seekable">1</property>
  <property name="aspect_ratio">1</property>
  <property name="kdenlive:clipname"/>
  <property name="kdenlive:folderid">-1</property>
  <property name="kdenlive:id">6</property>
  <property name="kdenlive:file_size">157897575</property>
  <property name="kdenlive:file_hash">3ac9237e9de2e76f2e7e851f681b4dbe</property>
  <property name="global_feed">1</property>
  <property name="xml">was here</property>
  <property name="meta.media.nb_streams">1</property>
  <property name="meta.media.0.stream.type">video</property>
  <property name="meta.media.0.stream.frame_rate">29.97</property>
  <property name="meta.media.0.stream.sample_aspect_ratio">1</property>
  <property name="meta.media.0.codec.width">960</property>
  <property name="meta.media.0.codec.height">720</property>
  <property name="meta.media.0.codec.rotate">0</property>
  <property name="meta.media.0.codec.frame_rate">29.97</property>
  <property name="meta.media.0.codec.pix_fmt">yuv420p</property>
  <property name="meta.media.0.codec.sample_aspect_ratio">1</property>
  <property name="meta.media.0.codec.colorspace">709</property>
  <property name="meta.media.0.codec.color_trc">1</property>
  <property name="meta.media.0.codec.name">h264</property>
  <property name="meta.media.0.codec.long_name">H.264 / AVC / MPEG-4 AVC / MPEG-4 part 10</property>
  <property name="meta.media.0.codec.bit_rate">875993</property>
  <property name="meta.attr.0.stream.handler_name.markup">ISO Media file produced by Google Inc.</property>
  <property name="meta.attr.0.stream.vendor_id.markup">[0][0][0][0]</property>
  <property name="meta.attr.major_brand.markup">isom</property>
  <property name="meta.attr.minor_version.markup">512</property>
  <property name="meta.attr.compatible_brands.markup">isomiso2avc1mp41</property>
  <property name="meta.attr.encoder.markup">Lavf58.76.100</property>
  <property name="meta.media.sample_aspect_num">1</property>
  <property name="meta.media.sample_aspect_den">1</property>
  <property name="meta.media.frame_rate_num">114728000</property>
  <property name="meta.media.frame_rate_den">3828089</property>
  <property name="meta.media.colorspace">709</property>
  <property name="meta.media.color_trc">1</property>
  <property name="meta.media.width">960</property>
  <property name="meta.media.height">720</property>
  <property name="meta.media.color_range">mpeg</property>
  <property name="meta.media.top_field_first">0</property>
  <property name="meta.media.progressive">1</property>
  <property name="set.test_audio">1</property>
  <property name="set.test_image">0</property>
  <property name="meta.media.has_b_frames">1</property>
 </producer>
 <producer id="producer51" in="00:00:00.000" out="00:10:02.536">
  <property name="length">18059</property>
  <property name="eof">pause</property>
  <property name="resource">2.382400:/home/redxherring/Videos/Monster/MP4/Monster 02 - Downfall [Eng Dub &amp; HD] - YouTube.mp4</property>
  <property name="aspect_ratio">1</property>
  <property name="meta.media.nb_streams">1</property>
  <property name="meta.media.0.stream.type">video</property>
  <property name="meta.media.0.stream.frame_rate">29.97</property>
  <property name="meta.media.0.stream.sample_aspect_ratio">1</property>
  <property name="meta.media.0.codec.width">960</property>
  <property name="meta.media.0.codec.height">720</property>
  <property name="meta.media.0.codec.rotate">0</property>
  <property name="meta.media.0.codec.pix_fmt">yuv420p</property>
  <property name="meta.media.0.codec.sample_aspect_ratio">1</property>
  <property name="meta.media.0.codec.colorspace">709</property>
  <property name="meta.media.0.codec.color_trc">1</property>
  <property name="meta.media.0.codec.name">h264</property>
  <property name="meta.media.0.codec.long_name">H.264 / AVC / MPEG-4 AVC / MPEG-4 part 10</property>
  <property name="meta.media.0.codec.bit_rate">875993</property>
  <property name="meta.attr.0.stream.handler_name.markup">ISO Media file produced by Google Inc.</property>
  <property name="meta.attr.0.stream.vendor_id.markup">[0][0][0][0]</property>
  <property name="meta.attr.major_brand.markup">isom</property>
  <property name="meta.attr.minor_version.markup">512</property>
  <property name="meta.attr.compatible_brands.markup">isomiso2avc1mp41</property>
  <property name="meta.attr.encoder.markup">Lavf58.76.100</property>
  <property name="seekable">1</property>
  <property name="meta.media.sample_aspect_num">1</property>
  <property name="meta.media.sample_aspect_den">1</property>
  <property name="audio_index">-1</property>
  <property name="video_index">0</property>
  <property name="mute_on_pause">1</property>
  <property name="warp_speed">2.3824</property>
  <property name="warp_resource">/home/redxherring/Videos/Monster/MP4/Monster 02 - Downfall [Eng Dub &amp; HD] - YouTube.mp4</property>
  <property name="mlt_service">timewarp</property>
  <property name="set.test_audio">1</property>
  <property name="set.test_image">0</property>
  <property name="kdenlive:id">6</property>
  <property name="warp_pitch">0</property>
  <property name="meta.media.frame_rate_num">114728000</property>
  <property name="meta.media.frame_rate_den">3828089</property>
  <property name="meta.media.colorspace">709</property>
  <property name="meta.media.color_trc">1</property>
  <property name="meta.media.has_b_frames">1</property>
  <property name="meta.media.width">960</property>
  <property name="meta.media.height">720</property>
  <property name="meta.media.color_range">mpeg</property>
  <property name="meta.media.top_field_first">0</property>
  <property name="meta.media.progressive">1</property>
 </producer>
 <producer id="producer52" in="00:00:00.000" out="00:03:59.259">
  <property name="length">7171</property>
  <property name="eof">pause</property>
  <property name="resource">6.000000:/home/redxherring/Videos/Monster/MP4/Monster 02 - Downfall [Eng Dub &amp; HD] - YouTube.mp4</property>
  <property name="aspect_ratio">1</property>
  <property name="meta.media.nb_streams">1</property>
  <property name="meta.media.0.stream.type">video</property>
  <property name="meta.media.0.stream.frame_rate">29.97</property>
  <property name="meta.media.0.stream.sample_aspect_ratio">1</property>
  <property name="meta.media.0.codec.width">960</property>
  <property name="meta.media.0.codec.height">720</property>
  <property name="meta.media.0.codec.rotate">0</property>
  <property name="meta.media.0.codec.pix_fmt">yuv420p</property>
  <property name="meta.media.0.codec.sample_aspect_ratio">1</property>
  <property name="meta.media.0.codec.colorspace">709</property>
  <property name="meta.media.0.codec.color_trc">1</property>
  <property name="meta.media.0.codec.name">h264</property>
  <property name="meta.media.0.codec.long_name">H.264 / AVC / MPEG-4 AVC / MPEG-4 part 10</property>
  <property name="meta.media.0.codec.bit_rate">875993</property>
  <property name="meta.attr.0.stream.handler_name.markup">ISO Media file produced by Google Inc.</property>
  <property name="meta.attr.0.stream.vendor_id.markup">[0][0][0][0]</property>
  <property name="meta.attr.major_brand.markup">isom</property>
  <property name="meta.attr.minor_version.markup">512</property>
  <property name="meta.attr.compatible_brands.markup">isomiso2avc1mp41</property>
  <property name="meta.attr.encoder.markup">Lavf58.76.100</property>
  <property name="seekable">1</property>
  <property name="meta.media.sample_aspect_num">1</property>
  <property name="meta.media.sample_aspect_den">1</property>
  <property name="audio_index">-1</property>
  <property name="video_index">0</property>
  <property name="mute_on_pause">1</property>
  <property name="warp_speed">6</property>
  <property name="warp_resource">/home/redxherring/Videos/Monster/MP4/Monster 02 - Downfall [Eng Dub &amp; HD] - YouTube.mp4</property>
  <property name="mlt_service">timewarp</property>
  <property name="set.test_audio">1</property>
  <property name="set.test_image">0</property>
  <property name="kdenlive:id">6</property>
  <property name="warp_pitch">0</property>
  <property name="meta.media.frame_rate_num">114728000</property>
  <property name="meta.media.frame_rate_den">3828089</property>
  <property name="meta.media.colorspace">709</property>
  <property name="meta.media.color_trc">1</property>
  <property name="meta.media.has_b_frames">1</property>
  <property name="meta.media.width">960</property>
  <property name="meta.media.height">720</property>
  <property name="meta.media.color_range">mpeg</property>
  <property name="meta.media.top_field_first">0</property>
  <property name="meta.media.progressive">1</property>
 </producer>
 <producer id="producer53" in="00:00:00.000" out="00:09:34.201">
  <property name="length">17209</property>
  <property name="eof">pause</property>
  <property name="resource">2.500000:/home/redxherring/Videos/Monster/MP4/Monster 02 - Downfall [Eng Dub &amp; HD] - YouTube.mp4</property>
  <property name="aspect_ratio">1</property>
  <property name="meta.media.nb_streams">1</property>
  <property name="meta.media.0.stream.type">video</property>
  <property name="meta.media.0.stream.frame_rate">29.97</property>
  <property name="meta.media.0.stream.sample_aspect_ratio">1</property>
  <property name="meta.media.0.codec.width">960</property>
  <property name="meta.media.0.codec.height">720</property>
  <property name="meta.media.0.codec.rotate">0</property>
  <property name="meta.media.0.codec.pix_fmt">yuv420p</property>
  <property name="meta.media.0.codec.sample_aspect_ratio">1</property>
  <property name="meta.media.0.codec.colorspace">709</property>
  <property name="meta.media.0.codec.color_trc">1</property>
  <property name="meta.media.0.codec.name">h264</property>
  <property name="meta.media.0.codec.long_name">H.264 / AVC / MPEG-4 AVC / MPEG-4 part 10</property>
  <property name="meta.media.0.codec.bit_rate">875993</property>
  <property name="meta.attr.0.stream.handler_name.markup">ISO Media file produced by Google Inc.</property>
  <property name="meta.attr.0.stream.vendor_id.markup">[0][0][0][0]</property>
  <property name="meta.attr.major_brand.markup">isom</property>
  <property name="meta.attr.minor_version.markup">512</property>
  <property name="meta.attr.compatible_brands.markup">isomiso2avc1mp41</property>
  <property name="meta.attr.encoder.markup">Lavf58.76.100</property>
  <property name="seekable">1</property>
  <property name="meta.media.sample_aspect_num">1</property>
  <property name="meta.media.sample_aspect_den">1</property>
  <property name="audio_index">-1</property>
  <property name="video_index">0</property>
  <property name="mute_on_pause">1</property>
  <property name="warp_speed">2.5</property>
  <property name="warp_resource">/home/redxherring/Videos/Monster/MP4/Monster 02 - Downfall [Eng Dub &amp; HD] - YouTube.mp4</property>
  <property name="mlt_service">timewarp</property>
  <property name="set.test_audio">1</property>
  <property name="set.test_image">0</property>
  <property name="kdenlive:id">6</property>
  <property name="warp_pitch">0</property>
  <property name="meta.media.frame_rate_num">114728000</property>
  <property name="meta.media.frame_rate_den">3828089</property>
  <property name="meta.media.colorspace">709</property>
  <property name="meta.media.color_trc">1</property>
  <property name="meta.media.has_b_frames">1</property>
  <property name="meta.media.width">960</property>
  <property name="meta.media.height">720</property>
  <property name="meta.media.color_range">mpeg</property>
  <property name="meta.media.top_field_first">0</property>
  <property name="meta.media.progressive">1</property>
 </producer>
 <producer id="producer54" in="00:00:00.000" out="00:23:55.522">
  <property name="length">43023</property>
  <property name="eof">pause</property>
  <property name="resource">/home/redxherring/Videos/Monster/MP4/Monster 03 - A Murder [Eng Dub &amp; HD] - YouTube.mp4</property>
  <property name="audio_index">-1</property>
  <property name="video_index">0</property>
  <property name="mute_on_pause">0</property>
  <property name="mlt_service">avformat-novalidate</property>
  <property name="seekable">1</property>
  <property name="aspect_ratio">1</property>
  <property name="kdenlive:clipname"/>
  <property name="kdenlive:folderid">-1</property>
  <property name="kdenlive:id">9</property>
  <property name="kdenlive:file_size">164451811</property>
  <property name="kdenlive:file_hash">a0749fa611d82589353d299c58b882b5</property>
  <property name="global_feed">1</property>
  <property name="xml">was here</property>
  <property name="meta.media.nb_streams">1</property>
  <property name="meta.media.0.stream.type">video</property>
  <property name="meta.media.0.stream.frame_rate">29.97</property>
  <property name="meta.media.0.stream.sample_aspect_ratio">1</property>
  <property name="meta.media.0.codec.width">960</property>
  <property name="meta.media.0.codec.height">720</property>
  <property name="meta.media.0.codec.rotate">0</property>
  <property name="meta.media.0.codec.frame_rate">29.97</property>
  <property name="meta.media.0.codec.pix_fmt">yuv420p</property>
  <property name="meta.media.0.codec.sample_aspect_ratio">1</property>
  <property name="meta.media.0.codec.colorspace">709</property>
  <property name="meta.media.0.codec.color_trc">1</property>
  <property name="meta.media.0.codec.name">h264</property>
  <property name="meta.media.0.codec.long_name">H.264 / AVC / MPEG-4 AVC / MPEG-4 part 10</property>
  <property name="meta.media.0.codec.bit_rate">912508</property>
  <property name="meta.attr.0.stream.handler_name.markup">ISO Media file produced by Google Inc.</property>
  <property name="meta.attr.0.stream.vendor_id.markup">[0][0][0][0]</property>
  <property name="meta.attr.major_brand.markup">isom</property>
  <property name="meta.attr.minor_version.markup">512</property>
  <property name="meta.attr.compatible_brands.markup">isomiso2avc1mp41</property>
  <property name="meta.attr.encoder.markup">Lavf58.76.100</property>
  <property name="meta.media.sample_aspect_num">1</property>
  <property name="meta.media.sample_aspect_den">1</property>
  <property name="meta.media.frame_rate_num">114728000</property>
  <property name="meta.media.frame_rate_den">3828089</property>
  <property name="meta.media.colorspace">709</property>
  <property name="meta.media.color_trc">1</property>
  <property name="meta.media.width">960</property>
  <property name="meta.media.height">720</property>
  <property name="meta.media.color_range">mpeg</property>
  <property name="meta.media.top_field_first">0</property>
  <property name="meta.media.progressive">1</property>
  <property name="set.test_audio">1</property>
  <property name="set.test_image">0</property>
  <property name="meta.media.has_b_frames">1</property>
 </producer>
 <producer id="producer55" in="00:00:00.000" out="00:11:57.758">
  <property name="length">21512</property>
  <property name="eof">pause</property>
  <property name="resource">2.000000:/home/redxherring/Videos/Monster/MP4/Monster 03 - A Murder [Eng Dub &amp; HD] - YouTube.mp4</property>
  <property name="aspect_ratio">1</property>
  <property name="meta.media.nb_streams">1</property>
  <property name="meta.media.0.stream.type">video</property>
  <property name="meta.media.0.stream.frame_rate">29.97</property>
  <property name="meta.media.0.stream.sample_aspect_ratio">1</property>
  <property name="meta.media.0.codec.width">960</property>
  <property name="meta.media.0.codec.height">720</property>
  <property name="meta.media.0.codec.rotate">0</property>
  <property name="meta.media.0.codec.pix_fmt">yuv420p</property>
  <property name="meta.media.0.codec.sample_aspect_ratio">1</property>
  <property name="meta.media.0.codec.colorspace">709</property>
  <property name="meta.media.0.codec.color_trc">1</property>
  <property name="meta.media.0.codec.name">h264</property>
  <property name="meta.media.0.codec.long_name">H.264 / AVC / MPEG-4 AVC / MPEG-4 part 10</property>
  <property name="meta.media.0.codec.bit_rate">912508</property>
  <property name="meta.attr.0.stream.handler_name.markup">ISO Media file produced by Google Inc.</property>
  <property name="meta.attr.0.stream.vendor_id.markup">[0][0][0][0]</property>
  <property name="meta.attr.major_brand.markup">isom</property>
  <property name="meta.attr.minor_version.markup">512</property>
  <property name="meta.attr.compatible_brands.markup">isomiso2avc1mp41</property>
  <property name="meta.attr.encoder.markup">Lavf58.76.100</property>
  <property name="seekable">1</property>
  <property name="meta.media.sample_aspect_num">1</property>
  <property name="meta.media.sample_aspect_den">1</property>
  <property name="audio_index">-1</property>
  <property name="video_index">0</property>
  <property name="mute_on_pause">1</property>
  <property name="warp_speed">2</property>
  <property name="warp_resource">/home/redxherring/Videos/Monster/MP4/Monster 03 - A Murder [Eng Dub &amp; HD] - YouTube.mp4</property>
  <property name="mlt_service">timewarp</property>
  <property name="set.test_audio">1</property>
  <property name="set.test_image">0</property>
  <property name="kdenlive:id">9</property>
  <property name="warp_pitch">0</property>
  <property name="meta.media.frame_rate_num">114728000</property>
  <property name="meta.media.frame_rate_den">3828089</property>
  <property name="meta.media.colorspace">709</property>
  <property name="meta.media.color_trc">1</property>
  <property name="meta.media.has_b_frames">1</property>
  <property name="meta.media.width">960</property>
  <property name="meta.media.height">720</property>
  <property name="meta.media.color_range">mpeg</property>
  <property name="meta.media.top_field_first">0</property>
  <property name="meta.media.progressive">1</property>
 </producer>
 <producer id="producer56" in="00:00:00.000" out="00:23:55.455">
  <property name="length">43021</property>
  <property name="eof">pause</property>
  <property name="resource">/home/redxherring/Videos/Monster/MP4/Monster 04 - Night of the Execution [Eng Dub &amp; HD] - YouTube.mp4</property>
  <property name="audio_index">-1</property>
  <property name="video_index">0</property>
  <property name="mute_on_pause">0</property>
  <property name="mlt_service">avformat-novalidate</property>
  <property name="seekable">1</property>
  <property name="aspect_ratio">1</property>
  <property name="kdenlive:clipname"/>
  <property name="kdenlive:folderid">-1</property>
  <property name="kdenlive:id">10</property>
  <property name="kdenlive:file_size">152396189</property>
  <property name="kdenlive:file_hash">dea826dc8d1afc00b5a44bf6bbb2c8a1</property>
  <property name="global_feed">1</property>
  <property name="xml">was here</property>
  <property name="meta.media.nb_streams">1</property>
  <property name="meta.media.0.stream.type">video</property>
  <property name="meta.media.0.stream.frame_rate">29.97</property>
  <property name="meta.media.0.stream.sample_aspect_ratio">1</property>
  <property name="meta.media.0.codec.width">960</property>
  <property name="meta.media.0.codec.height">720</property>
  <property name="meta.media.0.codec.rotate">0</property>
  <property name="meta.media.0.codec.frame_rate">29.97</property>
  <property name="meta.media.0.codec.pix_fmt">yuv420p</property>
  <property name="meta.media.0.codec.sample_aspect_ratio">1</property>
  <property name="meta.media.0.codec.colorspace">709</property>
  <property name="meta.media.0.codec.color_trc">1</property>
  <property name="meta.media.0.codec.name">h264</property>
  <property name="meta.media.0.codec.long_name">H.264 / AVC / MPEG-4 AVC / MPEG-4 part 10</property>
  <property name="meta.media.0.codec.bit_rate">845415</property>
  <property name="meta.attr.0.stream.handler_name.markup">ISO Media file produced by Google Inc.</property>
  <property name="meta.attr.0.stream.vendor_id.markup">[0][0][0][0]</property>
  <property name="meta.attr.major_brand.markup">isom</property>
  <property name="meta.attr.minor_version.markup">512</property>
  <property name="meta.attr.compatible_brands.markup">isomiso2avc1mp41</property>
  <property name="meta.attr.encoder.markup">Lavf58.76.100</property>
  <property name="meta.media.sample_aspect_num">1</property>
  <property name="meta.media.sample_aspect_den">1</property>
  <property name="meta.media.frame_rate_num">344168000</property>
  <property name="meta.media.frame_rate_den">11483739</property>
  <property name="meta.media.colorspace">709</property>
  <property name="meta.media.color_trc">1</property>
  <property name="meta.media.width">960</property>
  <property name="meta.media.height">720</property>
  <property name="meta.media.color_range">mpeg</property>
  <property name="meta.media.top_field_first">0</property>
  <property name="meta.media.progressive">1</property>
  <property name="set.test_audio">1</property>
  <property name="set.test_image">0</property>
  <property name="meta.media.has_b_frames">1</property>
 </producer>
 <producer id="producer57" in="00:00:00.000" out="00:23:55.589">
  <property name="length">43025</property>
  <property name="eof">pause</property>
  <property name="resource">/home/redxherring/Videos/Monster/MP4/Monster 23 - Eva's Confession [Eng Dub &amp; HD] - YouTube.mp4</property>
  <property name="audio_index">0</property>
  <property name="video_index">0</property>
  <property name="mute_on_pause">0</property>
  <property name="mlt_service">avformat-novalidate</property>
  <property name="seekable">1</property>
  <property name="aspect_ratio">1</property>
  <property name="kdenlive:clipname"/>
  <property name="kdenlive:id">15</property>
  <property name="kdenlive:file_size">169016183</property>
  <property name="kdenlive:file_hash">d092b039d210e8a79bf6df4335802032</property>
  <property name="kdenlive:folderid">16</property>
  <property name="global_feed">1</property>
  <property name="xml">was here</property>
  <property name="meta.media.nb_streams">1</property>
  <property name="meta.media.0.stream.type">video</property>
  <property name="meta.media.0.stream.frame_rate">29.97</property>
  <property name="meta.media.0.stream.sample_aspect_ratio">1</property>
  <property name="meta.media.0.codec.width">960</property>
  <property name="meta.media.0.codec.height">720</property>
  <property name="meta.media.0.codec.rotate">0</property>
  <property name="meta.media.0.codec.frame_rate">29.97</property>
  <property name="meta.media.0.codec.pix_fmt">yuv420p</property>
  <property name="meta.media.0.codec.sample_aspect_ratio">1</property>
  <property name="meta.media.0.codec.colorspace">709</property>
  <property name="meta.media.0.codec.color_trc">1</property>
  <property name="meta.media.0.codec.name">h264</property>
  <property name="meta.media.0.codec.long_name">H.264 / AVC / MPEG-4 AVC / MPEG-4 part 10</property>
  <property name="meta.media.0.codec.bit_rate">937960</property>
  <property name="meta.attr.0.stream.handler_name.markup">ISO Media file produced by Google Inc.</property>
  <property name="meta.attr.0.stream.vendor_id.markup">[0][0][0][0]</property>
  <property name="meta.attr.major_brand.markup">isom</property>
  <property name="meta.attr.minor_version.markup">512</property>
  <property name="meta.attr.compatible_brands.markup">isomiso2avc1mp41</property>
  <property name="meta.attr.encoder.markup">Lavf58.76.100</property>
  <property name="meta.media.sample_aspect_num">1</property>
  <property name="meta.media.sample_aspect_den">1</property>
  <property name="meta.media.frame_rate_num">344200000</property>
  <property name="meta.media.frame_rate_den">11484803</property>
  <property name="meta.media.colorspace">709</property>
  <property name="meta.media.color_trc">1</property>
  <property name="meta.media.width">960</property>
  <property name="meta.media.height">720</property>
  <property name="meta.media.color_range">mpeg</property>
  <property name="set.test_audio">1</property>
  <property name="set.test_image">0</property>
  <property name="meta.media.top_field_first">0</property>
  <property name="meta.media.progressive">1</property>
  <property name="meta.media.has_b_frames">1</property>
 </producer>
 <producer id="producer58" in="00:00:00.000" out="00:11:57.724">
  <property name="length">21511</property>
  <property name="eof">pause</property>
  <property name="resource">2.000000:/home/redxherring/Videos/Monster/MP4/Monster 04 - Night of the Execution [Eng Dub &amp; HD] - YouTube.mp4</property>
  <property name="aspect_ratio">1</property>
  <property name="meta.media.nb_streams">1</property>
  <property name="meta.media.0.stream.type">video</property>
  <property name="meta.media.0.stream.frame_rate">29.97</property>
  <property name="meta.media.0.stream.sample_aspect_ratio">1</property>
  <property name="meta.media.0.codec.width">960</property>
  <property name="meta.media.0.codec.height">720</property>
  <property name="meta.media.0.codec.rotate">0</property>
  <property name="meta.media.0.codec.pix_fmt">yuv420p</property>
  <property name="meta.media.0.codec.sample_aspect_ratio">1</property>
  <property name="meta.media.0.codec.colorspace">709</property>
  <property name="meta.media.0.codec.color_trc">1</property>
  <property name="meta.media.0.codec.name">h264</property>
  <property name="meta.media.0.codec.long_name">H.264 / AVC / MPEG-4 AVC / MPEG-4 part 10</property>
  <property name="meta.media.0.codec.bit_rate">845415</property>
  <property name="meta.attr.0.stream.handler_name.markup">ISO Media file produced by Google Inc.</property>
  <property name="meta.attr.0.stream.vendor_id.markup">[0][0][0][0]</property>
  <property name="meta.attr.major_brand.markup">isom</property>
  <property name="meta.attr.minor_version.markup">512</property>
  <property name="meta.attr.compatible_brands.markup">isomiso2avc1mp41</property>
  <property name="meta.attr.encoder.markup">Lavf58.76.100</property>
  <property name="seekable">1</property>
  <property name="meta.media.sample_aspect_num">1</property>
  <property name="meta.media.sample_aspect_den">1</property>
  <property name="audio_index">-1</property>
  <property name="video_index">0</property>
  <property name="mute_on_pause">1</property>
  <property name="warp_speed">2</property>
  <property name="warp_resource">/home/redxherring/Videos/Monster/MP4/Monster 04 - Night of the Execution [Eng Dub &amp; HD] - YouTube.mp4</property>
  <property name="mlt_service">timewarp</property>
  <property name="set.test_audio">1</property>
  <property name="set.test_image">0</property>
  <property name="kdenlive:id">10</property>
  <property name="warp_pitch">0</property>
  <property name="meta.media.frame_rate_num">344168000</property>
  <property name="meta.media.frame_rate_den">11483739</property>
  <property name="meta.media.colorspace">709</property>
  <property name="meta.media.color_trc">1</property>
  <property name="meta.media.has_b_frames">1</property>
  <property name="meta.media.width">960</property>
  <property name="meta.media.height">720</property>
  <property name="meta.media.color_range">mpeg</property>
  <property name="meta.media.top_field_first">0</property>
  <property name="meta.media.progressive">1</property>
 </producer>
 <producer id="producer59" in="00:00:00.000" out="00:11:57.724">
  <property name="length">21511</property>
  <property name="eof">pause</property>
  <property name="resource">2.000000:/home/redxherring/Videos/Monster/MP4/Monster 04 - Night of the Execution [Eng Dub &amp; HD] - YouTube.mp4</property>
  <property name="aspect_ratio">1</property>
  <property name="meta.media.nb_streams">1</property>
  <property name="meta.media.0.stream.type">video</property>
  <property name="meta.media.0.stream.frame_rate">29.97</property>
  <property name="meta.media.0.stream.sample_aspect_ratio">1</property>
  <property name="meta.media.0.codec.width">960</property>
  <property name="meta.media.0.codec.height">720</property>
  <property name="meta.media.0.codec.rotate">0</property>
  <property name="meta.media.0.codec.pix_fmt">yuv420p</property>
  <property name="meta.media.0.codec.sample_aspect_ratio">1</property>
  <property name="meta.media.0.codec.colorspace">709</property>
  <property name="meta.media.0.codec.color_trc">1</property>
  <property name="meta.media.0.codec.name">h264</property>
  <property name="meta.media.0.codec.long_name">H.264 / AVC / MPEG-4 AVC / MPEG-4 part 10</property>
  <property name="meta.media.0.codec.bit_rate">845415</property>
  <property name="meta.attr.0.stream.handler_name.markup">ISO Media file produced by Google Inc.</property>
  <property name="meta.attr.0.stream.vendor_id.markup">[0][0][0][0]</property>
  <property name="meta.attr.major_brand.markup">isom</property>
  <property name="meta.attr.minor_version.markup">512</property>
  <property name="meta.attr.compatible_brands.markup">isomiso2avc1mp41</property>
  <property name="meta.attr.encoder.markup">Lavf58.76.100</property>
  <property name="seekable">1</property>
  <property name="meta.media.sample_aspect_num">1</property>
  <property name="meta.media.sample_aspect_den">1</property>
  <property name="audio_index">-1</property>
  <property name="video_index">0</property>
  <property name="mute_on_pause">1</property>
  <property name="warp_speed">2</property>
  <property name="warp_resource">/home/redxherring/Videos/Monster/MP4/Monster 04 - Night of the Execution [Eng Dub &amp; HD] - YouTube.mp4</property>
  <property name="mlt_service">timewarp</property>
  <property name="set.test_audio">1</property>
  <property name="set.test_image">0</property>
  <property name="kdenlive:id">10</property>
  <property name="warp_pitch">0</property>
  <property name="meta.media.frame_rate_num">344168000</property>
  <property name="meta.media.frame_rate_den">11483739</property>
  <property name="meta.media.colorspace">709</property>
  <property name="meta.media.color_trc">1</property>
  <property name="meta.media.has_b_frames">1</property>
  <property name="meta.media.width">960</property>
  <property name="meta.media.height">720</property>
  <property name="meta.media.color_range">mpeg</property>
  <property name="meta.media.top_field_first">0</property>
  <property name="meta.media.progressive">1</property>
 </producer>
 <producer id="producer60" in="00:00:00.000" out="00:19:08.375">
  <property name="length">34417</property>
  <property name="eof">pause</property>
  <property name="resource">1.250000:/home/redxherring/Videos/Monster/MP4/Monster 04 - Night of the Execution [Eng Dub &amp; HD] - YouTube.mp4</property>
  <property name="aspect_ratio">1</property>
  <property name="meta.media.nb_streams">1</property>
  <property name="meta.media.0.stream.type">video</property>
  <property name="meta.media.0.stream.frame_rate">29.97</property>
  <property name="meta.media.0.stream.sample_aspect_ratio">1</property>
  <property name="meta.media.0.codec.width">960</property>
  <property name="meta.media.0.codec.height">720</property>
  <property name="meta.media.0.codec.rotate">0</property>
  <property name="meta.media.0.codec.pix_fmt">yuv420p</property>
  <property name="meta.media.0.codec.sample_aspect_ratio">1</property>
  <property name="meta.media.0.codec.colorspace">709</property>
  <property name="meta.media.0.codec.color_trc">1</property>
  <property name="meta.media.0.codec.name">h264</property>
  <property name="meta.media.0.codec.long_name">H.264 / AVC / MPEG-4 AVC / MPEG-4 part 10</property>
  <property name="meta.media.0.codec.bit_rate">845415</property>
  <property name="meta.attr.0.stream.handler_name.markup">ISO Media file produced by Google Inc.</property>
  <property name="meta.attr.0.stream.vendor_id.markup">[0][0][0][0]</property>
  <property name="meta.attr.major_brand.markup">isom</property>
  <property name="meta.attr.minor_version.markup">512</property>
  <property name="meta.attr.compatible_brands.markup">isomiso2avc1mp41</property>
  <property name="meta.attr.encoder.markup">Lavf58.76.100</property>
  <property name="seekable">1</property>
  <property name="meta.media.sample_aspect_num">1</property>
  <property name="meta.media.sample_aspect_den">1</property>
  <property name="audio_index">-1</property>
  <property name="video_index">0</property>
  <property name="mute_on_pause">1</property>
  <property name="warp_speed">1.25</property>
  <property name="warp_resource">/home/redxherring/Videos/Monster/MP4/Monster 04 - Night of the Execution [Eng Dub &amp; HD] - YouTube.mp4</property>
  <property name="mlt_service">timewarp</property>
  <property name="set.test_audio">1</property>
  <property name="set.test_image">0</property>
  <property name="kdenlive:id">10</property>
  <property name="warp_pitch">0</property>
  <property name="meta.media.frame_rate_num">344168000</property>
  <property name="meta.media.frame_rate_den">11483739</property>
  <property name="meta.media.colorspace">709</property>
  <property name="meta.media.color_trc">1</property>
  <property name="meta.media.has_b_frames">1</property>
  <property name="meta.media.width">960</property>
  <property name="meta.media.height">720</property>
  <property name="meta.media.color_range">mpeg</property>
  <property name="meta.media.top_field_first">0</property>
  <property name="meta.media.progressive">1</property>
 </producer>
 <playlist id="playlist6">
  <blank length="00:01:47.748"/>
  <entry producer="producer47" in="00:03:21.955" out="00:04:18.752">
   <property name="kdenlive:id">2</property>
   <filter id="filter243" in="00:03:21.955" out="00:03:26.493">
    <property name="start">1</property>
    <property name="level">1</property>
    <property name="mlt_service">brightness</property>
    <property name="kdenlive_id">fade_from_black</property>
    <property name="alpha">00:00:00.000=0;00:00:04.538=1</property>
    <property name="kdenlive:collapsed">0</property>
   </filter>
  </entry>
  <entry producer="producer48" in="00:03:27.427" out="00:03:32.032">
   <property name="kdenlive:id">2</property>
  </entry>
  <entry producer="producer47" in="00:04:24.791" out="00:04:30.063">
   <property name="kdenlive:id">2</property>
  </entry>
  <entry producer="producer47" in="00:04:30.731" out="00:04:38.939">
   <property name="kdenlive:id">2</property>
  </entry>
  <entry producer="producer47" in="00:04:39.106" out="00:04:42.175">
   <property name="kdenlive:id">2</property>
  </entry>
  <entry producer="producer47" in="00:04:43.610" out="00:04:54.788">
   <property name="kdenlive:id">2</property>
  </entry>
  <entry producer="producer47" in="00:04:56.456" out="00:05:04.371">
   <property name="kdenlive:id">2</property>
  </entry>
  <entry producer="producer47" in="00:05:04.404" out="00:07:24.258">
   <property name="kdenlive:id">2</property>
  </entry>
  <entry producer="producer47" in="00:07:37.905" out="00:08:07.774">
   <property name="kdenlive:id">2</property>
  </entry>
  <entry producer="producer47" in="00:08:09.343" out="00:08:55.055">
   <property name="kdenlive:id">2</property>
  </entry>
  <entry producer="producer47" in="00:08:59.860" out="00:09:01.301">
   <property name="kdenlive:id">2</property>
  </entry>
  <entry producer="producer47" in="00:09:01.335" out="00:09:23.991">
   <property name="kdenlive:id">2</property>
  </entry>
  <entry producer="producer47" in="00:09:25.325" out="00:10:21.188">
   <property name="kdenlive:id">2</property>
  </entry>
  <entry producer="producer47" in="00:10:21.755" out="00:10:24.858">
   <property name="kdenlive:id">2</property>
  </entry>
  <entry producer="producer47" in="00:10:25.158" out="00:10:26.693">
   <property name="kdenlive:id">2</property>
  </entry>
  <entry producer="producer49" in="00:05:15.382" out="00:05:21.154">
   <property name="kdenlive:id">2</property>
  </entry>
  <entry producer="producer47" in="00:10:49.516" out="00:10:49.883">
   <property name="kdenlive:id">2</property>
  </entry>
  <entry producer="producer47" in="00:10:49.917" out="00:12:41.542">
   <property name="kdenlive:id">2</property>
  </entry>
  <entry producer="producer47" in="00:12:44.077" out="00:18:54.721">
   <property name="kdenlive:id">2</property>
  </entry>
  <entry producer="producer47" in="00:18:55.522" out="00:22:26.159">
   <property name="kdenlive:id">2</property>
  </entry>
  <entry producer="producer50" in="00:00:00.000" out="00:00:52.853">
   <property name="kdenlive:id">6</property>
  </entry>
  <entry producer="producer50" in="00:02:19.086" out="00:09:59.026">
   <property name="kdenlive:id">6</property>
  </entry>
  <entry producer="producer50" in="00:09:59.426" out="00:10:30.330">
   <property name="kdenlive:id">6</property>
  </entry>
  <entry producer="producer51" in="00:04:24.992" out="00:04:26.093">
   <property name="kdenlive:id">6</property>
  </entry>
  <entry producer="producer50" in="00:10:34.001" out="00:11:08.208">
   <property name="kdenlive:id">6</property>
  </entry>
  <entry producer="producer50" in="00:11:08.942" out="00:11:44.411">
   <property name="kdenlive:id">6</property>
  </entry>
  <entry producer="producer50" in="00:11:48.615" out="00:11:52.119">
   <property name="kdenlive:id">6</property>
  </entry>
  <entry producer="producer52" in="00:01:58.659" out="00:01:59.293">
   <property name="kdenlive:id">6</property>
  </entry>
  <blank length="00:02:21.488"/>
  <entry producer="producer50" in="00:14:33.700" out="00:20:22.055">
   <property name="kdenlive:id">6</property>
   <filter id="filter244" in="00:14:33.700" out="00:14:35.235">
    <property name="start">1</property>
    <property name="level">1</property>
    <property name="mlt_service">brightness</property>
    <property name="kdenlive_id">fade_from_black</property>
    <property name="alpha">00:00:00.000=0;00:00:01.535=1</property>
    <property name="kdenlive:collapsed">0</property>
   </filter>
  </entry>
  <entry producer="producer50" in="00:20:24.258" out="00:21:47.748">
   <property name="kdenlive:id">6</property>
  </entry>
  <entry producer="producer50" in="00:21:50.317" out="00:22:00.968">
   <property name="kdenlive:id">6</property>
  </entry>
  <entry producer="producer53" in="00:08:48.415" out="00:08:52.553">
   <property name="kdenlive:id">6</property>
  </entry>
  <entry producer="producer50" in="00:22:11.512" out="00:22:26.660">
   <property name="kdenlive:id">6</property>
  </entry>
  <entry producer="producer54" in="00:00:00.000" out="00:00:53.487">
   <property name="kdenlive:id">9</property>
  </entry>
  <entry producer="producer54" in="00:02:20.220" out="00:03:33.000">
   <property name="kdenlive:id">9</property>
  </entry>
  <entry producer="producer55" in="00:01:49.650" out="00:01:50.050">
   <property name="kdenlive:id">9</property>
  </entry>
  <entry producer="producer54" in="00:03:40.207" out="00:03:55.222">
   <property name="kdenlive:id">9</property>
  </entry>
  <entry producer="producer54" in="00:04:02.436" out="00:06:02.703">
   <property name="kdenlive:id">9</property>
  </entry>
  <entry producer="producer54" in="00:06:04.738" out="00:06:11.178">
   <property name="kdenlive:id">9</property>
  </entry>
  <entry producer="producer54" in="00:06:11.411" out="00:10:21.822">
   <property name="kdenlive:id">9</property>
  </entry>
  <entry producer="producer54" in="00:10:21.855" out="00:10:29.463">
   <property name="kdenlive:id">9</property>
  </entry>
  <entry producer="producer54" in="00:10:46.647" out="00:16:45.445">
   <property name="kdenlive:id">9</property>
  </entry>
  <entry producer="producer54" in="00:17:00.601" out="00:17:02.202">
   <property name="kdenlive:id">9</property>
  </entry>
  <entry producer="producer54" in="00:16:48.649" out="00:17:00.467">
   <property name="kdenlive:id">9</property>
  </entry>
  <entry producer="producer54" in="00:17:02.769" out="00:17:17.784">
   <property name="kdenlive:id">9</property>
  </entry>
  <entry producer="producer54" in="00:17:25.359" out="00:17:26.193">
   <property name="kdenlive:id">9</property>
  </entry>
  <entry producer="producer54" in="00:17:26.226" out="00:20:15.682">
   <property name="kdenlive:id">9</property>
  </entry>
  <entry producer="producer54" in="00:20:16.216" out="00:22:26.493">
   <property name="kdenlive:id">9</property>
  </entry>
  <entry producer="producer56" in="00:02:21.154" out="00:02:43.777">
   <property name="kdenlive:id">10</property>
  </entry>
  <entry producer="producer56" in="00:02:45.546" out="00:02:55.989">
   <property name="kdenlive:id">10</property>
  </entry>
  <entry producer="producer56" in="00:03:00.033" out="00:07:18.218">
   <property name="kdenlive:id">10</property>
  </entry>
  <entry producer="producer56" in="00:07:18.252" out="00:07:20.354">
   <property name="kdenlive:id">10</property>
  </entry>
  <entry producer="producer56" in="00:07:27.027" out="00:09:46.613">
   <property name="kdenlive:id">10</property>
  </entry>
  <entry producer="producer57" in="00:17:40.440" out="00:18:20.854">
   <property name="kdenlive:id">15</property>
  </entry>
  <entry producer="producer56" in="00:09:46.680" out="00:09:53.820">
   <property name="kdenlive:id">10</property>
  </entry>
  <entry producer="producer56" in="00:09:53.854" out="00:09:56.657">
   <property name="kdenlive:id">10</property>
  </entry>
  <entry producer="producer56" in="00:10:02.135" out="00:13:39.773">
   <property name="kdenlive:id">10</property>
  </entry>
  <entry producer="producer56" in="00:13:47.281" out="00:13:52.152">
   <property name="kdenlive:id">10</property>
  </entry>
  <entry producer="producer56" in="00:13:58.358" out="00:14:02.870">
   <property name="kdenlive:id">10</property>
  </entry>
  <entry producer="producer56" in="00:14:03.871" out="00:14:15.382">
   <property name="kdenlive:id">10</property>
  </entry>
  <entry producer="producer58" in="00:07:07.841" out="00:07:08.809">
   <property name="kdenlive:id">10</property>
  </entry>
  <entry producer="producer59" in="00:07:09.343" out="00:07:10.577">
   <property name="kdenlive:id">10</property>
  </entry>
  <entry producer="producer56" in="00:14:17.684" out="00:14:18.652">
   <property name="kdenlive:id">10</property>
  </entry>
  <entry producer="producer60" in="00:11:28.929" out="00:11:30.130">
   <property name="kdenlive:id">10</property>
  </entry>
  <entry producer="producer56" in="00:14:22.789" out="00:14:60.027">
   <property name="kdenlive:id">10</property>
  </entry>
  <entry producer="producer56" in="00:15:08.475" out="00:15:13.747">
   <property name="kdenlive:id">10</property>
  </entry>
  <entry producer="producer56" in="00:15:18.085" out="00:15:29.229">
   <property name="kdenlive:id">10</property>
  </entry>
  <entry producer="producer56" in="00:15:30.130" out="00:17:57.691">
   <property name="kdenlive:id">10</property>
  </entry>
  <entry producer="producer56" in="00:17:57.724" out="00:17:59.893">
   <property name="kdenlive:id">10</property>
  </entry>
  <entry producer="producer56" in="00:18:11.512" out="00:18:12.679">
   <property name="kdenlive:id">10</property>
  </entry>
  <entry producer="producer56" in="00:18:12.713" out="00:21:03.604">
   <property name="kdenlive:id">10</property>
  </entry>
  <entry producer="producer56" in="00:21:04.004" out="00:23:36.937">
   <property name="kdenlive:id">10</property>
  </entry>
 </playlist>
 <playlist id="playlist7"/>
 <tractor id="tractor3" in="00:00:00.000" out="01:21:36.870">
  <property name="kdenlive:trackheight">69</property>
  <property name="kdenlive:timeline_active">1</property>
  <property name="kdenlive:collapsed">0</property>
  <property name="kdenlive:thumbs_format"/>
  <property name="kdenlive:audio_rec"/>
  <track hide="audio" producer="playlist6"/>
  <track hide="audio" producer="playlist7"/>
 </tractor>
 <producer id="producer61" in="00:00:00.000" out="00:23:55.455">
  <property name="length">43021</property>
  <property name="eof">pause</property>
  <property name="resource">/home/redxherring/Videos/Monster/MP4/Monster 01 - Herr Dr. Tenma [Eng Dub &amp; HD] - YouTube.mp4</property>
  <property name="audio_index">-1</property>
  <property name="video_index">0</property>
  <property name="mute_on_pause">0</property>
  <property name="mlt_service">avformat-novalidate</property>
  <property name="seekable">1</property>
  <property name="aspect_ratio">1</property>
  <property name="kdenlive:clipname"/>
  <property name="kdenlive:folderid">-1</property>
  <property name="kdenlive:id">2</property>
  <property name="kdenlive:file_size">164299745</property>
  <property name="kdenlive:file_hash">8a379c0f3f53e9f53e45b408e73eb9f3</property>
  <property name="global_feed">1</property>
  <property name="kdenlive:clip_type">2</property>
  <property name="xml">was here</property>
  <property name="meta.media.nb_streams">1</property>
  <property name="meta.media.0.stream.type">video</property>
  <property name="meta.media.0.stream.frame_rate">29.97</property>
  <property name="meta.media.0.stream.sample_aspect_ratio">1</property>
  <property name="meta.media.0.codec.width">960</property>
  <property name="meta.media.0.codec.height">720</property>
  <property name="meta.media.0.codec.rotate">0</property>
  <property name="meta.media.0.codec.frame_rate">29.97</property>
  <property name="meta.media.0.codec.pix_fmt">yuv420p</property>
  <property name="meta.media.0.codec.sample_aspect_ratio">1</property>
  <property name="meta.media.0.codec.colorspace">709</property>
  <property name="meta.media.0.codec.color_trc">1</property>
  <property name="meta.media.0.codec.name">h264</property>
  <property name="meta.media.0.codec.long_name">H.264 / AVC / MPEG-4 AVC / MPEG-4 part 10</property>
  <property name="meta.media.0.codec.bit_rate">911741</property>
  <property name="meta.attr.0.stream.handler_name.markup">ISO Media file produced by Google Inc.</property>
  <property name="meta.attr.0.stream.vendor_id.markup">[0][0][0][0]</property>
  <property name="meta.attr.major_brand.markup">isom</property>
  <property name="meta.attr.minor_version.markup">512</property>
  <property name="meta.attr.compatible_brands.markup">isomiso2avc1mp41</property>
  <property name="meta.attr.encoder.markup">Lavf58.76.100</property>
  <property name="meta.media.sample_aspect_num">1</property>
  <property name="meta.media.sample_aspect_den">1</property>
  <property name="meta.media.frame_rate_num">344168000</property>
  <property name="meta.media.frame_rate_den">11483739</property>
  <property name="meta.media.colorspace">709</property>
  <property name="meta.media.color_trc">1</property>
  <property name="meta.media.width">960</property>
  <property name="meta.media.height">720</property>
  <property name="meta.media.color_range">mpeg</property>
  <property name="meta.media.top_field_first">0</property>
  <property name="meta.media.progressive">1</property>
  <property name="meta.media.has_b_frames">1</property>
  <property name="set.test_audio">1</property>
  <property name="set.test_image">0</property>
 </producer>
 <producer id="producer62" in="00:00:00.000" out="00:23:55.522">
  <property name="length">43023</property>
  <property name="eof">pause</property>
  <property name="resource">/home/redxherring/Videos/Monster/MP4/Monster 02 - Downfall [Eng Dub &amp; HD] - YouTube.mp4</property>
  <property name="audio_index">-1</property>
  <property name="video_index">0</property>
  <property name="mute_on_pause">0</property>
  <property name="mlt_service">avformat-novalidate</property>
  <property name="seekable">1</property>
  <property name="aspect_ratio">1</property>
  <property name="kdenlive:clipname"/>
  <property name="kdenlive:folderid">-1</property>
  <property name="kdenlive:id">6</property>
  <property name="kdenlive:file_size">157897575</property>
  <property name="kdenlive:file_hash">3ac9237e9de2e76f2e7e851f681b4dbe</property>
  <property name="global_feed">1</property>
  <property name="kdenlive:clip_type">2</property>
  <property name="xml">was here</property>
  <property name="meta.media.nb_streams">1</property>
  <property name="meta.media.0.stream.type">video</property>
  <property name="meta.media.0.stream.frame_rate">29.97</property>
  <property name="meta.media.0.stream.sample_aspect_ratio">1</property>
  <property name="meta.media.0.codec.width">960</property>
  <property name="meta.media.0.codec.height">720</property>
  <property name="meta.media.0.codec.rotate">0</property>
  <property name="meta.media.0.codec.frame_rate">29.97</property>
  <property name="meta.media.0.codec.pix_fmt">yuv420p</property>
  <property name="meta.media.0.codec.sample_aspect_ratio">1</property>
  <property name="meta.media.0.codec.colorspace">709</property>
  <property name="meta.media.0.codec.color_trc">1</property>
  <property name="meta.media.0.codec.name">h264</property>
  <property name="meta.media.0.codec.long_name">H.264 / AVC / MPEG-4 AVC / MPEG-4 part 10</property>
  <property name="meta.media.0.codec.bit_rate">875993</property>
  <property name="meta.attr.0.stream.handler_name.markup">ISO Media file produced by Google Inc.</property>
  <property name="meta.attr.0.stream.vendor_id.markup">[0][0][0][0]</property>
  <property name="meta.attr.major_brand.markup">isom</property>
  <property name="meta.attr.minor_version.markup">512</property>
  <property name="meta.attr.compatible_brands.markup">isomiso2avc1mp41</property>
  <property name="meta.attr.encoder.markup">Lavf58.76.100</property>
  <property name="meta.media.sample_aspect_num">1</property>
  <property name="meta.media.sample_aspect_den">1</property>
  <property name="meta.media.frame_rate_num">114728000</property>
  <property name="meta.media.frame_rate_den">3828089</property>
  <property name="meta.media.colorspace">709</property>
  <property name="meta.media.color_trc">1</property>
  <property name="meta.media.width">960</property>
  <property name="meta.media.height">720</property>
  <property name="meta.media.color_range">mpeg</property>
  <property name="meta.media.top_field_first">0</property>
  <property name="meta.media.progressive">1</property>
  <property name="meta.media.has_b_frames">1</property>
  <property name="set.test_audio">1</property>
  <property name="set.test_image">0</property>
 </producer>
 <playlist id="playlist8">
  <entry producer="producer61" in="00:00:00.000" out="00:01:52.252">
   <property name="kdenlive:id">2</property>
   <filter id="filter245" in="00:01:47.714" out="00:01:52.252">
    <property name="start">1</property>
    <property name="level">1</property>
    <property name="mlt_service">brightness</property>
    <property name="kdenlive_id">fade_to_black</property>
    <property name="alpha">00:00:00.000=1;00:00:04.538=0</property>
    <property name="kdenlive:collapsed">0</property>
   </filter>
  </entry>
  <blank length="00:28:31.164"/>
  <entry producer="producer62" in="00:11:56.156" out="00:14:17.851">
   <property name="kdenlive:id">6</property>
   <filter id="filter246" in="00:14:16.316" out="00:14:17.851">
    <property name="start">1</property>
    <property name="level">1</property>
    <property name="mlt_service">brightness</property>
    <property name="kdenlive_id">fade_to_black</property>
    <property name="alpha">00:00:00.000=1;00:00:01.535=0</property>
    <property name="kdenlive:collapsed">0</property>
   </filter>
  </entry>
 </playlist>
 <playlist id="playlist9"/>
 <tractor id="tractor4" in="00:00:00.000" out="00:32:45.112">
  <property name="kdenlive:trackheight">69</property>
  <property name="kdenlive:timeline_active">1</property>
  <property name="kdenlive:collapsed">0</property>
  <property name="kdenlive:thumbs_format">2</property>
  <property name="kdenlive:audio_rec"/>
  <track hide="audio" producer="playlist8"/>
  <track hide="audio" producer="playlist9"/>
 </tractor>
 <playlist id="timeline_preview"/>
 <tractor id="tractor5" in="00:00:00.000" out="01:38:17.918">
  <track producer="black_track"/>
  <track producer="tractor0"/>
  <track producer="tractor1"/>
  <track producer="tractor2"/>
  <track producer="tractor3"/>
  <track producer="tractor4"/>
  <track hide="both" producer="timeline_preview"/>
  <transition id="transition0">
   <property name="a_track">0</property>
   <property name="b_track">1</property>
   <property name="mlt_service">mix</property>
   <property name="kdenlive_id">mix</property>
   <property name="internal_added">237</property>
   <property name="always_active">1</property>
   <property name="accepts_blanks">1</property>
   <property name="sum">1</property>
  </transition>
  <transition id="transition1">
   <property name="a_track">0</property>
   <property name="b_track">2</property>
   <property name="mlt_service">mix</property>
   <property name="kdenlive_id">mix</property>
   <property name="internal_added">237</property>
   <property name="always_active">1</property>
   <property name="accepts_blanks">1</property>
   <property name="sum">1</property>
  </transition>
  <transition id="transition2">
   <property name="a_track">0</property>
   <property name="b_track">3</property>
   <property name="mlt_service">mix</property>
   <property name="kdenlive_id">mix</property>
   <property name="internal_added">237</property>
   <property name="always_active">1</property>
   <property name="accepts_blanks">1</property>
   <property name="sum">1</property>
  </transition>
  <transition id="transition3">
   <property name="a_track">0</property>
   <property name="b_track">4</property>
   <property name="version">0.1</property>
   <property name="mlt_service">frei0r.cairoblend</property>
   <property name="kdenlive_id">frei0r.cairoblend</property>
   <property name="internal_added">237</property>
   <property name="always_active">1</property>
  </transition>
  <transition id="transition4">
   <property name="a_track">0</property>
   <property name="b_track">5</property>
   <property name="version">0.1</property>
   <property name="mlt_service">frei0r.cairoblend</property>
   <property name="kdenlive_id">frei0r.cairoblend</property>
   <property name="internal_added">237</property>
   <property name="always_active">1</property>
  </transition>
  <filter id="filter247">
   <property name="window">75</property>
   <property name="max_gain">20dB</property>
   <property name="level">0</property>
   <property name="mlt_service">volume</property>
   <property name="internal_added">237</property>
   <property name="disable">1</property>
  </filter>
  <filter id="filter248">
   <property name="channel">-1</property>
   <property name="mlt_service">panner</property>
   <property name="internal_added">237</property>
   <property name="start">0.5</property>
   <property name="disable">1</property>
  </filter>
 </tractor>
</mlt>
