<?xml version='1.0' encoding='utf-8'?>
<mlt LC_NUMERIC="C" producer="main_bin" root="/mnt/data1/Anime-Edits/Monster/Monster-Editing/Editing" version="7.26.0">
 <profile colorspace="709" description="1440x1080 23.98fps" display_aspect_den="3" display_aspect_num="4" frame_rate_den="1001" frame_rate_num="24000" height="1080" progressive="1" sample_aspect_den="1" sample_aspect_num="1" width="1440"/>
 <chain id="producer0" out="00:23:55.555">
  <property name="length">34419</property>
  <property name="eof">pause</property>
  <property name="resource">/mnt/data0/Monster/Monster-Editing/Orig/Monster - Chapter 05 - The Girl From Heidelberg.mkv</property>
  <property name="mlt_service">avformat-novalidate</property>
  <property name="audio_index">1</property>
  <property name="video_index">0</property>
  <property name="meta.media.nb_streams">31</property>
  <property name="meta.media.0.stream.type">video</property>
  <property name="meta.media.0.stream.frame_rate">23.976</property>
  <property name="meta.media.0.stream.sample_aspect_ratio">1</property>
  <property name="meta.media.0.codec.width">1440</property>
  <property name="meta.media.0.codec.height">1080</property>
  <property name="meta.media.0.codec.rotate">0</property>
  <property name="meta.media.0.codec.pix_fmt">yuv420p10le</property>
  <property name="meta.media.0.codec.sample_aspect_ratio">1</property>
  <property name="meta.media.0.codec.colorspace">709</property>
  <property name="meta.media.0.codec.color_trc">1</property>
  <property name="meta.media.0.codec.name">hevc</property>
  <property name="meta.media.0.codec.long_name">HEVC (High Efficiency Video Coding)</property>
  <property name="meta.media.0.codec.bit_rate">0</property>
  <property name="meta.attr.0.stream.BPS-eng.markup">2146153</property>
  <property name="meta.attr.0.stream.DURATION-eng.markup">00:23:55.518000000</property>
  <property name="meta.attr.0.stream.NUMBER_OF_FRAMES-eng.markup">34418</property>
  <property name="meta.attr.0.stream.NUMBER_OF_BYTES-eng.markup">385105255</property>
  <property name="meta.attr.0.stream._STATISTICS_WRITING_APP-eng.markup">mkvmerge v52.0.0 ('Secret For The Mad') 64-bit</property>
  <property name="meta.attr.0.stream._STATISTICS_WRITING_DATE_UTC-eng.markup">2022-10-15 07:44:57</property>
  <property name="meta.attr.0.stream._STATISTICS_TAGS-eng.markup">BPS DURATION NUMBER_OF_FRAMES NUMBER_OF_BYTES</property>
  <property name="meta.media.1.stream.type">audio</property>
  <property name="meta.media.1.codec.sample_fmt">fltp</property>
  <property name="meta.media.1.codec.sample_rate">48000</property>
  <property name="meta.media.1.codec.channels">2</property>
  <property name="meta.media.1.codec.name">ac3</property>
  <property name="meta.media.1.codec.long_name">ATSC A/52A (AC-3)</property>
  <property name="meta.media.1.codec.bit_rate">448000</property>
  <property name="meta.attr.1.stream.language.markup">jpn</property>
  <property name="meta.attr.1.stream.title.markup">Japanese DVD AC-3 DD_2.0</property>
  <property name="meta.attr.1.stream.BPS-eng.markup">448000</property>
  <property name="meta.attr.1.stream.DURATION-eng.markup">00:23:55.552000000</property>
  <property name="meta.attr.1.stream.NUMBER_OF_FRAMES-eng.markup">44861</property>
  <property name="meta.attr.1.stream.NUMBER_OF_BYTES-eng.markup">80390912</property>
  <property name="meta.attr.1.stream._STATISTICS_WRITING_APP-eng.markup">mkvmerge v52.0.0 ('Secret For The Mad') 64-bit</property>
  <property name="meta.attr.1.stream._STATISTICS_WRITING_DATE_UTC-eng.markup">2022-10-15 07:44:57</property>
  <property name="meta.attr.1.stream._STATISTICS_TAGS-eng.markup">BPS DURATION NUMBER_OF_FRAMES NUMBER_OF_BYTES</property>
  <property name="meta.media.2.stream.type">audio</property>
  <property name="meta.media.2.codec.sample_fmt">fltp</property>
  <property name="meta.media.2.codec.sample_rate">48000</property>
  <property name="meta.media.2.codec.channels">2</property>
  <property name="meta.media.2.codec.name">aac</property>
  <property name="meta.media.2.codec.long_name">AAC (Advanced Audio Coding)</property>
  <property name="meta.media.2.codec.bit_rate">0</property>
  <property name="meta.attr.2.stream.language.markup">eng</property>
  <property name="meta.attr.2.stream.title.markup">English AAC DD_2.0</property>
  <property name="meta.attr.2.stream.BPS-eng.markup">152336</property>
  <property name="meta.attr.2.stream.DURATION-eng.markup">00:23:55.286000000</property>
  <property name="meta.attr.2.stream.NUMBER_OF_FRAMES-eng.markup">67279</property>
  <property name="meta.attr.2.stream.NUMBER_OF_BYTES-eng.markup">27330812</property>
  <property name="meta.attr.2.stream._STATISTICS_WRITING_APP-eng.markup">mkvmerge v52.0.0 ('Secret For The Mad') 64-bit</property>
  <property name="meta.attr.2.stream._STATISTICS_WRITING_DATE_UTC-eng.markup">2022-10-15 07:44:57</property>
  <property name="meta.attr.2.stream._STATISTICS_TAGS-eng.markup">BPS DURATION NUMBER_OF_FRAMES NUMBER_OF_BYTES</property>
  <property name="meta.media.3.codec.name">ssa</property>
  <property name="meta.media.3.codec.long_name">ASS (Advanced SubStation Alpha) subtitle</property>
  <property name="meta.media.3.codec.bit_rate">0</property>
  <property name="meta.attr.3.stream.language.markup">eng</property>
  <property name="meta.attr.3.stream.title.markup">English (Full) ASS</property>
  <property name="meta.attr.3.stream.BPS-eng.markup">98</property>
  <property name="meta.attr.3.stream.DURATION-eng.markup">00:23:43.900000000</property>
  <property name="meta.attr.3.stream.NUMBER_OF_FRAMES-eng.markup">303</property>
  <property name="meta.attr.3.stream.NUMBER_OF_BYTES-eng.markup">17571</property>
  <property name="meta.attr.3.stream._STATISTICS_WRITING_APP-eng.markup">mkvmerge v52.0.0 ('Secret For The Mad') 64-bit</property>
  <property name="meta.attr.3.stream._STATISTICS_WRITING_DATE_UTC-eng.markup">2022-10-15 07:44:57</property>
  <property name="meta.attr.3.stream._STATISTICS_TAGS-eng.markup">BPS DURATION NUMBER_OF_FRAMES NUMBER_OF_BYTES</property>
  <property name="meta.media.4.codec.name">ssa</property>
  <property name="meta.media.4.codec.long_name">ASS (Advanced SubStation Alpha) subtitle</property>
  <property name="meta.media.4.codec.bit_rate">0</property>
  <property name="meta.attr.4.stream.language.markup">eng</property>
  <property name="meta.attr.4.stream.title.markup">English (Titles &amp; Signs) ASS</property>
  <property name="meta.attr.4.stream.BPS-eng.markup">1</property>
  <property name="meta.attr.4.stream.DURATION-eng.markup">00:20:32.900000000</property>
  <property name="meta.attr.4.stream.NUMBER_OF_FRAMES-eng.markup">5</property>
  <property name="meta.attr.4.stream.NUMBER_OF_BYTES-eng.markup">289</property>
  <property name="meta.attr.4.stream._STATISTICS_WRITING_APP-eng.markup">mkvmerge v52.0.0 ('Secret For The Mad') 64-bit</property>
  <property name="meta.attr.4.stream._STATISTICS_WRITING_DATE_UTC-eng.markup">2022-10-15 07:44:57</property>
  <property name="meta.attr.4.stream._STATISTICS_TAGS-eng.markup">BPS DURATION NUMBER_OF_FRAMES NUMBER_OF_BYTES</property>
  <property name="meta.media.5.codec.name">ssa</property>
  <property name="meta.media.5.codec.long_name">ASS (Advanced SubStation Alpha) subtitle</property>
  <property name="meta.media.5.codec.bit_rate">0</property>
  <property name="meta.attr.5.stream.language.markup">ara</property>
  <property name="meta.attr.5.stream.title.markup">Arabic</property>
  <property name="meta.attr.5.stream.BPS-eng.markup">127</property>
  <property name="meta.attr.5.stream.DURATION-eng.markup">00:22:16.870000000</property>
  <property name="meta.attr.5.stream.NUMBER_OF_FRAMES-eng.markup">338</property>
  <property name="meta.attr.5.stream.NUMBER_OF_BYTES-eng.markup">21336</property>
  <property name="meta.attr.5.stream._STATISTICS_WRITING_APP-eng.markup">mkvmerge v52.0.0 ('Secret For The Mad') 64-bit</property>
  <property name="meta.attr.5.stream._STATISTICS_WRITING_DATE_UTC-eng.markup">2022-10-15 07:44:57</property>
  <property name="meta.attr.5.stream._STATISTICS_TAGS-eng.markup">BPS DURATION NUMBER_OF_FRAMES NUMBER_OF_BYTES</property>
  <property name="meta.attr.title.markup">Monster : Chapter 05 : The Girl From Heidelberg</property>
  <property name="meta.attr.encoder.markup">libebml v1.4.1 + libmatroska v1.6.2</property>
  <property name="meta.attr.creation_time.markup">2022-10-15T07:44:57.000000Z</property>
  <property name="seekable">1</property>
  <property name="meta.media.sample_aspect_num">1</property>
  <property name="meta.media.sample_aspect_den">1</property>
  <property name="aspect_ratio">1</property>
  <property name="kdenlive:clipname"/>
  <property name="kdenlive:clip_type">0</property>
  <property name="kdenlive:folderid">-1</property>
  <property name="kdenlive:id">2</property>
  <property name="kdenlive:active_streams">1;2</property>
  <property name="kdenlive:file_size">497616281</property>
  <property name="kdenlive:file_hash">290246c0f90ccd8874fd5e52071cd4ed</property>
  <property name="meta.media.frame_rate_num">24000</property>
  <property name="meta.media.frame_rate_den">1001</property>
  <property name="meta.media.colorspace">709</property>
  <property name="meta.media.color_trc">1</property>
  <property name="meta.media.has_b_frames">2</property>
  <property name="meta.media.width">1440</property>
  <property name="meta.media.height">1080</property>
  <property name="meta.media.color_range">mpeg</property>
  <property name="meta.media.top_field_first">0</property>
  <property name="meta.media.progressive">1</property>
  <property name="kdenlive:audio_max1">179</property>
  <property name="kdenlive:audio_max2">188</property>
  <property name="kdenlive:control_uuid">{5ce384bd-b6ae-494b-bd4a-b36d57a8c1c7}</property>
 </chain>
 <chain id="producer3" out="00:23:55.472">
  <property name="length">34417</property>
  <property name="eof">pause</property>
  <property name="resource">/mnt/data0/Monster/Monster-Editing/Orig/Monster - Chapter 06 - Disappearance Report.mkv</property>
  <property name="mlt_service">avformat-novalidate</property>
  <property name="audio_index">1</property>
  <property name="video_index">0</property>
  <property name="meta.media.nb_streams">71</property>
  <property name="meta.media.0.stream.type">video</property>
  <property name="meta.media.0.stream.frame_rate">23.976</property>
  <property name="meta.media.0.stream.sample_aspect_ratio">1</property>
  <property name="meta.media.0.codec.width">1440</property>
  <property name="meta.media.0.codec.height">1080</property>
  <property name="meta.media.0.codec.rotate">0</property>
  <property name="meta.media.0.codec.pix_fmt">yuv420p10le</property>
  <property name="meta.media.0.codec.sample_aspect_ratio">1</property>
  <property name="meta.media.0.codec.colorspace">709</property>
  <property name="meta.media.0.codec.color_trc">1</property>
  <property name="meta.media.0.codec.name">hevc</property>
  <property name="meta.media.0.codec.long_name">HEVC (High Efficiency Video Coding)</property>
  <property name="meta.media.0.codec.bit_rate">0</property>
  <property name="meta.attr.0.stream.BPS.markup">1968506</property>
  <property name="meta.attr.0.stream.DURATION.markup">00:23:55.434000000</property>
  <property name="meta.attr.0.stream.NUMBER_OF_FRAMES.markup">34416</property>
  <property name="meta.attr.0.stream.NUMBER_OF_BYTES.markup">353207706</property>
  <property name="meta.attr.0.stream._STATISTICS_WRITING_APP.markup">mkvmerge v61.0.0 ('So') 64-bit</property>
  <property name="meta.attr.0.stream._STATISTICS_WRITING_DATE_UTC.markup">2022-10-15 07:52:21</property>
  <property name="meta.attr.0.stream._STATISTICS_TAGS.markup">BPS DURATION NUMBER_OF_FRAMES NUMBER_OF_BYTES</property>
  <property name="meta.media.1.stream.type">audio</property>
  <property name="meta.media.1.codec.sample_fmt">fltp</property>
  <property name="meta.media.1.codec.sample_rate">48000</property>
  <property name="meta.media.1.codec.channels">2</property>
  <property name="meta.media.1.codec.name">ac3</property>
  <property name="meta.media.1.codec.long_name">ATSC A/52A (AC-3)</property>
  <property name="meta.media.1.codec.bit_rate">448000</property>
  <property name="meta.attr.1.stream.language.markup">jpn</property>
  <property name="meta.attr.1.stream.title.markup">Japanese DVD AC-3 DD_2.0</property>
  <property name="meta.attr.1.stream.BPS.markup">448000</property>
  <property name="meta.attr.1.stream.DURATION.markup">00:23:55.456000000</property>
  <property name="meta.attr.1.stream.NUMBER_OF_FRAMES.markup">44858</property>
  <property name="meta.attr.1.stream.NUMBER_OF_BYTES.markup">80385536</property>
  <property name="meta.attr.1.stream._STATISTICS_WRITING_APP.markup">mkvmerge v61.0.0 ('So') 64-bit</property>
  <property name="meta.attr.1.stream._STATISTICS_WRITING_DATE_UTC.markup">2022-10-15 07:52:21</property>
  <property name="meta.attr.1.stream._STATISTICS_TAGS.markup">BPS DURATION NUMBER_OF_FRAMES NUMBER_OF_BYTES</property>
  <property name="meta.media.2.stream.type">audio</property>
  <property name="meta.media.2.codec.sample_fmt">fltp</property>
  <property name="meta.media.2.codec.sample_rate">48000</property>
  <property name="meta.media.2.codec.channels">2</property>
  <property name="meta.media.2.codec.name">aac</property>
  <property name="meta.media.2.codec.long_name">AAC (Advanced Audio Coding)</property>
  <property name="meta.media.2.codec.bit_rate">0</property>
  <property name="meta.attr.2.stream.language.markup">eng</property>
  <property name="meta.attr.2.stream.title.markup">English AAC DD_2.0</property>
  <property name="meta.attr.2.stream.BPS.markup">154970</property>
  <property name="meta.attr.2.stream.DURATION.markup">00:23:55.412000000</property>
  <property name="meta.attr.2.stream.NUMBER_OF_FRAMES.markup">67285</property>
  <property name="meta.attr.2.stream.NUMBER_OF_BYTES.markup">27805898</property>
  <property name="meta.attr.2.stream._STATISTICS_WRITING_APP.markup">mkvmerge v61.0.0 ('So') 64-bit</property>
  <property name="meta.attr.2.stream._STATISTICS_WRITING_DATE_UTC.markup">2022-10-15 07:52:21</property>
  <property name="meta.attr.2.stream._STATISTICS_TAGS.markup">BPS DURATION NUMBER_OF_FRAMES NUMBER_OF_BYTES</property>
  <property name="meta.media.3.codec.name">ssa</property>
  <property name="meta.media.3.codec.long_name">ASS (Advanced SubStation Alpha) subtitle</property>
  <property name="meta.media.3.codec.bit_rate">0</property>
  <property name="meta.attr.3.stream.language.markup">eng</property>
  <property name="meta.attr.3.stream.title.markup">English (Full) ASS</property>
  <property name="meta.attr.3.stream.BPS.markup">98</property>
  <property name="meta.attr.3.stream.DURATION.markup">00:23:51.650000000</property>
  <property name="meta.attr.3.stream.NUMBER_OF_FRAMES.markup">312</property>
  <property name="meta.attr.3.stream.NUMBER_OF_BYTES.markup">17553</property>
  <property name="meta.attr.3.stream._STATISTICS_WRITING_APP.markup">mkvmerge v61.0.0 ('So') 64-bit</property>
  <property name="meta.attr.3.stream._STATISTICS_WRITING_DATE_UTC.markup">2022-10-15 07:52:21</property>
  <property name="meta.attr.3.stream._STATISTICS_TAGS.markup">BPS DURATION NUMBER_OF_FRAMES NUMBER_OF_BYTES</property>
  <property name="meta.media.4.codec.name">ssa</property>
  <property name="meta.media.4.codec.long_name">ASS (Advanced SubStation Alpha) subtitle</property>
  <property name="meta.media.4.codec.bit_rate">0</property>
  <property name="meta.attr.4.stream.language.markup">eng</property>
  <property name="meta.attr.4.stream.title.markup">English (Titles &amp; Signs) ASS</property>
  <property name="meta.attr.4.stream.BPS.markup">0</property>
  <property name="meta.attr.4.stream.DURATION.markup">00:18:33.530000000</property>
  <property name="meta.attr.4.stream.NUMBER_OF_FRAMES.markup">2</property>
  <property name="meta.attr.4.stream.NUMBER_OF_BYTES.markup">133</property>
  <property name="meta.attr.4.stream._STATISTICS_WRITING_APP.markup">mkvmerge v61.0.0 ('So') 64-bit</property>
  <property name="meta.attr.4.stream._STATISTICS_WRITING_DATE_UTC.markup">2022-10-15 07:52:21</property>
  <property name="meta.attr.4.stream._STATISTICS_TAGS.markup">BPS DURATION NUMBER_OF_FRAMES NUMBER_OF_BYTES</property>
  <property name="meta.media.5.codec.name">ssa</property>
  <property name="meta.media.5.codec.long_name">ASS (Advanced SubStation Alpha) subtitle</property>
  <property name="meta.media.5.codec.bit_rate">0</property>
  <property name="meta.attr.5.stream.language.markup">ara</property>
  <property name="meta.attr.5.stream.title.markup">Arabic</property>
  <property name="meta.attr.5.stream.BPS.markup">123</property>
  <property name="meta.attr.5.stream.DURATION.markup">00:22:15.360000000</property>
  <property name="meta.attr.5.stream.NUMBER_OF_FRAMES.markup">337</property>
  <property name="meta.attr.5.stream.NUMBER_OF_BYTES.markup">20539</property>
  <property name="meta.attr.5.stream._STATISTICS_WRITING_APP.markup">mkvmerge v61.0.0 ('So') 64-bit</property>
  <property name="meta.attr.5.stream._STATISTICS_WRITING_DATE_UTC.markup">2022-10-15 07:52:21</property>
  <property name="meta.attr.5.stream._STATISTICS_TAGS.markup">BPS DURATION NUMBER_OF_FRAMES NUMBER_OF_BYTES</property>
  <property name="meta.attr.title.markup">Monster : Chapter 06 : Disappearance Report</property>
  <property name="meta.attr.encoder.markup">libebml v1.4.2 + libmatroska v1.6.4</property>
  <property name="meta.attr.creation_time.markup">2022-10-15T07:52:21.000000Z</property>
  <property name="seekable">1</property>
  <property name="meta.media.sample_aspect_num">1</property>
  <property name="meta.media.sample_aspect_den">1</property>
  <property name="aspect_ratio">1</property>
  <property name="kdenlive:clipname"/>
  <property name="kdenlive:clip_type">0</property>
  <property name="kdenlive:folderid">-1</property>
  <property name="kdenlive:id">3</property>
  <property name="kdenlive:active_streams">1;2</property>
  <property name="kdenlive:file_size">471179261</property>
  <property name="kdenlive:file_hash">1b1fd9608884f30664973003674870d7</property>
  <property name="meta.media.frame_rate_num">24000</property>
  <property name="meta.media.frame_rate_den">1001</property>
  <property name="meta.media.colorspace">709</property>
  <property name="meta.media.color_trc">1</property>
  <property name="meta.media.has_b_frames">2</property>
  <property name="meta.media.width">1440</property>
  <property name="meta.media.height">1080</property>
  <property name="meta.media.color_range">mpeg</property>
  <property name="meta.media.top_field_first">0</property>
  <property name="meta.media.progressive">1</property>
  <property name="kdenlive:audio_max1">180</property>
  <property name="kdenlive:audio_max2">203</property>
  <property name="kdenlive:control_uuid">{385175a1-cef7-4b87-92fc-1ba5bc0b2223}</property>
 </chain>
 <chain id="producer1" out="00:23:55.472">
  <property name="length">34417</property>
  <property name="eof">pause</property>
  <property name="resource">/mnt/data0/Monster/Monster-Editing/Orig/Monster - Chapter 07 - Mansion Of Tragedy.mkv</property>
  <property name="mlt_service">avformat-novalidate</property>
  <property name="audio_index">1</property>
  <property name="video_index">0</property>
  <property name="meta.media.nb_streams">23</property>
  <property name="meta.media.0.stream.type">video</property>
  <property name="meta.media.0.stream.frame_rate">23.976</property>
  <property name="meta.media.0.stream.sample_aspect_ratio">1</property>
  <property name="meta.media.0.codec.width">1440</property>
  <property name="meta.media.0.codec.height">1080</property>
  <property name="meta.media.0.codec.rotate">0</property>
  <property name="meta.media.0.codec.pix_fmt">yuv420p10le</property>
  <property name="meta.media.0.codec.sample_aspect_ratio">1</property>
  <property name="meta.media.0.codec.colorspace">709</property>
  <property name="meta.media.0.codec.color_trc">1</property>
  <property name="meta.media.0.codec.name">hevc</property>
  <property name="meta.media.0.codec.long_name">HEVC (High Efficiency Video Coding)</property>
  <property name="meta.media.0.codec.bit_rate">0</property>
  <property name="meta.attr.0.stream.BPS.markup">1767757</property>
  <property name="meta.attr.0.stream.DURATION.markup">00:23:55.434000000</property>
  <property name="meta.attr.0.stream.NUMBER_OF_FRAMES.markup">34416</property>
  <property name="meta.attr.0.stream.NUMBER_OF_BYTES.markup">317187435</property>
  <property name="meta.attr.0.stream._STATISTICS_WRITING_APP.markup">mkvmerge v61.0.0 ('So') 64-bit</property>
  <property name="meta.attr.0.stream._STATISTICS_WRITING_DATE_UTC.markup">2022-10-15 07:56:27</property>
  <property name="meta.attr.0.stream._STATISTICS_TAGS.markup">BPS DURATION NUMBER_OF_FRAMES NUMBER_OF_BYTES</property>
  <property name="meta.media.1.stream.type">audio</property>
  <property name="meta.media.1.codec.sample_fmt">fltp</property>
  <property name="meta.media.1.codec.sample_rate">48000</property>
  <property name="meta.media.1.codec.channels">2</property>
  <property name="meta.media.1.codec.name">ac3</property>
  <property name="meta.media.1.codec.long_name">ATSC A/52A (AC-3)</property>
  <property name="meta.media.1.codec.bit_rate">448000</property>
  <property name="meta.attr.1.stream.language.markup">jpn</property>
  <property name="meta.attr.1.stream.title.markup">Japanese DVD AC-3 DD_2.0</property>
  <property name="meta.attr.1.stream.BPS.markup">448000</property>
  <property name="meta.attr.1.stream.DURATION.markup">00:23:55.488000000</property>
  <property name="meta.attr.1.stream.NUMBER_OF_FRAMES.markup">44859</property>
  <property name="meta.attr.1.stream.NUMBER_OF_BYTES.markup">80387328</property>
  <property name="meta.attr.1.stream._STATISTICS_WRITING_APP.markup">mkvmerge v61.0.0 ('So') 64-bit</property>
  <property name="meta.attr.1.stream._STATISTICS_WRITING_DATE_UTC.markup">2022-10-15 07:56:27</property>
  <property name="meta.attr.1.stream._STATISTICS_TAGS.markup">BPS DURATION NUMBER_OF_FRAMES NUMBER_OF_BYTES</property>
  <property name="meta.media.2.stream.type">audio</property>
  <property name="meta.media.2.codec.sample_fmt">fltp</property>
  <property name="meta.media.2.codec.sample_rate">48000</property>
  <property name="meta.media.2.codec.channels">2</property>
  <property name="meta.media.2.codec.name">aac</property>
  <property name="meta.media.2.codec.long_name">AAC (Advanced Audio Coding)</property>
  <property name="meta.media.2.codec.bit_rate">0</property>
  <property name="meta.attr.2.stream.language.markup">eng</property>
  <property name="meta.attr.2.stream.title.markup">English AAC DD_2.0</property>
  <property name="meta.attr.2.stream.BPS.markup">164115</property>
  <property name="meta.attr.2.stream.DURATION.markup">00:23:55.199000000</property>
  <property name="meta.attr.2.stream.NUMBER_OF_FRAMES.markup">67275</property>
  <property name="meta.attr.2.stream.NUMBER_OF_BYTES.markup">29442361</property>
  <property name="meta.attr.2.stream._STATISTICS_WRITING_APP.markup">mkvmerge v61.0.0 ('So') 64-bit</property>
  <property name="meta.attr.2.stream._STATISTICS_WRITING_DATE_UTC.markup">2022-10-15 07:56:27</property>
  <property name="meta.attr.2.stream._STATISTICS_TAGS.markup">BPS DURATION NUMBER_OF_FRAMES NUMBER_OF_BYTES</property>
  <property name="meta.media.3.codec.name">ssa</property>
  <property name="meta.media.3.codec.long_name">ASS (Advanced SubStation Alpha) subtitle</property>
  <property name="meta.media.3.codec.bit_rate">0</property>
  <property name="meta.attr.3.stream.language.markup">eng</property>
  <property name="meta.attr.3.stream.title.markup">English (Full) ASS</property>
  <property name="meta.attr.3.stream.BPS.markup">70</property>
  <property name="meta.attr.3.stream.DURATION.markup">00:23:51.620000000</property>
  <property name="meta.attr.3.stream.NUMBER_OF_FRAMES.markup">223</property>
  <property name="meta.attr.3.stream.NUMBER_OF_BYTES.markup">12615</property>
  <property name="meta.attr.3.stream._STATISTICS_WRITING_APP.markup">mkvmerge v61.0.0 ('So') 64-bit</property>
  <property name="meta.attr.3.stream._STATISTICS_WRITING_DATE_UTC.markup">2022-10-15 07:56:27</property>
  <property name="meta.attr.3.stream._STATISTICS_TAGS.markup">BPS DURATION NUMBER_OF_FRAMES NUMBER_OF_BYTES</property>
  <property name="meta.media.4.codec.name">ssa</property>
  <property name="meta.media.4.codec.long_name">ASS (Advanced SubStation Alpha) subtitle</property>
  <property name="meta.media.4.codec.bit_rate">0</property>
  <property name="meta.attr.4.stream.language.markup">eng</property>
  <property name="meta.attr.4.stream.title.markup">English (Titles &amp; Signs) ASS</property>
  <property name="meta.attr.4.stream.BPS.markup">1</property>
  <property name="meta.attr.4.stream.DURATION.markup">00:21:44.010000000</property>
  <property name="meta.attr.4.stream.NUMBER_OF_FRAMES.markup">3</property>
  <property name="meta.attr.4.stream.NUMBER_OF_BYTES.markup">191</property>
  <property name="meta.attr.4.stream._STATISTICS_WRITING_APP.markup">mkvmerge v61.0.0 ('So') 64-bit</property>
  <property name="meta.attr.4.stream._STATISTICS_WRITING_DATE_UTC.markup">2022-10-15 07:56:27</property>
  <property name="meta.attr.4.stream._STATISTICS_TAGS.markup">BPS DURATION NUMBER_OF_FRAMES NUMBER_OF_BYTES</property>
  <property name="meta.media.5.codec.name">ssa</property>
  <property name="meta.media.5.codec.long_name">ASS (Advanced SubStation Alpha) subtitle</property>
  <property name="meta.media.5.codec.bit_rate">0</property>
  <property name="meta.attr.5.stream.language.markup">ara</property>
  <property name="meta.attr.5.stream.title.markup">Arabic</property>
  <property name="meta.attr.5.stream.BPS.markup">90</property>
  <property name="meta.attr.5.stream.DURATION.markup">00:22:20.770000000</property>
  <property name="meta.attr.5.stream.NUMBER_OF_FRAMES.markup">264</property>
  <property name="meta.attr.5.stream.NUMBER_OF_BYTES.markup">15190</property>
  <property name="meta.attr.5.stream._STATISTICS_WRITING_APP.markup">mkvmerge v61.0.0 ('So') 64-bit</property>
  <property name="meta.attr.5.stream._STATISTICS_WRITING_DATE_UTC.markup">2022-10-15 07:56:27</property>
  <property name="meta.attr.5.stream._STATISTICS_TAGS.markup">BPS DURATION NUMBER_OF_FRAMES NUMBER_OF_BYTES</property>
  <property name="meta.attr.title.markup">Monster : Chapter 07 : Mansion Of Tragedy</property>
  <property name="meta.attr.encoder.markup">libebml v1.4.2 + libmatroska v1.6.4</property>
  <property name="meta.attr.creation_time.markup">2022-10-15T07:56:27.000000Z</property>
  <property name="seekable">1</property>
  <property name="meta.media.sample_aspect_num">1</property>
  <property name="meta.media.sample_aspect_den">1</property>
  <property name="aspect_ratio">1</property>
  <property name="kdenlive:clipname"/>
  <property name="kdenlive:clip_type">0</property>
  <property name="kdenlive:folderid">-1</property>
  <property name="kdenlive:id">4</property>
  <property name="kdenlive:active_streams">1;2</property>
  <property name="kdenlive:file_size">429931651</property>
  <property name="kdenlive:file_hash">193fc345bd5971e8a2bf1cfee4681626</property>
  <property name="meta.media.frame_rate_num">24000</property>
  <property name="meta.media.frame_rate_den">1001</property>
  <property name="meta.media.colorspace">709</property>
  <property name="meta.media.color_trc">1</property>
  <property name="meta.media.has_b_frames">2</property>
  <property name="meta.media.width">1440</property>
  <property name="meta.media.height">1080</property>
  <property name="meta.media.color_range">mpeg</property>
  <property name="meta.media.top_field_first">0</property>
  <property name="meta.media.progressive">1</property>
  <property name="kdenlive:audio_max1">178</property>
  <property name="kdenlive:audio_max2">207</property>
  <property name="kdenlive:control_uuid">{f6a7a0b1-dd02-4ebf-b54a-da71ba6720db}</property>
 </chain>
 <chain id="producer2" out="00:24:09.593">
  <property name="length">34756</property>
  <property name="eof">pause</property>
  <property name="resource">/mnt/data0/Monster/Monster-Editing/Orig/Monster - Chapter 08 - The Fugitive.mkv</property>
  <property name="mlt_service">avformat-novalidate</property>
  <property name="audio_index">1</property>
  <property name="video_index">0</property>
  <property name="meta.media.nb_streams">24</property>
  <property name="meta.media.0.stream.type">video</property>
  <property name="meta.media.0.stream.frame_rate">23.976</property>
  <property name="meta.media.0.stream.sample_aspect_ratio">1</property>
  <property name="meta.media.0.codec.width">1440</property>
  <property name="meta.media.0.codec.height">1080</property>
  <property name="meta.media.0.codec.rotate">0</property>
  <property name="meta.media.0.codec.pix_fmt">yuv420p10le</property>
  <property name="meta.media.0.codec.sample_aspect_ratio">1</property>
  <property name="meta.media.0.codec.colorspace">709</property>
  <property name="meta.media.0.codec.color_trc">1</property>
  <property name="meta.media.0.codec.name">hevc</property>
  <property name="meta.media.0.codec.long_name">HEVC (High Efficiency Video Coding)</property>
  <property name="meta.media.0.codec.bit_rate">0</property>
  <property name="meta.attr.0.stream.BPS.markup">2133702</property>
  <property name="meta.attr.0.stream.DURATION.markup">00:24:09.615000000</property>
  <property name="meta.attr.0.stream.NUMBER_OF_FRAMES.markup">34756</property>
  <property name="meta.attr.0.stream.NUMBER_OF_BYTES.markup">386630926</property>
  <property name="meta.attr.0.stream._STATISTICS_WRITING_APP.markup">mkvmerge v61.0.0 ('So') 64-bit</property>
  <property name="meta.attr.0.stream._STATISTICS_WRITING_DATE_UTC.markup">2022-10-15 08:00:42</property>
  <property name="meta.attr.0.stream._STATISTICS_TAGS.markup">BPS DURATION NUMBER_OF_FRAMES NUMBER_OF_BYTES</property>
  <property name="meta.media.1.stream.type">audio</property>
  <property name="meta.media.1.codec.sample_fmt">fltp</property>
  <property name="meta.media.1.codec.sample_rate">48000</property>
  <property name="meta.media.1.codec.channels">2</property>
  <property name="meta.media.1.codec.name">ac3</property>
  <property name="meta.media.1.codec.long_name">ATSC A/52A (AC-3)</property>
  <property name="meta.media.1.codec.bit_rate">448000</property>
  <property name="meta.attr.1.stream.language.markup">jpn</property>
  <property name="meta.attr.1.stream.title.markup">Japanese DVD AC-3 DD_2.0</property>
  <property name="meta.attr.1.stream.BPS.markup">448000</property>
  <property name="meta.attr.1.stream.DURATION.markup">00:24:09.504000000</property>
  <property name="meta.attr.1.stream.NUMBER_OF_FRAMES.markup">45297</property>
  <property name="meta.attr.1.stream.NUMBER_OF_BYTES.markup">81172224</property>
  <property name="meta.attr.1.stream._STATISTICS_WRITING_APP.markup">mkvmerge v61.0.0 ('So') 64-bit</property>
  <property name="meta.attr.1.stream._STATISTICS_WRITING_DATE_UTC.markup">2022-10-15 08:00:42</property>
  <property name="meta.attr.1.stream._STATISTICS_TAGS.markup">BPS DURATION NUMBER_OF_FRAMES NUMBER_OF_BYTES</property>
  <property name="meta.media.2.stream.type">audio</property>
  <property name="meta.media.2.codec.sample_fmt">fltp</property>
  <property name="meta.media.2.codec.sample_rate">48000</property>
  <property name="meta.media.2.codec.channels">2</property>
  <property name="meta.media.2.codec.name">aac</property>
  <property name="meta.media.2.codec.long_name">AAC (Advanced Audio Coding)</property>
  <property name="meta.media.2.codec.bit_rate">0</property>
  <property name="meta.attr.2.stream.language.markup">eng</property>
  <property name="meta.attr.2.stream.title.markup">English AAC DD_2.0</property>
  <property name="meta.attr.2.stream.BPS.markup">162986</property>
  <property name="meta.attr.2.stream.DURATION.markup">00:23:54.837000000</property>
  <property name="meta.attr.2.stream.NUMBER_OF_FRAMES.markup">67258</property>
  <property name="meta.attr.2.stream.NUMBER_OF_BYTES.markup">29232317</property>
  <property name="meta.attr.2.stream._STATISTICS_WRITING_APP.markup">mkvmerge v61.0.0 ('So') 64-bit</property>
  <property name="meta.attr.2.stream._STATISTICS_WRITING_DATE_UTC.markup">2022-10-15 08:00:42</property>
  <property name="meta.attr.2.stream._STATISTICS_TAGS.markup">BPS DURATION NUMBER_OF_FRAMES NUMBER_OF_BYTES</property>
  <property name="meta.media.3.codec.name">ssa</property>
  <property name="meta.media.3.codec.long_name">ASS (Advanced SubStation Alpha) subtitle</property>
  <property name="meta.media.3.codec.bit_rate">0</property>
  <property name="meta.attr.3.stream.language.markup">eng</property>
  <property name="meta.attr.3.stream.title.markup">English (Full) ASS</property>
  <property name="meta.attr.3.stream.BPS.markup">78</property>
  <property name="meta.attr.3.stream.DURATION.markup">00:23:50.780000000</property>
  <property name="meta.attr.3.stream.NUMBER_OF_FRAMES.markup">243</property>
  <property name="meta.attr.3.stream.NUMBER_OF_BYTES.markup">13963</property>
  <property name="meta.attr.3.stream._STATISTICS_WRITING_APP.markup">mkvmerge v61.0.0 ('So') 64-bit</property>
  <property name="meta.attr.3.stream._STATISTICS_WRITING_DATE_UTC.markup">2022-10-15 08:00:42</property>
  <property name="meta.attr.3.stream._STATISTICS_TAGS.markup">BPS DURATION NUMBER_OF_FRAMES NUMBER_OF_BYTES</property>
  <property name="meta.media.4.codec.name">ssa</property>
  <property name="meta.media.4.codec.long_name">ASS (Advanced SubStation Alpha) subtitle</property>
  <property name="meta.media.4.codec.bit_rate">0</property>
  <property name="meta.attr.4.stream.language.markup">eng</property>
  <property name="meta.attr.4.stream.title.markup">English (Titles &amp; Signs) ASS</property>
  <property name="meta.attr.4.stream.BPS.markup">1</property>
  <property name="meta.attr.4.stream.DURATION.markup">00:20:21.470000000</property>
  <property name="meta.attr.4.stream.NUMBER_OF_FRAMES.markup">3</property>
  <property name="meta.attr.4.stream.NUMBER_OF_BYTES.markup">206</property>
  <property name="meta.attr.4.stream._STATISTICS_WRITING_APP.markup">mkvmerge v61.0.0 ('So') 64-bit</property>
  <property name="meta.attr.4.stream._STATISTICS_WRITING_DATE_UTC.markup">2022-10-15 08:00:42</property>
  <property name="meta.attr.4.stream._STATISTICS_TAGS.markup">BPS DURATION NUMBER_OF_FRAMES NUMBER_OF_BYTES</property>
  <property name="meta.media.5.codec.name">ssa</property>
  <property name="meta.media.5.codec.long_name">ASS (Advanced SubStation Alpha) subtitle</property>
  <property name="meta.media.5.codec.bit_rate">0</property>
  <property name="meta.attr.5.stream.language.markup">ara</property>
  <property name="meta.attr.5.stream.title.markup">Arabic</property>
  <property name="meta.attr.5.stream.BPS.markup">100</property>
  <property name="meta.attr.5.stream.DURATION.markup">00:22:19.090000000</property>
  <property name="meta.attr.5.stream.NUMBER_OF_FRAMES.markup">276</property>
  <property name="meta.attr.5.stream.NUMBER_OF_BYTES.markup">16770</property>
  <property name="meta.attr.5.stream._STATISTICS_WRITING_APP.markup">mkvmerge v61.0.0 ('So') 64-bit</property>
  <property name="meta.attr.5.stream._STATISTICS_WRITING_DATE_UTC.markup">2022-10-15 08:00:42</property>
  <property name="meta.attr.5.stream._STATISTICS_TAGS.markup">BPS DURATION NUMBER_OF_FRAMES NUMBER_OF_BYTES</property>
  <property name="meta.attr.title.markup">Monster : Chapter 08 : The Fugitive</property>
  <property name="meta.attr.encoder.markup">libebml v1.4.2 + libmatroska v1.6.4</property>
  <property name="meta.attr.creation_time.markup">2022-10-15T08:00:42.000000Z</property>
  <property name="seekable">1</property>
  <property name="meta.media.sample_aspect_num">1</property>
  <property name="meta.media.sample_aspect_den">1</property>
  <property name="aspect_ratio">1</property>
  <property name="kdenlive:clipname"/>
  <property name="kdenlive:clip_type">0</property>
  <property name="kdenlive:folderid">-1</property>
  <property name="kdenlive:id">5</property>
  <property name="kdenlive:active_streams">1;2</property>
  <property name="kdenlive:file_size">500794319</property>
  <property name="kdenlive:file_hash">7baa1e64253e2a58c8524a04ca41341f</property>
  <property name="meta.media.frame_rate_num">24000</property>
  <property name="meta.media.frame_rate_den">1001</property>
  <property name="meta.media.colorspace">709</property>
  <property name="meta.media.color_trc">1</property>
  <property name="meta.media.has_b_frames">2</property>
  <property name="meta.media.width">1440</property>
  <property name="meta.media.height">1080</property>
  <property name="meta.media.color_range">mpeg</property>
  <property name="meta.media.top_field_first">0</property>
  <property name="meta.media.progressive">1</property>
  <property name="kdenlive:audio_max1">176</property>
  <property name="kdenlive:audio_max2">195</property>
  <property name="kdenlive:control_uuid">{882dbd12-5ecb-417d-93ae-6af8bccfcc33}</property>
 </chain>
 <chain id="chain10" out="00:23:54.012">
  <property name="length">34382</property>
  <property name="eof">pause</property>
  <property name="resource">/mnt/data1/Anime-Edits/Monster/Monster-Editing/Audio/eng/Ep05.wav</property>
  <property name="mlt_service">avformat</property>
  <property name="meta.media.nb_streams">1</property>
  <property name="meta.media.0.stream.type">audio</property>
  <property name="meta.media.0.codec.sample_fmt">s16</property>
  <property name="meta.media.0.codec.sample_rate">48000</property>
  <property name="meta.media.0.codec.channels">2</property>
  <property name="meta.media.0.codec.name">pcm_s16le</property>
  <property name="meta.media.0.codec.long_name">PCM signed 16-bit little-endian</property>
  <property name="meta.media.0.codec.bit_rate">1536000</property>
  <property name="meta.attr.title.markup">Monster : Chapter 05 : The Girl From Heidelberg</property>
  <property name="meta.attr.encoder.markup">Lavf60.16.100</property>
  <property name="seekable">1</property>
  <property name="audio_index">0</property>
  <property name="video_index">-1</property>
  <property name="astream">0</property>
  <property name="kdenlive:proxy">-</property>
  <property name="kdenlive:originalurl">/mnt/data1/Anime-Edits/Monster/Monster-Editing/Audio/eng/Ep05.wav</property>
  <property name="kdenlive:id">6</property>
  <property name="kdenlive:clip_type">1</property>
  <property name="kdenlive:file_size">275331206</property>
  <property name="kdenlive:file_hash">381e2f8ea3cfd6ac11bffe9a3f4ce929</property>
  <property name="kdenlive:folderid">-1</property>
  <property name="kdenlive:audio_max0">162</property>
  <property name="kdenlive:control_uuid">{a4a50b0b-832d-46ca-8ecd-c223b032e17a}</property>
  <property name="meta.media.0.codec.layout">independent</property>
 </chain>
 <chain id="chain11" out="00:23:54.012">
  <property name="length">34382</property>
  <property name="eof">pause</property>
  <property name="resource">/mnt/data1/Anime-Edits/Monster/Monster-Editing/Audio/eng/Ep06.wav</property>
  <property name="mlt_service">avformat</property>
  <property name="meta.media.nb_streams">1</property>
  <property name="meta.media.0.stream.type">audio</property>
  <property name="meta.media.0.codec.sample_fmt">s16</property>
  <property name="meta.media.0.codec.sample_rate">48000</property>
  <property name="meta.media.0.codec.channels">2</property>
  <property name="meta.media.0.codec.name">pcm_s16le</property>
  <property name="meta.media.0.codec.long_name">PCM signed 16-bit little-endian</property>
  <property name="meta.media.0.codec.bit_rate">1536000</property>
  <property name="meta.attr.title.markup">Monster : Chapter 06 : Disappearance Report</property>
  <property name="meta.attr.encoder.markup">Lavf60.16.100</property>
  <property name="seekable">1</property>
  <property name="audio_index">0</property>
  <property name="video_index">-1</property>
  <property name="astream">0</property>
  <property name="kdenlive:proxy">-</property>
  <property name="kdenlive:originalurl">/mnt/data1/Anime-Edits/Monster/Monster-Editing/Audio/eng/Ep06.wav</property>
  <property name="kdenlive:id">7</property>
  <property name="kdenlive:clip_type">1</property>
  <property name="kdenlive:file_size">275331202</property>
  <property name="kdenlive:file_hash">a62316b6d1c6ac85fe1a7c72332ddcb0</property>
  <property name="kdenlive:folderid">-1</property>
  <property name="kdenlive:audio_max0">165</property>
  <property name="kdenlive:control_uuid">{508f70ea-baae-4851-94da-26712051a07e}</property>
  <property name="meta.media.0.codec.layout">independent</property>
 </chain>
 <chain id="chain12" out="00:23:54.012">
  <property name="length">34382</property>
  <property name="eof">pause</property>
  <property name="resource">/mnt/data1/Anime-Edits/Monster/Monster-Editing/Audio/eng/Ep07.wav</property>
  <property name="mlt_service">avformat</property>
  <property name="meta.media.nb_streams">1</property>
  <property name="meta.media.0.stream.type">audio</property>
  <property name="meta.media.0.codec.sample_fmt">s16</property>
  <property name="meta.media.0.codec.sample_rate">48000</property>
  <property name="meta.media.0.codec.channels">2</property>
  <property name="meta.media.0.codec.name">pcm_s16le</property>
  <property name="meta.media.0.codec.long_name">PCM signed 16-bit little-endian</property>
  <property name="meta.media.0.codec.bit_rate">1536000</property>
  <property name="meta.attr.title.markup">Monster : Chapter 07 : Mansion Of Tragedy</property>
  <property name="meta.attr.encoder.markup">Lavf60.16.100</property>
  <property name="seekable">1</property>
  <property name="audio_index">0</property>
  <property name="video_index">-1</property>
  <property name="astream">0</property>
  <property name="kdenlive:proxy">-</property>
  <property name="kdenlive:originalurl">/mnt/data1/Anime-Edits/Monster/Monster-Editing/Audio/eng/Ep07.wav</property>
  <property name="kdenlive:id">8</property>
  <property name="kdenlive:clip_type">1</property>
  <property name="kdenlive:file_size">275331200</property>
  <property name="kdenlive:file_hash">8ea371e8ac238aef120a067bcaeb08e9</property>
  <property name="kdenlive:folderid">-1</property>
  <property name="kdenlive:audio_max0">157</property>
  <property name="kdenlive:control_uuid">{6e83f6e1-4d5c-4a11-8e2d-e6ea2e05ecf0}</property>
  <property name="meta.media.0.codec.layout">independent</property>
 </chain>
 <chain id="chain13" out="00:23:53.011">
  <property name="length">34358</property>
  <property name="eof">pause</property>
  <property name="resource">/mnt/data1/Anime-Edits/Monster/Monster-Editing/Audio/eng/Ep08.wav</property>
  <property name="mlt_service">avformat</property>
  <property name="meta.media.nb_streams">1</property>
  <property name="meta.media.0.stream.type">audio</property>
  <property name="meta.media.0.codec.sample_fmt">s16</property>
  <property name="meta.media.0.codec.sample_rate">48000</property>
  <property name="meta.media.0.codec.channels">2</property>
  <property name="meta.media.0.codec.name">pcm_s16le</property>
  <property name="meta.media.0.codec.long_name">PCM signed 16-bit little-endian</property>
  <property name="meta.media.0.codec.bit_rate">1536000</property>
  <property name="meta.attr.title.markup">Monster : Chapter 08 : The Fugitive</property>
  <property name="meta.attr.encoder.markup">Lavf60.16.100</property>
  <property name="seekable">1</property>
  <property name="audio_index">0</property>
  <property name="video_index">-1</property>
  <property name="astream">0</property>
  <property name="kdenlive:proxy">-</property>
  <property name="kdenlive:originalurl">/mnt/data1/Anime-Edits/Monster/Monster-Editing/Audio/eng/Ep08.wav</property>
  <property name="kdenlive:id">9</property>
  <property name="kdenlive:clip_type">1</property>
  <property name="kdenlive:file_size">275140730</property>
  <property name="kdenlive:file_hash">8ace66b30bce6cc8c4721c0272660e9d</property>
  <property name="kdenlive:folderid">-1</property>
  <property name="kdenlive:audio_max0">168</property>
  <property name="kdenlive:control_uuid">{70827727-e7db-4018-90db-7ca8eb12d3ce}</property>
  <property name="meta.media.0.codec.layout">independent</property>
 </chain>
 <chain id="producer8" out="00:01:40.040">
  <property name="length">2399</property>
  <property name="eof">pause</property>
  <property name="resource">/mnt/data0/Monster/Monster-Editing/ClipsnRandom/08 gingerly.mp3</property>
  <property name="mlt_service">avformat</property>
  <property name="meta.media.nb_streams">1</property>
  <property name="meta.media.0.stream.type">audio</property>
  <property name="meta.media.0.codec.sample_fmt">fltp</property>
  <property name="meta.media.0.codec.sample_rate">44100</property>
  <property name="meta.media.0.codec.channels">2</property>
  <property name="meta.media.0.codec.name">mp3float</property>
  <property name="meta.media.0.codec.long_name">MP3 (MPEG audio layer 3)</property>
  <property name="meta.media.0.codec.bit_rate">192000</property>
  <property name="meta.attr.0.stream.encoder.markup">LAME3.95 </property>
  <property name="meta.attr.title.markup">gingerly</property>
  <property name="meta.attr.album.markup">MONSTER OST</property>
  <property name="meta.attr.encoded_by.markup">SuperTagEditor Ver 2.00À7</property>
  <property name="meta.attr.track.markup">8</property>
  <property name="meta.attr.comment.markup">2004.06.23@smm/wbs</property>
  <property name="meta.attr.artist.markup">MONSTER OST</property>
  <property name="meta.attr.genre.markup">#NIPPONSEI @ IRC.RIZON.NET</property>
  <property name="meta.attr.lyrics-jpn.markup">#NIPPONSEI @ IRC.RIZON.NET</property>
  <property name="meta.attr.date.markup">2004</property>
  <property name="seekable">1</property>
  <property name="audio_index">0</property>
  <property name="video_index">-1</property>
  <property name="kdenlive:clipname"/>
  <property name="kdenlive:clip_type">1</property>
  <property name="kdenlive:folderid">-1</property>
  <property name="kdenlive:id">10</property>
  <property name="kdenlive:file_size">2404641</property>
  <property name="kdenlive:file_hash">096458fde1e79313cf09695547e5dbac</property>
  <property name="kdenlive:audio_max0">203</property>
  <property name="astream">0</property>
  <property name="kdenlive:control_uuid">{173371ec-16fe-4ddd-b671-e949c3332792}</property>
  <property name="meta.media.0.codec.layout">stereo</property>
 </chain>
 <producer id="producer4" in="00:00:00.000" out="01:20:02.002">
  <property name="length">2147483647</property>
  <property name="eof">continue</property>
  <property name="resource">black</property>
  <property name="aspect_ratio">1</property>
  <property name="mlt_service">color</property>
  <property name="kdenlive:playlistid">black_track</property>
  <property name="mlt_image_format">rgba</property>
  <property name="set.test_audio">0</property>
 </producer>
 <chain id="chain0" out="00:23:54.012">
  <property name="length">34382</property>
  <property name="eof">pause</property>
  <property name="resource">/mnt/data1/Anime-Edits/Monster/Monster-Editing/Audio/eng/Ep07.wav</property>
  <property name="mlt_service">avformat-novalidate</property>
  <property name="seekable">1</property>
  <property name="audio_index">0</property>
  <property name="video_index">-1</property>
  <property name="astream">0</property>
  <property name="kdenlive:proxy">-</property>
  <property name="kdenlive:originalurl">/mnt/data1/Anime-Edits/Monster/Monster-Editing/Audio/eng/Ep07.wav</property>
  <property name="kdenlive:id">8</property>
  <property name="kdenlive:clip_type">1</property>
  <property name="kdenlive:file_size">275331200</property>
  <property name="kdenlive:file_hash">8ea371e8ac238aef120a067bcaeb08e9</property>
  <property name="kdenlive:folderid">-1</property>
  <property name="kdenlive:audio_max0">157</property>
  <property name="meta.media.nb_streams">1</property>
  <property name="meta.media.0.stream.type">audio</property>
  <property name="meta.media.0.codec.sample_fmt">s16</property>
  <property name="meta.media.0.codec.sample_rate">48000</property>
  <property name="meta.media.0.codec.channels">2</property>
  <property name="meta.media.0.codec.name">pcm_s16le</property>
  <property name="meta.media.0.codec.long_name">PCM signed 16-bit little-endian</property>
  <property name="meta.media.0.codec.bit_rate">1536000</property>
  <property name="meta.attr.title.markup">Monster : Chapter 07 : Mansion Of Tragedy</property>
  <property name="meta.attr.encoder.markup">Lavf60.16.100</property>
  <property name="xml">was here</property>
  <property name="mute_on_pause">0</property>
  <property name="set.test_audio">0</property>
  <property name="set.test_image">1</property>
  <property name="kdenlive:control_uuid">{6e83f6e1-4d5c-4a11-8e2d-e6ea2e05ecf0}</property>
  <property name="meta.media.0.codec.layout">independent</property>
 </chain>
 <chain id="chain1" out="00:01:40.040">
  <property name="length">2399</property>
  <property name="eof">pause</property>
  <property name="resource">/mnt/data0/Monster/Monster-Editing/ClipsnRandom/08 gingerly.mp3</property>
  <property name="mlt_service">avformat-novalidate</property>
  <property name="audio_index">0</property>
  <property name="video_index">-1</property>
  <property name="meta.media.nb_streams">1</property>
  <property name="meta.media.0.stream.type">audio</property>
  <property name="meta.media.0.codec.sample_fmt">fltp</property>
  <property name="meta.media.0.codec.sample_rate">44100</property>
  <property name="meta.media.0.codec.channels">2</property>
  <property name="meta.media.0.codec.name">mp3float</property>
  <property name="meta.media.0.codec.long_name">MP3 (MPEG audio layer 3)</property>
  <property name="meta.media.0.codec.bit_rate">192000</property>
  <property name="meta.attr.0.stream.encoder.markup">LAME3.95 </property>
  <property name="meta.attr.title.markup">gingerly</property>
  <property name="meta.attr.album.markup">MONSTER OST</property>
  <property name="meta.attr.encoded_by.markup">SuperTagEditor Ver 2.00À7</property>
  <property name="meta.attr.track.markup">8</property>
  <property name="meta.attr.comment.markup">2004.06.23@smm/wbs</property>
  <property name="meta.attr.artist.markup">MONSTER OST</property>
  <property name="meta.attr.genre.markup">#NIPPONSEI @ IRC.RIZON.NET</property>
  <property name="meta.attr.lyrics-jpn.markup">#NIPPONSEI @ IRC.RIZON.NET</property>
  <property name="meta.attr.date.markup">2004</property>
  <property name="seekable">1</property>
  <property name="kdenlive:clipname"/>
  <property name="kdenlive:clip_type">1</property>
  <property name="kdenlive:folderid">-1</property>
  <property name="kdenlive:id">10</property>
  <property name="kdenlive:file_size">2404641</property>
  <property name="kdenlive:file_hash">096458fde1e79313cf09695547e5dbac</property>
  <property name="kdenlive:audio_max0">203</property>
  <property name="xml">was here</property>
  <property name="set.test_audio">0</property>
  <property name="set.test_image">1</property>
  <property name="astream">0</property>
  <property name="kdenlive:control_uuid">{173371ec-16fe-4ddd-b671-e949c3332792}</property>
  <property name="meta.media.0.codec.layout">stereo</property>
 </chain>
 <playlist id="playlist0">
  <property name="kdenlive:audio_track">1</property>
  <blank length="00:48:27.277"/>
  <entry in="00:11:36.203" out="00:11:53.178" producer="chain0">
   <property name="kdenlive:id">8</property>
   <filter id="filter107" in="00:11:36.203" out="00:11:37.829">
    <property name="window">75</property>
    <property name="max_gain">20dB</property>
    <property name="mlt_service">volume</property>
    <property name="kdenlive_id">fadein</property>
    <property name="gain">0</property>
    <property name="end">1</property>
    <property name="kdenlive:collapsed">0</property>
   </filter>
  </entry>
  <blank length="00:04:18.518"/>
  <entry in="00:00:00.000" out="00:01:10.302" producer="chain1">
   <property name="kdenlive:id">10</property>
   <filter id="filter0">
    <property name="window">75</property>
    <property name="max_gain">20dB</property>
    <property name="mlt_service">volume</property>
    <property name="kdenlive_id">gain</property>
    <property name="gain">0.12</property>
    <property name="kdenlive:collapsed">0</property>
   </filter>
   <filter id="filter1" in="00:01:05.214" out="00:01:10.302">
    <property name="window">75</property>
    <property name="max_gain">20dB</property>
    <property name="mlt_service">volume</property>
    <property name="kdenlive_id">fadeout</property>
    <property name="gain">1</property>
    <property name="end">0</property>
    <property name="kdenlive:collapsed">0</property>
   </filter>
   <filter id="filter2" out="00:00:03.962">
    <property name="window">75</property>
    <property name="max_gain">20dB</property>
    <property name="mlt_service">volume</property>
    <property name="kdenlive_id">fadein</property>
    <property name="gain">0</property>
    <property name="end">1</property>
    <property name="kdenlive:collapsed">0</property>
   </filter>
  </entry>
 </playlist>
 <playlist id="playlist1">
  <property name="kdenlive:audio_track">1</property>
 </playlist>
 <tractor id="tractor0" in="00:00:00.000" out="00:54:13.055">
  <property name="kdenlive:audio_track">1</property>
  <property name="kdenlive:trackheight">67</property>
  <property name="kdenlive:timeline_active">1</property>
  <property name="kdenlive:collapsed">0</property>
  <property name="kdenlive:thumbs_format"/>
  <property name="kdenlive:audio_rec"/>
  <track hide="video" producer="playlist0"/>
  <track hide="video" producer="playlist1"/>
  <filter id="filter3">
   <property name="window">75</property>
   <property name="max_gain">20dB</property>
   <property name="mlt_service">volume</property>
   <property name="internal_added">237</property>
   <property name="disable">1</property>
  </filter>
  <filter id="filter4">
   <property name="channel">-1</property>
   <property name="mlt_service">panner</property>
   <property name="internal_added">237</property>
   <property name="start">0.5</property>
   <property name="disable">1</property>
  </filter>
  <filter id="filter5">
   <property name="iec_scale">0</property>
   <property name="mlt_service">audiolevel</property>
   <property name="dbpeak">1</property>
   <property name="disable">1</property>
  </filter>
 </tractor>
 <chain id="chain2" out="00:23:54.012">
  <property name="length">34382</property>
  <property name="eof">pause</property>
  <property name="resource">/mnt/data1/Anime-Edits/Monster/Monster-Editing/Audio/eng/Ep05.wav</property>
  <property name="mlt_service">avformat-novalidate</property>
  <property name="seekable">1</property>
  <property name="audio_index">0</property>
  <property name="video_index">-1</property>
  <property name="astream">0</property>
  <property name="kdenlive:proxy">-</property>
  <property name="kdenlive:originalurl">/mnt/data1/Anime-Edits/Monster/Monster-Editing/Audio/eng/Ep05.wav</property>
  <property name="kdenlive:id">6</property>
  <property name="kdenlive:clip_type">1</property>
  <property name="kdenlive:file_size">275331206</property>
  <property name="kdenlive:file_hash">381e2f8ea3cfd6ac11bffe9a3f4ce929</property>
  <property name="kdenlive:folderid">-1</property>
  <property name="meta.media.nb_streams">1</property>
  <property name="meta.media.0.stream.type">audio</property>
  <property name="meta.media.0.codec.sample_fmt">s16</property>
  <property name="meta.media.0.codec.sample_rate">48000</property>
  <property name="meta.media.0.codec.channels">2</property>
  <property name="meta.media.0.codec.name">pcm_s16le</property>
  <property name="meta.media.0.codec.long_name">PCM signed 16-bit little-endian</property>
  <property name="meta.media.0.codec.bit_rate">1536000</property>
  <property name="meta.attr.title.markup">Monster : Chapter 05 : The Girl From Heidelberg</property>
  <property name="meta.attr.encoder.markup">Lavf60.16.100</property>
  <property name="xml">was here</property>
  <property name="mute_on_pause">0</property>
  <property name="set.test_audio">0</property>
  <property name="set.test_image">1</property>
  <property name="kdenlive:control_uuid">{a4a50b0b-832d-46ca-8ecd-c223b032e17a}</property>
  <property name="meta.media.0.codec.layout">independent</property>
 </chain>
 <chain id="chain3" out="00:23:54.012">
  <property name="length">34382</property>
  <property name="eof">pause</property>
  <property name="resource">/mnt/data1/Anime-Edits/Monster/Monster-Editing/Audio/eng/Ep06.wav</property>
  <property name="mlt_service">avformat-novalidate</property>
  <property name="seekable">1</property>
  <property name="audio_index">0</property>
  <property name="video_index">-1</property>
  <property name="astream">0</property>
  <property name="kdenlive:proxy">-</property>
  <property name="kdenlive:originalurl">/mnt/data1/Anime-Edits/Monster/Monster-Editing/Audio/eng/Ep06.wav</property>
  <property name="kdenlive:id">7</property>
  <property name="kdenlive:clip_type">1</property>
  <property name="kdenlive:file_size">275331202</property>
  <property name="kdenlive:file_hash">a62316b6d1c6ac85fe1a7c72332ddcb0</property>
  <property name="kdenlive:folderid">-1</property>
  <property name="meta.media.nb_streams">1</property>
  <property name="meta.media.0.stream.type">audio</property>
  <property name="meta.media.0.codec.sample_fmt">s16</property>
  <property name="meta.media.0.codec.sample_rate">48000</property>
  <property name="meta.media.0.codec.channels">2</property>
  <property name="meta.media.0.codec.name">pcm_s16le</property>
  <property name="meta.media.0.codec.long_name">PCM signed 16-bit little-endian</property>
  <property name="meta.media.0.codec.bit_rate">1536000</property>
  <property name="meta.attr.title.markup">Monster : Chapter 06 : Disappearance Report</property>
  <property name="meta.attr.encoder.markup">Lavf60.16.100</property>
  <property name="xml">was here</property>
  <property name="mute_on_pause">0</property>
  <property name="set.test_audio">0</property>
  <property name="set.test_image">1</property>
  <property name="kdenlive:control_uuid">{508f70ea-baae-4851-94da-26712051a07e}</property>
  <property name="meta.media.0.codec.layout">independent</property>
 </chain>
 <chain id="chain4" out="00:23:54.012">
  <property name="length">34382</property>
  <property name="eof">pause</property>
  <property name="resource">/mnt/data1/Anime-Edits/Monster/Monster-Editing/Audio/eng/Ep07.wav</property>
  <property name="mlt_service">avformat-novalidate</property>
  <property name="seekable">1</property>
  <property name="audio_index">0</property>
  <property name="video_index">-1</property>
  <property name="astream">0</property>
  <property name="kdenlive:proxy">-</property>
  <property name="kdenlive:originalurl">/mnt/data1/Anime-Edits/Monster/Monster-Editing/Audio/eng/Ep07.wav</property>
  <property name="kdenlive:id">8</property>
  <property name="kdenlive:clip_type">1</property>
  <property name="kdenlive:file_size">275331200</property>
  <property name="kdenlive:file_hash">8ea371e8ac238aef120a067bcaeb08e9</property>
  <property name="kdenlive:folderid">-1</property>
  <property name="meta.media.nb_streams">1</property>
  <property name="meta.media.0.stream.type">audio</property>
  <property name="meta.media.0.codec.sample_fmt">s16</property>
  <property name="meta.media.0.codec.sample_rate">48000</property>
  <property name="meta.media.0.codec.channels">2</property>
  <property name="meta.media.0.codec.name">pcm_s16le</property>
  <property name="meta.media.0.codec.long_name">PCM signed 16-bit little-endian</property>
  <property name="meta.media.0.codec.bit_rate">1536000</property>
  <property name="meta.attr.title.markup">Monster : Chapter 07 : Mansion Of Tragedy</property>
  <property name="meta.attr.encoder.markup">Lavf60.16.100</property>
  <property name="xml">was here</property>
  <property name="mute_on_pause">0</property>
  <property name="set.test_audio">0</property>
  <property name="set.test_image">1</property>
  <property name="kdenlive:control_uuid">{6e83f6e1-4d5c-4a11-8e2d-e6ea2e05ecf0}</property>
  <property name="meta.media.0.codec.layout">independent</property>
 </chain>
 <chain id="chain5" out="00:23:53.011">
  <property name="length">34358</property>
  <property name="eof">pause</property>
  <property name="resource">/mnt/data1/Anime-Edits/Monster/Monster-Editing/Audio/eng/Ep08.wav</property>
  <property name="mlt_service">avformat-novalidate</property>
  <property name="seekable">1</property>
  <property name="audio_index">0</property>
  <property name="video_index">-1</property>
  <property name="astream">0</property>
  <property name="kdenlive:proxy">-</property>
  <property name="kdenlive:originalurl">/mnt/data1/Anime-Edits/Monster/Monster-Editing/Audio/eng/Ep08.wav</property>
  <property name="kdenlive:id">9</property>
  <property name="kdenlive:clip_type">1</property>
  <property name="kdenlive:file_size">275140730</property>
  <property name="kdenlive:file_hash">8ace66b30bce6cc8c4721c0272660e9d</property>
  <property name="kdenlive:folderid">-1</property>
  <property name="meta.media.nb_streams">1</property>
  <property name="meta.media.0.stream.type">audio</property>
  <property name="meta.media.0.codec.sample_fmt">s16</property>
  <property name="meta.media.0.codec.sample_rate">48000</property>
  <property name="meta.media.0.codec.channels">2</property>
  <property name="meta.media.0.codec.name">pcm_s16le</property>
  <property name="meta.media.0.codec.long_name">PCM signed 16-bit little-endian</property>
  <property name="meta.media.0.codec.bit_rate">1536000</property>
  <property name="meta.attr.title.markup">Monster : Chapter 08 : The Fugitive</property>
  <property name="meta.attr.encoder.markup">Lavf60.16.100</property>
  <property name="xml">was here</property>
  <property name="mute_on_pause">0</property>
  <property name="set.test_audio">0</property>
  <property name="set.test_image">1</property>
  <property name="kdenlive:control_uuid">{70827727-e7db-4018-90db-7ca8eb12d3ce}</property>
  <property name="meta.media.0.codec.layout">independent</property>
 </chain>
 <playlist id="playlist2">
  <property name="kdenlive:audio_track">1</property>
  <entry in="00:00:00.000" out="00:00:19.728" producer="chain2">
   <property name="kdenlive:id">6</property>
   <filter id="filter6" in="00:00:19.228" out="00:00:19.728">
    <property name="window">75</property>
    <property name="max_gain">20dB</property>
    <property name="mlt_service">volume</property>
    <property name="kdenlive_id">fadeout</property>
    <property name="gain">1</property>
    <property name="end">0</property>
    <property name="kdenlive:collapsed">0</property>
   </filter>
  </entry>
  <blank length="00:00:01.084"/>
  <entry in="00:00:19.019" out="00:00:24.483" producer="chain2">
   <property name="kdenlive:id">6</property>
   <filter id="filter7" in="00:00:19.019" out="00:00:19.478">
    <property name="window">75</property>
    <property name="max_gain">20dB</property>
    <property name="mlt_service">volume</property>
    <property name="kdenlive_id">fadein</property>
    <property name="gain">0</property>
    <property name="end">1</property>
    <property name="kdenlive:collapsed">0</property>
   </filter>
  </entry>
  <blank length="00:00:47.673"/>
  <entry in="00:01:16.516" out="00:01:53.345" producer="chain2">
   <property name="kdenlive:id">6</property>
   <filter id="filter8" in="00:01:16.516" out="00:01:16.892">
    <property name="window">75</property>
    <property name="max_gain">20dB</property>
    <property name="mlt_service">volume</property>
    <property name="kdenlive_id">fadein</property>
    <property name="gain">0</property>
    <property name="end">1</property>
   </filter>
  </entry>
  <blank length="00:00:09.051"/>
  <entry in="00:03:19.102" out="00:05:39.873" producer="chain2">
   <property name="kdenlive:id">6</property>
   <filter id="filter9" in="00:05:39.456" out="00:05:39.873">
    <property name="window">75</property>
    <property name="max_gain">20dB</property>
    <property name="mlt_service">volume</property>
    <property name="kdenlive_id">fadeout</property>
    <property name="gain">1</property>
    <property name="end">0</property>
   </filter>
  </entry>
  <blank length="00:00:09.218"/>
  <entry in="00:05:52.302" out="00:08:04.755" producer="chain2">
   <property name="kdenlive:id">6</property>
   <filter id="filter10" in="00:05:52.302" out="00:05:55.305">
    <property name="window">75</property>
    <property name="max_gain">20dB</property>
    <property name="mlt_service">volume</property>
    <property name="kdenlive_id">fadein</property>
    <property name="gain">0</property>
    <property name="end">1</property>
   </filter>
   <filter id="filter11" in="00:08:04.338" out="00:08:04.755">
    <property name="window">75</property>
    <property name="max_gain">20dB</property>
    <property name="mlt_service">volume</property>
    <property name="kdenlive_id">fadeout</property>
    <property name="gain">1</property>
    <property name="end">0</property>
   </filter>
  </entry>
  <blank length="00:04:58.642"/>
  <entry in="00:13:16.934" out="00:17:34.743" producer="chain2">
   <property name="kdenlive:id">6</property>
  </entry>
  <blank length="00:02:12.095"/>
  <entry in="00:19:58.809" out="00:20:05.631" producer="chain2">
   <property name="kdenlive:id">6</property>
   <filter id="filter12" in="00:19:58.809" out="00:19:59.059">
    <property name="window">75</property>
    <property name="max_gain">20dB</property>
    <property name="mlt_service">volume</property>
    <property name="kdenlive_id">fadein</property>
    <property name="gain">0</property>
    <property name="end">1</property>
    <property name="kdenlive:collapsed">0</property>
   </filter>
   <filter id="filter13" in="00:20:04.546" out="00:20:05.631">
    <property name="window">75</property>
    <property name="max_gain">20dB</property>
    <property name="mlt_service">volume</property>
    <property name="kdenlive_id">fadeout</property>
    <property name="gain">1</property>
    <property name="end">0</property>
   </filter>
  </entry>
  <blank length="00:00:02.211"/>
  <entry in="00:20:18.518" out="00:21:00.417" producer="chain2">
   <property name="kdenlive:id">6</property>
   <filter id="filter14" in="00:20:18.518" out="00:20:19.269">
    <property name="window">75</property>
    <property name="max_gain">20dB</property>
    <property name="mlt_service">volume</property>
    <property name="kdenlive_id">fadein</property>
    <property name="gain">0</property>
    <property name="end">1</property>
    <property name="kdenlive:collapsed">0</property>
   </filter>
   <filter id="filter15" in="00:20:58.433" out="00:21:00.417">
    <property name="window">75</property>
    <property name="max_gain">20dB</property>
    <property name="mlt_service">volume</property>
    <property name="kdenlive_id">fadeout</property>
    <property name="gain">1</property>
    <property name="end">0</property>
   </filter>
  </entry>
  <blank length="00:00:29.613"/>
  <entry in="00:22:02.294" out="00:22:09.760" producer="chain2">
   <property name="kdenlive:id">6</property>
   <filter id="filter16" in="00:22:02.294" out="00:22:04.129">
    <property name="window">75</property>
    <property name="max_gain">20dB</property>
    <property name="mlt_service">volume</property>
    <property name="kdenlive_id">fadein</property>
    <property name="gain">0</property>
    <property name="end">1</property>
   </filter>
   <filter id="filter17" in="00:22:07.299" out="00:22:09.760">
    <property name="window">75</property>
    <property name="max_gain">20dB</property>
    <property name="mlt_service">volume</property>
    <property name="kdenlive_id">fadeout</property>
    <property name="gain">1</property>
    <property name="end">0</property>
   </filter>
  </entry>
  <entry in="00:22:15.349" out="00:22:27.236" producer="chain2">
   <property name="kdenlive:id">6</property>
   <filter id="filter18" in="00:22:15.349" out="00:22:15.682">
    <property name="window">75</property>
    <property name="max_gain">20dB</property>
    <property name="mlt_service">volume</property>
    <property name="kdenlive_id">fadein</property>
    <property name="gain">0</property>
    <property name="end">1</property>
    <property name="kdenlive:collapsed">0</property>
   </filter>
  </entry>
  <blank length="00:02:52.010"/>
  <entry in="00:02:52.427" out="00:03:52.302" producer="chain3">
   <property name="kdenlive:id">7</property>
   <filter id="filter19" in="00:02:52.427" out="00:02:52.552">
    <property name="window">75</property>
    <property name="max_gain">20dB</property>
    <property name="mlt_service">volume</property>
    <property name="kdenlive_id">fadein</property>
    <property name="gain">0</property>
    <property name="end">1</property>
    <property name="kdenlive:collapsed">0</property>
   </filter>
  </entry>
  <blank length="00:00:36.954"/>
  <entry in="00:05:57.975" out="00:06:31.240" producer="chain3">
   <property name="kdenlive:id">7</property>
   <filter id="filter20" in="00:05:57.975" out="00:06:00.000">
    <property name="window">75</property>
    <property name="max_gain">20dB</property>
    <property name="mlt_service">volume</property>
    <property name="kdenlive_id">fadein</property>
    <property name="gain">0</property>
    <property name="end">1</property>
    <property name="kdenlive:collapsed">0</property>
   </filter>
   <filter id="filter21" in="00:06:30.364" out="00:06:31.240">
    <property name="window">75</property>
    <property name="max_gain">20dB</property>
    <property name="mlt_service">volume</property>
    <property name="kdenlive_id">fadeout</property>
    <property name="gain">1</property>
    <property name="end">0</property>
    <property name="kdenlive:collapsed">0</property>
   </filter>
  </entry>
  <blank length="00:03:22.940"/>
  <entry in="00:10:08.175" out="00:11:06.048" producer="chain3">
   <property name="kdenlive:id">7</property>
   <filter id="filter22" in="00:10:08.175" out="00:10:08.967">
    <property name="window">75</property>
    <property name="max_gain">20dB</property>
    <property name="mlt_service">volume</property>
    <property name="kdenlive_id">fadein</property>
    <property name="gain">0</property>
    <property name="end">1</property>
    <property name="kdenlive:collapsed">0</property>
   </filter>
   <filter id="filter23" in="00:11:05.839" out="00:11:06.048">
    <property name="window">75</property>
    <property name="max_gain">20dB</property>
    <property name="mlt_service">volume</property>
    <property name="kdenlive_id">fadeout</property>
    <property name="gain">1</property>
    <property name="end">0</property>
   </filter>
  </entry>
  <blank length="00:07:08.383"/>
  <entry in="00:18:18.685" out="00:20:00.792" producer="chain3">
   <property name="kdenlive:id">7</property>
  </entry>
  <blank length="00:00:26.443"/>
  <entry in="00:20:36.328" out="00:20:38.580" producer="chain3">
   <property name="kdenlive:id">7</property>
   <filter id="filter24" in="00:20:37.537" out="00:20:38.580">
    <property name="window">75</property>
    <property name="max_gain">20dB</property>
    <property name="mlt_service">volume</property>
    <property name="kdenlive_id">fadeout</property>
    <property name="gain">1</property>
    <property name="end">0</property>
    <property name="kdenlive:collapsed">0</property>
   </filter>
   <filter id="filter25" in="00:20:36.328" out="00:20:37.079">
    <property name="window">75</property>
    <property name="max_gain">20dB</property>
    <property name="mlt_service">volume</property>
    <property name="kdenlive_id">fadein</property>
    <property name="gain">0</property>
    <property name="end">1</property>
    <property name="kdenlive:collapsed">0</property>
   </filter>
  </entry>
  <blank length="00:00:13.347"/>
  <entry in="00:20:54.346" out="00:20:59.184" producer="chain3">
   <property name="kdenlive:id">7</property>
   <filter id="filter26" in="00:20:54.346" out="00:20:54.554">
    <property name="window">75</property>
    <property name="max_gain">20dB</property>
    <property name="mlt_service">volume</property>
    <property name="kdenlive_id">fadein</property>
    <property name="gain">0</property>
    <property name="end">1</property>
    <property name="kdenlive:collapsed">0</property>
   </filter>
   <filter id="filter27" in="00:20:58.642" out="00:20:59.184">
    <property name="window">75</property>
    <property name="max_gain">20dB</property>
    <property name="mlt_service">volume</property>
    <property name="kdenlive_id">fadeout</property>
    <property name="gain">1</property>
    <property name="end">0</property>
   </filter>
  </entry>
  <blank length="00:01:18.894"/>
  <entry in="00:02:07.466" out="00:02:40.832" producer="chain4">
   <property name="kdenlive:id">8</property>
   <filter id="filter28" in="00:02:07.466" out="00:02:16.600">
    <property name="window">75</property>
    <property name="max_gain">20dB</property>
    <property name="mlt_service">volume</property>
    <property name="kdenlive_id">fadein</property>
    <property name="gain">0</property>
    <property name="end">1</property>
    <property name="kdenlive:collapsed">0</property>
   </filter>
   <filter id="filter29" in="00:02:40.582" out="00:02:40.832">
    <property name="window">75</property>
    <property name="max_gain">20dB</property>
    <property name="mlt_service">volume</property>
    <property name="kdenlive_id">fadeout</property>
    <property name="gain">1</property>
    <property name="end">0</property>
    <property name="kdenlive:collapsed">0</property>
   </filter>
  </entry>
  <blank length="00:00:04.004"/>
  <entry in="00:02:49.341" out="00:02:53.845" producer="chain4">
   <property name="kdenlive:id">8</property>
   <filter id="filter30" in="00:02:49.341" out="00:02:49.633">
    <property name="window">75</property>
    <property name="max_gain">20dB</property>
    <property name="mlt_service">volume</property>
    <property name="kdenlive_id">fadein</property>
    <property name="gain">0</property>
    <property name="end">1</property>
   </filter>
   <filter id="filter31" in="00:02:53.136" out="00:02:53.845">
    <property name="window">75</property>
    <property name="max_gain">20dB</property>
    <property name="mlt_service">volume</property>
    <property name="kdenlive_id">fadeout</property>
    <property name="gain">1</property>
    <property name="end">0</property>
   </filter>
  </entry>
  <blank length="00:00:28.403"/>
  <entry in="00:03:22.272" out="00:03:28.153" producer="chain4">
   <property name="kdenlive:id">8</property>
   <filter id="filter32" in="00:03:24.650" out="00:03:28.153">
    <property name="window">75</property>
    <property name="max_gain">20dB</property>
    <property name="mlt_service">volume</property>
    <property name="kdenlive_id">fadeout</property>
    <property name="gain">1</property>
    <property name="end">0</property>
    <property name="kdenlive:collapsed">0</property>
   </filter>
   <filter id="filter33" in="00:03:22.272" out="00:03:25.442">
    <property name="window">75</property>
    <property name="max_gain">20dB</property>
    <property name="mlt_service">volume</property>
    <property name="kdenlive_id">fadein</property>
    <property name="gain">0</property>
    <property name="end">1</property>
    <property name="kdenlive:collapsed">0</property>
   </filter>
  </entry>
  <blank length="00:01:43.543"/>
  <entry in="00:05:23.398" out="00:05:32.574" producer="chain4">
   <property name="kdenlive:id">8</property>
   <filter id="filter34" in="00:05:23.398" out="00:05:24.775">
    <property name="window">75</property>
    <property name="max_gain">20dB</property>
    <property name="mlt_service">volume</property>
    <property name="kdenlive_id">fadein</property>
    <property name="gain">0</property>
    <property name="end">1</property>
   </filter>
   <filter id="filter35" in="00:05:30.530" out="00:05:32.574">
    <property name="window">75</property>
    <property name="max_gain">20dB</property>
    <property name="mlt_service">volume</property>
    <property name="kdenlive_id">fadeout</property>
    <property name="gain">1</property>
    <property name="end">0</property>
   </filter>
  </entry>
  <blank length="00:00:21.730"/>
  <entry in="00:06:02.252" out="00:07:29.655" producer="chain4">
   <property name="kdenlive:id">8</property>
   <filter id="filter36" in="00:06:02.252" out="00:06:05.172">
    <property name="window">75</property>
    <property name="max_gain">20dB</property>
    <property name="mlt_service">volume</property>
    <property name="kdenlive_id">fadein</property>
    <property name="gain">0</property>
    <property name="end">1</property>
   </filter>
   <filter id="filter37" in="00:07:28.695" out="00:07:29.655">
    <property name="window">75</property>
    <property name="max_gain">20dB</property>
    <property name="mlt_service">volume</property>
    <property name="kdenlive_id">fadeout</property>
    <property name="gain">1</property>
    <property name="end">0</property>
   </filter>
  </entry>
  <blank length="00:00:37.746"/>
  <entry in="00:08:07.966" out="00:08:09.134" producer="chain4">
   <property name="kdenlive:id">8</property>
   <filter id="filter38" in="00:08:07.966" out="00:08:08.842">
    <property name="window">75</property>
    <property name="max_gain">20dB</property>
    <property name="mlt_service">volume</property>
    <property name="kdenlive_id">fadein</property>
    <property name="gain">0</property>
    <property name="end">1</property>
    <property name="kdenlive:collapsed">0</property>
   </filter>
   <filter id="filter39" in="00:08:08.425" out="00:08:09.134">
    <property name="window">75</property>
    <property name="max_gain">20dB</property>
    <property name="mlt_service">volume</property>
    <property name="kdenlive_id">fadeout</property>
    <property name="gain">1</property>
    <property name="end">0</property>
    <property name="kdenlive:collapsed">0</property>
   </filter>
  </entry>
  <entry in="00:08:07.966" out="00:08:09.134" producer="chain4">
   <property name="kdenlive:id">8</property>
   <filter id="filter40" in="00:08:07.966" out="00:08:08.884">
    <property name="window">75</property>
    <property name="max_gain">20dB</property>
    <property name="mlt_service">volume</property>
    <property name="kdenlive_id">fadein</property>
    <property name="gain">0</property>
    <property name="end">1</property>
    <property name="kdenlive:collapsed">0</property>
   </filter>
   <filter id="filter41" in="00:08:08.217" out="00:08:09.134">
    <property name="window">75</property>
    <property name="max_gain">20dB</property>
    <property name="mlt_service">volume</property>
    <property name="kdenlive_id">fadeout</property>
    <property name="gain">1</property>
    <property name="end">0</property>
    <property name="kdenlive:collapsed">0</property>
   </filter>
  </entry>
  <blank length="00:00:14.556"/>
  <entry in="00:08:34.868" out="00:08:44.002" producer="chain4">
   <property name="kdenlive:id">8</property>
   <filter id="filter42" in="00:08:34.868" out="00:08:35.619">
    <property name="window">75</property>
    <property name="max_gain">20dB</property>
    <property name="mlt_service">volume</property>
    <property name="kdenlive_id">fadein</property>
    <property name="gain">0</property>
    <property name="end">1</property>
    <property name="kdenlive:collapsed">0</property>
   </filter>
   <filter id="filter43" in="00:08:42.751" out="00:08:44.002">
    <property name="window">75</property>
    <property name="max_gain">20dB</property>
    <property name="mlt_service">volume</property>
    <property name="kdenlive_id">fadeout</property>
    <property name="gain">1</property>
    <property name="end">0</property>
   </filter>
  </entry>
  <blank length="00:00:27.653"/>
  <entry in="00:09:33.867" out="00:11:17.142" producer="chain4">
   <property name="kdenlive:id">8</property>
   <filter id="filter44" in="00:09:33.867" out="00:09:36.245">
    <property name="window">75</property>
    <property name="max_gain">20dB</property>
    <property name="mlt_service">volume</property>
    <property name="kdenlive_id">fadein</property>
    <property name="gain">0</property>
    <property name="end">1</property>
    <property name="kdenlive:collapsed">0</property>
   </filter>
   <filter id="filter45" in="00:11:16.308" out="00:11:17.142">
    <property name="window">75</property>
    <property name="max_gain">20dB</property>
    <property name="mlt_service">volume</property>
    <property name="kdenlive_id">fadeout</property>
    <property name="gain">1</property>
    <property name="end">0</property>
   </filter>
  </entry>
  <blank length="00:00:03.670"/>
  <entry in="00:11:32.616" out="00:11:37.537" producer="chain4">
   <property name="kdenlive:id">8</property>
   <filter id="filter46" in="00:11:33.242" out="00:11:37.537">
    <property name="window">75</property>
    <property name="max_gain">20dB</property>
    <property name="mlt_service">volume</property>
    <property name="kdenlive_id">fadeout</property>
    <property name="gain">1</property>
    <property name="end">0</property>
    <property name="kdenlive:collapsed">0</property>
   </filter>
  </entry>
  <blank length="00:01:03.754"/>
  <entry in="00:12:51.885" out="00:13:03.003" producer="chain4">
   <property name="kdenlive:id">8</property>
   <filter id="filter47" in="00:12:51.885" out="00:12:52.678">
    <property name="window">75</property>
    <property name="max_gain">20dB</property>
    <property name="mlt_service">volume</property>
    <property name="kdenlive_id">fadein</property>
    <property name="gain">0</property>
    <property name="end">1</property>
    <property name="kdenlive:collapsed">0</property>
   </filter>
   <filter id="filter48" in="00:13:02.211" out="00:13:03.003">
    <property name="window">75</property>
    <property name="max_gain">20dB</property>
    <property name="mlt_service">volume</property>
    <property name="kdenlive_id">fadeout</property>
    <property name="gain">1</property>
    <property name="end">0</property>
   </filter>
  </entry>
  <blank length="00:00:55.180"/>
  <entry in="00:14:03.170" out="00:14:05.714" producer="chain4">
   <property name="kdenlive:id">8</property>
   <filter id="filter49">
    <property name="window">75</property>
    <property name="max_gain">20dB</property>
    <property name="level">00:14:03.170=-18.7722;00:14:05.088=-17.0187;00:14:05.672=-0.732857</property>
    <property name="mlt_service">volume</property>
    <property name="kdenlive_id">volume</property>
    <property name="kdenlive:collapsed">0</property>
   </filter>
   <filter id="filter50" in="00:14:03.170" out="00:14:05.714">
    <property name="window">75</property>
    <property name="max_gain">20dB</property>
    <property name="mlt_service">volume</property>
    <property name="kdenlive_id">fadein</property>
    <property name="gain">0</property>
    <property name="end">1</property>
    <property name="kdenlive:collapsed">0</property>
   </filter>
  </entry>
  <entry in="00:14:05.756" out="00:16:51.009" producer="chain4">
   <property name="kdenlive:id">8</property>
   <filter id="filter51" in="00:16:50.592" out="00:16:51.009">
    <property name="window">75</property>
    <property name="max_gain">20dB</property>
    <property name="mlt_service">volume</property>
    <property name="kdenlive_id">fadeout</property>
    <property name="gain">1</property>
    <property name="end">0</property>
   </filter>
  </entry>
  <blank length="00:00:22.231"/>
  <entry in="00:17:19.811" out="00:17:39.289" producer="chain4">
   <property name="kdenlive:id">8</property>
   <filter id="filter52" in="00:17:19.811" out="00:17:21.730">
    <property name="window">75</property>
    <property name="max_gain">20dB</property>
    <property name="mlt_service">volume</property>
    <property name="kdenlive_id">fadein</property>
    <property name="gain">0</property>
    <property name="end">1</property>
   </filter>
  </entry>
  <blank length="00:00:29.696"/>
  <entry in="00:18:18.477" out="00:18:20.604" producer="chain4">
   <property name="kdenlive:id">8</property>
   <filter id="filter53" in="00:18:20.395" out="00:18:20.604">
    <property name="window">75</property>
    <property name="max_gain">20dB</property>
    <property name="mlt_service">volume</property>
    <property name="kdenlive_id">fadeout</property>
    <property name="gain">1</property>
    <property name="end">0</property>
    <property name="kdenlive:collapsed">0</property>
   </filter>
  </entry>
  <blank length="00:00:05.088"/>
  <entry in="00:18:32.282" out="00:18:53.845" producer="chain4">
   <property name="kdenlive:id">8</property>
   <filter id="filter54" in="00:18:32.282" out="00:18:33.784">
    <property name="window">75</property>
    <property name="max_gain">20dB</property>
    <property name="mlt_service">volume</property>
    <property name="kdenlive_id">fadein</property>
    <property name="gain">0</property>
    <property name="end">1</property>
    <property name="kdenlive:collapsed">0</property>
   </filter>
   <filter id="filter55" in="00:18:53.345" out="00:18:53.845">
    <property name="window">75</property>
    <property name="max_gain">20dB</property>
    <property name="mlt_service">volume</property>
    <property name="kdenlive_id">fadeout</property>
    <property name="gain">1</property>
    <property name="end">0</property>
    <property name="kdenlive:collapsed">0</property>
   </filter>
  </entry>
  <blank length="00:04:23.106"/>
  <entry in="00:03:30.280" out="00:04:13.722" producer="chain5">
   <property name="kdenlive:id">9</property>
   <filter id="filter56" in="00:03:30.280" out="00:03:31.990">
    <property name="window">75</property>
    <property name="max_gain">20dB</property>
    <property name="mlt_service">volume</property>
    <property name="kdenlive_id">fadein</property>
    <property name="gain">0</property>
    <property name="end">1</property>
   </filter>
  </entry>
  <blank length="00:00:02.794"/>
  <entry in="00:05:08.550" out="00:09:53.470" producer="chain5">
   <property name="kdenlive:id">9</property>
   <filter id="filter57" in="00:05:08.550" out="00:05:09.301">
    <property name="window">75</property>
    <property name="max_gain">20dB</property>
    <property name="mlt_service">volume</property>
    <property name="kdenlive_id">fadein</property>
    <property name="gain">0</property>
    <property name="end">1</property>
    <property name="kdenlive:collapsed">0</property>
   </filter>
   <filter id="filter58" in="00:09:52.636" out="00:09:53.470">
    <property name="window">75</property>
    <property name="max_gain">20dB</property>
    <property name="mlt_service">volume</property>
    <property name="kdenlive_id">fadeout</property>
    <property name="gain">1</property>
    <property name="end">0</property>
   </filter>
  </entry>
  <blank length="00:01:27.694"/>
  <entry in="00:12:08.508" out="00:12:12.971" producer="chain5">
   <property name="kdenlive:id">9</property>
   <filter id="filter59" in="00:12:11.011" out="00:12:12.971">
    <property name="window">75</property>
    <property name="max_gain">20dB</property>
    <property name="mlt_service">volume</property>
    <property name="kdenlive_id">fadeout</property>
    <property name="gain">1</property>
    <property name="end">0</property>
   </filter>
  </entry>
  <blank length="00:00:15.057"/>
  <entry in="00:13:35.035" out="00:19:26.485" producer="chain5">
   <property name="kdenlive:id">9</property>
   <filter id="filter60" in="00:13:35.035" out="00:13:37.287">
    <property name="window">75</property>
    <property name="max_gain">20dB</property>
    <property name="mlt_service">volume</property>
    <property name="kdenlive_id">fadein</property>
    <property name="gain">0</property>
    <property name="end">1</property>
    <property name="kdenlive:collapsed">0</property>
   </filter>
   <filter id="filter61" in="00:19:20.354" out="00:19:26.485">
    <property name="window">75</property>
    <property name="max_gain">20dB</property>
    <property name="mlt_service">volume</property>
    <property name="kdenlive_id">fadeout</property>
    <property name="gain">1</property>
    <property name="end">0</property>
   </filter>
  </entry>
 </playlist>
 <playlist id="playlist3">
  <property name="kdenlive:audio_track">1</property>
 </playlist>
 <tractor id="tractor1" in="00:00:00.000" out="01:12:43.502">
  <property name="kdenlive:audio_track">1</property>
  <property name="kdenlive:trackheight">67</property>
  <property name="kdenlive:timeline_active">1</property>
  <property name="kdenlive:collapsed">0</property>
  <property name="kdenlive:thumbs_format"/>
  <property name="kdenlive:audio_rec"/>
  <track hide="video" producer="playlist2"/>
  <track hide="video" producer="playlist3"/>
  <filter id="filter62">
   <property name="window">75</property>
   <property name="max_gain">20dB</property>
   <property name="mlt_service">volume</property>
   <property name="internal_added">237</property>
   <property name="disable">1</property>
  </filter>
  <filter id="filter63">
   <property name="channel">-1</property>
   <property name="mlt_service">panner</property>
   <property name="internal_added">237</property>
   <property name="start">0.5</property>
   <property name="disable">1</property>
  </filter>
  <filter id="filter64">
   <property name="iec_scale">0</property>
   <property name="mlt_service">audiolevel</property>
   <property name="dbpeak">1</property>
   <property name="disable">1</property>
  </filter>
 </tractor>
 <chain id="chain6" out="00:23:54.012">
  <property name="length">34382</property>
  <property name="eof">pause</property>
  <property name="resource">/mnt/data1/Anime-Edits/Monster/Monster-Editing/Audio/eng/Ep05.wav</property>
  <property name="mlt_service">avformat-novalidate</property>
  <property name="seekable">1</property>
  <property name="audio_index">0</property>
  <property name="video_index">-1</property>
  <property name="astream">0</property>
  <property name="kdenlive:proxy">-</property>
  <property name="kdenlive:originalurl">/mnt/data1/Anime-Edits/Monster/Monster-Editing/Audio/eng/Ep05.wav</property>
  <property name="kdenlive:id">6</property>
  <property name="kdenlive:clip_type">1</property>
  <property name="kdenlive:file_size">275331206</property>
  <property name="kdenlive:file_hash">381e2f8ea3cfd6ac11bffe9a3f4ce929</property>
  <property name="kdenlive:folderid">-1</property>
  <property name="meta.media.nb_streams">1</property>
  <property name="meta.media.0.stream.type">audio</property>
  <property name="meta.media.0.codec.sample_fmt">s16</property>
  <property name="meta.media.0.codec.sample_rate">48000</property>
  <property name="meta.media.0.codec.channels">2</property>
  <property name="meta.media.0.codec.name">pcm_s16le</property>
  <property name="meta.media.0.codec.long_name">PCM signed 16-bit little-endian</property>
  <property name="meta.media.0.codec.bit_rate">1536000</property>
  <property name="meta.attr.title.markup">Monster : Chapter 05 : The Girl From Heidelberg</property>
  <property name="meta.attr.encoder.markup">Lavf60.16.100</property>
  <property name="xml">was here</property>
  <property name="mute_on_pause">0</property>
  <property name="set.test_audio">0</property>
  <property name="set.test_image">1</property>
  <property name="kdenlive:control_uuid">{a4a50b0b-832d-46ca-8ecd-c223b032e17a}</property>
  <property name="meta.media.0.codec.layout">independent</property>
 </chain>
 <chain id="chain7" out="00:23:54.012">
  <property name="length">34382</property>
  <property name="eof">pause</property>
  <property name="resource">/mnt/data1/Anime-Edits/Monster/Monster-Editing/Audio/eng/Ep06.wav</property>
  <property name="mlt_service">avformat-novalidate</property>
  <property name="seekable">1</property>
  <property name="audio_index">0</property>
  <property name="video_index">-1</property>
  <property name="astream">0</property>
  <property name="kdenlive:proxy">-</property>
  <property name="kdenlive:originalurl">/mnt/data1/Anime-Edits/Monster/Monster-Editing/Audio/eng/Ep06.wav</property>
  <property name="kdenlive:id">7</property>
  <property name="kdenlive:clip_type">1</property>
  <property name="kdenlive:file_size">275331202</property>
  <property name="kdenlive:file_hash">a62316b6d1c6ac85fe1a7c72332ddcb0</property>
  <property name="kdenlive:folderid">-1</property>
  <property name="meta.media.nb_streams">1</property>
  <property name="meta.media.0.stream.type">audio</property>
  <property name="meta.media.0.codec.sample_fmt">s16</property>
  <property name="meta.media.0.codec.sample_rate">48000</property>
  <property name="meta.media.0.codec.channels">2</property>
  <property name="meta.media.0.codec.name">pcm_s16le</property>
  <property name="meta.media.0.codec.long_name">PCM signed 16-bit little-endian</property>
  <property name="meta.media.0.codec.bit_rate">1536000</property>
  <property name="meta.attr.title.markup">Monster : Chapter 06 : Disappearance Report</property>
  <property name="meta.attr.encoder.markup">Lavf60.16.100</property>
  <property name="xml">was here</property>
  <property name="mute_on_pause">0</property>
  <property name="set.test_audio">0</property>
  <property name="set.test_image">1</property>
  <property name="kdenlive:control_uuid">{508f70ea-baae-4851-94da-26712051a07e}</property>
  <property name="meta.media.0.codec.layout">independent</property>
 </chain>
 <chain id="chain8" out="00:23:54.012">
  <property name="length">34382</property>
  <property name="eof">pause</property>
  <property name="resource">/mnt/data1/Anime-Edits/Monster/Monster-Editing/Audio/eng/Ep07.wav</property>
  <property name="mlt_service">avformat-novalidate</property>
  <property name="seekable">1</property>
  <property name="audio_index">0</property>
  <property name="video_index">-1</property>
  <property name="astream">0</property>
  <property name="kdenlive:proxy">-</property>
  <property name="kdenlive:originalurl">/mnt/data1/Anime-Edits/Monster/Monster-Editing/Audio/eng/Ep07.wav</property>
  <property name="kdenlive:id">8</property>
  <property name="kdenlive:clip_type">1</property>
  <property name="kdenlive:file_size">275331200</property>
  <property name="kdenlive:file_hash">8ea371e8ac238aef120a067bcaeb08e9</property>
  <property name="kdenlive:folderid">-1</property>
  <property name="meta.media.nb_streams">1</property>
  <property name="meta.media.0.stream.type">audio</property>
  <property name="meta.media.0.codec.sample_fmt">s16</property>
  <property name="meta.media.0.codec.sample_rate">48000</property>
  <property name="meta.media.0.codec.channels">2</property>
  <property name="meta.media.0.codec.name">pcm_s16le</property>
  <property name="meta.media.0.codec.long_name">PCM signed 16-bit little-endian</property>
  <property name="meta.media.0.codec.bit_rate">1536000</property>
  <property name="meta.attr.title.markup">Monster : Chapter 07 : Mansion Of Tragedy</property>
  <property name="meta.attr.encoder.markup">Lavf60.16.100</property>
  <property name="xml">was here</property>
  <property name="mute_on_pause">0</property>
  <property name="set.test_audio">0</property>
  <property name="set.test_image">1</property>
  <property name="kdenlive:control_uuid">{6e83f6e1-4d5c-4a11-8e2d-e6ea2e05ecf0}</property>
  <property name="meta.media.0.codec.layout">independent</property>
 </chain>
 <chain id="chain9" out="00:23:53.011">
  <property name="length">34358</property>
  <property name="eof">pause</property>
  <property name="resource">/mnt/data1/Anime-Edits/Monster/Monster-Editing/Audio/eng/Ep08.wav</property>
  <property name="mlt_service">avformat-novalidate</property>
  <property name="seekable">1</property>
  <property name="audio_index">0</property>
  <property name="video_index">-1</property>
  <property name="astream">0</property>
  <property name="kdenlive:proxy">-</property>
  <property name="kdenlive:originalurl">/mnt/data1/Anime-Edits/Monster/Monster-Editing/Audio/eng/Ep08.wav</property>
  <property name="kdenlive:id">9</property>
  <property name="kdenlive:clip_type">1</property>
  <property name="kdenlive:file_size">275140730</property>
  <property name="kdenlive:file_hash">8ace66b30bce6cc8c4721c0272660e9d</property>
  <property name="kdenlive:folderid">-1</property>
  <property name="meta.media.nb_streams">1</property>
  <property name="meta.media.0.stream.type">audio</property>
  <property name="meta.media.0.codec.sample_fmt">s16</property>
  <property name="meta.media.0.codec.sample_rate">48000</property>
  <property name="meta.media.0.codec.channels">2</property>
  <property name="meta.media.0.codec.name">pcm_s16le</property>
  <property name="meta.media.0.codec.long_name">PCM signed 16-bit little-endian</property>
  <property name="meta.media.0.codec.bit_rate">1536000</property>
  <property name="meta.attr.title.markup">Monster : Chapter 08 : The Fugitive</property>
  <property name="meta.attr.encoder.markup">Lavf60.16.100</property>
  <property name="xml">was here</property>
  <property name="mute_on_pause">0</property>
  <property name="set.test_audio">0</property>
  <property name="set.test_image">1</property>
  <property name="kdenlive:control_uuid">{70827727-e7db-4018-90db-7ca8eb12d3ce}</property>
  <property name="meta.media.0.codec.layout">independent</property>
 </chain>
 <playlist id="playlist4">
  <property name="kdenlive:audio_track">1</property>
  <blank length="00:00:18.810"/>
  <entry in="00:00:24.441" out="00:00:26.985" producer="chain6">
   <property name="kdenlive:id">6</property>
   <filter id="filter65" in="00:00:24.441" out="00:00:24.483">
    <property name="window">75</property>
    <property name="max_gain">20dB</property>
    <property name="mlt_service">volume</property>
    <property name="kdenlive_id">fadein</property>
    <property name="gain">0</property>
    <property name="end">1</property>
    <property name="kdenlive:collapsed">0</property>
   </filter>
   <filter id="filter66" in="00:00:26.652" out="00:00:26.985">
    <property name="window">75</property>
    <property name="max_gain">20dB</property>
    <property name="mlt_service">volume</property>
    <property name="kdenlive_id">fadeout</property>
    <property name="gain">1</property>
    <property name="end">0</property>
    <property name="kdenlive:collapsed">0</property>
   </filter>
  </entry>
  <blank length="00:00:04.379"/>
  <entry in="00:00:26.735" out="00:01:15.349" producer="chain6">
   <property name="kdenlive:id">6</property>
   <filter id="filter67" in="00:00:26.735" out="00:00:27.236">
    <property name="window">75</property>
    <property name="max_gain">20dB</property>
    <property name="mlt_service">volume</property>
    <property name="kdenlive_id">fadein</property>
    <property name="gain">0</property>
    <property name="end">1</property>
    <property name="kdenlive:collapsed">0</property>
   </filter>
  </entry>
  <blank length="00:00:35.827"/>
  <entry in="00:01:53.470" out="00:02:03.587" producer="chain6">
   <property name="kdenlive:id">6</property>
   <filter id="filter68" in="00:02:00.500" out="00:02:03.587">
    <property name="window">75</property>
    <property name="max_gain">20dB</property>
    <property name="mlt_service">volume</property>
    <property name="kdenlive_id">fadeout</property>
    <property name="gain">1</property>
    <property name="end">0</property>
   </filter>
  </entry>
  <blank length="00:02:19.853"/>
  <entry in="00:05:41.375" out="00:05:53.053" producer="chain6">
   <property name="kdenlive:id">6</property>
   <filter id="filter69" in="00:05:41.375" out="00:05:41.708">
    <property name="window">75</property>
    <property name="max_gain">20dB</property>
    <property name="mlt_service">volume</property>
    <property name="kdenlive_id">fadein</property>
    <property name="gain">0</property>
    <property name="end">1</property>
    <property name="kdenlive:collapsed">0</property>
   </filter>
   <filter id="filter70" in="00:05:52.552" out="00:05:53.053">
    <property name="window">75</property>
    <property name="max_gain">20dB</property>
    <property name="mlt_service">volume</property>
    <property name="kdenlive_id">fadeout</property>
    <property name="gain">1</property>
    <property name="end">0</property>
   </filter>
  </entry>
  <blank length="00:02:09.092"/>
  <entry in="00:08:08.300" out="00:13:10.302" producer="chain6">
   <property name="kdenlive:id">6</property>
   <filter id="filter71" in="00:08:08.300" out="00:08:09.968">
    <property name="window">75</property>
    <property name="max_gain">20dB</property>
    <property name="mlt_service">volume</property>
    <property name="kdenlive_id">fadein</property>
    <property name="gain">0</property>
    <property name="end">1</property>
    <property name="kdenlive:collapsed">0</property>
   </filter>
   <filter id="filter72" in="00:13:09.092" out="00:13:10.302">
    <property name="window">75</property>
    <property name="max_gain">20dB</property>
    <property name="mlt_service">volume</property>
    <property name="kdenlive_id">fadeout</property>
    <property name="gain">1</property>
    <property name="end">0</property>
    <property name="kdenlive:collapsed">0</property>
   </filter>
  </entry>
  <blank length="00:04:15.849"/>
  <entry in="00:17:45.087" out="00:19:57.724" producer="chain6">
   <property name="kdenlive:id">6</property>
   <filter id="filter73" in="00:19:57.266" out="00:19:57.724">
    <property name="window">75</property>
    <property name="max_gain">20dB</property>
    <property name="mlt_service">volume</property>
    <property name="kdenlive_id">fadeout</property>
    <property name="gain">1</property>
    <property name="end">0</property>
    <property name="kdenlive:collapsed">0</property>
   </filter>
  </entry>
  <blank length="00:00:04.421"/>
  <entry in="00:20:05.672" out="00:20:10.594" producer="chain6">
   <property name="kdenlive:id">6</property>
   <filter id="filter74" in="00:20:05.672" out="00:20:06.548">
    <property name="window">75</property>
    <property name="max_gain">20dB</property>
    <property name="mlt_service">volume</property>
    <property name="kdenlive_id">fadein</property>
    <property name="gain">0</property>
    <property name="end">1</property>
    <property name="kdenlive:collapsed">0</property>
   </filter>
   <filter id="filter75" in="00:20:09.968" out="00:20:10.594">
    <property name="window">75</property>
    <property name="max_gain">20dB</property>
    <property name="mlt_service">volume</property>
    <property name="kdenlive_id">fadeout</property>
    <property name="gain">1</property>
    <property name="end">0</property>
    <property name="kdenlive:collapsed">0</property>
   </filter>
  </entry>
  <blank length="00:00:38.372"/>
  <entry in="00:21:02.169" out="00:21:39.331" producer="chain6">
   <property name="kdenlive:id">6</property>
   <filter id="filter76" in="00:21:02.169" out="00:21:03.754">
    <property name="window">75</property>
    <property name="max_gain">20dB</property>
    <property name="mlt_service">volume</property>
    <property name="kdenlive_id">fadein</property>
    <property name="gain">0</property>
    <property name="end">1</property>
    <property name="kdenlive:collapsed">0</property>
   </filter>
   <filter id="filter77" in="00:21:36.495" out="00:21:39.331">
    <property name="window">75</property>
    <property name="max_gain">20dB</property>
    <property name="mlt_service">volume</property>
    <property name="kdenlive_id">fadeout</property>
    <property name="gain">1</property>
    <property name="end">0</property>
    <property name="kdenlive:collapsed">0</property>
   </filter>
  </entry>
  <entry in="00:22:11.011" out="00:22:15.390" producer="chain6">
   <property name="kdenlive:id">6</property>
   <filter id="filter78" in="00:22:11.011" out="00:22:12.262">
    <property name="window">75</property>
    <property name="max_gain">20dB</property>
    <property name="mlt_service">volume</property>
    <property name="kdenlive_id">fadein</property>
    <property name="gain">0</property>
    <property name="end">1</property>
    <property name="kdenlive:collapsed">0</property>
   </filter>
   <filter id="filter79" in="00:22:13.222" out="00:22:15.390">
    <property name="window">75</property>
    <property name="max_gain">20dB</property>
    <property name="mlt_service">volume</property>
    <property name="kdenlive_id">fadeout</property>
    <property name="gain">1</property>
    <property name="end">0</property>
    <property name="kdenlive:collapsed">0</property>
   </filter>
  </entry>
  <blank length="00:00:10.093"/>
  <entry in="00:00:00.000" out="00:02:52.594" producer="chain7">
   <property name="kdenlive:id">7</property>
   <filter id="filter80" in="00:02:52.219" out="00:02:52.594">
    <property name="window">75</property>
    <property name="max_gain">20dB</property>
    <property name="mlt_service">volume</property>
    <property name="kdenlive_id">fadeout</property>
    <property name="gain">1</property>
    <property name="end">0</property>
    <property name="kdenlive:collapsed">0</property>
   </filter>
  </entry>
  <blank length="00:00:58.642"/>
  <entry in="00:05:18.060" out="00:05:58.100" producer="chain7">
   <property name="kdenlive:id">7</property>
   <filter id="filter81" in="00:05:57.099" out="00:05:58.100">
    <property name="window">75</property>
    <property name="max_gain">20dB</property>
    <property name="mlt_service">volume</property>
    <property name="kdenlive_id">fadeout</property>
    <property name="gain">1</property>
    <property name="end">0</property>
    <property name="kdenlive:collapsed">0</property>
   </filter>
  </entry>
  <blank length="00:00:27.110"/>
  <entry in="00:06:38.080" out="00:10:05.589" producer="chain7">
   <property name="kdenlive:id">7</property>
   <filter id="filter82" in="00:06:38.080" out="00:06:41.959">
    <property name="window">75</property>
    <property name="max_gain">20dB</property>
    <property name="mlt_service">volume</property>
    <property name="kdenlive_id">fadein</property>
    <property name="gain">0</property>
    <property name="end">1</property>
    <property name="kdenlive:collapsed">0</property>
   </filter>
   <filter id="filter83" in="00:10:05.172" out="00:10:05.589">
    <property name="window">75</property>
    <property name="max_gain">20dB</property>
    <property name="mlt_service">volume</property>
    <property name="kdenlive_id">fadeout</property>
    <property name="gain">1</property>
    <property name="end">0</property>
    <property name="kdenlive:collapsed">0</property>
   </filter>
  </entry>
  <blank length="00:00:53.262"/>
  <entry in="00:11:06.590" out="00:18:18.644" producer="chain7">
   <property name="kdenlive:id">7</property>
   <filter id="filter84" in="00:11:06.590" out="00:11:11.094">
    <property name="window">75</property>
    <property name="max_gain">20dB</property>
    <property name="mlt_service">volume</property>
    <property name="kdenlive_id">fadein</property>
    <property name="gain">0</property>
    <property name="end">1</property>
    <property name="kdenlive:collapsed">0</property>
   </filter>
  </entry>
  <blank length="00:01:42.084"/>
  <entry in="00:20:09.426" out="00:20:36.536" producer="chain7">
   <property name="kdenlive:id">7</property>
   <filter id="filter85" in="00:20:36.245" out="00:20:36.536">
    <property name="window">75</property>
    <property name="max_gain">20dB</property>
    <property name="mlt_service">volume</property>
    <property name="kdenlive_id">fadeout</property>
    <property name="gain">1</property>
    <property name="end">0</property>
    <property name="kdenlive:collapsed">0</property>
   </filter>
  </entry>
  <blank length="00:00:00.459"/>
  <entry in="00:20:39.373" out="00:20:40.582" producer="chain7">
   <property name="kdenlive:id">7</property>
   <filter id="filter86" in="00:20:39.373" out="00:20:40.624">
    <property name="window">75</property>
    <property name="max_gain">20dB</property>
    <property name="mlt_service">volume</property>
    <property name="kdenlive_id">fadein</property>
    <property name="gain">0</property>
    <property name="end">1</property>
    <property name="kdenlive:collapsed">0</property>
   </filter>
  </entry>
  <entry in="00:20:40.624" out="00:20:54.471" producer="chain7">
   <property name="kdenlive:id">7</property>
   <filter id="filter87" in="00:20:54.304" out="00:20:54.471">
    <property name="window">75</property>
    <property name="max_gain">20dB</property>
    <property name="mlt_service">volume</property>
    <property name="kdenlive_id">fadeout</property>
    <property name="gain">1</property>
    <property name="end">0</property>
    <property name="kdenlive:collapsed">0</property>
   </filter>
  </entry>
  <blank length="00:00:03.503"/>
  <entry in="00:20:58.433" out="00:22:20.145" producer="chain7">
   <property name="kdenlive:id">7</property>
   <filter id="filter88" in="00:22:16.808" out="00:22:20.145">
    <property name="window">75</property>
    <property name="max_gain">20dB</property>
    <property name="mlt_service">volume</property>
    <property name="kdenlive_id">fadeout</property>
    <property name="gain">1</property>
    <property name="end">0</property>
    <property name="kdenlive:collapsed">0</property>
   </filter>
   <filter id="filter89" in="00:20:58.433" out="00:20:58.934">
    <property name="window">75</property>
    <property name="max_gain">20dB</property>
    <property name="mlt_service">volume</property>
    <property name="kdenlive_id">fadein</property>
    <property name="gain">0</property>
    <property name="end">1</property>
    <property name="kdenlive:collapsed">0</property>
   </filter>
  </entry>
  <blank length="00:00:31.031"/>
  <entry in="00:02:44.211" out="00:02:49.299" producer="chain8">
   <property name="kdenlive:id">8</property>
   <filter id="filter90" in="00:02:44.211" out="00:02:44.336">
    <property name="window">75</property>
    <property name="max_gain">20dB</property>
    <property name="mlt_service">volume</property>
    <property name="kdenlive_id">fadein</property>
    <property name="gain">0</property>
    <property name="end">1</property>
    <property name="kdenlive:collapsed">0</property>
   </filter>
   <filter id="filter91" in="00:02:48.590" out="00:02:49.299">
    <property name="window">75</property>
    <property name="max_gain">20dB</property>
    <property name="mlt_service">volume</property>
    <property name="kdenlive_id">fadeout</property>
    <property name="gain">1</property>
    <property name="end">0</property>
    <property name="kdenlive:collapsed">0</property>
   </filter>
  </entry>
  <blank length="00:00:02.836"/>
  <entry in="00:02:53.679" out="00:03:25.067" producer="chain8">
   <property name="kdenlive:id">8</property>
   <filter id="filter92" in="00:02:53.679" out="00:02:54.179">
    <property name="window">75</property>
    <property name="max_gain">20dB</property>
    <property name="mlt_service">volume</property>
    <property name="kdenlive_id">fadein</property>
    <property name="gain">0</property>
    <property name="end">1</property>
    <property name="kdenlive:collapsed">0</property>
   </filter>
   <filter id="filter93" in="00:03:19.228" out="00:03:25.067">
    <property name="window">75</property>
    <property name="max_gain">20dB</property>
    <property name="mlt_service">volume</property>
    <property name="kdenlive_id">fadeout</property>
    <property name="gain">1</property>
    <property name="end">0</property>
    <property name="kdenlive:collapsed">0</property>
   </filter>
  </entry>
  <blank length="00:00:01.585"/>
  <entry in="00:03:34.910" out="00:05:21.438" producer="chain8">
   <property name="kdenlive:id">8</property>
   <filter id="filter94" in="00:03:34.910" out="00:03:35.619">
    <property name="window">75</property>
    <property name="max_gain">20dB</property>
    <property name="mlt_service">volume</property>
    <property name="kdenlive_id">fadein</property>
    <property name="gain">0</property>
    <property name="end">1</property>
    <property name="kdenlive:collapsed">0</property>
   </filter>
   <filter id="filter95" in="00:05:20.938" out="00:05:21.438">
    <property name="window">75</property>
    <property name="max_gain">20dB</property>
    <property name="mlt_service">volume</property>
    <property name="kdenlive_id">fadeout</property>
    <property name="gain">1</property>
    <property name="end">0</property>
   </filter>
  </entry>
  <blank length="00:00:05.923"/>
  <entry in="00:05:34.076" out="00:06:02.336" producer="chain8">
   <property name="kdenlive:id">8</property>
   <filter id="filter96" in="00:05:34.076" out="00:05:35.994">
    <property name="window">75</property>
    <property name="max_gain">20dB</property>
    <property name="mlt_service">volume</property>
    <property name="kdenlive_id">fadein</property>
    <property name="gain">0</property>
    <property name="end">1</property>
    <property name="kdenlive:collapsed">0</property>
   </filter>
   <filter id="filter97" in="00:05:59.226" out="00:06:02.336">
    <property name="window">75</property>
    <property name="max_gain">20dB</property>
    <property name="mlt_service">volume</property>
    <property name="kdenlive_id">fadeout</property>
    <property name="gain">1</property>
    <property name="end">0</property>
    <property name="kdenlive:collapsed">0</property>
   </filter>
  </entry>
  <blank length="00:01:22.272"/>
  <entry in="00:07:29.696" out="00:08:09.134" producer="chain8">
   <property name="kdenlive:id">8</property>
   <filter id="filter98" in="00:07:29.696" out="00:07:30.113">
    <property name="window">75</property>
    <property name="max_gain">20dB</property>
    <property name="mlt_service">volume</property>
    <property name="kdenlive_id">fadein</property>
    <property name="gain">0</property>
    <property name="end">1</property>
    <property name="kdenlive:collapsed">0</property>
   </filter>
   <filter id="filter99" in="00:08:08.550" out="00:08:09.134">
    <property name="window">75</property>
    <property name="max_gain">20dB</property>
    <property name="mlt_service">volume</property>
    <property name="kdenlive_id">fadeout</property>
    <property name="gain">1</property>
    <property name="end">0</property>
   </filter>
  </entry>
  <entry in="00:08:07.966" out="00:08:09.051" producer="chain8">
   <property name="kdenlive:id">8</property>
   <filter id="filter100" in="00:08:07.966" out="00:08:08.717">
    <property name="window">75</property>
    <property name="max_gain">20dB</property>
    <property name="mlt_service">volume</property>
    <property name="kdenlive_id">fadein</property>
    <property name="gain">0</property>
    <property name="end">1</property>
    <property name="kdenlive:collapsed">0</property>
   </filter>
   <filter id="filter101" in="00:08:08.342" out="00:08:09.051">
    <property name="window">75</property>
    <property name="max_gain">20dB</property>
    <property name="mlt_service">volume</property>
    <property name="kdenlive_id">fadeout</property>
    <property name="gain">1</property>
    <property name="end">0</property>
    <property name="kdenlive:collapsed">0</property>
   </filter>
  </entry>
  <entry in="00:08:14.932" out="00:08:30.739" producer="chain8">
   <property name="kdenlive:id">8</property>
   <filter id="filter102" in="00:08:14.932" out="00:08:15.224">
    <property name="window">75</property>
    <property name="max_gain">20dB</property>
    <property name="mlt_service">volume</property>
    <property name="kdenlive_id">fadein</property>
    <property name="gain">0</property>
    <property name="end">1</property>
    <property name="kdenlive:collapsed">0</property>
   </filter>
   <filter id="filter103" in="00:08:30.113" out="00:08:30.739">
    <property name="window">75</property>
    <property name="max_gain">20dB</property>
    <property name="mlt_service">volume</property>
    <property name="kdenlive_id">fadeout</property>
    <property name="gain">1</property>
    <property name="end">0</property>
    <property name="kdenlive:collapsed">0</property>
   </filter>
  </entry>
  <blank length="00:00:07.090"/>
  <entry in="00:08:44.711" out="00:09:16.808" producer="chain8">
   <property name="kdenlive:id">8</property>
   <filter id="filter104" in="00:08:44.711" out="00:08:46.046">
    <property name="window">75</property>
    <property name="max_gain">20dB</property>
    <property name="mlt_service">volume</property>
    <property name="kdenlive_id">fadein</property>
    <property name="gain">0</property>
    <property name="end">1</property>
    <property name="kdenlive:collapsed">0</property>
   </filter>
   <filter id="filter105" in="00:09:15.349" out="00:09:16.808">
    <property name="window">75</property>
    <property name="max_gain">20dB</property>
    <property name="mlt_service">volume</property>
    <property name="kdenlive_id">fadeout</property>
    <property name="gain">1</property>
    <property name="end">0</property>
    <property name="kdenlive:collapsed">0</property>
   </filter>
  </entry>
  <blank length="00:01:39.081"/>
  <entry in="00:11:27.819" out="00:11:32.574" producer="chain8">
   <property name="kdenlive:id">8</property>
   <filter id="filter106" in="00:11:27.819" out="00:11:28.487">
    <property name="window">75</property>
    <property name="max_gain">20dB</property>
    <property name="mlt_service">volume</property>
    <property name="kdenlive_id">fadein</property>
    <property name="gain">0</property>
    <property name="end">1</property>
    <property name="kdenlive:collapsed">0</property>
   </filter>
  </entry>
  <blank length="00:00:16.266"/>
  <entry in="00:11:53.971" out="00:12:47.756" producer="chain8">
   <property name="kdenlive:id">8</property>
   <filter id="filter108" in="00:12:47.089" out="00:12:47.756">
    <property name="window">75</property>
    <property name="max_gain">20dB</property>
    <property name="mlt_service">volume</property>
    <property name="kdenlive_id">fadeout</property>
    <property name="gain">1</property>
    <property name="end">0</property>
    <property name="kdenlive:collapsed">0</property>
   </filter>
  </entry>
  <blank length="00:00:07.758"/>
  <entry in="00:13:03.045" out="00:14:02.836" producer="chain8">
   <property name="kdenlive:id">8</property>
   <filter id="filter109" in="00:13:03.045" out="00:13:04.546">
    <property name="window">75</property>
    <property name="max_gain">20dB</property>
    <property name="mlt_service">volume</property>
    <property name="kdenlive_id">fadein</property>
    <property name="gain">0</property>
    <property name="end">1</property>
    <property name="kdenlive:collapsed">0</property>
   </filter>
   <filter id="filter110" in="00:14:02.544" out="00:14:02.836">
    <property name="window">75</property>
    <property name="max_gain">20dB</property>
    <property name="mlt_service">volume</property>
    <property name="kdenlive_id">fadeout</property>
    <property name="gain">1</property>
    <property name="end">0</property>
    <property name="kdenlive:collapsed">0</property>
   </filter>
  </entry>
  <blank length="00:02:42.834"/>
  <entry in="00:16:53.595" out="00:17:19.770" producer="chain8">
   <property name="kdenlive:id">8</property>
   <filter id="filter111" in="00:16:53.595" out="00:16:55.764">
    <property name="window">75</property>
    <property name="max_gain">20dB</property>
    <property name="mlt_service">volume</property>
    <property name="kdenlive_id">fadein</property>
    <property name="gain">0</property>
    <property name="end">1</property>
    <property name="kdenlive:collapsed">0</property>
   </filter>
   <filter id="filter112" in="00:17:19.436" out="00:17:19.770">
    <property name="window">75</property>
    <property name="max_gain">20dB</property>
    <property name="mlt_service">volume</property>
    <property name="kdenlive_id">fadeout</property>
    <property name="gain">1</property>
    <property name="end">0</property>
    <property name="kdenlive:collapsed">0</property>
   </filter>
  </entry>
  <blank length="00:00:16.725"/>
  <entry in="00:17:47.547" out="00:18:18.435" producer="chain8">
   <property name="kdenlive:id">8</property>
   <filter id="filter113" in="00:17:47.547" out="00:17:48.924">
    <property name="window">75</property>
    <property name="max_gain">20dB</property>
    <property name="mlt_service">volume</property>
    <property name="kdenlive_id">fadein</property>
    <property name="gain">0</property>
    <property name="end">1</property>
   </filter>
  </entry>
  <blank length="00:00:01.043"/>
  <entry in="00:18:22.689" out="00:18:31.240" producer="chain8">
   <property name="kdenlive:id">8</property>
   <filter id="filter114" in="00:18:22.689" out="00:18:23.148">
    <property name="window">75</property>
    <property name="max_gain">20dB</property>
    <property name="mlt_service">volume</property>
    <property name="kdenlive_id">fadein</property>
    <property name="gain">0</property>
    <property name="end">1</property>
    <property name="kdenlive:collapsed">0</property>
   </filter>
   <filter id="filter115" in="00:18:29.446" out="00:18:31.240">
    <property name="window">75</property>
    <property name="max_gain">20dB</property>
    <property name="mlt_service">volume</property>
    <property name="kdenlive_id">fadeout</property>
    <property name="gain">1</property>
    <property name="end">0</property>
   </filter>
  </entry>
  <blank length="00:00:18.685"/>
  <entry in="00:18:54.221" out="00:22:26.693" producer="chain8">
   <property name="kdenlive:id">8</property>
   <filter id="filter116" in="00:18:54.221" out="00:18:54.596">
    <property name="window">75</property>
    <property name="max_gain">20dB</property>
    <property name="mlt_service">volume</property>
    <property name="kdenlive_id">fadein</property>
    <property name="gain">0</property>
    <property name="end">1</property>
    <property name="kdenlive:collapsed">0</property>
   </filter>
  </entry>
  <entry in="00:02:38.247" out="00:03:30.239" producer="chain9">
   <property name="kdenlive:id">9</property>
   <filter id="filter117" in="00:03:29.863" out="00:03:30.239">
    <property name="window">75</property>
    <property name="max_gain">20dB</property>
    <property name="mlt_service">volume</property>
    <property name="kdenlive_id">fadeout</property>
    <property name="gain">1</property>
    <property name="end">0</property>
    <property name="kdenlive:collapsed">0</property>
   </filter>
  </entry>
  <blank length="00:00:41.500"/>
  <entry in="00:04:57.975" out="00:05:02.502" producer="chain9">
   <property name="kdenlive:id">9</property>
   <filter id="filter118" in="00:05:01.710" out="00:05:02.502">
    <property name="window">75</property>
    <property name="max_gain">20dB</property>
    <property name="mlt_service">volume</property>
    <property name="kdenlive_id">fadeout</property>
    <property name="gain">1</property>
    <property name="end">0</property>
    <property name="kdenlive:collapsed">0</property>
   </filter>
   <filter id="filter119" in="00:04:57.975" out="00:04:59.101">
    <property name="window">75</property>
    <property name="max_gain">20dB</property>
    <property name="mlt_service">volume</property>
    <property name="kdenlive_id">fadein</property>
    <property name="gain">0</property>
    <property name="end">1</property>
    <property name="kdenlive:collapsed">0</property>
   </filter>
  </entry>
  <blank length="00:04:42.668"/>
  <entry in="00:10:39.122" out="00:12:08.467" producer="chain9">
   <property name="kdenlive:id">9</property>
   <filter id="filter120" in="00:10:39.122" out="00:10:41.166">
    <property name="window">75</property>
    <property name="max_gain">20dB</property>
    <property name="mlt_service">volume</property>
    <property name="kdenlive_id">fadein</property>
    <property name="gain">0</property>
    <property name="end">1</property>
   </filter>
  </entry>
  <blank length="00:00:02.878"/>
  <entry in="00:12:19.228" out="00:12:37.246" producer="chain9">
   <property name="kdenlive:id">9</property>
   <filter id="filter121" in="00:12:36.745" out="00:12:37.246">
    <property name="window">75</property>
    <property name="max_gain">20dB</property>
    <property name="mlt_service">volume</property>
    <property name="kdenlive_id">fadeout</property>
    <property name="gain">1</property>
    <property name="end">0</property>
   </filter>
  </entry>
  <blank length="00:05:42.376"/>
  <entry in="00:21:10.928" out="00:23:37.120" producer="chain9">
   <property name="kdenlive:id">9</property>
   <filter id="filter122" in="00:21:10.928" out="00:21:17.559">
    <property name="window">75</property>
    <property name="max_gain">20dB</property>
    <property name="mlt_service">volume</property>
    <property name="kdenlive_id">fadein</property>
    <property name="gain">0</property>
    <property name="end">1</property>
    <property name="kdenlive:collapsed">0</property>
   </filter>
  </entry>
 </playlist>
 <playlist id="playlist5">
  <property name="kdenlive:audio_track">1</property>
 </playlist>
 <tractor id="tractor2" in="00:00:00.000" out="01:15:01.960">
  <property name="kdenlive:audio_track">1</property>
  <property name="kdenlive:trackheight">67</property>
  <property name="kdenlive:timeline_active">1</property>
  <property name="kdenlive:collapsed">0</property>
  <property name="kdenlive:thumbs_format"/>
  <property name="kdenlive:audio_rec"/>
  <track hide="video" producer="playlist4"/>
  <track hide="video" producer="playlist5"/>
  <filter id="filter123">
   <property name="window">75</property>
   <property name="max_gain">20dB</property>
   <property name="mlt_service">volume</property>
   <property name="internal_added">237</property>
   <property name="disable">1</property>
  </filter>
  <filter id="filter124">
   <property name="channel">-1</property>
   <property name="mlt_service">panner</property>
   <property name="internal_added">237</property>
   <property name="start">0.5</property>
   <property name="disable">1</property>
  </filter>
  <filter id="filter125">
   <property name="iec_scale">0</property>
   <property name="mlt_service">audiolevel</property>
   <property name="dbpeak">1</property>
   <property name="disable">1</property>
  </filter>
 </tractor>
 <chain id="producer18" out="00:23:55.555">
  <property name="length">34419</property>
  <property name="eof">pause</property>
  <property name="resource">/mnt/data0/Monster/Monster-Editing/Orig/Monster - Chapter 05 - The Girl From Heidelberg.mkv</property>
  <property name="mlt_service">avformat-novalidate</property>
  <property name="audio_index">1</property>
  <property name="video_index">0</property>
  <property name="meta.media.nb_streams">31</property>
  <property name="meta.media.0.stream.type">video</property>
  <property name="meta.media.0.stream.frame_rate">23.976</property>
  <property name="meta.media.0.stream.sample_aspect_ratio">1</property>
  <property name="meta.media.0.codec.width">1440</property>
  <property name="meta.media.0.codec.height">1080</property>
  <property name="meta.media.0.codec.rotate">0</property>
  <property name="meta.media.0.codec.pix_fmt">yuv420p10le</property>
  <property name="meta.media.0.codec.sample_aspect_ratio">1</property>
  <property name="meta.media.0.codec.colorspace">709</property>
  <property name="meta.media.0.codec.color_trc">1</property>
  <property name="meta.media.0.codec.name">hevc</property>
  <property name="meta.media.0.codec.long_name">HEVC (High Efficiency Video Coding)</property>
  <property name="meta.media.0.codec.bit_rate">0</property>
  <property name="meta.attr.0.stream.BPS-eng.markup">2146153</property>
  <property name="meta.attr.0.stream.DURATION-eng.markup">00:23:55.518000000</property>
  <property name="meta.attr.0.stream.NUMBER_OF_FRAMES-eng.markup">34418</property>
  <property name="meta.attr.0.stream.NUMBER_OF_BYTES-eng.markup">385105255</property>
  <property name="meta.attr.0.stream._STATISTICS_WRITING_APP-eng.markup">mkvmerge v52.0.0 ('Secret For The Mad') 64-bit</property>
  <property name="meta.attr.0.stream._STATISTICS_WRITING_DATE_UTC-eng.markup">2022-10-15 07:44:57</property>
  <property name="meta.attr.0.stream._STATISTICS_TAGS-eng.markup">BPS DURATION NUMBER_OF_FRAMES NUMBER_OF_BYTES</property>
  <property name="meta.media.1.stream.type">audio</property>
  <property name="meta.media.1.codec.sample_fmt">fltp</property>
  <property name="meta.media.1.codec.sample_rate">48000</property>
  <property name="meta.media.1.codec.channels">2</property>
  <property name="meta.media.1.codec.name">ac3</property>
  <property name="meta.media.1.codec.long_name">ATSC A/52A (AC-3)</property>
  <property name="meta.media.1.codec.bit_rate">448000</property>
  <property name="meta.attr.1.stream.language.markup">jpn</property>
  <property name="meta.attr.1.stream.title.markup">Japanese DVD AC-3 DD_2.0</property>
  <property name="meta.attr.1.stream.BPS-eng.markup">448000</property>
  <property name="meta.attr.1.stream.DURATION-eng.markup">00:23:55.552000000</property>
  <property name="meta.attr.1.stream.NUMBER_OF_FRAMES-eng.markup">44861</property>
  <property name="meta.attr.1.stream.NUMBER_OF_BYTES-eng.markup">80390912</property>
  <property name="meta.attr.1.stream._STATISTICS_WRITING_APP-eng.markup">mkvmerge v52.0.0 ('Secret For The Mad') 64-bit</property>
  <property name="meta.attr.1.stream._STATISTICS_WRITING_DATE_UTC-eng.markup">2022-10-15 07:44:57</property>
  <property name="meta.attr.1.stream._STATISTICS_TAGS-eng.markup">BPS DURATION NUMBER_OF_FRAMES NUMBER_OF_BYTES</property>
  <property name="meta.media.2.stream.type">audio</property>
  <property name="meta.media.2.codec.sample_fmt">fltp</property>
  <property name="meta.media.2.codec.sample_rate">48000</property>
  <property name="meta.media.2.codec.channels">2</property>
  <property name="meta.media.2.codec.name">aac</property>
  <property name="meta.media.2.codec.long_name">AAC (Advanced Audio Coding)</property>
  <property name="meta.media.2.codec.bit_rate">0</property>
  <property name="meta.attr.2.stream.language.markup">eng</property>
  <property name="meta.attr.2.stream.title.markup">English AAC DD_2.0</property>
  <property name="meta.attr.2.stream.BPS-eng.markup">152336</property>
  <property name="meta.attr.2.stream.DURATION-eng.markup">00:23:55.286000000</property>
  <property name="meta.attr.2.stream.NUMBER_OF_FRAMES-eng.markup">67279</property>
  <property name="meta.attr.2.stream.NUMBER_OF_BYTES-eng.markup">27330812</property>
  <property name="meta.attr.2.stream._STATISTICS_WRITING_APP-eng.markup">mkvmerge v52.0.0 ('Secret For The Mad') 64-bit</property>
  <property name="meta.attr.2.stream._STATISTICS_WRITING_DATE_UTC-eng.markup">2022-10-15 07:44:57</property>
  <property name="meta.attr.2.stream._STATISTICS_TAGS-eng.markup">BPS DURATION NUMBER_OF_FRAMES NUMBER_OF_BYTES</property>
  <property name="meta.media.3.codec.name">ssa</property>
  <property name="meta.media.3.codec.long_name">ASS (Advanced SubStation Alpha) subtitle</property>
  <property name="meta.media.3.codec.bit_rate">0</property>
  <property name="meta.attr.3.stream.language.markup">eng</property>
  <property name="meta.attr.3.stream.title.markup">English (Full) ASS</property>
  <property name="meta.attr.3.stream.BPS-eng.markup">98</property>
  <property name="meta.attr.3.stream.DURATION-eng.markup">00:23:43.900000000</property>
  <property name="meta.attr.3.stream.NUMBER_OF_FRAMES-eng.markup">303</property>
  <property name="meta.attr.3.stream.NUMBER_OF_BYTES-eng.markup">17571</property>
  <property name="meta.attr.3.stream._STATISTICS_WRITING_APP-eng.markup">mkvmerge v52.0.0 ('Secret For The Mad') 64-bit</property>
  <property name="meta.attr.3.stream._STATISTICS_WRITING_DATE_UTC-eng.markup">2022-10-15 07:44:57</property>
  <property name="meta.attr.3.stream._STATISTICS_TAGS-eng.markup">BPS DURATION NUMBER_OF_FRAMES NUMBER_OF_BYTES</property>
  <property name="meta.media.4.codec.name">ssa</property>
  <property name="meta.media.4.codec.long_name">ASS (Advanced SubStation Alpha) subtitle</property>
  <property name="meta.media.4.codec.bit_rate">0</property>
  <property name="meta.attr.4.stream.language.markup">eng</property>
  <property name="meta.attr.4.stream.title.markup">English (Titles &amp; Signs) ASS</property>
  <property name="meta.attr.4.stream.BPS-eng.markup">1</property>
  <property name="meta.attr.4.stream.DURATION-eng.markup">00:20:32.900000000</property>
  <property name="meta.attr.4.stream.NUMBER_OF_FRAMES-eng.markup">5</property>
  <property name="meta.attr.4.stream.NUMBER_OF_BYTES-eng.markup">289</property>
  <property name="meta.attr.4.stream._STATISTICS_WRITING_APP-eng.markup">mkvmerge v52.0.0 ('Secret For The Mad') 64-bit</property>
  <property name="meta.attr.4.stream._STATISTICS_WRITING_DATE_UTC-eng.markup">2022-10-15 07:44:57</property>
  <property name="meta.attr.4.stream._STATISTICS_TAGS-eng.markup">BPS DURATION NUMBER_OF_FRAMES NUMBER_OF_BYTES</property>
  <property name="meta.media.5.codec.name">ssa</property>
  <property name="meta.media.5.codec.long_name">ASS (Advanced SubStation Alpha) subtitle</property>
  <property name="meta.media.5.codec.bit_rate">0</property>
  <property name="meta.attr.5.stream.language.markup">ara</property>
  <property name="meta.attr.5.stream.title.markup">Arabic</property>
  <property name="meta.attr.5.stream.BPS-eng.markup">127</property>
  <property name="meta.attr.5.stream.DURATION-eng.markup">00:22:16.870000000</property>
  <property name="meta.attr.5.stream.NUMBER_OF_FRAMES-eng.markup">338</property>
  <property name="meta.attr.5.stream.NUMBER_OF_BYTES-eng.markup">21336</property>
  <property name="meta.attr.5.stream._STATISTICS_WRITING_APP-eng.markup">mkvmerge v52.0.0 ('Secret For The Mad') 64-bit</property>
  <property name="meta.attr.5.stream._STATISTICS_WRITING_DATE_UTC-eng.markup">2022-10-15 07:44:57</property>
  <property name="meta.attr.5.stream._STATISTICS_TAGS-eng.markup">BPS DURATION NUMBER_OF_FRAMES NUMBER_OF_BYTES</property>
  <property name="meta.attr.title.markup">Monster : Chapter 05 : The Girl From Heidelberg</property>
  <property name="meta.attr.encoder.markup">libebml v1.4.1 + libmatroska v1.6.2</property>
  <property name="meta.attr.creation_time.markup">2022-10-15T07:44:57.000000Z</property>
  <property name="seekable">1</property>
  <property name="meta.media.sample_aspect_num">1</property>
  <property name="meta.media.sample_aspect_den">1</property>
  <property name="aspect_ratio">1</property>
  <property name="kdenlive:clipname"/>
  <property name="kdenlive:clip_type">0</property>
  <property name="kdenlive:folderid">-1</property>
  <property name="kdenlive:id">2</property>
  <property name="kdenlive:active_streams">1;2</property>
  <property name="kdenlive:file_size">497616281</property>
  <property name="kdenlive:file_hash">290246c0f90ccd8874fd5e52071cd4ed</property>
  <property name="kdenlive:audio_max1">179</property>
  <property name="kdenlive:audio_max2">188</property>
  <property name="xml">was here</property>
  <property name="meta.media.frame_rate_num">24000</property>
  <property name="meta.media.frame_rate_den">1001</property>
  <property name="meta.media.colorspace">709</property>
  <property name="meta.media.color_trc">1</property>
  <property name="meta.media.has_b_frames">2</property>
  <property name="meta.media.width">1440</property>
  <property name="meta.media.height">1080</property>
  <property name="meta.media.color_range">mpeg</property>
  <property name="meta.media.top_field_first">0</property>
  <property name="meta.media.progressive">1</property>
  <property name="set.test_audio">1</property>
  <property name="set.test_image">0</property>
  <property name="kdenlive:control_uuid">{5ce384bd-b6ae-494b-bd4a-b36d57a8c1c7}</property>
  <property name="meta.media.1.codec.layout">stereo</property>
  <property name="meta.media.2.codec.layout">stereo</property>
  <property name="format">3</property>
  <property name="vstream">0</property>
  <property name="meta.media.aspect_ratio">1</property>
  <property name="astream">0</property>
 </chain>
 <producer id="producer19" in="00:00:00.000" out="00:31:54.054">
  <property name="length">45892</property>
  <property name="eof">pause</property>
  <property name="resource">0.75:/mnt/data0/Monster/Monster-Editing/Orig/Monster - Chapter 05 - The Girl From Heidelberg.mkv</property>
  <property name="aspect_ratio">1</property>
  <property name="meta.media.nb_streams">31</property>
  <property name="meta.media.0.stream.type">video</property>
  <property name="meta.media.0.stream.frame_rate">23.976</property>
  <property name="meta.media.0.stream.sample_aspect_ratio">1</property>
  <property name="meta.media.0.codec.width">1440</property>
  <property name="meta.media.0.codec.height">1080</property>
  <property name="meta.media.0.codec.rotate">0</property>
  <property name="meta.media.0.codec.pix_fmt">yuv420p10le</property>
  <property name="meta.media.0.codec.sample_aspect_ratio">1</property>
  <property name="meta.media.0.codec.colorspace">709</property>
  <property name="meta.media.0.codec.color_trc">1</property>
  <property name="meta.media.0.codec.name">hevc</property>
  <property name="meta.media.0.codec.long_name">HEVC (High Efficiency Video Coding)</property>
  <property name="meta.media.0.codec.bit_rate">0</property>
  <property name="meta.attr.0.stream.BPS-eng.markup">2146153</property>
  <property name="meta.attr.0.stream.DURATION-eng.markup">00:23:55.518000000</property>
  <property name="meta.attr.0.stream.NUMBER_OF_FRAMES-eng.markup">34418</property>
  <property name="meta.attr.0.stream.NUMBER_OF_BYTES-eng.markup">385105255</property>
  <property name="meta.attr.0.stream._STATISTICS_WRITING_APP-eng.markup">mkvmerge v52.0.0 ('Secret For The Mad') 64-bit</property>
  <property name="meta.attr.0.stream._STATISTICS_WRITING_DATE_UTC-eng.markup">2022-10-15 07:44:57</property>
  <property name="meta.attr.0.stream._STATISTICS_TAGS-eng.markup">BPS DURATION NUMBER_OF_FRAMES NUMBER_OF_BYTES</property>
  <property name="meta.media.1.stream.type">audio</property>
  <property name="meta.media.1.codec.sample_fmt">fltp</property>
  <property name="meta.media.1.codec.sample_rate">48000</property>
  <property name="meta.media.1.codec.channels">2</property>
  <property name="meta.media.1.codec.layout">stereo</property>
  <property name="meta.media.1.codec.name">ac3</property>
  <property name="meta.media.1.codec.long_name">ATSC A/52A (AC-3)</property>
  <property name="meta.media.1.codec.bit_rate">448000</property>
  <property name="meta.attr.1.stream.language.markup">jpn</property>
  <property name="meta.attr.1.stream.title.markup">Japanese DVD AC-3 DD_2.0</property>
  <property name="meta.attr.1.stream.BPS-eng.markup">448000</property>
  <property name="meta.attr.1.stream.DURATION-eng.markup">00:23:55.552000000</property>
  <property name="meta.attr.1.stream.NUMBER_OF_FRAMES-eng.markup">44861</property>
  <property name="meta.attr.1.stream.NUMBER_OF_BYTES-eng.markup">80390912</property>
  <property name="meta.attr.1.stream._STATISTICS_WRITING_APP-eng.markup">mkvmerge v52.0.0 ('Secret For The Mad') 64-bit</property>
  <property name="meta.attr.1.stream._STATISTICS_WRITING_DATE_UTC-eng.markup">2022-10-15 07:44:57</property>
  <property name="meta.attr.1.stream._STATISTICS_TAGS-eng.markup">BPS DURATION NUMBER_OF_FRAMES NUMBER_OF_BYTES</property>
  <property name="meta.media.2.stream.type">audio</property>
  <property name="meta.media.2.codec.sample_fmt">fltp</property>
  <property name="meta.media.2.codec.sample_rate">48000</property>
  <property name="meta.media.2.codec.channels">2</property>
  <property name="meta.media.2.codec.layout">stereo</property>
  <property name="meta.media.2.codec.name">aac</property>
  <property name="meta.media.2.codec.long_name">AAC (Advanced Audio Coding)</property>
  <property name="meta.media.2.codec.bit_rate">0</property>
  <property name="meta.attr.2.stream.language.markup">eng</property>
  <property name="meta.attr.2.stream.title.markup">English AAC DD_2.0</property>
  <property name="meta.attr.2.stream.BPS-eng.markup">152336</property>
  <property name="meta.attr.2.stream.DURATION-eng.markup">00:23:55.286000000</property>
  <property name="meta.attr.2.stream.NUMBER_OF_FRAMES-eng.markup">67279</property>
  <property name="meta.attr.2.stream.NUMBER_OF_BYTES-eng.markup">27330812</property>
  <property name="meta.attr.2.stream._STATISTICS_WRITING_APP-eng.markup">mkvmerge v52.0.0 ('Secret For The Mad') 64-bit</property>
  <property name="meta.attr.2.stream._STATISTICS_WRITING_DATE_UTC-eng.markup">2022-10-15 07:44:57</property>
  <property name="meta.attr.2.stream._STATISTICS_TAGS-eng.markup">BPS DURATION NUMBER_OF_FRAMES NUMBER_OF_BYTES</property>
  <property name="meta.media.3.codec.name">ssa</property>
  <property name="meta.media.3.codec.long_name">ASS (Advanced SubStation Alpha) subtitle</property>
  <property name="meta.media.3.codec.bit_rate">0</property>
  <property name="meta.attr.3.stream.language.markup">eng</property>
  <property name="meta.attr.3.stream.title.markup">English (Full) ASS</property>
  <property name="meta.attr.3.stream.BPS-eng.markup">98</property>
  <property name="meta.attr.3.stream.DURATION-eng.markup">00:23:43.900000000</property>
  <property name="meta.attr.3.stream.NUMBER_OF_FRAMES-eng.markup">303</property>
  <property name="meta.attr.3.stream.NUMBER_OF_BYTES-eng.markup">17571</property>
  <property name="meta.attr.3.stream._STATISTICS_WRITING_APP-eng.markup">mkvmerge v52.0.0 ('Secret For The Mad') 64-bit</property>
  <property name="meta.attr.3.stream._STATISTICS_WRITING_DATE_UTC-eng.markup">2022-10-15 07:44:57</property>
  <property name="meta.attr.3.stream._STATISTICS_TAGS-eng.markup">BPS DURATION NUMBER_OF_FRAMES NUMBER_OF_BYTES</property>
  <property name="meta.media.4.codec.name">ssa</property>
  <property name="meta.media.4.codec.long_name">ASS (Advanced SubStation Alpha) subtitle</property>
  <property name="meta.media.4.codec.bit_rate">0</property>
  <property name="meta.attr.4.stream.language.markup">eng</property>
  <property name="meta.attr.4.stream.title.markup">English (Titles &amp; Signs) ASS</property>
  <property name="meta.attr.4.stream.BPS-eng.markup">1</property>
  <property name="meta.attr.4.stream.DURATION-eng.markup">00:20:32.900000000</property>
  <property name="meta.attr.4.stream.NUMBER_OF_FRAMES-eng.markup">5</property>
  <property name="meta.attr.4.stream.NUMBER_OF_BYTES-eng.markup">289</property>
  <property name="meta.attr.4.stream._STATISTICS_WRITING_APP-eng.markup">mkvmerge v52.0.0 ('Secret For The Mad') 64-bit</property>
  <property name="meta.attr.4.stream._STATISTICS_WRITING_DATE_UTC-eng.markup">2022-10-15 07:44:57</property>
  <property name="meta.attr.4.stream._STATISTICS_TAGS-eng.markup">BPS DURATION NUMBER_OF_FRAMES NUMBER_OF_BYTES</property>
  <property name="meta.media.5.codec.name">ssa</property>
  <property name="meta.media.5.codec.long_name">ASS (Advanced SubStation Alpha) subtitle</property>
  <property name="meta.media.5.codec.bit_rate">0</property>
  <property name="meta.attr.5.stream.language.markup">ara</property>
  <property name="meta.attr.5.stream.title.markup">Arabic</property>
  <property name="meta.attr.5.stream.BPS-eng.markup">127</property>
  <property name="meta.attr.5.stream.DURATION-eng.markup">00:22:16.870000000</property>
  <property name="meta.attr.5.stream.NUMBER_OF_FRAMES-eng.markup">338</property>
  <property name="meta.attr.5.stream.NUMBER_OF_BYTES-eng.markup">21336</property>
  <property name="meta.attr.5.stream._STATISTICS_WRITING_APP-eng.markup">mkvmerge v52.0.0 ('Secret For The Mad') 64-bit</property>
  <property name="meta.attr.5.stream._STATISTICS_WRITING_DATE_UTC-eng.markup">2022-10-15 07:44:57</property>
  <property name="meta.attr.5.stream._STATISTICS_TAGS-eng.markup">BPS DURATION NUMBER_OF_FRAMES NUMBER_OF_BYTES</property>
  <property name="meta.attr.title.markup">Monster : Chapter 05 : The Girl From Heidelberg</property>
  <property name="meta.attr.encoder.markup">libebml v1.4.1 + libmatroska v1.6.2</property>
  <property name="meta.attr.creation_time.markup">2022-10-15T07:44:57.000000Z</property>
  <property name="seekable">1</property>
  <property name="meta.media.sample_aspect_num">1</property>
  <property name="meta.media.sample_aspect_den">1</property>
  <property name="format">3</property>
  <property name="audio_index">1</property>
  <property name="video_index">0</property>
  <property name="warp_speed">0.75</property>
  <property name="warp_resource">/mnt/data0/Monster/Monster-Editing/Orig/Monster - Chapter 05 - The Girl From Heidelberg.mkv</property>
  <property name="mlt_service">timewarp</property>
  <property name="set.test_audio">1</property>
  <property name="set.test_image">0</property>
  <property name="kdenlive:id">2</property>
  <property name="warp_pitch">0</property>
  <property name="meta.media.frame_rate_num">24000</property>
  <property name="meta.media.frame_rate_den">1001</property>
  <property name="meta.media.colorspace">709</property>
  <property name="meta.media.color_trc">1</property>
  <property name="meta.media.has_b_frames">2</property>
  <property name="meta.media.width">1440</property>
  <property name="meta.media.height">1080</property>
  <property name="meta.media.color_range">mpeg</property>
  <property name="meta.media.top_field_first">0</property>
  <property name="meta.media.progressive">1</property>
  <property name="kdenlive:control_uuid">{5ce384bd-b6ae-494b-bd4a-b36d57a8c1c7}</property>
  <property name="vstream">0</property>
  <property name="meta.media.aspect_ratio">1</property>
  <property name="astream">0</property>
 </producer>
 <chain id="producer20" out="00:23:55.472">
  <property name="length">34417</property>
  <property name="eof">pause</property>
  <property name="resource">/mnt/data0/Monster/Monster-Editing/Orig/Monster - Chapter 06 - Disappearance Report.mkv</property>
  <property name="mlt_service">avformat-novalidate</property>
  <property name="audio_index">1</property>
  <property name="video_index">0</property>
  <property name="meta.media.nb_streams">71</property>
  <property name="meta.media.0.stream.type">video</property>
  <property name="meta.media.0.stream.frame_rate">23.976</property>
  <property name="meta.media.0.stream.sample_aspect_ratio">1</property>
  <property name="meta.media.0.codec.width">1440</property>
  <property name="meta.media.0.codec.height">1080</property>
  <property name="meta.media.0.codec.rotate">0</property>
  <property name="meta.media.0.codec.pix_fmt">yuv420p10le</property>
  <property name="meta.media.0.codec.sample_aspect_ratio">1</property>
  <property name="meta.media.0.codec.colorspace">709</property>
  <property name="meta.media.0.codec.color_trc">1</property>
  <property name="meta.media.0.codec.name">hevc</property>
  <property name="meta.media.0.codec.long_name">HEVC (High Efficiency Video Coding)</property>
  <property name="meta.media.0.codec.bit_rate">0</property>
  <property name="meta.attr.0.stream.BPS.markup">1968506</property>
  <property name="meta.attr.0.stream.DURATION.markup">00:23:55.434000000</property>
  <property name="meta.attr.0.stream.NUMBER_OF_FRAMES.markup">34416</property>
  <property name="meta.attr.0.stream.NUMBER_OF_BYTES.markup">353207706</property>
  <property name="meta.attr.0.stream._STATISTICS_WRITING_APP.markup">mkvmerge v61.0.0 ('So') 64-bit</property>
  <property name="meta.attr.0.stream._STATISTICS_WRITING_DATE_UTC.markup">2022-10-15 07:52:21</property>
  <property name="meta.attr.0.stream._STATISTICS_TAGS.markup">BPS DURATION NUMBER_OF_FRAMES NUMBER_OF_BYTES</property>
  <property name="meta.media.1.stream.type">audio</property>
  <property name="meta.media.1.codec.sample_fmt">fltp</property>
  <property name="meta.media.1.codec.sample_rate">48000</property>
  <property name="meta.media.1.codec.channels">2</property>
  <property name="meta.media.1.codec.name">ac3</property>
  <property name="meta.media.1.codec.long_name">ATSC A/52A (AC-3)</property>
  <property name="meta.media.1.codec.bit_rate">448000</property>
  <property name="meta.attr.1.stream.language.markup">jpn</property>
  <property name="meta.attr.1.stream.title.markup">Japanese DVD AC-3 DD_2.0</property>
  <property name="meta.attr.1.stream.BPS.markup">448000</property>
  <property name="meta.attr.1.stream.DURATION.markup">00:23:55.456000000</property>
  <property name="meta.attr.1.stream.NUMBER_OF_FRAMES.markup">44858</property>
  <property name="meta.attr.1.stream.NUMBER_OF_BYTES.markup">80385536</property>
  <property name="meta.attr.1.stream._STATISTICS_WRITING_APP.markup">mkvmerge v61.0.0 ('So') 64-bit</property>
  <property name="meta.attr.1.stream._STATISTICS_WRITING_DATE_UTC.markup">2022-10-15 07:52:21</property>
  <property name="meta.attr.1.stream._STATISTICS_TAGS.markup">BPS DURATION NUMBER_OF_FRAMES NUMBER_OF_BYTES</property>
  <property name="meta.media.2.stream.type">audio</property>
  <property name="meta.media.2.codec.sample_fmt">fltp</property>
  <property name="meta.media.2.codec.sample_rate">48000</property>
  <property name="meta.media.2.codec.channels">2</property>
  <property name="meta.media.2.codec.name">aac</property>
  <property name="meta.media.2.codec.long_name">AAC (Advanced Audio Coding)</property>
  <property name="meta.media.2.codec.bit_rate">0</property>
  <property name="meta.attr.2.stream.language.markup">eng</property>
  <property name="meta.attr.2.stream.title.markup">English AAC DD_2.0</property>
  <property name="meta.attr.2.stream.BPS.markup">154970</property>
  <property name="meta.attr.2.stream.DURATION.markup">00:23:55.412000000</property>
  <property name="meta.attr.2.stream.NUMBER_OF_FRAMES.markup">67285</property>
  <property name="meta.attr.2.stream.NUMBER_OF_BYTES.markup">27805898</property>
  <property name="meta.attr.2.stream._STATISTICS_WRITING_APP.markup">mkvmerge v61.0.0 ('So') 64-bit</property>
  <property name="meta.attr.2.stream._STATISTICS_WRITING_DATE_UTC.markup">2022-10-15 07:52:21</property>
  <property name="meta.attr.2.stream._STATISTICS_TAGS.markup">BPS DURATION NUMBER_OF_FRAMES NUMBER_OF_BYTES</property>
  <property name="meta.media.3.codec.name">ssa</property>
  <property name="meta.media.3.codec.long_name">ASS (Advanced SubStation Alpha) subtitle</property>
  <property name="meta.media.3.codec.bit_rate">0</property>
  <property name="meta.attr.3.stream.language.markup">eng</property>
  <property name="meta.attr.3.stream.title.markup">English (Full) ASS</property>
  <property name="meta.attr.3.stream.BPS.markup">98</property>
  <property name="meta.attr.3.stream.DURATION.markup">00:23:51.650000000</property>
  <property name="meta.attr.3.stream.NUMBER_OF_FRAMES.markup">312</property>
  <property name="meta.attr.3.stream.NUMBER_OF_BYTES.markup">17553</property>
  <property name="meta.attr.3.stream._STATISTICS_WRITING_APP.markup">mkvmerge v61.0.0 ('So') 64-bit</property>
  <property name="meta.attr.3.stream._STATISTICS_WRITING_DATE_UTC.markup">2022-10-15 07:52:21</property>
  <property name="meta.attr.3.stream._STATISTICS_TAGS.markup">BPS DURATION NUMBER_OF_FRAMES NUMBER_OF_BYTES</property>
  <property name="meta.media.4.codec.name">ssa</property>
  <property name="meta.media.4.codec.long_name">ASS (Advanced SubStation Alpha) subtitle</property>
  <property name="meta.media.4.codec.bit_rate">0</property>
  <property name="meta.attr.4.stream.language.markup">eng</property>
  <property name="meta.attr.4.stream.title.markup">English (Titles &amp; Signs) ASS</property>
  <property name="meta.attr.4.stream.BPS.markup">0</property>
  <property name="meta.attr.4.stream.DURATION.markup">00:18:33.530000000</property>
  <property name="meta.attr.4.stream.NUMBER_OF_FRAMES.markup">2</property>
  <property name="meta.attr.4.stream.NUMBER_OF_BYTES.markup">133</property>
  <property name="meta.attr.4.stream._STATISTICS_WRITING_APP.markup">mkvmerge v61.0.0 ('So') 64-bit</property>
  <property name="meta.attr.4.stream._STATISTICS_WRITING_DATE_UTC.markup">2022-10-15 07:52:21</property>
  <property name="meta.attr.4.stream._STATISTICS_TAGS.markup">BPS DURATION NUMBER_OF_FRAMES NUMBER_OF_BYTES</property>
  <property name="meta.media.5.codec.name">ssa</property>
  <property name="meta.media.5.codec.long_name">ASS (Advanced SubStation Alpha) subtitle</property>
  <property name="meta.media.5.codec.bit_rate">0</property>
  <property name="meta.attr.5.stream.language.markup">ara</property>
  <property name="meta.attr.5.stream.title.markup">Arabic</property>
  <property name="meta.attr.5.stream.BPS.markup">123</property>
  <property name="meta.attr.5.stream.DURATION.markup">00:22:15.360000000</property>
  <property name="meta.attr.5.stream.NUMBER_OF_FRAMES.markup">337</property>
  <property name="meta.attr.5.stream.NUMBER_OF_BYTES.markup">20539</property>
  <property name="meta.attr.5.stream._STATISTICS_WRITING_APP.markup">mkvmerge v61.0.0 ('So') 64-bit</property>
  <property name="meta.attr.5.stream._STATISTICS_WRITING_DATE_UTC.markup">2022-10-15 07:52:21</property>
  <property name="meta.attr.5.stream._STATISTICS_TAGS.markup">BPS DURATION NUMBER_OF_FRAMES NUMBER_OF_BYTES</property>
  <property name="meta.attr.title.markup">Monster : Chapter 06 : Disappearance Report</property>
  <property name="meta.attr.encoder.markup">libebml v1.4.2 + libmatroska v1.6.4</property>
  <property name="meta.attr.creation_time.markup">2022-10-15T07:52:21.000000Z</property>
  <property name="seekable">1</property>
  <property name="meta.media.sample_aspect_num">1</property>
  <property name="meta.media.sample_aspect_den">1</property>
  <property name="aspect_ratio">1</property>
  <property name="kdenlive:clipname"/>
  <property name="kdenlive:clip_type">0</property>
  <property name="kdenlive:folderid">-1</property>
  <property name="kdenlive:id">3</property>
  <property name="kdenlive:active_streams">1;2</property>
  <property name="kdenlive:file_size">471179261</property>
  <property name="kdenlive:file_hash">1b1fd9608884f30664973003674870d7</property>
  <property name="kdenlive:audio_max1">180</property>
  <property name="kdenlive:audio_max2">203</property>
  <property name="xml">was here</property>
  <property name="meta.media.frame_rate_num">24000</property>
  <property name="meta.media.frame_rate_den">1001</property>
  <property name="meta.media.colorspace">709</property>
  <property name="meta.media.color_trc">1</property>
  <property name="meta.media.has_b_frames">2</property>
  <property name="meta.media.width">1440</property>
  <property name="meta.media.height">1080</property>
  <property name="meta.media.color_range">mpeg</property>
  <property name="meta.media.top_field_first">0</property>
  <property name="meta.media.progressive">1</property>
  <property name="set.test_audio">1</property>
  <property name="set.test_image">0</property>
  <property name="format">3</property>
  <property name="kdenlive:control_uuid">{385175a1-cef7-4b87-92fc-1ba5bc0b2223}</property>
  <property name="meta.media.1.codec.layout">stereo</property>
  <property name="meta.media.2.codec.layout">stereo</property>
  <property name="vstream">0</property>
  <property name="meta.media.aspect_ratio">1</property>
  <property name="astream">0</property>
 </chain>
 <producer id="producer21" in="00:00:00.000" out="00:11:57.683">
  <property name="length">17209</property>
  <property name="eof">pause</property>
  <property name="resource">2:/mnt/data0/Monster/Monster-Editing/Orig/Monster - Chapter 06 - Disappearance Report.mkv</property>
  <property name="aspect_ratio">1</property>
  <property name="meta.media.nb_streams">71</property>
  <property name="meta.media.0.stream.type">video</property>
  <property name="meta.media.0.stream.frame_rate">23.976</property>
  <property name="meta.media.0.stream.sample_aspect_ratio">1</property>
  <property name="meta.media.0.codec.width">1440</property>
  <property name="meta.media.0.codec.height">1080</property>
  <property name="meta.media.0.codec.rotate">0</property>
  <property name="meta.media.0.codec.pix_fmt">yuv420p10le</property>
  <property name="meta.media.0.codec.sample_aspect_ratio">1</property>
  <property name="meta.media.0.codec.colorspace">709</property>
  <property name="meta.media.0.codec.color_trc">1</property>
  <property name="meta.media.0.codec.name">hevc</property>
  <property name="meta.media.0.codec.long_name">HEVC (High Efficiency Video Coding)</property>
  <property name="meta.media.0.codec.bit_rate">0</property>
  <property name="meta.attr.0.stream.BPS.markup">1968506</property>
  <property name="meta.attr.0.stream.DURATION.markup">00:23:55.434000000</property>
  <property name="meta.attr.0.stream.NUMBER_OF_FRAMES.markup">34416</property>
  <property name="meta.attr.0.stream.NUMBER_OF_BYTES.markup">353207706</property>
  <property name="meta.attr.0.stream._STATISTICS_WRITING_APP.markup">mkvmerge v61.0.0 ('So') 64-bit</property>
  <property name="meta.attr.0.stream._STATISTICS_WRITING_DATE_UTC.markup">2022-10-15 07:52:21</property>
  <property name="meta.attr.0.stream._STATISTICS_TAGS.markup">BPS DURATION NUMBER_OF_FRAMES NUMBER_OF_BYTES</property>
  <property name="meta.media.1.stream.type">audio</property>
  <property name="meta.media.1.codec.sample_fmt">fltp</property>
  <property name="meta.media.1.codec.sample_rate">48000</property>
  <property name="meta.media.1.codec.channels">2</property>
  <property name="meta.media.1.codec.layout">stereo</property>
  <property name="meta.media.1.codec.name">ac3</property>
  <property name="meta.media.1.codec.long_name">ATSC A/52A (AC-3)</property>
  <property name="meta.media.1.codec.bit_rate">448000</property>
  <property name="meta.attr.1.stream.language.markup">jpn</property>
  <property name="meta.attr.1.stream.title.markup">Japanese DVD AC-3 DD_2.0</property>
  <property name="meta.attr.1.stream.BPS.markup">448000</property>
  <property name="meta.attr.1.stream.DURATION.markup">00:23:55.456000000</property>
  <property name="meta.attr.1.stream.NUMBER_OF_FRAMES.markup">44858</property>
  <property name="meta.attr.1.stream.NUMBER_OF_BYTES.markup">80385536</property>
  <property name="meta.attr.1.stream._STATISTICS_WRITING_APP.markup">mkvmerge v61.0.0 ('So') 64-bit</property>
  <property name="meta.attr.1.stream._STATISTICS_WRITING_DATE_UTC.markup">2022-10-15 07:52:21</property>
  <property name="meta.attr.1.stream._STATISTICS_TAGS.markup">BPS DURATION NUMBER_OF_FRAMES NUMBER_OF_BYTES</property>
  <property name="meta.media.2.stream.type">audio</property>
  <property name="meta.media.2.codec.sample_fmt">fltp</property>
  <property name="meta.media.2.codec.sample_rate">48000</property>
  <property name="meta.media.2.codec.channels">2</property>
  <property name="meta.media.2.codec.layout">stereo</property>
  <property name="meta.media.2.codec.name">aac</property>
  <property name="meta.media.2.codec.long_name">AAC (Advanced Audio Coding)</property>
  <property name="meta.media.2.codec.bit_rate">0</property>
  <property name="meta.attr.2.stream.language.markup">eng</property>
  <property name="meta.attr.2.stream.title.markup">English AAC DD_2.0</property>
  <property name="meta.attr.2.stream.BPS.markup">154970</property>
  <property name="meta.attr.2.stream.DURATION.markup">00:23:55.412000000</property>
  <property name="meta.attr.2.stream.NUMBER_OF_FRAMES.markup">67285</property>
  <property name="meta.attr.2.stream.NUMBER_OF_BYTES.markup">27805898</property>
  <property name="meta.attr.2.stream._STATISTICS_WRITING_APP.markup">mkvmerge v61.0.0 ('So') 64-bit</property>
  <property name="meta.attr.2.stream._STATISTICS_WRITING_DATE_UTC.markup">2022-10-15 07:52:21</property>
  <property name="meta.attr.2.stream._STATISTICS_TAGS.markup">BPS DURATION NUMBER_OF_FRAMES NUMBER_OF_BYTES</property>
  <property name="meta.media.3.codec.name">ssa</property>
  <property name="meta.media.3.codec.long_name">ASS (Advanced SubStation Alpha) subtitle</property>
  <property name="meta.media.3.codec.bit_rate">0</property>
  <property name="meta.attr.3.stream.language.markup">eng</property>
  <property name="meta.attr.3.stream.title.markup">English (Full) ASS</property>
  <property name="meta.attr.3.stream.BPS.markup">98</property>
  <property name="meta.attr.3.stream.DURATION.markup">00:23:51.650000000</property>
  <property name="meta.attr.3.stream.NUMBER_OF_FRAMES.markup">312</property>
  <property name="meta.attr.3.stream.NUMBER_OF_BYTES.markup">17553</property>
  <property name="meta.attr.3.stream._STATISTICS_WRITING_APP.markup">mkvmerge v61.0.0 ('So') 64-bit</property>
  <property name="meta.attr.3.stream._STATISTICS_WRITING_DATE_UTC.markup">2022-10-15 07:52:21</property>
  <property name="meta.attr.3.stream._STATISTICS_TAGS.markup">BPS DURATION NUMBER_OF_FRAMES NUMBER_OF_BYTES</property>
  <property name="meta.media.4.codec.name">ssa</property>
  <property name="meta.media.4.codec.long_name">ASS (Advanced SubStation Alpha) subtitle</property>
  <property name="meta.media.4.codec.bit_rate">0</property>
  <property name="meta.attr.4.stream.language.markup">eng</property>
  <property name="meta.attr.4.stream.title.markup">English (Titles &amp; Signs) ASS</property>
  <property name="meta.attr.4.stream.BPS.markup">0</property>
  <property name="meta.attr.4.stream.DURATION.markup">00:18:33.530000000</property>
  <property name="meta.attr.4.stream.NUMBER_OF_FRAMES.markup">2</property>
  <property name="meta.attr.4.stream.NUMBER_OF_BYTES.markup">133</property>
  <property name="meta.attr.4.stream._STATISTICS_WRITING_APP.markup">mkvmerge v61.0.0 ('So') 64-bit</property>
  <property name="meta.attr.4.stream._STATISTICS_WRITING_DATE_UTC.markup">2022-10-15 07:52:21</property>
  <property name="meta.attr.4.stream._STATISTICS_TAGS.markup">BPS DURATION NUMBER_OF_FRAMES NUMBER_OF_BYTES</property>
  <property name="meta.media.5.codec.name">ssa</property>
  <property name="meta.media.5.codec.long_name">ASS (Advanced SubStation Alpha) subtitle</property>
  <property name="meta.media.5.codec.bit_rate">0</property>
  <property name="meta.attr.5.stream.language.markup">ara</property>
  <property name="meta.attr.5.stream.title.markup">Arabic</property>
  <property name="meta.attr.5.stream.BPS.markup">123</property>
  <property name="meta.attr.5.stream.DURATION.markup">00:22:15.360000000</property>
  <property name="meta.attr.5.stream.NUMBER_OF_FRAMES.markup">337</property>
  <property name="meta.attr.5.stream.NUMBER_OF_BYTES.markup">20539</property>
  <property name="meta.attr.5.stream._STATISTICS_WRITING_APP.markup">mkvmerge v61.0.0 ('So') 64-bit</property>
  <property name="meta.attr.5.stream._STATISTICS_WRITING_DATE_UTC.markup">2022-10-15 07:52:21</property>
  <property name="meta.attr.5.stream._STATISTICS_TAGS.markup">BPS DURATION NUMBER_OF_FRAMES NUMBER_OF_BYTES</property>
  <property name="meta.attr.title.markup">Monster : Chapter 06 : Disappearance Report</property>
  <property name="meta.attr.encoder.markup">libebml v1.4.2 + libmatroska v1.6.4</property>
  <property name="meta.attr.creation_time.markup">2022-10-15T07:52:21.000000Z</property>
  <property name="seekable">1</property>
  <property name="meta.media.sample_aspect_num">1</property>
  <property name="meta.media.sample_aspect_den">1</property>
  <property name="format">3</property>
  <property name="audio_index">1</property>
  <property name="video_index">0</property>
  <property name="warp_speed">2</property>
  <property name="warp_resource">/mnt/data0/Monster/Monster-Editing/Orig/Monster - Chapter 06 - Disappearance Report.mkv</property>
  <property name="mlt_service">timewarp</property>
  <property name="set.test_audio">1</property>
  <property name="set.test_image">0</property>
  <property name="kdenlive:id">3</property>
  <property name="warp_pitch">0</property>
  <property name="meta.media.frame_rate_num">24000</property>
  <property name="meta.media.frame_rate_den">1001</property>
  <property name="meta.media.colorspace">709</property>
  <property name="meta.media.color_trc">1</property>
  <property name="meta.media.has_b_frames">2</property>
  <property name="meta.media.width">1440</property>
  <property name="meta.media.height">1080</property>
  <property name="meta.media.color_range">mpeg</property>
  <property name="meta.media.top_field_first">0</property>
  <property name="meta.media.progressive">1</property>
  <property name="kdenlive:control_uuid">{385175a1-cef7-4b87-92fc-1ba5bc0b2223}</property>
 </producer>
 <chain id="producer22" out="00:23:55.472">
  <property name="length">34417</property>
  <property name="eof">pause</property>
  <property name="resource">/mnt/data0/Monster/Monster-Editing/Orig/Monster - Chapter 07 - Mansion Of Tragedy.mkv</property>
  <property name="mlt_service">avformat-novalidate</property>
  <property name="audio_index">1</property>
  <property name="video_index">0</property>
  <property name="meta.media.nb_streams">23</property>
  <property name="meta.media.0.stream.type">video</property>
  <property name="meta.media.0.stream.frame_rate">23.976</property>
  <property name="meta.media.0.stream.sample_aspect_ratio">1</property>
  <property name="meta.media.0.codec.width">1440</property>
  <property name="meta.media.0.codec.height">1080</property>
  <property name="meta.media.0.codec.rotate">0</property>
  <property name="meta.media.0.codec.pix_fmt">yuv420p10le</property>
  <property name="meta.media.0.codec.sample_aspect_ratio">1</property>
  <property name="meta.media.0.codec.colorspace">709</property>
  <property name="meta.media.0.codec.color_trc">1</property>
  <property name="meta.media.0.codec.name">hevc</property>
  <property name="meta.media.0.codec.long_name">HEVC (High Efficiency Video Coding)</property>
  <property name="meta.media.0.codec.bit_rate">0</property>
  <property name="meta.attr.0.stream.BPS.markup">1767757</property>
  <property name="meta.attr.0.stream.DURATION.markup">00:23:55.434000000</property>
  <property name="meta.attr.0.stream.NUMBER_OF_FRAMES.markup">34416</property>
  <property name="meta.attr.0.stream.NUMBER_OF_BYTES.markup">317187435</property>
  <property name="meta.attr.0.stream._STATISTICS_WRITING_APP.markup">mkvmerge v61.0.0 ('So') 64-bit</property>
  <property name="meta.attr.0.stream._STATISTICS_WRITING_DATE_UTC.markup">2022-10-15 07:56:27</property>
  <property name="meta.attr.0.stream._STATISTICS_TAGS.markup">BPS DURATION NUMBER_OF_FRAMES NUMBER_OF_BYTES</property>
  <property name="meta.media.1.stream.type">audio</property>
  <property name="meta.media.1.codec.sample_fmt">fltp</property>
  <property name="meta.media.1.codec.sample_rate">48000</property>
  <property name="meta.media.1.codec.channels">2</property>
  <property name="meta.media.1.codec.name">ac3</property>
  <property name="meta.media.1.codec.long_name">ATSC A/52A (AC-3)</property>
  <property name="meta.media.1.codec.bit_rate">448000</property>
  <property name="meta.attr.1.stream.language.markup">jpn</property>
  <property name="meta.attr.1.stream.title.markup">Japanese DVD AC-3 DD_2.0</property>
  <property name="meta.attr.1.stream.BPS.markup">448000</property>
  <property name="meta.attr.1.stream.DURATION.markup">00:23:55.488000000</property>
  <property name="meta.attr.1.stream.NUMBER_OF_FRAMES.markup">44859</property>
  <property name="meta.attr.1.stream.NUMBER_OF_BYTES.markup">80387328</property>
  <property name="meta.attr.1.stream._STATISTICS_WRITING_APP.markup">mkvmerge v61.0.0 ('So') 64-bit</property>
  <property name="meta.attr.1.stream._STATISTICS_WRITING_DATE_UTC.markup">2022-10-15 07:56:27</property>
  <property name="meta.attr.1.stream._STATISTICS_TAGS.markup">BPS DURATION NUMBER_OF_FRAMES NUMBER_OF_BYTES</property>
  <property name="meta.media.2.stream.type">audio</property>
  <property name="meta.media.2.codec.sample_fmt">fltp</property>
  <property name="meta.media.2.codec.sample_rate">48000</property>
  <property name="meta.media.2.codec.channels">2</property>
  <property name="meta.media.2.codec.name">aac</property>
  <property name="meta.media.2.codec.long_name">AAC (Advanced Audio Coding)</property>
  <property name="meta.media.2.codec.bit_rate">0</property>
  <property name="meta.attr.2.stream.language.markup">eng</property>
  <property name="meta.attr.2.stream.title.markup">English AAC DD_2.0</property>
  <property name="meta.attr.2.stream.BPS.markup">164115</property>
  <property name="meta.attr.2.stream.DURATION.markup">00:23:55.199000000</property>
  <property name="meta.attr.2.stream.NUMBER_OF_FRAMES.markup">67275</property>
  <property name="meta.attr.2.stream.NUMBER_OF_BYTES.markup">29442361</property>
  <property name="meta.attr.2.stream._STATISTICS_WRITING_APP.markup">mkvmerge v61.0.0 ('So') 64-bit</property>
  <property name="meta.attr.2.stream._STATISTICS_WRITING_DATE_UTC.markup">2022-10-15 07:56:27</property>
  <property name="meta.attr.2.stream._STATISTICS_TAGS.markup">BPS DURATION NUMBER_OF_FRAMES NUMBER_OF_BYTES</property>
  <property name="meta.media.3.codec.name">ssa</property>
  <property name="meta.media.3.codec.long_name">ASS (Advanced SubStation Alpha) subtitle</property>
  <property name="meta.media.3.codec.bit_rate">0</property>
  <property name="meta.attr.3.stream.language.markup">eng</property>
  <property name="meta.attr.3.stream.title.markup">English (Full) ASS</property>
  <property name="meta.attr.3.stream.BPS.markup">70</property>
  <property name="meta.attr.3.stream.DURATION.markup">00:23:51.620000000</property>
  <property name="meta.attr.3.stream.NUMBER_OF_FRAMES.markup">223</property>
  <property name="meta.attr.3.stream.NUMBER_OF_BYTES.markup">12615</property>
  <property name="meta.attr.3.stream._STATISTICS_WRITING_APP.markup">mkvmerge v61.0.0 ('So') 64-bit</property>
  <property name="meta.attr.3.stream._STATISTICS_WRITING_DATE_UTC.markup">2022-10-15 07:56:27</property>
  <property name="meta.attr.3.stream._STATISTICS_TAGS.markup">BPS DURATION NUMBER_OF_FRAMES NUMBER_OF_BYTES</property>
  <property name="meta.media.4.codec.name">ssa</property>
  <property name="meta.media.4.codec.long_name">ASS (Advanced SubStation Alpha) subtitle</property>
  <property name="meta.media.4.codec.bit_rate">0</property>
  <property name="meta.attr.4.stream.language.markup">eng</property>
  <property name="meta.attr.4.stream.title.markup">English (Titles &amp; Signs) ASS</property>
  <property name="meta.attr.4.stream.BPS.markup">1</property>
  <property name="meta.attr.4.stream.DURATION.markup">00:21:44.010000000</property>
  <property name="meta.attr.4.stream.NUMBER_OF_FRAMES.markup">3</property>
  <property name="meta.attr.4.stream.NUMBER_OF_BYTES.markup">191</property>
  <property name="meta.attr.4.stream._STATISTICS_WRITING_APP.markup">mkvmerge v61.0.0 ('So') 64-bit</property>
  <property name="meta.attr.4.stream._STATISTICS_WRITING_DATE_UTC.markup">2022-10-15 07:56:27</property>
  <property name="meta.attr.4.stream._STATISTICS_TAGS.markup">BPS DURATION NUMBER_OF_FRAMES NUMBER_OF_BYTES</property>
  <property name="meta.media.5.codec.name">ssa</property>
  <property name="meta.media.5.codec.long_name">ASS (Advanced SubStation Alpha) subtitle</property>
  <property name="meta.media.5.codec.bit_rate">0</property>
  <property name="meta.attr.5.stream.language.markup">ara</property>
  <property name="meta.attr.5.stream.title.markup">Arabic</property>
  <property name="meta.attr.5.stream.BPS.markup">90</property>
  <property name="meta.attr.5.stream.DURATION.markup">00:22:20.770000000</property>
  <property name="meta.attr.5.stream.NUMBER_OF_FRAMES.markup">264</property>
  <property name="meta.attr.5.stream.NUMBER_OF_BYTES.markup">15190</property>
  <property name="meta.attr.5.stream._STATISTICS_WRITING_APP.markup">mkvmerge v61.0.0 ('So') 64-bit</property>
  <property name="meta.attr.5.stream._STATISTICS_WRITING_DATE_UTC.markup">2022-10-15 07:56:27</property>
  <property name="meta.attr.5.stream._STATISTICS_TAGS.markup">BPS DURATION NUMBER_OF_FRAMES NUMBER_OF_BYTES</property>
  <property name="meta.attr.title.markup">Monster : Chapter 07 : Mansion Of Tragedy</property>
  <property name="meta.attr.encoder.markup">libebml v1.4.2 + libmatroska v1.6.4</property>
  <property name="meta.attr.creation_time.markup">2022-10-15T07:56:27.000000Z</property>
  <property name="seekable">1</property>
  <property name="meta.media.sample_aspect_num">1</property>
  <property name="meta.media.sample_aspect_den">1</property>
  <property name="aspect_ratio">1</property>
  <property name="kdenlive:clipname"/>
  <property name="kdenlive:clip_type">0</property>
  <property name="kdenlive:folderid">-1</property>
  <property name="kdenlive:id">4</property>
  <property name="kdenlive:active_streams">1;2</property>
  <property name="kdenlive:file_size">429931651</property>
  <property name="kdenlive:file_hash">193fc345bd5971e8a2bf1cfee4681626</property>
  <property name="kdenlive:audio_max1">178</property>
  <property name="kdenlive:audio_max2">207</property>
  <property name="xml">was here</property>
  <property name="meta.media.frame_rate_num">24000</property>
  <property name="meta.media.frame_rate_den">1001</property>
  <property name="meta.media.colorspace">709</property>
  <property name="meta.media.color_trc">1</property>
  <property name="meta.media.has_b_frames">2</property>
  <property name="meta.media.width">1440</property>
  <property name="meta.media.height">1080</property>
  <property name="meta.media.color_range">mpeg</property>
  <property name="meta.media.top_field_first">0</property>
  <property name="meta.media.progressive">1</property>
  <property name="set.test_audio">1</property>
  <property name="set.test_image">0</property>
  <property name="format">3</property>
  <property name="vstream">0</property>
  <property name="astream">0</property>
  <property name="kdenlive:control_uuid">{f6a7a0b1-dd02-4ebf-b54a-da71ba6720db}</property>
 </chain>
 <producer id="producer23" in="00:00:00.000" out="00:15:56.974">
  <property name="length">22945</property>
  <property name="eof">pause</property>
  <property name="resource">1.5:/mnt/data0/Monster/Monster-Editing/Orig/Monster - Chapter 07 - Mansion Of Tragedy.mkv</property>
  <property name="aspect_ratio">1</property>
  <property name="meta.media.nb_streams">23</property>
  <property name="meta.media.0.stream.type">video</property>
  <property name="meta.media.0.stream.frame_rate">23.976</property>
  <property name="meta.media.0.stream.sample_aspect_ratio">1</property>
  <property name="meta.media.0.codec.width">1440</property>
  <property name="meta.media.0.codec.height">1080</property>
  <property name="meta.media.0.codec.rotate">0</property>
  <property name="meta.media.0.codec.pix_fmt">yuv420p10le</property>
  <property name="meta.media.0.codec.sample_aspect_ratio">1</property>
  <property name="meta.media.0.codec.colorspace">709</property>
  <property name="meta.media.0.codec.color_trc">1</property>
  <property name="meta.media.0.codec.name">hevc</property>
  <property name="meta.media.0.codec.long_name">HEVC (High Efficiency Video Coding)</property>
  <property name="meta.media.0.codec.bit_rate">0</property>
  <property name="meta.attr.0.stream.BPS.markup">1767757</property>
  <property name="meta.attr.0.stream.DURATION.markup">00:23:55.434000000</property>
  <property name="meta.attr.0.stream.NUMBER_OF_FRAMES.markup">34416</property>
  <property name="meta.attr.0.stream.NUMBER_OF_BYTES.markup">317187435</property>
  <property name="meta.attr.0.stream._STATISTICS_WRITING_APP.markup">mkvmerge v61.0.0 ('So') 64-bit</property>
  <property name="meta.attr.0.stream._STATISTICS_WRITING_DATE_UTC.markup">2022-10-15 07:56:27</property>
  <property name="meta.attr.0.stream._STATISTICS_TAGS.markup">BPS DURATION NUMBER_OF_FRAMES NUMBER_OF_BYTES</property>
  <property name="meta.media.1.stream.type">audio</property>
  <property name="meta.media.1.codec.sample_fmt">fltp</property>
  <property name="meta.media.1.codec.sample_rate">48000</property>
  <property name="meta.media.1.codec.channels">2</property>
  <property name="meta.media.1.codec.layout">stereo</property>
  <property name="meta.media.1.codec.name">ac3</property>
  <property name="meta.media.1.codec.long_name">ATSC A/52A (AC-3)</property>
  <property name="meta.media.1.codec.bit_rate">448000</property>
  <property name="meta.attr.1.stream.language.markup">jpn</property>
  <property name="meta.attr.1.stream.title.markup">Japanese DVD AC-3 DD_2.0</property>
  <property name="meta.attr.1.stream.BPS.markup">448000</property>
  <property name="meta.attr.1.stream.DURATION.markup">00:23:55.488000000</property>
  <property name="meta.attr.1.stream.NUMBER_OF_FRAMES.markup">44859</property>
  <property name="meta.attr.1.stream.NUMBER_OF_BYTES.markup">80387328</property>
  <property name="meta.attr.1.stream._STATISTICS_WRITING_APP.markup">mkvmerge v61.0.0 ('So') 64-bit</property>
  <property name="meta.attr.1.stream._STATISTICS_WRITING_DATE_UTC.markup">2022-10-15 07:56:27</property>
  <property name="meta.attr.1.stream._STATISTICS_TAGS.markup">BPS DURATION NUMBER_OF_FRAMES NUMBER_OF_BYTES</property>
  <property name="meta.media.2.stream.type">audio</property>
  <property name="meta.media.2.codec.sample_fmt">fltp</property>
  <property name="meta.media.2.codec.sample_rate">48000</property>
  <property name="meta.media.2.codec.channels">2</property>
  <property name="meta.media.2.codec.layout">stereo</property>
  <property name="meta.media.2.codec.name">aac</property>
  <property name="meta.media.2.codec.long_name">AAC (Advanced Audio Coding)</property>
  <property name="meta.media.2.codec.bit_rate">0</property>
  <property name="meta.attr.2.stream.language.markup">eng</property>
  <property name="meta.attr.2.stream.title.markup">English AAC DD_2.0</property>
  <property name="meta.attr.2.stream.BPS.markup">164115</property>
  <property name="meta.attr.2.stream.DURATION.markup">00:23:55.199000000</property>
  <property name="meta.attr.2.stream.NUMBER_OF_FRAMES.markup">67275</property>
  <property name="meta.attr.2.stream.NUMBER_OF_BYTES.markup">29442361</property>
  <property name="meta.attr.2.stream._STATISTICS_WRITING_APP.markup">mkvmerge v61.0.0 ('So') 64-bit</property>
  <property name="meta.attr.2.stream._STATISTICS_WRITING_DATE_UTC.markup">2022-10-15 07:56:27</property>
  <property name="meta.attr.2.stream._STATISTICS_TAGS.markup">BPS DURATION NUMBER_OF_FRAMES NUMBER_OF_BYTES</property>
  <property name="meta.media.3.codec.name">ssa</property>
  <property name="meta.media.3.codec.long_name">ASS (Advanced SubStation Alpha) subtitle</property>
  <property name="meta.media.3.codec.bit_rate">0</property>
  <property name="meta.attr.3.stream.language.markup">eng</property>
  <property name="meta.attr.3.stream.title.markup">English (Full) ASS</property>
  <property name="meta.attr.3.stream.BPS.markup">70</property>
  <property name="meta.attr.3.stream.DURATION.markup">00:23:51.620000000</property>
  <property name="meta.attr.3.stream.NUMBER_OF_FRAMES.markup">223</property>
  <property name="meta.attr.3.stream.NUMBER_OF_BYTES.markup">12615</property>
  <property name="meta.attr.3.stream._STATISTICS_WRITING_APP.markup">mkvmerge v61.0.0 ('So') 64-bit</property>
  <property name="meta.attr.3.stream._STATISTICS_WRITING_DATE_UTC.markup">2022-10-15 07:56:27</property>
  <property name="meta.attr.3.stream._STATISTICS_TAGS.markup">BPS DURATION NUMBER_OF_FRAMES NUMBER_OF_BYTES</property>
  <property name="meta.media.4.codec.name">ssa</property>
  <property name="meta.media.4.codec.long_name">ASS (Advanced SubStation Alpha) subtitle</property>
  <property name="meta.media.4.codec.bit_rate">0</property>
  <property name="meta.attr.4.stream.language.markup">eng</property>
  <property name="meta.attr.4.stream.title.markup">English (Titles &amp; Signs) ASS</property>
  <property name="meta.attr.4.stream.BPS.markup">1</property>
  <property name="meta.attr.4.stream.DURATION.markup">00:21:44.010000000</property>
  <property name="meta.attr.4.stream.NUMBER_OF_FRAMES.markup">3</property>
  <property name="meta.attr.4.stream.NUMBER_OF_BYTES.markup">191</property>
  <property name="meta.attr.4.stream._STATISTICS_WRITING_APP.markup">mkvmerge v61.0.0 ('So') 64-bit</property>
  <property name="meta.attr.4.stream._STATISTICS_WRITING_DATE_UTC.markup">2022-10-15 07:56:27</property>
  <property name="meta.attr.4.stream._STATISTICS_TAGS.markup">BPS DURATION NUMBER_OF_FRAMES NUMBER_OF_BYTES</property>
  <property name="meta.media.5.codec.name">ssa</property>
  <property name="meta.media.5.codec.long_name">ASS (Advanced SubStation Alpha) subtitle</property>
  <property name="meta.media.5.codec.bit_rate">0</property>
  <property name="meta.attr.5.stream.language.markup">ara</property>
  <property name="meta.attr.5.stream.title.markup">Arabic</property>
  <property name="meta.attr.5.stream.BPS.markup">90</property>
  <property name="meta.attr.5.stream.DURATION.markup">00:22:20.770000000</property>
  <property name="meta.attr.5.stream.NUMBER_OF_FRAMES.markup">264</property>
  <property name="meta.attr.5.stream.NUMBER_OF_BYTES.markup">15190</property>
  <property name="meta.attr.5.stream._STATISTICS_WRITING_APP.markup">mkvmerge v61.0.0 ('So') 64-bit</property>
  <property name="meta.attr.5.stream._STATISTICS_WRITING_DATE_UTC.markup">2022-10-15 07:56:27</property>
  <property name="meta.attr.5.stream._STATISTICS_TAGS.markup">BPS DURATION NUMBER_OF_FRAMES NUMBER_OF_BYTES</property>
  <property name="meta.attr.title.markup">Monster : Chapter 07 : Mansion Of Tragedy</property>
  <property name="meta.attr.encoder.markup">libebml v1.4.2 + libmatroska v1.6.4</property>
  <property name="meta.attr.creation_time.markup">2022-10-15T07:56:27.000000Z</property>
  <property name="seekable">1</property>
  <property name="meta.media.sample_aspect_num">1</property>
  <property name="meta.media.sample_aspect_den">1</property>
  <property name="format">3</property>
  <property name="audio_index">1</property>
  <property name="video_index">0</property>
  <property name="warp_speed">1.5</property>
  <property name="warp_resource">/mnt/data0/Monster/Monster-Editing/Orig/Monster - Chapter 07 - Mansion Of Tragedy.mkv</property>
  <property name="mlt_service">timewarp</property>
  <property name="set.test_audio">1</property>
  <property name="set.test_image">0</property>
  <property name="kdenlive:id">4</property>
  <property name="warp_pitch">0</property>
  <property name="meta.media.frame_rate_num">24000</property>
  <property name="meta.media.frame_rate_den">1001</property>
  <property name="meta.media.colorspace">709</property>
  <property name="meta.media.color_trc">1</property>
  <property name="meta.media.has_b_frames">2</property>
  <property name="meta.media.width">1440</property>
  <property name="meta.media.height">1080</property>
  <property name="meta.media.color_range">mpeg</property>
  <property name="meta.media.top_field_first">0</property>
  <property name="meta.media.progressive">1</property>
  <property name="kdenlive:control_uuid">{f6a7a0b1-dd02-4ebf-b54a-da71ba6720db}</property>
 </producer>
 <producer id="producer24" in="00:00:00.000" out="00:05:58.850">
  <property name="length">8604</property>
  <property name="eof">pause</property>
  <property name="resource">4:/mnt/data0/Monster/Monster-Editing/Orig/Monster - Chapter 07 - Mansion Of Tragedy.mkv</property>
  <property name="aspect_ratio">1</property>
  <property name="meta.media.nb_streams">23</property>
  <property name="meta.media.0.stream.type">video</property>
  <property name="meta.media.0.stream.frame_rate">23.976</property>
  <property name="meta.media.0.stream.sample_aspect_ratio">1</property>
  <property name="meta.media.0.codec.width">1440</property>
  <property name="meta.media.0.codec.height">1080</property>
  <property name="meta.media.0.codec.rotate">0</property>
  <property name="meta.media.0.codec.pix_fmt">yuv420p10le</property>
  <property name="meta.media.0.codec.sample_aspect_ratio">1</property>
  <property name="meta.media.0.codec.colorspace">709</property>
  <property name="meta.media.0.codec.color_trc">1</property>
  <property name="meta.media.0.codec.name">hevc</property>
  <property name="meta.media.0.codec.long_name">HEVC (High Efficiency Video Coding)</property>
  <property name="meta.media.0.codec.bit_rate">0</property>
  <property name="meta.attr.0.stream.BPS.markup">1767757</property>
  <property name="meta.attr.0.stream.DURATION.markup">00:23:55.434000000</property>
  <property name="meta.attr.0.stream.NUMBER_OF_FRAMES.markup">34416</property>
  <property name="meta.attr.0.stream.NUMBER_OF_BYTES.markup">317187435</property>
  <property name="meta.attr.0.stream._STATISTICS_WRITING_APP.markup">mkvmerge v61.0.0 ('So') 64-bit</property>
  <property name="meta.attr.0.stream._STATISTICS_WRITING_DATE_UTC.markup">2022-10-15 07:56:27</property>
  <property name="meta.attr.0.stream._STATISTICS_TAGS.markup">BPS DURATION NUMBER_OF_FRAMES NUMBER_OF_BYTES</property>
  <property name="meta.media.1.stream.type">audio</property>
  <property name="meta.media.1.codec.sample_fmt">fltp</property>
  <property name="meta.media.1.codec.sample_rate">48000</property>
  <property name="meta.media.1.codec.channels">2</property>
  <property name="meta.media.1.codec.layout">stereo</property>
  <property name="meta.media.1.codec.name">ac3</property>
  <property name="meta.media.1.codec.long_name">ATSC A/52A (AC-3)</property>
  <property name="meta.media.1.codec.bit_rate">448000</property>
  <property name="meta.attr.1.stream.language.markup">jpn</property>
  <property name="meta.attr.1.stream.title.markup">Japanese DVD AC-3 DD_2.0</property>
  <property name="meta.attr.1.stream.BPS.markup">448000</property>
  <property name="meta.attr.1.stream.DURATION.markup">00:23:55.488000000</property>
  <property name="meta.attr.1.stream.NUMBER_OF_FRAMES.markup">44859</property>
  <property name="meta.attr.1.stream.NUMBER_OF_BYTES.markup">80387328</property>
  <property name="meta.attr.1.stream._STATISTICS_WRITING_APP.markup">mkvmerge v61.0.0 ('So') 64-bit</property>
  <property name="meta.attr.1.stream._STATISTICS_WRITING_DATE_UTC.markup">2022-10-15 07:56:27</property>
  <property name="meta.attr.1.stream._STATISTICS_TAGS.markup">BPS DURATION NUMBER_OF_FRAMES NUMBER_OF_BYTES</property>
  <property name="meta.media.2.stream.type">audio</property>
  <property name="meta.media.2.codec.sample_fmt">fltp</property>
  <property name="meta.media.2.codec.sample_rate">48000</property>
  <property name="meta.media.2.codec.channels">2</property>
  <property name="meta.media.2.codec.layout">stereo</property>
  <property name="meta.media.2.codec.name">aac</property>
  <property name="meta.media.2.codec.long_name">AAC (Advanced Audio Coding)</property>
  <property name="meta.media.2.codec.bit_rate">0</property>
  <property name="meta.attr.2.stream.language.markup">eng</property>
  <property name="meta.attr.2.stream.title.markup">English AAC DD_2.0</property>
  <property name="meta.attr.2.stream.BPS.markup">164115</property>
  <property name="meta.attr.2.stream.DURATION.markup">00:23:55.199000000</property>
  <property name="meta.attr.2.stream.NUMBER_OF_FRAMES.markup">67275</property>
  <property name="meta.attr.2.stream.NUMBER_OF_BYTES.markup">29442361</property>
  <property name="meta.attr.2.stream._STATISTICS_WRITING_APP.markup">mkvmerge v61.0.0 ('So') 64-bit</property>
  <property name="meta.attr.2.stream._STATISTICS_WRITING_DATE_UTC.markup">2022-10-15 07:56:27</property>
  <property name="meta.attr.2.stream._STATISTICS_TAGS.markup">BPS DURATION NUMBER_OF_FRAMES NUMBER_OF_BYTES</property>
  <property name="meta.media.3.codec.name">ssa</property>
  <property name="meta.media.3.codec.long_name">ASS (Advanced SubStation Alpha) subtitle</property>
  <property name="meta.media.3.codec.bit_rate">0</property>
  <property name="meta.attr.3.stream.language.markup">eng</property>
  <property name="meta.attr.3.stream.title.markup">English (Full) ASS</property>
  <property name="meta.attr.3.stream.BPS.markup">70</property>
  <property name="meta.attr.3.stream.DURATION.markup">00:23:51.620000000</property>
  <property name="meta.attr.3.stream.NUMBER_OF_FRAMES.markup">223</property>
  <property name="meta.attr.3.stream.NUMBER_OF_BYTES.markup">12615</property>
  <property name="meta.attr.3.stream._STATISTICS_WRITING_APP.markup">mkvmerge v61.0.0 ('So') 64-bit</property>
  <property name="meta.attr.3.stream._STATISTICS_WRITING_DATE_UTC.markup">2022-10-15 07:56:27</property>
  <property name="meta.attr.3.stream._STATISTICS_TAGS.markup">BPS DURATION NUMBER_OF_FRAMES NUMBER_OF_BYTES</property>
  <property name="meta.media.4.codec.name">ssa</property>
  <property name="meta.media.4.codec.long_name">ASS (Advanced SubStation Alpha) subtitle</property>
  <property name="meta.media.4.codec.bit_rate">0</property>
  <property name="meta.attr.4.stream.language.markup">eng</property>
  <property name="meta.attr.4.stream.title.markup">English (Titles &amp; Signs) ASS</property>
  <property name="meta.attr.4.stream.BPS.markup">1</property>
  <property name="meta.attr.4.stream.DURATION.markup">00:21:44.010000000</property>
  <property name="meta.attr.4.stream.NUMBER_OF_FRAMES.markup">3</property>
  <property name="meta.attr.4.stream.NUMBER_OF_BYTES.markup">191</property>
  <property name="meta.attr.4.stream._STATISTICS_WRITING_APP.markup">mkvmerge v61.0.0 ('So') 64-bit</property>
  <property name="meta.attr.4.stream._STATISTICS_WRITING_DATE_UTC.markup">2022-10-15 07:56:27</property>
  <property name="meta.attr.4.stream._STATISTICS_TAGS.markup">BPS DURATION NUMBER_OF_FRAMES NUMBER_OF_BYTES</property>
  <property name="meta.media.5.codec.name">ssa</property>
  <property name="meta.media.5.codec.long_name">ASS (Advanced SubStation Alpha) subtitle</property>
  <property name="meta.media.5.codec.bit_rate">0</property>
  <property name="meta.attr.5.stream.language.markup">ara</property>
  <property name="meta.attr.5.stream.title.markup">Arabic</property>
  <property name="meta.attr.5.stream.BPS.markup">90</property>
  <property name="meta.attr.5.stream.DURATION.markup">00:22:20.770000000</property>
  <property name="meta.attr.5.stream.NUMBER_OF_FRAMES.markup">264</property>
  <property name="meta.attr.5.stream.NUMBER_OF_BYTES.markup">15190</property>
  <property name="meta.attr.5.stream._STATISTICS_WRITING_APP.markup">mkvmerge v61.0.0 ('So') 64-bit</property>
  <property name="meta.attr.5.stream._STATISTICS_WRITING_DATE_UTC.markup">2022-10-15 07:56:27</property>
  <property name="meta.attr.5.stream._STATISTICS_TAGS.markup">BPS DURATION NUMBER_OF_FRAMES NUMBER_OF_BYTES</property>
  <property name="meta.attr.title.markup">Monster : Chapter 07 : Mansion Of Tragedy</property>
  <property name="meta.attr.encoder.markup">libebml v1.4.2 + libmatroska v1.6.4</property>
  <property name="meta.attr.creation_time.markup">2022-10-15T07:56:27.000000Z</property>
  <property name="seekable">1</property>
  <property name="meta.media.sample_aspect_num">1</property>
  <property name="meta.media.sample_aspect_den">1</property>
  <property name="format">3</property>
  <property name="audio_index">1</property>
  <property name="video_index">0</property>
  <property name="warp_speed">4</property>
  <property name="warp_resource">/mnt/data0/Monster/Monster-Editing/Orig/Monster - Chapter 07 - Mansion Of Tragedy.mkv</property>
  <property name="mlt_service">timewarp</property>
  <property name="set.test_audio">1</property>
  <property name="set.test_image">0</property>
  <property name="kdenlive:id">4</property>
  <property name="warp_pitch">0</property>
  <property name="meta.media.frame_rate_num">24000</property>
  <property name="meta.media.frame_rate_den">1001</property>
  <property name="meta.media.colorspace">709</property>
  <property name="meta.media.color_trc">1</property>
  <property name="meta.media.has_b_frames">2</property>
  <property name="meta.media.width">1440</property>
  <property name="meta.media.height">1080</property>
  <property name="meta.media.color_range">mpeg</property>
  <property name="meta.media.top_field_first">0</property>
  <property name="meta.media.progressive">1</property>
  <property name="vstream">0</property>
  <property name="astream">0</property>
  <property name="kdenlive:control_uuid">{f6a7a0b1-dd02-4ebf-b54a-da71ba6720db}</property>
 </producer>
 <producer id="producer25" in="00:00:00.000" out="00:09:34.159">
  <property name="length">13767</property>
  <property name="eof">pause</property>
  <property name="resource">2.5:/mnt/data0/Monster/Monster-Editing/Orig/Monster - Chapter 07 - Mansion Of Tragedy.mkv</property>
  <property name="aspect_ratio">1</property>
  <property name="meta.media.nb_streams">23</property>
  <property name="meta.media.0.stream.type">video</property>
  <property name="meta.media.0.stream.frame_rate">23.976</property>
  <property name="meta.media.0.stream.sample_aspect_ratio">1</property>
  <property name="meta.media.0.codec.width">1440</property>
  <property name="meta.media.0.codec.height">1080</property>
  <property name="meta.media.0.codec.rotate">0</property>
  <property name="meta.media.0.codec.pix_fmt">yuv420p10le</property>
  <property name="meta.media.0.codec.sample_aspect_ratio">1</property>
  <property name="meta.media.0.codec.colorspace">709</property>
  <property name="meta.media.0.codec.color_trc">1</property>
  <property name="meta.media.0.codec.name">hevc</property>
  <property name="meta.media.0.codec.long_name">HEVC (High Efficiency Video Coding)</property>
  <property name="meta.media.0.codec.bit_rate">0</property>
  <property name="meta.attr.0.stream.BPS.markup">1767757</property>
  <property name="meta.attr.0.stream.DURATION.markup">00:23:55.434000000</property>
  <property name="meta.attr.0.stream.NUMBER_OF_FRAMES.markup">34416</property>
  <property name="meta.attr.0.stream.NUMBER_OF_BYTES.markup">317187435</property>
  <property name="meta.attr.0.stream._STATISTICS_WRITING_APP.markup">mkvmerge v61.0.0 ('So') 64-bit</property>
  <property name="meta.attr.0.stream._STATISTICS_WRITING_DATE_UTC.markup">2022-10-15 07:56:27</property>
  <property name="meta.attr.0.stream._STATISTICS_TAGS.markup">BPS DURATION NUMBER_OF_FRAMES NUMBER_OF_BYTES</property>
  <property name="meta.media.1.stream.type">audio</property>
  <property name="meta.media.1.codec.sample_fmt">fltp</property>
  <property name="meta.media.1.codec.sample_rate">48000</property>
  <property name="meta.media.1.codec.channels">2</property>
  <property name="meta.media.1.codec.layout">stereo</property>
  <property name="meta.media.1.codec.name">ac3</property>
  <property name="meta.media.1.codec.long_name">ATSC A/52A (AC-3)</property>
  <property name="meta.media.1.codec.bit_rate">448000</property>
  <property name="meta.attr.1.stream.language.markup">jpn</property>
  <property name="meta.attr.1.stream.title.markup">Japanese DVD AC-3 DD_2.0</property>
  <property name="meta.attr.1.stream.BPS.markup">448000</property>
  <property name="meta.attr.1.stream.DURATION.markup">00:23:55.488000000</property>
  <property name="meta.attr.1.stream.NUMBER_OF_FRAMES.markup">44859</property>
  <property name="meta.attr.1.stream.NUMBER_OF_BYTES.markup">80387328</property>
  <property name="meta.attr.1.stream._STATISTICS_WRITING_APP.markup">mkvmerge v61.0.0 ('So') 64-bit</property>
  <property name="meta.attr.1.stream._STATISTICS_WRITING_DATE_UTC.markup">2022-10-15 07:56:27</property>
  <property name="meta.attr.1.stream._STATISTICS_TAGS.markup">BPS DURATION NUMBER_OF_FRAMES NUMBER_OF_BYTES</property>
  <property name="meta.media.2.stream.type">audio</property>
  <property name="meta.media.2.codec.sample_fmt">fltp</property>
  <property name="meta.media.2.codec.sample_rate">48000</property>
  <property name="meta.media.2.codec.channels">2</property>
  <property name="meta.media.2.codec.layout">stereo</property>
  <property name="meta.media.2.codec.name">aac</property>
  <property name="meta.media.2.codec.long_name">AAC (Advanced Audio Coding)</property>
  <property name="meta.media.2.codec.bit_rate">0</property>
  <property name="meta.attr.2.stream.language.markup">eng</property>
  <property name="meta.attr.2.stream.title.markup">English AAC DD_2.0</property>
  <property name="meta.attr.2.stream.BPS.markup">164115</property>
  <property name="meta.attr.2.stream.DURATION.markup">00:23:55.199000000</property>
  <property name="meta.attr.2.stream.NUMBER_OF_FRAMES.markup">67275</property>
  <property name="meta.attr.2.stream.NUMBER_OF_BYTES.markup">29442361</property>
  <property name="meta.attr.2.stream._STATISTICS_WRITING_APP.markup">mkvmerge v61.0.0 ('So') 64-bit</property>
  <property name="meta.attr.2.stream._STATISTICS_WRITING_DATE_UTC.markup">2022-10-15 07:56:27</property>
  <property name="meta.attr.2.stream._STATISTICS_TAGS.markup">BPS DURATION NUMBER_OF_FRAMES NUMBER_OF_BYTES</property>
  <property name="meta.media.3.codec.name">ssa</property>
  <property name="meta.media.3.codec.long_name">ASS (Advanced SubStation Alpha) subtitle</property>
  <property name="meta.media.3.codec.bit_rate">0</property>
  <property name="meta.attr.3.stream.language.markup">eng</property>
  <property name="meta.attr.3.stream.title.markup">English (Full) ASS</property>
  <property name="meta.attr.3.stream.BPS.markup">70</property>
  <property name="meta.attr.3.stream.DURATION.markup">00:23:51.620000000</property>
  <property name="meta.attr.3.stream.NUMBER_OF_FRAMES.markup">223</property>
  <property name="meta.attr.3.stream.NUMBER_OF_BYTES.markup">12615</property>
  <property name="meta.attr.3.stream._STATISTICS_WRITING_APP.markup">mkvmerge v61.0.0 ('So') 64-bit</property>
  <property name="meta.attr.3.stream._STATISTICS_WRITING_DATE_UTC.markup">2022-10-15 07:56:27</property>
  <property name="meta.attr.3.stream._STATISTICS_TAGS.markup">BPS DURATION NUMBER_OF_FRAMES NUMBER_OF_BYTES</property>
  <property name="meta.media.4.codec.name">ssa</property>
  <property name="meta.media.4.codec.long_name">ASS (Advanced SubStation Alpha) subtitle</property>
  <property name="meta.media.4.codec.bit_rate">0</property>
  <property name="meta.attr.4.stream.language.markup">eng</property>
  <property name="meta.attr.4.stream.title.markup">English (Titles &amp; Signs) ASS</property>
  <property name="meta.attr.4.stream.BPS.markup">1</property>
  <property name="meta.attr.4.stream.DURATION.markup">00:21:44.010000000</property>
  <property name="meta.attr.4.stream.NUMBER_OF_FRAMES.markup">3</property>
  <property name="meta.attr.4.stream.NUMBER_OF_BYTES.markup">191</property>
  <property name="meta.attr.4.stream._STATISTICS_WRITING_APP.markup">mkvmerge v61.0.0 ('So') 64-bit</property>
  <property name="meta.attr.4.stream._STATISTICS_WRITING_DATE_UTC.markup">2022-10-15 07:56:27</property>
  <property name="meta.attr.4.stream._STATISTICS_TAGS.markup">BPS DURATION NUMBER_OF_FRAMES NUMBER_OF_BYTES</property>
  <property name="meta.media.5.codec.name">ssa</property>
  <property name="meta.media.5.codec.long_name">ASS (Advanced SubStation Alpha) subtitle</property>
  <property name="meta.media.5.codec.bit_rate">0</property>
  <property name="meta.attr.5.stream.language.markup">ara</property>
  <property name="meta.attr.5.stream.title.markup">Arabic</property>
  <property name="meta.attr.5.stream.BPS.markup">90</property>
  <property name="meta.attr.5.stream.DURATION.markup">00:22:20.770000000</property>
  <property name="meta.attr.5.stream.NUMBER_OF_FRAMES.markup">264</property>
  <property name="meta.attr.5.stream.NUMBER_OF_BYTES.markup">15190</property>
  <property name="meta.attr.5.stream._STATISTICS_WRITING_APP.markup">mkvmerge v61.0.0 ('So') 64-bit</property>
  <property name="meta.attr.5.stream._STATISTICS_WRITING_DATE_UTC.markup">2022-10-15 07:56:27</property>
  <property name="meta.attr.5.stream._STATISTICS_TAGS.markup">BPS DURATION NUMBER_OF_FRAMES NUMBER_OF_BYTES</property>
  <property name="meta.attr.title.markup">Monster : Chapter 07 : Mansion Of Tragedy</property>
  <property name="meta.attr.encoder.markup">libebml v1.4.2 + libmatroska v1.6.4</property>
  <property name="meta.attr.creation_time.markup">2022-10-15T07:56:27.000000Z</property>
  <property name="seekable">1</property>
  <property name="meta.media.sample_aspect_num">1</property>
  <property name="meta.media.sample_aspect_den">1</property>
  <property name="format">3</property>
  <property name="audio_index">1</property>
  <property name="video_index">0</property>
  <property name="warp_speed">2.5</property>
  <property name="warp_resource">/mnt/data0/Monster/Monster-Editing/Orig/Monster - Chapter 07 - Mansion Of Tragedy.mkv</property>
  <property name="mlt_service">timewarp</property>
  <property name="set.test_audio">1</property>
  <property name="set.test_image">0</property>
  <property name="kdenlive:id">4</property>
  <property name="warp_pitch">0</property>
  <property name="meta.media.frame_rate_num">24000</property>
  <property name="meta.media.frame_rate_den">1001</property>
  <property name="meta.media.colorspace">709</property>
  <property name="meta.media.color_trc">1</property>
  <property name="meta.media.has_b_frames">2</property>
  <property name="meta.media.width">1440</property>
  <property name="meta.media.height">1080</property>
  <property name="meta.media.color_range">mpeg</property>
  <property name="meta.media.top_field_first">0</property>
  <property name="meta.media.progressive">1</property>
  <property name="vstream">0</property>
  <property name="astream">0</property>
  <property name="kdenlive:control_uuid">{f6a7a0b1-dd02-4ebf-b54a-da71ba6720db}</property>
 </producer>
 <producer id="producer5" in="00:00:00.000" out="00:47:50.926">
  <property name="length">68834</property>
  <property name="eof">pause</property>
  <property name="resource">0.500000:/mnt/data0/Monster/Monster-Editing/Orig/Monster - Chapter 07 - Mansion Of Tragedy.mkv</property>
  <property name="aspect_ratio">1</property>
  <property name="meta.media.nb_streams">23</property>
  <property name="meta.media.0.stream.type">video</property>
  <property name="meta.media.0.stream.frame_rate">23.976</property>
  <property name="meta.media.0.stream.sample_aspect_ratio">1</property>
  <property name="meta.media.0.codec.width">1440</property>
  <property name="meta.media.0.codec.height">1080</property>
  <property name="meta.media.0.codec.rotate">0</property>
  <property name="meta.media.0.codec.pix_fmt">yuv420p10le</property>
  <property name="meta.media.0.codec.sample_aspect_ratio">1</property>
  <property name="meta.media.0.codec.colorspace">709</property>
  <property name="meta.media.0.codec.color_trc">1</property>
  <property name="meta.media.0.codec.name">hevc</property>
  <property name="meta.media.0.codec.long_name">HEVC (High Efficiency Video Coding)</property>
  <property name="meta.media.0.codec.bit_rate">0</property>
  <property name="meta.attr.0.stream.BPS.markup">1767757</property>
  <property name="meta.attr.0.stream.DURATION.markup">00:23:55.434000000</property>
  <property name="meta.attr.0.stream.NUMBER_OF_FRAMES.markup">34416</property>
  <property name="meta.attr.0.stream.NUMBER_OF_BYTES.markup">317187435</property>
  <property name="meta.attr.0.stream._STATISTICS_WRITING_APP.markup">mkvmerge v61.0.0 ('So') 64-bit</property>
  <property name="meta.attr.0.stream._STATISTICS_WRITING_DATE_UTC.markup">2022-10-15 07:56:27</property>
  <property name="meta.attr.0.stream._STATISTICS_TAGS.markup">BPS DURATION NUMBER_OF_FRAMES NUMBER_OF_BYTES</property>
  <property name="meta.media.1.stream.type">audio</property>
  <property name="meta.media.1.codec.sample_fmt">fltp</property>
  <property name="meta.media.1.codec.sample_rate">48000</property>
  <property name="meta.media.1.codec.channels">2</property>
  <property name="meta.media.1.codec.layout">stereo</property>
  <property name="meta.media.1.codec.name">ac3</property>
  <property name="meta.media.1.codec.long_name">ATSC A/52A (AC-3)</property>
  <property name="meta.media.1.codec.bit_rate">448000</property>
  <property name="meta.attr.1.stream.language.markup">jpn</property>
  <property name="meta.attr.1.stream.title.markup">Japanese DVD AC-3 DD_2.0</property>
  <property name="meta.attr.1.stream.BPS.markup">448000</property>
  <property name="meta.attr.1.stream.DURATION.markup">00:23:55.488000000</property>
  <property name="meta.attr.1.stream.NUMBER_OF_FRAMES.markup">44859</property>
  <property name="meta.attr.1.stream.NUMBER_OF_BYTES.markup">80387328</property>
  <property name="meta.attr.1.stream._STATISTICS_WRITING_APP.markup">mkvmerge v61.0.0 ('So') 64-bit</property>
  <property name="meta.attr.1.stream._STATISTICS_WRITING_DATE_UTC.markup">2022-10-15 07:56:27</property>
  <property name="meta.attr.1.stream._STATISTICS_TAGS.markup">BPS DURATION NUMBER_OF_FRAMES NUMBER_OF_BYTES</property>
  <property name="meta.media.2.stream.type">audio</property>
  <property name="meta.media.2.codec.sample_fmt">fltp</property>
  <property name="meta.media.2.codec.sample_rate">48000</property>
  <property name="meta.media.2.codec.channels">2</property>
  <property name="meta.media.2.codec.layout">stereo</property>
  <property name="meta.media.2.codec.name">aac</property>
  <property name="meta.media.2.codec.long_name">AAC (Advanced Audio Coding)</property>
  <property name="meta.media.2.codec.bit_rate">0</property>
  <property name="meta.attr.2.stream.language.markup">eng</property>
  <property name="meta.attr.2.stream.title.markup">English AAC DD_2.0</property>
  <property name="meta.attr.2.stream.BPS.markup">164115</property>
  <property name="meta.attr.2.stream.DURATION.markup">00:23:55.199000000</property>
  <property name="meta.attr.2.stream.NUMBER_OF_FRAMES.markup">67275</property>
  <property name="meta.attr.2.stream.NUMBER_OF_BYTES.markup">29442361</property>
  <property name="meta.attr.2.stream._STATISTICS_WRITING_APP.markup">mkvmerge v61.0.0 ('So') 64-bit</property>
  <property name="meta.attr.2.stream._STATISTICS_WRITING_DATE_UTC.markup">2022-10-15 07:56:27</property>
  <property name="meta.attr.2.stream._STATISTICS_TAGS.markup">BPS DURATION NUMBER_OF_FRAMES NUMBER_OF_BYTES</property>
  <property name="meta.media.3.codec.name">ssa</property>
  <property name="meta.media.3.codec.long_name">ASS (Advanced SubStation Alpha) subtitle</property>
  <property name="meta.media.3.codec.bit_rate">0</property>
  <property name="meta.attr.3.stream.language.markup">eng</property>
  <property name="meta.attr.3.stream.title.markup">English (Full) ASS</property>
  <property name="meta.attr.3.stream.BPS.markup">70</property>
  <property name="meta.attr.3.stream.DURATION.markup">00:23:51.620000000</property>
  <property name="meta.attr.3.stream.NUMBER_OF_FRAMES.markup">223</property>
  <property name="meta.attr.3.stream.NUMBER_OF_BYTES.markup">12615</property>
  <property name="meta.attr.3.stream._STATISTICS_WRITING_APP.markup">mkvmerge v61.0.0 ('So') 64-bit</property>
  <property name="meta.attr.3.stream._STATISTICS_WRITING_DATE_UTC.markup">2022-10-15 07:56:27</property>
  <property name="meta.attr.3.stream._STATISTICS_TAGS.markup">BPS DURATION NUMBER_OF_FRAMES NUMBER_OF_BYTES</property>
  <property name="meta.media.4.codec.name">ssa</property>
  <property name="meta.media.4.codec.long_name">ASS (Advanced SubStation Alpha) subtitle</property>
  <property name="meta.media.4.codec.bit_rate">0</property>
  <property name="meta.attr.4.stream.language.markup">eng</property>
  <property name="meta.attr.4.stream.title.markup">English (Titles &amp; Signs) ASS</property>
  <property name="meta.attr.4.stream.BPS.markup">1</property>
  <property name="meta.attr.4.stream.DURATION.markup">00:21:44.010000000</property>
  <property name="meta.attr.4.stream.NUMBER_OF_FRAMES.markup">3</property>
  <property name="meta.attr.4.stream.NUMBER_OF_BYTES.markup">191</property>
  <property name="meta.attr.4.stream._STATISTICS_WRITING_APP.markup">mkvmerge v61.0.0 ('So') 64-bit</property>
  <property name="meta.attr.4.stream._STATISTICS_WRITING_DATE_UTC.markup">2022-10-15 07:56:27</property>
  <property name="meta.attr.4.stream._STATISTICS_TAGS.markup">BPS DURATION NUMBER_OF_FRAMES NUMBER_OF_BYTES</property>
  <property name="meta.media.5.codec.name">ssa</property>
  <property name="meta.media.5.codec.long_name">ASS (Advanced SubStation Alpha) subtitle</property>
  <property name="meta.media.5.codec.bit_rate">0</property>
  <property name="meta.attr.5.stream.language.markup">ara</property>
  <property name="meta.attr.5.stream.title.markup">Arabic</property>
  <property name="meta.attr.5.stream.BPS.markup">90</property>
  <property name="meta.attr.5.stream.DURATION.markup">00:22:20.770000000</property>
  <property name="meta.attr.5.stream.NUMBER_OF_FRAMES.markup">264</property>
  <property name="meta.attr.5.stream.NUMBER_OF_BYTES.markup">15190</property>
  <property name="meta.attr.5.stream._STATISTICS_WRITING_APP.markup">mkvmerge v61.0.0 ('So') 64-bit</property>
  <property name="meta.attr.5.stream._STATISTICS_WRITING_DATE_UTC.markup">2022-10-15 07:56:27</property>
  <property name="meta.attr.5.stream._STATISTICS_TAGS.markup">BPS DURATION NUMBER_OF_FRAMES NUMBER_OF_BYTES</property>
  <property name="meta.attr.title.markup">Monster : Chapter 07 : Mansion Of Tragedy</property>
  <property name="meta.attr.encoder.markup">libebml v1.4.2 + libmatroska v1.6.4</property>
  <property name="meta.attr.creation_time.markup">2022-10-15T07:56:27.000000Z</property>
  <property name="seekable">1</property>
  <property name="meta.media.sample_aspect_num">1</property>
  <property name="meta.media.sample_aspect_den">1</property>
  <property name="format">3</property>
  <property name="audio_index">1</property>
  <property name="video_index">0</property>
  <property name="warp_speed">0.5</property>
  <property name="warp_resource">/mnt/data0/Monster/Monster-Editing/Orig/Monster - Chapter 07 - Mansion Of Tragedy.mkv</property>
  <property name="mlt_service">timewarp</property>
  <property name="astream">0</property>
  <property name="set.test_audio">1</property>
  <property name="set.test_image">0</property>
  <property name="kdenlive:id">4</property>
  <property name="warp_pitch">0</property>
  <property name="vstream">0</property>
  <property name="meta.media.frame_rate_num">24000</property>
  <property name="meta.media.frame_rate_den">1001</property>
  <property name="meta.media.colorspace">709</property>
  <property name="meta.media.color_trc">1</property>
  <property name="meta.media.has_b_frames">2</property>
  <property name="meta.media.width">1440</property>
  <property name="meta.media.height">1080</property>
  <property name="meta.media.color_range">mpeg</property>
  <property name="meta.media.top_field_first">0</property>
  <property name="meta.media.progressive">1</property>
  <property name="kdenlive:control_uuid">{f6a7a0b1-dd02-4ebf-b54a-da71ba6720db}</property>
 </producer>
 <chain id="producer26" out="00:24:09.593">
  <property name="length">34756</property>
  <property name="eof">pause</property>
  <property name="resource">/mnt/data0/Monster/Monster-Editing/Orig/Monster - Chapter 08 - The Fugitive.mkv</property>
  <property name="mlt_service">avformat-novalidate</property>
  <property name="audio_index">1</property>
  <property name="video_index">0</property>
  <property name="meta.media.nb_streams">24</property>
  <property name="meta.media.0.stream.type">video</property>
  <property name="meta.media.0.stream.frame_rate">23.976</property>
  <property name="meta.media.0.stream.sample_aspect_ratio">1</property>
  <property name="meta.media.0.codec.width">1440</property>
  <property name="meta.media.0.codec.height">1080</property>
  <property name="meta.media.0.codec.rotate">0</property>
  <property name="meta.media.0.codec.pix_fmt">yuv420p10le</property>
  <property name="meta.media.0.codec.sample_aspect_ratio">1</property>
  <property name="meta.media.0.codec.colorspace">709</property>
  <property name="meta.media.0.codec.color_trc">1</property>
  <property name="meta.media.0.codec.name">hevc</property>
  <property name="meta.media.0.codec.long_name">HEVC (High Efficiency Video Coding)</property>
  <property name="meta.media.0.codec.bit_rate">0</property>
  <property name="meta.attr.0.stream.BPS.markup">2133702</property>
  <property name="meta.attr.0.stream.DURATION.markup">00:24:09.615000000</property>
  <property name="meta.attr.0.stream.NUMBER_OF_FRAMES.markup">34756</property>
  <property name="meta.attr.0.stream.NUMBER_OF_BYTES.markup">386630926</property>
  <property name="meta.attr.0.stream._STATISTICS_WRITING_APP.markup">mkvmerge v61.0.0 ('So') 64-bit</property>
  <property name="meta.attr.0.stream._STATISTICS_WRITING_DATE_UTC.markup">2022-10-15 08:00:42</property>
  <property name="meta.attr.0.stream._STATISTICS_TAGS.markup">BPS DURATION NUMBER_OF_FRAMES NUMBER_OF_BYTES</property>
  <property name="meta.media.1.stream.type">audio</property>
  <property name="meta.media.1.codec.sample_fmt">fltp</property>
  <property name="meta.media.1.codec.sample_rate">48000</property>
  <property name="meta.media.1.codec.channels">2</property>
  <property name="meta.media.1.codec.name">ac3</property>
  <property name="meta.media.1.codec.long_name">ATSC A/52A (AC-3)</property>
  <property name="meta.media.1.codec.bit_rate">448000</property>
  <property name="meta.attr.1.stream.language.markup">jpn</property>
  <property name="meta.attr.1.stream.title.markup">Japanese DVD AC-3 DD_2.0</property>
  <property name="meta.attr.1.stream.BPS.markup">448000</property>
  <property name="meta.attr.1.stream.DURATION.markup">00:24:09.504000000</property>
  <property name="meta.attr.1.stream.NUMBER_OF_FRAMES.markup">45297</property>
  <property name="meta.attr.1.stream.NUMBER_OF_BYTES.markup">81172224</property>
  <property name="meta.attr.1.stream._STATISTICS_WRITING_APP.markup">mkvmerge v61.0.0 ('So') 64-bit</property>
  <property name="meta.attr.1.stream._STATISTICS_WRITING_DATE_UTC.markup">2022-10-15 08:00:42</property>
  <property name="meta.attr.1.stream._STATISTICS_TAGS.markup">BPS DURATION NUMBER_OF_FRAMES NUMBER_OF_BYTES</property>
  <property name="meta.media.2.stream.type">audio</property>
  <property name="meta.media.2.codec.sample_fmt">fltp</property>
  <property name="meta.media.2.codec.sample_rate">48000</property>
  <property name="meta.media.2.codec.channels">2</property>
  <property name="meta.media.2.codec.name">aac</property>
  <property name="meta.media.2.codec.long_name">AAC (Advanced Audio Coding)</property>
  <property name="meta.media.2.codec.bit_rate">0</property>
  <property name="meta.attr.2.stream.language.markup">eng</property>
  <property name="meta.attr.2.stream.title.markup">English AAC DD_2.0</property>
  <property name="meta.attr.2.stream.BPS.markup">162986</property>
  <property name="meta.attr.2.stream.DURATION.markup">00:23:54.837000000</property>
  <property name="meta.attr.2.stream.NUMBER_OF_FRAMES.markup">67258</property>
  <property name="meta.attr.2.stream.NUMBER_OF_BYTES.markup">29232317</property>
  <property name="meta.attr.2.stream._STATISTICS_WRITING_APP.markup">mkvmerge v61.0.0 ('So') 64-bit</property>
  <property name="meta.attr.2.stream._STATISTICS_WRITING_DATE_UTC.markup">2022-10-15 08:00:42</property>
  <property name="meta.attr.2.stream._STATISTICS_TAGS.markup">BPS DURATION NUMBER_OF_FRAMES NUMBER_OF_BYTES</property>
  <property name="meta.media.3.codec.name">ssa</property>
  <property name="meta.media.3.codec.long_name">ASS (Advanced SubStation Alpha) subtitle</property>
  <property name="meta.media.3.codec.bit_rate">0</property>
  <property name="meta.attr.3.stream.language.markup">eng</property>
  <property name="meta.attr.3.stream.title.markup">English (Full) ASS</property>
  <property name="meta.attr.3.stream.BPS.markup">78</property>
  <property name="meta.attr.3.stream.DURATION.markup">00:23:50.780000000</property>
  <property name="meta.attr.3.stream.NUMBER_OF_FRAMES.markup">243</property>
  <property name="meta.attr.3.stream.NUMBER_OF_BYTES.markup">13963</property>
  <property name="meta.attr.3.stream._STATISTICS_WRITING_APP.markup">mkvmerge v61.0.0 ('So') 64-bit</property>
  <property name="meta.attr.3.stream._STATISTICS_WRITING_DATE_UTC.markup">2022-10-15 08:00:42</property>
  <property name="meta.attr.3.stream._STATISTICS_TAGS.markup">BPS DURATION NUMBER_OF_FRAMES NUMBER_OF_BYTES</property>
  <property name="meta.media.4.codec.name">ssa</property>
  <property name="meta.media.4.codec.long_name">ASS (Advanced SubStation Alpha) subtitle</property>
  <property name="meta.media.4.codec.bit_rate">0</property>
  <property name="meta.attr.4.stream.language.markup">eng</property>
  <property name="meta.attr.4.stream.title.markup">English (Titles &amp; Signs) ASS</property>
  <property name="meta.attr.4.stream.BPS.markup">1</property>
  <property name="meta.attr.4.stream.DURATION.markup">00:20:21.470000000</property>
  <property name="meta.attr.4.stream.NUMBER_OF_FRAMES.markup">3</property>
  <property name="meta.attr.4.stream.NUMBER_OF_BYTES.markup">206</property>
  <property name="meta.attr.4.stream._STATISTICS_WRITING_APP.markup">mkvmerge v61.0.0 ('So') 64-bit</property>
  <property name="meta.attr.4.stream._STATISTICS_WRITING_DATE_UTC.markup">2022-10-15 08:00:42</property>
  <property name="meta.attr.4.stream._STATISTICS_TAGS.markup">BPS DURATION NUMBER_OF_FRAMES NUMBER_OF_BYTES</property>
  <property name="meta.media.5.codec.name">ssa</property>
  <property name="meta.media.5.codec.long_name">ASS (Advanced SubStation Alpha) subtitle</property>
  <property name="meta.media.5.codec.bit_rate">0</property>
  <property name="meta.attr.5.stream.language.markup">ara</property>
  <property name="meta.attr.5.stream.title.markup">Arabic</property>
  <property name="meta.attr.5.stream.BPS.markup">100</property>
  <property name="meta.attr.5.stream.DURATION.markup">00:22:19.090000000</property>
  <property name="meta.attr.5.stream.NUMBER_OF_FRAMES.markup">276</property>
  <property name="meta.attr.5.stream.NUMBER_OF_BYTES.markup">16770</property>
  <property name="meta.attr.5.stream._STATISTICS_WRITING_APP.markup">mkvmerge v61.0.0 ('So') 64-bit</property>
  <property name="meta.attr.5.stream._STATISTICS_WRITING_DATE_UTC.markup">2022-10-15 08:00:42</property>
  <property name="meta.attr.5.stream._STATISTICS_TAGS.markup">BPS DURATION NUMBER_OF_FRAMES NUMBER_OF_BYTES</property>
  <property name="meta.attr.title.markup">Monster : Chapter 08 : The Fugitive</property>
  <property name="meta.attr.encoder.markup">libebml v1.4.2 + libmatroska v1.6.4</property>
  <property name="meta.attr.creation_time.markup">2022-10-15T08:00:42.000000Z</property>
  <property name="seekable">1</property>
  <property name="meta.media.sample_aspect_num">1</property>
  <property name="meta.media.sample_aspect_den">1</property>
  <property name="aspect_ratio">1</property>
  <property name="kdenlive:clipname"/>
  <property name="kdenlive:clip_type">0</property>
  <property name="kdenlive:folderid">-1</property>
  <property name="kdenlive:id">5</property>
  <property name="kdenlive:active_streams">1;2</property>
  <property name="kdenlive:file_size">500794319</property>
  <property name="kdenlive:file_hash">7baa1e64253e2a58c8524a04ca41341f</property>
  <property name="kdenlive:audio_max1">176</property>
  <property name="kdenlive:audio_max2">195</property>
  <property name="xml">was here</property>
  <property name="meta.media.frame_rate_num">24000</property>
  <property name="meta.media.frame_rate_den">1001</property>
  <property name="meta.media.colorspace">709</property>
  <property name="meta.media.color_trc">1</property>
  <property name="meta.media.has_b_frames">2</property>
  <property name="meta.media.width">1440</property>
  <property name="meta.media.height">1080</property>
  <property name="meta.media.color_range">mpeg</property>
  <property name="meta.media.top_field_first">0</property>
  <property name="meta.media.progressive">1</property>
  <property name="set.test_audio">1</property>
  <property name="set.test_image">0</property>
  <property name="format">3</property>
  <property name="vstream">0</property>
  <property name="astream">0</property>
  <property name="kdenlive:control_uuid">{882dbd12-5ecb-417d-93ae-6af8bccfcc33}</property>
  <property name="meta.media.1.codec.layout">stereo</property>
  <property name="meta.media.2.codec.layout">stereo</property>
  <property name="meta.media.aspect_ratio">1</property>
 </chain>
 <producer id="producer27" in="00:00:00.000" out="00:16:06.423">
  <property name="length">23171</property>
  <property name="eof">pause</property>
  <property name="resource">1.5:/mnt/data0/Monster/Monster-Editing/Orig/Monster - Chapter 08 - The Fugitive.mkv</property>
  <property name="aspect_ratio">1</property>
  <property name="meta.media.nb_streams">24</property>
  <property name="meta.media.0.stream.type">video</property>
  <property name="meta.media.0.stream.frame_rate">23.976</property>
  <property name="meta.media.0.stream.sample_aspect_ratio">1</property>
  <property name="meta.media.0.codec.width">1440</property>
  <property name="meta.media.0.codec.height">1080</property>
  <property name="meta.media.0.codec.rotate">0</property>
  <property name="meta.media.0.codec.pix_fmt">yuv420p10le</property>
  <property name="meta.media.0.codec.sample_aspect_ratio">1</property>
  <property name="meta.media.0.codec.colorspace">709</property>
  <property name="meta.media.0.codec.color_trc">1</property>
  <property name="meta.media.0.codec.name">hevc</property>
  <property name="meta.media.0.codec.long_name">HEVC (High Efficiency Video Coding)</property>
  <property name="meta.media.0.codec.bit_rate">0</property>
  <property name="meta.attr.0.stream.BPS.markup">2133702</property>
  <property name="meta.attr.0.stream.DURATION.markup">00:24:09.615000000</property>
  <property name="meta.attr.0.stream.NUMBER_OF_FRAMES.markup">34756</property>
  <property name="meta.attr.0.stream.NUMBER_OF_BYTES.markup">386630926</property>
  <property name="meta.attr.0.stream._STATISTICS_WRITING_APP.markup">mkvmerge v61.0.0 ('So') 64-bit</property>
  <property name="meta.attr.0.stream._STATISTICS_WRITING_DATE_UTC.markup">2022-10-15 08:00:42</property>
  <property name="meta.attr.0.stream._STATISTICS_TAGS.markup">BPS DURATION NUMBER_OF_FRAMES NUMBER_OF_BYTES</property>
  <property name="meta.media.1.stream.type">audio</property>
  <property name="meta.media.1.codec.sample_fmt">fltp</property>
  <property name="meta.media.1.codec.sample_rate">48000</property>
  <property name="meta.media.1.codec.channels">2</property>
  <property name="meta.media.1.codec.layout">stereo</property>
  <property name="meta.media.1.codec.name">ac3</property>
  <property name="meta.media.1.codec.long_name">ATSC A/52A (AC-3)</property>
  <property name="meta.media.1.codec.bit_rate">448000</property>
  <property name="meta.attr.1.stream.language.markup">jpn</property>
  <property name="meta.attr.1.stream.title.markup">Japanese DVD AC-3 DD_2.0</property>
  <property name="meta.attr.1.stream.BPS.markup">448000</property>
  <property name="meta.attr.1.stream.DURATION.markup">00:24:09.504000000</property>
  <property name="meta.attr.1.stream.NUMBER_OF_FRAMES.markup">45297</property>
  <property name="meta.attr.1.stream.NUMBER_OF_BYTES.markup">81172224</property>
  <property name="meta.attr.1.stream._STATISTICS_WRITING_APP.markup">mkvmerge v61.0.0 ('So') 64-bit</property>
  <property name="meta.attr.1.stream._STATISTICS_WRITING_DATE_UTC.markup">2022-10-15 08:00:42</property>
  <property name="meta.attr.1.stream._STATISTICS_TAGS.markup">BPS DURATION NUMBER_OF_FRAMES NUMBER_OF_BYTES</property>
  <property name="meta.media.2.stream.type">audio</property>
  <property name="meta.media.2.codec.sample_fmt">fltp</property>
  <property name="meta.media.2.codec.sample_rate">48000</property>
  <property name="meta.media.2.codec.channels">2</property>
  <property name="meta.media.2.codec.layout">stereo</property>
  <property name="meta.media.2.codec.name">aac</property>
  <property name="meta.media.2.codec.long_name">AAC (Advanced Audio Coding)</property>
  <property name="meta.media.2.codec.bit_rate">0</property>
  <property name="meta.attr.2.stream.language.markup">eng</property>
  <property name="meta.attr.2.stream.title.markup">English AAC DD_2.0</property>
  <property name="meta.attr.2.stream.BPS.markup">162986</property>
  <property name="meta.attr.2.stream.DURATION.markup">00:23:54.837000000</property>
  <property name="meta.attr.2.stream.NUMBER_OF_FRAMES.markup">67258</property>
  <property name="meta.attr.2.stream.NUMBER_OF_BYTES.markup">29232317</property>
  <property name="meta.attr.2.stream._STATISTICS_WRITING_APP.markup">mkvmerge v61.0.0 ('So') 64-bit</property>
  <property name="meta.attr.2.stream._STATISTICS_WRITING_DATE_UTC.markup">2022-10-15 08:00:42</property>
  <property name="meta.attr.2.stream._STATISTICS_TAGS.markup">BPS DURATION NUMBER_OF_FRAMES NUMBER_OF_BYTES</property>
  <property name="meta.media.3.codec.name">ssa</property>
  <property name="meta.media.3.codec.long_name">ASS (Advanced SubStation Alpha) subtitle</property>
  <property name="meta.media.3.codec.bit_rate">0</property>
  <property name="meta.attr.3.stream.language.markup">eng</property>
  <property name="meta.attr.3.stream.title.markup">English (Full) ASS</property>
  <property name="meta.attr.3.stream.BPS.markup">78</property>
  <property name="meta.attr.3.stream.DURATION.markup">00:23:50.780000000</property>
  <property name="meta.attr.3.stream.NUMBER_OF_FRAMES.markup">243</property>
  <property name="meta.attr.3.stream.NUMBER_OF_BYTES.markup">13963</property>
  <property name="meta.attr.3.stream._STATISTICS_WRITING_APP.markup">mkvmerge v61.0.0 ('So') 64-bit</property>
  <property name="meta.attr.3.stream._STATISTICS_WRITING_DATE_UTC.markup">2022-10-15 08:00:42</property>
  <property name="meta.attr.3.stream._STATISTICS_TAGS.markup">BPS DURATION NUMBER_OF_FRAMES NUMBER_OF_BYTES</property>
  <property name="meta.media.4.codec.name">ssa</property>
  <property name="meta.media.4.codec.long_name">ASS (Advanced SubStation Alpha) subtitle</property>
  <property name="meta.media.4.codec.bit_rate">0</property>
  <property name="meta.attr.4.stream.language.markup">eng</property>
  <property name="meta.attr.4.stream.title.markup">English (Titles &amp; Signs) ASS</property>
  <property name="meta.attr.4.stream.BPS.markup">1</property>
  <property name="meta.attr.4.stream.DURATION.markup">00:20:21.470000000</property>
  <property name="meta.attr.4.stream.NUMBER_OF_FRAMES.markup">3</property>
  <property name="meta.attr.4.stream.NUMBER_OF_BYTES.markup">206</property>
  <property name="meta.attr.4.stream._STATISTICS_WRITING_APP.markup">mkvmerge v61.0.0 ('So') 64-bit</property>
  <property name="meta.attr.4.stream._STATISTICS_WRITING_DATE_UTC.markup">2022-10-15 08:00:42</property>
  <property name="meta.attr.4.stream._STATISTICS_TAGS.markup">BPS DURATION NUMBER_OF_FRAMES NUMBER_OF_BYTES</property>
  <property name="meta.media.5.codec.name">ssa</property>
  <property name="meta.media.5.codec.long_name">ASS (Advanced SubStation Alpha) subtitle</property>
  <property name="meta.media.5.codec.bit_rate">0</property>
  <property name="meta.attr.5.stream.language.markup">ara</property>
  <property name="meta.attr.5.stream.title.markup">Arabic</property>
  <property name="meta.attr.5.stream.BPS.markup">100</property>
  <property name="meta.attr.5.stream.DURATION.markup">00:22:19.090000000</property>
  <property name="meta.attr.5.stream.NUMBER_OF_FRAMES.markup">276</property>
  <property name="meta.attr.5.stream.NUMBER_OF_BYTES.markup">16770</property>
  <property name="meta.attr.5.stream._STATISTICS_WRITING_APP.markup">mkvmerge v61.0.0 ('So') 64-bit</property>
  <property name="meta.attr.5.stream._STATISTICS_WRITING_DATE_UTC.markup">2022-10-15 08:00:42</property>
  <property name="meta.attr.5.stream._STATISTICS_TAGS.markup">BPS DURATION NUMBER_OF_FRAMES NUMBER_OF_BYTES</property>
  <property name="meta.attr.title.markup">Monster : Chapter 08 : The Fugitive</property>
  <property name="meta.attr.encoder.markup">libebml v1.4.2 + libmatroska v1.6.4</property>
  <property name="meta.attr.creation_time.markup">2022-10-15T08:00:42.000000Z</property>
  <property name="seekable">1</property>
  <property name="meta.media.sample_aspect_num">1</property>
  <property name="meta.media.sample_aspect_den">1</property>
  <property name="format">3</property>
  <property name="audio_index">1</property>
  <property name="video_index">0</property>
  <property name="warp_speed">1.5</property>
  <property name="warp_resource">/mnt/data0/Monster/Monster-Editing/Orig/Monster - Chapter 08 - The Fugitive.mkv</property>
  <property name="mlt_service">timewarp</property>
  <property name="set.test_audio">1</property>
  <property name="set.test_image">0</property>
  <property name="kdenlive:id">5</property>
  <property name="warp_pitch">0</property>
  <property name="meta.media.frame_rate_num">24000</property>
  <property name="meta.media.frame_rate_den">1001</property>
  <property name="meta.media.colorspace">709</property>
  <property name="meta.media.color_trc">1</property>
  <property name="meta.media.has_b_frames">2</property>
  <property name="meta.media.width">1440</property>
  <property name="meta.media.height">1080</property>
  <property name="meta.media.color_range">mpeg</property>
  <property name="meta.media.top_field_first">0</property>
  <property name="meta.media.progressive">1</property>
  <property name="vstream">0</property>
  <property name="astream">0</property>
  <property name="kdenlive:control_uuid">{882dbd12-5ecb-417d-93ae-6af8bccfcc33}</property>
 </producer>
 <producer id="producer28" in="00:00:00.000" out="00:48:19.228">
  <property name="length">69512</property>
  <property name="eof">pause</property>
  <property name="resource">0.5:/mnt/data0/Monster/Monster-Editing/Orig/Monster - Chapter 08 - The Fugitive.mkv</property>
  <property name="aspect_ratio">1</property>
  <property name="meta.media.nb_streams">24</property>
  <property name="meta.media.0.stream.type">video</property>
  <property name="meta.media.0.stream.frame_rate">23.976</property>
  <property name="meta.media.0.stream.sample_aspect_ratio">1</property>
  <property name="meta.media.0.codec.width">1440</property>
  <property name="meta.media.0.codec.height">1080</property>
  <property name="meta.media.0.codec.rotate">0</property>
  <property name="meta.media.0.codec.pix_fmt">yuv420p10le</property>
  <property name="meta.media.0.codec.sample_aspect_ratio">1</property>
  <property name="meta.media.0.codec.colorspace">709</property>
  <property name="meta.media.0.codec.color_trc">1</property>
  <property name="meta.media.0.codec.name">hevc</property>
  <property name="meta.media.0.codec.long_name">HEVC (High Efficiency Video Coding)</property>
  <property name="meta.media.0.codec.bit_rate">0</property>
  <property name="meta.attr.0.stream.BPS.markup">2133702</property>
  <property name="meta.attr.0.stream.DURATION.markup">00:24:09.615000000</property>
  <property name="meta.attr.0.stream.NUMBER_OF_FRAMES.markup">34756</property>
  <property name="meta.attr.0.stream.NUMBER_OF_BYTES.markup">386630926</property>
  <property name="meta.attr.0.stream._STATISTICS_WRITING_APP.markup">mkvmerge v61.0.0 ('So') 64-bit</property>
  <property name="meta.attr.0.stream._STATISTICS_WRITING_DATE_UTC.markup">2022-10-15 08:00:42</property>
  <property name="meta.attr.0.stream._STATISTICS_TAGS.markup">BPS DURATION NUMBER_OF_FRAMES NUMBER_OF_BYTES</property>
  <property name="meta.media.1.stream.type">audio</property>
  <property name="meta.media.1.codec.sample_fmt">fltp</property>
  <property name="meta.media.1.codec.sample_rate">48000</property>
  <property name="meta.media.1.codec.channels">2</property>
  <property name="meta.media.1.codec.layout">stereo</property>
  <property name="meta.media.1.codec.name">ac3</property>
  <property name="meta.media.1.codec.long_name">ATSC A/52A (AC-3)</property>
  <property name="meta.media.1.codec.bit_rate">448000</property>
  <property name="meta.attr.1.stream.language.markup">jpn</property>
  <property name="meta.attr.1.stream.title.markup">Japanese DVD AC-3 DD_2.0</property>
  <property name="meta.attr.1.stream.BPS.markup">448000</property>
  <property name="meta.attr.1.stream.DURATION.markup">00:24:09.504000000</property>
  <property name="meta.attr.1.stream.NUMBER_OF_FRAMES.markup">45297</property>
  <property name="meta.attr.1.stream.NUMBER_OF_BYTES.markup">81172224</property>
  <property name="meta.attr.1.stream._STATISTICS_WRITING_APP.markup">mkvmerge v61.0.0 ('So') 64-bit</property>
  <property name="meta.attr.1.stream._STATISTICS_WRITING_DATE_UTC.markup">2022-10-15 08:00:42</property>
  <property name="meta.attr.1.stream._STATISTICS_TAGS.markup">BPS DURATION NUMBER_OF_FRAMES NUMBER_OF_BYTES</property>
  <property name="meta.media.2.stream.type">audio</property>
  <property name="meta.media.2.codec.sample_fmt">fltp</property>
  <property name="meta.media.2.codec.sample_rate">48000</property>
  <property name="meta.media.2.codec.channels">2</property>
  <property name="meta.media.2.codec.layout">stereo</property>
  <property name="meta.media.2.codec.name">aac</property>
  <property name="meta.media.2.codec.long_name">AAC (Advanced Audio Coding)</property>
  <property name="meta.media.2.codec.bit_rate">0</property>
  <property name="meta.attr.2.stream.language.markup">eng</property>
  <property name="meta.attr.2.stream.title.markup">English AAC DD_2.0</property>
  <property name="meta.attr.2.stream.BPS.markup">162986</property>
  <property name="meta.attr.2.stream.DURATION.markup">00:23:54.837000000</property>
  <property name="meta.attr.2.stream.NUMBER_OF_FRAMES.markup">67258</property>
  <property name="meta.attr.2.stream.NUMBER_OF_BYTES.markup">29232317</property>
  <property name="meta.attr.2.stream._STATISTICS_WRITING_APP.markup">mkvmerge v61.0.0 ('So') 64-bit</property>
  <property name="meta.attr.2.stream._STATISTICS_WRITING_DATE_UTC.markup">2022-10-15 08:00:42</property>
  <property name="meta.attr.2.stream._STATISTICS_TAGS.markup">BPS DURATION NUMBER_OF_FRAMES NUMBER_OF_BYTES</property>
  <property name="meta.media.3.codec.name">ssa</property>
  <property name="meta.media.3.codec.long_name">ASS (Advanced SubStation Alpha) subtitle</property>
  <property name="meta.media.3.codec.bit_rate">0</property>
  <property name="meta.attr.3.stream.language.markup">eng</property>
  <property name="meta.attr.3.stream.title.markup">English (Full) ASS</property>
  <property name="meta.attr.3.stream.BPS.markup">78</property>
  <property name="meta.attr.3.stream.DURATION.markup">00:23:50.780000000</property>
  <property name="meta.attr.3.stream.NUMBER_OF_FRAMES.markup">243</property>
  <property name="meta.attr.3.stream.NUMBER_OF_BYTES.markup">13963</property>
  <property name="meta.attr.3.stream._STATISTICS_WRITING_APP.markup">mkvmerge v61.0.0 ('So') 64-bit</property>
  <property name="meta.attr.3.stream._STATISTICS_WRITING_DATE_UTC.markup">2022-10-15 08:00:42</property>
  <property name="meta.attr.3.stream._STATISTICS_TAGS.markup">BPS DURATION NUMBER_OF_FRAMES NUMBER_OF_BYTES</property>
  <property name="meta.media.4.codec.name">ssa</property>
  <property name="meta.media.4.codec.long_name">ASS (Advanced SubStation Alpha) subtitle</property>
  <property name="meta.media.4.codec.bit_rate">0</property>
  <property name="meta.attr.4.stream.language.markup">eng</property>
  <property name="meta.attr.4.stream.title.markup">English (Titles &amp; Signs) ASS</property>
  <property name="meta.attr.4.stream.BPS.markup">1</property>
  <property name="meta.attr.4.stream.DURATION.markup">00:20:21.470000000</property>
  <property name="meta.attr.4.stream.NUMBER_OF_FRAMES.markup">3</property>
  <property name="meta.attr.4.stream.NUMBER_OF_BYTES.markup">206</property>
  <property name="meta.attr.4.stream._STATISTICS_WRITING_APP.markup">mkvmerge v61.0.0 ('So') 64-bit</property>
  <property name="meta.attr.4.stream._STATISTICS_WRITING_DATE_UTC.markup">2022-10-15 08:00:42</property>
  <property name="meta.attr.4.stream._STATISTICS_TAGS.markup">BPS DURATION NUMBER_OF_FRAMES NUMBER_OF_BYTES</property>
  <property name="meta.media.5.codec.name">ssa</property>
  <property name="meta.media.5.codec.long_name">ASS (Advanced SubStation Alpha) subtitle</property>
  <property name="meta.media.5.codec.bit_rate">0</property>
  <property name="meta.attr.5.stream.language.markup">ara</property>
  <property name="meta.attr.5.stream.title.markup">Arabic</property>
  <property name="meta.attr.5.stream.BPS.markup">100</property>
  <property name="meta.attr.5.stream.DURATION.markup">00:22:19.090000000</property>
  <property name="meta.attr.5.stream.NUMBER_OF_FRAMES.markup">276</property>
  <property name="meta.attr.5.stream.NUMBER_OF_BYTES.markup">16770</property>
  <property name="meta.attr.5.stream._STATISTICS_WRITING_APP.markup">mkvmerge v61.0.0 ('So') 64-bit</property>
  <property name="meta.attr.5.stream._STATISTICS_WRITING_DATE_UTC.markup">2022-10-15 08:00:42</property>
  <property name="meta.attr.5.stream._STATISTICS_TAGS.markup">BPS DURATION NUMBER_OF_FRAMES NUMBER_OF_BYTES</property>
  <property name="meta.attr.title.markup">Monster : Chapter 08 : The Fugitive</property>
  <property name="meta.attr.encoder.markup">libebml v1.4.2 + libmatroska v1.6.4</property>
  <property name="meta.attr.creation_time.markup">2022-10-15T08:00:42.000000Z</property>
  <property name="seekable">1</property>
  <property name="meta.media.sample_aspect_num">1</property>
  <property name="meta.media.sample_aspect_den">1</property>
  <property name="format">3</property>
  <property name="audio_index">1</property>
  <property name="video_index">0</property>
  <property name="warp_speed">0.5</property>
  <property name="warp_resource">/mnt/data0/Monster/Monster-Editing/Orig/Monster - Chapter 08 - The Fugitive.mkv</property>
  <property name="mlt_service">timewarp</property>
  <property name="set.test_audio">1</property>
  <property name="set.test_image">0</property>
  <property name="kdenlive:id">5</property>
  <property name="warp_pitch">0</property>
  <property name="meta.media.frame_rate_num">24000</property>
  <property name="meta.media.frame_rate_den">1001</property>
  <property name="meta.media.colorspace">709</property>
  <property name="meta.media.color_trc">1</property>
  <property name="meta.media.has_b_frames">2</property>
  <property name="meta.media.width">1440</property>
  <property name="meta.media.height">1080</property>
  <property name="meta.media.color_range">mpeg</property>
  <property name="meta.media.top_field_first">0</property>
  <property name="meta.media.progressive">1</property>
  <property name="vstream">0</property>
  <property name="astream">0</property>
  <property name="kdenlive:control_uuid">{882dbd12-5ecb-417d-93ae-6af8bccfcc33}</property>
 </producer>
 <playlist id="playlist6">
  <blank length="00:00:18.852"/>
  <entry in="00:00:24.483" out="00:00:26.693" producer="producer18">
   <property name="kdenlive:id">2</property>
  </entry>
  <blank length="00:00:05.130"/>
  <entry in="00:00:27.194" out="00:01:15.349" producer="producer18">
   <property name="kdenlive:id">2</property>
  </entry>
  <entry in="00:01:16.892" out="00:01:52.678" producer="producer18">
   <property name="kdenlive:id">2</property>
  </entry>
  <entry in="00:01:53.470" out="00:02:03.587" producer="producer18">
   <property name="kdenlive:id">2</property>
   <filter id="filter126" in="00:02:00.500" out="00:02:03.587">
    <property name="start">1</property>
    <property name="level">1</property>
    <property name="mlt_service">brightness</property>
    <property name="kdenlive_id">fade_to_black</property>
    <property name="alpha">00:00:00.000=1;00:00:03.086=0</property>
    <property name="kdenlive:collapsed">0</property>
   </filter>
  </entry>
  <blank length="00:02:20.354"/>
  <entry in="00:05:41.875" out="00:05:52.636" producer="producer18">
   <property name="kdenlive:id">2</property>
  </entry>
  <blank length="00:02:10.010"/>
  <entry in="00:08:08.800" out="00:13:09.218" producer="producer18">
   <property name="kdenlive:id">2</property>
  </entry>
  <entry in="00:17:32.324" out="00:17:33.617" producer="producer19">
   <property name="kdenlive:id">2</property>
   <filter id="filter127" in="00:17:32.282" out="00:17:33.617">
    <property name="start">1</property>
    <property name="level">1</property>
    <property name="mlt_service">brightness</property>
    <property name="kdenlive_id">fade_to_black</property>
    <property name="alpha">00:00:00.000=1;00:00:01.335=0</property>
    <property name="kdenlive:collapsed">0</property>
   </filter>
  </entry>
  <blank length="00:04:15.599"/>
  <entry in="00:17:45.087" out="00:19:57.307" producer="producer18">
   <property name="kdenlive:id">2</property>
  </entry>
  <blank length="00:00:05.505"/>
  <entry in="00:20:06.340" out="00:20:10.260" producer="producer18">
   <property name="kdenlive:id">2</property>
  </entry>
  <blank length="00:00:40.374"/>
  <entry in="00:21:03.837" out="00:21:36.536" producer="producer18">
   <property name="kdenlive:id">2</property>
  </entry>
  <blank length="00:00:17.309"/>
  <entry in="00:00:00.000" out="00:02:52.803" producer="producer20">
   <property name="kdenlive:id">3</property>
  </entry>
  <blank length="00:00:58.433"/>
  <entry in="00:05:18.060" out="00:05:57.808" producer="producer20">
   <property name="kdenlive:id">3</property>
  </entry>
  <blank length="00:00:30.322"/>
  <entry in="00:06:40.999" out="00:10:05.339" producer="producer20">
   <property name="kdenlive:id">3</property>
  </entry>
  <blank length="00:00:57.182"/>
  <entry in="00:11:10.260" out="00:18:18.644" producer="producer20">
   <property name="kdenlive:id">3</property>
  </entry>
  <entry in="00:18:18.685" out="00:20:00.459" producer="producer20">
   <property name="kdenlive:id">3</property>
  </entry>
  <entry in="00:20:09.176" out="00:20:35.911" producer="producer20">
   <property name="kdenlive:id">3</property>
  </entry>
  <entry in="00:10:18.018" out="00:10:20.312" producer="producer21">
   <property name="kdenlive:id">3</property>
  </entry>
  <entry in="00:20:40.624" out="00:20:53.887" producer="producer20">
   <property name="kdenlive:id">3</property>
  </entry>
  <entry in="00:20:54.346" out="00:20:58.934" producer="producer20">
   <property name="kdenlive:id">3</property>
  </entry>
  <entry in="00:20:58.976" out="00:22:18.060" producer="producer20">
   <property name="kdenlive:id">3</property>
   <filter id="filter128" in="00:22:15.599" out="00:22:18.060">
    <property name="start">1</property>
    <property name="level">1</property>
    <property name="mlt_service">brightness</property>
    <property name="kdenlive_id">fade_to_black</property>
    <property name="alpha">00:00:00.000=1;00:00:02.461=0</property>
   </filter>
  </entry>
  <blank length="00:00:33.242"/>
  <entry in="00:02:44.336" out="00:02:48.465" producer="producer22">
   <property name="kdenlive:id">4</property>
  </entry>
  <blank length="00:00:04.546"/>
  <entry in="00:02:54.554" out="00:03:18.435" producer="producer22">
   <property name="kdenlive:id">4</property>
  </entry>
  <entry in="00:03:19.728" out="00:03:27.194" producer="producer22">
   <property name="kdenlive:id">4</property>
  </entry>
  <entry in="00:03:34.201" out="00:05:21.438" producer="producer22">
   <property name="kdenlive:id">4</property>
  </entry>
  <blank length="00:00:07.966"/>
  <entry in="00:05:36.119" out="00:06:00.959" producer="producer22">
   <property name="kdenlive:id">4</property>
  </entry>
  <entry in="00:06:05.005" out="00:07:28.612" producer="producer22">
   <property name="kdenlive:id">4</property>
  </entry>
  <entry in="00:07:29.696" out="00:08:07.382" producer="producer22">
   <property name="kdenlive:id">4</property>
  </entry>
  <entry in="00:05:25.025" out="00:05:27.903" producer="producer23">
   <property name="kdenlive:id">4</property>
  </entry>
  <entry in="00:08:14.973" out="00:08:30.155" producer="producer22">
   <property name="kdenlive:id">4</property>
  </entry>
  <entry in="00:08:34.993" out="00:08:43.043" producer="producer22">
   <property name="kdenlive:id">4</property>
  </entry>
  <entry in="00:08:45.128" out="00:09:15.599" producer="producer22">
   <property name="kdenlive:id">4</property>
  </entry>
  <entry in="00:09:35.786" out="00:11:16.058" producer="producer22">
   <property name="kdenlive:id">4</property>
  </entry>
  <entry in="00:11:27.861" out="00:11:32.574" producer="producer22">
   <property name="kdenlive:id">4</property>
  </entry>
  <entry in="00:02:53.178" out="00:02:53.929" producer="producer24">
   <property name="kdenlive:id">4</property>
  </entry>
  <entry in="00:04:38.372" out="00:04:38.997" producer="producer25">
   <property name="kdenlive:id">4</property>
  </entry>
  <entry in="00:11:37.579" out="00:11:45.921" producer="producer22">
   <property name="kdenlive:id">4</property>
  </entry>
  <entry in="00:23:31.949" out="00:23:38.330" producer="producer5">
   <property name="kdenlive:id">4</property>
   <filter id="filter129" in="00:23:36.078" out="00:23:38.330">
    <property name="start">1</property>
    <property name="level">1</property>
    <property name="mlt_service">brightness</property>
    <property name="kdenlive_id">fade_to_black</property>
    <property name="alpha">00:00:00.000=1;00:00:02.252=0</property>
    <property name="kdenlive:collapsed">0</property>
   </filter>
  </entry>
  <entry in="00:11:53.971" out="00:12:47.297" producer="producer22">
   <property name="kdenlive:id">4</property>
  </entry>
  <entry in="00:12:52.803" out="00:13:02.711" producer="producer22">
   <property name="kdenlive:id">4</property>
  </entry>
  <entry in="00:13:04.796" out="00:14:02.586" producer="producer22">
   <property name="kdenlive:id">4</property>
  </entry>
  <entry in="00:14:05.505" out="00:16:50.509" producer="producer22">
   <property name="kdenlive:id">4</property>
  </entry>
  <entry in="00:16:55.555" out="00:17:19.728" producer="producer22">
   <property name="kdenlive:id">4</property>
  </entry>
  <entry in="00:17:21.313" out="00:17:39.289" producer="producer22">
   <property name="kdenlive:id">4</property>
  </entry>
  <entry in="00:17:48.799" out="00:18:17.809" producer="producer22">
   <property name="kdenlive:id">4</property>
  </entry>
  <entry in="00:18:19.311" out="00:18:20.562" producer="producer22">
   <property name="kdenlive:id">4</property>
  </entry>
  <entry in="00:18:22.314" out="00:18:28.320" producer="producer22">
   <property name="kdenlive:id">4</property>
  </entry>
  <entry in="00:18:31.740" out="00:18:33.825" producer="producer22">
   <property name="kdenlive:id">4</property>
  </entry>
  <entry in="00:18:33.867" out="00:18:53.470" producer="producer22">
   <property name="kdenlive:id">4</property>
  </entry>
  <entry in="00:18:54.388" out="00:22:26.693" producer="producer22">
   <property name="kdenlive:id">4</property>
  </entry>
  <entry in="00:02:38.247" out="00:03:30.239" producer="producer26">
   <property name="kdenlive:id">5</property>
  </entry>
  <entry in="00:03:31.156" out="00:04:13.722" producer="producer26">
   <property name="kdenlive:id">5</property>
  </entry>
  <entry in="00:04:59.101" out="00:05:01.877" producer="producer26">
   <property name="kdenlive:id">5</property>
  </entry>
  <entry in="00:05:08.550" out="00:09:53.470" producer="producer26">
   <property name="kdenlive:id">5</property>
  </entry>
  <entry in="00:10:40.832" out="00:12:08.467" producer="producer26">
   <property name="kdenlive:id">5</property>
  </entry>
  <entry in="00:08:05.672" out="00:08:08.508" producer="producer27">
   <property name="kdenlive:id">5</property>
  </entry>
  <entry in="00:12:19.228" out="00:12:36.370" producer="producer26">
   <property name="kdenlive:id">5</property>
  </entry>
  <entry in="00:25:12.763" out="00:25:14.431" producer="producer28">
   <property name="kdenlive:id">5</property>
  </entry>
  <entry in="00:13:37.246" out="00:19:24.524" producer="producer26">
   <property name="kdenlive:id">5</property>
  </entry>
  <entry in="00:21:16.725" out="00:23:37.120" producer="producer26">
   <property name="kdenlive:id">5</property>
  </entry>
 </playlist>
 <playlist id="playlist7"/>
 <tractor id="tractor3" in="00:00:00.000" out="01:15:01.960">
  <property name="kdenlive:trackheight">67</property>
  <property name="kdenlive:timeline_active">1</property>
  <property name="kdenlive:collapsed">0</property>
  <property name="kdenlive:thumbs_format"/>
  <property name="kdenlive:audio_rec"/>
  <track hide="audio" producer="playlist6"/>
  <track hide="audio" producer="playlist7"/>
 </tractor>
 <chain id="producer30" out="00:23:55.555">
  <property name="length">34419</property>
  <property name="eof">pause</property>
  <property name="resource">/mnt/data0/Monster/Monster-Editing/Orig/Monster - Chapter 05 - The Girl From Heidelberg.mkv</property>
  <property name="mlt_service">avformat-novalidate</property>
  <property name="audio_index">1</property>
  <property name="video_index">0</property>
  <property name="meta.media.nb_streams">31</property>
  <property name="meta.media.0.stream.type">video</property>
  <property name="meta.media.0.stream.frame_rate">23.976</property>
  <property name="meta.media.0.stream.sample_aspect_ratio">1</property>
  <property name="meta.media.0.codec.width">1440</property>
  <property name="meta.media.0.codec.height">1080</property>
  <property name="meta.media.0.codec.rotate">0</property>
  <property name="meta.media.0.codec.pix_fmt">yuv420p10le</property>
  <property name="meta.media.0.codec.sample_aspect_ratio">1</property>
  <property name="meta.media.0.codec.colorspace">709</property>
  <property name="meta.media.0.codec.color_trc">1</property>
  <property name="meta.media.0.codec.name">hevc</property>
  <property name="meta.media.0.codec.long_name">HEVC (High Efficiency Video Coding)</property>
  <property name="meta.media.0.codec.bit_rate">0</property>
  <property name="meta.attr.0.stream.BPS-eng.markup">2146153</property>
  <property name="meta.attr.0.stream.DURATION-eng.markup">00:23:55.518000000</property>
  <property name="meta.attr.0.stream.NUMBER_OF_FRAMES-eng.markup">34418</property>
  <property name="meta.attr.0.stream.NUMBER_OF_BYTES-eng.markup">385105255</property>
  <property name="meta.attr.0.stream._STATISTICS_WRITING_APP-eng.markup">mkvmerge v52.0.0 ('Secret For The Mad') 64-bit</property>
  <property name="meta.attr.0.stream._STATISTICS_WRITING_DATE_UTC-eng.markup">2022-10-15 07:44:57</property>
  <property name="meta.attr.0.stream._STATISTICS_TAGS-eng.markup">BPS DURATION NUMBER_OF_FRAMES NUMBER_OF_BYTES</property>
  <property name="meta.media.1.stream.type">audio</property>
  <property name="meta.media.1.codec.sample_fmt">fltp</property>
  <property name="meta.media.1.codec.sample_rate">48000</property>
  <property name="meta.media.1.codec.channels">2</property>
  <property name="meta.media.1.codec.name">ac3</property>
  <property name="meta.media.1.codec.long_name">ATSC A/52A (AC-3)</property>
  <property name="meta.media.1.codec.bit_rate">448000</property>
  <property name="meta.attr.1.stream.language.markup">jpn</property>
  <property name="meta.attr.1.stream.title.markup">Japanese DVD AC-3 DD_2.0</property>
  <property name="meta.attr.1.stream.BPS-eng.markup">448000</property>
  <property name="meta.attr.1.stream.DURATION-eng.markup">00:23:55.552000000</property>
  <property name="meta.attr.1.stream.NUMBER_OF_FRAMES-eng.markup">44861</property>
  <property name="meta.attr.1.stream.NUMBER_OF_BYTES-eng.markup">80390912</property>
  <property name="meta.attr.1.stream._STATISTICS_WRITING_APP-eng.markup">mkvmerge v52.0.0 ('Secret For The Mad') 64-bit</property>
  <property name="meta.attr.1.stream._STATISTICS_WRITING_DATE_UTC-eng.markup">2022-10-15 07:44:57</property>
  <property name="meta.attr.1.stream._STATISTICS_TAGS-eng.markup">BPS DURATION NUMBER_OF_FRAMES NUMBER_OF_BYTES</property>
  <property name="meta.media.2.stream.type">audio</property>
  <property name="meta.media.2.codec.sample_fmt">fltp</property>
  <property name="meta.media.2.codec.sample_rate">48000</property>
  <property name="meta.media.2.codec.channels">2</property>
  <property name="meta.media.2.codec.name">aac</property>
  <property name="meta.media.2.codec.long_name">AAC (Advanced Audio Coding)</property>
  <property name="meta.media.2.codec.bit_rate">0</property>
  <property name="meta.attr.2.stream.language.markup">eng</property>
  <property name="meta.attr.2.stream.title.markup">English AAC DD_2.0</property>
  <property name="meta.attr.2.stream.BPS-eng.markup">152336</property>
  <property name="meta.attr.2.stream.DURATION-eng.markup">00:23:55.286000000</property>
  <property name="meta.attr.2.stream.NUMBER_OF_FRAMES-eng.markup">67279</property>
  <property name="meta.attr.2.stream.NUMBER_OF_BYTES-eng.markup">27330812</property>
  <property name="meta.attr.2.stream._STATISTICS_WRITING_APP-eng.markup">mkvmerge v52.0.0 ('Secret For The Mad') 64-bit</property>
  <property name="meta.attr.2.stream._STATISTICS_WRITING_DATE_UTC-eng.markup">2022-10-15 07:44:57</property>
  <property name="meta.attr.2.stream._STATISTICS_TAGS-eng.markup">BPS DURATION NUMBER_OF_FRAMES NUMBER_OF_BYTES</property>
  <property name="meta.media.3.codec.name">ssa</property>
  <property name="meta.media.3.codec.long_name">ASS (Advanced SubStation Alpha) subtitle</property>
  <property name="meta.media.3.codec.bit_rate">0</property>
  <property name="meta.attr.3.stream.language.markup">eng</property>
  <property name="meta.attr.3.stream.title.markup">English (Full) ASS</property>
  <property name="meta.attr.3.stream.BPS-eng.markup">98</property>
  <property name="meta.attr.3.stream.DURATION-eng.markup">00:23:43.900000000</property>
  <property name="meta.attr.3.stream.NUMBER_OF_FRAMES-eng.markup">303</property>
  <property name="meta.attr.3.stream.NUMBER_OF_BYTES-eng.markup">17571</property>
  <property name="meta.attr.3.stream._STATISTICS_WRITING_APP-eng.markup">mkvmerge v52.0.0 ('Secret For The Mad') 64-bit</property>
  <property name="meta.attr.3.stream._STATISTICS_WRITING_DATE_UTC-eng.markup">2022-10-15 07:44:57</property>
  <property name="meta.attr.3.stream._STATISTICS_TAGS-eng.markup">BPS DURATION NUMBER_OF_FRAMES NUMBER_OF_BYTES</property>
  <property name="meta.media.4.codec.name">ssa</property>
  <property name="meta.media.4.codec.long_name">ASS (Advanced SubStation Alpha) subtitle</property>
  <property name="meta.media.4.codec.bit_rate">0</property>
  <property name="meta.attr.4.stream.language.markup">eng</property>
  <property name="meta.attr.4.stream.title.markup">English (Titles &amp; Signs) ASS</property>
  <property name="meta.attr.4.stream.BPS-eng.markup">1</property>
  <property name="meta.attr.4.stream.DURATION-eng.markup">00:20:32.900000000</property>
  <property name="meta.attr.4.stream.NUMBER_OF_FRAMES-eng.markup">5</property>
  <property name="meta.attr.4.stream.NUMBER_OF_BYTES-eng.markup">289</property>
  <property name="meta.attr.4.stream._STATISTICS_WRITING_APP-eng.markup">mkvmerge v52.0.0 ('Secret For The Mad') 64-bit</property>
  <property name="meta.attr.4.stream._STATISTICS_WRITING_DATE_UTC-eng.markup">2022-10-15 07:44:57</property>
  <property name="meta.attr.4.stream._STATISTICS_TAGS-eng.markup">BPS DURATION NUMBER_OF_FRAMES NUMBER_OF_BYTES</property>
  <property name="meta.media.5.codec.name">ssa</property>
  <property name="meta.media.5.codec.long_name">ASS (Advanced SubStation Alpha) subtitle</property>
  <property name="meta.media.5.codec.bit_rate">0</property>
  <property name="meta.attr.5.stream.language.markup">ara</property>
  <property name="meta.attr.5.stream.title.markup">Arabic</property>
  <property name="meta.attr.5.stream.BPS-eng.markup">127</property>
  <property name="meta.attr.5.stream.DURATION-eng.markup">00:22:16.870000000</property>
  <property name="meta.attr.5.stream.NUMBER_OF_FRAMES-eng.markup">338</property>
  <property name="meta.attr.5.stream.NUMBER_OF_BYTES-eng.markup">21336</property>
  <property name="meta.attr.5.stream._STATISTICS_WRITING_APP-eng.markup">mkvmerge v52.0.0 ('Secret For The Mad') 64-bit</property>
  <property name="meta.attr.5.stream._STATISTICS_WRITING_DATE_UTC-eng.markup">2022-10-15 07:44:57</property>
  <property name="meta.attr.5.stream._STATISTICS_TAGS-eng.markup">BPS DURATION NUMBER_OF_FRAMES NUMBER_OF_BYTES</property>
  <property name="meta.attr.title.markup">Monster : Chapter 05 : The Girl From Heidelberg</property>
  <property name="meta.attr.encoder.markup">libebml v1.4.1 + libmatroska v1.6.2</property>
  <property name="meta.attr.creation_time.markup">2022-10-15T07:44:57.000000Z</property>
  <property name="seekable">1</property>
  <property name="meta.media.sample_aspect_num">1</property>
  <property name="meta.media.sample_aspect_den">1</property>
  <property name="aspect_ratio">1</property>
  <property name="kdenlive:clipname"/>
  <property name="kdenlive:clip_type">0</property>
  <property name="kdenlive:folderid">-1</property>
  <property name="kdenlive:id">2</property>
  <property name="kdenlive:active_streams">1;2</property>
  <property name="kdenlive:file_size">497616281</property>
  <property name="kdenlive:file_hash">290246c0f90ccd8874fd5e52071cd4ed</property>
  <property name="kdenlive:audio_max1">179</property>
  <property name="kdenlive:audio_max2">188</property>
  <property name="xml">was here</property>
  <property name="meta.media.frame_rate_num">24000</property>
  <property name="meta.media.frame_rate_den">1001</property>
  <property name="meta.media.colorspace">709</property>
  <property name="meta.media.color_trc">1</property>
  <property name="meta.media.has_b_frames">2</property>
  <property name="meta.media.width">1440</property>
  <property name="meta.media.height">1080</property>
  <property name="meta.media.color_range">mpeg</property>
  <property name="meta.media.top_field_first">0</property>
  <property name="meta.media.progressive">1</property>
  <property name="set.test_audio">1</property>
  <property name="set.test_image">0</property>
  <property name="format">3</property>
  <property name="vstream">0</property>
  <property name="astream">0</property>
  <property name="kdenlive:control_uuid">{5ce384bd-b6ae-494b-bd4a-b36d57a8c1c7}</property>
  <property name="meta.media.1.codec.layout">stereo</property>
  <property name="meta.media.2.codec.layout">stereo</property>
  <property name="meta.media.aspect_ratio">1</property>
 </chain>
 <producer id="producer31" in="00:00:00.000" out="00:15:57.015">
  <property name="length">22946</property>
  <property name="eof">pause</property>
  <property name="resource">1.5:/mnt/data0/Monster/Monster-Editing/Orig/Monster - Chapter 05 - The Girl From Heidelberg.mkv</property>
  <property name="aspect_ratio">1</property>
  <property name="meta.media.nb_streams">31</property>
  <property name="meta.media.0.stream.type">video</property>
  <property name="meta.media.0.stream.frame_rate">23.976</property>
  <property name="meta.media.0.stream.sample_aspect_ratio">1</property>
  <property name="meta.media.0.codec.width">1440</property>
  <property name="meta.media.0.codec.height">1080</property>
  <property name="meta.media.0.codec.rotate">0</property>
  <property name="meta.media.0.codec.pix_fmt">yuv420p10le</property>
  <property name="meta.media.0.codec.sample_aspect_ratio">1</property>
  <property name="meta.media.0.codec.colorspace">709</property>
  <property name="meta.media.0.codec.color_trc">1</property>
  <property name="meta.media.0.codec.name">hevc</property>
  <property name="meta.media.0.codec.long_name">HEVC (High Efficiency Video Coding)</property>
  <property name="meta.media.0.codec.bit_rate">0</property>
  <property name="meta.attr.0.stream.BPS-eng.markup">2146153</property>
  <property name="meta.attr.0.stream.DURATION-eng.markup">00:23:55.518000000</property>
  <property name="meta.attr.0.stream.NUMBER_OF_FRAMES-eng.markup">34418</property>
  <property name="meta.attr.0.stream.NUMBER_OF_BYTES-eng.markup">385105255</property>
  <property name="meta.attr.0.stream._STATISTICS_WRITING_APP-eng.markup">mkvmerge v52.0.0 ('Secret For The Mad') 64-bit</property>
  <property name="meta.attr.0.stream._STATISTICS_WRITING_DATE_UTC-eng.markup">2022-10-15 07:44:57</property>
  <property name="meta.attr.0.stream._STATISTICS_TAGS-eng.markup">BPS DURATION NUMBER_OF_FRAMES NUMBER_OF_BYTES</property>
  <property name="meta.media.1.stream.type">audio</property>
  <property name="meta.media.1.codec.sample_fmt">fltp</property>
  <property name="meta.media.1.codec.sample_rate">48000</property>
  <property name="meta.media.1.codec.channels">2</property>
  <property name="meta.media.1.codec.layout">stereo</property>
  <property name="meta.media.1.codec.name">ac3</property>
  <property name="meta.media.1.codec.long_name">ATSC A/52A (AC-3)</property>
  <property name="meta.media.1.codec.bit_rate">448000</property>
  <property name="meta.attr.1.stream.language.markup">jpn</property>
  <property name="meta.attr.1.stream.title.markup">Japanese DVD AC-3 DD_2.0</property>
  <property name="meta.attr.1.stream.BPS-eng.markup">448000</property>
  <property name="meta.attr.1.stream.DURATION-eng.markup">00:23:55.552000000</property>
  <property name="meta.attr.1.stream.NUMBER_OF_FRAMES-eng.markup">44861</property>
  <property name="meta.attr.1.stream.NUMBER_OF_BYTES-eng.markup">80390912</property>
  <property name="meta.attr.1.stream._STATISTICS_WRITING_APP-eng.markup">mkvmerge v52.0.0 ('Secret For The Mad') 64-bit</property>
  <property name="meta.attr.1.stream._STATISTICS_WRITING_DATE_UTC-eng.markup">2022-10-15 07:44:57</property>
  <property name="meta.attr.1.stream._STATISTICS_TAGS-eng.markup">BPS DURATION NUMBER_OF_FRAMES NUMBER_OF_BYTES</property>
  <property name="meta.media.2.stream.type">audio</property>
  <property name="meta.media.2.codec.sample_fmt">fltp</property>
  <property name="meta.media.2.codec.sample_rate">48000</property>
  <property name="meta.media.2.codec.channels">2</property>
  <property name="meta.media.2.codec.layout">stereo</property>
  <property name="meta.media.2.codec.name">aac</property>
  <property name="meta.media.2.codec.long_name">AAC (Advanced Audio Coding)</property>
  <property name="meta.media.2.codec.bit_rate">0</property>
  <property name="meta.attr.2.stream.language.markup">eng</property>
  <property name="meta.attr.2.stream.title.markup">English AAC DD_2.0</property>
  <property name="meta.attr.2.stream.BPS-eng.markup">152336</property>
  <property name="meta.attr.2.stream.DURATION-eng.markup">00:23:55.286000000</property>
  <property name="meta.attr.2.stream.NUMBER_OF_FRAMES-eng.markup">67279</property>
  <property name="meta.attr.2.stream.NUMBER_OF_BYTES-eng.markup">27330812</property>
  <property name="meta.attr.2.stream._STATISTICS_WRITING_APP-eng.markup">mkvmerge v52.0.0 ('Secret For The Mad') 64-bit</property>
  <property name="meta.attr.2.stream._STATISTICS_WRITING_DATE_UTC-eng.markup">2022-10-15 07:44:57</property>
  <property name="meta.attr.2.stream._STATISTICS_TAGS-eng.markup">BPS DURATION NUMBER_OF_FRAMES NUMBER_OF_BYTES</property>
  <property name="meta.media.3.codec.name">ssa</property>
  <property name="meta.media.3.codec.long_name">ASS (Advanced SubStation Alpha) subtitle</property>
  <property name="meta.media.3.codec.bit_rate">0</property>
  <property name="meta.attr.3.stream.language.markup">eng</property>
  <property name="meta.attr.3.stream.title.markup">English (Full) ASS</property>
  <property name="meta.attr.3.stream.BPS-eng.markup">98</property>
  <property name="meta.attr.3.stream.DURATION-eng.markup">00:23:43.900000000</property>
  <property name="meta.attr.3.stream.NUMBER_OF_FRAMES-eng.markup">303</property>
  <property name="meta.attr.3.stream.NUMBER_OF_BYTES-eng.markup">17571</property>
  <property name="meta.attr.3.stream._STATISTICS_WRITING_APP-eng.markup">mkvmerge v52.0.0 ('Secret For The Mad') 64-bit</property>
  <property name="meta.attr.3.stream._STATISTICS_WRITING_DATE_UTC-eng.markup">2022-10-15 07:44:57</property>
  <property name="meta.attr.3.stream._STATISTICS_TAGS-eng.markup">BPS DURATION NUMBER_OF_FRAMES NUMBER_OF_BYTES</property>
  <property name="meta.media.4.codec.name">ssa</property>
  <property name="meta.media.4.codec.long_name">ASS (Advanced SubStation Alpha) subtitle</property>
  <property name="meta.media.4.codec.bit_rate">0</property>
  <property name="meta.attr.4.stream.language.markup">eng</property>
  <property name="meta.attr.4.stream.title.markup">English (Titles &amp; Signs) ASS</property>
  <property name="meta.attr.4.stream.BPS-eng.markup">1</property>
  <property name="meta.attr.4.stream.DURATION-eng.markup">00:20:32.900000000</property>
  <property name="meta.attr.4.stream.NUMBER_OF_FRAMES-eng.markup">5</property>
  <property name="meta.attr.4.stream.NUMBER_OF_BYTES-eng.markup">289</property>
  <property name="meta.attr.4.stream._STATISTICS_WRITING_APP-eng.markup">mkvmerge v52.0.0 ('Secret For The Mad') 64-bit</property>
  <property name="meta.attr.4.stream._STATISTICS_WRITING_DATE_UTC-eng.markup">2022-10-15 07:44:57</property>
  <property name="meta.attr.4.stream._STATISTICS_TAGS-eng.markup">BPS DURATION NUMBER_OF_FRAMES NUMBER_OF_BYTES</property>
  <property name="meta.media.5.codec.name">ssa</property>
  <property name="meta.media.5.codec.long_name">ASS (Advanced SubStation Alpha) subtitle</property>
  <property name="meta.media.5.codec.bit_rate">0</property>
  <property name="meta.attr.5.stream.language.markup">ara</property>
  <property name="meta.attr.5.stream.title.markup">Arabic</property>
  <property name="meta.attr.5.stream.BPS-eng.markup">127</property>
  <property name="meta.attr.5.stream.DURATION-eng.markup">00:22:16.870000000</property>
  <property name="meta.attr.5.stream.NUMBER_OF_FRAMES-eng.markup">338</property>
  <property name="meta.attr.5.stream.NUMBER_OF_BYTES-eng.markup">21336</property>
  <property name="meta.attr.5.stream._STATISTICS_WRITING_APP-eng.markup">mkvmerge v52.0.0 ('Secret For The Mad') 64-bit</property>
  <property name="meta.attr.5.stream._STATISTICS_WRITING_DATE_UTC-eng.markup">2022-10-15 07:44:57</property>
  <property name="meta.attr.5.stream._STATISTICS_TAGS-eng.markup">BPS DURATION NUMBER_OF_FRAMES NUMBER_OF_BYTES</property>
  <property name="meta.attr.title.markup">Monster : Chapter 05 : The Girl From Heidelberg</property>
  <property name="meta.attr.encoder.markup">libebml v1.4.1 + libmatroska v1.6.2</property>
  <property name="meta.attr.creation_time.markup">2022-10-15T07:44:57.000000Z</property>
  <property name="seekable">1</property>
  <property name="meta.media.sample_aspect_num">1</property>
  <property name="meta.media.sample_aspect_den">1</property>
  <property name="format">3</property>
  <property name="audio_index">1</property>
  <property name="video_index">0</property>
  <property name="warp_speed">1.5</property>
  <property name="warp_resource">/mnt/data0/Monster/Monster-Editing/Orig/Monster - Chapter 05 - The Girl From Heidelberg.mkv</property>
  <property name="mlt_service">timewarp</property>
  <property name="set.test_audio">1</property>
  <property name="set.test_image">0</property>
  <property name="kdenlive:id">2</property>
  <property name="warp_pitch">0</property>
  <property name="meta.media.frame_rate_num">24000</property>
  <property name="meta.media.frame_rate_den">1001</property>
  <property name="meta.media.colorspace">709</property>
  <property name="meta.media.color_trc">1</property>
  <property name="meta.media.has_b_frames">2</property>
  <property name="meta.media.width">1440</property>
  <property name="meta.media.height">1080</property>
  <property name="meta.media.color_range">mpeg</property>
  <property name="meta.media.top_field_first">0</property>
  <property name="meta.media.progressive">1</property>
  <property name="kdenlive:control_uuid">{5ce384bd-b6ae-494b-bd4a-b36d57a8c1c7}</property>
 </producer>
 <producer id="producer32" in="00:00:00.000" out="00:07:58.517">
  <property name="length">11473</property>
  <property name="eof">pause</property>
  <property name="resource">3:/mnt/data0/Monster/Monster-Editing/Orig/Monster - Chapter 05 - The Girl From Heidelberg.mkv</property>
  <property name="aspect_ratio">1</property>
  <property name="meta.media.nb_streams">31</property>
  <property name="meta.media.0.stream.type">video</property>
  <property name="meta.media.0.stream.frame_rate">23.976</property>
  <property name="meta.media.0.stream.sample_aspect_ratio">1</property>
  <property name="meta.media.0.codec.width">1440</property>
  <property name="meta.media.0.codec.height">1080</property>
  <property name="meta.media.0.codec.rotate">0</property>
  <property name="meta.media.0.codec.pix_fmt">yuv420p10le</property>
  <property name="meta.media.0.codec.sample_aspect_ratio">1</property>
  <property name="meta.media.0.codec.colorspace">709</property>
  <property name="meta.media.0.codec.color_trc">1</property>
  <property name="meta.media.0.codec.name">hevc</property>
  <property name="meta.media.0.codec.long_name">HEVC (High Efficiency Video Coding)</property>
  <property name="meta.media.0.codec.bit_rate">0</property>
  <property name="meta.attr.0.stream.BPS-eng.markup">2146153</property>
  <property name="meta.attr.0.stream.DURATION-eng.markup">00:23:55.518000000</property>
  <property name="meta.attr.0.stream.NUMBER_OF_FRAMES-eng.markup">34418</property>
  <property name="meta.attr.0.stream.NUMBER_OF_BYTES-eng.markup">385105255</property>
  <property name="meta.attr.0.stream._STATISTICS_WRITING_APP-eng.markup">mkvmerge v52.0.0 ('Secret For The Mad') 64-bit</property>
  <property name="meta.attr.0.stream._STATISTICS_WRITING_DATE_UTC-eng.markup">2022-10-15 07:44:57</property>
  <property name="meta.attr.0.stream._STATISTICS_TAGS-eng.markup">BPS DURATION NUMBER_OF_FRAMES NUMBER_OF_BYTES</property>
  <property name="meta.media.1.stream.type">audio</property>
  <property name="meta.media.1.codec.sample_fmt">fltp</property>
  <property name="meta.media.1.codec.sample_rate">48000</property>
  <property name="meta.media.1.codec.channels">2</property>
  <property name="meta.media.1.codec.layout">stereo</property>
  <property name="meta.media.1.codec.name">ac3</property>
  <property name="meta.media.1.codec.long_name">ATSC A/52A (AC-3)</property>
  <property name="meta.media.1.codec.bit_rate">448000</property>
  <property name="meta.attr.1.stream.language.markup">jpn</property>
  <property name="meta.attr.1.stream.title.markup">Japanese DVD AC-3 DD_2.0</property>
  <property name="meta.attr.1.stream.BPS-eng.markup">448000</property>
  <property name="meta.attr.1.stream.DURATION-eng.markup">00:23:55.552000000</property>
  <property name="meta.attr.1.stream.NUMBER_OF_FRAMES-eng.markup">44861</property>
  <property name="meta.attr.1.stream.NUMBER_OF_BYTES-eng.markup">80390912</property>
  <property name="meta.attr.1.stream._STATISTICS_WRITING_APP-eng.markup">mkvmerge v52.0.0 ('Secret For The Mad') 64-bit</property>
  <property name="meta.attr.1.stream._STATISTICS_WRITING_DATE_UTC-eng.markup">2022-10-15 07:44:57</property>
  <property name="meta.attr.1.stream._STATISTICS_TAGS-eng.markup">BPS DURATION NUMBER_OF_FRAMES NUMBER_OF_BYTES</property>
  <property name="meta.media.2.stream.type">audio</property>
  <property name="meta.media.2.codec.sample_fmt">fltp</property>
  <property name="meta.media.2.codec.sample_rate">48000</property>
  <property name="meta.media.2.codec.channels">2</property>
  <property name="meta.media.2.codec.layout">stereo</property>
  <property name="meta.media.2.codec.name">aac</property>
  <property name="meta.media.2.codec.long_name">AAC (Advanced Audio Coding)</property>
  <property name="meta.media.2.codec.bit_rate">0</property>
  <property name="meta.attr.2.stream.language.markup">eng</property>
  <property name="meta.attr.2.stream.title.markup">English AAC DD_2.0</property>
  <property name="meta.attr.2.stream.BPS-eng.markup">152336</property>
  <property name="meta.attr.2.stream.DURATION-eng.markup">00:23:55.286000000</property>
  <property name="meta.attr.2.stream.NUMBER_OF_FRAMES-eng.markup">67279</property>
  <property name="meta.attr.2.stream.NUMBER_OF_BYTES-eng.markup">27330812</property>
  <property name="meta.attr.2.stream._STATISTICS_WRITING_APP-eng.markup">mkvmerge v52.0.0 ('Secret For The Mad') 64-bit</property>
  <property name="meta.attr.2.stream._STATISTICS_WRITING_DATE_UTC-eng.markup">2022-10-15 07:44:57</property>
  <property name="meta.attr.2.stream._STATISTICS_TAGS-eng.markup">BPS DURATION NUMBER_OF_FRAMES NUMBER_OF_BYTES</property>
  <property name="meta.media.3.codec.name">ssa</property>
  <property name="meta.media.3.codec.long_name">ASS (Advanced SubStation Alpha) subtitle</property>
  <property name="meta.media.3.codec.bit_rate">0</property>
  <property name="meta.attr.3.stream.language.markup">eng</property>
  <property name="meta.attr.3.stream.title.markup">English (Full) ASS</property>
  <property name="meta.attr.3.stream.BPS-eng.markup">98</property>
  <property name="meta.attr.3.stream.DURATION-eng.markup">00:23:43.900000000</property>
  <property name="meta.attr.3.stream.NUMBER_OF_FRAMES-eng.markup">303</property>
  <property name="meta.attr.3.stream.NUMBER_OF_BYTES-eng.markup">17571</property>
  <property name="meta.attr.3.stream._STATISTICS_WRITING_APP-eng.markup">mkvmerge v52.0.0 ('Secret For The Mad') 64-bit</property>
  <property name="meta.attr.3.stream._STATISTICS_WRITING_DATE_UTC-eng.markup">2022-10-15 07:44:57</property>
  <property name="meta.attr.3.stream._STATISTICS_TAGS-eng.markup">BPS DURATION NUMBER_OF_FRAMES NUMBER_OF_BYTES</property>
  <property name="meta.media.4.codec.name">ssa</property>
  <property name="meta.media.4.codec.long_name">ASS (Advanced SubStation Alpha) subtitle</property>
  <property name="meta.media.4.codec.bit_rate">0</property>
  <property name="meta.attr.4.stream.language.markup">eng</property>
  <property name="meta.attr.4.stream.title.markup">English (Titles &amp; Signs) ASS</property>
  <property name="meta.attr.4.stream.BPS-eng.markup">1</property>
  <property name="meta.attr.4.stream.DURATION-eng.markup">00:20:32.900000000</property>
  <property name="meta.attr.4.stream.NUMBER_OF_FRAMES-eng.markup">5</property>
  <property name="meta.attr.4.stream.NUMBER_OF_BYTES-eng.markup">289</property>
  <property name="meta.attr.4.stream._STATISTICS_WRITING_APP-eng.markup">mkvmerge v52.0.0 ('Secret For The Mad') 64-bit</property>
  <property name="meta.attr.4.stream._STATISTICS_WRITING_DATE_UTC-eng.markup">2022-10-15 07:44:57</property>
  <property name="meta.attr.4.stream._STATISTICS_TAGS-eng.markup">BPS DURATION NUMBER_OF_FRAMES NUMBER_OF_BYTES</property>
  <property name="meta.media.5.codec.name">ssa</property>
  <property name="meta.media.5.codec.long_name">ASS (Advanced SubStation Alpha) subtitle</property>
  <property name="meta.media.5.codec.bit_rate">0</property>
  <property name="meta.attr.5.stream.language.markup">ara</property>
  <property name="meta.attr.5.stream.title.markup">Arabic</property>
  <property name="meta.attr.5.stream.BPS-eng.markup">127</property>
  <property name="meta.attr.5.stream.DURATION-eng.markup">00:22:16.870000000</property>
  <property name="meta.attr.5.stream.NUMBER_OF_FRAMES-eng.markup">338</property>
  <property name="meta.attr.5.stream.NUMBER_OF_BYTES-eng.markup">21336</property>
  <property name="meta.attr.5.stream._STATISTICS_WRITING_APP-eng.markup">mkvmerge v52.0.0 ('Secret For The Mad') 64-bit</property>
  <property name="meta.attr.5.stream._STATISTICS_WRITING_DATE_UTC-eng.markup">2022-10-15 07:44:57</property>
  <property name="meta.attr.5.stream._STATISTICS_TAGS-eng.markup">BPS DURATION NUMBER_OF_FRAMES NUMBER_OF_BYTES</property>
  <property name="meta.attr.title.markup">Monster : Chapter 05 : The Girl From Heidelberg</property>
  <property name="meta.attr.encoder.markup">libebml v1.4.1 + libmatroska v1.6.2</property>
  <property name="meta.attr.creation_time.markup">2022-10-15T07:44:57.000000Z</property>
  <property name="seekable">1</property>
  <property name="meta.media.sample_aspect_num">1</property>
  <property name="meta.media.sample_aspect_den">1</property>
  <property name="format">3</property>
  <property name="audio_index">1</property>
  <property name="video_index">0</property>
  <property name="warp_speed">3</property>
  <property name="warp_resource">/mnt/data0/Monster/Monster-Editing/Orig/Monster - Chapter 05 - The Girl From Heidelberg.mkv</property>
  <property name="mlt_service">timewarp</property>
  <property name="set.test_audio">1</property>
  <property name="set.test_image">0</property>
  <property name="kdenlive:id">2</property>
  <property name="warp_pitch">0</property>
  <property name="meta.media.frame_rate_num">24000</property>
  <property name="meta.media.frame_rate_den">1001</property>
  <property name="meta.media.colorspace">709</property>
  <property name="meta.media.color_trc">1</property>
  <property name="meta.media.has_b_frames">2</property>
  <property name="meta.media.width">1440</property>
  <property name="meta.media.height">1080</property>
  <property name="meta.media.color_range">mpeg</property>
  <property name="meta.media.top_field_first">0</property>
  <property name="meta.media.progressive">1</property>
  <property name="kdenlive:control_uuid">{5ce384bd-b6ae-494b-bd4a-b36d57a8c1c7}</property>
 </producer>
 <producer id="producer33" in="00:00:00.000" out="00:07:58.517">
  <property name="length">11473</property>
  <property name="eof">pause</property>
  <property name="resource">-3:/mnt/data0/Monster/Monster-Editing/Orig/Monster - Chapter 05 - The Girl From Heidelberg.mkv</property>
  <property name="aspect_ratio">1</property>
  <property name="meta.media.nb_streams">31</property>
  <property name="meta.media.0.stream.type">video</property>
  <property name="meta.media.0.stream.frame_rate">23.976</property>
  <property name="meta.media.0.stream.sample_aspect_ratio">1</property>
  <property name="meta.media.0.codec.width">1440</property>
  <property name="meta.media.0.codec.height">1080</property>
  <property name="meta.media.0.codec.rotate">0</property>
  <property name="meta.media.0.codec.pix_fmt">yuv420p10le</property>
  <property name="meta.media.0.codec.sample_aspect_ratio">1</property>
  <property name="meta.media.0.codec.colorspace">709</property>
  <property name="meta.media.0.codec.color_trc">1</property>
  <property name="meta.media.0.codec.name">hevc</property>
  <property name="meta.media.0.codec.long_name">HEVC (High Efficiency Video Coding)</property>
  <property name="meta.media.0.codec.bit_rate">0</property>
  <property name="meta.attr.0.stream.BPS-eng.markup">2146153</property>
  <property name="meta.attr.0.stream.DURATION-eng.markup">00:23:55.518000000</property>
  <property name="meta.attr.0.stream.NUMBER_OF_FRAMES-eng.markup">34418</property>
  <property name="meta.attr.0.stream.NUMBER_OF_BYTES-eng.markup">385105255</property>
  <property name="meta.attr.0.stream._STATISTICS_WRITING_APP-eng.markup">mkvmerge v52.0.0 ('Secret For The Mad') 64-bit</property>
  <property name="meta.attr.0.stream._STATISTICS_WRITING_DATE_UTC-eng.markup">2022-10-15 07:44:57</property>
  <property name="meta.attr.0.stream._STATISTICS_TAGS-eng.markup">BPS DURATION NUMBER_OF_FRAMES NUMBER_OF_BYTES</property>
  <property name="meta.media.1.stream.type">audio</property>
  <property name="meta.media.1.codec.sample_fmt">fltp</property>
  <property name="meta.media.1.codec.sample_rate">48000</property>
  <property name="meta.media.1.codec.channels">2</property>
  <property name="meta.media.1.codec.layout">stereo</property>
  <property name="meta.media.1.codec.name">ac3</property>
  <property name="meta.media.1.codec.long_name">ATSC A/52A (AC-3)</property>
  <property name="meta.media.1.codec.bit_rate">448000</property>
  <property name="meta.attr.1.stream.language.markup">jpn</property>
  <property name="meta.attr.1.stream.title.markup">Japanese DVD AC-3 DD_2.0</property>
  <property name="meta.attr.1.stream.BPS-eng.markup">448000</property>
  <property name="meta.attr.1.stream.DURATION-eng.markup">00:23:55.552000000</property>
  <property name="meta.attr.1.stream.NUMBER_OF_FRAMES-eng.markup">44861</property>
  <property name="meta.attr.1.stream.NUMBER_OF_BYTES-eng.markup">80390912</property>
  <property name="meta.attr.1.stream._STATISTICS_WRITING_APP-eng.markup">mkvmerge v52.0.0 ('Secret For The Mad') 64-bit</property>
  <property name="meta.attr.1.stream._STATISTICS_WRITING_DATE_UTC-eng.markup">2022-10-15 07:44:57</property>
  <property name="meta.attr.1.stream._STATISTICS_TAGS-eng.markup">BPS DURATION NUMBER_OF_FRAMES NUMBER_OF_BYTES</property>
  <property name="meta.media.2.stream.type">audio</property>
  <property name="meta.media.2.codec.sample_fmt">fltp</property>
  <property name="meta.media.2.codec.sample_rate">48000</property>
  <property name="meta.media.2.codec.channels">2</property>
  <property name="meta.media.2.codec.layout">stereo</property>
  <property name="meta.media.2.codec.name">aac</property>
  <property name="meta.media.2.codec.long_name">AAC (Advanced Audio Coding)</property>
  <property name="meta.media.2.codec.bit_rate">0</property>
  <property name="meta.attr.2.stream.language.markup">eng</property>
  <property name="meta.attr.2.stream.title.markup">English AAC DD_2.0</property>
  <property name="meta.attr.2.stream.BPS-eng.markup">152336</property>
  <property name="meta.attr.2.stream.DURATION-eng.markup">00:23:55.286000000</property>
  <property name="meta.attr.2.stream.NUMBER_OF_FRAMES-eng.markup">67279</property>
  <property name="meta.attr.2.stream.NUMBER_OF_BYTES-eng.markup">27330812</property>
  <property name="meta.attr.2.stream._STATISTICS_WRITING_APP-eng.markup">mkvmerge v52.0.0 ('Secret For The Mad') 64-bit</property>
  <property name="meta.attr.2.stream._STATISTICS_WRITING_DATE_UTC-eng.markup">2022-10-15 07:44:57</property>
  <property name="meta.attr.2.stream._STATISTICS_TAGS-eng.markup">BPS DURATION NUMBER_OF_FRAMES NUMBER_OF_BYTES</property>
  <property name="meta.media.3.codec.name">ssa</property>
  <property name="meta.media.3.codec.long_name">ASS (Advanced SubStation Alpha) subtitle</property>
  <property name="meta.media.3.codec.bit_rate">0</property>
  <property name="meta.attr.3.stream.language.markup">eng</property>
  <property name="meta.attr.3.stream.title.markup">English (Full) ASS</property>
  <property name="meta.attr.3.stream.BPS-eng.markup">98</property>
  <property name="meta.attr.3.stream.DURATION-eng.markup">00:23:43.900000000</property>
  <property name="meta.attr.3.stream.NUMBER_OF_FRAMES-eng.markup">303</property>
  <property name="meta.attr.3.stream.NUMBER_OF_BYTES-eng.markup">17571</property>
  <property name="meta.attr.3.stream._STATISTICS_WRITING_APP-eng.markup">mkvmerge v52.0.0 ('Secret For The Mad') 64-bit</property>
  <property name="meta.attr.3.stream._STATISTICS_WRITING_DATE_UTC-eng.markup">2022-10-15 07:44:57</property>
  <property name="meta.attr.3.stream._STATISTICS_TAGS-eng.markup">BPS DURATION NUMBER_OF_FRAMES NUMBER_OF_BYTES</property>
  <property name="meta.media.4.codec.name">ssa</property>
  <property name="meta.media.4.codec.long_name">ASS (Advanced SubStation Alpha) subtitle</property>
  <property name="meta.media.4.codec.bit_rate">0</property>
  <property name="meta.attr.4.stream.language.markup">eng</property>
  <property name="meta.attr.4.stream.title.markup">English (Titles &amp; Signs) ASS</property>
  <property name="meta.attr.4.stream.BPS-eng.markup">1</property>
  <property name="meta.attr.4.stream.DURATION-eng.markup">00:20:32.900000000</property>
  <property name="meta.attr.4.stream.NUMBER_OF_FRAMES-eng.markup">5</property>
  <property name="meta.attr.4.stream.NUMBER_OF_BYTES-eng.markup">289</property>
  <property name="meta.attr.4.stream._STATISTICS_WRITING_APP-eng.markup">mkvmerge v52.0.0 ('Secret For The Mad') 64-bit</property>
  <property name="meta.attr.4.stream._STATISTICS_WRITING_DATE_UTC-eng.markup">2022-10-15 07:44:57</property>
  <property name="meta.attr.4.stream._STATISTICS_TAGS-eng.markup">BPS DURATION NUMBER_OF_FRAMES NUMBER_OF_BYTES</property>
  <property name="meta.media.5.codec.name">ssa</property>
  <property name="meta.media.5.codec.long_name">ASS (Advanced SubStation Alpha) subtitle</property>
  <property name="meta.media.5.codec.bit_rate">0</property>
  <property name="meta.attr.5.stream.language.markup">ara</property>
  <property name="meta.attr.5.stream.title.markup">Arabic</property>
  <property name="meta.attr.5.stream.BPS-eng.markup">127</property>
  <property name="meta.attr.5.stream.DURATION-eng.markup">00:22:16.870000000</property>
  <property name="meta.attr.5.stream.NUMBER_OF_FRAMES-eng.markup">338</property>
  <property name="meta.attr.5.stream.NUMBER_OF_BYTES-eng.markup">21336</property>
  <property name="meta.attr.5.stream._STATISTICS_WRITING_APP-eng.markup">mkvmerge v52.0.0 ('Secret For The Mad') 64-bit</property>
  <property name="meta.attr.5.stream._STATISTICS_WRITING_DATE_UTC-eng.markup">2022-10-15 07:44:57</property>
  <property name="meta.attr.5.stream._STATISTICS_TAGS-eng.markup">BPS DURATION NUMBER_OF_FRAMES NUMBER_OF_BYTES</property>
  <property name="meta.attr.title.markup">Monster : Chapter 05 : The Girl From Heidelberg</property>
  <property name="meta.attr.encoder.markup">libebml v1.4.1 + libmatroska v1.6.2</property>
  <property name="meta.attr.creation_time.markup">2022-10-15T07:44:57.000000Z</property>
  <property name="seekable">1</property>
  <property name="meta.media.sample_aspect_num">1</property>
  <property name="meta.media.sample_aspect_den">1</property>
  <property name="format">3</property>
  <property name="audio_index">1</property>
  <property name="video_index">0</property>
  <property name="warp_speed">-3</property>
  <property name="warp_resource">/mnt/data0/Monster/Monster-Editing/Orig/Monster - Chapter 05 - The Girl From Heidelberg.mkv</property>
  <property name="mlt_service">timewarp</property>
  <property name="set.test_audio">1</property>
  <property name="set.test_image">0</property>
  <property name="kdenlive:id">2</property>
  <property name="warp_pitch">0</property>
  <property name="meta.media.frame_rate_num">24000</property>
  <property name="meta.media.frame_rate_den">1001</property>
  <property name="meta.media.colorspace">709</property>
  <property name="meta.media.color_trc">1</property>
  <property name="meta.media.has_b_frames">2</property>
  <property name="meta.media.width">1440</property>
  <property name="meta.media.height">1080</property>
  <property name="meta.media.color_range">mpeg</property>
  <property name="meta.media.top_field_first">0</property>
  <property name="meta.media.progressive">1</property>
  <property name="kdenlive:control_uuid">{5ce384bd-b6ae-494b-bd4a-b36d57a8c1c7}</property>
 </producer>
 <producer id="producer34" in="00:00:00.000" out="00:07:58.517">
  <property name="length">11473</property>
  <property name="eof">pause</property>
  <property name="resource">3:/mnt/data0/Monster/Monster-Editing/Orig/Monster - Chapter 05 - The Girl From Heidelberg.mkv</property>
  <property name="aspect_ratio">1</property>
  <property name="meta.media.nb_streams">31</property>
  <property name="meta.media.0.stream.type">video</property>
  <property name="meta.media.0.stream.frame_rate">23.976</property>
  <property name="meta.media.0.stream.sample_aspect_ratio">1</property>
  <property name="meta.media.0.codec.width">1440</property>
  <property name="meta.media.0.codec.height">1080</property>
  <property name="meta.media.0.codec.rotate">0</property>
  <property name="meta.media.0.codec.pix_fmt">yuv420p10le</property>
  <property name="meta.media.0.codec.sample_aspect_ratio">1</property>
  <property name="meta.media.0.codec.colorspace">709</property>
  <property name="meta.media.0.codec.color_trc">1</property>
  <property name="meta.media.0.codec.name">hevc</property>
  <property name="meta.media.0.codec.long_name">HEVC (High Efficiency Video Coding)</property>
  <property name="meta.media.0.codec.bit_rate">0</property>
  <property name="meta.attr.0.stream.BPS-eng.markup">2146153</property>
  <property name="meta.attr.0.stream.DURATION-eng.markup">00:23:55.518000000</property>
  <property name="meta.attr.0.stream.NUMBER_OF_FRAMES-eng.markup">34418</property>
  <property name="meta.attr.0.stream.NUMBER_OF_BYTES-eng.markup">385105255</property>
  <property name="meta.attr.0.stream._STATISTICS_WRITING_APP-eng.markup">mkvmerge v52.0.0 ('Secret For The Mad') 64-bit</property>
  <property name="meta.attr.0.stream._STATISTICS_WRITING_DATE_UTC-eng.markup">2022-10-15 07:44:57</property>
  <property name="meta.attr.0.stream._STATISTICS_TAGS-eng.markup">BPS DURATION NUMBER_OF_FRAMES NUMBER_OF_BYTES</property>
  <property name="meta.media.1.stream.type">audio</property>
  <property name="meta.media.1.codec.sample_fmt">fltp</property>
  <property name="meta.media.1.codec.sample_rate">48000</property>
  <property name="meta.media.1.codec.channels">2</property>
  <property name="meta.media.1.codec.layout">stereo</property>
  <property name="meta.media.1.codec.name">ac3</property>
  <property name="meta.media.1.codec.long_name">ATSC A/52A (AC-3)</property>
  <property name="meta.media.1.codec.bit_rate">448000</property>
  <property name="meta.attr.1.stream.language.markup">jpn</property>
  <property name="meta.attr.1.stream.title.markup">Japanese DVD AC-3 DD_2.0</property>
  <property name="meta.attr.1.stream.BPS-eng.markup">448000</property>
  <property name="meta.attr.1.stream.DURATION-eng.markup">00:23:55.552000000</property>
  <property name="meta.attr.1.stream.NUMBER_OF_FRAMES-eng.markup">44861</property>
  <property name="meta.attr.1.stream.NUMBER_OF_BYTES-eng.markup">80390912</property>
  <property name="meta.attr.1.stream._STATISTICS_WRITING_APP-eng.markup">mkvmerge v52.0.0 ('Secret For The Mad') 64-bit</property>
  <property name="meta.attr.1.stream._STATISTICS_WRITING_DATE_UTC-eng.markup">2022-10-15 07:44:57</property>
  <property name="meta.attr.1.stream._STATISTICS_TAGS-eng.markup">BPS DURATION NUMBER_OF_FRAMES NUMBER_OF_BYTES</property>
  <property name="meta.media.2.stream.type">audio</property>
  <property name="meta.media.2.codec.sample_fmt">fltp</property>
  <property name="meta.media.2.codec.sample_rate">48000</property>
  <property name="meta.media.2.codec.channels">2</property>
  <property name="meta.media.2.codec.layout">stereo</property>
  <property name="meta.media.2.codec.name">aac</property>
  <property name="meta.media.2.codec.long_name">AAC (Advanced Audio Coding)</property>
  <property name="meta.media.2.codec.bit_rate">0</property>
  <property name="meta.attr.2.stream.language.markup">eng</property>
  <property name="meta.attr.2.stream.title.markup">English AAC DD_2.0</property>
  <property name="meta.attr.2.stream.BPS-eng.markup">152336</property>
  <property name="meta.attr.2.stream.DURATION-eng.markup">00:23:55.286000000</property>
  <property name="meta.attr.2.stream.NUMBER_OF_FRAMES-eng.markup">67279</property>
  <property name="meta.attr.2.stream.NUMBER_OF_BYTES-eng.markup">27330812</property>
  <property name="meta.attr.2.stream._STATISTICS_WRITING_APP-eng.markup">mkvmerge v52.0.0 ('Secret For The Mad') 64-bit</property>
  <property name="meta.attr.2.stream._STATISTICS_WRITING_DATE_UTC-eng.markup">2022-10-15 07:44:57</property>
  <property name="meta.attr.2.stream._STATISTICS_TAGS-eng.markup">BPS DURATION NUMBER_OF_FRAMES NUMBER_OF_BYTES</property>
  <property name="meta.media.3.codec.name">ssa</property>
  <property name="meta.media.3.codec.long_name">ASS (Advanced SubStation Alpha) subtitle</property>
  <property name="meta.media.3.codec.bit_rate">0</property>
  <property name="meta.attr.3.stream.language.markup">eng</property>
  <property name="meta.attr.3.stream.title.markup">English (Full) ASS</property>
  <property name="meta.attr.3.stream.BPS-eng.markup">98</property>
  <property name="meta.attr.3.stream.DURATION-eng.markup">00:23:43.900000000</property>
  <property name="meta.attr.3.stream.NUMBER_OF_FRAMES-eng.markup">303</property>
  <property name="meta.attr.3.stream.NUMBER_OF_BYTES-eng.markup">17571</property>
  <property name="meta.attr.3.stream._STATISTICS_WRITING_APP-eng.markup">mkvmerge v52.0.0 ('Secret For The Mad') 64-bit</property>
  <property name="meta.attr.3.stream._STATISTICS_WRITING_DATE_UTC-eng.markup">2022-10-15 07:44:57</property>
  <property name="meta.attr.3.stream._STATISTICS_TAGS-eng.markup">BPS DURATION NUMBER_OF_FRAMES NUMBER_OF_BYTES</property>
  <property name="meta.media.4.codec.name">ssa</property>
  <property name="meta.media.4.codec.long_name">ASS (Advanced SubStation Alpha) subtitle</property>
  <property name="meta.media.4.codec.bit_rate">0</property>
  <property name="meta.attr.4.stream.language.markup">eng</property>
  <property name="meta.attr.4.stream.title.markup">English (Titles &amp; Signs) ASS</property>
  <property name="meta.attr.4.stream.BPS-eng.markup">1</property>
  <property name="meta.attr.4.stream.DURATION-eng.markup">00:20:32.900000000</property>
  <property name="meta.attr.4.stream.NUMBER_OF_FRAMES-eng.markup">5</property>
  <property name="meta.attr.4.stream.NUMBER_OF_BYTES-eng.markup">289</property>
  <property name="meta.attr.4.stream._STATISTICS_WRITING_APP-eng.markup">mkvmerge v52.0.0 ('Secret For The Mad') 64-bit</property>
  <property name="meta.attr.4.stream._STATISTICS_WRITING_DATE_UTC-eng.markup">2022-10-15 07:44:57</property>
  <property name="meta.attr.4.stream._STATISTICS_TAGS-eng.markup">BPS DURATION NUMBER_OF_FRAMES NUMBER_OF_BYTES</property>
  <property name="meta.media.5.codec.name">ssa</property>
  <property name="meta.media.5.codec.long_name">ASS (Advanced SubStation Alpha) subtitle</property>
  <property name="meta.media.5.codec.bit_rate">0</property>
  <property name="meta.attr.5.stream.language.markup">ara</property>
  <property name="meta.attr.5.stream.title.markup">Arabic</property>
  <property name="meta.attr.5.stream.BPS-eng.markup">127</property>
  <property name="meta.attr.5.stream.DURATION-eng.markup">00:22:16.870000000</property>
  <property name="meta.attr.5.stream.NUMBER_OF_FRAMES-eng.markup">338</property>
  <property name="meta.attr.5.stream.NUMBER_OF_BYTES-eng.markup">21336</property>
  <property name="meta.attr.5.stream._STATISTICS_WRITING_APP-eng.markup">mkvmerge v52.0.0 ('Secret For The Mad') 64-bit</property>
  <property name="meta.attr.5.stream._STATISTICS_WRITING_DATE_UTC-eng.markup">2022-10-15 07:44:57</property>
  <property name="meta.attr.5.stream._STATISTICS_TAGS-eng.markup">BPS DURATION NUMBER_OF_FRAMES NUMBER_OF_BYTES</property>
  <property name="meta.attr.title.markup">Monster : Chapter 05 : The Girl From Heidelberg</property>
  <property name="meta.attr.encoder.markup">libebml v1.4.1 + libmatroska v1.6.2</property>
  <property name="meta.attr.creation_time.markup">2022-10-15T07:44:57.000000Z</property>
  <property name="seekable">1</property>
  <property name="meta.media.sample_aspect_num">1</property>
  <property name="meta.media.sample_aspect_den">1</property>
  <property name="format">3</property>
  <property name="audio_index">1</property>
  <property name="video_index">0</property>
  <property name="warp_speed">3</property>
  <property name="warp_resource">/mnt/data0/Monster/Monster-Editing/Orig/Monster - Chapter 05 - The Girl From Heidelberg.mkv</property>
  <property name="mlt_service">timewarp</property>
  <property name="set.test_audio">1</property>
  <property name="set.test_image">0</property>
  <property name="kdenlive:id">2</property>
  <property name="warp_pitch">0</property>
  <property name="meta.media.frame_rate_num">24000</property>
  <property name="meta.media.frame_rate_den">1001</property>
  <property name="meta.media.colorspace">709</property>
  <property name="meta.media.color_trc">1</property>
  <property name="meta.media.has_b_frames">2</property>
  <property name="meta.media.width">1440</property>
  <property name="meta.media.height">1080</property>
  <property name="meta.media.color_range">mpeg</property>
  <property name="meta.media.top_field_first">0</property>
  <property name="meta.media.progressive">1</property>
  <property name="kdenlive:control_uuid">{5ce384bd-b6ae-494b-bd4a-b36d57a8c1c7}</property>
 </producer>
 <producer id="producer35" in="00:00:00.000" out="00:07:58.517">
  <property name="length">11473</property>
  <property name="eof">pause</property>
  <property name="resource">3:/mnt/data0/Monster/Monster-Editing/Orig/Monster - Chapter 05 - The Girl From Heidelberg.mkv</property>
  <property name="aspect_ratio">1</property>
  <property name="meta.media.nb_streams">31</property>
  <property name="meta.media.0.stream.type">video</property>
  <property name="meta.media.0.stream.frame_rate">23.976</property>
  <property name="meta.media.0.stream.sample_aspect_ratio">1</property>
  <property name="meta.media.0.codec.width">1440</property>
  <property name="meta.media.0.codec.height">1080</property>
  <property name="meta.media.0.codec.rotate">0</property>
  <property name="meta.media.0.codec.pix_fmt">yuv420p10le</property>
  <property name="meta.media.0.codec.sample_aspect_ratio">1</property>
  <property name="meta.media.0.codec.colorspace">709</property>
  <property name="meta.media.0.codec.color_trc">1</property>
  <property name="meta.media.0.codec.name">hevc</property>
  <property name="meta.media.0.codec.long_name">HEVC (High Efficiency Video Coding)</property>
  <property name="meta.media.0.codec.bit_rate">0</property>
  <property name="meta.attr.0.stream.BPS-eng.markup">2146153</property>
  <property name="meta.attr.0.stream.DURATION-eng.markup">00:23:55.518000000</property>
  <property name="meta.attr.0.stream.NUMBER_OF_FRAMES-eng.markup">34418</property>
  <property name="meta.attr.0.stream.NUMBER_OF_BYTES-eng.markup">385105255</property>
  <property name="meta.attr.0.stream._STATISTICS_WRITING_APP-eng.markup">mkvmerge v52.0.0 ('Secret For The Mad') 64-bit</property>
  <property name="meta.attr.0.stream._STATISTICS_WRITING_DATE_UTC-eng.markup">2022-10-15 07:44:57</property>
  <property name="meta.attr.0.stream._STATISTICS_TAGS-eng.markup">BPS DURATION NUMBER_OF_FRAMES NUMBER_OF_BYTES</property>
  <property name="meta.media.1.stream.type">audio</property>
  <property name="meta.media.1.codec.sample_fmt">fltp</property>
  <property name="meta.media.1.codec.sample_rate">48000</property>
  <property name="meta.media.1.codec.channels">2</property>
  <property name="meta.media.1.codec.layout">stereo</property>
  <property name="meta.media.1.codec.name">ac3</property>
  <property name="meta.media.1.codec.long_name">ATSC A/52A (AC-3)</property>
  <property name="meta.media.1.codec.bit_rate">448000</property>
  <property name="meta.attr.1.stream.language.markup">jpn</property>
  <property name="meta.attr.1.stream.title.markup">Japanese DVD AC-3 DD_2.0</property>
  <property name="meta.attr.1.stream.BPS-eng.markup">448000</property>
  <property name="meta.attr.1.stream.DURATION-eng.markup">00:23:55.552000000</property>
  <property name="meta.attr.1.stream.NUMBER_OF_FRAMES-eng.markup">44861</property>
  <property name="meta.attr.1.stream.NUMBER_OF_BYTES-eng.markup">80390912</property>
  <property name="meta.attr.1.stream._STATISTICS_WRITING_APP-eng.markup">mkvmerge v52.0.0 ('Secret For The Mad') 64-bit</property>
  <property name="meta.attr.1.stream._STATISTICS_WRITING_DATE_UTC-eng.markup">2022-10-15 07:44:57</property>
  <property name="meta.attr.1.stream._STATISTICS_TAGS-eng.markup">BPS DURATION NUMBER_OF_FRAMES NUMBER_OF_BYTES</property>
  <property name="meta.media.2.stream.type">audio</property>
  <property name="meta.media.2.codec.sample_fmt">fltp</property>
  <property name="meta.media.2.codec.sample_rate">48000</property>
  <property name="meta.media.2.codec.channels">2</property>
  <property name="meta.media.2.codec.layout">stereo</property>
  <property name="meta.media.2.codec.name">aac</property>
  <property name="meta.media.2.codec.long_name">AAC (Advanced Audio Coding)</property>
  <property name="meta.media.2.codec.bit_rate">0</property>
  <property name="meta.attr.2.stream.language.markup">eng</property>
  <property name="meta.attr.2.stream.title.markup">English AAC DD_2.0</property>
  <property name="meta.attr.2.stream.BPS-eng.markup">152336</property>
  <property name="meta.attr.2.stream.DURATION-eng.markup">00:23:55.286000000</property>
  <property name="meta.attr.2.stream.NUMBER_OF_FRAMES-eng.markup">67279</property>
  <property name="meta.attr.2.stream.NUMBER_OF_BYTES-eng.markup">27330812</property>
  <property name="meta.attr.2.stream._STATISTICS_WRITING_APP-eng.markup">mkvmerge v52.0.0 ('Secret For The Mad') 64-bit</property>
  <property name="meta.attr.2.stream._STATISTICS_WRITING_DATE_UTC-eng.markup">2022-10-15 07:44:57</property>
  <property name="meta.attr.2.stream._STATISTICS_TAGS-eng.markup">BPS DURATION NUMBER_OF_FRAMES NUMBER_OF_BYTES</property>
  <property name="meta.media.3.codec.name">ssa</property>
  <property name="meta.media.3.codec.long_name">ASS (Advanced SubStation Alpha) subtitle</property>
  <property name="meta.media.3.codec.bit_rate">0</property>
  <property name="meta.attr.3.stream.language.markup">eng</property>
  <property name="meta.attr.3.stream.title.markup">English (Full) ASS</property>
  <property name="meta.attr.3.stream.BPS-eng.markup">98</property>
  <property name="meta.attr.3.stream.DURATION-eng.markup">00:23:43.900000000</property>
  <property name="meta.attr.3.stream.NUMBER_OF_FRAMES-eng.markup">303</property>
  <property name="meta.attr.3.stream.NUMBER_OF_BYTES-eng.markup">17571</property>
  <property name="meta.attr.3.stream._STATISTICS_WRITING_APP-eng.markup">mkvmerge v52.0.0 ('Secret For The Mad') 64-bit</property>
  <property name="meta.attr.3.stream._STATISTICS_WRITING_DATE_UTC-eng.markup">2022-10-15 07:44:57</property>
  <property name="meta.attr.3.stream._STATISTICS_TAGS-eng.markup">BPS DURATION NUMBER_OF_FRAMES NUMBER_OF_BYTES</property>
  <property name="meta.media.4.codec.name">ssa</property>
  <property name="meta.media.4.codec.long_name">ASS (Advanced SubStation Alpha) subtitle</property>
  <property name="meta.media.4.codec.bit_rate">0</property>
  <property name="meta.attr.4.stream.language.markup">eng</property>
  <property name="meta.attr.4.stream.title.markup">English (Titles &amp; Signs) ASS</property>
  <property name="meta.attr.4.stream.BPS-eng.markup">1</property>
  <property name="meta.attr.4.stream.DURATION-eng.markup">00:20:32.900000000</property>
  <property name="meta.attr.4.stream.NUMBER_OF_FRAMES-eng.markup">5</property>
  <property name="meta.attr.4.stream.NUMBER_OF_BYTES-eng.markup">289</property>
  <property name="meta.attr.4.stream._STATISTICS_WRITING_APP-eng.markup">mkvmerge v52.0.0 ('Secret For The Mad') 64-bit</property>
  <property name="meta.attr.4.stream._STATISTICS_WRITING_DATE_UTC-eng.markup">2022-10-15 07:44:57</property>
  <property name="meta.attr.4.stream._STATISTICS_TAGS-eng.markup">BPS DURATION NUMBER_OF_FRAMES NUMBER_OF_BYTES</property>
  <property name="meta.media.5.codec.name">ssa</property>
  <property name="meta.media.5.codec.long_name">ASS (Advanced SubStation Alpha) subtitle</property>
  <property name="meta.media.5.codec.bit_rate">0</property>
  <property name="meta.attr.5.stream.language.markup">ara</property>
  <property name="meta.attr.5.stream.title.markup">Arabic</property>
  <property name="meta.attr.5.stream.BPS-eng.markup">127</property>
  <property name="meta.attr.5.stream.DURATION-eng.markup">00:22:16.870000000</property>
  <property name="meta.attr.5.stream.NUMBER_OF_FRAMES-eng.markup">338</property>
  <property name="meta.attr.5.stream.NUMBER_OF_BYTES-eng.markup">21336</property>
  <property name="meta.attr.5.stream._STATISTICS_WRITING_APP-eng.markup">mkvmerge v52.0.0 ('Secret For The Mad') 64-bit</property>
  <property name="meta.attr.5.stream._STATISTICS_WRITING_DATE_UTC-eng.markup">2022-10-15 07:44:57</property>
  <property name="meta.attr.5.stream._STATISTICS_TAGS-eng.markup">BPS DURATION NUMBER_OF_FRAMES NUMBER_OF_BYTES</property>
  <property name="meta.attr.title.markup">Monster : Chapter 05 : The Girl From Heidelberg</property>
  <property name="meta.attr.encoder.markup">libebml v1.4.1 + libmatroska v1.6.2</property>
  <property name="meta.attr.creation_time.markup">2022-10-15T07:44:57.000000Z</property>
  <property name="seekable">1</property>
  <property name="meta.media.sample_aspect_num">1</property>
  <property name="meta.media.sample_aspect_den">1</property>
  <property name="format">3</property>
  <property name="audio_index">1</property>
  <property name="video_index">0</property>
  <property name="warp_speed">3</property>
  <property name="warp_resource">/mnt/data0/Monster/Monster-Editing/Orig/Monster - Chapter 05 - The Girl From Heidelberg.mkv</property>
  <property name="mlt_service">timewarp</property>
  <property name="set.test_audio">1</property>
  <property name="set.test_image">0</property>
  <property name="kdenlive:id">2</property>
  <property name="warp_pitch">0</property>
  <property name="meta.media.frame_rate_num">24000</property>
  <property name="meta.media.frame_rate_den">1001</property>
  <property name="meta.media.colorspace">709</property>
  <property name="meta.media.color_trc">1</property>
  <property name="meta.media.has_b_frames">2</property>
  <property name="meta.media.width">1440</property>
  <property name="meta.media.height">1080</property>
  <property name="meta.media.color_range">mpeg</property>
  <property name="meta.media.top_field_first">0</property>
  <property name="meta.media.progressive">1</property>
  <property name="kdenlive:control_uuid">{5ce384bd-b6ae-494b-bd4a-b36d57a8c1c7}</property>
 </producer>
 <chain id="producer36" out="00:23:55.472">
  <property name="length">34417</property>
  <property name="eof">pause</property>
  <property name="resource">/mnt/data0/Monster/Monster-Editing/Orig/Monster - Chapter 06 - Disappearance Report.mkv</property>
  <property name="mlt_service">avformat-novalidate</property>
  <property name="audio_index">1</property>
  <property name="video_index">0</property>
  <property name="seekable">1</property>
  <property name="aspect_ratio">1</property>
  <property name="kdenlive:clipname"/>
  <property name="kdenlive:clip_type">0</property>
  <property name="kdenlive:folderid">-1</property>
  <property name="kdenlive:id">3</property>
  <property name="kdenlive:active_streams">1;2</property>
  <property name="kdenlive:file_size">471179261</property>
  <property name="kdenlive:file_hash">1b1fd9608884f30664973003674870d7</property>
  <property name="kdenlive:audio_max1">180</property>
  <property name="kdenlive:audio_max2">203</property>
  <property name="xml">was here</property>
  <property name="meta.media.nb_streams">71</property>
  <property name="meta.media.0.stream.type">video</property>
  <property name="meta.media.0.stream.frame_rate">23.976</property>
  <property name="meta.media.0.stream.sample_aspect_ratio">1</property>
  <property name="meta.media.0.codec.width">1440</property>
  <property name="meta.media.0.codec.height">1080</property>
  <property name="meta.media.0.codec.rotate">0</property>
  <property name="meta.media.0.codec.pix_fmt">yuv420p10le</property>
  <property name="meta.media.0.codec.sample_aspect_ratio">1</property>
  <property name="meta.media.0.codec.colorspace">709</property>
  <property name="meta.media.0.codec.color_trc">1</property>
  <property name="meta.media.0.codec.name">hevc</property>
  <property name="meta.media.0.codec.long_name">HEVC (High Efficiency Video Coding)</property>
  <property name="meta.media.0.codec.bit_rate">0</property>
  <property name="meta.attr.0.stream.BPS.markup">1968506</property>
  <property name="meta.attr.0.stream.DURATION.markup">00:23:55.434000000</property>
  <property name="meta.attr.0.stream.NUMBER_OF_FRAMES.markup">34416</property>
  <property name="meta.attr.0.stream.NUMBER_OF_BYTES.markup">353207706</property>
  <property name="meta.attr.0.stream._STATISTICS_WRITING_APP.markup">mkvmerge v61.0.0 ('So') 64-bit</property>
  <property name="meta.attr.0.stream._STATISTICS_WRITING_DATE_UTC.markup">2022-10-15 07:52:21</property>
  <property name="meta.attr.0.stream._STATISTICS_TAGS.markup">BPS DURATION NUMBER_OF_FRAMES NUMBER_OF_BYTES</property>
  <property name="meta.media.1.stream.type">audio</property>
  <property name="meta.media.1.codec.sample_fmt">fltp</property>
  <property name="meta.media.1.codec.sample_rate">48000</property>
  <property name="meta.media.1.codec.channels">2</property>
  <property name="meta.media.1.codec.name">ac3</property>
  <property name="meta.media.1.codec.long_name">ATSC A/52A (AC-3)</property>
  <property name="meta.media.1.codec.bit_rate">448000</property>
  <property name="meta.attr.1.stream.language.markup">jpn</property>
  <property name="meta.attr.1.stream.title.markup">Japanese DVD AC-3 DD_2.0</property>
  <property name="meta.attr.1.stream.BPS.markup">448000</property>
  <property name="meta.attr.1.stream.DURATION.markup">00:23:55.456000000</property>
  <property name="meta.attr.1.stream.NUMBER_OF_FRAMES.markup">44858</property>
  <property name="meta.attr.1.stream.NUMBER_OF_BYTES.markup">80385536</property>
  <property name="meta.attr.1.stream._STATISTICS_WRITING_APP.markup">mkvmerge v61.0.0 ('So') 64-bit</property>
  <property name="meta.attr.1.stream._STATISTICS_WRITING_DATE_UTC.markup">2022-10-15 07:52:21</property>
  <property name="meta.attr.1.stream._STATISTICS_TAGS.markup">BPS DURATION NUMBER_OF_FRAMES NUMBER_OF_BYTES</property>
  <property name="meta.media.2.stream.type">audio</property>
  <property name="meta.media.2.codec.sample_fmt">fltp</property>
  <property name="meta.media.2.codec.sample_rate">48000</property>
  <property name="meta.media.2.codec.channels">2</property>
  <property name="meta.media.2.codec.name">aac</property>
  <property name="meta.media.2.codec.long_name">AAC (Advanced Audio Coding)</property>
  <property name="meta.media.2.codec.bit_rate">0</property>
  <property name="meta.attr.2.stream.language.markup">eng</property>
  <property name="meta.attr.2.stream.title.markup">English AAC DD_2.0</property>
  <property name="meta.attr.2.stream.BPS.markup">154970</property>
  <property name="meta.attr.2.stream.DURATION.markup">00:23:55.412000000</property>
  <property name="meta.attr.2.stream.NUMBER_OF_FRAMES.markup">67285</property>
  <property name="meta.attr.2.stream.NUMBER_OF_BYTES.markup">27805898</property>
  <property name="meta.attr.2.stream._STATISTICS_WRITING_APP.markup">mkvmerge v61.0.0 ('So') 64-bit</property>
  <property name="meta.attr.2.stream._STATISTICS_WRITING_DATE_UTC.markup">2022-10-15 07:52:21</property>
  <property name="meta.attr.2.stream._STATISTICS_TAGS.markup">BPS DURATION NUMBER_OF_FRAMES NUMBER_OF_BYTES</property>
  <property name="meta.media.3.codec.name">ssa</property>
  <property name="meta.media.3.codec.long_name">ASS (Advanced SubStation Alpha) subtitle</property>
  <property name="meta.media.3.codec.bit_rate">0</property>
  <property name="meta.attr.3.stream.language.markup">eng</property>
  <property name="meta.attr.3.stream.title.markup">English (Full) ASS</property>
  <property name="meta.attr.3.stream.BPS.markup">98</property>
  <property name="meta.attr.3.stream.DURATION.markup">00:23:51.650000000</property>
  <property name="meta.attr.3.stream.NUMBER_OF_FRAMES.markup">312</property>
  <property name="meta.attr.3.stream.NUMBER_OF_BYTES.markup">17553</property>
  <property name="meta.attr.3.stream._STATISTICS_WRITING_APP.markup">mkvmerge v61.0.0 ('So') 64-bit</property>
  <property name="meta.attr.3.stream._STATISTICS_WRITING_DATE_UTC.markup">2022-10-15 07:52:21</property>
  <property name="meta.attr.3.stream._STATISTICS_TAGS.markup">BPS DURATION NUMBER_OF_FRAMES NUMBER_OF_BYTES</property>
  <property name="meta.media.4.codec.name">ssa</property>
  <property name="meta.media.4.codec.long_name">ASS (Advanced SubStation Alpha) subtitle</property>
  <property name="meta.media.4.codec.bit_rate">0</property>
  <property name="meta.attr.4.stream.language.markup">eng</property>
  <property name="meta.attr.4.stream.title.markup">English (Titles &amp; Signs) ASS</property>
  <property name="meta.attr.4.stream.BPS.markup">0</property>
  <property name="meta.attr.4.stream.DURATION.markup">00:18:33.530000000</property>
  <property name="meta.attr.4.stream.NUMBER_OF_FRAMES.markup">2</property>
  <property name="meta.attr.4.stream.NUMBER_OF_BYTES.markup">133</property>
  <property name="meta.attr.4.stream._STATISTICS_WRITING_APP.markup">mkvmerge v61.0.0 ('So') 64-bit</property>
  <property name="meta.attr.4.stream._STATISTICS_WRITING_DATE_UTC.markup">2022-10-15 07:52:21</property>
  <property name="meta.attr.4.stream._STATISTICS_TAGS.markup">BPS DURATION NUMBER_OF_FRAMES NUMBER_OF_BYTES</property>
  <property name="meta.media.5.codec.name">ssa</property>
  <property name="meta.media.5.codec.long_name">ASS (Advanced SubStation Alpha) subtitle</property>
  <property name="meta.media.5.codec.bit_rate">0</property>
  <property name="meta.attr.5.stream.language.markup">ara</property>
  <property name="meta.attr.5.stream.title.markup">Arabic</property>
  <property name="meta.attr.5.stream.BPS.markup">123</property>
  <property name="meta.attr.5.stream.DURATION.markup">00:22:15.360000000</property>
  <property name="meta.attr.5.stream.NUMBER_OF_FRAMES.markup">337</property>
  <property name="meta.attr.5.stream.NUMBER_OF_BYTES.markup">20539</property>
  <property name="meta.attr.5.stream._STATISTICS_WRITING_APP.markup">mkvmerge v61.0.0 ('So') 64-bit</property>
  <property name="meta.attr.5.stream._STATISTICS_WRITING_DATE_UTC.markup">2022-10-15 07:52:21</property>
  <property name="meta.attr.5.stream._STATISTICS_TAGS.markup">BPS DURATION NUMBER_OF_FRAMES NUMBER_OF_BYTES</property>
  <property name="meta.attr.title.markup">Monster : Chapter 06 : Disappearance Report</property>
  <property name="meta.attr.encoder.markup">libebml v1.4.2 + libmatroska v1.6.4</property>
  <property name="meta.attr.creation_time.markup">2022-10-15T07:52:21.000000Z</property>
  <property name="meta.media.sample_aspect_num">1</property>
  <property name="meta.media.sample_aspect_den">1</property>
  <property name="meta.media.frame_rate_num">24000</property>
  <property name="meta.media.frame_rate_den">1001</property>
  <property name="meta.media.colorspace">709</property>
  <property name="meta.media.color_trc">1</property>
  <property name="meta.media.has_b_frames">2</property>
  <property name="meta.media.width">1440</property>
  <property name="meta.media.height">1080</property>
  <property name="meta.media.color_range">mpeg</property>
  <property name="meta.media.top_field_first">0</property>
  <property name="meta.media.progressive">1</property>
  <property name="set.test_audio">1</property>
  <property name="set.test_image">0</property>
  <property name="format">3</property>
  <property name="vstream">0</property>
  <property name="astream">0</property>
  <property name="kdenlive:control_uuid">{385175a1-cef7-4b87-92fc-1ba5bc0b2223}</property>
 </chain>
 <chain id="producer37" out="00:23:55.472">
  <property name="length">34417</property>
  <property name="eof">pause</property>
  <property name="resource">/mnt/data0/Monster/Monster-Editing/Orig/Monster - Chapter 07 - Mansion Of Tragedy.mkv</property>
  <property name="mlt_service">avformat-novalidate</property>
  <property name="audio_index">1</property>
  <property name="video_index">0</property>
  <property name="seekable">1</property>
  <property name="aspect_ratio">1</property>
  <property name="kdenlive:clipname"/>
  <property name="kdenlive:clip_type">0</property>
  <property name="kdenlive:folderid">-1</property>
  <property name="kdenlive:id">4</property>
  <property name="kdenlive:active_streams">1;2</property>
  <property name="kdenlive:file_size">429931651</property>
  <property name="kdenlive:file_hash">193fc345bd5971e8a2bf1cfee4681626</property>
  <property name="kdenlive:audio_max1">178</property>
  <property name="kdenlive:audio_max2">207</property>
  <property name="xml">was here</property>
  <property name="meta.media.nb_streams">23</property>
  <property name="meta.media.0.stream.type">video</property>
  <property name="meta.media.0.stream.frame_rate">23.976</property>
  <property name="meta.media.0.stream.sample_aspect_ratio">1</property>
  <property name="meta.media.0.codec.width">1440</property>
  <property name="meta.media.0.codec.height">1080</property>
  <property name="meta.media.0.codec.rotate">0</property>
  <property name="meta.media.0.codec.pix_fmt">yuv420p10le</property>
  <property name="meta.media.0.codec.sample_aspect_ratio">1</property>
  <property name="meta.media.0.codec.colorspace">709</property>
  <property name="meta.media.0.codec.color_trc">1</property>
  <property name="meta.media.0.codec.name">hevc</property>
  <property name="meta.media.0.codec.long_name">HEVC (High Efficiency Video Coding)</property>
  <property name="meta.media.0.codec.bit_rate">0</property>
  <property name="meta.attr.0.stream.BPS.markup">1767757</property>
  <property name="meta.attr.0.stream.DURATION.markup">00:23:55.434000000</property>
  <property name="meta.attr.0.stream.NUMBER_OF_FRAMES.markup">34416</property>
  <property name="meta.attr.0.stream.NUMBER_OF_BYTES.markup">317187435</property>
  <property name="meta.attr.0.stream._STATISTICS_WRITING_APP.markup">mkvmerge v61.0.0 ('So') 64-bit</property>
  <property name="meta.attr.0.stream._STATISTICS_WRITING_DATE_UTC.markup">2022-10-15 07:56:27</property>
  <property name="meta.attr.0.stream._STATISTICS_TAGS.markup">BPS DURATION NUMBER_OF_FRAMES NUMBER_OF_BYTES</property>
  <property name="meta.media.1.stream.type">audio</property>
  <property name="meta.media.1.codec.sample_fmt">fltp</property>
  <property name="meta.media.1.codec.sample_rate">48000</property>
  <property name="meta.media.1.codec.channels">2</property>
  <property name="meta.media.1.codec.name">ac3</property>
  <property name="meta.media.1.codec.long_name">ATSC A/52A (AC-3)</property>
  <property name="meta.media.1.codec.bit_rate">448000</property>
  <property name="meta.attr.1.stream.language.markup">jpn</property>
  <property name="meta.attr.1.stream.title.markup">Japanese DVD AC-3 DD_2.0</property>
  <property name="meta.attr.1.stream.BPS.markup">448000</property>
  <property name="meta.attr.1.stream.DURATION.markup">00:23:55.488000000</property>
  <property name="meta.attr.1.stream.NUMBER_OF_FRAMES.markup">44859</property>
  <property name="meta.attr.1.stream.NUMBER_OF_BYTES.markup">80387328</property>
  <property name="meta.attr.1.stream._STATISTICS_WRITING_APP.markup">mkvmerge v61.0.0 ('So') 64-bit</property>
  <property name="meta.attr.1.stream._STATISTICS_WRITING_DATE_UTC.markup">2022-10-15 07:56:27</property>
  <property name="meta.attr.1.stream._STATISTICS_TAGS.markup">BPS DURATION NUMBER_OF_FRAMES NUMBER_OF_BYTES</property>
  <property name="meta.media.2.stream.type">audio</property>
  <property name="meta.media.2.codec.sample_fmt">fltp</property>
  <property name="meta.media.2.codec.sample_rate">48000</property>
  <property name="meta.media.2.codec.channels">2</property>
  <property name="meta.media.2.codec.name">aac</property>
  <property name="meta.media.2.codec.long_name">AAC (Advanced Audio Coding)</property>
  <property name="meta.media.2.codec.bit_rate">0</property>
  <property name="meta.attr.2.stream.language.markup">eng</property>
  <property name="meta.attr.2.stream.title.markup">English AAC DD_2.0</property>
  <property name="meta.attr.2.stream.BPS.markup">164115</property>
  <property name="meta.attr.2.stream.DURATION.markup">00:23:55.199000000</property>
  <property name="meta.attr.2.stream.NUMBER_OF_FRAMES.markup">67275</property>
  <property name="meta.attr.2.stream.NUMBER_OF_BYTES.markup">29442361</property>
  <property name="meta.attr.2.stream._STATISTICS_WRITING_APP.markup">mkvmerge v61.0.0 ('So') 64-bit</property>
  <property name="meta.attr.2.stream._STATISTICS_WRITING_DATE_UTC.markup">2022-10-15 07:56:27</property>
  <property name="meta.attr.2.stream._STATISTICS_TAGS.markup">BPS DURATION NUMBER_OF_FRAMES NUMBER_OF_BYTES</property>
  <property name="meta.media.3.codec.name">ssa</property>
  <property name="meta.media.3.codec.long_name">ASS (Advanced SubStation Alpha) subtitle</property>
  <property name="meta.media.3.codec.bit_rate">0</property>
  <property name="meta.attr.3.stream.language.markup">eng</property>
  <property name="meta.attr.3.stream.title.markup">English (Full) ASS</property>
  <property name="meta.attr.3.stream.BPS.markup">70</property>
  <property name="meta.attr.3.stream.DURATION.markup">00:23:51.620000000</property>
  <property name="meta.attr.3.stream.NUMBER_OF_FRAMES.markup">223</property>
  <property name="meta.attr.3.stream.NUMBER_OF_BYTES.markup">12615</property>
  <property name="meta.attr.3.stream._STATISTICS_WRITING_APP.markup">mkvmerge v61.0.0 ('So') 64-bit</property>
  <property name="meta.attr.3.stream._STATISTICS_WRITING_DATE_UTC.markup">2022-10-15 07:56:27</property>
  <property name="meta.attr.3.stream._STATISTICS_TAGS.markup">BPS DURATION NUMBER_OF_FRAMES NUMBER_OF_BYTES</property>
  <property name="meta.media.4.codec.name">ssa</property>
  <property name="meta.media.4.codec.long_name">ASS (Advanced SubStation Alpha) subtitle</property>
  <property name="meta.media.4.codec.bit_rate">0</property>
  <property name="meta.attr.4.stream.language.markup">eng</property>
  <property name="meta.attr.4.stream.title.markup">English (Titles &amp; Signs) ASS</property>
  <property name="meta.attr.4.stream.BPS.markup">1</property>
  <property name="meta.attr.4.stream.DURATION.markup">00:21:44.010000000</property>
  <property name="meta.attr.4.stream.NUMBER_OF_FRAMES.markup">3</property>
  <property name="meta.attr.4.stream.NUMBER_OF_BYTES.markup">191</property>
  <property name="meta.attr.4.stream._STATISTICS_WRITING_APP.markup">mkvmerge v61.0.0 ('So') 64-bit</property>
  <property name="meta.attr.4.stream._STATISTICS_WRITING_DATE_UTC.markup">2022-10-15 07:56:27</property>
  <property name="meta.attr.4.stream._STATISTICS_TAGS.markup">BPS DURATION NUMBER_OF_FRAMES NUMBER_OF_BYTES</property>
  <property name="meta.media.5.codec.name">ssa</property>
  <property name="meta.media.5.codec.long_name">ASS (Advanced SubStation Alpha) subtitle</property>
  <property name="meta.media.5.codec.bit_rate">0</property>
  <property name="meta.attr.5.stream.language.markup">ara</property>
  <property name="meta.attr.5.stream.title.markup">Arabic</property>
  <property name="meta.attr.5.stream.BPS.markup">90</property>
  <property name="meta.attr.5.stream.DURATION.markup">00:22:20.770000000</property>
  <property name="meta.attr.5.stream.NUMBER_OF_FRAMES.markup">264</property>
  <property name="meta.attr.5.stream.NUMBER_OF_BYTES.markup">15190</property>
  <property name="meta.attr.5.stream._STATISTICS_WRITING_APP.markup">mkvmerge v61.0.0 ('So') 64-bit</property>
  <property name="meta.attr.5.stream._STATISTICS_WRITING_DATE_UTC.markup">2022-10-15 07:56:27</property>
  <property name="meta.attr.5.stream._STATISTICS_TAGS.markup">BPS DURATION NUMBER_OF_FRAMES NUMBER_OF_BYTES</property>
  <property name="meta.attr.title.markup">Monster : Chapter 07 : Mansion Of Tragedy</property>
  <property name="meta.attr.encoder.markup">libebml v1.4.2 + libmatroska v1.6.4</property>
  <property name="meta.attr.creation_time.markup">2022-10-15T07:56:27.000000Z</property>
  <property name="meta.media.sample_aspect_num">1</property>
  <property name="meta.media.sample_aspect_den">1</property>
  <property name="meta.media.frame_rate_num">24000</property>
  <property name="meta.media.frame_rate_den">1001</property>
  <property name="meta.media.colorspace">709</property>
  <property name="meta.media.color_trc">1</property>
  <property name="meta.media.has_b_frames">2</property>
  <property name="meta.media.width">1440</property>
  <property name="meta.media.height">1080</property>
  <property name="meta.media.color_range">mpeg</property>
  <property name="meta.media.top_field_first">0</property>
  <property name="meta.media.progressive">1</property>
  <property name="set.test_audio">1</property>
  <property name="set.test_image">0</property>
  <property name="format">3</property>
  <property name="kdenlive:control_uuid">{f6a7a0b1-dd02-4ebf-b54a-da71ba6720db}</property>
 </chain>
 <playlist id="playlist8">
  <entry in="00:00:00.000" out="00:00:18.810" producer="producer30">
   <property name="kdenlive:id">2</property>
  </entry>
  <blank length="00:00:02.252"/>
  <entry in="00:00:19.269" out="00:00:24.358" producer="producer30">
   <property name="kdenlive:id">2</property>
  </entry>
  <blank length="00:01:33.742"/>
  <entry in="00:03:19.102" out="00:05:39.873" producer="producer30">
   <property name="kdenlive:id">2</property>
   <filter id="filter130" in="00:03:19.102" out="00:03:20.229">
    <property name="start">1</property>
    <property name="level">1</property>
    <property name="mlt_service">brightness</property>
    <property name="kdenlive_id">fade_from_black</property>
    <property name="alpha">00:00:00.000=0;00:00:01.126=1</property>
    <property name="kdenlive:collapsed">0</property>
   </filter>
  </entry>
  <blank length="00:00:10.802"/>
  <entry in="00:05:53.887" out="00:08:03.837" producer="producer30">
   <property name="kdenlive:id">2</property>
  </entry>
  <blank length="00:05:00.500"/>
  <entry in="00:13:17.851" out="00:17:34.743" producer="producer30">
   <property name="kdenlive:id">2</property>
   <filter id="filter131" in="00:13:17.851" out="00:13:19.186">
    <property name="start">1</property>
    <property name="level">1</property>
    <property name="mlt_service">brightness</property>
    <property name="kdenlive_id">fade_from_black</property>
    <property name="alpha">00:00:00.000=0;00:00:01.335=1</property>
    <property name="kdenlive:collapsed">0</property>
   </filter>
  </entry>
  <blank length="00:02:12.262"/>
  <entry in="00:19:58.976" out="00:20:04.421" producer="producer30">
   <property name="kdenlive:id">2</property>
  </entry>
  <blank length="00:00:03.962"/>
  <entry in="00:20:19.061" out="00:20:59.393" producer="producer30">
   <property name="kdenlive:id">2</property>
  </entry>
  <blank length="00:00:32.741"/>
  <entry in="00:14:42.960" out="00:14:45.712" producer="producer31">
   <property name="kdenlive:id">2</property>
  </entry>
  <entry in="00:07:22.898" out="00:07:24.483" producer="producer32">
   <property name="kdenlive:id">2</property>
  </entry>
  <entry in="00:00:33.992" out="00:00:34.159" producer="producer33">
   <property name="kdenlive:id">2</property>
  </entry>
  <entry in="00:07:24.316" out="00:07:24.483" producer="producer34">
   <property name="kdenlive:id">2</property>
  </entry>
  <entry in="00:07:24.524" out="00:07:25.108" producer="producer35">
   <property name="kdenlive:id">2</property>
  </entry>
  <entry in="00:22:15.432" out="00:22:27.236" producer="producer30">
   <property name="kdenlive:id">2</property>
  </entry>
  <blank length="00:02:52.844"/>
  <entry in="00:02:53.262" out="00:03:51.677" producer="producer36">
   <property name="kdenlive:id">3</property>
   <filter id="filter132" in="00:03:50.133" out="00:03:51.677">
    <property name="start">1</property>
    <property name="level">1</property>
    <property name="mlt_service">brightness</property>
    <property name="kdenlive_id">fade_to_black</property>
    <property name="alpha">0=1;-1=0</property>
    <property name="kdenlive:collapsed">0</property>
   </filter>
  </entry>
  <blank length="00:00:39.790"/>
  <entry in="00:06:00.167" out="00:06:30.447" producer="producer36">
   <property name="kdenlive:id">3</property>
  </entry>
  <blank length="00:03:24.399"/>
  <entry in="00:10:08.842" out="00:11:05.964" producer="producer36">
   <property name="kdenlive:id">3</property>
  </entry>
  <blank length="00:10:56.431"/>
  <entry in="00:02:07.466" out="00:02:40.666" producer="producer37">
   <property name="kdenlive:id">4</property>
  </entry>
  <blank length="00:00:04.171"/>
  <entry in="00:02:49.341" out="00:02:53.845" producer="producer37">
   <property name="kdenlive:id">4</property>
  </entry>
  <blank length="00:02:18.685"/>
  <entry in="00:05:24.233" out="00:05:32.157" producer="producer37">
   <property name="kdenlive:id">4</property>
  </entry>
 </playlist>
 <playlist id="playlist9"/>
 <tractor id="tractor4" in="00:00:00.000" out="00:43:19.019">
  <property name="kdenlive:trackheight">67</property>
  <property name="kdenlive:timeline_active">1</property>
  <property name="kdenlive:collapsed">0</property>
  <property name="kdenlive:thumbs_format"/>
  <property name="kdenlive:audio_rec"/>
  <track hide="audio" producer="playlist8"/>
  <track hide="audio" producer="playlist9"/>
 </tractor>
 <tractor id="tractor5" in="00:00:00.000" out="01:15:01.960">
  <property name="kdenlive:duration">01:15:02.002</property>
  <property name="kdenlive:maxduration">107939</property>
  <property name="kdenlive:clipname">Sequence 1</property>
  <property name="kdenlive:description"/>
  <property name="kdenlive:uuid">{f93ec43e-2c12-422c-95c0-6c5ca8adfd72}</property>
  <property name="kdenlive:producer_type">17</property>
  <property name="kdenlive:control_uuid">{6b58c70b-a44f-407c-93f2-a62bd9121b20}</property>
  <property name="kdenlive:id">12</property>
  <property name="kdenlive:clip_type">0</property>
  <property name="kdenlive:file_hash">e1262daf66fd3f7ece3766c9ffbbaaaf</property>
  <property name="kdenlive:folderid">11</property>
  <property name="kdenlive:sequenceproperties.activeTrack">3</property>
  <property name="kdenlive:sequenceproperties.audioTarget">-1</property>
  <property name="kdenlive:sequenceproperties.disablepreview">0</property>
  <property name="kdenlive:sequenceproperties.documentuuid">{f93ec43e-2c12-422c-95c0-6c5ca8adfd72}</property>
  <property name="kdenlive:sequenceproperties.hasAudio">1</property>
  <property name="kdenlive:sequenceproperties.hasVideo">1</property>
  <property name="kdenlive:sequenceproperties.hidesubtitle">0</property>
  <property name="kdenlive:sequenceproperties.position">9685</property>
  <property name="kdenlive:sequenceproperties.scrollPos">37884</property>
  <property name="kdenlive:sequenceproperties.subtitlesList">[
    {
        "file": "/mnt/data1/Anime-Edits/Monster/Monster-Editing/Editing/Monster_05-08_Pursued_1080p_24fps.kdenlive.srt",
        "id": 0,
        "name": "Subtitles"
    }
]
</property>
  <property name="kdenlive:sequenceproperties.tracksCount">5</property>
  <property name="kdenlive:sequenceproperties.videoTarget">-1</property>
  <property name="kdenlive:sequenceproperties.zonein">0</property>
  <property name="kdenlive:sequenceproperties.zoneout">108000</property>
  <property name="kdenlive:sequenceproperties.zoom">4</property>
  <property name="kdenlive:sequenceproperties.groups">[
    {
        "children": [
            {
                "data": "3:65892",
                "leaf": "clip",
                "type": "Leaf"
            },
            {
                "data": "2:65891",
                "leaf": "clip",
                "type": "Leaf"
            }
        ],
        "type": "Normal"
    },
    {
        "children": [
            {
                "data": "3:93621",
                "leaf": "clip",
                "type": "Leaf"
            },
            {
                "data": "2:93580",
                "leaf": "clip",
                "type": "Leaf"
            }
        ],
        "type": "Normal"
    },
    {
        "children": [
            {
                "data": "-2:85726",
                "leaf": "subtitle",
                "type": "Leaf"
            },
            {
                "children": [
                    {
                        "data": "3:85699",
                        "leaf": "clip",
                        "type": "Leaf"
                    },
                    {
                        "data": "1:85678",
                        "leaf": "clip",
                        "type": "Leaf"
                    }
                ],
                "type": "Normal"
            }
        ],
        "type": "Normal"
    },
    {
        "children": [
            {
                "data": "1:59480",
                "leaf": "clip",
                "type": "Leaf"
            },
            {
                "data": "3:59372",
                "leaf": "clip",
                "type": "Leaf"
            }
        ],
        "type": "Normal"
    },
    {
        "children": [
            {
                "data": "3:70092",
                "leaf": "clip",
                "type": "Leaf"
            },
            {
                "data": "2:70092",
                "leaf": "clip",
                "type": "Leaf"
            }
        ],
        "type": "Normal"
    },
    {
        "children": [
            {
                "data": "0:76310",
                "leaf": "clip",
                "type": "Leaf"
            },
            {
                "children": [
                    {
                        "data": "3:76953",
                        "leaf": "clip",
                        "type": "Leaf"
                    },
                    {
                        "data": "2:76906",
                        "leaf": "clip",
                        "type": "Leaf"
                    }
                ],
                "type": "Normal"
            }
        ],
        "type": "Normal"
    },
    {
        "children": [
            {
                "data": "2:77936",
                "leaf": "clip",
                "type": "Leaf"
            },
            {
                "data": "3:77966",
                "leaf": "clip",
                "type": "Leaf"
            }
        ],
        "type": "Normal"
    },
    {
        "children": [
            {
                "data": "1:26377",
                "leaf": "clip",
                "type": "Leaf"
            },
            {
                "data": "4:26390",
                "leaf": "clip",
                "type": "Leaf"
            }
        ],
        "type": "Normal"
    },
    {
        "children": [
            {
                "data": "3:1784",
                "leaf": "clip",
                "type": "Leaf"
            },
            {
                "data": "1:1775",
                "leaf": "clip",
                "type": "Leaf"
            }
        ],
        "type": "Normal"
    },
    {
        "children": [
            {
                "data": "3:84452",
                "leaf": "clip",
                "type": "Leaf"
            },
            {
                "data": "2:84452",
                "leaf": "clip",
                "type": "Leaf"
            }
        ],
        "type": "Normal"
    },
    {
        "children": [
            {
                "data": "2:27318",
                "leaf": "clip",
                "type": "Leaf"
            },
            {
                "data": "3:27358",
                "leaf": "clip",
                "type": "Leaf"
            }
        ],
        "type": "Normal"
    },
    {
        "children": [
            {
                "data": "4:62124",
                "leaf": "clip",
                "type": "Leaf"
            },
            {
                "data": "1:62104",
                "leaf": "clip",
                "type": "Leaf"
            }
        ],
        "type": "Normal"
    },
    {
        "children": [
            {
                "data": "3:78839",
                "leaf": "clip",
                "type": "Leaf"
            },
            {
                "children": [
                    {
                        "data": "2:78703",
                        "leaf": "clip",
                        "type": "Leaf"
                    },
                    {
                        "data": "3:78694",
                        "leaf": "clip",
                        "type": "Leaf"
                    }
                ],
                "type": "Normal"
            }
        ],
        "type": "Normal"
    },
    {
        "children": [
            {
                "data": "3:66257",
                "leaf": "clip",
                "type": "Leaf"
            },
            {
                "data": "1:66254",
                "leaf": "clip",
                "type": "Leaf"
            }
        ],
        "type": "Normal"
    },
    {
        "children": [
            {
                "data": "3:69702",
                "leaf": "clip",
                "type": "Leaf"
            },
            {
                "data": "3:69721",
                "leaf": "clip",
                "type": "Leaf"
            },
            {
                "data": "1:69702",
                "leaf": "clip",
                "type": "Leaf"
            }
        ],
        "type": "Normal"
    },
    {
        "children": [
            {
                "data": "1:52327",
                "leaf": "clip",
                "type": "Leaf"
            },
            {
                "data": "3:52327",
                "leaf": "clip",
                "type": "Leaf"
            }
        ],
        "type": "Normal"
    },
    {
        "children": [
            {
                "data": "3:62315",
                "leaf": "clip",
                "type": "Leaf"
            },
            {
                "data": "2:62266",
                "leaf": "clip",
                "type": "Leaf"
            }
        ],
        "type": "Normal"
    },
    {
        "children": [
            {
                "data": "1:65876",
                "leaf": "clip",
                "type": "Leaf"
            },
            {
                "data": "1:65847",
                "leaf": "clip",
                "type": "Leaf"
            },
            {
                "data": "3:65822",
                "leaf": "clip",
                "type": "Leaf"
            },
            {
                "data": "2:65864",
                "leaf": "clip",
                "type": "Leaf"
            }
        ],
        "type": "Normal"
    },
    {
        "children": [
            {
                "data": "4:58690",
                "leaf": "clip",
                "type": "Leaf"
            },
            {
                "data": "1:58690",
                "leaf": "clip",
                "type": "Leaf"
            }
        ],
        "type": "Normal"
    },
    {
        "children": [
            {
                "data": "3:66451",
                "leaf": "clip",
                "type": "Leaf"
            },
            {
                "data": "2:66441",
                "leaf": "clip",
                "type": "Leaf"
            }
        ],
        "type": "Normal"
    },
    {
        "children": [
            {
                "data": "3:55410",
                "leaf": "clip",
                "type": "Leaf"
            },
            {
                "data": "1:55410",
                "leaf": "clip",
                "type": "Leaf"
            },
            {
                "data": "2:55436",
                "leaf": "clip",
                "type": "Leaf"
            }
        ],
        "type": "Normal"
    },
    {
        "children": [
            {
                "data": "-2:2919",
                "leaf": "subtitle",
                "type": "Leaf"
            },
            {
                "children": [
                    {
                        "data": "1:2876",
                        "leaf": "clip",
                        "type": "Leaf"
                    },
                    {
                        "data": "4:2876",
                        "leaf": "clip",
                        "type": "Leaf"
                    }
                ],
                "type": "Normal"
            },
            {
                "data": "-2:3015",
                "leaf": "subtitle",
                "type": "Leaf"
            },
            {
                "data": "-2:3410",
                "leaf": "subtitle",
                "type": "Leaf"
            }
        ],
        "type": "Normal"
    },
    {
        "children": [
            {
                "data": "2:28558",
                "leaf": "clip",
                "type": "Leaf"
            },
            {
                "data": "3:28558",
                "leaf": "clip",
                "type": "Leaf"
            }
        ],
        "type": "Normal"
    },
    {
        "children": [
            {
                "data": "3:2643",
                "leaf": "clip",
                "type": "Leaf"
            },
            {
                "data": "2:2643",
                "leaf": "clip",
                "type": "Leaf"
            }
        ],
        "type": "Normal"
    },
    {
        "children": [
            {
                "data": "1:55785",
                "leaf": "clip",
                "type": "Leaf"
            },
            {
                "data": "3:55785",
                "leaf": "clip",
                "type": "Leaf"
            }
        ],
        "type": "Normal"
    },
    {
        "children": [
            {
                "data": "2:79357",
                "leaf": "clip",
                "type": "Leaf"
            },
            {
                "data": "3:79361",
                "leaf": "clip",
                "type": "Leaf"
            }
        ],
        "type": "Normal"
    },
    {
        "children": [
            {
                "data": "4:16832",
                "leaf": "clip",
                "type": "Leaf"
            },
            {
                "data": "1:16810",
                "leaf": "clip",
                "type": "Leaf"
            }
        ],
        "type": "Normal"
    },
    {
        "children": [
            {
                "data": "3:62912",
                "leaf": "clip",
                "type": "Leaf"
            },
            {
                "data": "1:62846",
                "leaf": "clip",
                "type": "Leaf"
            }
        ],
        "type": "Normal"
    },
    {
        "children": [
            {
                "data": "1:28272",
                "leaf": "clip",
                "type": "Leaf"
            },
            {
                "data": "4:28274",
                "leaf": "clip",
                "type": "Leaf"
            }
        ],
        "type": "Normal"
    },
    {
        "children": [
            {
                "data": "3:71371",
                "leaf": "clip",
                "type": "Leaf"
            },
            {
                "data": "1:71349",
                "leaf": "clip",
                "type": "Leaf"
            }
        ],
        "type": "Normal"
    },
    {
        "children": [
            {
                "data": "2:451",
                "leaf": "clip",
                "type": "Leaf"
            },
            {
                "data": "3:452",
                "leaf": "clip",
                "type": "Leaf"
            }
        ],
        "type": "Normal"
    },
    {
        "children": [
            {
                "data": "2:104433",
                "leaf": "clip",
                "type": "Leaf"
            },
            {
                "data": "-2:105147",
                "leaf": "subtitle",
                "type": "Leaf"
            },
            {
                "data": "3:104572",
                "leaf": "clip",
                "type": "Leaf"
            }
        ],
        "type": "Normal"
    },
    {
        "children": [
            {
                "data": "3:55466",
                "leaf": "clip",
                "type": "Leaf"
            },
            {
                "data": "2:55466",
                "leaf": "clip",
                "type": "Leaf"
            }
        ],
        "type": "Normal"
    },
    {
        "children": [
            {
                "data": "2:6240",
                "leaf": "clip",
                "type": "Leaf"
            },
            {
                "data": "3:6252",
                "leaf": "clip",
                "type": "Leaf"
            }
        ],
        "type": "Normal"
    },
    {
        "children": [
            {
                "data": "3:16832",
                "leaf": "clip",
                "type": "Leaf"
            },
            {
                "data": "-2:14179",
                "leaf": "subtitle",
                "type": "Leaf"
            },
            {
                "data": "2:9616",
                "leaf": "clip",
                "type": "Leaf"
            },
            {
                "data": "3:9628",
                "leaf": "clip",
                "type": "Leaf"
            }
        ],
        "type": "Normal"
    },
    {
        "children": [
            {
                "data": "4:32702",
                "leaf": "clip",
                "type": "Leaf"
            },
            {
                "data": "1:32682",
                "leaf": "clip",
                "type": "Leaf"
            }
        ],
        "type": "Normal"
    },
    {
        "children": [
            {
                "data": "3:95723",
                "leaf": "clip",
                "type": "Leaf"
            },
            {
                "data": "1:95723",
                "leaf": "clip",
                "type": "Leaf"
            }
        ],
        "type": "Normal"
    },
    {
        "children": [
            {
                "data": "2:58587",
                "leaf": "clip",
                "type": "Leaf"
            },
            {
                "data": "3:58590",
                "leaf": "clip",
                "type": "Leaf"
            }
        ],
        "type": "Normal"
    },
    {
        "children": [
            {
                "data": "1:78852",
                "leaf": "clip",
                "type": "Leaf"
            },
            {
                "data": "3:78890",
                "leaf": "clip",
                "type": "Leaf"
            }
        ],
        "type": "Normal"
    },
    {
        "children": [
            {
                "data": "2:55883",
                "leaf": "clip",
                "type": "Leaf"
            },
            {
                "data": "3:55896",
                "leaf": "clip",
                "type": "Leaf"
            }
        ],
        "type": "Normal"
    },
    {
        "children": [
            {
                "data": "1:40668",
                "leaf": "clip",
                "type": "Leaf"
            },
            {
                "data": "4:40684",
                "leaf": "clip",
                "type": "Leaf"
            }
        ],
        "type": "Normal"
    },
    {
        "children": [
            {
                "data": "3:69588",
                "leaf": "clip",
                "type": "Leaf"
            },
            {
                "data": "2:69587",
                "leaf": "clip",
                "type": "Leaf"
            }
        ],
        "type": "Normal"
    },
    {
        "children": [
            {
                "data": "2:41967",
                "leaf": "clip",
                "type": "Leaf"
            },
            {
                "data": "3:42055",
                "leaf": "clip",
                "type": "Leaf"
            }
        ],
        "type": "Normal"
    },
    {
        "children": [
            {
                "data": "4:6511",
                "leaf": "clip",
                "type": "Leaf"
            },
            {
                "data": "1:6473",
                "leaf": "clip",
                "type": "Leaf"
            }
        ],
        "type": "Normal"
    },
    {
        "children": [
            {
                "data": "-2:34151",
                "leaf": "subtitle",
                "type": "Leaf"
            },
            {
                "children": [
                    {
                        "data": "3:34103",
                        "leaf": "clip",
                        "type": "Leaf"
                    },
                    {
                        "data": "2:34103",
                        "leaf": "clip",
                        "type": "Leaf"
                    }
                ],
                "type": "Normal"
            }
        ],
        "type": "Normal"
    },
    {
        "children": [
            {
                "data": "3:26295",
                "leaf": "clip",
                "type": "Leaf"
            },
            {
                "data": "2:26279",
                "leaf": "clip",
                "type": "Leaf"
            }
        ],
        "type": "Normal"
    },
    {
        "children": [
            {
                "data": "4:0",
                "leaf": "clip",
                "type": "Leaf"
            },
            {
                "data": "1:0",
                "leaf": "clip",
                "type": "Leaf"
            }
        ],
        "type": "Normal"
    },
    {
        "children": [
            {
                "data": "1:67137",
                "leaf": "clip",
                "type": "Leaf"
            },
            {
                "data": "3:67183",
                "leaf": "clip",
                "type": "Leaf"
            }
        ],
        "type": "Normal"
    },
    {
        "children": [
            {
                "data": "3:59552",
                "leaf": "clip",
                "type": "Leaf"
            },
            {
                "data": "2:59569",
                "leaf": "clip",
                "type": "Leaf"
            }
        ],
        "type": "Normal"
    },
    {
        "children": [
            {
                "data": "-2:57842",
                "leaf": "subtitle",
                "type": "Leaf"
            },
            {
                "data": "4:57793",
                "leaf": "clip",
                "type": "Leaf"
            },
            {
                "data": "1:57793",
                "leaf": "clip",
                "type": "Leaf"
            }
        ],
        "type": "Normal"
    },
    {
        "children": [
            {
                "data": "3:58799",
                "leaf": "clip",
                "type": "Leaf"
            },
            {
                "data": "2:58778",
                "leaf": "clip",
                "type": "Leaf"
            }
        ],
        "type": "Normal"
    },
    {
        "children": [
            {
                "data": "-2:76068",
                "leaf": "subtitle",
                "type": "Leaf"
            },
            {
                "children": [
                    {
                        "data": "1:72940",
                        "leaf": "clip",
                        "type": "Leaf"
                    },
                    {
                        "data": "1:73002",
                        "leaf": "clip",
                        "type": "Leaf"
                    },
                    {
                        "data": "3:72996",
                        "leaf": "clip",
                        "type": "Leaf"
                    }
                ],
                "type": "Normal"
            }
        ],
        "type": "Normal"
    },
    {
        "children": [
            {
                "data": "2:95792",
                "leaf": "clip",
                "type": "Leaf"
            },
            {
                "data": "3:95792",
                "leaf": "clip",
                "type": "Leaf"
            }
        ],
        "type": "Normal"
    },
    {
        "children": [
            {
                "data": "3:22992",
                "leaf": "clip",
                "type": "Leaf"
            },
            {
                "data": "2:22992",
                "leaf": "clip",
                "type": "Leaf"
            }
        ],
        "type": "Normal"
    },
    {
        "children": [
            {
                "data": "2:64917",
                "leaf": "clip",
                "type": "Leaf"
            },
            {
                "data": "3:64917",
                "leaf": "clip",
                "type": "Leaf"
            }
        ],
        "type": "Normal"
    },
    {
        "children": [
            {
                "data": "3:77534",
                "leaf": "clip",
                "type": "Leaf"
            },
            {
                "data": "1:77498",
                "leaf": "clip",
                "type": "Leaf"
            }
        ],
        "type": "Normal"
    },
    {
        "children": [
            {
                "data": "3:69737",
                "leaf": "clip",
                "type": "Leaf"
            },
            {
                "data": "3:69938",
                "leaf": "clip",
                "type": "Leaf"
            },
            {
                "data": "0:69704",
                "leaf": "clip",
                "type": "Leaf"
            }
        ],
        "type": "Normal"
    },
    {
        "children": [
            {
                "data": "3:78663",
                "leaf": "clip",
                "type": "Leaf"
            },
            {
                "data": "1:78678",
                "leaf": "clip",
                "type": "Leaf"
            }
        ],
        "type": "Normal"
    },
    {
        "children": [
            {
                "data": "2:618",
                "leaf": "clip",
                "type": "Leaf"
            },
            {
                "data": "3:629",
                "leaf": "clip",
                "type": "Leaf"
            }
        ],
        "type": "Normal"
    },
    {
        "children": [
            {
                "data": "4:28143",
                "leaf": "clip",
                "type": "Leaf"
            },
            {
                "data": "1:28092",
                "leaf": "clip",
                "type": "Leaf"
            }
        ],
        "type": "Normal"
    },
    {
        "children": [
            {
                "data": "2:71568",
                "leaf": "clip",
                "type": "Leaf"
            },
            {
                "data": "3:71610",
                "leaf": "clip",
                "type": "Leaf"
            }
        ],
        "type": "Normal"
    },
    {
        "children": [
            {
                "data": "2:86694",
                "leaf": "clip",
                "type": "Leaf"
            },
            {
                "data": "3:86721",
                "leaf": "clip",
                "type": "Leaf"
            }
        ],
        "type": "Normal"
    },
    {
        "children": [
            {
                "data": "3:86788",
                "leaf": "clip",
                "type": "Leaf"
            },
            {
                "data": "1:86788",
                "leaf": "clip",
                "type": "Leaf"
            }
        ],
        "type": "Normal"
    },
    {
        "children": [
            {
                "data": "1:35004",
                "leaf": "clip",
                "type": "Leaf"
            },
            {
                "data": "4:35057",
                "leaf": "clip",
                "type": "Leaf"
            }
        ],
        "type": "Normal"
    },
    {
        "children": [
            {
                "data": "2:54774",
                "leaf": "clip",
                "type": "Leaf"
            },
            {
                "data": "3:54768",
                "leaf": "clip",
                "type": "Leaf"
            }
        ],
        "type": "Normal"
    },
    {
        "children": [
            {
                "data": "2:35714",
                "leaf": "clip",
                "type": "Leaf"
            },
            {
                "data": "3:35784",
                "leaf": "clip",
                "type": "Leaf"
            }
        ],
        "type": "Normal"
    },
    {
        "children": [
            {
                "data": "4:506",
                "leaf": "clip",
                "type": "Leaf"
            },
            {
                "data": "1:500",
                "leaf": "clip",
                "type": "Leaf"
            }
        ],
        "type": "Normal"
    },
    {
        "children": [
            {
                "data": "4:26163",
                "leaf": "clip",
                "type": "Leaf"
            },
            {
                "data": "1:26159",
                "leaf": "clip",
                "type": "Leaf"
            }
        ],
        "type": "Normal"
    },
    {
        "children": [
            {
                "data": "1:96192",
                "leaf": "clip",
                "type": "Leaf"
            },
            {
                "data": "3:96245",
                "leaf": "clip",
                "type": "Leaf"
            }
        ],
        "type": "Normal"
    },
    {
        "children": [
            {
                "data": "2:28210",
                "leaf": "clip",
                "type": "Leaf"
            },
            {
                "data": "4:28210",
                "leaf": "clip",
                "type": "Leaf"
            },
            {
                "data": "4:28249",
                "leaf": "clip",
                "type": "Leaf"
            },
            {
                "data": "4:28254",
                "leaf": "clip",
                "type": "Leaf"
            },
            {
                "data": "4:28259",
                "leaf": "clip",
                "type": "Leaf"
            }
        ],
        "type": "Normal"
    }
]
</property>
  <property name="kdenlive:sequenceproperties.guides">[
]
</property>
  <track producer="producer4"/>
  <track producer="tractor0"/>
  <track producer="tractor1"/>
  <track producer="tractor2"/>
  <track producer="tractor3"/>
  <track producer="tractor4"/>
  <transition id="transition0">
   <property name="a_track">0</property>
   <property name="b_track">1</property>
   <property name="mlt_service">mix</property>
   <property name="kdenlive_id">mix</property>
   <property name="internal_added">237</property>
   <property name="always_active">1</property>
   <property name="accepts_blanks">1</property>
   <property name="sum">1</property>
  </transition>
  <transition id="transition1">
   <property name="a_track">0</property>
   <property name="b_track">2</property>
   <property name="mlt_service">mix</property>
   <property name="kdenlive_id">mix</property>
   <property name="internal_added">237</property>
   <property name="always_active">1</property>
   <property name="accepts_blanks">1</property>
   <property name="sum">1</property>
  </transition>
  <transition id="transition2">
   <property name="a_track">0</property>
   <property name="b_track">3</property>
   <property name="mlt_service">mix</property>
   <property name="kdenlive_id">mix</property>
   <property name="internal_added">237</property>
   <property name="always_active">1</property>
   <property name="accepts_blanks">1</property>
   <property name="sum">1</property>
  </transition>
  <transition id="transition3">
   <property name="a_track">0</property>
   <property name="b_track">4</property>
   <property name="compositing">0</property>
   <property name="distort">0</property>
   <property name="rotate_center">0</property>
   <property name="mlt_service">qtblend</property>
   <property name="kdenlive_id">qtblend</property>
   <property name="internal_added">237</property>
   <property name="always_active">1</property>
  </transition>
  <transition id="transition4">
   <property name="a_track">0</property>
   <property name="b_track">5</property>
   <property name="compositing">0</property>
   <property name="distort">0</property>
   <property name="rotate_center">0</property>
   <property name="mlt_service">qtblend</property>
   <property name="kdenlive_id">qtblend</property>
   <property name="internal_added">237</property>
   <property name="always_active">1</property>
  </transition>
  <filter id="filter133">
   <property name="window">75</property>
   <property name="max_gain">20dB</property>
   <property name="mlt_service">volume</property>
   <property name="internal_added">237</property>
   <property name="disable">1</property>
  </filter>
  <filter id="filter134">
   <property name="channel">-1</property>
   <property name="mlt_service">panner</property>
   <property name="internal_added">237</property>
   <property name="start">0.5</property>
   <property name="disable">1</property>
  </filter>
  <filter id="filter135">
   <property name="window">75</property>
   <property name="max_gain">20dB</property>
   <property name="mlt_service">volume</property>
   <property name="internal_added">237</property>
   <property name="disable">1</property>
  </filter>
  <filter id="filter136">
   <property name="channel">-1</property>
   <property name="mlt_service">panner</property>
   <property name="internal_added">237</property>
   <property name="start">0.5</property>
   <property name="disable">1</property>
  </filter>
  <filter id="filter137">
   <property name="mlt_service">avfilter.subtitles</property>
   <property name="av.alpha">1</property>
   <property name="internal_added">237</property>
   <property name="av.filename">Monster_05-08_Pursued_1080p_24fps.kdenlive.srt</property>
   <property name="av.force_style">Outline=0,Shadow=1,</property>
   <property name="disable">0</property>
  </filter>
 </tractor>
 <playlist id="main_bin">
  <property name="kdenlive:folder.-1.11">Sequences</property>
  <property name="kdenlive:docproperties.activetimeline">{f93ec43e-2c12-422c-95c0-6c5ca8adfd72}</property>
  <property name="kdenlive:docproperties.audioChannels">2</property>
  <property name="kdenlive:docproperties.binsort">0</property>
  <property name="kdenlive:docproperties.browserurl">/home/redxarch/Videos/</property>
  <property name="kdenlive:docproperties.compositing">1</property>
  <property name="kdenlive:docproperties.documentid">1666802191992</property>
  <property name="kdenlive:docproperties.enableTimelineZone">0</property>
  <property name="kdenlive:docproperties.enableexternalproxy">0</property>
  <property name="kdenlive:docproperties.enableproxy">0</property>
  <property name="kdenlive:docproperties.externalproxyparams"/>
  <property name="kdenlive:docproperties.generateimageproxy">0</property>
  <property name="kdenlive:docproperties.generateproxy">0</property>
  <property name="kdenlive:docproperties.guidesCategories">[
    {
        "color": "#9b59b6",
        "comment": "Category 1",
        "index": 0
    },
    {
        "color": "#3daee9",
        "comment": "Category 2",
        "index": 1
    },
    {
        "color": "#1abc9c",
        "comment": "Category 3",
        "index": 2
    },
    {
        "color": "#1cdc9a",
        "comment": "Category 4",
        "index": 3
    },
    {
        "color": "#c9ce3b",
        "comment": "Category 5",
        "index": 4
    },
    {
        "color": "#fdbc4b",
        "comment": "Category 6",
        "index": 5
    },
    {
        "color": "#f39c1f",
        "comment": "Category 7",
        "index": 6
    },
    {
        "color": "#f47750",
        "comment": "Category 8",
        "index": 7
    },
    {
        "color": "#da4453",
        "comment": "Category 9",
        "index": 8
    }
]
</property>
  <property name="kdenlive:docproperties.kdenliveversion">24.08.0</property>
  <property name="kdenlive:docproperties.opensequences">{f93ec43e-2c12-422c-95c0-6c5ca8adfd72}</property>
  <property name="kdenlive:docproperties.previewextension"/>
  <property name="kdenlive:docproperties.previewparameters"/>
  <property name="kdenlive:docproperties.profile">/home/redxarch/.local/share/kdenlive/profiles/customprofile0</property>
  <property name="kdenlive:docproperties.proxyextension"/>
  <property name="kdenlive:docproperties.proxyimageminsize">2000</property>
  <property name="kdenlive:docproperties.proxyimagesize">800</property>
  <property name="kdenlive:docproperties.proxyminsize">1000</property>
  <property name="kdenlive:docproperties.proxyparams"/>
  <property name="kdenlive:docproperties.proxyresize">640</property>
  <property name="kdenlive:docproperties.rendercategory">Ultra-High Definition (4K)</property>
  <property name="kdenlive:docproperties.rendercustomquality">30</property>
  <property name="kdenlive:docproperties.renderendguide">-1</property>
  <property name="kdenlive:docproperties.renderexportaudio">0</property>
  <property name="kdenlive:docproperties.renderfullcolorrange">0</property>
  <property name="kdenlive:docproperties.rendermode">0</property>
  <property name="kdenlive:docproperties.renderplay">0</property>
  <property name="kdenlive:docproperties.renderpreview">0</property>
  <property name="kdenlive:docproperties.renderprofile">SVT-AV1</property>
  <property name="kdenlive:docproperties.renderratio">0</property>
  <property name="kdenlive:docproperties.renderrescale">0</property>
  <property name="kdenlive:docproperties.renderrescaleheight">1</property>
  <property name="kdenlive:docproperties.renderrescalewidth">1</property>
  <property name="kdenlive:docproperties.renderspeed">0</property>
  <property name="kdenlive:docproperties.renderstartguide">-1</property>
  <property name="kdenlive:docproperties.rendertcoverlay">0</property>
  <property name="kdenlive:docproperties.rendertctype">-1</property>
  <property name="kdenlive:docproperties.rendertwopass">0</property>
  <property name="kdenlive:docproperties.renderurl">/mnt/data1/Anime-Edits/Monster/Monster-Editing/Output/Monster-Edit/Monster_05-08_Pursued_1080p_24fps.webm</property>
  <property name="kdenlive:docproperties.seekOffset">30000</property>
  <property name="kdenlive:docproperties.uuid">{f93ec43e-2c12-422c-95c0-6c5ca8adfd72}</property>
  <property name="kdenlive:docproperties.version">1.1</property>
  <property name="kdenlive:docproperties.verticalzoom">1</property>
  <property name="kdenlive:docproperties.zoom">6</property>
  <property name="kdenlive:expandedFolders"/>
  <property name="kdenlive:binZoom">0</property>
  <property name="kdenlive:extraBins">project_bin:-1:0</property>
  <property name="kdenlive:documentnotes">&lt;!DOCTYPE HTML PUBLIC "-//W3C//DTD HTML 4.0//EN" "http://www.w3.org/TR/REC-html40/strict.dtd">
&lt;html>&lt;head>&lt;meta name="qrichtext" content="1" />&lt;meta charset="utf-8" />&lt;style type="text/css">
p, li { white-space: pre-wrap; }
hr { height: 1px; border-width: 0; }
li.unchecked::marker { content: "\2610"; }
li.checked::marker { content: "\2612"; }
&lt;/style>&lt;/head>&lt;body style=" font-family:'Noto Sans'; font-size:10pt; font-weight:400; font-style:normal;">
&lt;p style=" margin-top:0px; margin-bottom:0px; margin-left:0px; margin-right:0px; -qt-block-indent:0; text-indent:0px;">srt formatting: https://docs.fileformat.com/video/srt/&lt;/p>
&lt;p style=" margin-top:0px; margin-bottom:0px; margin-left:0px; margin-right:0px; -qt-block-indent:0; text-indent:0px;">adding empty char to raise subtitles by a line: &lt;/p>
&lt;p style=" margin-top:0px; margin-bottom:0px; margin-left:0px; margin-right:0px; -qt-block-indent:0; text-indent:0px;">https://emptycharacter.com/&lt;/p>
&lt;p style="-qt-paragraph-type:empty; margin-top:0px; margin-bottom:0px; margin-left:0px; margin-right:0px; -qt-block-indent:0; text-indent:0px;">&lt;br />&lt;/p>
&lt;p style=" margin-top:0px; margin-bottom:0px; margin-left:0px; margin-right:0px; -qt-block-indent:0; text-indent:0px;">list of dub voice actors: https://www.behindthevoiceactors.com/tv-shows/Monster/&lt;/p>
&lt;p style="-qt-paragraph-type:empty; margin-top:0px; margin-bottom:0px; margin-left:0px; margin-right:0px; -qt-block-indent:0; text-indent:0px;">&lt;br />&lt;/p>&lt;/body>&lt;/html></property>
  <property name="xml_retain">1</property>
  <entry in="00:00:00.000" out="00:23:55.555" producer="producer0"/>
  <entry in="00:00:00.000" out="00:23:55.472" producer="producer3"/>
  <entry in="00:00:00.000" out="00:23:55.472" producer="producer1"/>
  <entry in="00:00:00.000" out="00:24:09.593" producer="producer2"/>
  <entry in="00:00:00.000" out="00:23:54.012" producer="chain10"/>
  <entry in="00:00:00.000" out="00:23:54.012" producer="chain11"/>
  <entry in="00:00:00.000" out="00:23:54.012" producer="chain12"/>
  <entry in="00:00:00.000" out="00:23:53.011" producer="chain13"/>
  <entry in="00:00:00.000" out="00:01:40.040" producer="producer8"/>
  <entry in="00:00:00.000" out="01:15:01.960" producer="tractor5"/>
 </playlist>
 <tractor id="tractor6" in="00:00:00.000" out="01:15:01.960">
  <property name="kdenlive:projectTractor">1</property>
  <track in="00:00:00.000" out="01:15:01.960" producer="tractor5"/>
 </tractor>
</mlt>
